<?xml version="1.0" encoding="utf-8"?>
<!-- Generator: Adobe Illustrator 17.1.0, SVG Export Plug-In . SVG Version: 6.00 Build 0)  -->
<!DOCTYPE svg PUBLIC "-//W3C//DTD SVG 1.1//EN" "http://www.w3.org/Graphics/SVG/1.1/DTD/svg11.dtd">
<svg version="1.1" xmlns="http://www.w3.org/2000/svg" xmlns:xlink="http://www.w3.org/1999/xlink" x="0px" y="0px"
	 viewBox="0 0 144.6 74.6" enable-background="new 0 0 144.6 74.6" xml:space="preserve">
<g id="Layer_1">
</g>
<g id="Isolation_Mode">
	<g>
		<g>
			<g>
				<line fill="none" stroke="#6D6E71" x1="25.9" y1="15.3" x2="118.7" y2="15.3"/>
				<line fill="none" stroke="#6D6E71" stroke-width="0.2835" x1="25.9" y1="14.2" x2="118.7" y2="14.2"/>
			</g>
			<g>
				<line fill="none" stroke="#6D6E71" x1="118.7" y1="61.4" x2="25.9" y2="61.4"/>
				<line fill="none" stroke="#6D6E71" stroke-width="0.2835" x1="118.7" y1="62.5" x2="25.9" y2="62.5"/>
			</g>
		</g>
		<rect x="1.4" y="21.3" fill="#414042" stroke="#D1D3D4" stroke-width="2.8347" width="141.7" height="34"/>
		<g>
			<g opacity="0.75">
				<text transform="matrix(1 0 0 1 27.0342 44.9274)" font-family="'TSTARPRO-Headline'" font-size="17" letter-spacing="1">BEERSTROT</text>
			</g>
			<g>
				
					<text transform="matrix(1 0 0 1 25.9003 43.7935)" fill="#E6E7E8" font-family="'TSTARPRO-Headline'" font-size="17" letter-spacing="1">BEERSTROT</text>
			</g>
		</g>
		<g>
			<g>
				<path fill="#58595B" d="M42.3,4.4c0-2.9,2-4.3,4.1-4.3c1.6,0,2.3,0.9,2.3,2c0,0.7-0.4,1.4-1,1.4c-0.4,0-0.7-0.3-0.7-0.7
					c0-0.4,0.2-0.5,0.2-0.8c0-0.4-0.2-0.8-1-0.8c-1,0-2.2,1-2.2,3.1c0,1.8,1.1,2.5,2.3,2.5c1.3,0,1.9-0.5,2.3-0.8
					c0.1-0.1,0.2-0.1,0.3-0.1c0.2,0,0.5,0.2,0.5,0.4c0,0.1,0,0.2-0.1,0.3c-0.5,0.6-1.4,1.5-3,1.5C43.9,8.1,42.3,6.5,42.3,4.4z"/>
				<path fill="#58595B" d="M53.4,7.4c-0.3,0.3-0.9,0.7-1.7,0.7c-1.2,0-2-1.1-2-2.6c0-2,1.6-2.9,2.5-2.9c0.4,0,1,0.1,1.4,0.3
					c0.1-0.2,0.3-0.2,0.5-0.2c0.4,0,0.7,0.3,0.7,0.7c0,1.3-0.1,2-0.1,3.2c0,0.2,0.2,0.3,0.3,0.3c0.2,0,0.3-0.1,0.4-0.2
					c0.1-0.2,0.4-0.1,0.5,0c0.2,0.1,0.2,0.3,0,0.6c-0.2,0.3-0.5,0.7-1.3,0.7C54.1,8.1,53.6,7.8,53.4,7.4z M53.3,5.6l0-1.6
					c0,0-0.3-0.2-0.9-0.2c-0.7,0-1.3,0.4-1.3,1.6c0,0.8,0.4,1.3,0.9,1.3C52.9,6.8,53.2,6.1,53.3,5.6z"/>
				<path fill="#58595B" d="M57.3,0c0.5,0,0.8,0.4,0.8,0.8c0,1-0.8,1.9-0.9,2.1c-0.2,0.1-0.4,0.1-0.6,0c-0.2-0.1-0.2-0.4,0-0.6
					C56.7,2.3,56.9,2,57,1.6c-0.3-0.1-0.6-0.4-0.6-0.8C56.4,0.4,56.8,0,57.3,0z"/>
				<path fill="#58595B" d="M68,0.2c0.5,0,0.8,0.4,0.8,0.8c0,3.3-1.9,7-4.8,7c-0.3,0-0.6-0.3-0.6-0.6c0-5-0.7-6.2-1.4-6.2
					c-0.1,0-0.2,0-0.3,0.2c-0.1,0.2-0.4,0.2-0.6,0.1c-0.2-0.1-0.3-0.3-0.2-0.5c0.3-0.6,0.8-1,1.6-1c2.1,0,2.6,1.9,2.2,6.7
					c1.2-0.2,2.1-1.7,2.4-3.2c0.2-1.2,0.1-1.9,0.1-2.5C67.2,0.6,67.5,0.2,68,0.2z"/>
				<path fill="#58595B" d="M73.6,6.4c0.1-0.1,0.2-0.2,0.3-0.2c0.2,0,0.4,0.2,0.4,0.4c0,0.7-1,1.4-2.3,1.4c-1.7,0-2.9-1.2-2.9-2.6
					c0-1.8,1.1-2.9,2.7-2.9c1.3,0,2.1,0.7,2.1,1.8c0,0.8-0.7,1.8-2.4,1.8c-0.4,0-0.7,0-0.9-0.1C70.9,6.7,71.4,7,72.1,7
					C72.9,7,73.3,6.8,73.6,6.4z M70.6,5.2c0.2,0,0.5,0.1,0.8,0.1c0.8,0,1.1-0.4,1.1-0.9c0-0.3-0.3-0.6-0.6-0.6
					C71.2,3.8,70.7,4.2,70.6,5.2z"/>
				<path fill="#58595B" d="M78.9,6.4c0.1-0.2,0.3-0.2,0.5-0.1c0.2,0.1,0.3,0.3,0.2,0.5c-0.3,0.7-1,1.3-2.3,1.3
					c-1.5,0-2.5-1.2-2.5-2.6c0-1.8,1.1-2.9,2.7-2.9c0.7,0,1.1,0.2,1.4,0.4c0.2,0.1,0.2,0.3,0.2,0.5c0,0.4-0.3,0.7-0.7,0.7
					c-0.3,0-0.4-0.4-0.8-0.4c-0.7,0-1.3,0.5-1.3,1.7c0,0.9,0.6,1.5,1.3,1.5C78.1,7,78.6,6.8,78.9,6.4z"/>
				<path fill="#58595B" d="M84,6.4c0.1-0.2,0.3-0.2,0.5-0.1c0.2,0.1,0.3,0.3,0.2,0.5c-0.3,0.7-1,1.3-2.3,1.3
					c-1.5,0-2.5-1.2-2.5-2.6c0-1.8,1.1-2.9,2.7-2.9c0.7,0,1.1,0.2,1.4,0.4c0.2,0.1,0.2,0.3,0.2,0.5c0,0.4-0.3,0.7-0.7,0.7
					c-0.3,0-0.4-0.4-0.8-0.4c-0.7,0-1.3,0.5-1.3,1.7c0,0.9,0.6,1.5,1.3,1.5C83.2,7,83.7,6.8,84,6.4z"/>
				<path fill="#58595B" d="M88.5,6.7c0-0.6,0.1-1.2,0.1-2.2c0-0.3-0.2-0.6-0.7-0.6c-0.6,0-1.3,0.3-1.3,1.3v2.1
					c0,0.4-0.3,0.7-0.7,0.7c-0.4,0-0.7-0.3-0.7-0.7c0-0.4,0.1-1.3,0.1-1.8c0-2.9-0.1-3.9-0.1-4.7C85.2,0.3,85.6,0,86,0
					c0.4,0,0.8,0.3,0.8,0.7c0,0.8-0.1,1.8-0.1,2.5c0.5-0.5,1.1-0.7,1.6-0.7c1.5,0,1.7,1.2,1.7,1.6c0,0.8-0.1,1.2-0.1,2.4
					c0,0.2,0.2,0.3,0.3,0.3c0.2,0,0.3-0.1,0.4-0.2c0.1-0.2,0.4-0.1,0.5,0c0.2,0.1,0.2,0.3,0,0.6c-0.2,0.3-0.5,0.7-1.3,0.7
					C89.1,8.1,88.5,7.5,88.5,6.7z"/>
				<path fill="#58595B" d="M92.5,0.3c0.5,0,0.8,0.4,0.8,0.8C93.4,1.6,93,2,92.5,2c-0.5,0-0.8-0.4-0.8-0.8C91.7,0.7,92,0.3,92.5,0.3
					z M91.8,6.7c0-0.3,0-0.7,0-1.2c0-0.8-0.1-2.1-0.1-2.1c0-0.4,0.3-0.8,0.8-0.8c0.4,0,0.8,0.3,0.8,0.8c0,1.3-0.1,2-0.1,3.2
					c0,0.2,0.2,0.3,0.4,0.3c0.1,0,0.3-0.1,0.4-0.2c0.1-0.2,0.4-0.1,0.5,0c0.2,0.1,0.2,0.3,0,0.6c-0.2,0.3-0.5,0.7-1.3,0.7
					C92.4,8.1,91.8,7.5,91.8,6.7z"/>
				<path fill="#58595B" d="M98.4,7.4c-0.3,0.3-0.9,0.7-1.7,0.7c-1.2,0-2-1.1-2-2.6c0-2,1.6-2.9,2.5-2.9c0.4,0,1,0.1,1.4,0.3
					c0.1-0.2,0.3-0.2,0.5-0.2c0.4,0,0.7,0.3,0.7,0.7c0,1.3-0.1,2-0.1,3.2c0,0.2,0.2,0.3,0.4,0.3c0.1,0,0.3-0.1,0.4-0.2
					c0.1-0.2,0.4-0.1,0.5,0c0.2,0.1,0.2,0.3,0,0.6c-0.2,0.3-0.5,0.7-1.3,0.7C99.1,8.1,98.6,7.8,98.4,7.4z M98.3,5.6l0-1.6
					c0,0-0.3-0.2-0.9-0.2c-0.7,0-1.3,0.4-1.3,1.6c0,0.8,0.4,1.3,0.9,1.3C97.9,6.8,98.3,6.1,98.3,5.6z"/>
			</g>
			<g>
				<circle fill="#58595B" cx="36" cy="5.3" r="1.1"/>
				<circle fill="#58595B" cx="108.5" cy="5.3" r="1.1"/>
			</g>
		</g>
		<g>
			<g>
				<path fill="#58595B" d="M42.5,73h0.8v-3.7h-0.8v-0.5h2.3v0.5H44V73h0.8v0.5h-2.3V73z"/>
				<path fill="#58595B" d="M45.2,73h0.6v-3.8h-0.6v-0.5h1.2V73H47v0.5h-1.8V73z"/>
				<path fill="#58595B" d="M50.1,72.2c-0.2,0-0.3,0-0.4,0c-0.2,0-0.3,0.1-0.3,0.3c0,0.2,0.1,0.3,0.5,0.3h0.8c0.7,0,1,0.3,1,0.8
					c0,0.6-0.5,1.1-1.7,1.1c-0.9,0-1.4-0.3-1.4-0.7c0-0.3,0.3-0.6,0.7-0.6v0c-0.4-0.1-0.5-0.3-0.5-0.6c0-0.2,0.3-0.5,0.6-0.6
					c-0.3-0.2-0.6-0.4-0.6-0.9c0-0.7,0.6-1.1,1.3-1.1c0.2,0,0.3,0,0.5,0.1c0.2-0.4,0.5-0.6,0.9-0.6c0.3,0,0.5,0.2,0.5,0.4
					c0,0.2-0.1,0.3-0.3,0.3c-0.2,0-0.3-0.1-0.3-0.3c0,0,0,0,0-0.1c-0.1,0-0.3,0.1-0.5,0.4c0.3,0.2,0.5,0.5,0.5,0.8
					C51.4,71.9,50.8,72.2,50.1,72.2z M51.1,73.7c0-0.2-0.1-0.4-0.5-0.4h-0.8c-0.4,0-0.6,0.1-0.6,0.4c0,0.2,0.2,0.5,0.8,0.5
					C50.6,74.3,51.1,74,51.1,73.7z M50.7,71.2c0-0.4-0.2-0.7-0.6-0.7c-0.4,0-0.6,0.2-0.6,0.7c0,0.5,0.2,0.7,0.7,0.7
					C50.5,71.9,50.7,71.7,50.7,71.2z"/>
				<path fill="#58595B" d="M52.4,72.5v-1.8h-0.5v-0.5H53v2c0,0.2,0,0.4,0.2,0.6c0.1,0.1,0.2,0.1,0.4,0.1c0.4,0,0.8-0.4,0.8-1v-1.2
					h-0.5v-0.5h1.2V73h0.5v0.5h-1.2v-0.8c-0.4,0.6-0.7,0.9-1.2,0.9C52.7,73.5,52.4,73.1,52.4,72.5z"/>
				<path fill="#58595B" d="M56,72.3h0.4c0.2,0.5,0.6,0.9,1,0.9c0.4,0,0.5-0.2,0.5-0.4c0-0.3-0.2-0.4-0.8-0.6
					c-0.8-0.2-1.1-0.5-1.1-1c0-0.5,0.4-1,1.1-1c0.3,0,0.6,0.1,0.8,0.4l0.1-0.4h0.4v1.1H58c-0.2-0.5-0.4-0.8-0.9-0.8
					c-0.2,0-0.5,0.1-0.5,0.4c0,0.3,0.2,0.4,0.8,0.6c0.7,0.2,1.1,0.4,1.1,1c0,0.5-0.4,1-1.1,1c-0.4,0-0.7-0.2-0.9-0.4l-0.1,0.4H56
					V72.3z"/>
				<path fill="#58595B" d="M60.1,69.4v0.9h1v0.4h-1v1.9c0,0.3,0.1,0.5,0.4,0.5c0.2,0,0.3-0.2,0.5-0.6l0.3,0.1
					c-0.2,0.6-0.6,0.9-1,0.9c-0.6,0-0.8-0.3-0.8-0.9v-2h-0.6v-0.4h0.6v-0.8L60.1,69.4z"/>
				<path fill="#58595B" d="M61.6,71.8c0-1,0.6-1.7,1.6-1.7c1,0,1.6,0.7,1.6,1.6c0,1-0.6,1.7-1.6,1.7C62.2,73.5,61.6,72.8,61.6,71.8
					z M64,71.8c0-0.9-0.3-1.3-0.9-1.3c-0.6,0-0.8,0.4-0.8,1.3c0,0.9,0.3,1.3,0.9,1.3C63.7,73.1,64,72.7,64,71.8z"/>
				<path fill="#58595B" d="M66.6,73h0.6v-2.3h-0.6v-0.5h1.2V73h0.6v0.5h-1.8V73z M67,69.1c0-0.3,0.2-0.5,0.5-0.5
					c0.3,0,0.5,0.2,0.5,0.5c0,0.3-0.2,0.5-0.5,0.5C67.2,69.6,67,69.4,67,69.1z"/>
				<path fill="#58595B" d="M68.8,73h0.5v-2.3h-0.5v-0.5h1.2V71c0.4-0.6,0.7-0.9,1.2-0.9c0.5,0,0.9,0.4,0.9,1V73h0.5v0.5h-1.6V73
					h0.5v-1.5c0-0.2-0.1-0.4-0.2-0.6c-0.1-0.1-0.2-0.1-0.4-0.1c-0.4,0-0.8,0.4-0.8,1V73h0.5v0.5h-1.6V73z"/>
				<path fill="#58595B" d="M74.1,73h0.5v-2.3H74v-0.4h0.6v-0.1c0-1.1,0.7-1.5,1.4-1.5c0.6,0,0.9,0.3,0.9,0.6c0,0.2-0.2,0.4-0.4,0.4
					c-0.3,0-0.4-0.1-0.4-0.4c0-0.1,0-0.2,0.1-0.2c-0.1,0-0.1-0.1-0.2-0.1c-0.4,0-0.6,0.2-0.6,1.2v0.2h0.9v0.4h-0.9V73H76v0.5h-1.9
					V73z"/>
				<path fill="#58595B" d="M77.2,71.9c0,0.8,0.4,1.2,1,1.2c0.4,0,0.7-0.2,0.9-0.6h0.3c-0.2,0.7-0.7,1-1.4,1c-1,0-1.5-0.7-1.5-1.6
					c0-1,0.7-1.7,1.6-1.7c1,0,1.4,0.9,1.4,1.7H77.2z M77.3,71.5h1.5c0-0.6-0.3-1-0.7-1C77.6,70.5,77.3,70.8,77.3,71.5z"/>
				<path fill="#58595B" d="M79.9,73h0.5v-2.3h-0.5v-0.5h1.2V71c0.2-0.5,0.6-0.8,0.9-0.8c0.4,0,0.6,0.2,0.6,0.5
					c0,0.2-0.2,0.5-0.4,0.5c-0.2,0-0.4-0.1-0.4-0.4c0,0,0-0.1,0-0.1c-0.3,0-0.5,0.3-0.6,0.8V73h0.6v0.5h-1.8V73z"/>
				<path fill="#58595B" d="M87.2,70.2c0.5,0,0.8,0.4,0.8,1V73h0.5v0.5h-1.6V73h0.4v-1.5c0-0.3,0-0.5-0.2-0.6
					c-0.1-0.1-0.2-0.1-0.4-0.1c-0.3,0-0.8,0.4-0.8,1V73h0.4v0.5H85V73h0.4v-1.5c0-0.3,0-0.5-0.2-0.6c-0.1-0.1-0.2-0.1-0.4-0.1
					c-0.4,0-0.8,0.4-0.8,1V73h0.4v0.5h-1.6V73h0.5v-2.3h-0.5v-0.5h1.2V71c0.4-0.6,0.8-0.9,1.2-0.9c0.4,0,0.8,0.2,0.8,0.8
					C86.4,70.4,86.8,70.2,87.2,70.2z"/>
				<path fill="#58595B" d="M89.6,71.9c0,0.8,0.4,1.2,1,1.2c0.4,0,0.7-0.2,0.9-0.6h0.3c-0.2,0.7-0.7,1-1.4,1c-1,0-1.5-0.7-1.5-1.6
					c0-1,0.7-1.7,1.6-1.7c1,0,1.4,0.9,1.4,1.7H89.6z M89.6,71.5h1.5c0-0.6-0.3-1-0.7-1C90,70.5,89.7,70.8,89.6,71.5z"/>
				<path fill="#58595B" d="M92.3,73h0.5v-2.3h-0.5v-0.5h1.2V71c0.4-0.6,0.7-0.9,1.2-0.9c0.5,0,0.9,0.4,0.9,1V73H96v0.5h-1.6V73h0.5
					v-1.5c0-0.2-0.1-0.4-0.2-0.6c-0.1-0.1-0.2-0.1-0.4-0.1c-0.4,0-0.8,0.4-0.8,1V73H94v0.5h-1.6V73z"/>
				<path fill="#58595B" d="M97.4,69.4v0.9h1.1v0.4h-1.1v1.9c0,0.3,0.1,0.5,0.4,0.5c0.2,0,0.4-0.2,0.5-0.6l0.3,0.1
					c-0.2,0.6-0.6,0.9-1,0.9c-0.6,0-0.8-0.3-0.8-0.9v-2h-0.6v-0.4h0.6v-0.8L97.4,69.4z"/>
				<path fill="#58595B" d="M98.9,71.8c0-1,0.6-1.7,1.6-1.7c1,0,1.6,0.7,1.6,1.6c0,1-0.6,1.7-1.6,1.7C99.5,73.5,98.9,72.8,98.9,71.8
					z M101.4,71.8c0-0.9-0.3-1.3-0.9-1.3c-0.6,0-0.8,0.4-0.8,1.3c0,0.9,0.3,1.3,0.9,1.3C101.1,73.1,101.4,72.7,101.4,71.8z"/>
			</g>
		</g>
	</g>
</g>
</svg>
