<?xml version="1.0" encoding="utf-8"?>
<!-- Generator: Adobe Illustrator 17.1.0, SVG Export Plug-In . SVG Version: 6.00 Build 0)  -->
<!DOCTYPE svg PUBLIC "-//W3C//DTD SVG 1.1//EN" "http://www.w3.org/Graphics/SVG/1.1/DTD/svg11.dtd">
<svg version="1.1" id="Layer_1" xmlns="http://www.w3.org/2000/svg" xmlns:xlink="http://www.w3.org/1999/xlink" x="0px" y="0px"
	 viewBox="0 0 841.9 1190.6" enable-background="new 0 0 841.9 1190.6" xml:space="preserve">
<g id="Layer_1_1_">
</g>
<g id="Livello_1">
	<rect x="8.2" y="496" fill="#414042" stroke="#D1D3D4" stroke-width="2.8347" width="825" height="198"/>
	<g>
		<g opacity="0.75">
			<g enable-background="new    ">
				<path d="M207.3,613.5c0,1.1-0.1,2.3-0.3,3.7c-0.2,1.4-0.6,2.8-1.2,4.3c-0.6,1.5-1.3,2.9-2.3,4.4c-1,1.4-2.2,2.7-3.7,3.8
					c-1.5,1.1-3.3,2-5.4,2.7c-2.1,0.7-4.6,1-7.4,1h-22.5V563h22c2.8,0,5.3,0.3,7.4,1c2.1,0.7,3.9,1.6,5.3,2.6
					c1.5,1.1,2.7,2.3,3.6,3.7c0.9,1.4,1.7,2.8,2.2,4.3c0.5,1.5,0.9,2.9,1.1,4.3s0.3,2.6,0.3,3.7v1.2c0,1-0.2,2.2-0.5,3.4
					c-0.3,1.2-0.8,2.4-1.4,3.6c-0.6,1.2-1.3,2.3-2.2,3.4c-0.9,1.1-1.9,2-3.1,2.8c1.3,0.8,2.4,1.7,3.4,2.8c1,1.1,1.8,2.2,2.5,3.5
					c0.7,1.2,1.2,2.5,1.6,3.9c0.4,1.4,0.6,2.7,0.6,4V613.5z M193.4,582.8c0-1.6-0.2-2.8-0.7-3.8c-0.5-0.9-1.1-1.6-1.8-2.1
					c-0.7-0.5-1.5-0.8-2.3-0.9c-0.8-0.1-1.6-0.2-2.2-0.2h-8.9v15.1h9.5c0.7,0,1.5-0.1,2.2-0.2c0.8-0.2,1.5-0.5,2.1-1
					c0.6-0.5,1.2-1.2,1.6-2.2c0.4-0.9,0.6-2.2,0.6-3.7V582.8z M194.6,611.3c0-1.6-0.2-3-0.7-4s-1.1-1.8-1.8-2.3
					c-0.7-0.5-1.5-0.9-2.4-1.1c-0.9-0.2-1.7-0.3-2.4-0.3h-9.9v17h9.4c0.7,0,1.5-0.1,2.4-0.2c0.9-0.2,1.8-0.5,2.6-1
					c0.8-0.5,1.5-1.3,2-2.2c0.5-1,0.8-2.3,0.8-3.9V611.3z"/>
				<path d="M225.8,633.5V563h40.8v12.8h-28V590h25.9v12.8h-25.9v17.9h28v12.8H225.8z"/>
				<path d="M283.6,633.5V563h40.8v12.8h-28V590h25.9v12.8h-25.9v17.9h28v12.8H283.6z"/>
				<path d="M372.8,633.5L360,606.3h-5.7v27.2h-12.9V563h22.1c2.8,0,5.3,0.3,7.4,1c2.1,0.7,3.9,1.6,5.5,2.7c1.5,1.1,2.8,2.4,3.7,3.8
					c1,1.4,1.8,2.9,2.3,4.4c0.6,1.5,1,2.9,1.2,4.3c0.2,1.4,0.3,2.7,0.3,3.7v3c0,1.3-0.1,2.7-0.4,4.4c-0.3,1.7-0.8,3.4-1.6,5.1
					c-0.8,1.7-1.9,3.4-3.2,4.9c-1.4,1.6-3.2,2.9-5.3,3.9l13.9,29.1H372.8z M371,583.3c0-1.6-0.3-3-0.8-3.9c-0.5-1-1.2-1.7-2-2.3
					c-0.8-0.5-1.6-0.9-2.5-1.1c-0.9-0.2-1.7-0.3-2.4-0.3h-9v17.7h9.2c0.7,0,1.5-0.1,2.4-0.2c0.9-0.2,1.7-0.5,2.5-1s1.4-1.3,1.9-2.3
					c0.5-1,0.8-2.3,0.8-4V583.3z"/>
				<path d="M443.5,614c0,2.9-0.6,5.6-1.7,8.1c-1.1,2.5-2.7,4.6-4.7,6.5c-2,1.8-4.3,3.2-7.1,4.3c-2.7,1-5.6,1.5-8.8,1.5
					c-3.3,0-6.3-0.6-8.9-1.7c-2.7-1.1-5-2.7-6.8-4.7s-3.3-4.3-4.4-7.1c-1-2.7-1.5-5.7-1.5-8.8h12.8c0,1.5,0.2,2.9,0.7,4.1
					c0.5,1.2,1.1,2.2,1.9,2.9c0.8,0.8,1.7,1.4,2.8,1.8c1.1,0.4,2.2,0.6,3.5,0.6c1.5,0,2.8-0.2,4-0.6c1.2-0.4,2.2-0.9,3-1.6
					c0.8-0.7,1.5-1.5,1.9-2.5c0.5-1,0.7-2,0.7-3.2c0-1.8-0.5-3.2-1.4-4.4c-0.9-1.2-2.1-2.2-3.5-3c-1.4-0.8-3.3-1.8-5.7-3.1
					c-2.4-1.2-5.6-2.9-9.6-4.9c-1.4-0.7-2.7-1.6-4-2.8c-1.2-1.1-2.3-2.4-3.2-3.9c-0.9-1.5-1.6-3.1-2.1-4.8c-0.5-1.7-0.8-3.5-0.8-5.3
					c0-2.8,0.5-5.4,1.5-7.8c1-2.4,2.4-4.4,4.3-6.1c1.8-1.7,4-3,6.5-3.9c2.5-0.9,5.3-1.4,8.4-1.4c3.2,0,6,0.5,8.7,1.6
					c2.6,1.1,4.9,2.6,6.8,4.5s3.3,4.2,4.4,6.9c1,2.7,1.5,5.6,1.5,8.7h-13c0-1.4-0.2-2.7-0.6-3.9c-0.4-1.1-1-2.1-1.8-2.9
					c-0.8-0.8-1.7-1.4-2.7-1.8s-2.1-0.6-3.3-0.6c-1.1,0-2.1,0.1-3.1,0.4c-1,0.3-1.8,0.7-2.5,1.3c-0.7,0.6-1.3,1.3-1.7,2.1
					c-0.4,0.8-0.6,1.8-0.6,2.9c0,1.2,0.4,2.3,1.1,3.2c0.7,1,1.7,1.8,3.1,2.5c2.1,1.1,3.9,2,5.5,2.8c1.5,0.8,2.8,1.4,3.9,2
					c1.1,0.5,2.1,1,2.9,1.5c0.8,0.4,1.5,0.8,2.2,1.2c3.8,2,6.6,4.7,8.6,7.9S443.5,609.8,443.5,614z"/>
				<path d="M483.8,575.9v57.6H471v-57.6h-15.7V563h44.3v12.9H483.8z"/>
				<path d="M545.7,633.5l-12.8-27.2h-5.7v27.2h-12.9V563h22.1c2.8,0,5.3,0.3,7.4,1c2.1,0.7,3.9,1.6,5.5,2.7
					c1.5,1.1,2.8,2.4,3.7,3.8c1,1.4,1.8,2.9,2.3,4.4c0.6,1.5,1,2.9,1.2,4.3c0.2,1.4,0.3,2.7,0.3,3.7v3c0,1.3-0.1,2.7-0.4,4.4
					c-0.3,1.7-0.8,3.4-1.6,5.1c-0.8,1.7-1.9,3.4-3.2,4.9c-1.4,1.6-3.2,2.9-5.3,3.9l13.9,29.1H545.7z M543.9,583.3
					c0-1.6-0.3-3-0.8-3.9c-0.5-1-1.2-1.7-2-2.3c-0.8-0.5-1.6-0.9-2.5-1.1c-0.9-0.2-1.7-0.3-2.4-0.3h-9v17.7h9.2
					c0.7,0,1.5-0.1,2.4-0.2c0.9-0.2,1.7-0.5,2.5-1s1.4-1.3,1.9-2.3c0.5-1,0.8-2.3,0.8-4V583.3z"/>
				<path d="M616.8,614c0,1.1-0.1,2.4-0.4,3.8c-0.3,1.4-0.7,2.9-1.4,4.4c-0.6,1.5-1.5,3-2.6,4.4c-1.1,1.4-2.4,2.7-4,3.9
					c-1.6,1.1-3.4,2-5.6,2.7c-2.1,0.7-4.6,1-7.4,1c-2.8,0-5.2-0.3-7.3-1c-2.1-0.7-3.9-1.6-5.5-2.8c-1.6-1.1-2.9-2.4-3.9-3.9
					c-1.1-1.5-1.9-3-2.6-4.5c-0.7-1.5-1.1-3-1.4-4.4c-0.3-1.5-0.4-2.7-0.4-3.9v-31.5c0-1.1,0.1-2.3,0.4-3.7c0.3-1.4,0.7-2.8,1.3-4.3
					c0.6-1.5,1.5-2.9,2.5-4.3c1.1-1.4,2.4-2.7,3.9-3.8c1.6-1.1,3.4-2,5.6-2.7c2.2-0.7,4.7-1,7.5-1c2.7,0,5.1,0.3,7.2,1
					c2.1,0.7,4,1.6,5.5,2.7c1.6,1.1,2.9,2.4,4,3.8c1.1,1.4,1.9,2.9,2.6,4.3s1.1,2.9,1.4,4.3c0.3,1.4,0.4,2.7,0.4,3.8V614z
					 M603.8,582.6c0-1.6-0.3-2.9-0.9-3.9c-0.6-1-1.4-1.7-2.2-2.2c-0.9-0.5-1.8-0.9-2.7-1c-0.9-0.2-1.7-0.2-2.4-0.2
					c-0.7,0-1.5,0.1-2.5,0.2c-1,0.2-1.9,0.5-2.8,1c-0.9,0.5-1.6,1.3-2.3,2.2c-0.6,1-0.9,2.3-0.9,3.9v31.3c0,1.7,0.3,3,0.9,4
					c0.6,1,1.4,1.8,2.3,2.3c0.9,0.5,1.8,0.9,2.8,1.1s1.8,0.3,2.5,0.3c0.6,0,1.4-0.1,2.4-0.3s1.8-0.5,2.7-1.1
					c0.9-0.5,1.6-1.3,2.2-2.3c0.6-1,0.9-2.3,0.9-4V582.6z"/>
				<path d="M659,575.9v57.6h-12.8v-57.6h-15.7V563h44.3v12.9H659z"/>
			</g>
		</g>
		<g>
			<g enable-background="new    ">
				<path fill="#E6E7E8" d="M200.7,606.9c0,1.1-0.1,2.3-0.3,3.7c-0.2,1.4-0.6,2.8-1.2,4.3c-0.6,1.5-1.3,2.9-2.3,4.4
					c-1,1.4-2.2,2.7-3.7,3.8c-1.5,1.1-3.3,2-5.4,2.7c-2.1,0.7-4.6,1-7.4,1h-22.5v-70.5h22c2.8,0,5.3,0.3,7.4,1
					c2.1,0.7,3.9,1.6,5.3,2.6c1.5,1.1,2.7,2.3,3.6,3.7c0.9,1.4,1.7,2.8,2.2,4.3c0.5,1.5,0.9,2.9,1.1,4.3s0.3,2.6,0.3,3.7v1.2
					c0,1-0.2,2.2-0.5,3.4c-0.3,1.2-0.8,2.4-1.4,3.6c-0.6,1.2-1.3,2.3-2.2,3.4c-0.9,1.1-1.9,2-3.1,2.8c1.3,0.8,2.4,1.7,3.4,2.8
					c1,1.1,1.8,2.2,2.5,3.5c0.7,1.2,1.2,2.5,1.6,3.9c0.4,1.4,0.6,2.7,0.6,4V606.9z M186.8,576.2c0-1.6-0.2-2.8-0.7-3.8
					c-0.5-0.9-1.1-1.6-1.8-2.1c-0.7-0.5-1.5-0.8-2.3-0.9c-0.8-0.1-1.6-0.2-2.2-0.2h-8.9v15.1h9.5c0.7,0,1.5-0.1,2.2-0.2
					c0.8-0.2,1.5-0.5,2.1-1c0.6-0.5,1.2-1.2,1.6-2.2c0.4-0.9,0.6-2.2,0.6-3.7V576.2z M188,604.7c0-1.6-0.2-3-0.7-4s-1.1-1.8-1.8-2.3
					c-0.7-0.5-1.5-0.9-2.4-1.1c-0.9-0.2-1.7-0.3-2.4-0.3h-9.9v17h9.4c0.7,0,1.5-0.1,2.4-0.2c0.9-0.2,1.8-0.5,2.6-1
					c0.8-0.5,1.5-1.3,2-2.2c0.5-1,0.8-2.3,0.8-3.9V604.7z"/>
				<path fill="#E6E7E8" d="M219.2,626.9v-70.5H260v12.8h-28v14.3h25.9v12.8H232v17.9h28v12.8H219.2z"/>
				<path fill="#E6E7E8" d="M277,626.9v-70.5h40.8v12.8h-28v14.3h25.9v12.8h-25.9v17.9h28v12.8H277z"/>
				<path fill="#E6E7E8" d="M366.2,626.9l-12.8-27.2h-5.7v27.2h-12.9v-70.5h22.1c2.8,0,5.3,0.3,7.4,1c2.1,0.7,3.9,1.6,5.5,2.7
					c1.5,1.1,2.8,2.4,3.7,3.8c1,1.4,1.8,2.9,2.3,4.4c0.6,1.5,1,2.9,1.2,4.3c0.2,1.4,0.3,2.7,0.3,3.7v3c0,1.3-0.1,2.7-0.4,4.4
					c-0.3,1.7-0.8,3.4-1.6,5.1c-0.8,1.7-1.9,3.4-3.2,4.9c-1.4,1.6-3.2,2.9-5.3,3.9l13.9,29.1H366.2z M364.4,576.7
					c0-1.6-0.3-3-0.8-3.9c-0.5-1-1.2-1.7-2-2.3c-0.8-0.5-1.6-0.9-2.5-1.1c-0.9-0.2-1.7-0.3-2.4-0.3h-9v17.7h9.2
					c0.7,0,1.5-0.1,2.4-0.2c0.9-0.2,1.7-0.5,2.5-1s1.4-1.3,1.9-2.3c0.5-1,0.8-2.3,0.8-4V576.7z"/>
				<path fill="#E6E7E8" d="M436.9,607.4c0,2.9-0.6,5.6-1.7,8.1c-1.1,2.5-2.7,4.6-4.7,6.5c-2,1.8-4.3,3.2-7.1,4.3
					c-2.7,1-5.6,1.5-8.8,1.5c-3.3,0-6.3-0.6-8.9-1.7c-2.7-1.1-5-2.7-6.8-4.7s-3.3-4.3-4.4-7.1c-1-2.7-1.5-5.7-1.5-8.8h12.8
					c0,1.5,0.2,2.9,0.7,4.1c0.5,1.2,1.1,2.2,1.9,2.9c0.8,0.8,1.7,1.4,2.8,1.8c1.1,0.4,2.2,0.6,3.5,0.6c1.5,0,2.8-0.2,4-0.6
					c1.2-0.4,2.2-0.9,3-1.6c0.8-0.7,1.5-1.5,1.9-2.5c0.5-1,0.7-2,0.7-3.2c0-1.8-0.5-3.2-1.4-4.4c-0.9-1.2-2.1-2.2-3.5-3
					c-1.4-0.8-3.3-1.8-5.7-3.1c-2.4-1.2-5.6-2.9-9.6-4.9c-1.4-0.7-2.7-1.6-4-2.8c-1.2-1.1-2.3-2.4-3.2-3.9c-0.9-1.5-1.6-3.1-2.1-4.8
					c-0.5-1.7-0.8-3.5-0.8-5.3c0-2.8,0.5-5.4,1.5-7.8c1-2.4,2.4-4.4,4.3-6.1c1.8-1.7,4-3,6.5-3.9c2.5-0.9,5.3-1.4,8.4-1.4
					c3.2,0,6,0.5,8.7,1.6c2.6,1.1,4.9,2.6,6.8,4.5s3.3,4.2,4.4,6.9c1,2.7,1.5,5.6,1.5,8.7h-13c0-1.4-0.2-2.7-0.6-3.9
					c-0.4-1.1-1-2.1-1.8-2.9c-0.8-0.8-1.7-1.4-2.7-1.8c-1-0.4-2.1-0.6-3.3-0.6c-1.1,0-2.1,0.1-3.1,0.4c-1,0.3-1.8,0.7-2.5,1.3
					c-0.7,0.6-1.3,1.3-1.7,2.1c-0.4,0.8-0.6,1.8-0.6,2.9c0,1.2,0.4,2.3,1.1,3.2c0.7,1,1.7,1.8,3.1,2.5c2.1,1.1,3.9,2,5.5,2.8
					c1.5,0.8,2.8,1.4,3.9,2c1.1,0.5,2.1,1,2.9,1.5c0.8,0.4,1.5,0.8,2.2,1.2c3.8,2,6.6,4.7,8.6,7.9
					C435.9,599.5,436.9,603.2,436.9,607.4z"/>
				<path fill="#E6E7E8" d="M477.2,569.3v57.6h-12.8v-57.6h-15.7v-12.9H493v12.9H477.2z"/>
				<path fill="#E6E7E8" d="M539.1,626.9l-12.8-27.2h-5.7v27.2h-12.9v-70.5h22.1c2.8,0,5.3,0.3,7.4,1c2.1,0.7,3.9,1.6,5.5,2.7
					c1.5,1.1,2.8,2.4,3.7,3.8c1,1.4,1.8,2.9,2.3,4.4c0.6,1.5,1,2.9,1.2,4.3c0.2,1.4,0.3,2.7,0.3,3.7v3c0,1.3-0.1,2.7-0.4,4.4
					c-0.3,1.7-0.8,3.4-1.6,5.1c-0.8,1.7-1.9,3.4-3.2,4.9c-1.4,1.6-3.2,2.9-5.3,3.9l13.9,29.1H539.1z M537.3,576.7
					c0-1.6-0.3-3-0.8-3.9c-0.5-1-1.2-1.7-2-2.3c-0.8-0.5-1.6-0.9-2.5-1.1c-0.9-0.2-1.7-0.3-2.4-0.3h-9v17.7h9.2
					c0.7,0,1.5-0.1,2.4-0.2c0.9-0.2,1.7-0.5,2.5-1s1.4-1.3,1.9-2.3c0.5-1,0.8-2.3,0.8-4V576.7z"/>
				<path fill="#E6E7E8" d="M610.2,607.4c0,1.1-0.1,2.4-0.4,3.8c-0.3,1.4-0.7,2.9-1.4,4.4c-0.6,1.5-1.5,3-2.6,4.4
					c-1.1,1.4-2.4,2.7-4,3.9c-1.6,1.1-3.4,2-5.6,2.7c-2.1,0.7-4.6,1-7.4,1c-2.8,0-5.2-0.3-7.3-1c-2.1-0.7-3.9-1.6-5.5-2.8
					c-1.6-1.1-2.9-2.4-3.9-3.9c-1.1-1.5-1.9-3-2.6-4.5c-0.7-1.5-1.1-3-1.4-4.4c-0.3-1.5-0.4-2.7-0.4-3.9v-31.5
					c0-1.1,0.1-2.3,0.4-3.7c0.3-1.4,0.7-2.8,1.3-4.3c0.6-1.5,1.5-2.9,2.5-4.3c1.1-1.4,2.4-2.7,3.9-3.8c1.6-1.1,3.4-2,5.6-2.7
					c2.2-0.7,4.7-1,7.5-1c2.7,0,5.1,0.3,7.2,1c2.1,0.7,4,1.6,5.5,2.7c1.6,1.1,2.9,2.4,4,3.8c1.1,1.4,1.9,2.9,2.6,4.3
					s1.1,2.9,1.4,4.3c0.3,1.4,0.4,2.7,0.4,3.8V607.4z M597.2,576c0-1.6-0.3-2.9-0.9-3.9c-0.6-1-1.4-1.7-2.2-2.2
					c-0.9-0.5-1.8-0.9-2.7-1c-0.9-0.2-1.7-0.2-2.4-0.2c-0.7,0-1.5,0.1-2.5,0.2c-1,0.2-1.9,0.5-2.8,1c-0.9,0.5-1.6,1.3-2.3,2.2
					c-0.6,1-0.9,2.3-0.9,3.9v31.3c0,1.7,0.3,3,0.9,4c0.6,1,1.4,1.8,2.3,2.3c0.9,0.5,1.8,0.9,2.8,1.1s1.8,0.3,2.5,0.3
					c0.6,0,1.4-0.1,2.4-0.3s1.8-0.5,2.7-1.1c0.9-0.5,1.6-1.3,2.2-2.3c0.6-1,0.9-2.3,0.9-4V576z"/>
				<path fill="#E6E7E8" d="M652.4,569.3v57.6h-12.8v-57.6h-15.7v-12.9h44.3v12.9H652.4z"/>
			</g>
		</g>
	</g>
</g>
</svg>
