<?xml version="1.0" encoding="utf-8"?>
<!-- Generator: Adobe Illustrator 17.1.0, SVG Export Plug-In . SVG Version: 6.00 Build 0)  -->
<!DOCTYPE svg PUBLIC "-//W3C//DTD SVG 1.1//EN" "http://www.w3.org/Graphics/SVG/1.1/DTD/svg11.dtd">
<svg version="1.1" id="Livello_1" xmlns="http://www.w3.org/2000/svg" xmlns:xlink="http://www.w3.org/1999/xlink" x="0px" y="0px"
	 viewBox="0 0 1920 1280" enable-background="new 0 0 1920 1280" xml:space="preserve">
<rect x="0" y="0" fill="#FFFFFF" width="1920" height="1280"/>
<g>
	<g>
		<g>
			<line fill="none" stroke="#403120" stroke-width="13.2809" x1="549.3" y1="444.9" x2="1370.7" y2="444.9"/>
			<line fill="none" stroke="#403120" stroke-width="3.7647" x1="549.3" y1="435" x2="1370.7" y2="435"/>
		</g>
		<g>
			<line fill="none" stroke="#403120" stroke-width="13.2809" x1="1370.7" y1="853.4" x2="549.3" y2="853.4"/>
			<line fill="none" stroke="#403120" stroke-width="3.7647" x1="1370.7" y1="863.3" x2="549.3" y2="863.3"/>
		</g>
	</g>
	<g>
		<rect x="332.5" y="498.6" fill="#403F34" width="1254.9" height="301.2"/>
		<polygon points="350.1,788.7 350.1,516.1 1577.7,516.1 1577.7,491.1 325,491.1 325,788.7 		"/>
		<path fill="#BBB8B8" d="M1600,812.3H320V486h1280V812.3z M345.1,787.2h1229.8V511.1H345.1V787.2z"/>
		<g opacity="0.75">
			<g>
				<path d="M600.9,707.5h-34.2V600.4h33.4c25.9,0,30.2,20,30.2,29.9v1.8c0,6.3-3.8,15.4-10.8,20c7.5,4.8,12.2,13.4,12.2,21.5v3.5
					C631.8,686.9,626.7,707.5,600.9,707.5z M610.7,630.5c0-9.6-6.8-10.7-10.8-10.7h-13.5v23h14.5c4.4,0,9.9-1.5,9.9-11V630.5z
					 M612.5,673.8c0-9.9-6.5-11.7-11.1-11.7h-15.1V688h14.3c4.2,0,11.9-1.4,11.9-11.1V673.8z"/>
				<path d="M662.5,707.5V600.4h62v19.4h-42.6v21.7h39.4v19.4h-39.4v27.2h42.6v19.4H662.5z"/>
				<path d="M753,707.5V600.4h62v19.4h-42.6v21.7h39.4v19.4h-39.4v27.2h42.6v19.4H753z"/>
				<path d="M891.1,707.5l-19.4-41.4H863v41.4h-19.6V600.4H877c26,0,31.2,20.6,31.2,30.4v4.7c0,7.7-2.9,21.5-16.1,27.8l21.1,44.2
					H891.1z M888.4,631.2c0-9.9-7.5-11.4-11.7-11.4H863v26.9h14c4.2,0,11.4-1.3,11.4-11.4V631.2z"/>
				<path d="M967.4,708.9c-20,0-33-14.6-33-33.9h19.4c0,9.3,5.7,14.5,13.4,14.5c9,0,14.8-5,14.8-11.9c0-5.4-3.2-8.9-7.4-11.3
					c-4.1-2.4-11.3-6-23.2-12c-8.7-4.4-15.4-14.3-15.4-25.6c0-17.2,12.9-29.2,31.5-29.2c19.3,0,32.5,14,32.5,33.1h-19.7
					c0-8.9-5.4-13.8-12.8-13.8c-6.6,0-12,3.6-12,10.2c0,3.6,2.2,6.6,6.3,8.7c13,6.6,17.9,9,22,11.3c11.4,6.2,17.5,16.3,17.5,28.9
					C1001.3,695.8,986.5,708.9,967.4,708.9z"/>
				<path d="M1065.1,619.9v87.6h-19.4v-87.6h-23.9v-19.6h67.4v19.6H1065.1z"/>
				<path d="M1161.7,707.5l-19.4-41.4h-8.7v41.4H1114V600.4h33.6c26,0,31.2,20.6,31.2,30.4v4.7c0,7.7-2.9,21.5-16.1,27.8l21.1,44.2
					H1161.7z M1159,631.2c0-9.9-7.5-11.4-11.7-11.4h-13.7v26.9h14c4.2,0,11.4-1.3,11.4-11.4V631.2z"/>
				<path d="M1240.2,708.9c-25.1,0-32.2-20.9-32.2-31.2v-47.9c0-9.9,6.5-30.3,32.4-30.3c24.8,0,32.2,20.3,32.2,30.4v47.9
					C1272.5,688.1,1265.7,708.9,1240.2,708.9z M1252.8,630.2c0-9.9-8.6-11.3-12.5-11.3c-4.2,0-12.9,1.4-12.9,11.3v47.6
					c0,10.1,8.7,11.6,12.9,11.6c3.9,0,12.5-1.5,12.5-11.6V630.2z"/>
				<path d="M1339.2,619.9v87.6h-19.4v-87.6h-23.9v-19.6h67.4v19.6H1339.2z"/>
			</g>
		</g>
		<g>
			<g>
				<path fill="#BBB8B8" d="M595.9,702.5h-34.2V595.4h33.4c25.9,0,30.3,20,30.3,30v1.8c0,6.3-3.8,15.3-10.8,20
					c7.5,4.8,12.2,13.4,12.2,21.5v3.5C626.8,681.9,621.6,702.5,595.9,702.5z M605.7,625.5c0-9.6-6.8-10.7-10.8-10.7h-13.5v23h14.4
					c4.4,0,9.9-1.5,9.9-11V625.5z M607.5,668.8c0-9.9-6.5-11.7-11.1-11.7h-15V683h14.3c4.2,0,11.9-1.3,11.9-11.1V668.8z"/>
				<path fill="#BBB8B8" d="M657.5,702.5V595.4h62v19.4h-42.6v21.7h39.4v19.4h-39.4v27.2h42.6v19.4H657.5z"/>
				<path fill="#BBB8B8" d="M747.9,702.5V595.4h62v19.4h-42.6v21.7h39.4v19.4h-39.4v27.2h42.6v19.4H747.9z"/>
				<path fill="#BBB8B8" d="M886.1,702.5l-19.4-41.4h-8.7v41.4h-19.6V595.4H872c26,0,31.1,20.6,31.1,30.4v4.7
					c0,7.7-2.9,21.5-16.1,27.8l21.1,44.3H886.1z M883.4,626.2c0-9.9-7.5-11.4-11.7-11.4h-13.7v26.9h14c4.2,0,11.4-1.4,11.4-11.4
					V626.2z"/>
				<path fill="#BBB8B8" d="M962.4,703.9c-20,0-33-14.6-33-33.9h19.4c0,9.3,5.7,14.4,13.4,14.4c9,0,14.8-5,14.8-11.9
					c0-5.4-3.2-8.9-7.4-11.3c-4.1-2.4-11.3-6-23.2-12c-8.7-4.4-15.3-14.3-15.3-25.6c0-17.2,12.9-29.2,31.5-29.2
					c19.3,0,32.5,14,32.5,33.1h-19.7c0-8.9-5.4-13.8-12.8-13.8c-6.6,0-12,3.6-12,10.2c0,3.6,2.3,6.6,6.3,8.7
					c12.9,6.6,17.9,9,22,11.3c11.4,6.2,17.5,16.3,17.5,28.9C996.3,690.8,981.5,703.9,962.4,703.9z"/>
				<path fill="#BBB8B8" d="M1060.1,614.9v87.6h-19.4v-87.6h-23.9v-19.6h67.4v19.6H1060.1z"/>
				<path fill="#BBB8B8" d="M1156.7,702.5l-19.4-41.4h-8.7v41.4H1109V595.4h33.6c26,0,31.2,20.6,31.2,30.4v4.7
					c0,7.7-2.9,21.5-16.1,27.8l21.1,44.3H1156.7z M1154,626.2c0-9.9-7.5-11.4-11.7-11.4h-13.7v26.9h14c4.2,0,11.4-1.4,11.4-11.4
					V626.2z"/>
				<path fill="#BBB8B8" d="M1235.1,703.9c-25.1,0-32.2-20.9-32.2-31.2v-47.9c0-9.9,6.5-30.3,32.4-30.3c24.8,0,32.2,20.3,32.2,30.4
					v47.8C1267.5,683.1,1260.7,703.9,1235.1,703.9z M1247.8,625.2c0-9.9-8.6-11.3-12.5-11.3c-4.2,0-12.9,1.4-12.9,11.3v47.6
					c0,10.1,8.7,11.6,12.9,11.6c3.9,0,12.5-1.5,12.5-11.6V625.2z"/>
				<path fill="#BBB8B8" d="M1334.2,614.9v87.6h-19.4v-87.6h-23.9v-19.6h67.4v19.6H1334.2z"/>
			</g>
		</g>
	</g>
	<g>
		<g>
			<path fill="#403120" d="M694.7,348.8c0-25.3,17.9-38.2,36.7-38.2c14.2,0,20.8,8.3,20.8,18c0,6.2-3.6,12.2-8.6,12.2
				c-4,0-6.6-2.5-6.6-5.8c0-3.3,1.8-4.7,1.8-7.3c0-3.7-1.8-6.7-8.9-6.7c-8.6,0-19.8,8.8-19.8,27.8c0,16,9.5,21.9,20.1,21.9
				c11.8,0,16.5-4.1,20-7.5c0.7-0.7,1.7-1.1,2.6-1.1c2,0,4,1.9,4,3.9c0,0.7-0.3,1.6-0.9,2.4c-4.1,5.7-12.4,12.9-27,12.9
				C708.4,381.4,694.7,367.3,694.7,348.8z"/>
			<path fill="#403120" d="M792.8,375.1c-3.1,3-7.7,6.3-15.3,6.3c-10.6,0-17.7-9.7-17.7-23c0-18.1,14-25.7,22.1-25.7
				c4,0,8.7,0.8,12.3,3c1.1-1.3,2.7-2.1,4.5-2.1c3.2,0,5.8,2.6,5.8,5.8c0,11.5-0.9,18.1-0.9,28.8c0.1,1.7,1.4,3.1,3.1,3.1
				c1.3,0,2.5-0.5,3.4-1.5c1.2-1.3,3.2-1.2,4.7,0c1.5,1.2,1.4,3.1,0.4,5.1c-1.7,3.1-4.6,6.5-11.5,6.5
				C799,381.4,794.9,378.8,792.8,375.1z M791.6,359.7l0.4-14.2c0,0-2.6-1.8-8.4-1.8c-5.8,0-11.5,3.5-11.5,14.6
				c0,7.5,3.4,11.5,8.4,11.5C788.6,369.9,791.4,364.1,791.6,359.7z"/>
			<path fill="#403120" d="M827,309.7c4.2,0,7.5,3.4,7.5,7.5c0,9.1-6.7,17.1-8.1,18.4c-1.4,1.3-3.5,1.2-5,0c-1.5-1.2-1.4-3.6,0-5
				c0.9-0.9,2.4-3,3.3-6.4c-3-1-5.2-3.7-5.2-7.1C819.5,313.1,822.9,309.7,827,309.7z"/>
			<path fill="#403120" d="M922.2,311.5c4.2,0,7.5,3.4,7.5,7.5c0,29.5-17.3,62.4-42.9,62.4c-2.8,0-5.3-2.3-5.3-5.3
				c0-44.5-6.4-54.6-12.7-54.6c-1.1,0-2,0.4-2.8,1.4c-1.2,1.6-3.4,2.2-5.2,1.1c-1.5-1-2.3-2.7-1.4-4.9c2.5-5.6,6.8-8.5,14-8.5
				c18.7,0,23.4,17.1,19.6,58.9c10.3-1.8,18.9-15.1,21.4-28.4c2-10.4,0.4-16.7,0.4-22.1C914.7,314.8,918,311.5,922.2,311.5z"/>
			<path fill="#403120" d="M971.8,366.7c0.7-1.1,1.8-1.6,2.9-1.6c2.1,0,3.7,1.8,3.7,3.5c0,6.2-8.5,12.7-20.4,12.7
				c-15,0-25.7-10.3-25.7-23c0-16.2,9.9-25.7,23.9-25.7c11.5,0,18.6,6.3,18.6,15.9c0,7.2-5.8,15.7-21.2,15.7c-3.1,0-5.9-0.2-8.1-0.4
				c1.8,5.3,6.3,8.2,12.5,8.2C965.6,372.1,969.2,370.3,971.8,366.7z M944.9,356c1.6,0.3,4.1,0.5,7,0.5c6.7,0,9.7-3.8,9.7-7.9
				c0-2.9-2.4-5.3-5.3-5.3C950.5,343.3,945.6,347.1,944.9,356z"/>
			<path fill="#403120" d="M1018.3,366.3c1.1-1.5,2.8-2,4.5-1.2c1.8,1,2.6,2.6,1.8,4.8c-2.5,5.8-9.1,11.6-20,11.6
				c-13.3,0-22.1-10.3-22.1-23c0-16.2,9.9-25.7,23.9-25.7c5.9,0,9.8,1.8,12.2,3.9c1.3,1.2,1.7,2.6,1.7,4.1c0,3.2-2.4,6-6.5,6
				c-2.5,0-3.8-3.4-7.3-3.4c-6.2,0-11.5,4.4-11.5,15c0,8,5.3,13.3,11.9,13.3C1011.8,371.7,1015.7,369.9,1018.3,366.3z"/>
			<path fill="#403120" d="M1063.4,366.3c1.1-1.5,2.8-2,4.5-1.2c1.8,1,2.6,2.6,1.8,4.8c-2.5,5.8-9.1,11.6-20,11.6
				c-13.3,0-22.1-10.3-22.1-23c0-16.2,9.9-25.7,23.9-25.7c5.9,0,9.8,1.8,12.2,3.9c1.3,1.2,1.7,2.6,1.7,4.1c0,3.2-2.4,6-6.6,6
				c-2.5,0-3.8-3.4-7.3-3.4c-6.2,0-11.5,4.4-11.5,15c0,8,5.3,13.3,11.9,13.3C1057,371.7,1060.9,369.9,1063.4,366.3z"/>
			<path fill="#403120" d="M1103.7,369c0-5.3,0.9-10.6,0.9-19.5c0-3-1.4-5.7-5.8-5.7c-5.5,0-11.9,3-11.9,11.9v18.6
				c0,3.5-2.7,6.2-6.2,6.2c-3.4,0-6.2-2.7-6.2-6.2c0-4,0.9-11.5,0.9-15.9c0-25.7-0.9-34.5-0.9-42c0-3.6,3-6.6,6.6-6.6
				c3.6,0,6.6,3,6.6,6.6c0,7.3-0.4,15.9-0.4,22.6c4.2-4.2,9.8-6.2,14.6-6.2c13.5,0,15,10.3,15,14.2c0,7.1-0.9,10.6-0.9,21.2
				c0,1.7,1.4,3.1,3.1,3.1c1.3,0,2.5-0.5,3.4-1.5c1.2-1.3,3.2-1.2,4.7,0c1.5,1.2,1.4,3.1,0.3,5.1c-1.7,3.1-4.6,6.5-11.5,6.5
				C1109.3,381.4,1103.7,375.8,1103.7,369z"/>
			<path fill="#403120" d="M1139.1,312.4c4.2,0,7.5,3.4,7.5,7.5s-3.4,7.5-7.5,7.5c-4.2,0-7.5-3.4-7.5-7.5S1135,312.4,1139.1,312.4z
				 M1132.6,369c0-3.1,0.4-6.2,0.4-10.6c0-7.5-0.9-19-0.9-19c0-3.6,3-6.6,6.6-6.6c3.6,0,6.6,3,6.6,6.6c0,11.5-0.9,18.1-0.9,28.8
				c0,1.7,1.4,3.1,3.1,3.1c1.3,0,2.5-0.5,3.4-1.5c1.2-1.3,3.2-1.2,4.7,0c1.5,1.2,1.4,3.1,0.4,5.1c-1.7,3.1-4.6,6.5-11.5,6.5
				C1137.7,381.4,1132.6,375.8,1132.6,369z"/>
			<path fill="#403120" d="M1191.3,375.1c-3.1,3-7.7,6.3-15.3,6.3c-10.6,0-17.7-9.7-17.7-23c0-18.1,14-25.7,22.1-25.7
				c4,0,8.7,0.8,12.3,3c1.1-1.3,2.7-2.1,4.5-2.1c3.2,0,5.8,2.6,5.8,5.8c0,11.5-0.9,18.1-0.9,28.8c0.1,1.7,1.4,3.1,3.1,3.1
				c1.3,0,2.5-0.5,3.4-1.5c1.2-1.3,3.2-1.2,4.7,0c1.5,1.2,1.4,3.1,0.4,5.1c-1.7,3.1-4.6,6.5-11.5,6.5
				C1197.5,381.4,1193.4,378.8,1191.3,375.1z M1190.1,359.7l0.4-14.2c0,0-2.6-1.8-8.4-1.8c-5.8,0-11.5,3.5-11.5,14.6
				c0,7.5,3.4,11.5,8.4,11.5C1187.1,369.9,1189.9,364.1,1190.1,359.7z"/>
		</g>
		<g>
			<path fill="#403120" d="M648.8,357.1c0,5.4-4.4,9.7-9.7,9.7c-5.4,0-9.7-4.3-9.7-9.7c0-5.4,4.4-9.7,9.7-9.7
				C644.5,347.3,648.8,351.7,648.8,357.1z"/>
			<path fill="#403120" d="M1290.6,357.1c0,5.4-4.3,9.7-9.7,9.7c-5.4,0-9.7-4.3-9.7-9.7c0-5.4,4.3-9.7,9.7-9.7
				C1286.3,347.3,1290.6,351.7,1290.6,357.1z"/>
		</g>
	</g>
	<g>
		<g>
			<path fill="#403120" d="M696,955.8h6.9v-32.6H696v-4.1h20.2v4.1h-6.9v32.6h6.9v4.1H696V955.8z"/>
			<path fill="#403120" d="M719.8,955.8h5.2v-34h-5.2v-4.5h11v38.5h5.1v4.1h-16.1V955.8z"/>
			<path fill="#403120" d="M763.2,949.3c-1.4,0-2.5-0.2-3.7-0.2c-2,0-3,1.3-3,2.5c0,1.5,1.1,2.5,4.2,2.5h7.5c6.5,0,9.1,2.9,9.1,6.9
				c0,5-4.8,9.3-14.8,9.3c-7.6,0-12.5-2.7-12.5-6.4c0-2.6,2.4-5.1,5.9-5.5v-0.3c-3.3-1.1-4.5-3-4.5-5c0-2.1,2.4-4.5,5.3-5.1
				c-3.1-1.5-5.1-3.8-5.1-7.6c0-5.9,5-9.3,11.6-9.3c1.5,0,3.1,0.3,4.5,0.7c1.9-3.2,4.6-5.5,7.9-5.5c2.4,0,4,1.5,4,3.5
				c0,1.7-1.2,3.1-2.9,3.1c-1.7,0-2.7-1-2.7-2.5c0-0.2,0-0.4,0.1-0.7c-1.1-0.3-3,1.2-4,3.2c2.8,1.6,4.6,4.2,4.6,7.3
				C774.7,946,769.8,949.3,763.2,949.3z M772.1,962.5c0-2-1.1-3.3-4.3-3.3h-7c-3.7,0-5.4,1.3-5.4,3.8c0,2.1,1.4,4.2,7.4,4.2
				C768.3,967.1,772.1,965.3,772.1,962.5z M768.6,940.1c0-3.6-2-6.3-5.7-6.3c-3.5,0-5.3,1.9-5.3,6.3c0,4.4,2.2,6.3,5.8,6.3
				C766.8,946.5,768.6,944.4,768.6,940.1z"/>
			<path fill="#403120" d="M783.8,951.4v-15.8h-4.5v-4.1h10.4v17.8c0,2.2,0.4,4,1.5,5c0.7,0.7,1.8,1.2,3.2,1.2
				c3.5,0,7.4-3.4,7.4-9.1v-10.8H797v-4.1h10.5v24.3h4.5v4.1h-10.2v-7.2c-3.2,5.3-6.6,7.6-10.7,7.6
				C786.6,960.3,783.8,957,783.8,951.4z"/>
			<path fill="#403120" d="M815.9,949.8h3.8c1.6,4.5,5.1,7.7,9.1,7.7c3.4,0,4.8-1.7,4.8-4c0-2.5-1.9-3.6-7.5-5.2
				c-6.8-1.9-9.6-4.3-9.6-8.8c0-4.6,4-8.4,9.8-8.4c2.9,0,5.5,1.1,6.9,3.3l0.6-3.3h3.6v9.7h-3.7c-1.9-4.1-3.7-6.7-7.6-6.7
				c-2.2,0-4.4,1.2-4.4,3.6c0,2.5,2.2,3.8,7.3,5.1c6.6,1.8,9.7,3.9,9.7,8.7c0,4.3-3.8,8.9-10.2,8.9c-3.5,0-6.5-1.5-8.2-3.7l-0.7,3.7
				h-3.6V949.8z"/>
			<path fill="#403120" d="M852.2,924.2v7.7h9.3v3.8h-9.3v16.7c0,2.8,0.8,4.1,3.4,4.1c1.7,0,3.1-1.6,4.3-4.9l2.8,1.2
				c-1.6,5.5-4.9,7.7-8.9,7.7c-4.9,0-7.5-2.9-7.5-7.6v-17.3h-5.6v-3.8h5.6v-7.1L852.2,924.2z"/>
			<path fill="#403120" d="M865.1,945.9c0-8.6,5.7-14.8,14.2-14.8c8.8,0,14.1,6,14.1,14.6c0,8.7-5.7,14.9-14.1,14.9
				C870.5,960.5,865.1,954.5,865.1,945.9z M887,945.7c0-7.8-3-11.3-8-11.3c-4.9,0-7.4,3.5-7.4,11.3c0,7.8,3,11.4,8,11.4
				C884.4,957.1,887,953.6,887,945.7z"/>
			<path fill="#403120" d="M909.6,955.8h5.1v-20.2h-5.1v-4.1h11v24.3h5.2v4.1h-16.1V955.8z M913.2,921.5c0-2.5,1.6-4.2,4-4.2
				c2.4,0,4,1.6,4,4.1c0,2.5-1.6,4.2-4,4.2C914.8,925.6,913.2,924,913.2,921.5z"/>
			<path fill="#403120" d="M928.8,955.8h4.5v-20.2h-4.5v-4.1h10.2v7.2c3.2-5.3,6.6-7.6,10.7-7.6c4.5,0,7.6,3.3,7.6,8.9v15.8h4.5v4.1
				h-14.5v-4.1h4.2v-13.7c0-2.1-0.5-3.9-1.6-5c-0.8-0.8-1.9-1.2-3.3-1.2c-3.5,0-7.4,3.4-7.4,9.1v10.8h4.2v4.1h-14.5V955.8z"/>
			<path fill="#403120" d="M976.2,955.8h4.5v-20.2h-5.6v-3.8h5.6v-1.3c0-9.8,6.3-13.6,12-13.6c5.1,0,8,2.5,8,5.6
				c0,2-1.4,3.8-3.4,3.8c-2.2,0-3.8-1.2-3.8-3.8c0-0.5,0.2-1.4,0.5-2c-0.5-0.3-1.1-0.5-2.2-0.5c-3.2,0-5.3,2.2-5.3,10.2v1.6h8.2v3.8
				h-8.2v20.2h6.5v4.1h-16.8V955.8z"/>
			<path fill="#403120" d="M1004,946.1c0.2,7,3.2,10.5,8.7,10.5c3.5,0,6.1-1.5,7.8-5.3h3c-1.6,6.1-6.1,9.2-12.3,9.2
				c-8.7,0-13.6-6.3-13.6-14.4c0-8.5,5.9-15,14-15c8.5,0,12.3,7.6,12.1,15.1H1004z M1004,943.2h13.6c-0.4-5.3-2.2-8.9-6.6-8.9
				C1007.1,934.3,1004.5,936.8,1004,943.2z"/>
			<path fill="#403120" d="M1027.8,955.8h4.5v-20.2h-4.5v-4.1h10.2v6.6c1.4-4.8,5.2-6.9,8.4-6.9c3.1,0,4.9,2.2,4.9,4.8
				c0,2.2-1.6,4-3.7,4c-2.2,0-3.9-1.3-3.9-3.7c0-0.3,0.1-0.7,0.1-1c-2.8-0.1-4.7,3-5.7,6.8v13.8h5.4v4.1h-15.8V955.8z"/>
			<path fill="#403120" d="M1092.2,931.2c4.5,0,7.3,3.3,7.3,8.9v15.8h4.5v4.1h-14.2v-4.1h3.9v-13.7c0-2.2-0.4-4-1.5-5.1
				c-0.7-0.7-1.7-1.1-3.1-1.1c-3.1,0-7.1,3.4-7.1,9.1v10.8h3.8v4.1h-13.5v-4.1h3.8v-13.7c0-2.2-0.4-4-1.5-5.1
				c-0.7-0.7-1.7-1.1-3.1-1.1c-3.1,0-7.1,3.4-7.1,9.1v10.8h3.8v4.1H1054v-4.1h4.5v-20.2h-4.5v-4.1h10.2v7.2
				c3.2-5.3,6.7-7.6,10.4-7.6c4,0,6.8,2.2,7.1,7.3C1085.1,933.2,1088.5,931.2,1092.2,931.2z"/>
			<path fill="#403120" d="M1113.5,946.1c0.2,7,3.2,10.5,8.7,10.5c3.5,0,6.1-1.5,7.8-5.3h3c-1.6,6.1-6.1,9.2-12.3,9.2
				c-8.7,0-13.6-6.3-13.6-14.4c0-8.5,5.9-15,14-15c8.5,0,12.3,7.6,12.1,15.1H1113.5z M1113.6,943.2h13.6c-0.4-5.3-2.2-8.9-6.6-8.9
				C1116.7,934.3,1114.1,936.8,1113.6,943.2z"/>
			<path fill="#403120" d="M1137.4,955.8h4.5v-20.2h-4.5v-4.1h10.2v7.2c3.2-5.3,6.6-7.6,10.7-7.6c4.5,0,7.6,3.3,7.6,8.9v15.8h4.5
				v4.1h-14.5v-4.1h4.1v-13.7c0-2.1-0.5-3.9-1.6-5c-0.8-0.8-1.9-1.2-3.3-1.2c-3.5,0-7.4,3.4-7.4,9.1v10.8h4.2v4.1h-14.5V955.8z"/>
			<path fill="#403120" d="M1182.8,924.2v7.7h9.3v3.8h-9.3v16.7c0,2.8,0.8,4.1,3.4,4.1c1.7,0,3.1-1.6,4.3-4.9l2.8,1.2
				c-1.6,5.5-4.9,7.7-8.9,7.7c-5,0-7.5-2.9-7.5-7.6v-17.3h-5.6v-3.8h5.6v-7.1L1182.8,924.2z"/>
			<path fill="#403120" d="M1195.7,945.9c0-8.6,5.7-14.8,14.2-14.8c8.8,0,14.1,6,14.1,14.6c0,8.7-5.7,14.9-14.1,14.9
				C1201,960.5,1195.7,954.5,1195.7,945.9z M1217.5,945.7c0-7.8-3-11.3-8-11.3c-4.9,0-7.4,3.5-7.4,11.3c0,7.8,3,11.4,8,11.4
				C1214.9,957.1,1217.5,953.6,1217.5,945.7z"/>
		</g>
	</g>
</g>
</svg>
