<?xml version="1.0" encoding="utf-8"?>
<!-- Generator: Adobe Illustrator 17.1.0, SVG Export Plug-In . SVG Version: 6.00 Build 0)  -->
<!DOCTYPE svg PUBLIC "-//W3C//DTD SVG 1.1//EN" "http://www.w3.org/Graphics/SVG/1.1/DTD/svg11.dtd">
<svg version="1.1" id="Livello_1" xmlns="http://www.w3.org/2000/svg" xmlns:xlink="http://www.w3.org/1999/xlink" x="0px" y="0px"
	 viewBox="0 314.6 841.9 561.3" enable-background="new 0 314.6 841.9 561.3" xml:space="preserve">
<rect y="314.6" fill="#FFFFFF" width="841.9" height="561.3"/>
<g>
	<g>
		<g>
			<line fill="none" stroke="#403120" stroke-width="13.2809" x1="240.9" y1="509.7" x2="601" y2="509.7"/>
			<line fill="none" stroke="#403120" stroke-width="3.7647" x1="240.9" y1="505.4" x2="601" y2="505.4"/>
		</g>
		<g>
			<line fill="none" stroke="#403120" stroke-width="13.2809" x1="601" y1="688.8" x2="240.9" y2="688.8"/>
			<line fill="none" stroke="#403120" stroke-width="3.7647" x1="601" y1="693.2" x2="240.9" y2="693.2"/>
		</g>
	</g>
	<g>
		<rect x="145.8" y="533.3" fill="#403F34" width="550.3" height="132.1"/>
		<polygon points="153.5,660.5 153.5,540.9 691.8,540.9 691.8,530 142.5,530 142.5,660.5 		"/>
		<path fill="#BBB8B8" d="M701.6,670.8H140.3V527.7h561.3V670.8z M151.3,659.8h539.2V538.8H151.3V659.8z"/>
		<g opacity="0.75">
			<g>
				<path d="M263.5,624.9h-15v-47h14.6c11.4,0,13.2,8.8,13.2,13.1v0.8c0,2.8-1.7,6.8-4.7,8.8c3.3,2.1,5.3,5.9,5.3,9.4v1.5
					C277,615.8,274.8,624.9,263.5,624.9z M267.8,591.1c0-4.2-3-4.7-4.7-4.7h-5.9v10.1h6.4c1.9,0,4.3-0.7,4.3-4.8L267.8,591.1
					L267.8,591.1z M268.6,610.1c0-4.3-2.9-5.1-4.9-5.1h-6.6v11.4h6.3c1.8,0,5.2-0.6,5.2-4.9L268.6,610.1L268.6,610.1z"/>
				<path d="M290.5,624.9v-47h27.2v8.5H299v9.5h17.3v8.5H299v11.9h18.7v8.5H290.5L290.5,624.9z"/>
				<path d="M330.2,624.9v-47h27.2v8.5h-18.7v9.5H356v8.5h-17.3v11.9h18.7v8.5H330.2L330.2,624.9z"/>
				<path d="M390.7,624.9l-8.5-18.2h-3.8v18.2h-8.6v-47h14.7c11.4,0,13.7,9,13.7,13.3v2.1c0,3.4-1.3,9.4-7.1,12.2l9.3,19.4H390.7
					L390.7,624.9z M389.5,591.4c0-4.3-3.3-5-5.1-5h-6v11.8h6.1c1.8,0,5-0.6,5-5V591.4z"/>
				<path d="M424.2,625.5c-8.8,0-14.5-6.4-14.5-14.9h8.5c0,4.1,2.5,6.4,5.9,6.4c3.9,0,6.5-2.2,6.5-5.2c0-2.4-1.4-3.9-3.2-5
					c-1.8-1.1-5-2.6-10.2-5.3c-3.8-1.9-6.8-6.3-6.8-11.2c0-7.5,5.7-12.8,13.8-12.8c8.5,0,14.3,6.1,14.3,14.5h-8.6
					c0-3.9-2.4-6.1-5.6-6.1c-2.9,0-5.3,1.6-5.3,4.5c0,1.6,1,2.9,2.8,3.8c5.7,2.9,7.8,3.9,9.6,5c5,2.7,7.7,7.1,7.7,12.7
					C439.1,619.7,432.6,625.5,424.2,625.5z"/>
				<path d="M467,586.5v38.4h-8.5v-38.4H448v-8.6h29.6v8.6H467z"/>
				<path d="M509.4,624.9l-8.5-18.2h-3.8v18.2h-8.6v-47h14.7c11.4,0,13.7,9,13.7,13.3v2.1c0,3.4-1.3,9.4-7.1,12.2l9.3,19.4H509.4
					L509.4,624.9z M508.2,591.4c0-4.3-3.3-5-5.1-5h-6v11.8h6.1c1.8,0,5-0.6,5-5L508.2,591.4L508.2,591.4z"/>
				<path d="M543.8,625.5c-11,0-14.1-9.2-14.1-13.7v-21c0-4.3,2.9-13.3,14.2-13.3c10.9,0,14.1,8.9,14.1,13.3v21
					C558,616.4,555,625.5,543.8,625.5z M549.3,591c0-4.3-3.8-5-5.5-5c-1.8,0-5.7,0.6-5.7,5v20.9c0,4.4,3.8,5.1,5.7,5.1
					c1.7,0,5.5-0.7,5.5-5.1V591z"/>
				<path d="M587.2,586.5v38.4h-8.5v-38.4h-10.5v-8.6h29.6v8.6H587.2z"/>
			</g>
		</g>
		<g>
			<g>
				<path fill="#BBB8B8" d="M261.3,622.7h-15v-47h14.6c11.4,0,13.3,8.8,13.3,13.2v0.8c0,2.8-1.7,6.7-4.7,8.8
					c3.3,2.1,5.3,5.9,5.3,9.4v1.5C274.8,613.6,272.6,622.7,261.3,622.7z M265.6,588.9c0-4.2-3-4.7-4.7-4.7h-5.9v10.1h6.3
					c1.9,0,4.3-0.7,4.3-4.8L265.6,588.9L265.6,588.9z M266.4,607.9c0-4.3-2.9-5.1-4.9-5.1h-6.6v11.4h6.3c1.8,0,5.2-0.6,5.2-4.9
					L266.4,607.9L266.4,607.9z"/>
				<path fill="#BBB8B8" d="M288.3,622.7v-47h27.2v8.5h-18.7v9.5h17.3v8.5h-17.3v11.9h18.7v8.5L288.3,622.7L288.3,622.7z"/>
				<path fill="#BBB8B8" d="M327.9,622.7v-47h27.2v8.5h-18.7v9.5h17.3v8.5h-17.3v11.9h18.7v8.5L327.9,622.7L327.9,622.7z"/>
				<path fill="#BBB8B8" d="M388.5,622.7l-8.5-18.2h-3.8v18.2h-8.6v-47h14.7c11.4,0,13.6,9,13.6,13.3v2.1c0,3.4-1.3,9.4-7.1,12.2
					l9.3,19.4L388.5,622.7L388.5,622.7z M387.4,589.2c0-4.3-3.3-5-5.1-5h-6V596h6.1c1.8,0,5-0.6,5-5V589.2z"/>
				<path fill="#BBB8B8" d="M422,623.3c-8.8,0-14.5-6.4-14.5-14.9h8.5c0,4.1,2.5,6.3,5.9,6.3c3.9,0,6.5-2.2,6.5-5.2
					c0-2.4-1.4-3.9-3.2-5c-1.8-1.1-5-2.6-10.2-5.3c-3.8-1.9-6.7-6.3-6.7-11.2c0-7.5,5.7-12.8,13.8-12.8c8.5,0,14.3,6.1,14.3,14.5
					h-8.6c0-3.9-2.4-6.1-5.6-6.1c-2.9,0-5.3,1.6-5.3,4.5c0,1.6,1,2.9,2.8,3.8c5.7,2.9,7.8,3.9,9.6,5c5,2.7,7.7,7.1,7.7,12.7
					C436.9,617.5,430.4,623.3,422,623.3z"/>
				<path fill="#BBB8B8" d="M464.8,584.3v38.4h-8.5v-38.4h-10.5v-8.6h29.6v8.6H464.8z"/>
				<path fill="#BBB8B8" d="M507.2,622.7l-8.5-18.2h-3.8v18.2h-8.6v-47H501c11.4,0,13.7,9,13.7,13.3v2.1c0,3.4-1.3,9.4-7.1,12.2
					l9.3,19.4L507.2,622.7L507.2,622.7z M506,589.2c0-4.3-3.3-5-5.1-5h-6V596h6.1c1.8,0,5-0.6,5-5L506,589.2L506,589.2z"/>
				<path fill="#BBB8B8" d="M541.6,623.3c-11,0-14.1-9.2-14.1-13.7v-21c0-4.3,2.9-13.3,14.2-13.3c10.9,0,14.1,8.9,14.1,13.3v21
					C555.8,614.2,552.8,623.3,541.6,623.3z M547.1,588.8c0-4.3-3.8-5-5.5-5c-1.8,0-5.7,0.6-5.7,5v20.9c0,4.4,3.8,5.1,5.7,5.1
					c1.7,0,5.5-0.7,5.5-5.1V588.8z"/>
				<path fill="#BBB8B8" d="M585,584.3v38.4h-8.5v-38.4H566v-8.6h29.6v8.6H585z"/>
			</g>
		</g>
	</g>
	<g>
		<g>
			<path fill="#403120" d="M304.6,467.6c0-11.1,7.8-16.8,16.1-16.8c6.2,0,9.1,3.6,9.1,7.9c0,2.7-1.6,5.3-3.8,5.3
				c-1.8,0-2.9-1.1-2.9-2.5s0.8-2.1,0.8-3.2c0-1.6-0.8-2.9-3.9-2.9c-3.8,0-8.7,3.9-8.7,12.2c0,7,4.2,9.6,8.8,9.6
				c5.2,0,7.2-1.8,8.8-3.3c0.3-0.3,0.7-0.5,1.1-0.5c0.9,0,1.8,0.8,1.8,1.7c0,0.3-0.1,0.7-0.4,1.1c-1.8,2.5-5.4,5.7-11.8,5.7
				C310.6,481.9,304.6,475.7,304.6,467.6z"/>
			<path fill="#403120" d="M347.6,479.1c-1.4,1.3-3.4,2.8-6.7,2.8c-4.6,0-7.8-4.3-7.8-10.1c0-7.9,6.1-11.3,9.7-11.3
				c1.8,0,3.8,0.4,5.4,1.3c0.5-0.6,1.2-0.9,2-0.9c1.4,0,2.5,1.1,2.5,2.5c0,5-0.4,7.9-0.4,12.6c0,0.7,0.6,1.4,1.4,1.4
				c0.6,0,1.1-0.2,1.5-0.7c0.5-0.6,1.4-0.5,2.1,0c0.7,0.5,0.6,1.4,0.2,2.2c-0.7,1.4-2,2.9-5,2.9
				C350.3,481.9,348.6,480.7,347.6,479.1z M347.1,472.4l0.2-6.2c0,0-1.1-0.8-3.7-0.8c-2.5,0-5,1.5-5,6.4c0,3.3,1.5,5,3.7,5
				C345.8,476.8,347,474.3,347.1,472.4z"/>
			<path fill="#403120" d="M362.6,450.4c1.8,0,3.3,1.5,3.3,3.3c0,4-2.9,7.5-3.6,8.1c-0.6,0.6-1.5,0.5-2.2,0c-0.7-0.5-0.6-1.6,0-2.2
				c0.4-0.4,1.1-1.3,1.4-2.8c-1.3-0.4-2.3-1.6-2.3-3.1C359.3,451.9,360.8,450.4,362.6,450.4z"/>
			<path fill="#403120" d="M404.4,451.2c1.8,0,3.3,1.5,3.3,3.3c0,12.9-7.6,27.4-18.8,27.4c-1.2,0-2.3-1-2.3-2.3
				c0-19.5-2.8-23.9-5.6-23.9c-0.5,0-0.9,0.2-1.2,0.6c-0.5,0.7-1.5,1-2.3,0.5c-0.7-0.4-1-1.2-0.6-2.1c1.1-2.5,3-3.7,6.1-3.7
				c8.2,0,10.3,7.5,8.6,25.8c4.5-0.8,8.3-6.6,9.4-12.5c0.9-4.6,0.2-7.3,0.2-9.7C401.1,452.7,402.5,451.2,404.4,451.2z"/>
			<path fill="#403120" d="M426.1,475.4c0.3-0.5,0.8-0.7,1.3-0.7c0.9,0,1.6,0.8,1.6,1.5c0,2.7-3.7,5.6-8.9,5.6
				c-6.6,0-11.3-4.5-11.3-10.1c0-7.1,4.3-11.3,10.5-11.3c5,0,8.2,2.8,8.2,7c0,3.2-2.5,6.9-9.3,6.9c-1.4,0-2.6-0.1-3.6-0.2
				c0.8,2.3,2.8,3.6,5.5,3.6C423.4,477.8,425,477,426.1,475.4z M414.3,470.7c0.7,0.1,1.8,0.2,3.1,0.2c2.9,0,4.3-1.7,4.3-3.5
				c0-1.3-1.1-2.3-2.3-2.3C416.8,465.2,414.6,466.8,414.3,470.7z"/>
			<path fill="#403120" d="M446.5,475.3c0.5-0.7,1.2-0.9,2-0.5c0.8,0.4,1.1,1.1,0.8,2.1c-1.1,2.5-4,5.1-8.8,5.1
				c-5.8,0-9.7-4.5-9.7-10.1c0-7.1,4.3-11.3,10.5-11.3c2.6,0,4.3,0.8,5.3,1.7c0.6,0.5,0.7,1.1,0.7,1.8c0,1.4-1.1,2.6-2.9,2.6
				c-1.1,0-1.7-1.5-3.2-1.5c-2.7,0-5,1.9-5,6.6c0,3.5,2.3,5.8,5.2,5.8C443.7,477.6,445.4,476.8,446.5,475.3z"/>
			<path fill="#403120" d="M466.3,475.3c0.5-0.7,1.2-0.9,2-0.5c0.8,0.4,1.1,1.1,0.8,2.1c-1.1,2.5-4,5.1-8.8,5.1
				c-5.8,0-9.7-4.5-9.7-10.1c0-7.1,4.3-11.3,10.5-11.3c2.6,0,4.3,0.8,5.3,1.7c0.6,0.5,0.7,1.1,0.7,1.8c0,1.4-1.1,2.6-2.9,2.6
				c-1.1,0-1.7-1.5-3.2-1.5c-2.7,0-5,1.9-5,6.6c0,3.5,2.3,5.8,5.2,5.8C463.5,477.6,465.2,476.8,466.3,475.3z"/>
			<path fill="#403120" d="M484,476.4c0-2.3,0.4-4.6,0.4-8.6c0-1.3-0.6-2.5-2.5-2.5c-2.4,0-5.2,1.3-5.2,5.2v8.2
				c0,1.5-1.2,2.7-2.7,2.7c-1.5,0-2.7-1.2-2.7-2.7c0-1.8,0.4-5,0.4-7c0-11.3-0.4-15.1-0.4-18.4c0-1.6,1.3-2.9,2.9-2.9
				s2.9,1.3,2.9,2.9c0,3.2-0.2,7-0.2,9.9c1.8-1.8,4.3-2.7,6.4-2.7c5.9,0,6.6,4.5,6.6,6.2c0,3.1-0.4,4.6-0.4,9.3
				c0,0.7,0.6,1.4,1.4,1.4c0.6,0,1.1-0.2,1.5-0.7c0.5-0.6,1.4-0.5,2.1,0c0.7,0.5,0.6,1.4,0.1,2.2c-0.7,1.4-2,2.9-5,2.9
				C486.4,481.9,484,479.4,484,476.4z"/>
			<path fill="#403120" d="M499.5,451.6c1.8,0,3.3,1.5,3.3,3.3s-1.5,3.3-3.3,3.3c-1.8,0-3.3-1.5-3.3-3.3S497.7,451.6,499.5,451.6z
				 M496.6,476.4c0-1.4,0.2-2.7,0.2-4.6c0-3.3-0.4-8.3-0.4-8.3c0-1.6,1.3-2.9,2.9-2.9c1.6,0,2.9,1.3,2.9,2.9c0,5-0.4,7.9-0.4,12.6
				c0,0.7,0.6,1.4,1.4,1.4c0.6,0,1.1-0.2,1.5-0.7c0.5-0.6,1.4-0.5,2.1,0c0.7,0.5,0.6,1.4,0.2,2.2c-0.7,1.4-2,2.9-5,2.9
				C498.9,481.9,496.6,479.4,496.6,476.4z"/>
			<path fill="#403120" d="M522.4,479.1c-1.4,1.3-3.4,2.8-6.7,2.8c-4.6,0-7.8-4.3-7.8-10.1c0-7.9,6.1-11.3,9.7-11.3
				c1.8,0,3.8,0.4,5.4,1.3c0.5-0.6,1.2-0.9,2-0.9c1.4,0,2.5,1.1,2.5,2.5c0,5-0.4,7.9-0.4,12.6c0,0.7,0.6,1.4,1.4,1.4
				c0.6,0,1.1-0.2,1.5-0.7c0.5-0.6,1.4-0.5,2.1,0s0.6,1.4,0.2,2.2c-0.7,1.4-2,2.9-5,2.9C525.1,481.9,523.3,480.7,522.4,479.1z
				 M521.8,472.4l0.2-6.2c0,0-1.1-0.8-3.7-0.8c-2.5,0-5,1.5-5,6.4c0,3.3,1.5,5,3.7,5C520.5,476.8,521.8,474.3,521.8,472.4z"/>
		</g>
		<g>
			<path fill="#403120" d="M284.5,471.2c0,2.4-1.9,4.3-4.3,4.3c-2.4,0-4.3-1.9-4.3-4.3c0-2.4,1.9-4.3,4.3-4.3
				C282.6,466.9,284.5,468.9,284.5,471.2z"/>
			<path fill="#403120" d="M565.9,471.2c0,2.4-1.9,4.3-4.3,4.3c-2.4,0-4.3-1.9-4.3-4.3c0-2.4,1.9-4.3,4.3-4.3
				C564,466.9,565.9,468.9,565.9,471.2z"/>
		</g>
	</g>
	<g>
		<g>
			<path fill="#403120" d="M305.2,733.7h3v-14.3h-3v-1.8h8.9v1.8h-3v14.3h3v1.8h-8.9V733.7z"/>
			<path fill="#403120" d="M315.6,733.7h2.3v-14.9h-2.3v-2h4.8v16.9h2.2v1.8h-7.1V733.7z"/>
			<path fill="#403120" d="M334.7,730.9c-0.6,0-1.1-0.1-1.6-0.1c-0.9,0-1.3,0.6-1.3,1.1c0,0.7,0.5,1.1,1.8,1.1h3.3c2.9,0,4,1.3,4,3
				c0,2.2-2.1,4.1-6.5,4.1c-3.3,0-5.5-1.2-5.5-2.8c0-1.1,1.1-2.2,2.6-2.4v-0.1c-1.4-0.5-2-1.3-2-2.2c0-0.9,1.1-2,2.3-2.2
				c-1.4-0.7-2.2-1.7-2.2-3.3c0-2.6,2.2-4.1,5.1-4.1c0.7,0,1.4,0.1,2,0.3c0.8-1.4,2-2.4,3.5-2.4c1.1,0,1.8,0.7,1.8,1.5
				c0,0.7-0.5,1.4-1.3,1.4c-0.7,0-1.2-0.4-1.2-1.1c0-0.1,0-0.2,0-0.3c-0.5-0.1-1.3,0.5-1.8,1.4c1.2,0.7,2,1.8,2,3.2
				C339.7,729.5,337.5,730.9,334.7,730.9z M338.6,736.7c0-0.9-0.5-1.4-1.9-1.4h-3.1c-1.6,0-2.4,0.6-2.4,1.7c0,0.9,0.6,1.8,3.2,1.8
				C336.9,738.7,338.6,737.9,338.6,736.7z M337,726.9c0-1.6-0.9-2.8-2.5-2.8c-1.5,0-2.3,0.8-2.3,2.8c0,1.9,1,2.8,2.5,2.8
				C336.2,729.7,337,728.7,337,726.9z"/>
			<path fill="#403120" d="M343.7,731.8v-6.9h-2v-1.8h4.6v7.8c0,1,0.2,1.8,0.7,2.2c0.3,0.3,0.8,0.5,1.4,0.5c1.5,0,3.2-1.5,3.2-4
				v-4.7h-2.1v-1.8h4.6v10.7h2v1.8h-4.5v-3.2c-1.4,2.3-2.9,3.3-4.7,3.3C344.9,735.7,343.7,734.3,343.7,731.8z"/>
			<path fill="#403120" d="M357.8,731.1h1.7c0.7,2,2.2,3.4,4,3.4c1.5,0,2.1-0.7,2.1-1.8c0-1.1-0.8-1.6-3.3-2.3
				c-3-0.8-4.2-1.9-4.2-3.9c0-2,1.8-3.7,4.3-3.7c1.3,0,2.4,0.5,3,1.4l0.3-1.4h1.6v4.3h-1.6c-0.8-1.8-1.6-2.9-3.3-2.9
				c-1,0-1.9,0.5-1.9,1.6c0,1.1,1,1.7,3.2,2.2c2.9,0.8,4.3,1.7,4.3,3.8c0,1.9-1.7,3.9-4.5,3.9c-1.5,0-2.9-0.7-3.6-1.6l-0.3,1.6h-1.6
				L357.8,731.1L357.8,731.1z"/>
			<path fill="#403120" d="M373.7,719.9v3.4h4.1v1.7h-4.1v7.3c0,1.2,0.4,1.8,1.5,1.8c0.7,0,1.4-0.7,1.9-2.1l1.2,0.5
				c-0.7,2.4-2.1,3.4-3.9,3.4c-2.1,0-3.3-1.3-3.3-3.3v-7.6h-2.5v-1.7h2.5v-3.1L373.7,719.9z"/>
			<path fill="#403120" d="M379.3,729.4c0-3.8,2.5-6.5,6.2-6.5c3.9,0,6.2,2.6,6.2,6.4c0,3.8-2.5,6.5-6.2,6.5
				C381.7,735.8,379.3,733.2,379.3,729.4z M388.9,729.3c0-3.4-1.3-5-3.5-5c-2.1,0-3.2,1.5-3.2,5s1.3,5,3.5,5
				C387.8,734.3,388.9,732.8,388.9,729.3z"/>
			<path fill="#403120" d="M398.8,733.7h2.2v-8.9h-2.2v-1.8h4.8v10.7h2.3v1.8h-7.1L398.8,733.7L398.8,733.7z M400.4,718.7
				c0-1.1,0.7-1.8,1.8-1.8c1.1,0,1.8,0.7,1.8,1.8c0,1.1-0.7,1.8-1.8,1.8C401.1,720.5,400.4,719.8,400.4,718.7z"/>
			<path fill="#403120" d="M407.3,733.7h2v-8.9h-2v-1.8h4.5v3.2c1.4-2.3,2.9-3.3,4.7-3.3c2,0,3.3,1.4,3.3,3.9v6.9h2v1.8h-6.4v-1.8
				h1.8v-6c0-0.9-0.2-1.7-0.7-2.2c-0.4-0.4-0.8-0.5-1.4-0.5c-1.5,0-3.2,1.5-3.2,4v4.7h1.8v1.8h-6.4L407.3,733.7L407.3,733.7z"/>
			<path fill="#403120" d="M428,733.7h2v-8.9h-2.5v-1.7h2.5v-0.6c0-4.3,2.8-6,5.3-6c2.2,0,3.5,1.1,3.5,2.5c0,0.9-0.6,1.7-1.5,1.7
				c-1,0-1.7-0.5-1.7-1.7c0-0.2,0.1-0.6,0.2-0.9c-0.2-0.1-0.5-0.2-1-0.2c-1.4,0-2.3,1-2.3,4.5v0.7h3.6v1.7h-3.6v8.9h2.9v1.8H428
				V733.7z"/>
			<path fill="#403120" d="M440.2,729.5c0.1,3.1,1.4,4.6,3.8,4.6c1.5,0,2.7-0.7,3.4-2.3h1.3c-0.7,2.7-2.7,4-5.4,4
				c-3.8,0-6-2.8-6-6.3c0-3.7,2.6-6.6,6.1-6.6c3.7,0,5.4,3.3,5.3,6.6L440.2,729.5L440.2,729.5z M440.2,728.2h6
				c-0.2-2.3-1-3.9-2.9-3.9C441.6,724.3,440.5,725.4,440.2,728.2z"/>
			<path fill="#403120" d="M450.7,733.7h2v-8.9h-2v-1.8h4.5v2.9c0.6-2.1,2.3-3,3.7-3c1.4,0,2.1,1,2.1,2.1c0,1-0.7,1.8-1.6,1.8
				c-1,0-1.7-0.6-1.7-1.6c0-0.1,0-0.3,0-0.4c-1.2,0-2.1,1.3-2.5,3v6.1h2.4v1.8h-6.9L450.7,733.7L450.7,733.7z"/>
			<path fill="#403120" d="M478.9,723c2,0,3.2,1.4,3.2,3.9v6.9h2v1.8h-6.2v-1.8h1.7v-6c0-1-0.2-1.8-0.7-2.2
				c-0.3-0.3-0.7-0.5-1.4-0.5c-1.4,0-3.1,1.5-3.1,4v4.7h1.7v1.8h-5.9v-1.8h1.7v-6c0-1-0.2-1.8-0.7-2.2c-0.3-0.3-0.7-0.5-1.4-0.5
				c-1.4,0-3.1,1.5-3.1,4v4.7h1.7v1.8h-6.2v-1.8h2v-8.9h-2v-1.8h4.5v3.2c1.4-2.3,2.9-3.3,4.6-3.3c1.8,0,3,1,3.1,3.2
				C475.8,723.8,477.3,723,478.9,723z"/>
			<path fill="#403120" d="M488.3,729.5c0.1,3.1,1.4,4.6,3.8,4.6c1.5,0,2.7-0.7,3.4-2.3h1.3c-0.7,2.7-2.7,4-5.4,4
				c-3.8,0-6-2.8-6-6.3c0-3.7,2.6-6.6,6.1-6.6c3.7,0,5.4,3.3,5.3,6.6L488.3,729.5L488.3,729.5z M488.3,728.2h6
				c-0.2-2.3-1-3.9-2.9-3.9C489.7,724.3,488.5,725.4,488.3,728.2z"/>
			<path fill="#403120" d="M498.7,733.7h2v-8.9h-2v-1.8h4.5v3.2c1.4-2.3,2.9-3.3,4.7-3.3c2,0,3.3,1.4,3.3,3.9v6.9h2v1.8h-6.4v-1.8
				h1.8v-6c0-0.9-0.2-1.7-0.7-2.2c-0.4-0.4-0.8-0.5-1.4-0.5c-1.5,0-3.2,1.5-3.2,4v4.7h1.8v1.8h-6.4L498.7,733.7L498.7,733.7z"/>
			<path fill="#403120" d="M518.6,719.9v3.4h4.1v1.7h-4.1v7.3c0,1.2,0.4,1.8,1.5,1.8c0.7,0,1.4-0.7,1.9-2.1l1.2,0.5
				c-0.7,2.4-2.1,3.4-3.9,3.4c-2.2,0-3.3-1.3-3.3-3.3v-7.6h-2.5v-1.7h2.5v-3.1L518.6,719.9z"/>
			<path fill="#403120" d="M524.3,729.4c0-3.8,2.5-6.5,6.2-6.5c3.9,0,6.2,2.6,6.2,6.4c0,3.8-2.5,6.5-6.2,6.5
				C526.6,735.8,524.3,733.2,524.3,729.4z M533.9,729.3c0-3.4-1.3-5-3.5-5c-2.1,0-3.2,1.5-3.2,5s1.3,5,3.5,5
				C532.7,734.3,533.9,732.8,533.9,729.3z"/>
		</g>
	</g>
</g>
</svg>
