<?xml version="1.0" encoding="utf-8"?>
<!-- Generator: Adobe Illustrator 17.1.0, SVG Export Plug-In . SVG Version: 6.00 Build 0)  -->
<!DOCTYPE svg PUBLIC "-//W3C//DTD SVG 1.1//EN" "http://www.w3.org/Graphics/SVG/1.1/DTD/svg11.dtd">
<svg version="1.1" id="Livello_1" xmlns="http://www.w3.org/2000/svg" xmlns:xlink="http://www.w3.org/1999/xlink" x="0px" y="0px"
	 viewBox="0 0 1920 1280" enable-background="new 0 0 1920 1280" xml:space="preserve">
<g id="logo">
	<rect x="0" y="0" fill="#FFFFFF" width="1920" height="1280"/>
	<g>
		<g>
			<line fill="none" stroke="#6D6E71" stroke-width="13.2768" x1="344.2" y1="347.5" x2="1575.8" y2="347.5"/>
			<line fill="none" stroke="#6D6E71" stroke-width="3.7635" x1="344.2" y1="332.7" x2="1575.8" y2="332.7"/>
		</g>
		<g>
			<line fill="none" stroke="#6D6E71" stroke-width="13.2768" x1="1575.8" y1="960" x2="344.2" y2="960"/>
			<line fill="none" stroke="#6D6E71" stroke-width="3.7635" x1="1575.8" y1="974.8" x2="344.2" y2="974.8"/>
		</g>
	</g>
	<rect x="19.1" y="427.9" fill="#414042" stroke="#D1D3D4" stroke-width="37.6352" width="1881.8" height="451.6"/>
	<g>
		<g opacity="0.75">
			
				<text transform="matrix(1 0 0 1 359.2294 741.2175)" font-family="'TSTARPRO-Headline'" font-size="225.7063" letter-spacing="16">BEERSTROT</text>
		</g>
		<g>
			
				<text transform="matrix(1 0 0 1 344.1748 726.1629)" fill="#E6E7E8" font-family="'TSTARPRO-Headline'" font-size="225.7063" letter-spacing="16">BEERSTROT</text>
		</g>
	</g>
	<g>
		<g>
			<path fill="#58595B" d="M562.2,203.4c0-37.9,26.8-57.3,55.1-57.3c21.2,0,31.2,12.5,31.2,27.1c0,9.3-5.4,18.3-12.9,18.3
				c-6,0-9.9-3.7-9.9-8.6c0-4.9,2.6-7,2.6-11c0-5.6-2.6-10.1-13.3-10.1c-12.9,0-29.7,13.1-29.7,41.7c0,24,14.2,32.9,30.1,32.9
				c17.6,0,24.8-6.1,30-11.3c1.1-1.1,2.5-1.6,3.8-1.6c3.1,0,6,2.9,6,5.8c0,1.1-0.4,2.4-1.3,3.6c-6.1,8.5-18.6,19.4-40.5,19.4
				C582.7,252.2,562.2,231.1,562.2,203.4z"/>
			<path fill="#58595B" d="M709.2,242.8c-4.6,4.5-11.5,9.4-23,9.4c-15.9,0-26.5-14.6-26.5-34.5c0-27.2,21-38.5,33.2-38.5
				c6,0,13,1.2,18.4,4.5c1.6-2,4-3.2,6.8-3.2c4.8,0,8.6,3.9,8.6,8.6c0,17.2-1.3,27.2-1.3,43.1c0.1,2.5,2.1,4.6,4.6,4.6
				c2,0,3.7-0.8,5-2.3c1.9-2,4.8-1.9,7,0c2.3,1.9,2.1,4.6,0.5,7.7c-2.5,4.6-6.9,9.8-17.2,9.8C718.5,252.2,712.4,248.4,709.2,242.8z
				 M707.5,219.7l0.6-21.2c0,0-4-2.7-12.6-2.7c-8.7,0-17.2,5.3-17.2,21.9c0,11.3,5.1,17.2,12.6,17.2
				C703,234.9,707.2,226.3,707.5,219.7z"/>
			<path fill="#58595B" d="M760.6,144.7c6.2,0,11.3,5,11.3,11.3c0,13.7-10.1,25.6-12.2,27.6c-2.1,2-5.2,1.9-7.4,0
				c-2.3-1.9-2.1-5.4,0-7.4c1.3-1.3,3.6-4.5,4.9-9.5c-4.5-1.5-7.8-5.6-7.8-10.6C749.3,149.8,754.4,144.7,760.6,144.7z"/>
			<path fill="#58595B" d="M903.3,147.4c6.2,0,11.3,5,11.3,11.3c0,44.2-25.9,93.5-64.4,93.5c-4.1,0-8-3.5-8-8
				c0-66.7-9.6-81.9-19.1-81.9c-1.7,0-3.1,0.5-4.3,2.1c-1.8,2.4-5.2,3.3-7.8,1.6c-2.3-1.5-3.4-4.1-2.1-7.3
				c3.7-8.4,10.2-12.7,21-12.7c28,0,35,25.6,29.3,88.4c15.4-2.7,28.4-22.7,32.1-42.6c2.9-15.5,0.7-25.1,0.7-33.2
				C892,152.4,897.1,147.4,903.3,147.4z"/>
			<path fill="#58595B" d="M977.7,230.2c1.1-1.6,2.6-2.4,4.4-2.4c3.2,0,5.6,2.6,5.6,5.3c0,9.3-12.7,19.1-30.5,19.1
				c-22.5,0-38.5-15.4-38.5-34.5c0-24.3,14.9-38.5,35.8-38.5c17.2,0,27.9,9.4,27.9,23.9c0,10.7-8.8,23.5-31.8,23.5
				c-4.7,0-8.9-0.3-12.1-0.7c2.6,8,9.4,12.3,18.7,12.3C968.4,238.3,973.8,235.6,977.7,230.2z M937.3,214.1c2.4,0.4,6.1,0.8,10.5,0.8
				c10.1,0,14.6-5.7,14.6-11.8c0-4.4-3.6-8-8-8C945.8,195.1,938.4,200.8,937.3,214.1z"/>
			<path fill="#58595B" d="M1047.4,229.5c1.6-2.3,4.2-3,6.8-1.9c2.6,1.5,4,4,2.6,7.2c-3.7,8.8-13.7,17.4-30,17.4
				c-19.9,0-33.2-15.4-33.2-34.5c0-24.3,14.9-38.5,35.8-38.5c8.9,0,14.7,2.6,18.3,5.8c2,1.7,2.5,3.9,2.5,6.1c0,4.8-3.6,9-9.8,9
				c-3.7,0-5.7-5-11-5c-9.3,0-17.2,6.6-17.2,22.6c0,11.9,8,19.9,17.9,19.9C1037.7,237.6,1043.5,234.9,1047.4,229.5z"/>
			<path fill="#58595B" d="M1115.1,229.5c1.6-2.3,4.3-3,6.8-1.9c2.6,1.5,4,4,2.6,7.2c-3.7,8.8-13.7,17.4-30,17.4
				c-19.9,0-33.2-15.4-33.2-34.5c0-24.3,14.9-38.5,35.8-38.5c8.9,0,14.7,2.6,18.3,5.8c2,1.7,2.5,3.9,2.5,6.1c0,4.8-3.6,9-9.8,9
				c-3.7,0-5.7-5-11-5c-9.3,0-17.2,6.6-17.2,22.6c0,11.9,8,19.9,17.9,19.9C1105.4,237.6,1111.3,234.9,1115.1,229.5z"/>
			<path fill="#58595B" d="M1175.5,233.6c0-8,1.3-15.9,1.3-29.2c0-4.5-2.1-8.6-8.6-8.6c-8.2,0-17.9,4.5-17.9,17.9v27.9
				c0,5.2-4.1,9.3-9.3,9.3c-5.2,0-9.3-4.1-9.3-9.3c0-6,1.3-17.2,1.3-23.9c0-38.5-1.3-51.8-1.3-63c0-5.4,4.5-9.9,10-9.9
				c5.4,0,10,4.5,10,9.9c0,11-0.7,23.9-0.7,33.8c6.3-6.4,14.7-9.3,21.9-9.3c20.2,0,22.6,15.4,22.6,21.2c0,10.6-1.3,15.9-1.3,31.8
				c0,2.5,2.1,4.6,4.6,4.6c2,0,3.7-0.8,5.1-2.3c1.8-2,4.8-1.9,7,0c2.3,1.9,2.1,4.6,0.5,7.7c-2.5,4.6-6.9,9.8-17.2,9.8
				C1183.9,252.2,1175.5,243.8,1175.5,233.6z"/>
			<path fill="#58595B" d="M1228.6,148.7c6.2,0,11.3,5,11.3,11.3c0,6.2-5,11.3-11.3,11.3c-6.2,0-11.3-5-11.3-11.3
				C1217.3,153.7,1222.4,148.7,1228.6,148.7z M1218.8,233.6c0-4.6,0.6-9.3,0.6-15.9c0-11.3-1.3-28.5-1.3-28.5c0-5.4,4.5-10,10-10
				s10,4.5,10,10c0,17.2-1.3,27.2-1.3,43.1c0,2.5,2.1,4.6,4.7,4.6c2,0,3.7-0.8,5-2.3c1.9-2,4.8-1.9,7,0c2.3,1.9,2.1,4.6,0.5,7.7
				c-2.5,4.6-6.9,9.8-17.3,9.8C1226.5,252.2,1218.8,243.8,1218.8,233.6z"/>
			<path fill="#58595B" d="M1306.8,242.8c-4.6,4.5-11.5,9.4-22.9,9.4c-15.9,0-26.6-14.6-26.6-34.5c0-27.2,21-38.5,33.2-38.5
				c6,0,13,1.2,18.4,4.5c1.6-2,4-3.2,6.8-3.2c4.8,0,8.6,3.9,8.6,8.6c0,17.2-1.3,27.2-1.3,43.1c0.2,2.5,2.1,4.6,4.7,4.6
				c2,0,3.7-0.8,5-2.3c1.9-2,4.8-1.9,7,0c2.3,1.9,2.1,4.6,0.5,7.7c-2.5,4.6-6.9,9.8-17.3,9.8C1316.1,252.2,1310,248.4,1306.8,242.8z
				 M1305.1,219.7l0.6-21.2c0,0-4-2.7-12.6-2.7c-8.8,0-17.2,5.3-17.2,21.9c0,11.3,5,17.2,12.6,17.2
				C1300.6,234.9,1304.8,226.3,1305.1,219.7z"/>
		</g>
		<g>
			<path fill="#58595B" d="M493.4,215.7c0,8-6.5,14.6-14.5,14.6c-8,0-14.6-6.5-14.6-14.6s6.5-14.5,14.6-14.5
				C486.8,201.2,493.4,207.7,493.4,215.7z"/>
			<path fill="#58595B" d="M1455.8,215.7c0,8-6.5,14.6-14.5,14.6c-8,0-14.5-6.5-14.5-14.6s6.5-14.5,14.5-14.5
				C1449.2,201.2,1455.8,207.7,1455.8,215.7z"/>
		</g>
	</g>
	<g>
		<g>
			<path fill="#58595B" d="M564.1,1113.6h10.3v-48.9h-10.3v-6.1h30.2v6.1H584v48.9h10.3v6.1h-30.2V1113.6z"/>
			<path fill="#58595B" d="M599.8,1113.6h7.7v-51h-7.7v-6.7h16.5v57.7h7.7v6.1h-24.2V1113.6z"/>
			<path fill="#58595B" d="M664.9,1103.9c-2,0-3.8-0.3-5.6-0.3c-3,0-4.5,2-4.5,3.7c0,2.2,1.6,3.7,6.2,3.7h11.2
				c9.8,0,13.6,4.4,13.6,10.3c0,7.5-7.3,14-22.1,14c-11.4,0-18.8-4-18.8-9.6c0-3.9,3.6-7.6,8.9-8.3v-0.5c-5-1.7-6.8-4.5-6.8-7.5
				c0-3.2,3.5-6.7,8-7.6c-4.6-2.2-7.6-5.8-7.6-11.4c0-8.9,7.5-14,17.4-14c2.3,0,4.6,0.4,6.7,1c2.8-4.7,6.9-8.3,11.9-8.3
				c3.6,0,6,2.2,6,5.3c0,2.6-1.9,4.6-4.3,4.6c-2.5,0-4-1.5-4-3.8c0-0.3,0-0.6,0.1-1c-1.7-0.4-4.5,1.9-6,4.7
				c4.2,2.4,6.9,6.2,6.9,10.9C682.2,1098.9,674.7,1103.9,664.9,1103.9z M678.3,1123.6c0-3-1.7-5-6.5-5h-10.4c-5.6,0-8.2,1.9-8.2,5.8
				c0,3.2,2.1,6.2,11.2,6.2C672.5,1130.5,678.3,1127.8,678.3,1123.6z M673,1090.1c0-5.4-3.1-9.4-8.6-9.4c-5.3,0-8,2.9-8,9.5
				c0,6.6,3.2,9.4,8.6,9.4C670.3,1099.6,673,1096.4,673,1090.1z"/>
			<path fill="#58595B" d="M695.7,1107v-23.7h-6.8v-6.1h15.5v26.7c0,3.3,0.6,6,2.2,7.5c1.1,1.1,2.7,1.8,4.8,1.8
				c5.2,0,11-5.1,11-13.7v-16.2h-7.1v-6.1h15.8v36.4h6.8v6.1h-15.3V1109c-4.8,8-9.9,11.4-16,11.4
				C700,1120.3,695.7,1115.4,695.7,1107z"/>
			<path fill="#58595B" d="M743.9,1104.5h5.7c2.3,6.8,7.6,11.5,13.6,11.5c5,0,7.2-2.5,7.2-6c0-3.7-2.9-5.5-11.3-7.8
				c-10.2-2.9-14.4-6.4-14.4-13.2c0-6.9,6-12.7,14.7-12.7c4.4,0,8.3,1.7,10.3,4.9l0.9-4.9h5.5v14.6h-5.6c-2.9-6.2-5.6-10-11.3-10
				c-3.3,0-6.6,1.9-6.6,5.4c0,3.7,3.3,5.7,10.9,7.7c9.9,2.7,14.5,5.9,14.5,13.1c0,6.4-5.7,13.4-15.2,13.4c-5.3,0-9.7-2.2-12.4-5.6
				l-1,5.6h-5.4V1104.5z"/>
			<path fill="#58595B" d="M798.4,1066.1v11.5h13.9v5.7h-13.9v25.1c0,4.2,1.2,6.2,5.1,6.2c2.6,0,4.6-2.4,6.5-7.3l4.2,1.8
				c-2.4,8.2-7.3,11.5-13.3,11.5c-7.4,0-11.3-4.4-11.3-11.3v-25.9h-8.3v-5.7h8.3V1067L798.4,1066.1z"/>
			<path fill="#58595B" d="M817.7,1098.6c0-12.9,8.6-22.2,21.3-22.2c13.1,0,21.2,8.9,21.2,21.9c0,13-8.6,22.3-21.2,22.3
				C825.7,1120.6,817.7,1111.7,817.7,1098.6z M850.6,1098.5c0-11.7-4.6-17-12-17c-7.3,0-11.2,5.3-11.2,17c0,11.7,4.5,17.1,12,17.1
				C846.7,1115.6,850.6,1110.2,850.6,1098.5z"/>
			<path fill="#58595B" d="M884.4,1113.6h7.7v-30.3h-7.7v-6.1h16.4v36.4h7.7v6.1h-24.2V1113.6z M889.9,1062.2c0-3.7,2.4-6.3,6-6.3
				c3.6,0,6,2.4,6,6.1c0,3.7-2.4,6.2-6,6.2C892.3,1068.2,889.9,1065.9,889.9,1062.2z"/>
			<path fill="#58595B" d="M913.3,1113.6h6.8v-30.3h-6.8v-6.1h15.4v10.8c4.8-8,9.9-11.3,16-11.3c6.8,0,11.3,4.9,11.3,13.3v23.7h6.8
				v6.1H941v-6.1h6.2v-20.6c0-3.2-0.8-5.9-2.3-7.4c-1.2-1.2-2.9-1.9-5-1.9c-5.2,0-11.1,5.1-11.1,13.7v16.2h6.2v6.1h-21.8V1113.6z"/>
			<path fill="#58595B" d="M984.3,1113.6h6.8v-30.3h-8.4v-5.7h8.4v-2c0-14.7,9.5-20.4,18-20.4c7.6,0,12,3.7,12,8.4
				c0,3-2.1,5.8-5.1,5.8c-3.3,0-5.7-1.9-5.7-5.8c0-0.8,0.3-2.1,0.8-3.1c-0.8-0.5-1.7-0.7-3.3-0.7c-4.7,0-8,3.3-8,15.3v2.4h12.3v5.7
				h-12.3v30.3h9.7v6.1h-25.2V1113.6z"/>
			<path fill="#58595B" d="M1025.9,1099c0.3,10.5,4.8,15.7,13,15.7c5.2,0,9.1-2.2,11.7-7.9h4.5c-2.4,9.1-9.1,13.8-18.5,13.8
				c-13,0-20.4-9.4-20.4-21.7c0-12.7,8.8-22.5,20.9-22.5c12.7,0,18.4,11.4,18.1,22.6H1025.9z M1026,1094.6h20.4
				c-0.6-7.9-3.3-13.3-9.9-13.3C1030.7,1081.3,1026.8,1085.1,1026,1094.6z"/>
			<path fill="#58595B" d="M1061.7,1113.6h6.8v-30.3h-6.8v-6.1h15.3v9.9c2.2-7.2,7.7-10.4,12.6-10.4c4.7,0,7.4,3.3,7.4,7.2
				c0,3.3-2.4,6-5.6,6c-3.2,0-5.9-1.9-5.9-5.5c0-0.5,0.1-1,0.2-1.6c-4.2-0.2-7.1,4.5-8.6,10.1v20.6h8.1v6.1h-23.6V1113.6z"/>
			<path fill="#58595B" d="M1158.2,1076.6c6.8,0,10.9,4.9,10.9,13.3v23.7h6.8v6.1h-21.3v-6.1h5.8v-20.6c0-3.3-0.6-6-2.2-7.6
				c-1.1-1.1-2.6-1.7-4.7-1.7c-4.6,0-10.7,5.1-10.7,13.7v16.2h5.8v6.1h-20.3v-6.1h5.8v-20.6c0-3.3-0.6-6-2.2-7.6
				c-1.1-1.1-2.6-1.7-4.7-1.7c-4.7,0-10.7,5.1-10.7,13.7v16.2h5.8v6.1h-21.3v-6.1h6.8v-30.3h-6.8v-6.1h15.4v10.8
				c4.8-8,10-11.3,15.6-11.3c6,0,10.1,3.3,10.7,10.9C1147.6,1079.7,1152.6,1076.6,1158.2,1076.6z"/>
			<path fill="#58595B" d="M1190.2,1099c0.3,10.5,4.8,15.7,13,15.7c5.2,0,9.1-2.2,11.7-7.9h4.5c-2.4,9.1-9.1,13.8-18.5,13.8
				c-13,0-20.4-9.4-20.4-21.7c0-12.7,8.8-22.5,20.9-22.5c12.7,0,18.4,11.4,18.1,22.6H1190.2z M1190.3,1094.6h20.4
				c-0.6-7.9-3.3-13.3-9.9-13.3C1195,1081.3,1191.1,1085.1,1190.3,1094.6z"/>
			<path fill="#58595B" d="M1226,1113.6h6.8v-30.3h-6.8v-6.1h15.4v10.8c4.8-8,9.9-11.3,16-11.3c6.8,0,11.3,4.9,11.3,13.3v23.7h6.8
				v6.1h-21.8v-6.1h6.2v-20.6c0-3.2-0.8-5.9-2.3-7.4c-1.2-1.2-2.9-1.9-5-1.9c-5.2,0-11.1,5.1-11.1,13.7v16.2h6.2v6.1H1226V1113.6z"
				/>
			<path fill="#58595B" d="M1294,1066.1v11.5h14v5.7h-14v25.1c0,4.2,1.2,6.2,5.1,6.2c2.6,0,4.7-2.4,6.5-7.3l4.2,1.8
				c-2.4,8.2-7.4,11.5-13.3,11.5c-7.4,0-11.3-4.4-11.3-11.3v-25.9h-8.4v-5.7h8.4V1067L1294,1066.1z"/>
			<path fill="#58595B" d="M1313.4,1098.6c0-12.9,8.6-22.2,21.3-22.2c13.1,0,21.2,8.9,21.2,21.9c0,13-8.6,22.3-21.2,22.3
				C1321.4,1120.6,1313.4,1111.7,1313.4,1098.6z M1346.2,1098.5c0-11.7-4.6-17-12-17c-7.3,0-11.1,5.3-11.1,17
				c0,11.7,4.5,17.1,12,17.1C1342.3,1115.6,1346.2,1110.2,1346.2,1098.5z"/>
		</g>
	</g>
</g>
</svg>
