<?xml version="1.0" encoding="utf-8"?>
<!-- Generator: Adobe Illustrator 17.1.0, SVG Export Plug-In . SVG Version: 6.00 Build 0)  -->
<!DOCTYPE svg PUBLIC "-//W3C//DTD SVG 1.1//EN" "http://www.w3.org/Graphics/SVG/1.1/DTD/svg11.dtd">
<svg version="1.1" id="Livello_1" xmlns="http://www.w3.org/2000/svg" xmlns:xlink="http://www.w3.org/1999/xlink" x="0px" y="0px"
	 viewBox="0 629.2 841.9 561.3" enable-background="new 0 629.2 841.9 561.3" xml:space="preserve">
<rect y="629.2" fill="#FFFFFF" width="841.9" height="561.3"/>
<g>
	<g>
		<g>
			<line fill="none" stroke="#403120" stroke-width="13.2809" x1="175.4" y1="793.2" x2="666.5" y2="793.2"/>
			<line fill="none" stroke="#403120" stroke-width="3.7647" x1="175.4" y1="787.4" x2="666.5" y2="787.4"/>
		</g>
		<g>
			<line fill="none" stroke="#403120" stroke-width="13.2809" x1="666.5" y1="1037.4" x2="175.4" y2="1037.4"/>
			<line fill="none" stroke="#403120" stroke-width="3.7647" x1="666.5" y1="1043.4" x2="175.4" y2="1043.4"/>
		</g>
	</g>
	<g>
		<rect x="45.8" y="825.4" fill="#403F34" width="750.4" height="180.1"/>
		<polygon points="56.3,998.8 56.3,835.8 790.3,835.8 790.3,820.9 41.3,820.9 41.3,998.8 		"/>
		<path fill="#BBB8B8" d="M803.6,1012.9H38.3V817.8h765.4V1012.9z M53.3,997.9h735.2v-165H53.3V997.9z"/>
		<g opacity="0.75">
			<g>
				<path d="M206.3,950.3h-20.5v-64.1h19.9c15.5,0,18,12,18,17.9v1.1c0,3.8-2.3,9.3-6.4,12c4.5,2.9,7.2,8,7.2,12.8v2
					C224.7,937.9,221.7,950.3,206.3,950.3z M212.1,904.2c0-5.7-4.1-6.4-6.4-6.4h-8v13.8h8.7c2.6,0,5.9-1,5.9-6.5L212.1,904.2
					L212.1,904.2z M213.2,930.1c0-5.9-4-7-6.7-7h-9v15.5h8.6c2.5,0,7.1-0.8,7.1-6.7V930.1L213.2,930.1z"/>
				<path d="M243.1,950.3v-64.1h37.1v11.6h-25.5v13h23.6v11.6h-23.6v16.2h25.5v11.6h-37.1V950.3z"/>
				<path d="M297.2,950.3v-64.1h37.1v11.6h-25.5v13h23.6v11.6h-23.6v16.2h25.5v11.6h-37.1V950.3z"/>
				<path d="M379.7,950.3l-11.6-24.8h-5.2v24.8h-11.7v-64.1h20c15.5,0,18.7,12.3,18.7,18.1v2.9c0,4.6-1.8,12.8-9.7,16.6l12.7,26.5
					H379.7L379.7,950.3z M378.1,904.6c0-5.9-4.5-6.8-7-6.8h-8.2v16.1h8.3c2.5,0,6.8-0.8,6.8-6.8V904.6z"/>
				<path d="M425.4,951.1c-12,0-19.8-8.7-19.8-20.3h11.6c0,5.6,3.4,8.7,8,8.7c5.3,0,8.9-3,8.9-7.1c0-3.3-1.9-5.3-4.4-6.8
					c-2.5-1.5-6.8-3.5-13.9-7.2c-5.2-2.6-9.3-8.6-9.3-15.3c0-10.2,7.8-17.5,18.8-17.5c11.6,0,19.5,8.3,19.5,19.8h-11.7
					c0-5.3-3.3-8.3-7.6-8.3c-4,0-7.2,2.2-7.2,6.1c0,2.2,1.4,4,3.8,5.2c7.8,4,10.6,5.3,13.1,6.8c6.8,3.7,10.5,9.7,10.5,17.3
					C445.7,943.2,436.8,951.1,425.4,951.1z"/>
				<path d="M483.7,897.9v52.4h-11.6v-52.4h-14.3v-11.7h40.4v11.7H483.7z"/>
				<path d="M541.5,950.3L530,925.5h-5.2v24.8h-11.7v-64.1h20c15.5,0,18.7,12.3,18.7,18.1v2.9c0,4.6-1.8,12.8-9.7,16.6l12.7,26.5
					H541.5L541.5,950.3z M539.9,904.6c0-5.9-4.5-6.8-7-6.8h-8.2v16.1h8.3c2.5,0,6.8-0.8,6.8-6.8V904.6L539.9,904.6z"/>
				<path d="M588.5,951.1c-15,0-19.2-12.5-19.2-18.7v-28.6c0-5.9,4-18.1,19.4-18.1c14.9,0,19.2,12.1,19.2,18.1v28.6
					C607.8,938.7,603.7,951.1,588.5,951.1z M596,904.1c0-5.9-5.2-6.8-7.5-6.8c-2.5,0-7.8,0.8-7.8,6.8v28.5c0,6,5.2,7,7.8,7
					c2.3,0,7.5-1,7.5-7V904.1z"/>
				<path d="M647.6,897.9v52.4H636v-52.4h-14.3v-11.7h40.4v11.7H647.6z"/>
			</g>
		</g>
		<g>
			<g>
				<path fill="#BBB8B8" d="M203.3,947.3h-20.5v-64.1h19.9c15.5,0,18.1,12,18.1,18v1.1c0,3.8-2.3,9.1-6.4,12c4.5,2.9,7.2,8,7.2,12.8
					v2C221.7,934.9,218.7,947.3,203.3,947.3z M209.1,901.2c0-5.7-4.1-6.4-6.4-6.4h-8v13.8h8.6c2.6,0,5.9-1,5.9-6.5L209.1,901.2
					L209.1,901.2z M210.2,927.1c0-5.9-4-7-6.7-7h-9v15.5h8.6c2.5,0,7.1-0.8,7.1-6.7V927.1L210.2,927.1z"/>
				<path fill="#BBB8B8" d="M240.1,947.3v-64.1h37.1v11.6h-25.5v13h23.6v11.6h-23.6v16.2h25.5v11.6L240.1,947.3L240.1,947.3z"/>
				<path fill="#BBB8B8" d="M294.1,947.3v-64.1h37.1v11.6h-25.5v13h23.6v11.6h-23.6v16.2h25.5v11.6L294.1,947.3L294.1,947.3z"/>
				<path fill="#BBB8B8" d="M376.7,947.3l-11.6-24.8h-5.2v24.8h-11.7v-64.1h20c15.5,0,18.5,12.3,18.5,18.1v2.9
					c0,4.6-1.8,12.8-9.7,16.6l12.7,26.5H376.7L376.7,947.3z M375.2,901.6c0-5.9-4.5-6.8-7-6.8h-8.2v16.1h8.3c2.5,0,6.8-0.8,6.8-6.8
					V901.6z"/>
				<path fill="#BBB8B8" d="M422.4,948.1c-12,0-19.8-8.7-19.8-20.3h11.6c0,5.6,3.4,8.6,8,8.6c5.3,0,8.9-3,8.9-7.1
					c0-3.3-1.9-5.3-4.4-6.8c-2.5-1.5-6.8-3.5-13.9-7.2c-5.2-2.6-9.1-8.6-9.1-15.3c0-10.2,7.8-17.5,18.8-17.5
					c11.6,0,19.5,8.3,19.5,19.8h-11.7c0-5.3-3.3-8.3-7.6-8.3c-4,0-7.2,2.2-7.2,6.1c0,2.2,1.4,4,3.8,5.2c7.8,4,10.6,5.3,13.1,6.8
					c6.8,3.7,10.5,9.7,10.5,17.3C442.7,940.2,433.8,948.1,422.4,948.1z"/>
				<path fill="#BBB8B8" d="M480.7,894.9v52.4h-11.6v-52.4h-14.3v-11.7h40.4v11.7H480.7z"/>
				<path fill="#BBB8B8" d="M538.6,947.3L527,922.5h-5.2v24.8h-11.7v-64.1h20c15.5,0,18.7,12.3,18.7,18.1v2.9
					c0,4.6-1.8,12.8-9.7,16.6l12.7,26.5H538.6L538.6,947.3z M536.9,901.6c0-5.9-4.5-6.8-7-6.8h-8.2v16.1h8.3c2.5,0,6.8-0.8,6.8-6.8
					V901.6L536.9,901.6z"/>
				<path fill="#BBB8B8" d="M585.5,948.1c-15,0-19.2-12.5-19.2-18.7v-28.6c0-5.9,4-18.1,19.4-18.1c14.9,0,19.2,12.1,19.2,18.1v28.6
					C604.8,935.7,600.7,948.1,585.5,948.1z M593,901.1c0-5.9-5.2-6.8-7.5-6.8c-2.5,0-7.8,0.8-7.8,6.8v28.5c0,6,5.2,7,7.8,7
					c2.3,0,7.5-1,7.5-7V901.1z"/>
				<path fill="#BBB8B8" d="M644.6,894.9v52.4H633v-52.4h-14.3v-11.7h40.4v11.7H644.6z"/>
			</g>
		</g>
	</g>
	<g>
		<g>
			<path fill="#403120" d="M262.3,735.8c0-15.1,10.6-22.9,22-22.9c8.5,0,12.4,4.9,12.4,10.8c0,3.7-2.2,7.2-5.2,7.2
				c-2.5,0-4-1.5-4-3.4c0-1.9,1.1-2.9,1.1-4.4c0-2.2-1.1-4-5.3-4c-5.2,0-11.9,5.3-11.9,16.6c0,9.5,5.7,13.1,12,13.1
				c7.1,0,9.8-2.5,12-4.5c0.4-0.4,1-0.7,1.5-0.7c1.2,0,2.5,1.1,2.5,2.3c0,0.4-0.1,1-0.5,1.5c-2.5,3.4-7.4,7.8-16.1,7.8
				C270.5,755.3,262.3,746.9,262.3,735.8z"/>
			<path fill="#403120" d="M320.9,751.5c-1.9,1.8-4.6,3.8-9.1,3.8c-6.3,0-10.6-5.9-10.6-13.8c0-10.8,8.3-15.4,13.2-15.4
				c2.5,0,5.2,0.5,7.4,1.8c0.7-0.8,1.6-1.2,2.7-1.2c1.9,0,3.4,1.5,3.4,3.4c0,6.8-0.5,10.8-0.5,17.2c0,1,0.8,1.9,1.9,1.9
				c0.8,0,1.5-0.3,2-1c0.7-0.8,1.9-0.7,2.9,0c1,0.7,0.8,1.9,0.3,3c-1,1.9-2.7,4-6.8,4C324.6,755.3,322.3,753.7,320.9,751.5z
				 M320.2,742.4l0.3-8.5c0,0-1.5-1.1-5-1.1c-3.4,0-6.8,2-6.8,8.7c0,4.5,2,6.8,5,6.8C318.5,748.4,320.1,745,320.2,742.4z"/>
			<path fill="#403120" d="M341.4,712.4c2.5,0,4.5,2,4.5,4.5c0,5.5-4,10.2-4.9,11c-0.8,0.8-2,0.7-3,0s-0.8-2.2,0-3
				c0.5-0.5,1.5-1.8,1.9-3.8c-1.8-0.5-3.1-2.2-3.1-4.2C336.9,714.4,338.9,712.4,341.4,712.4z"/>
			<path fill="#403120" d="M398.4,713.5c2.5,0,4.5,2,4.5,4.5c0,17.6-10.4,37.4-25.6,37.4c-1.6,0-3.1-1.4-3.1-3.1
				c0-26.6-3.8-32.6-7.6-32.6c-0.7,0-1.2,0.3-1.6,0.8c-0.7,1-2,1.4-3.1,0.7c-1-0.5-1.4-1.6-0.8-2.9c1.5-3.4,4.1-5,8.3-5
				c11.2,0,14,10.2,11.7,35.2c6.1-1.1,11.3-9,12.8-17c1.2-6.3,0.3-10,0.3-13.2C393.9,715.5,395.8,713.5,398.4,713.5z"/>
			<path fill="#403120" d="M428,746.5c0.4-0.7,1.1-1,1.8-1c1.2,0,2.2,1.1,2.2,2c0,3.7-5,7.6-12.1,7.6c-9,0-15.4-6.1-15.4-13.8
				c0-9.7,5.9-15.4,14.3-15.4c6.8,0,11.2,3.8,11.2,9.5c0,4.4-3.4,9.4-12.7,9.4c-1.9,0-3.5-0.1-4.9-0.3c1.1,3.1,3.8,4.9,7.5,4.9
				C424.3,749.7,426.5,748.6,428,746.5z M411.9,740c1,0.1,2.5,0.3,4.2,0.3c4,0,5.9-2.3,5.9-4.8c0-1.8-1.5-3.1-3.1-3.1
				C415.3,732.5,412.3,734.7,411.9,740z"/>
			<path fill="#403120" d="M455.8,746.3c0.7-1,1.6-1.2,2.7-0.7s1.5,1.5,1.1,2.9c-1.5,3.4-5.5,7-12,7c-7.9,0-13.2-6.1-13.2-13.8
				c0-9.7,5.9-15.4,14.3-15.4c3.5,0,5.9,1.1,7.2,2.3c0.8,0.7,1,1.5,1,2.5c0,1.9-1.5,3.5-4,3.5c-1.5,0-2.3-2-4.4-2
				c-3.7,0-6.8,2.6-6.8,9c0,4.8,3.1,7.9,7.1,7.9C452,749.5,454.3,748.4,455.8,746.3z"/>
			<path fill="#403120" d="M482.8,746.3c0.7-1,1.6-1.2,2.7-0.7c1.1,0.5,1.5,1.5,1.1,2.9c-1.5,3.4-5.5,7-12,7
				c-7.9,0-13.2-6.1-13.2-13.8c0-9.7,5.9-15.4,14.3-15.4c3.5,0,5.9,1.1,7.2,2.3c0.8,0.7,1,1.5,1,2.5c0,1.9-1.5,3.5-4,3.5
				c-1.5,0-2.3-2-4.4-2c-3.7,0-6.8,2.6-6.8,9c0,4.8,3.1,7.9,7.1,7.9C479,749.5,481.3,748.4,482.8,746.3z"/>
			<path fill="#403120" d="M506.9,747.8c0-3.1,0.5-6.3,0.5-11.7c0-1.8-0.8-3.4-3.4-3.4c-3.3,0-7.1,1.8-7.1,7.1V751
				c0,2-1.6,3.7-3.7,3.7c-2,0-3.7-1.6-3.7-3.7c0-2.5,0.5-6.8,0.5-9.5c0-15.4-0.5-20.6-0.5-25.1c0-2.2,1.8-4,4-4s4,1.8,4,4
				c0,4.4-0.3,9.5-0.3,13.5c2.5-2.5,5.9-3.7,8.7-3.7c8,0,9,6.1,9,8.5c0,4.2-0.5,6.3-0.5,12.7c0,1,0.8,1.9,1.9,1.9c0.8,0,1.5-0.3,2-1
				c0.7-0.8,1.9-0.7,2.9,0c1,0.7,0.8,1.9,0.1,3c-1,1.9-2.7,4-6.8,4C510.2,755.3,506.9,751.9,506.9,747.8z"/>
			<path fill="#403120" d="M528.1,714c2.5,0,4.5,2,4.5,4.5s-2,4.5-4.5,4.5c-2.5,0-4.5-2-4.5-4.5S525.6,714,528.1,714z M524.1,747.8
				c0-1.9,0.3-3.7,0.3-6.3c0-4.5-0.5-11.3-0.5-11.3c0-2.2,1.8-4,4-4c2.2,0,4,1.8,4,4c0,6.8-0.5,10.8-0.5,17.2c0,1,0.8,1.9,1.9,1.9
				c0.8,0,1.5-0.3,2-1c0.7-0.8,1.9-0.7,2.9,0c1,0.7,0.8,1.9,0.3,3c-1,1.9-2.7,4-6.8,4C527.2,755.3,524.1,751.9,524.1,747.8z"/>
			<path fill="#403120" d="M559.3,751.5c-1.9,1.8-4.6,3.8-9.1,3.8c-6.3,0-10.6-5.9-10.6-13.8c0-10.8,8.3-15.4,13.2-15.4
				c2.5,0,5.2,0.5,7.4,1.8c0.7-0.8,1.6-1.2,2.7-1.2c1.9,0,3.4,1.5,3.4,3.4c0,6.8-0.5,10.8-0.5,17.2c0,1,0.8,1.9,1.9,1.9
				c0.8,0,1.5-0.3,2-1c0.7-0.8,1.9-0.7,2.9,0c1,0.7,0.8,1.9,0.3,3c-1,1.9-2.7,4-6.8,4C563,755.3,560.5,753.7,559.3,751.5z
				 M558.5,742.4l0.3-8.5c0,0-1.5-1.1-5-1.1c-3.4,0-6.8,2-6.8,8.7c0,4.5,2,6.8,5,6.8C556.7,748.4,558.5,745,558.5,742.4z"/>
		</g>
		<g>
			<path fill="#403120" d="M234.9,740.7c0,3.3-2.6,5.9-5.9,5.9s-5.9-2.6-5.9-5.9s2.6-5.9,5.9-5.9S234.9,737.6,234.9,740.7z"/>
			<path fill="#403120" d="M618.6,740.7c0,3.3-2.6,5.9-5.9,5.9c-3.3,0-5.9-2.6-5.9-5.9s2.6-5.9,5.9-5.9S618.6,737.6,618.6,740.7z"/>
		</g>
	</g>
	<g>
		<g>
			<path fill="#403120" d="M263.1,1098.7h4.1v-19.5h-4.1v-2.5h12.1v2.5h-4.1v19.5h4.1v2.5h-12.1V1098.7z"/>
			<path fill="#403120" d="M277.3,1098.7h3.1v-20.3h-3.1v-2.7h6.5v23h3v2.5h-9.7v-2.5H277.3z"/>
			<path fill="#403120" d="M303.3,1094.8c-0.8,0-1.5-0.1-2.2-0.1c-1.2,0-1.8,0.8-1.8,1.5c0,1,0.7,1.5,2.5,1.5h4.5
				c4,0,5.5,1.8,5.5,4.1c0,3-2.9,5.6-8.9,5.6c-4.5,0-7.5-1.6-7.5-3.8c0-1.5,1.5-3,3.5-3.3v-0.1c-1.9-0.7-2.7-1.8-2.7-3
				c0-1.2,1.5-2.7,3.1-3c-1.9-1-3-2.3-3-4.5c0-3.5,3-5.6,7-5.6c1,0,1.9,0.1,2.7,0.4c1.1-1.9,2.7-3.3,4.8-3.3c1.5,0,2.5,1,2.5,2
				c0,1-0.7,1.9-1.8,1.9c-1,0-1.6-0.5-1.6-1.5c0-0.1,0-0.3,0-0.4c-0.7-0.1-1.8,0.7-2.5,1.9c1.6,1,2.7,2.5,2.7,4.4
				C310.2,1092.9,307.2,1094.8,303.3,1094.8z M308.7,1102.7c0-1.2-0.7-1.9-2.6-1.9h-4.2c-2.2,0-3.3,0.8-3.3,2.3
				c0,1.2,0.8,2.5,4.4,2.5C306.3,1105.5,308.7,1104.4,308.7,1102.7z M306.5,1089.4c0-2.2-1.2-3.8-3.4-3.8c-2,0-3.1,1.1-3.1,3.8
				c0,2.6,1.4,3.8,3.4,3.8C305.4,1093.2,306.5,1091.8,306.5,1089.4z"/>
			<path fill="#403120" d="M315.6,1096.1v-9.4h-2.7v-2.5h6.3v10.6c0,1.4,0.3,2.5,1,3c0.4,0.4,1.1,0.7,1.9,0.7c2,0,4.4-2,4.4-5.5
				v-6.4h-2.9v-2.5h6.3v14.6h2.7v2.5h-6.1v-4.4c-1.9,3.1-4,4.5-6.4,4.5C317.2,1101.4,315.6,1099.5,315.6,1096.1z"/>
			<path fill="#403120" d="M334.8,1095.1h2.3c1,2.7,3,4.6,5.5,4.6c2,0,2.9-1,2.9-2.5s-1.1-2.2-4.5-3.1c-4.1-1.1-5.7-2.6-5.7-5.3
				s2.5-5,5.9-5c1.8,0,3.3,0.7,4.1,1.9l0.4-1.9h2.2v5.9h-2.2c-1.1-2.5-2.2-4-4.5-4c-1.4,0-2.6,0.7-2.6,2.2s1.4,2.3,4.4,3
				c4,1.1,5.9,2.3,5.9,5.2c0,2.6-2.3,5.3-6.1,5.3c-2,0-4-1-4.9-2.2l-0.4,2.2h-2.2L334.8,1095.1L334.8,1095.1z"/>
			<path fill="#403120" d="M356.5,1079.8v4.6h5.6v2.3h-5.6v10c0,1.6,0.5,2.5,2,2.5c1,0,1.9-1,2.6-2.9l1.6,0.7
				c-1,3.3-2.9,4.6-5.3,4.6c-2.9,0-4.5-1.8-4.5-4.5v-10.4h-3.4v-2.3h3.4v-4.2L356.5,1079.8z"/>
			<path fill="#403120" d="M364.2,1092.8c0-5.2,3.4-8.9,8.5-8.9c5.3,0,8.5,3.5,8.5,8.7c0,5.2-3.4,8.9-8.5,8.9
				C367.4,1101.5,364.2,1098,364.2,1092.8z M377.2,1092.7c0-4.6-1.8-6.8-4.8-6.8c-2.9,0-4.4,2-4.4,6.8c0,4.8,1.8,6.8,4.8,6.8
				C375.7,1099.5,377.2,1097.4,377.2,1092.7z"/>
			<path fill="#403120" d="M390.7,1098.7h3v-12.1h-3v-2.5h6.5v14.6h3.1v2.5h-9.7L390.7,1098.7L390.7,1098.7z M392.9,1078.2
				c0-1.5,1-2.5,2.5-2.5c1.5,0,2.5,1,2.5,2.5s-1,2.5-2.5,2.5S392.9,1079.7,392.9,1078.2z"/>
			<path fill="#403120" d="M402.3,1098.7h2.7v-12.1h-2.7v-2.5h6.1v4.4c1.9-3.1,4-4.5,6.4-4.5c2.7,0,4.5,1.9,4.5,5.3v9.4h2.7v2.5
				h-8.7v-2.5h2.5v-8.2c0-1.2-0.3-2.3-1-3c-0.5-0.5-1.1-0.7-1.9-0.7c-2,0-4.4,2-4.4,5.5v6.4h2.5v2.5h-8.7L402.3,1098.7L402.3,1098.7
				z"/>
			<path fill="#403120" d="M430.6,1098.7h2.7v-12.1h-3.4v-2.3h3.4v-0.8c0-5.9,3.8-8.2,7.2-8.2c3,0,4.8,1.5,4.8,3.4
				c0,1.2-0.8,2.3-2,2.3c-1.4,0-2.3-0.7-2.3-2.3c0-0.3,0.1-0.8,0.3-1.2c-0.3-0.1-0.7-0.3-1.4-0.3c-1.9,0-3.1,1.4-3.1,6.1v1h4.9v2.3
				h-4.9v12.1h4v2.5h-10.1V1098.7z"/>
			<path fill="#403120" d="M447.2,1092.9c0.1,4.2,1.9,6.3,5.2,6.3c2,0,3.7-1,4.6-3.1h1.8c-1,3.7-3.7,5.5-7.4,5.5
				c-5.2,0-8.2-3.8-8.2-8.6c0-5,3.5-9,8.3-9c5,0,7.4,4.5,7.2,9H447.2L447.2,1092.9z M447.2,1091.2h8.2c-0.3-3.1-1.4-5.3-4-5.3
				C449.1,1085.8,447.6,1087.3,447.2,1091.2z"/>
			<path fill="#403120" d="M461.5,1098.7h2.7v-12.1h-2.7v-2.5h6.1v4c0.8-2.9,3.1-4.1,5-4.1c1.9,0,2.9,1.4,2.9,2.9
				c0,1.4-1,2.5-2.2,2.5c-1.4,0-2.3-0.8-2.3-2.2c0-0.1,0-0.4,0-0.5c-1.6,0-2.9,1.8-3.4,4.1v8.3h3.3v2.5h-9.4V1098.7L461.5,1098.7z"
				/>
			<path fill="#403120" d="M500,1084.1c2.7,0,4.4,1.9,4.4,5.3v9.4h2.7v2.5h-8.5v-2.5h2.3v-8.2c0-1.4-0.3-2.5-1-3
				c-0.4-0.4-1-0.7-1.9-0.7c-1.9,0-4.2,2-4.2,5.5v6.4h2.3v2.5h-8v-2.5h2.3v-8.2c0-1.4-0.3-2.5-1-3c-0.4-0.4-1-0.7-1.9-0.7
				c-1.9,0-4.2,2-4.2,5.5v6.4h2.3v2.5h-8.5v-2.5h2.7v-12.1h-2.7v-2.5h6.1v4.4c1.9-3.1,4-4.5,6.3-4.5c2.5,0,4.1,1.4,4.2,4.4
				C495.7,1085.2,497.8,1084.1,500,1084.1z"/>
			<path fill="#403120" d="M512.8,1092.9c0.1,4.2,1.9,6.3,5.2,6.3c2,0,3.7-1,4.6-3.1h1.8c-1,3.7-3.7,5.5-7.4,5.5
				c-5.2,0-8.2-3.8-8.2-8.6c0-5,3.5-9,8.3-9c5,0,7.4,4.5,7.2,9H512.8L512.8,1092.9z M512.8,1091.2h8.2c-0.3-3.1-1.4-5.3-4-5.3
				C514.7,1085.8,513.1,1087.3,512.8,1091.2z"/>
			<path fill="#403120" d="M527,1098.7h2.7v-12.1H527v-2.5h6.1v4.4c1.9-3.1,4-4.5,6.4-4.5c2.7,0,4.5,1.9,4.5,5.3v9.4h2.7v2.5H538
				v-2.5h2.5v-8.2c0-1.2-0.3-2.3-1-3c-0.5-0.5-1.1-0.7-1.9-0.7c-2,0-4.4,2-4.4,5.5v6.4h2.5v2.5H527L527,1098.7L527,1098.7z"/>
			<path fill="#403120" d="M554.1,1079.8v4.6h5.6v2.3h-5.6v10c0,1.6,0.5,2.5,2,2.5c1,0,1.9-1,2.6-2.9l1.6,0.7
				c-1,3.3-2.9,4.6-5.3,4.6c-3,0-4.5-1.8-4.5-4.5v-10.4h-3.4v-2.3h3.4v-4.2L554.1,1079.8z"/>
			<path fill="#403120" d="M561.9,1092.8c0-5.2,3.4-8.9,8.5-8.9c5.3,0,8.5,3.5,8.5,8.7c0,5.2-3.4,8.9-8.5,8.9
				C565,1101.5,561.9,1098,561.9,1092.8z M575,1092.7c0-4.6-1.8-6.8-4.8-6.8c-2.9,0-4.4,2-4.4,6.8c0,4.8,1.8,6.8,4.8,6.8
				C573.3,1099.5,575,1097.4,575,1092.7z"/>
		</g>
	</g>
</g>
</svg>
