<?xml version="1.0" encoding="utf-8"?>
<!-- Generator: Adobe Illustrator 17.1.0, SVG Export Plug-In . SVG Version: 6.00 Build 0)  -->
<!DOCTYPE svg PUBLIC "-//W3C//DTD SVG 1.1//EN" "http://www.w3.org/Graphics/SVG/1.1/DTD/svg11.dtd">
<svg version="1.1" id="Layer_1" xmlns="http://www.w3.org/2000/svg" xmlns:xlink="http://www.w3.org/1999/xlink" x="0px" y="0px"
	 viewBox="348.8 576.5 144.6 36.8" enable-background="new 348.8 576.5 144.6 36.8" xml:space="preserve">
<g>
	<rect x="350.2" y="577.9" fill="#403E34" width="141.7" height="34"/>
	<polygon fill="#231F20" points="352.2,610.7 352.2,579.9 490.8,579.9 490.8,577 349.3,577 349.3,610.7 	"/>
	<path fill="#BBB8B7" d="M493.3,613.3H348.8v-36.8h144.6V613.3z M351.6,610.5h138.9v-31.2H351.6V610.5z"/>
	<g opacity="0.75">
		<g>
			<path fill="#231F20" d="M380.5,601.5h-3.9v-12.1h3.8c2.9,0,3.4,2.3,3.4,3.4v0.2c0,0.7-0.4,1.7-1.2,2.3c0.8,0.5,1.4,1.5,1.4,2.4
				v0.4C384,599.2,383.4,601.5,380.5,601.5z M381.6,592.8c0-1.1-0.8-1.2-1.2-1.2h-1.5v2.6h1.6c0.5,0,1.1-0.2,1.1-1.2V592.8z
				 M381.8,597.7c0-1.1-0.7-1.3-1.3-1.3h-1.7v2.9h1.6c0.5,0,1.3-0.2,1.3-1.3V597.7z"/>
			<path fill="#231F20" d="M387.4,601.5v-12.1h7v2.2h-4.8v2.4h4.5v2.2h-4.5v3.1h4.8v2.2H387.4z"/>
			<path fill="#231F20" d="M397.7,601.5v-12.1h7v2.2h-4.8v2.4h4.5v2.2h-4.5v3.1h4.8v2.2H397.7z"/>
			<path fill="#231F20" d="M413.3,601.5l-2.2-4.7h-1v4.7h-2.2v-12.1h3.8c2.9,0,3.5,2.3,3.5,3.4v0.5c0,0.9-0.3,2.4-1.8,3.1l2.4,5
				H413.3z M413,592.9c0-1.1-0.8-1.3-1.3-1.3h-1.5v3h1.6c0.5,0,1.3-0.2,1.3-1.3V592.9z"/>
			<path fill="#231F20" d="M421.9,601.6c-2.3,0-3.7-1.6-3.7-3.8h2.2c0,1.1,0.6,1.6,1.5,1.6c1,0,1.7-0.6,1.7-1.3c0-0.6-0.4-1-0.8-1.3
				c-0.5-0.3-1.3-0.7-2.6-1.4c-1-0.5-1.7-1.6-1.7-2.9c0-1.9,1.5-3.3,3.6-3.3c2.2,0,3.7,1.6,3.7,3.7h-2.2c0-1-0.6-1.6-1.4-1.6
				c-0.7,0-1.4,0.4-1.4,1.2c0,0.4,0.3,0.7,0.7,1c1.5,0.7,2,1,2.5,1.3c1.3,0.7,2,1.8,2,3.3C425.7,600.2,424,601.6,421.9,601.6z"/>
			<path fill="#231F20" d="M432.9,591.6v9.9h-2.2v-9.9H428v-2.2h7.6v2.2H432.9z"/>
			<path fill="#231F20" d="M443.8,601.5l-2.2-4.7h-1v4.7h-2.2v-12.1h3.8c2.9,0,3.5,2.3,3.5,3.4v0.5c0,0.9-0.3,2.4-1.8,3.1l2.4,5
				H443.8z M443.5,592.9c0-1.1-0.8-1.3-1.3-1.3h-1.5v3h1.6c0.5,0,1.3-0.2,1.3-1.3V592.9z"/>
			<path fill="#231F20" d="M452.7,601.6c-2.8,0-3.6-2.4-3.6-3.5v-5.4c0-1.1,0.7-3.4,3.7-3.4c2.8,0,3.6,2.3,3.6,3.4v5.4
				C456.3,599.3,455.6,601.6,452.7,601.6z M454.1,592.8c0-1.1-1-1.3-1.4-1.3c-0.5,0-1.5,0.2-1.5,1.3v5.4c0,1.1,1,1.3,1.5,1.3
				c0.4,0,1.4-0.2,1.4-1.3V592.8z"/>
			<path fill="#231F20" d="M463.9,591.6v9.9h-2.2v-9.9H459v-2.2h7.6v2.2H463.9z"/>
		</g>
	</g>
	<g>
		<g>
			<path fill="#BBB8B7" d="M379.9,600.9h-3.9v-12.1h3.8c2.9,0,3.4,2.3,3.4,3.4v0.2c0,0.7-0.4,1.7-1.2,2.3c0.8,0.5,1.4,1.5,1.4,2.4
				v0.4C383.4,598.6,382.8,600.9,379.9,600.9z M381,592.2c0-1.1-0.8-1.2-1.2-1.2h-1.5v2.6h1.6c0.5,0,1.1-0.2,1.1-1.2V592.2z
				 M381.2,597.1c0-1.1-0.7-1.3-1.3-1.3h-1.7v2.9h1.6c0.5,0,1.3-0.2,1.3-1.3V597.1z"/>
			<path fill="#BBB8B7" d="M386.9,600.9v-12.1h7v2.2h-4.8v2.4h4.5v2.2h-4.5v3.1h4.8v2.2H386.9z"/>
			<path fill="#BBB8B7" d="M397.1,600.9v-12.1h7v2.2h-4.8v2.4h4.5v2.2h-4.5v3.1h4.8v2.2H397.1z"/>
			<path fill="#BBB8B7" d="M412.7,600.9l-2.2-4.7h-1v4.7h-2.2v-12.1h3.8c2.9,0,3.5,2.3,3.5,3.4v0.5c0,0.9-0.3,2.4-1.8,3.1l2.4,5
				H412.7z M412.4,592.3c0-1.1-0.8-1.3-1.3-1.3h-1.5v3h1.6c0.5,0,1.3-0.2,1.3-1.3V592.3z"/>
			<path fill="#BBB8B7" d="M421.3,601.1c-2.3,0-3.7-1.6-3.7-3.8h2.2c0,1.1,0.6,1.6,1.5,1.6c1,0,1.7-0.6,1.7-1.3c0-0.6-0.4-1-0.8-1.3
				c-0.5-0.3-1.3-0.7-2.6-1.4c-1-0.5-1.7-1.6-1.7-2.9c0-1.9,1.5-3.3,3.6-3.3c2.2,0,3.7,1.6,3.7,3.7h-2.2c0-1-0.6-1.6-1.4-1.6
				c-0.7,0-1.4,0.4-1.4,1.2c0,0.4,0.3,0.7,0.7,1c1.5,0.7,2,1,2.5,1.3c1.3,0.7,2,1.8,2,3.3C425.1,599.6,423.5,601.1,421.3,601.1z"/>
			<path fill="#BBB8B7" d="M432.3,591v9.9h-2.2V591h-2.7v-2.2h7.6v2.2H432.3z"/>
			<path fill="#BBB8B7" d="M443.3,600.9l-2.2-4.7h-1v4.7h-2.2v-12.1h3.8c2.9,0,3.5,2.3,3.5,3.4v0.5c0,0.9-0.3,2.4-1.8,3.1l2.4,5
				H443.3z M443,592.3c0-1.1-0.8-1.3-1.3-1.3h-1.5v3h1.6c0.5,0,1.3-0.2,1.3-1.3V592.3z"/>
			<path fill="#BBB8B7" d="M452.1,601.1c-2.8,0-3.6-2.4-3.6-3.5v-5.4c0-1.1,0.7-3.4,3.7-3.4c2.8,0,3.6,2.3,3.6,3.4v5.4
				C455.8,598.7,455,601.1,452.1,601.1z M453.5,592.2c0-1.1-1-1.3-1.4-1.3c-0.5,0-1.5,0.2-1.5,1.3v5.4c0,1.1,1,1.3,1.5,1.3
				c0.4,0,1.4-0.2,1.4-1.3V592.2z"/>
			<path fill="#BBB8B7" d="M463.3,591v9.9h-2.2V591h-2.7v-2.2h7.6v2.2H463.3z"/>
		</g>
	</g>
</g>
</svg>
