<?xml version="1.0" encoding="utf-8"?>
<!-- Generator: Adobe Illustrator 17.1.0, SVG Export Plug-In . SVG Version: 6.00 Build 0)  -->
<!DOCTYPE svg PUBLIC "-//W3C//DTD SVG 1.1//EN" "http://www.w3.org/Graphics/SVG/1.1/DTD/svg11.dtd">
<svg version="1.1" id="Livello_1" xmlns="http://www.w3.org/2000/svg" xmlns:xlink="http://www.w3.org/1999/xlink" x="0px" y="0px"
	 viewBox="-10.4 314.6 862.8 561.3" enable-background="new -10.4 314.6 862.8 561.3" xml:space="preserve">
<g id="logo">
	<rect x="0" y="314.6" fill="#FFFFFF" width="841.9" height="561.3"/>
	<g>
		<g>
			<line fill="none" stroke="#6D6E71" stroke-width="13.2768" x1="150.9" y1="467" x2="691" y2="467"/>
			<line fill="none" stroke="#6D6E71" stroke-width="3.7635" x1="150.9" y1="460.5" x2="691" y2="460.5"/>
		</g>
		<g>
			<line fill="none" stroke="#6D6E71" stroke-width="13.2768" x1="691" y1="735.6" x2="150.9" y2="735.6"/>
			<line fill="none" stroke="#6D6E71" stroke-width="3.7635" x1="691" y1="742.1" x2="150.9" y2="742.1"/>
		</g>
	</g>
	<rect x="8.4" y="502.3" fill="#414042" stroke="#D1D3D4" stroke-width="37.6352" width="825.1" height="198"/>
	<g>
		<g opacity="0.75">
			<g enable-background="new    ">
				<path d="M207.4,619.7c0,1.1-0.1,2.3-0.3,3.7c-0.2,1.4-0.6,2.8-1.2,4.3c-0.6,1.5-1.3,2.9-2.3,4.4c-1,1.4-2.2,2.7-3.7,3.8
					c-1.5,1.1-3.3,2-5.4,2.7c-2.1,0.7-4.6,1-7.4,1h-22.5v-70.5h22c2.8,0,5.3,0.3,7.4,1s3.9,1.6,5.3,2.6c1.5,1.1,2.7,2.3,3.6,3.7
					c0.9,1.4,1.7,2.8,2.2,4.3c0.5,1.5,0.9,2.9,1.1,4.3c0.2,1.4,0.3,2.6,0.3,3.7v1.2c0,1-0.2,2.2-0.5,3.4c-0.3,1.2-0.8,2.4-1.4,3.6
					c-0.6,1.2-1.3,2.3-2.2,3.4c-0.9,1.1-1.9,2-3.1,2.8c1.3,0.8,2.4,1.7,3.4,2.8c1,1.1,1.8,2.2,2.5,3.5c0.7,1.2,1.2,2.5,1.6,3.9
					c0.4,1.4,0.6,2.7,0.6,4V619.7z M193.5,589c0-1.6-0.2-2.8-0.7-3.8c-0.5-0.9-1.1-1.6-1.8-2.1c-0.7-0.5-1.5-0.8-2.3-0.9
					c-0.8-0.1-1.6-0.2-2.2-0.2h-8.9v15.1h9.5c0.7,0,1.4-0.1,2.2-0.2c0.8-0.2,1.5-0.5,2.1-1c0.6-0.5,1.2-1.2,1.6-2.2
					c0.4-0.9,0.6-2.2,0.6-3.7V589z M194.7,617.5c0-1.6-0.2-3-0.7-4c-0.5-1-1.1-1.8-1.8-2.3c-0.7-0.5-1.5-0.9-2.4-1.1
					c-0.9-0.2-1.7-0.3-2.4-0.3h-9.9v17h9.4c0.7,0,1.5-0.1,2.4-0.2c0.9-0.2,1.8-0.5,2.6-1c0.8-0.5,1.5-1.3,2-2.2
					c0.5-1,0.8-2.3,0.8-3.9V617.5z"/>
				<path d="M227.1,639.7v-70.5h40.8V582h-28v14.3h25.9V609h-25.9v17.9h28v12.8H227.1z"/>
				<path d="M286,639.7v-70.5h40.8V582h-28v14.3h25.9V609h-25.9v17.9h28v12.8H286z"/>
				<path d="M376.4,639.7l-12.8-27.2h-5.7v27.2H345v-70.5h22.1c2.8,0,5.3,0.3,7.4,1c2.1,0.7,3.9,1.6,5.5,2.7
					c1.5,1.1,2.8,2.4,3.7,3.8c1,1.4,1.8,2.9,2.3,4.4c0.6,1.5,1,2.9,1.2,4.3c0.2,1.4,0.3,2.7,0.3,3.7v3c0,1.3-0.1,2.7-0.4,4.4
					c-0.3,1.7-0.8,3.4-1.6,5.1c-0.8,1.7-1.9,3.4-3.2,4.9c-1.4,1.6-3.2,2.9-5.3,3.9l13.9,29.1H376.4z M374.6,589.5
					c0-1.6-0.3-3-0.8-3.9c-0.5-1-1.2-1.7-2-2.3c-0.8-0.5-1.6-0.9-2.5-1.1c-0.9-0.2-1.7-0.3-2.4-0.3h-9v17.7h9.2
					c0.7,0,1.5-0.1,2.4-0.2c0.9-0.2,1.7-0.5,2.5-1c0.8-0.5,1.4-1.3,1.9-2.3c0.5-1,0.8-2.3,0.8-4V589.5z"/>
				<path d="M448.4,620.2c0,2.9-0.6,5.6-1.7,8.1c-1.1,2.5-2.7,4.6-4.7,6.5c-2,1.8-4.3,3.2-7.1,4.3s-5.6,1.5-8.8,1.5
					c-3.3,0-6.3-0.6-8.9-1.7c-2.7-1.1-5-2.7-6.8-4.7c-1.9-2-3.3-4.3-4.4-7.1c-1-2.7-1.5-5.7-1.5-8.8h12.8c0,1.5,0.2,2.9,0.7,4.1
					c0.5,1.2,1.1,2.2,1.9,2.9c0.8,0.8,1.7,1.4,2.8,1.8c1.1,0.4,2.2,0.6,3.5,0.6c1.5,0,2.8-0.2,4-0.6c1.2-0.4,2.2-0.9,3-1.6
					c0.8-0.7,1.5-1.5,1.9-2.5s0.7-2,0.7-3.2c0-1.8-0.5-3.2-1.4-4.4c-0.9-1.2-2.1-2.2-3.5-3c-1.4-0.8-3.3-1.8-5.7-3.1
					c-2.4-1.2-5.6-2.9-9.6-4.9c-1.4-0.7-2.7-1.6-4-2.8c-1.2-1.1-2.3-2.4-3.2-3.9c-0.9-1.5-1.6-3.1-2.1-4.8c-0.5-1.7-0.8-3.5-0.8-5.3
					c0-2.8,0.5-5.4,1.5-7.8c1-2.4,2.4-4.4,4.3-6.1c1.8-1.7,4-3,6.5-3.9c2.5-0.9,5.3-1.4,8.4-1.4c3.2,0,6,0.5,8.7,1.6
					c2.6,1.1,4.9,2.6,6.8,4.5s3.3,4.2,4.4,6.9c1,2.7,1.5,5.5,1.5,8.7h-13c0-1.4-0.2-2.7-0.6-3.9c-0.4-1.1-1-2.1-1.8-2.9
					c-0.8-0.8-1.7-1.4-2.7-1.8c-1-0.4-2.1-0.6-3.3-0.6c-1.1,0-2.1,0.1-3.1,0.4c-1,0.3-1.8,0.7-2.5,1.3c-0.7,0.6-1.3,1.3-1.7,2.1
					c-0.4,0.8-0.6,1.8-0.6,2.9c0,1.2,0.4,2.3,1.1,3.2c0.7,1,1.7,1.8,3.1,2.5c2.1,1.1,3.9,2,5.5,2.8s2.8,1.4,3.9,2s2.1,1,2.9,1.4
					c0.8,0.4,1.5,0.8,2.2,1.2c3.8,2,6.6,4.7,8.6,7.9C447.4,612.3,448.4,616,448.4,620.2z"/>
				<path d="M489.8,582.1v57.6H477v-57.6h-15.7v-12.9h44.3v12.9H489.8z"/>
				<path d="M552.9,639.7l-12.8-27.2h-5.7v27.2h-12.9v-70.5h22.1c2.8,0,5.3,0.3,7.4,1c2.1,0.7,3.9,1.6,5.5,2.7
					c1.5,1.1,2.8,2.4,3.7,3.8c1,1.4,1.8,2.9,2.3,4.4c0.6,1.5,1,2.9,1.2,4.3c0.2,1.4,0.3,2.7,0.3,3.7v3c0,1.3-0.1,2.7-0.4,4.4
					c-0.3,1.7-0.8,3.4-1.6,5.1c-0.8,1.7-1.9,3.4-3.2,4.9c-1.4,1.6-3.2,2.9-5.3,3.9l13.9,29.1H552.9z M551.1,589.5
					c0-1.6-0.3-3-0.8-3.9c-0.5-1-1.2-1.7-2-2.3s-1.6-0.9-2.5-1.1c-0.9-0.2-1.7-0.3-2.4-0.3h-9v17.7h9.2c0.7,0,1.5-0.1,2.4-0.2
					c0.9-0.2,1.7-0.5,2.5-1s1.4-1.3,1.9-2.3c0.5-1,0.8-2.3,0.8-4V589.5z"/>
				<path d="M625.2,620.2c0,1.1-0.1,2.4-0.4,3.8c-0.3,1.4-0.7,2.9-1.4,4.4s-1.5,3-2.6,4.4c-1.1,1.5-2.4,2.7-4,3.9
					c-1.6,1.1-3.4,2-5.6,2.7s-4.6,1-7.4,1c-2.8,0-5.2-0.3-7.3-1c-2.1-0.7-3.9-1.6-5.5-2.8c-1.6-1.1-2.9-2.4-3.9-3.9
					c-1.1-1.5-1.9-3-2.6-4.5s-1.1-3-1.4-4.4c-0.3-1.4-0.4-2.7-0.4-3.9v-31.5c0-1.1,0.1-2.3,0.4-3.7s0.7-2.8,1.3-4.3
					c0.6-1.5,1.5-2.9,2.5-4.3c1.1-1.4,2.4-2.7,3.9-3.8s3.4-2,5.6-2.7c2.2-0.7,4.7-1,7.5-1c2.7,0,5.1,0.3,7.2,1
					c2.1,0.7,4,1.6,5.5,2.7s2.9,2.4,4,3.8c1.1,1.4,1.9,2.9,2.6,4.3c0.7,1.5,1.1,2.9,1.4,4.3c0.3,1.4,0.4,2.7,0.4,3.8V620.2z
					 M612.2,588.8c0-1.6-0.3-2.9-0.9-3.9c-0.6-1-1.4-1.7-2.2-2.2c-0.9-0.5-1.8-0.9-2.7-1c-0.9-0.2-1.7-0.2-2.4-0.2
					c-0.7,0-1.5,0.1-2.5,0.2c-1,0.2-1.9,0.5-2.8,1c-0.9,0.5-1.6,1.3-2.3,2.2c-0.6,1-0.9,2.3-0.9,3.9V620c0,1.7,0.3,3,0.9,4
					c0.6,1,1.4,1.8,2.3,2.3c0.9,0.5,1.8,0.9,2.8,1.1c1,0.2,1.8,0.3,2.5,0.3c0.6,0,1.4-0.1,2.4-0.3s1.8-0.5,2.7-1.1
					c0.9-0.5,1.6-1.3,2.2-2.3c0.6-1,0.9-2.3,0.9-4V588.8z"/>
				<path d="M668.6,582.1v57.6h-12.8v-57.6h-15.7v-12.9h44.3v12.9H668.6z"/>
			</g>
		</g>
		<g>
			<g enable-background="new    ">
				<path fill="#E6E7E8" d="M200.8,613c0,1.1-0.1,2.3-0.3,3.7c-0.2,1.4-0.6,2.8-1.2,4.3c-0.6,1.5-1.3,2.9-2.3,4.4
					c-1,1.4-2.2,2.7-3.7,3.8c-1.5,1.1-3.3,2-5.4,2.7c-2.1,0.7-4.6,1-7.4,1H158v-70.5h22c2.8,0,5.3,0.3,7.4,1s3.9,1.6,5.3,2.6
					c1.5,1.1,2.7,2.3,3.6,3.7c0.9,1.4,1.7,2.8,2.2,4.3c0.5,1.5,0.9,2.9,1.1,4.3c0.2,1.4,0.3,2.6,0.3,3.7v1.2c0,1-0.2,2.2-0.5,3.4
					c-0.3,1.2-0.8,2.4-1.4,3.6c-0.6,1.2-1.3,2.3-2.2,3.4c-0.9,1.1-1.9,2-3.1,2.8c1.3,0.8,2.4,1.7,3.4,2.8c1,1.1,1.8,2.2,2.5,3.5
					c0.7,1.2,1.2,2.5,1.6,3.9c0.4,1.4,0.6,2.7,0.6,4V613z M186.9,582.4c0-1.6-0.2-2.8-0.7-3.8c-0.5-0.9-1.1-1.6-1.8-2.1
					c-0.7-0.5-1.5-0.8-2.3-0.9c-0.8-0.1-1.6-0.2-2.2-0.2h-8.9v15.1h9.5c0.7,0,1.4-0.1,2.2-0.2c0.8-0.2,1.5-0.5,2.1-1
					c0.6-0.5,1.2-1.2,1.6-2.2c0.4-0.9,0.6-2.2,0.6-3.7V582.4z M188.1,610.9c0-1.6-0.2-3-0.7-4c-0.5-1-1.1-1.8-1.8-2.3
					c-0.7-0.5-1.5-0.9-2.4-1.1c-0.9-0.2-1.7-0.3-2.4-0.3h-9.9v17h9.4c0.7,0,1.5-0.1,2.4-0.2c0.9-0.2,1.8-0.5,2.6-1
					c0.8-0.5,1.5-1.3,2-2.2c0.5-1,0.8-2.3,0.8-3.9V610.9z"/>
				<path fill="#E6E7E8" d="M220.5,633.1v-70.5h40.8v12.8h-28v14.3h25.9v12.8h-25.9v17.9h28v12.8H220.5z"/>
				<path fill="#E6E7E8" d="M279.4,633.1v-70.5h40.8v12.8h-28v14.3h25.9v12.8h-25.9v17.9h28v12.8H279.4z"/>
				<path fill="#E6E7E8" d="M369.8,633.1L357,605.8h-5.7v27.2h-12.9v-70.5h22.1c2.8,0,5.3,0.3,7.4,1c2.1,0.7,3.9,1.6,5.5,2.7
					c1.5,1.1,2.8,2.4,3.7,3.8c1,1.4,1.8,2.9,2.3,4.4c0.6,1.5,1,2.9,1.2,4.3c0.2,1.4,0.3,2.7,0.3,3.7v3c0,1.3-0.1,2.7-0.4,4.4
					c-0.3,1.7-0.8,3.4-1.6,5.1c-0.8,1.7-1.9,3.4-3.2,4.9c-1.4,1.6-3.2,2.9-5.3,3.9l13.9,29.1H369.8z M368,582.9c0-1.6-0.3-3-0.8-3.9
					c-0.5-1-1.2-1.7-2-2.3c-0.8-0.5-1.6-0.9-2.5-1.1c-0.9-0.2-1.7-0.3-2.4-0.3h-9v17.7h9.2c0.7,0,1.5-0.1,2.4-0.2
					c0.9-0.2,1.7-0.5,2.5-1c0.8-0.5,1.4-1.3,1.9-2.3c0.5-1,0.8-2.3,0.8-4V582.9z"/>
				<path fill="#E6E7E8" d="M441.8,613.6c0,2.9-0.6,5.6-1.7,8.1c-1.1,2.5-2.7,4.6-4.7,6.5c-2,1.8-4.3,3.2-7.1,4.3s-5.6,1.5-8.8,1.5
					c-3.3,0-6.3-0.6-8.9-1.7c-2.7-1.1-5-2.7-6.8-4.7c-1.9-2-3.3-4.3-4.4-7.1c-1-2.7-1.5-5.7-1.5-8.8h12.8c0,1.5,0.2,2.9,0.7,4.1
					c0.5,1.2,1.1,2.2,1.9,2.9c0.8,0.8,1.7,1.4,2.8,1.8c1.1,0.4,2.2,0.6,3.5,0.6c1.5,0,2.8-0.2,4-0.6s2.2-0.9,3-1.6
					c0.8-0.7,1.5-1.5,1.9-2.5s0.7-2,0.7-3.2c0-1.8-0.5-3.2-1.4-4.4s-2.1-2.2-3.5-3c-1.4-0.8-3.3-1.8-5.7-3.1
					c-2.4-1.2-5.6-2.9-9.6-4.9c-1.4-0.7-2.7-1.6-4-2.8c-1.2-1.1-2.3-2.4-3.2-3.9c-0.9-1.5-1.6-3.1-2.1-4.8c-0.5-1.7-0.8-3.5-0.8-5.3
					c0-2.8,0.5-5.4,1.5-7.8c1-2.4,2.4-4.4,4.3-6.1c1.8-1.7,4-3,6.5-3.9c2.5-0.9,5.3-1.4,8.4-1.4c3.2,0,6,0.5,8.7,1.6
					c2.6,1.1,4.9,2.6,6.8,4.5s3.3,4.2,4.4,6.9s1.5,5.5,1.5,8.7h-13c0-1.4-0.2-2.7-0.6-3.9c-0.4-1.1-1-2.1-1.8-2.9
					c-0.8-0.8-1.7-1.4-2.7-1.8c-1-0.4-2.1-0.6-3.3-0.6c-1.1,0-2.1,0.1-3.1,0.4c-1,0.3-1.8,0.7-2.5,1.3c-0.7,0.6-1.3,1.3-1.7,2.1
					c-0.4,0.8-0.6,1.8-0.6,2.9c0,1.2,0.4,2.3,1.1,3.2c0.7,1,1.7,1.8,3.1,2.5c2.1,1.1,3.9,2,5.5,2.8c1.5,0.8,2.8,1.4,3.9,2
					c1.1,0.5,2.1,1,2.9,1.4c0.8,0.4,1.5,0.8,2.2,1.2c3.8,2,6.6,4.7,8.6,7.9C440.8,605.7,441.8,609.4,441.8,613.6z"/>
				<path fill="#E6E7E8" d="M483.2,575.5v57.6h-12.8v-57.6h-15.7v-12.9H499v12.9H483.2z"/>
				<path fill="#E6E7E8" d="M546.3,633.1l-12.8-27.2h-5.7v27.2h-12.9v-70.5h22.1c2.8,0,5.3,0.3,7.4,1c2.1,0.7,3.9,1.6,5.5,2.7
					c1.5,1.1,2.8,2.4,3.7,3.8c1,1.4,1.8,2.9,2.3,4.4c0.6,1.5,1,2.9,1.2,4.3c0.2,1.4,0.3,2.7,0.3,3.7v3c0,1.3-0.1,2.7-0.4,4.4
					c-0.3,1.7-0.8,3.4-1.6,5.1c-0.8,1.7-1.9,3.4-3.2,4.9c-1.4,1.6-3.2,2.9-5.3,3.9l13.9,29.1H546.3z M544.5,582.9
					c0-1.6-0.3-3-0.8-3.9c-0.5-1-1.2-1.7-2-2.3s-1.6-0.9-2.5-1.1c-0.9-0.2-1.7-0.3-2.4-0.3h-9v17.7h9.2c0.7,0,1.5-0.1,2.4-0.2
					c0.9-0.2,1.7-0.5,2.5-1c0.8-0.5,1.4-1.3,1.9-2.3c0.5-1,0.8-2.3,0.8-4V582.9z"/>
				<path fill="#E6E7E8" d="M618.6,613.6c0,1.1-0.1,2.4-0.4,3.8c-0.3,1.4-0.7,2.9-1.4,4.4s-1.5,3-2.6,4.4c-1.1,1.5-2.4,2.7-4,3.9
					c-1.6,1.1-3.4,2-5.6,2.7s-4.6,1-7.4,1c-2.8,0-5.2-0.3-7.3-1c-2.1-0.7-3.9-1.6-5.5-2.8c-1.6-1.1-2.9-2.4-3.9-3.9
					c-1.1-1.5-1.9-3-2.6-4.5s-1.1-3-1.4-4.4c-0.3-1.4-0.4-2.7-0.4-3.9V582c0-1.1,0.1-2.3,0.4-3.7s0.7-2.8,1.3-4.3
					c0.6-1.5,1.5-2.9,2.5-4.3c1.1-1.4,2.4-2.7,3.9-3.8s3.4-2,5.6-2.7c2.2-0.7,4.7-1,7.5-1c2.7,0,5.1,0.3,7.2,1
					c2.1,0.7,4,1.6,5.5,2.7s2.9,2.4,4,3.8c1.1,1.4,1.9,2.9,2.6,4.3c0.7,1.5,1.1,2.9,1.4,4.3c0.3,1.4,0.4,2.7,0.4,3.8V613.6z
					 M605.6,582.2c0-1.6-0.3-2.9-0.9-3.9c-0.6-1-1.4-1.7-2.2-2.2c-0.9-0.5-1.8-0.9-2.7-1c-0.9-0.2-1.7-0.2-2.4-0.2
					c-0.7,0-1.5,0.1-2.5,0.2c-1,0.2-1.9,0.5-2.8,1c-0.9,0.5-1.6,1.3-2.3,2.2c-0.6,1-0.9,2.3-0.9,3.9v31.3c0,1.7,0.3,3,0.9,4
					c0.6,1,1.4,1.8,2.3,2.3c0.9,0.5,1.8,0.9,2.8,1.1c1,0.2,1.8,0.3,2.5,0.3c0.6,0,1.4-0.1,2.4-0.3s1.8-0.5,2.7-1.1
					c0.9-0.5,1.6-1.3,2.2-2.3c0.6-1,0.9-2.3,0.9-4V582.2z"/>
				<path fill="#E6E7E8" d="M662,575.5v57.6h-12.8v-57.6h-15.7v-12.9h44.3v12.9H662z"/>
			</g>
		</g>
	</g>
	<g>
		<g>
			<path fill="#58595B" d="M246.5,403.8c0-16.6,11.8-25.1,24.2-25.1c9.3,0,13.7,5.5,13.7,11.9c0,4.1-2.4,8-5.7,8
				c-2.6,0-4.3-1.6-4.3-3.8s1.1-3.1,1.1-4.8c0-2.5-1.1-4.4-5.8-4.4c-5.7,0-13,5.7-13,18.3c0,10.5,6.2,14.4,13.2,14.4
				c7.7,0,10.9-2.7,13.2-5c0.5-0.5,1.1-0.7,1.7-0.7c1.4,0,2.6,1.3,2.6,2.5c0,0.5-0.2,1.1-0.6,1.6c-2.7,3.7-8.2,8.5-17.8,8.5
				C255.5,425.2,246.5,416,246.5,403.8z"/>
			<path fill="#58595B" d="M311,421.1c-2,2-5,4.1-10.1,4.1c-7,0-11.6-6.4-11.6-15.1c0-11.9,9.2-16.9,14.6-16.9c2.6,0,5.7,0.5,8.1,2
				c0.7-0.9,1.8-1.4,3-1.4c2.1,0,3.8,1.7,3.8,3.8c0,7.5-0.6,11.9-0.6,18.9c0,1.1,0.9,2,2,2c0.9,0,1.6-0.4,2.2-1
				c0.8-0.9,2.1-0.8,3.1,0c1,0.8,0.9,2,0.2,3.4c-1.1,2-3,4.3-7.5,4.3C315.1,425.2,312.4,423.6,311,421.1z M310.2,411l0.3-9.3
				c0,0-1.8-1.2-5.5-1.2c-3.8,0-7.5,2.3-7.5,9.6c0,5,2.2,7.5,5.5,7.5C308.3,417.6,310.1,413.9,310.2,411z"/>
			<path fill="#58595B" d="M333.5,378.1c2.7,0,5,2.2,5,5c0,6-4.4,11.2-5.3,12.1c-0.9,0.9-2.3,0.8-3.2,0c-1-0.8-0.9-2.4,0-3.2
				c0.6-0.6,1.6-2,2.1-4.2c-2-0.7-3.4-2.5-3.4-4.6C328.6,380.3,330.8,378.1,333.5,378.1z"/>
			<path fill="#58595B" d="M396.1,379.3c2.7,0,5,2.2,5,5c0,19.4-11.4,41-28.2,41c-1.8,0-3.5-1.5-3.5-3.5c0-29.2-4.2-35.9-8.4-35.9
				c-0.7,0-1.4,0.2-1.9,0.9c-0.8,1.1-2.3,1.4-3.4,0.7c-1-0.7-1.5-1.8-0.9-3.2c1.6-3.7,4.5-5.6,9.2-5.6c12.3,0,15.3,11.2,12.8,38.8
				c6.8-1.2,12.5-10,14.1-18.7c1.3-6.8,0.3-11,0.3-14.6C391.1,381.5,393.4,379.3,396.1,379.3z"/>
			<path fill="#58595B" d="M428.7,415.6c0.5-0.7,1.1-1.1,1.9-1.1c1.4,0,2.5,1.1,2.5,2.3c0,4.1-5.6,8.4-13.4,8.4
				c-9.9,0-16.9-6.8-16.9-15.1c0-10.7,6.5-16.9,15.7-16.9c7.5,0,12.2,4.1,12.2,10.5c0,4.7-3.9,10.3-13.9,10.3
				c-2.1,0-3.9-0.1-5.3-0.3c1.1,3.5,4.1,5.4,8.2,5.4C424.6,419.1,427,418,428.7,415.6z M411,408.5c1.1,0.2,2.7,0.4,4.6,0.4
				c4.4,0,6.4-2.5,6.4-5.2c0-1.9-1.6-3.5-3.5-3.5C414.7,400.2,411.5,402.7,411,408.5z"/>
			<path fill="#58595B" d="M459.3,415.3c0.7-1,1.8-1.3,3-0.8c1.1,0.7,1.8,1.8,1.1,3.2c-1.6,3.9-6,7.6-13.2,7.6
				c-8.7,0-14.6-6.8-14.6-15.1c0-10.7,6.5-16.9,15.7-16.9c3.9,0,6.4,1.1,8,2.5c0.9,0.7,1.1,1.7,1.1,2.7c0,2.1-1.6,3.9-4.3,3.9
				c-1.6,0-2.5-2.2-4.8-2.2c-4.1,0-7.5,2.9-7.5,9.9c0,5.2,3.5,8.7,7.8,8.7C455,418.8,457.6,417.6,459.3,415.3z"/>
			<path fill="#58595B" d="M489,415.3c0.7-1,1.9-1.3,3-0.8c1.1,0.7,1.8,1.8,1.1,3.2c-1.6,3.9-6,7.6-13.2,7.6
				c-8.7,0-14.6-6.8-14.6-15.1c0-10.7,6.5-16.9,15.7-16.9c3.9,0,6.4,1.1,8,2.5c0.9,0.7,1.1,1.7,1.1,2.7c0,2.1-1.6,3.9-4.3,3.9
				c-1.6,0-2.5-2.2-4.8-2.2c-4.1,0-7.5,2.9-7.5,9.9c0,5.2,3.5,8.7,7.8,8.7C484.7,418.8,487.3,417.6,489,415.3z"/>
			<path fill="#58595B" d="M515.4,417.1c0-3.5,0.6-7,0.6-12.8c0-2-0.9-3.8-3.8-3.8c-3.6,0-7.8,2-7.8,7.8v12.2c0,2.3-1.8,4.1-4.1,4.1
				c-2.3,0-4.1-1.8-4.1-4.1c0-2.6,0.6-7.5,0.6-10.5c0-16.9-0.6-22.7-0.6-27.6c0-2.4,2-4.3,4.4-4.3c2.4,0,4.4,2,4.4,4.3
				c0,4.8-0.3,10.5-0.3,14.8c2.8-2.8,6.4-4.1,9.6-4.1c8.9,0,9.9,6.8,9.9,9.3c0,4.6-0.6,7-0.6,13.9c0,1.1,0.9,2,2,2
				c0.9,0,1.6-0.4,2.2-1c0.8-0.9,2.1-0.8,3.1,0c1,0.8,0.9,2,0.2,3.4c-1.1,2-3,4.3-7.5,4.3C519.1,425.2,515.4,421.5,515.4,417.1z"/>
			<path fill="#58595B" d="M538.7,379.8c2.7,0,5,2.2,5,5c0,2.7-2.2,5-5,5c-2.7,0-5-2.2-5-5C533.8,382,536,379.8,538.7,379.8z
				 M534.4,417.1c0-2,0.3-4.1,0.3-7c0-5-0.6-12.5-0.6-12.5c0-2.4,2-4.4,4.4-4.4c2.4,0,4.4,2,4.4,4.4c0,7.5-0.6,11.9-0.6,18.9
				c0,1.1,0.9,2,2.1,2c0.9,0,1.6-0.4,2.2-1c0.8-0.9,2.1-0.8,3.1,0c1,0.8,0.9,2,0.2,3.4c-1.1,2-3,4.3-7.6,4.3
				C537.8,425.2,534.4,421.5,534.4,417.1z"/>
			<path fill="#58595B" d="M573,421.1c-2,2-5,4.1-10,4.1c-7,0-11.7-6.4-11.7-15.1c0-11.9,9.2-16.9,14.6-16.9c2.6,0,5.7,0.5,8.1,2
				c0.7-0.9,1.8-1.4,3-1.4c2.1,0,3.8,1.7,3.8,3.8c0,7.5-0.6,11.9-0.6,18.9c0.1,1.1,0.9,2,2.1,2c0.9,0,1.6-0.4,2.2-1
				c0.8-0.9,2.1-0.8,3.1,0c1,0.8,0.9,2,0.2,3.4c-1.1,2-3,4.3-7.6,4.3C577.1,425.2,574.4,423.6,573,421.1z M572.3,411l0.3-9.3
				c0,0-1.8-1.2-5.5-1.2c-3.9,0-7.5,2.3-7.5,9.6c0,5,2.2,7.5,5.5,7.5C570.3,417.6,572.1,413.9,572.3,411z"/>
		</g>
		<g>
			<path fill="#58595B" d="M216.3,409.2c0,3.5-2.9,6.4-6.4,6.4s-6.4-2.9-6.4-6.4s2.9-6.4,6.4-6.4
				C213.5,402.9,216.3,405.7,216.3,409.2z"/>
			<path fill="#58595B" d="M638.3,409.2c0,3.5-2.9,6.4-6.4,6.4s-6.4-2.9-6.4-6.4s2.9-6.4,6.4-6.4
				C635.5,402.9,638.3,405.7,638.3,409.2z"/>
		</g>
	</g>
	<g>
		<g>
			<path fill="#58595B" d="M247.3,802.9h4.5v-21.4h-4.5v-2.7h13.2v2.7h-4.5v21.4h4.5v2.7h-13.2V802.9z"/>
			<path fill="#58595B" d="M263,802.9h3.4v-22.4H263v-2.9h7.2v25.3h3.4v2.7H263V802.9z"/>
			<path fill="#58595B" d="M291.5,798.7c-0.9,0-1.7-0.1-2.5-0.1c-1.3,0-2,0.9-2,1.6c0,1,0.7,1.6,2.7,1.6h4.9c4.3,0,6,1.9,6,4.5
				c0,3.3-3.2,6.1-9.7,6.1c-5,0-8.2-1.8-8.2-4.2c0-1.7,1.6-3.3,3.9-3.6v-0.2c-2.2-0.7-3-2-3-3.3c0-1.4,1.5-2.9,3.5-3.3
				c-2-1-3.3-2.5-3.3-5c0-3.9,3.3-6.1,7.6-6.1c1,0,2,0.2,2.9,0.4c1.2-2.1,3-3.6,5.2-3.6c1.6,0,2.6,1,2.6,2.3c0,1.1-0.8,2-1.9,2
				c-1.1,0-1.8-0.7-1.8-1.7c0-0.1,0-0.3,0-0.4c-0.7-0.2-2,0.8-2.6,2.1c1.8,1.1,3,2.7,3,4.8C299.1,796.5,295.8,798.7,291.5,798.7z
				 M297.4,807.3c0-1.3-0.7-2.2-2.9-2.2H290c-2.5,0-3.6,0.8-3.6,2.5c0,1.4,0.9,2.7,4.9,2.7C294.9,810.4,297.4,809.2,297.4,807.3z
				 M295.1,792.6c0-2.4-1.4-4.1-3.8-4.1c-2.3,0-3.5,1.3-3.5,4.2s1.4,4.1,3.8,4.1C293.9,796.8,295.1,795.4,295.1,792.6z"/>
			<path fill="#58595B" d="M305.1,800v-10.4h-3V787h6.8v11.7c0,1.4,0.3,2.6,1,3.3c0.5,0.5,1.2,0.8,2.1,0.8c2.3,0,4.8-2.2,4.8-6v-7.1
				h-3.1V787h6.9v16h3v2.7h-6.7v-4.7c-2.1,3.5-4.3,5-7,5C306.9,805.9,305.1,803.7,305.1,800z"/>
			<path fill="#58595B" d="M326.2,799h2.5c1,3,3.3,5,6,5c2.2,0,3.2-1.1,3.2-2.6c0-1.6-1.3-2.4-5-3.4c-4.5-1.3-6.3-2.8-6.3-5.8
				c0-3,2.6-5.6,6.4-5.6c1.9,0,3.6,0.7,4.5,2.1l0.4-2.1h2.4v6.4h-2.5c-1.3-2.7-2.5-4.4-5-4.4c-1.4,0-2.9,0.8-2.9,2.4
				c0,1.6,1.4,2.5,4.8,3.4c4.3,1.2,6.4,2.6,6.4,5.7c0,2.8-2.5,5.9-6.7,5.9c-2.3,0-4.3-1-5.4-2.5l-0.4,2.5h-2.4L326.2,799L326.2,799z
				"/>
			<path fill="#58595B" d="M350.1,782.1v5h6.1v2.5h-6.1v11c0,1.8,0.5,2.7,2.2,2.7c1.1,0,2-1.1,2.9-3.2l1.8,0.8c-1.1,3.6-3.2,5-5.8,5
				c-3.2,0-5-1.9-5-5v-11.4h-3.6v-2.5h3.6v-4.7L350.1,782.1z"/>
			<path fill="#58595B" d="M358.5,796.4c0-5.7,3.8-9.7,9.3-9.7c5.7,0,9.3,3.9,9.3,9.6s-3.8,9.8-9.3,9.8
				C362.1,806,358.5,802.1,358.5,796.4z M373,796.3c0-5.1-2-7.5-5.3-7.5c-3.2,0-4.9,2.3-4.9,7.5c0,5.1,2,7.5,5.3,7.5
				C371.3,803.8,373,801.5,373,796.3z"/>
			<path fill="#58595B" d="M387.8,802.9h3.4v-13.3h-3.4V787h7.2v16h3.4v2.7h-10.6L387.8,802.9L387.8,802.9z M390.2,780.4
				c0-1.6,1.1-2.8,2.6-2.8c1.6,0,2.6,1.1,2.6,2.7s-1.1,2.7-2.6,2.7C391.3,783,390.2,782,390.2,780.4z"/>
			<path fill="#58595B" d="M400.5,802.9h3v-13.3h-3V787h6.8v4.7c2.1-3.5,4.3-5,7-5c3,0,5,2.1,5,5.8V803h3v2.7h-9.6V803h2.7v-9
				c0-1.4-0.4-2.6-1-3.2c-0.5-0.5-1.3-0.8-2.2-0.8c-2.3,0-4.9,2.2-4.9,6v7.1h2.7v2.7h-9.6L400.5,802.9L400.5,802.9z"/>
			<path fill="#58595B" d="M431.6,802.9h3v-13.3h-3.7v-2.5h3.7v-0.9c0-6.4,4.2-8.9,7.9-8.9c3.3,0,5.3,1.6,5.3,3.7
				c0,1.3-0.9,2.5-2.2,2.5c-1.4,0-2.5-0.8-2.5-2.5c0-0.4,0.1-0.9,0.4-1.4c-0.4-0.2-0.7-0.3-1.4-0.3c-2.1,0-3.5,1.4-3.5,6.7v1.1h5.4
				v2.5h-5.4v13.3h4.3v2.7h-11V802.9z"/>
			<path fill="#58595B" d="M449.8,796.5c0.1,4.6,2.1,6.9,5.7,6.9c2.3,0,4-1,5.1-3.5h2c-1.1,4-4,6.1-8.1,6.1c-5.7,0-8.9-4.1-8.9-9.5
				c0-5.6,3.9-9.9,9.2-9.9c5.6,0,8.1,5,7.9,9.9H449.8z M449.9,794.6h8.9c-0.3-3.5-1.4-5.8-4.3-5.8
				C451.9,788.8,450.2,790.4,449.9,794.6z"/>
			<path fill="#58595B" d="M465.5,802.9h3v-13.3h-3V787h6.7v4.3c1-3.2,3.4-4.6,5.5-4.6c2.1,0,3.2,1.4,3.2,3.2c0,1.4-1.1,2.6-2.5,2.6
				s-2.6-0.8-2.6-2.4c0-0.2,0-0.4,0.1-0.7c-1.8-0.1-3.1,2-3.8,4.4v9h3.6v2.7h-10.3L465.5,802.9L465.5,802.9z"/>
			<path fill="#58595B" d="M507.9,786.7c3,0,4.8,2.1,4.8,5.8v10.4h3v2.7h-9.3v-2.7h2.5v-9c0-1.4-0.3-2.6-1-3.3
				c-0.5-0.5-1.1-0.7-2.1-0.7c-2,0-4.7,2.2-4.7,6v7.1h2.5v2.7h-8.9v-2.7h2.5v-9c0-1.4-0.3-2.6-1-3.3c-0.5-0.5-1.1-0.7-2.1-0.7
				c-2.1,0-4.7,2.2-4.7,6v7.1h2.5v2.7h-9.3v-2.7h3v-13.3h-3V787h6.8v4.7c2.1-3.5,4.4-5,6.8-5c2.6,0,4.4,1.4,4.7,4.8
				C503.2,788.1,505.4,786.7,507.9,786.7z"/>
			<path fill="#58595B" d="M521.9,796.5c0.1,4.6,2.1,6.9,5.7,6.9c2.3,0,4-1,5.1-3.5h2c-1.1,4-4,6.1-8.1,6.1c-5.7,0-8.9-4.1-8.9-9.5
				c0-5.6,3.9-9.9,9.2-9.9c5.6,0,8.1,5,7.9,9.9H521.9z M521.9,794.6h8.9c-0.3-3.5-1.4-5.8-4.3-5.8
				C524,788.8,522.3,790.4,521.9,794.6z"/>
			<path fill="#58595B" d="M537.6,802.9h3v-13.3h-3V787h6.8v4.7c2.1-3.5,4.3-5,7-5c3,0,5,2.1,5,5.8V803h3v2.7h-9.6V803h2.7v-9
				c0-1.4-0.4-2.6-1-3.2c-0.5-0.5-1.3-0.8-2.2-0.8c-2.3,0-4.9,2.2-4.9,6v7.1h2.7v2.7h-9.5V802.9z"/>
			<path fill="#58595B" d="M567.4,782.1v5h6.1v2.5h-6.1v11c0,1.8,0.5,2.7,2.2,2.7c1.1,0,2.1-1.1,2.9-3.2l1.8,0.8
				c-1.1,3.6-3.2,5-5.8,5c-3.2,0-5-1.9-5-5v-11.4h-3.7v-2.5h3.7v-4.7L567.4,782.1z"/>
			<path fill="#58595B" d="M575.9,796.4c0-5.7,3.8-9.7,9.3-9.7c5.7,0,9.3,3.9,9.3,9.6s-3.8,9.8-9.3,9.8
				C579.4,806,575.9,802.1,575.9,796.4z M590.3,796.3c0-5.1-2-7.5-5.3-7.5c-3.2,0-4.9,2.3-4.9,7.5c0,5.1,2,7.5,5.3,7.5
				C588.6,803.8,590.3,801.5,590.3,796.3z"/>
		</g>
	</g>
</g>
</svg>
