<?xml version="1.0" encoding="utf-8"?>
<!-- Generator: Adobe Illustrator 17.1.0, SVG Export Plug-In . SVG Version: 6.00 Build 0)  -->
<!DOCTYPE svg PUBLIC "-//W3C//DTD SVG 1.1//EN" "http://www.w3.org/Graphics/SVG/1.1/DTD/svg11.dtd">
<svg version="1.1" id="Livello_1" xmlns="http://www.w3.org/2000/svg" xmlns:xlink="http://www.w3.org/1999/xlink" x="0px" y="0px"
	 viewBox="-137.7 222.3 500 333.4" enable-background="new -137.7 222.3 500 333.4" xml:space="preserve">
<rect x="-137.7" y="222.3" fill="#FFFFFF" width="500" height="333.4"/>
<g>
	<rect x="-118.1" y="337" fill="#3B3B3C" width="460.8" height="110.6"/>
	<path fill="#C0C2C4" d="M347.3,452.2h-470V332.4h470V452.2z M-113.5,443h451.6V341.6h-451.6V443z M-21.4,411.9h-12.5v-39.3h12.3
		c9.5,0,11.1,7.4,11.1,11v0.7c0,2.3-1.4,5.6-4,7.4c2.8,1.8,4.5,4.9,4.5,7.9v1.3C-10,404.3-11.9,411.9-21.4,411.9z M-17.8,383.6
		c0-3.5-2.5-3.9-4-3.9h-5v8.5h5.3c1.6,0,3.7-0.6,3.7-4V383.6z M-17.1,399.5c0-3.6-2.4-4.3-4.1-4.3h-5.5v9.5h5.2
		c1.5,0,4.4-0.5,4.4-4.1V399.5z M1.2,411.9v-39.3H24v7.1H8.4v8h14.5v7.1H8.4v10H24v7.1H1.2z M34.4,411.9v-39.3h22.8v7.1H41.6v8h14.5
		v7.1H41.6v10h15.6v7.1H34.4z M85.2,411.9L78,396.7h-3.2v15.2h-7.2v-39.3H80c9.6,0,11.4,7.6,11.4,11.2v1.7c0,2.8-1,7.9-5.9,10.2
		l7.7,16.2H85.2z M84.2,383.9c0-3.6-2.8-4.2-4.3-4.2h-5v9.9H80c1.5,0,4.2-0.5,4.2-4.2V383.9z M113.2,412.4
		c-7.4,0-12.1-5.4-12.1-12.4h7.1c0,3.4,2.1,5.3,4.9,5.3c3.3,0,5.4-1.8,5.4-4.4c0-2-1.2-3.3-2.7-4.1c-1.5-0.9-4.1-2.2-8.5-4.4
		c-3.2-1.6-5.6-5.3-5.6-9.4c0-6.3,4.8-10.7,11.5-10.7c7.1,0,11.9,5.1,11.9,12.2h-7.2c0-3.3-2-5.1-4.7-5.1c-2.4,0-4.4,1.3-4.4,3.8
		c0,1.3,0.8,2.4,2.3,3.2c4.8,2.4,6.6,3.3,8.1,4.1c4.2,2.3,6.4,6,6.4,10.6C125.6,407.6,120.2,412.4,113.2,412.4z M149.1,379.8v32.2
		h-7.1v-32.2h-8.8v-7.2h24.8v7.2H149.1z M184.5,411.9l-7.1-15.2h-3.2v15.2H167v-39.3h12.3c9.6,0,11.4,7.6,11.4,11.2v1.7
		c0,2.8-1.1,7.9-5.9,10.2l7.7,16.2H184.5z M183.6,383.9c0-3.6-2.8-4.2-4.3-4.2h-5v9.9h5.1c1.5,0,4.2-0.5,4.2-4.2V383.9z
		 M213.3,412.4c-9.2,0-11.8-7.7-11.8-11.4v-17.6c0-3.6,2.4-11.1,11.9-11.1c9.1,0,11.8,7.5,11.8,11.2V401
		C225.2,404.8,222.7,412.4,213.3,412.4z M218,383.5c0-3.6-3.2-4.1-4.6-4.1c-1.5,0-4.8,0.5-4.8,4.1V401c0,3.7,3.2,4.3,4.8,4.3
		c1.4,0,4.6-0.6,4.6-4.3V383.5z M249.7,379.8v32.2h-7.1v-32.2h-8.8v-7.2h24.8v7.2H249.7z"/>
	<path d="M338.1,341.6v1.8h-449.7V443h-1.8V341.6H338.1z M25.8,374.4H24v5.3H8.4v8h1.8v-6.1h15.6V374.4z M59.1,413.8H36.3v-1.8h20.9
		v-5.3h1.8V413.8z M59.1,381.5H43.4v6.1h-1.8v-8h15.6v-5.3h1.8V381.5z M41.6,394.8h14.5v-5.3h1.8v7.1H43.4v8.2h-1.8V394.8z
		 M76.7,413.8h-7.2v-1.8h5.3v-15.2H78l0.9,1.8h-2.2V413.8z M87.3,397.5l7.7,16.2H87l-0.9-1.8h7.1l-7.7-16.2
		c4.9-2.3,5.9-7.4,5.9-10.2v-1.7c0-1.8-0.5-4.7-2.3-7.1c3.2,2.5,4.1,6.5,4.1,8.9v1.7C93.3,390.1,92.2,395.2,87.3,397.5z M8.4,394.8
		h14.5v-5.3h1.8v7.1H10.2v8.2H8.4V394.8z M-18.1,381.8c-0.6-0.2-1.3-0.3-1.8-0.3h-5v6.6h-1.8v-8.5h5
		C-20.6,379.7-18.8,380-18.1,381.8z M-26.7,395.2h5.5c1.3,0,3,0.4,3.7,2.2c-0.6-0.3-1.3-0.3-1.9-0.3h-5.5v7.7h-1.8V395.2z
		 M-19.5,413.8h-12.5v-1.8h10.7c9.4,0,11.3-7.6,11.3-11.2v-1.3c0-1.9-0.8-3.9-2.1-5.6c2.4,1.8,3.9,4.7,3.9,7.4v1.3
		C-8.2,406.2-10.1,413.8-19.5,413.8z M25.8,413.8H3.1v-1.8H24v-5.3h1.8V413.8z M83.8,381.9c-0.7-0.3-1.5-0.4-2.1-0.4h-5v8.1h-1.8
		v-9.9h5C81.1,379.7,83,380.1,83.8,381.9z M-8.7,385.4v0.7c0,2.3-1.3,5.5-3.8,7.2c-0.6-0.6-1.2-1.2-2-1.7c2.6-1.7,4-5,4-7.4v-0.7
		c0-1.9-0.4-4.8-2.2-7.1C-9.4,378.9-8.7,383-8.7,385.4z M251.6,413.8h-7.1v-1.8h5.3v-32.2h8.8v-5.3h1.8v7.2h-8.8V413.8z
		 M117.3,381.7c-0.7-0.3-1.4-0.5-2.2-0.5c-2.4,0-4.4,1.3-4.4,3.8c0,0.5,0.1,0.9,0.3,1.3c-1.4-0.8-2.2-1.8-2.2-3.1
		c0-2.4,2-3.8,4.4-3.8C115.1,379.3,116.5,380.1,117.3,381.7z M183.2,381.9c-0.7-0.3-1.5-0.4-2.1-0.4h-5v8.1h-1.8v-9.9h5
		C180.4,379.7,182.4,380.1,183.2,381.9z M176.1,413.8h-7.2v-1.8h5.3v-15.2h3.2l0.9,1.8h-2.2V413.8z M186.7,397.5l7.7,16.2h-8.1
		l-0.9-1.8h7.1l-7.7-16.2c4.9-2.3,5.9-7.4,5.9-10.2v-1.7c0-1.8-0.5-4.7-2.2-7.1c3.2,2.5,4.1,6.5,4.1,8.9v1.7
		C192.6,390.1,191.6,395.2,186.7,397.5z M242.6,381.6h-6.9v-1.8h6.9V381.6z M205.9,410c1.8,1.4,4.2,2.4,7.5,2.4
		c9.4,0,11.9-7.6,11.9-11.4v-17.6c0-1.8-0.7-4.6-2.5-6.9c3.2,2.5,4.3,6.4,4.3,8.7v17.6c0,3.8-2.5,11.4-11.9,11.4
		C210.6,414.2,207.7,412.4,205.9,410z M217.6,381.7c-0.9-0.4-1.8-0.5-2.4-0.5c-1.5,0-4.8,0.5-4.8,4.1v17.5c0,0.8,0.2,1.4,0.4,1.9
		c-1.2-0.5-2.2-1.6-2.2-3.7v-17.5c0-3.6,3.2-4.1,4.8-4.1C214.5,379.4,216.8,379.7,217.6,381.7z M108.5,401.8h1.6
		c0,1.1,0.3,2.1,0.7,2.9C109.7,404.1,108.9,403.2,108.5,401.8z M105.6,409.9c2,1.6,4.5,2.5,7.6,2.5c7,0,12.4-4.8,12.4-11.4
		c0-2.8-0.8-5.3-2.4-7.3c2.8,2.3,4.3,5.4,4.3,9.1c0,6.6-5.4,11.4-12.4,11.4C111,414.2,107.8,412.6,105.6,409.9z M105.8,391.4
		c0.5,0.4,1,0.7,1.5,1c4.4,2.2,7,3.5,8.5,4.4c0.9,0.5,1.6,1.2,2.1,2c-0.1-0.1-0.2-0.1-0.3-0.2c-1.5-0.9-4.1-2.2-8.5-4.4
		C107.9,393.5,106.8,392.6,105.8,391.4z M150.9,413.8h-7.1v-1.8h5.3v-32.2h8.8v-5.3h1.8v7.2h-8.8V413.8z M127,386.2h-7.2
		c0-0.7-0.1-1.3-0.3-1.8h5.7c0-3.1-1-5.8-2.6-7.8C125.3,378.7,127,382.1,127,386.2z M141.9,381.6H135v-1.8h6.9V381.6z"/>
	<path fill="#3B3B3C" d="M263.1,319H-38.5v-3.2h301.6V319z M263.1,313.2H-38.5v0.9h301.6V313.2z M263.1,465.7H-38.5v3.3h301.6V465.7
		z M263.1,470.5H-38.5v0.9h301.6V470.5z M27.4,294c5.4,0,8.4-2.7,9.9-4.7c0.2-0.3,0.3-0.6,0.3-0.9c0-0.7-0.7-1.4-1.5-1.4
		c-0.3,0-0.7,0.1-0.9,0.4c-1.3,1.3-3,2.8-7.3,2.8c-3.9,0-7.4-2.2-7.4-8.1c0-7,4.1-10.2,7.3-10.2c2.6,0,3.3,1.1,3.3,2.5
		c0,1-0.6,1.5-0.6,2.7c0,1.2,1,2.1,2.4,2.1c1.8,0,3.2-2.2,3.2-4.5c0-3.6-2.4-6.6-7.6-6.6c-6.9,0-13.5,4.7-13.5,14
		C14.9,288.8,19.9,294,27.4,294z M54.9,294c2.5,0,3.6-1.3,4.2-2.4c0.4-0.7,0.4-1.4-0.1-1.9c-0.6-0.5-1.3-0.5-1.7,0
		c-0.3,0.4-0.7,0.6-1.2,0.6c-0.6,0-1.1-0.5-1.1-1.1c0-3.9,0.3-6.3,0.3-10.6c0-1.2-0.9-2.1-2.1-2.1c-0.7,0-1.3,0.3-1.7,0.8
		c-1.3-0.8-3.1-1.1-4.5-1.1c-3,0-8.1,2.8-8.1,9.4c0,4.9,2.6,8.4,6.5,8.4c2.8,0,4.5-1.2,5.6-2.3C51.7,293.1,53.2,294,54.9,294z
		 M46.4,289.8c-1.8,0-3.1-1.5-3.1-4.2c0-4.1,2.1-5.4,4.2-5.4c2.1,0,3.1,0.6,3.1,0.6l-0.2,5.2C50.4,287.7,49.4,289.8,46.4,289.8z
		 M60.7,270.4c0,1.2,0.8,2.2,1.9,2.6c-0.3,1.2-0.9,2-1.2,2.3c-0.5,0.5-0.6,1.4,0,1.8c0.6,0.5,1.3,0.5,1.8,0c0.5-0.5,3-3.4,3-6.8
		c0-1.5-1.2-2.8-2.8-2.8C62,267.7,60.7,268.9,60.7,270.4z M95.7,271.1c0,2,0.6,4.3-0.2,8.1c-0.9,4.9-4.1,9.8-7.9,10.4
		c1.4-15.4-0.3-21.6-7.2-21.6c-2.6,0-4.2,1.1-5.1,3.1c-0.3,0.8,0,1.4,0.5,1.8c0.7,0.4,1.5,0.2,1.9-0.4c0.3-0.4,0.6-0.5,1-0.5
		c2.3,0,4.7,3.7,4.7,20.1c0,1.1,0.9,1.9,1.9,1.9c9.4,0,15.8-12.1,15.8-22.9c0-1.5-1.2-2.8-2.8-2.8C96.9,268.3,95.7,269.6,95.7,271.1
		z M111.6,290.6c-2.3,0-3.9-1.1-4.6-3c0.8,0.1,1.8,0.2,3,0.2c5.7,0,7.8-3.1,7.8-5.8c0-3.5-2.6-5.8-6.8-5.8c-5.1,0-8.8,3.5-8.8,9.4
		c0,4.7,3.9,8.4,9.4,8.4c4.4,0,7.5-2.4,7.5-4.7c0-0.6-0.6-1.3-1.4-1.3c-0.4,0-0.8,0.2-1.1,0.6C115.7,289.9,114.4,290.6,111.6,290.6z
		 M111,280c1.1,0,1.9,0.9,1.9,1.9c0,1.5-1.1,2.9-3.6,2.9c-1.1,0-2-0.1-2.6-0.2C107,281.4,108.8,280,111,280z M129.5,290.4
		c-2.4,0-4.4-1.9-4.4-4.9c0-3.9,1.9-5.5,4.2-5.5c1.3,0,1.8,1.2,2.7,1.2c1.5,0,2.4-1,2.4-2.2c0-0.6-0.1-1.1-0.6-1.5
		c-0.9-0.8-2.3-1.4-4.5-1.4c-5.1,0-8.8,3.5-8.8,9.4c0,4.7,3.3,8.4,8.1,8.4c4,0,6.4-2.1,7.3-4.3c0.3-0.8,0-1.4-0.6-1.8
		c-0.6-0.3-1.3-0.1-1.7,0.5C132.8,289.8,131.3,290.4,129.5,290.4z M146.1,290.4c-2.4,0-4.4-1.9-4.4-4.9c0-3.9,1.9-5.5,4.2-5.5
		c1.3,0,1.8,1.2,2.7,1.2c1.5,0,2.4-1,2.4-2.2c0-0.6-0.1-1.1-0.6-1.5c-0.9-0.8-2.3-1.4-4.5-1.4c-5.1,0-8.8,3.5-8.8,9.4
		c0,4.7,3.3,8.4,8.1,8.4c4,0,6.4-2.1,7.3-4.3c0.3-0.8,0-1.4-0.6-1.8c-0.6-0.3-1.3-0.1-1.7,0.5C149.4,289.8,147.9,290.4,146.1,290.4z
		 M169.6,294c2.5,0,3.6-1.3,4.2-2.4c0.4-0.7,0.4-1.4-0.1-1.9c-0.6-0.5-1.3-0.5-1.7,0c-0.3,0.4-0.7,0.6-1.2,0.6
		c-0.6,0-1.1-0.5-1.1-1.1c0-3.9,0.3-5.2,0.3-7.8c0-1.4-0.6-5.2-5.5-5.2c-1.8,0-3.8,0.7-5.4,2.3c0-2.4,0.2-5.6,0.2-8.3
		c0-1.3-1.1-2.4-2.4-2.4c-1.3,0-2.4,1.1-2.4,2.4c0,2.8,0.3,6,0.3,15.4c0,1.6-0.3,4.4-0.3,5.8c0,1.3,1,2.3,2.3,2.3
		c1.3,0,2.3-1,2.3-2.3v-6.8c0-3.3,2.4-4.4,4.4-4.4c1.6,0,2.1,1,2.1,2.1c0,3.2-0.3,5.2-0.3,7.1C165.1,292,167.1,294,169.6,294z
		 M175.3,271.4c0,1.5,1.2,2.8,2.8,2.8c1.5,0,2.8-1.2,2.8-2.8c0-1.5-1.2-2.8-2.8-2.8C176.6,268.7,175.3,269.9,175.3,271.4z
		 M180.1,294c2.5,0,3.6-1.3,4.2-2.4c0.4-0.7,0.4-1.4-0.1-1.9c-0.6-0.5-1.3-0.5-1.7,0c-0.3,0.4-0.7,0.6-1.2,0.6
		c-0.6,0-1.1-0.5-1.1-1.1c0-3.9,0.3-6.3,0.3-10.6c0-1.3-1.1-2.4-2.4-2.4c-1.3,0-2.4,1.1-2.4,2.4c0,0,0.3,4.2,0.3,7
		c0,1.6-0.2,2.8-0.2,3.9C175.7,292,177.6,294,180.1,294z M201.2,294c2.5,0,3.6-1.3,4.2-2.4c0.4-0.7,0.4-1.4-0.1-1.9
		c-0.6-0.5-1.3-0.5-1.7,0c-0.3,0.4-0.8,0.6-1.2,0.6c-0.6,0-1.1-0.5-1.1-1.1c0-3.9,0.3-6.3,0.3-10.6c0-1.2-0.9-2.1-2.1-2.1
		c-0.7,0-1.3,0.3-1.7,0.8c-1.3-0.8-3.1-1.1-4.5-1.1c-3,0-8.1,2.8-8.1,9.4c0,4.9,2.6,8.4,6.5,8.4c2.8,0,4.5-1.2,5.6-2.3
		C198,293.1,199.5,294,201.2,294z M192.8,289.8c-1.9,0-3.1-1.5-3.1-4.2c0-4.1,2.1-5.4,4.2-5.4c2.1,0,3.1,0.6,3.1,0.6l-0.2,5.2
		C196.7,287.7,195.7,289.8,192.8,289.8z M-1.9,285.1c0,2-1.6,3.6-3.6,3.6c-2,0-3.6-1.6-3.6-3.6c0-2,1.6-3.6,3.6-3.6
		C-3.5,281.5-1.9,283.1-1.9,285.1z M233.7,285.1c0,2-1.6,3.6-3.6,3.6c-2,0-3.6-1.6-3.6-3.6c0-2,1.6-3.6,3.6-3.6
		C232.1,281.5,233.7,283.1,233.7,285.1z M15.4,504.9h2.5v-12h-2.5v-1.5h7.4v1.5h-2.5v12h2.5v1.5h-7.4V504.9z M24.1,504.9H26v-12.5
		h-1.9v-1.6h4v14.1H30v1.5h-5.9V504.9z M40,502.5c-0.5,0-0.9-0.1-1.4-0.1c-0.7,0-1.1,0.5-1.1,0.9c0,0.5,0.4,0.9,1.5,0.9h2.7
		c2.4,0,3.3,1.1,3.3,2.5c0,1.8-1.8,3.4-5.4,3.4c-2.8,0-4.6-1-4.6-2.3c0-1,0.9-1.9,2.2-2v-0.1c-1.2-0.4-1.7-1.1-1.7-1.8
		c0-0.8,0.9-1.6,2-1.9c-1.1-0.5-1.9-1.4-1.9-2.8c0-2.2,1.8-3.4,4.3-3.4c0.6,0,1.1,0.1,1.6,0.3c0.7-1.2,1.7-2,2.9-2
		c0.9,0,1.5,0.5,1.5,1.3c0,0.6-0.5,1.1-1,1.1c-0.6,0-1-0.4-1-0.9c0-0.1,0-0.2,0-0.3c-0.4-0.1-1.1,0.5-1.5,1.2c1,0.6,1.7,1.5,1.7,2.7
		C44.3,501.3,42.5,502.5,40,502.5z M43.3,507.4c0-0.7-0.4-1.2-1.6-1.2h-2.6c-1.4,0-2,0.5-2,1.4c0,0.8,0.5,1.5,2.7,1.5
		C41.9,509.1,43.3,508.4,43.3,507.4z M42,499.2c0-1.3-0.7-2.3-2.1-2.3c-1.3,0-2,0.7-2,2.3c0,1.6,0.8,2.3,2.1,2.3
		C41.4,501.5,42,500.7,42,499.2z M47.6,503.3v-5.8h-1.7V496h3.8v6.5c0,0.8,0.2,1.5,0.5,1.8c0.3,0.3,0.7,0.4,1.2,0.4
		c1.3,0,2.7-1.3,2.7-3.3v-4h-1.7V496h3.9v8.9H58v1.5h-3.8v-2.6c-1.2,2-2.4,2.8-3.9,2.8C48.6,506.6,47.6,505.4,47.6,503.3z
		 M59.4,502.7h1.4c0.6,1.7,1.9,2.8,3.3,2.8c1.2,0,1.8-0.6,1.8-1.5c0-0.9-0.7-1.3-2.8-1.9c-2.5-0.7-3.5-1.6-3.5-3.2
		c0-1.7,1.5-3.1,3.6-3.1c1.1,0,2,0.4,2.5,1.2l0.2-1.2h1.3v3.6h-1.4c-0.7-1.5-1.4-2.5-2.8-2.5c-0.8,0-1.6,0.5-1.6,1.3
		c0,0.9,0.8,1.4,2.7,1.9c2.4,0.7,3.5,1.4,3.5,3.2c0,1.6-1.4,3.3-3.7,3.3c-1.3,0-2.4-0.5-3-1.4l-0.2,1.4h-1.3V502.7z M72.7,493.3v2.8
		h3.4v1.4h-3.4v6.2c0,1,0.3,1.5,1.2,1.5c0.6,0,1.1-0.6,1.6-1.8l1,0.4c-0.6,2-1.8,2.8-3.3,2.8c-1.8,0-2.8-1.1-2.8-2.8v-6.4h-2v-1.4h2
		v-2.6L72.7,493.3z M77.5,501.3c0-3.2,2.1-5.4,5.2-5.4c3.2,0,5.2,2.2,5.2,5.4c0,3.2-2.1,5.5-5.2,5.5
		C79.4,506.6,77.5,504.4,77.5,501.3z M85.5,501.2c0-2.9-1.1-4.2-2.9-4.2c-1.8,0-2.7,1.3-2.7,4.2c0,2.9,1.1,4.2,2.9,4.2
		C84.6,505.4,85.5,504.1,85.5,501.2z M93.8,504.9h1.9v-7.4h-1.9V496h4v8.9h1.9v1.5h-5.9V504.9z M95.1,492.3c0-0.9,0.6-1.5,1.5-1.5
		c0.9,0,1.5,0.6,1.5,1.5c0,0.9-0.6,1.5-1.5,1.5C95.7,493.8,95.1,493.2,95.1,492.3z M100.9,504.9h1.7v-7.4h-1.7V496h3.8v2.6
		c1.2-2,2.4-2.8,3.9-2.8c1.7,0,2.8,1.2,2.8,3.3v5.8h1.7v1.5h-5.3v-1.5h1.5v-5c0-0.8-0.2-1.4-0.6-1.8c-0.3-0.3-0.7-0.5-1.2-0.5
		c-1.3,0-2.7,1.3-2.7,3.3v4h1.5v1.5h-5.3V504.9z M118.3,504.9h1.7v-7.4h-2.1v-1.4h2.1v-0.5c0-3.6,2.3-5,4.4-5c1.9,0,2.9,0.9,2.9,2
		c0,0.7-0.5,1.4-1.2,1.4c-0.8,0-1.4-0.5-1.4-1.4c0-0.2,0.1-0.5,0.2-0.8c-0.2-0.1-0.4-0.2-0.8-0.2c-1.2,0-2,0.8-2,3.8v0.6h3v1.4h-3
		v7.4h2.4v1.5h-6.2V504.9z M128.5,501.4c0.1,2.6,1.2,3.8,3.2,3.8c1.3,0,2.2-0.5,2.9-1.9h1.1c-0.6,2.2-2.2,3.4-4.5,3.4
		c-3.2,0-5-2.3-5-5.3c0-3.1,2.2-5.5,5.1-5.5c3.1,0,4.5,2.8,4.4,5.5H128.5z M128.5,500.3h5c-0.2-1.9-0.8-3.3-2.4-3.3
		C129.6,497,128.7,497.9,128.5,500.3z M137.2,504.9h1.7v-7.4h-1.7V496h3.8v2.4c0.5-1.8,1.9-2.5,3.1-2.5c1.2,0,1.8,0.8,1.8,1.8
		c0,0.8-0.6,1.5-1.4,1.5c-0.8,0-1.4-0.5-1.4-1.3c0-0.1,0-0.3,0.1-0.4c-1,0-1.7,1.1-2.1,2.5v5.1h2v1.5h-5.8V504.9z M160.8,495.9
		c1.7,0,2.7,1.2,2.7,3.3v5.8h1.7v1.5H160v-1.5h1.4v-5c0-0.8-0.2-1.5-0.5-1.9c-0.3-0.3-0.6-0.4-1.1-0.4c-1.1,0-2.6,1.3-2.6,3.3v4h1.4
		v1.5h-5v-1.5h1.4v-5c0-0.8-0.2-1.5-0.5-1.9c-0.3-0.3-0.6-0.4-1.1-0.4c-1.2,0-2.6,1.3-2.6,3.3v4h1.4v1.5h-5.2v-1.5h1.7v-7.4h-1.7
		V496h3.8v2.6c1.2-2,2.5-2.8,3.8-2.8c1.5,0,2.5,0.8,2.6,2.7C158.2,496.6,159.5,495.9,160.8,495.9z M168.7,501.4
		c0.1,2.6,1.2,3.8,3.2,3.8c1.3,0,2.2-0.5,2.9-1.9h1.1c-0.6,2.2-2.2,3.4-4.5,3.4c-3.2,0-5-2.3-5-5.3c0-3.1,2.2-5.5,5.1-5.5
		c3.1,0,4.5,2.8,4.4,5.5H168.7z M168.7,500.3h5c-0.2-1.9-0.8-3.3-2.4-3.3C169.8,497,168.9,497.9,168.7,500.3z M177.4,504.9h1.7v-7.4
		h-1.7V496h3.8v2.6c1.2-2,2.4-2.8,3.9-2.8c1.7,0,2.8,1.2,2.8,3.3v5.8h1.7v1.5h-5.3v-1.5h1.5v-5c0-0.8-0.2-1.4-0.6-1.8
		c-0.3-0.3-0.7-0.5-1.2-0.5c-1.3,0-2.7,1.3-2.7,3.3v4h1.5v1.5h-5.3V504.9z M194.1,493.3v2.8h3.4v1.4h-3.4v6.2c0,1,0.3,1.5,1.2,1.5
		c0.6,0,1.1-0.6,1.6-1.8l1,0.4c-0.6,2-1.8,2.8-3.3,2.8c-1.8,0-2.8-1.1-2.8-2.8v-6.4h-2.1v-1.4h2.1v-2.6L194.1,493.3z M198.8,501.3
		c0-3.2,2.1-5.4,5.2-5.4c3.2,0,5.2,2.2,5.2,5.4c0,3.2-2.1,5.5-5.2,5.5C200.8,506.6,198.8,504.4,198.8,501.3z M206.9,501.2
		c0-2.9-1.1-4.2-2.9-4.2c-1.8,0-2.7,1.3-2.7,4.2c0,2.9,1.1,4.2,2.9,4.2C205.9,505.4,206.9,504.1,206.9,501.2z"/>
</g>
</svg>
