<svg xmlns="http://www.w3.org/2000/svg" xmlns:xlink="http://www.w3.org/1999/xlink" version="1.1" x="0px" y="0px" viewBox="1.9 263 959.9 298.5" enable-background="new 1.9 263 959.9 298.5" xml:space="preserve"><style>.style0{stroke:#e00c10;stroke-width:16;stroke-miterlimit:10;fill:	none;}.style1{font-size:200;font-family:'Roboto-Medium';fill:#FFFFFF;}.style2{fill:#e00c10;}</style><polyline points="605.5,544.6 10.4,544.3 10.4,271.5 953.4,271.5 953.4,544.3 891.9,544.3" class="style0"/><text transform="matrix(1 0 0 1 29.6704 477.9717)" display="none" enable-background="new" class="logo-text">OUTRAGE</text><g enable-background="new"><path d="M153.7 420.9c0 17.5-5.5 31.9-16.5 43.4s-25.1 17.2-42.6 17.2c-17.2 0-31-5.7-41.8-17.2 c-10.7-11.4-16.1-25.9-16.1-43.4v-25.7c0-17.4 5.3-31.8 16.1-43.4c10.6-11.5 24.6-17.3 41.7-17.3c17.5 0 31.6 5.7 42.7 17.3 c10.9 11.5 16.5 25.9 16.5 43.4V420.9z M130 395c0-11.8-3.2-21.7-9.5-29.3c-6.3-7.6-15-11.4-25.8-11.4c-10.4 0-18.8 3.8-24.8 11.4 c-6 7.6-9.1 17.5-9.1 29.3v25.9c0 12 3 21.9 9.1 29.5C76 458.2 84.2 462 94.8 462c10.9 0 19.5-3.8 25.8-11.4 c6.3-7.6 9.4-17.5 9.4-29.6V395z" class="style2"/><path d="M287.9 336.7v95.7c0 15.9-5.1 27.9-15.5 36.4c-10.3 8.4-23.8 12.7-40.5 12.7c-16.4 0-29.6-4.2-39.8-12.8 s-15.2-20.6-15.2-36.3v-95.7h23.8v95.7c0 10 2.8 17.5 8.4 22.5c5.6 5 13.2 7.5 22.7 7.5c9.8 0 17.6-2.5 23.4-7.5 c5.8-5 8.7-12.5 8.7-22.5v-95.6h23.8V336.7z" class="style2"/><path d="M413.9 355.9h-43.2v123.6H347V355.9h-43.2v-19.1h110.1V355.9z" class="style2"/><path d="M456.4 420.2v59.2h-23.8V336.7h52.7c16 0 28.3 3.6 36.9 10.7c8.7 7.2 13.1 17.5 13.1 30.8 c0 7.4-1.9 13.8-5.7 19.1c-3.8 5.3-9.4 9.6-16.8 12.8c8 2.5 13.9 6.7 17.4 12.5c3.5 5.8 5.3 12.9 5.3 21.3v11.8 c0 4.2 0.5 8.2 1.6 12.2c1 4 2.8 7 5.3 9.1v2.2h-24.5c-2.6-2.1-4.3-5.5-5-10.2c-0.7-4.6-1.1-9.1-1.1-13.7V444 c0-7.3-2.1-13.2-6.2-17.5c-4.2-4.3-9.9-6.4-17.3-6.4h-31.9V420.2z M456.4 401.2H484c9.5 0 16.5-1.8 20.9-5.5 c4.4-3.6 6.5-9.2 6.5-16.8c0-7.2-2.1-12.9-6.4-16.9c-4.3-4.1-10.8-6.1-19.7-6.1h-28.9V401.2z" class="style2"/><path d="M642.9 446.1H587l-11.3 33.3h-24.1L604 336.7h22.5l51.9 142.8h-24.2L642.9 446.1z M593.8 426.3h42.3 l-20.7-61h-0.6L593.8 426.3z" class="style2"/><path d="M801.4 460.2c-3.8 5.4-10 10.3-18.7 14.8c-8.6 4.4-19.8 6.6-33.4 6.6c-17.2 0-31.3-5.4-42.5-16.4 c-11.1-10.8-16.7-25-16.7-42.2v-29.8c0-17.3 5.2-31.3 15.8-42.2s24-16.4 40.7-16.4c16.8 0 29.8 4.1 39.2 12.4 c9.3 8.2 14.1 19.1 14.3 32.3l-0.2 0.6h-22.6c-0.5-7.8-3.3-14.2-8.3-19c-5-4.8-12.4-7.2-22-7.2c-9.8 0-17.9 3.7-23.9 11 c-6 7.4-9 16.8-9 28.1v30c0 11.4 3.3 21 9.8 28.3c6.5 7.3 15.1 11.1 25.5 11.1c7.4 0 13.5-0.9 18.2-2.6c4.6-1.7 8-3.8 10.1-6.1 v-28.9h-28.3V407h52.2v53.2H801.4z" class="style2"/><path d="M916.8 415.2h-62.4v45.1h72.5v19.1h-96.3V336.7h95.6v19.1h-71.8V396h62.4V415.2z" class="style2"/></g><g><path d="M623.2 561v-38.6h12.8c4.3 0 7.6 0.9 9.9 2.6c2.3 1.7 3.6 4.4 3.6 7.8c0 1.7-0.5 3.3-1.5 4.7 c-1 1.3-2.3 2.3-4.2 3.1c2.3 0.5 4 1.6 5.3 3.3c1.3 1.7 1.8 3.7 1.8 5.9c0 3.6-1.2 6.4-3.6 8.2c-2.3 1.8-5.6 2.8-9.7 2.8H623.2z M629.7 538.7h7.1c2 0 3.6-0.5 4.7-1.3c1.1-1 1.7-2.3 1.7-4c0-1.8-0.6-3.3-1.8-4.2c-1.2-0.9-2.9-1.3-5.3-1.3h-6.4V538.7 L629.7 538.7z M629.7 543.4v12.3h8.1c2.2 0 3.9-0.5 5.1-1.5s1.8-2.5 1.8-4.4c0-2.1-0.5-3.6-1.5-4.8c-1-1.1-2.6-1.7-4.7-1.7h-8.9 v0.1H629.7z" class="style2"/><path d="M665.1 545v16h-6.4v-38.6H673c4.3 0 7.6 1 9.9 2.9c2.3 2 3.6 4.7 3.6 8.2c0 2-0.5 3.7-1.6 5.1 c-1 1.5-2.6 2.6-4.5 3.4c2.2 0.7 3.7 1.8 4.7 3.3s1.5 3.4 1.5 5.8v3.2c0 1.1 0.1 2.2 0.4 3.3s0.7 1.8 1.5 2.5v0.6h-6.8 c-0.7-0.6-1.1-1.5-1.3-2.7c-0.2-1.2-0.2-2.5-0.2-3.7v-3.1c0-2-0.6-3.6-1.7-4.7c-1.1-1.1-2.7-1.7-4.7-1.7h-8.6V545z M665.1 539.8 h7.5c2.6 0 4.4-0.5 5.6-1.5s1.7-2.5 1.7-4.5c0-2-0.6-3.4-1.7-4.5c-1.1-1.1-2.9-1.6-5.3-1.6h-7.7v12.1H665.1z" class="style2"/><path d="M718.6 543.6h-16.9v12.2h19.6v5.1h-26v-38.6H721v5.1h-19.3v10.8h16.9V543.6z" class="style2"/><path d="M736.8 550.6L736.8 550.6L736.8 550.6l7.7-28.2h5.1l7.7 28.2v0.2v-0.2l6-28.2h6.3l-9.1 38.6H755l-7.7-27.7 h-0.1l-7.7 27.7h-5.8l-9.1-38.6h6.3L736.8 550.6z" class="style2"/><path d="M782.8 546.3V561h-6.4v-38.6h15.1c4.3 0 7.6 1.1 9.9 3.3c2.3 2.2 3.6 5 3.6 8.6s-1.2 6.5-3.6 8.7 c-2.5 2.2-5.8 3.3-9.9 3.3h-8.6V546.3z M782.8 541.2h8.6c2.3 0 4.2-0.6 5.4-1.8c1.2-1.2 1.8-2.8 1.8-4.8s-0.6-3.6-1.8-4.9 c-1.2-1.3-2.9-2-5.4-2h-8.6V541.2z" class="style2"/><path d="M841.3 522.5v25.8c0 4.3-1.3 7.5-4.2 9.8c-2.8 2.3-6.4 3.4-10.9 3.4c-4.4 0-8-1.1-10.7-3.4 c-2.7-2.3-4-5.5-4-9.8v-25.8h6.4v25.8c0 2.7 0.7 4.7 2.2 6c1.5 1.3 3.6 2.1 6.1 2.1c2.5 0 4.8-0.7 6.3-2.1c1.6-1.3 2.3-3.3 2.3-6 v-25.8H841.3z" class="style2"/><path d="M849.9 561v-38.6h12.8c4.3 0 7.6 0.9 9.9 2.6c2.3 1.7 3.6 4.4 3.6 7.8c0 1.7-0.5 3.3-1.5 4.7 c-1 1.3-2.3 2.3-4.2 3.1c2.3 0.5 4 1.6 5.3 3.3c1.2 1.7 1.8 3.7 1.8 5.9c0 3.6-1.2 6.4-3.6 8.2c-2.3 1.8-5.6 2.8-9.7 2.8H849.9z M856.3 538.7h7.1c2 0 3.6-0.5 4.7-1.3c1.1-1 1.7-2.3 1.7-4c0-1.8-0.6-3.3-1.8-4.2c-1.2-0.9-2.9-1.3-5.3-1.3h-6.4V538.7z M856.3 543.4v12.3h8.1c2.2 0 3.9-0.5 5.1-1.5c1.2-1 1.8-2.5 1.8-4.4c0-2.1-0.5-3.6-1.5-4.8c-1-1.1-2.6-1.7-4.7-1.7h-8.9v0.1H856.3 z" class="style2"/></g></svg>