<svg xmlns="http://www.w3.org/2000/svg" width="100" height="100" viewBox="0 0 100 100"><g fill="#231F20"><path d="M45.19 70.39c-.696.985-1.355 1.47-1.985 1.47-.42 0-.66-.246-.735-.734-.03-.1-.03-.484-.03-1.22v-12.76h-3.138V70.85c0 1.225.104 2.05.277 2.576.312.878 1.01 1.29 2.022 1.29 1.154 0 2.34-.698 3.587-2.13v1.89h3.142v-17.33H45.19v13.245zM27.897 54.492h3.694v19.985h3.493V54.492h3.762v-3.274H27.897zM49.28 39.34c1.024 0 1.514-.81 1.514-2.43v-7.37c0-1.618-.49-2.425-1.513-2.425s-1.514.807-1.514 2.426v7.37c0 1.62.49 2.43 1.515 2.43zM57.434 56.935c-1.154 0-2.23.632-3.243 1.88v-7.597h-3.14v23.26h3.14v-1.683c1.05 1.3 2.128 1.92 3.244 1.92 1.25 0 2.09-.658 2.51-1.947.21-.735.317-1.89.317-3.492v-6.9c0-1.64-.106-2.787-.315-3.484-.42-1.3-1.26-1.957-2.51-1.957zm-.313 12.587c0 1.565-.46 2.337-1.365 2.337-.516 0-1.04-.247-1.565-.772V60.524c.525-.517 1.048-.763 1.565-.763.906 0 1.366.803 1.366 2.366v7.396zM67.435 56.935c-1.602 0-2.854.59-3.76 1.778-.668.875-.97 2.23-.97 4.08v6.072c0 1.84.34 3.21 1.008 4.074.907 1.182 2.157 1.774 3.8 1.774 1.64 0 2.928-.62 3.798-1.877.38-.56.63-1.188.734-1.883.028-.315.067-1.013.067-2.023v-.46h-3.204c0 1.26-.04 1.958-.068 2.13-.18.838-.63 1.258-1.403 1.258-1.078 0-1.602-.8-1.602-2.404v-3.072h6.28v-3.59c0-1.852-.316-3.205-.973-4.08-.88-1.187-2.13-1.777-3.705-1.777zm1.537 6.834h-3.14v-1.604c0-1.602.525-2.404 1.575-2.404 1.04 0 1.565.802 1.565 2.404v1.603zM79 14H21c-3.85 0-7 3.15-7 7v58c0 3.85 3.15 7 7 7h58c3.85 0 7-3.15 7-7V21c0-3.85-3.15-7-7-7zM56.58 24.47h3.163v12.892c0 .746 0 1.133.04 1.235.07.492.317.743.743.743.634 0 1.3-.492 2.004-1.486V24.47h3.174v17.51H62.53v-1.91c-1.263 1.45-2.468 2.153-3.625 2.153-1.022 0-1.727-.415-2.044-1.303-.174-.53-.28-1.368-.28-2.604V24.47zm-11.987 5.708c0-1.87.32-3.24.994-4.125.878-1.196 2.114-1.795 3.694-1.795 1.59 0 2.825.6 3.704 1.795.664.885.985 2.254.985 4.125v6.135c0 1.86-.32 3.24-.986 4.12-.88 1.192-2.112 1.79-3.703 1.79-1.58 0-2.816-.598-3.693-1.79-.675-.88-.994-2.26-.994-4.12v-6.135zm-8.486-11.696l2.5 9.227 2.398-9.228h3.558L40.33 32.464v9.516h-3.52v-9.516c-.317-1.688-1.02-4.158-2.15-7.435-.74-2.18-1.514-4.37-2.255-6.548h3.702zm38.966 57.036c-.634 2.763-2.896 4.8-5.616 5.104-6.444.72-12.965.724-19.457.72-6.493.004-13.014 0-19.457-.72-2.72-.304-4.98-2.342-5.614-5.104-.906-3.936-.906-8.232-.906-12.282 0-4.054.01-8.347.916-12.284.634-2.762 2.893-4.8 5.614-5.103 6.443-.723 12.964-.725 19.457-.723 6.493-.002 13.014 0 19.458.722 2.72.303 4.98 2.34 5.615 5.102.905 3.938.9 8.23.9 12.284 0 4.05-.004 8.346-.91 12.282z"/></g></svg>