<?xml version="1.0" encoding="utf-8"?>
<!-- Generator: Adobe Illustrator 17.1.0, SVG Export Plug-In . SVG Version: 6.00 Build 0)  -->
<!DOCTYPE svg PUBLIC "-//W3C//DTD SVG 1.1//EN" "http://www.w3.org/Graphics/SVG/1.1/DTD/svg11.dtd">
<svg version="1.1" xmlns="http://www.w3.org/2000/svg" xmlns:xlink="http://www.w3.org/1999/xlink" x="0px" y="0px"
	 viewBox="0 0 72 72" enable-background="new 0 0 72 72" xml:space="preserve">
<g id="instagram">
</g>
<g id="tripadvisor_1_">
</g>
<g id="googleplus_1_">
</g>
<g id="twitter">
	<path fill="#010101" d="M72,13.7c-2.6,1.2-5.5,2-8.5,2.3c3-1.8,5.4-4.7,6.5-8.2c-2.9,1.7-6,2.9-9.4,3.6c-2.7-2.9-6.5-4.7-10.8-4.7
		c-8.2,0-14.8,6.6-14.8,14.8c0,1.2,0.1,2.3,0.4,3.4C23.2,24.3,12.3,18.4,5,9.4c-1.3,2.2-2,4.7-2,7.4c0,5.1,2.6,9.6,6.6,12.3
		c-2.4-0.1-4.7-0.7-6.7-1.8c0,0.1,0,0.1,0,0.2C2.9,34.7,8,40.6,14.7,42c-1.2,0.3-2.5,0.5-3.9,0.5c-1,0-1.9-0.1-2.8-0.3
		c1.9,5.9,7.3,10.1,13.8,10.3c-5.1,4-11.4,6.3-18.3,6.3c-1.2,0-2.4-0.1-3.5-0.2c6.5,4.2,14.3,6.6,22.6,6.6c27.2,0,42-22.5,42-42
		c0-0.6,0-1.3,0-1.9C67.5,19.2,70,16.6,72,13.7z"/>
</g>
<g id="twitter_riquadro">
</g>
<g id="facebook_1_">
</g>
<g id="pagobancomat_1_">
</g>
<g id="visa">
</g>
<g id="mastercard">
</g>
</svg>
