<?xml version="1.0" encoding="utf-8"?>
<!-- Generator: Adobe Illustrator 17.1.0, SVG Export Plug-In . SVG Version: 6.00 Build 0)  -->
<!DOCTYPE svg PUBLIC "-//W3C//DTD SVG 1.1//EN" "http://www.w3.org/Graphics/SVG/1.1/DTD/svg11.dtd">
<svg version="1.1" id="Layer_1" xmlns="http://www.w3.org/2000/svg" xmlns:xlink="http://www.w3.org/1999/xlink" x="0px" y="0px"
	 viewBox="1.9 263 959.9 290.1" enable-background="new 1.9 263 959.9 290.1" xml:space="preserve">
<polyline fill="none" stroke="#E00C10" stroke-width="17" stroke-miterlimit="10" points="605.5,544.6 10.4,544.3 10.4,271.5 
	953.4,271.5 953.4,544.3 891.9,544.3 "/>
<g enable-background="new    ">
	<path fill="#E00C10" d="M41.2,456.6v-118h39.2c13.1,0,23.3,2.7,30.6,8.1c7.3,5.4,11,13.4,11,24.1c0,5.3-1.5,10.1-4.6,14.3
		s-7.3,7.3-12.8,9.4c7,1.6,12.4,4.9,16.2,10.1c3.8,5.2,5.7,11.2,5.7,18.1c0,11.1-3.6,19.5-10.9,25.2c-7.2,5.8-17.2,8.6-30,8.6H41.2z
		 M60.9,388.3h21.7c6.1,0,10.9-1.4,14.5-4.3c3.5-2.9,5.3-7,5.3-12.3c0-5.8-1.9-10.2-5.6-13c-3.7-2.8-9.2-4.3-16.4-4.3H60.9V388.3z
		 M60.9,402.9v37.9h24.8c6.8,0,12-1.5,15.7-4.7c3.7-3.1,5.5-7.6,5.5-13.5c0-6.3-1.5-11.1-4.6-14.6c-3.1-3.4-7.9-5.2-14.4-5.2H60.9z"
		/>
	<path fill="#E00C10" d="M215.2,403.5h-51.6v37.3h59.9v15.8h-79.6v-118h79v15.8h-59.3v33.3h51.6V403.5z"/>
	<path fill="#E00C10" d="M307.8,403.5h-51.6v37.3H316v15.8h-79.6v-118h79v15.8h-59.3v33.3h51.6V403.5z"/>
	<path fill="#E00C10" d="M348.7,407.6v49H329v-118h43.6c13.2,0,23.4,3,30.6,8.9c7.2,5.9,10.8,14.4,10.8,25.5
		c0,6.1-1.6,11.4-4.7,15.8s-7.8,7.9-13.8,10.6c6.6,2.1,11.4,5.6,14.3,10.3c2.9,4.8,4.4,10.7,4.4,17.6v9.8c0,3.5,0.4,6.8,1.3,10.1
		c0.9,3.3,2.3,5.8,4.4,7.5v1.9h-20.3c-2.2-1.8-3.6-4.6-4.2-8.4c-0.6-3.8-0.9-7.6-0.9-11.3v-9.5c0-6.1-1.7-10.9-5.2-14.4
		c-3.5-3.6-8.2-5.3-14.3-5.3H348.7z M348.7,391.8h22.9c7.9,0,13.6-1.5,17.3-4.5c3.6-3,5.4-7.6,5.4-13.9c0-5.9-1.8-10.6-5.3-14
		c-3.6-3.4-9-5.1-16.3-5.1h-23.9V391.8z"/>
	<path fill="#E00C10" d="M499.2,426.2c0-4.9-1.8-8.9-5.5-12c-3.6-3.1-10.1-5.9-19.3-8.4c-13.2-3.5-23.3-8-30.4-13.7
		c-7.1-5.7-10.7-13.2-10.7-22.4c0-9.5,3.9-17.3,11.8-23.5s18-9.2,30.4-9.2c13,0,23.4,3.5,31.2,10.5c7.9,7,11.7,15.4,11.4,25.2
		L518,373h-18.9c0-6.1-2.1-11-6.2-14.7c-4.1-3.8-10-5.6-17.6-5.6c-7.2,0-12.7,1.6-16.6,4.7c-3.9,3.1-5.8,7.2-5.8,12.1
		c0,4.5,2.1,8.2,6.3,11.2c4.2,3,11.1,5.8,20.8,8.4c12.7,3.4,22.3,8.1,28.9,14.1c6.6,6,9.9,13.6,9.9,22.9c0,9.8-3.9,17.7-11.8,23.5
		c-7.9,5.8-18.2,8.7-31,8.7c-12.3,0-23.1-3.3-32.4-9.8c-9.3-6.6-13.8-15.5-13.5-26.9l0.2-0.5h19c0,7.2,2.5,12.6,7.5,16.1
		c5,3.5,11.4,5.3,19.4,5.3c7.3,0,13-1.5,17-4.4C497.2,435.2,499.2,431.2,499.2,426.2z"/>
	<path fill="#E00C10" d="M616.6,354.4H581v102.2h-19.7V354.4h-35.7v-15.8h91V354.4z"/>
	<path fill="#E00C10" d="M648.1,407.6v49h-19.7v-118H672c13.2,0,23.4,3,30.6,8.9c7.2,5.9,10.8,14.4,10.8,25.5
		c0,6.1-1.6,11.4-4.7,15.8c-3.2,4.4-7.8,7.9-13.8,10.6c6.6,2.1,11.4,5.6,14.3,10.3c2.9,4.8,4.4,10.7,4.4,17.6v9.8
		c0,3.5,0.4,6.8,1.3,10.1c0.9,3.3,2.3,5.8,4.4,7.5v1.9h-20.3c-2.2-1.8-3.6-4.6-4.2-8.4c-0.6-3.8-0.9-7.6-0.9-11.3v-9.5
		c0-6.1-1.7-10.9-5.2-14.4c-3.5-3.6-8.2-5.3-14.3-5.3H648.1z M648.1,391.8H671c7.9,0,13.6-1.5,17.3-4.5c3.6-3,5.4-7.6,5.4-13.9
		c0-5.9-1.8-10.6-5.3-14c-3.6-3.4-9-5.1-16.3-5.1h-23.9V391.8z"/>
	<path fill="#E00C10" d="M826.7,408.2c0,14.4-4.5,26.4-13.6,35.9c-9.1,9.5-20.8,14.2-35.2,14.2c-14.2,0-25.7-4.7-34.5-14.2
		c-8.8-9.5-13.3-21.4-13.3-35.9V387c0-14.4,4.4-26.3,13.3-35.8c8.8-9.5,20.3-14.3,34.4-14.3c14.4,0,26.2,4.8,35.3,14.3
		c9.1,9.5,13.6,21.5,13.6,35.8V408.2z M807,386.8c0-9.8-2.6-17.9-7.9-24.2c-5.3-6.3-12.4-9.5-21.4-9.5c-8.6,0-15.5,3.2-20.5,9.5
		s-7.5,14.4-7.5,24.2v21.4c0,9.9,2.5,18.1,7.5,24.4s11.9,9.5,20.6,9.5c9,0,16.1-3.2,21.4-9.5s7.8-14.5,7.8-24.5V386.8z"/>
	<path fill="#E00C10" d="M922.6,354.4H887v102.2h-19.7V354.4h-35.7v-15.8h91V354.4z"/>
</g>
</svg>
