<?xml version="1.0" encoding="utf-8"?>
<!-- Generator: Adobe Illustrator 17.1.0, SVG Export Plug-In . SVG Version: 6.00 Build 0)  -->
<!DOCTYPE svg PUBLIC "-//W3C//DTD SVG 1.1//EN" "http://www.w3.org/Graphics/SVG/1.1/DTD/svg11.dtd">
<svg version="1.1" xmlns="http://www.w3.org/2000/svg" xmlns:xlink="http://www.w3.org/1999/xlink" x="0px" y="0px"
	 viewBox="0 0 170 106.2" enable-background="new 0 0 170 106.2" xml:space="preserve">
<g id="instagram">
</g>
<g id="tripadvisor_1_">
</g>
<g id="googleplus_1_">
</g>
<g id="twitter">
</g>
<g id="twitter_riquadro">
</g>
<g id="facebook_1_">
</g>
<g id="pagobancomat_1_">
</g>
<g id="visa">
</g>
<g id="mastercard">
	<g>
		<path fill="#14477C" d="M169.9,100.5c0,3.1-2.6,5.7-5.7,5.7H5.7c-3.1,0-5.7-2.6-5.7-5.7V5.7C0,2.6,2.6,0,5.7,0h158.6
			c3.1,0,5.7,2.6,5.7,5.7v94.8H169.9z"/>
		<g>
			<polygon fill="#FBB230" points="105.4,83.6 106.9,83.6 108.5,83.4 110,83.2 111.5,82.9 113,82.6 114.5,82.2 115.8,81.7 
				117.2,81.2 118.5,80.6 119.9,79.9 121.2,79.1 122.5,78.4 123.7,77.5 124.8,76.7 125.9,75.6 126.9,74.6 128,73.6 129,72.5 
				129.8,71.3 130.7,70.2 131.4,68.8 132.2,67.6 132.9,66.2 133.4,64.9 134,63.5 134.5,62.2 134.9,60.7 135.3,59.2 135.6,57.7 
				135.7,56.2 135.9,54.6 135.9,53.1 135.9,51.5 135.7,50 135.6,48.4 135.3,46.9 134.9,45.5 134.5,44 134,42.5 133.4,41.2 
				132.9,39.8 132.2,38.6 131.4,37.2 130.7,36 129.8,34.8 129,33.7 128,32.6 126.9,31.6 125.9,30.5 124.8,29.5 123.7,28.7 
				122.5,27.8 121.2,27.1 119.9,26.3 118.5,25.6 117.2,25.1 115.8,24.5 114.5,24 113,23.6 111.5,23.3 110,23 108.5,22.8 106.9,22.6 
				105.4,22.6 103.8,22.6 102.3,22.8 100.7,23 99.2,23.3 97.7,23.6 96.3,24 94.8,24.5 93.5,25.1 92.1,25.6 90.9,26.3 89.6,27.1 
				88.3,27.8 87.1,28.7 86,29.5 84.9,30.5 83.9,31.6 82.8,32.6 81.8,33.7 81,34.8 80.1,36 79.4,37.2 78.6,38.6 77.9,39.8 77.4,41.2 
				76.8,42.5 76.3,44 75.9,45.5 75.6,46.9 75.3,48.4 75.1,50 74.9,51.5 74.9,53.1 74.9,54.6 75.1,56.2 75.3,57.7 75.6,59.2 
				75.9,60.7 76.3,62.2 76.8,63.5 77.4,64.9 77.9,66.2 78.6,67.6 79.4,68.8 80.1,70.2 81,71.3 81.8,72.5 82.8,73.6 83.9,74.6 
				84.9,75.6 86,76.7 87.1,77.5 88.3,78.4 89.6,79.1 90.9,79.9 92.1,80.6 93.5,81.2 94.8,81.7 96.3,82.2 97.7,82.6 99.2,82.9 
				100.7,83.2 102.3,83.4 103.8,83.6 			"/>
			<polygon fill="#EB2230" points="64.6,83.6 66.1,83.6 67.7,83.4 69.2,83.2 70.7,82.9 72.2,82.6 73.6,82.2 75.1,81.7 76.4,81.2 
				77.8,80.6 79.1,79.9 80.3,79.1 81.5,78.4 82.8,77.5 84,76.7 85.1,75.6 86,74.6 87.1,73.6 88.1,72.5 89,71.3 89.8,70.2 90.6,68.8 
				91.3,67.6 92,66.2 92.7,64.9 93.2,63.5 93.6,62.2 94,60.7 94.4,59.2 94.7,57.7 94.8,56.2 95,54.6 95,53.1 95,51.5 94.8,50 
				94.7,48.4 94.4,46.9 94,45.5 93.6,44 93.2,42.5 92.7,41.2 92,39.8 91.3,38.6 90.6,37.2 89.8,36 89,34.8 88.1,33.7 87.1,32.6 
				86,31.6 85.1,30.5 84,29.5 82.8,28.7 81.5,27.8 80.3,27.1 79.1,26.3 77.8,25.6 76.4,25.1 75.1,24.5 73.6,24 72.2,23.6 70.7,23.3 
				69.2,23 67.7,22.8 66.1,22.6 64.6,22.6 63,22.6 61.5,22.8 59.9,23 58.4,23.3 56.9,23.6 55.5,24 54,24.5 52.7,25.1 51.4,25.6 
				50,26.3 48.8,27.1 47.6,27.8 46.3,28.7 45.1,29.5 44,30.5 43,31.6 42,32.6 41.1,33.7 40.1,34.8 39.3,36 38.5,37.2 37.7,38.6 
				37,39.8 36.5,41.2 35.9,42.5 35.4,44 35,45.5 34.7,46.9 34.4,48.4 34.1,50 34,51.5 34,53.1 34,54.6 34.1,56.2 34.4,57.7 
				34.7,59.2 35,60.7 35.4,62.2 35.9,63.5 36.5,64.9 37,66.2 37.7,67.6 38.5,68.8 39.3,70.2 40.1,71.3 41.1,72.5 42,73.6 43,74.6 
				44,75.6 45.1,76.7 46.3,77.5 47.6,78.4 48.8,79.1 50,79.9 51.4,80.6 52.7,81.2 54,81.7 55.5,82.2 56.9,82.6 58.4,82.9 59.9,83.2 
				61.5,83.4 63,83.6 			"/>
			<polygon fill="#FBB230" points="81.4,34.3 97.5,34.3 97.5,32.6 82.8,32.6 			"/>
			<polygon fill="#FBB230" points="79,37.9 97.5,37.9 97.5,36.3 79.9,36.3 			"/>
			<polygon fill="#FBB230" points="77.2,41.7 97.5,41.7 97.5,40 77.9,40 			"/>
			<polygon fill="#FBB230" points="75.9,45.4 97.5,45.4 97.5,43.6 76.4,43.6 			"/>
			<polygon fill="#FBB230" points="76.7,63.1 97.7,63.1 97.7,61.5 76.1,61.5 			"/>
			<polygon fill="#FBB230" points="78.2,66.8 97.7,66.8 97.7,65.2 77.4,65.2 			"/>
			<polygon fill="#FBB230" points="80.3,70.4 97.7,70.4 97.7,68.8 79.4,68.8 			"/>
			<polygon fill="#FBB230" points="83.3,74.1 97.7,74.1 97.7,72.5 82,72.5 			"/>
			<polygon fill="#FBB230" points="75.2,49 97.5,49 97.5,47.4 75.5,47.4 			"/>
			<polygon fill="#FBB230" points="88.9,59.5 97.4,59.5 97.4,57.8 89.1,57.8 			"/>
			<polygon fill="#FBB230" points="89.6,55.8 97.4,55.8 97.4,54.2 89.8,54.2 			"/>
			<polygon fill="#FBB230" points="74.6,54.2 76.8,54.2 76.8,55.8 74.8,55.8 			"/>
			<polygon fill="#FFFFFF" points="70.5,52.2 70.3,52.2 70.2,52 70,52 69.9,52 69.8,52 69.6,52 69.5,52 69.4,52 69.2,51.9 
				69.1,51.9 68.8,51.9 68.7,51.9 68.4,51.9 68.3,51.9 68,51.9 67.7,52 67.5,52 67.3,52 67.1,52 66.9,52.2 66.8,52.2 66.7,52.3 
				66.5,52.4 66.5,52.6 66.4,52.6 66.4,52.7 66.4,52.8 66.4,53 66.4,53.1 66.4,53.2 66.5,53.4 66.7,53.5 66.8,53.7 67.1,53.9 
				67.3,54 67.6,54 68,54.2 68.3,54.3 68.7,54.4 69,54.6 69.2,54.7 69.6,55 69.8,55.3 70,55.5 70.2,55.9 70.3,56.3 70.3,56.9 
				70.3,57.6 70.3,58.1 70.2,58.5 69.9,58.9 69.8,59.2 69.5,59.5 69.2,59.7 69,60 68.7,60.1 68.3,60.4 68,60.6 67.6,60.6 67.3,60.7 
				66.9,60.7 66.5,60.8 66.2,60.8 66,60.8 65.4,60.8 65,60.8 64.8,60.8 64.3,60.8 64.1,60.8 63.8,60.7 63.5,60.7 63.3,60.7 
				63.1,60.7 62.9,60.7 62.7,60.6 62.5,60.6 62.3,60.6 62.2,60.4 62.1,60.4 61.8,60.3 62.3,58.1 62.5,58.1 62.5,58.1 62.6,58.1 
				62.9,58.2 63,58.2 63.3,58.2 63.4,58.4 63.7,58.4 63.9,58.4 64.2,58.4 64.5,58.5 64.8,58.5 65,58.5 65.4,58.5 65.7,58.5 66,58.5 
				66.2,58.5 66.5,58.4 66.7,58.2 66.8,58.1 66.9,58 67.1,57.8 67.1,57.7 67.1,57.4 67.2,57.2 67.1,56.9 66.9,56.8 66.7,56.6 
				66.2,56.3 66,56.2 65.6,56.1 65.2,55.9 64.8,55.8 64.3,55.5 63.9,55.3 63.7,55 63.4,54.6 63.3,54 63.1,53.5 63.1,52.8 63.1,52.4 
				63.3,52.2 63.4,51.8 63.4,51.5 63.7,51.1 63.8,50.8 64.1,50.5 64.3,50.4 64.6,50.1 64.9,50 65.3,49.9 65.7,49.7 66.1,49.7 
				66.7,49.6 67.2,49.6 67.9,49.6 68.1,49.6 68.6,49.6 68.8,49.6 69.2,49.6 69.4,49.6 69.6,49.6 69.9,49.6 70,49.6 70.2,49.7 
				70.3,49.7 70.5,49.7 70.6,49.7 70.7,49.7 70.9,49.7 70.9,49.9 71,49.9 			"/>
			<polyline fill="none" stroke="#FFFFFF" stroke-width="0.216" stroke-miterlimit="2.6131" points="70.5,52.2 70.5,52.2 70.3,52.2 
				70.2,52 70,52 69.9,52 69.8,52 69.6,52 69.5,52 69.4,52 69.2,51.9 69.1,51.9 68.8,51.9 68.7,51.9 68.4,51.9 68.3,51.9 68,51.9 
				67.7,52 67.7,52 67.5,52 67.3,52 67.1,52 66.9,52.2 66.8,52.2 66.7,52.3 66.5,52.4 66.5,52.6 66.4,52.6 66.4,52.7 66.4,52.8 
				66.4,53 66.4,53.1 66.4,53.2 66.5,53.4 66.7,53.5 66.7,53.5 66.8,53.7 67.1,53.9 67.3,54 67.6,54 68,54.2 68.3,54.3 68.7,54.4 
				69,54.6 69.2,54.7 69.6,55 69.8,55.3 70,55.5 70.2,55.9 70.3,56.3 70.3,56.9 70.3,57.6 70.3,57.6 70.3,58.1 70.2,58.5 69.9,58.9 
				69.8,59.2 69.5,59.5 69.2,59.7 69,60 68.7,60.1 68.3,60.4 68,60.6 67.6,60.6 67.3,60.7 66.9,60.7 66.5,60.8 66.2,60.8 66,60.8 
				66,60.8 65.4,60.8 65,60.8 64.8,60.8 64.3,60.8 64.1,60.8 63.8,60.7 63.5,60.7 63.3,60.7 63.1,60.7 62.9,60.7 62.7,60.6 
				62.5,60.6 62.3,60.6 62.2,60.4 62.1,60.4 61.8,60.3 62.3,58.1 62.3,58.1 62.5,58.1 62.5,58.1 62.6,58.1 62.9,58.2 63,58.2 
				63.3,58.2 63.4,58.4 63.7,58.4 63.9,58.4 64.2,58.4 64.5,58.5 64.8,58.5 65,58.5 65.4,58.5 65.7,58.5 66,58.5 66,58.5 66.2,58.5 
				66.5,58.4 66.7,58.2 66.8,58.1 66.9,58 67.1,57.8 67.1,57.7 67.1,57.4 67.1,57.4 67.2,57.2 67.1,56.9 66.9,56.8 66.7,56.6 
				66.2,56.3 66,56.2 65.6,56.1 65.2,55.9 64.8,55.8 64.3,55.5 63.9,55.3 63.7,55 63.4,54.6 63.3,54 63.1,53.5 63.1,52.8 63.1,52.8 
				63.1,52.4 63.3,52.2 63.4,51.8 63.4,51.5 63.7,51.1 63.8,50.8 64.1,50.5 64.3,50.4 64.6,50.1 64.9,50 65.3,49.9 65.7,49.7 
				66.1,49.7 66.7,49.6 67.2,49.6 67.9,49.6 67.9,49.6 68.1,49.6 68.6,49.6 68.8,49.6 69.2,49.6 69.4,49.6 69.6,49.6 69.9,49.6 
				70,49.6 70.2,49.7 70.3,49.7 70.5,49.7 70.6,49.7 70.7,49.7 70.9,49.7 70.9,49.9 71,49.9 70.5,52.2 			"/>
			<polygon fill="#FFFFFF" points="72.9,47.3 75.7,47.3 75.3,49.7 77.1,49.7 76.7,52 74.9,52 73.8,57.7 73.8,58 74,58.1 74,58.2 
				74.1,58.4 74.4,58.4 74.5,58.5 74.8,58.5 75.1,58.5 75.2,58.5 75.5,58.5 75.6,58.5 75.9,58.5 76,58.4 76,58.4 76.1,58.4 
				76.1,58.4 75.7,60.3 75.7,60.3 75.6,60.4 75.6,60.4 75.5,60.4 75.5,60.6 75.3,60.6 75.2,60.6 75.2,60.6 75.1,60.6 74.9,60.7 
				74.8,60.7 74.6,60.7 74.5,60.7 74.4,60.7 74.2,60.7 74.1,60.7 73.3,60.7 72.9,60.7 72.5,60.7 72.2,60.7 71.9,60.6 71.7,60.4 
				71.4,60.4 71.3,60.3 71.1,60.1 71,60 71,59.7 71,59.6 70.9,59.5 70.9,59.2 70.9,58.9 70.9,58.8 71,58.5 			"/>
			<polyline fill="none" stroke="#FFFFFF" stroke-width="0.216" stroke-miterlimit="2.6131" points="72.9,47.3 75.7,47.3 75.3,49.7 
				77.1,49.7 76.7,52 74.9,52 73.8,57.7 73.8,57.7 73.8,58 74,58.1 74,58.2 74.1,58.4 74.4,58.4 74.5,58.5 74.8,58.5 75.1,58.5 
				75.1,58.5 75.2,58.5 75.5,58.5 75.6,58.5 75.9,58.5 76,58.4 76,58.4 76.1,58.4 76.1,58.4 75.7,60.3 75.7,60.3 75.7,60.3 
				75.6,60.4 75.6,60.4 75.5,60.4 75.5,60.6 75.3,60.6 75.2,60.6 75.2,60.6 75.1,60.6 74.9,60.7 74.8,60.7 74.6,60.7 74.5,60.7 
				74.4,60.7 74.2,60.7 74.1,60.7 73.3,60.7 73.3,60.7 72.9,60.7 72.5,60.7 72.2,60.7 71.9,60.6 71.7,60.4 71.4,60.4 71.3,60.3 
				71.1,60.1 71,60 71,59.7 71,59.6 70.9,59.5 70.9,59.2 70.9,58.9 70.9,58.8 71,58.5 72.9,47.3 			"/>
			<polyline fill="none" stroke="#FFFFFF" stroke-width="0.216" stroke-miterlimit="2.6131" points="79.4,55.9 79.4,55.9 79.3,56.1 
				79.3,56.3 79.3,56.5 79.4,56.8 79.4,56.9 79.5,57 79.7,57.3 79.8,57.4 79.9,57.6 80.1,57.7 80.2,58 80.3,58.1 80.6,58.1 
				80.8,58.2 81,58.4 81.2,58.4 81.2,58.4 81.4,58.4 81.7,58.4 82,58.5 82.2,58.5 82.5,58.5 82.8,58.5 83,58.5 83.3,58.5 83.6,58.4 
				83.9,58.4 84.1,58.2 84.4,58.2 84.8,58.1 85.1,58 85.3,57.8 85.6,57.7 85.2,60.1 85.2,60.1 85.1,60.3 84.9,60.3 84.7,60.4 
				84.5,60.4 84.4,60.6 84.3,60.6 84.1,60.6 83.9,60.7 83.7,60.7 83.6,60.7 83.3,60.7 83,60.7 82.8,60.7 82.5,60.7 82.2,60.7 
				81.8,60.7 81.8,60.7 81.4,60.7 80.9,60.7 80.3,60.7 79.8,60.6 79.3,60.3 78.9,60.1 78.3,59.9 77.9,59.6 77.5,59.2 77.2,58.8 
				77,58.4 76.7,57.8 76.4,57.2 76.4,56.5 76.3,55.8 76.4,54.9 76.4,54.9 76.4,54.6 76.5,54.2 76.5,53.8 76.7,53.4 76.8,53 77,52.4 
				77.2,52 77.5,51.6 77.9,51.2 78.3,50.8 78.7,50.4 79.3,50.1 79.8,49.9 80.5,49.7 81.3,49.6 82.1,49.6 82.1,49.6 82.5,49.6 
				82.9,49.6 83.3,49.7 83.7,49.7 84.1,49.9 84.5,50.1 84.9,50.4 85.2,50.7 85.6,50.9 85.9,51.3 86,51.9 86.2,52.4 86.3,53 
				86.3,53.8 86.2,54.4 86,55.4 86,55.9 78.4,55.9 79,53.9 83.4,53.9 83.4,53.9 83.4,53.7 83.4,53.5 83.4,53.2 83.4,53 83.3,52.8 
				83.3,52.7 83.2,52.6 83,52.4 82.9,52.3 82.8,52.2 82.6,52 82.5,52 82.4,51.9 82.2,51.9 82,51.9 81.8,51.8 81.8,51.8 81.5,51.9 
				81.4,51.9 81.3,51.9 81.2,52 80.9,52 80.8,52.2 80.6,52.3 80.5,52.4 80.3,52.6 80.2,52.7 80.1,52.8 80.1,53 79.9,53.2 79.8,53.4 
				79.8,53.7 79.8,53.8 79.4,55.9 			"/>
			<polygon fill="#FFFFFF" points="103.9,50.4 103.8,50.3 103.6,50.3 103.5,50.1 103.2,50.1 103.1,50 103,50 102.8,49.9 102.6,49.9 
				102.4,49.9 102.1,49.7 102,49.7 101.7,49.7 101.6,49.7 101.3,49.6 101.1,49.6 100.8,49.6 100.5,49.6 100.2,49.7 100,49.7 
				99.7,49.7 99.4,49.9 99.2,50 98.9,50.1 98.5,50.3 98.2,50.5 98,50.8 97.8,51.1 97.5,51.5 97.3,51.9 97,52.4 96.9,53 96.7,53.7 
				96.6,54 96.6,54.3 96.6,54.7 96.6,55.1 96.6,55.4 96.7,55.8 96.7,56.1 96.9,56.3 97,56.6 97.3,56.9 97.4,57.2 97.7,57.4 98,57.6 
				98.4,57.7 98.6,57.8 99,58 99.2,58 99.3,58 99.6,58 99.7,58.1 100,58.1 100.1,58.1 100.4,58.1 100.7,58.1 100.9,58 101.2,58 
				101.5,57.8 101.7,57.8 102,57.7 102.3,57.6 102.4,57.4 102.7,57.2 102.1,60 102.1,60 102,60.1 102,60.1 101.9,60.3 101.7,60.3 
				101.6,60.4 101.5,60.4 101.3,60.6 101.1,60.6 100.8,60.7 100.5,60.7 100.1,60.7 99.7,60.7 99.3,60.7 98.8,60.7 98.2,60.7 
				97.7,60.7 97.3,60.6 96.7,60.4 96.3,60.1 95.8,59.9 95.4,59.6 95,59.3 94.6,58.9 94.3,58.4 94,57.8 93.7,57.3 93.5,56.6 
				93.3,55.9 93.3,55.3 93.3,54.4 93.5,53.7 93.6,53.2 93.6,52.8 93.7,52.4 93.9,52 94,51.6 94.2,51.3 94.3,50.9 94.4,50.7 
				94.6,50.3 94.7,50 94.8,49.7 95.1,49.4 95.2,49.2 95.5,48.9 95.6,48.8 95.9,48.5 96.1,48.2 96.3,48.1 96.6,48 96.9,47.8 
				97.1,47.5 97.4,47.4 97.7,47.4 98,47.3 98.4,47.1 98.6,47 99,47 99.3,46.9 99.7,46.9 100,46.9 100.4,46.7 100.8,46.7 101.1,46.7 
				101.5,46.9 101.7,46.9 102,46.9 102.4,46.9 102.7,47 103,47 103.1,47.1 103.4,47.1 103.6,47.3 103.8,47.3 103.9,47.4 104,47.4 
				104.2,47.4 104.3,47.5 104.3,47.5 			"/>
			<polyline fill="none" stroke="#FFFFFF" stroke-width="0.216" stroke-miterlimit="2.6131" points="103.9,50.4 103.9,50.4 
				103.8,50.3 103.6,50.3 103.5,50.1 103.2,50.1 103.1,50 103,50 102.8,49.9 102.6,49.9 102.4,49.9 102.1,49.7 102,49.7 101.7,49.7 
				101.6,49.7 101.3,49.6 101.1,49.6 100.8,49.6 100.8,49.6 100.5,49.6 100.2,49.7 100,49.7 99.7,49.7 99.4,49.9 99.2,50 98.9,50.1 
				98.5,50.3 98.2,50.5 98,50.8 97.8,51.1 97.5,51.5 97.3,51.9 97,52.4 96.9,53 96.7,53.7 96.7,53.7 96.6,54 96.6,54.3 96.6,54.7 
				96.6,55.1 96.6,55.4 96.7,55.8 96.7,56.1 96.9,56.3 97,56.6 97.3,56.9 97.4,57.2 97.7,57.4 98,57.6 98.4,57.7 98.6,57.8 99,58 
				99,58 99.2,58 99.3,58 99.6,58 99.7,58.1 100,58.1 100.1,58.1 100.4,58.1 100.7,58.1 100.9,58 101.2,58 101.5,57.8 101.7,57.8 
				102,57.7 102.3,57.6 102.4,57.4 102.7,57.2 102.1,60 102.1,60 102.1,60 102,60.1 102,60.1 101.9,60.3 101.7,60.3 101.6,60.4 
				101.5,60.4 101.3,60.6 101.1,60.6 100.8,60.7 100.5,60.7 100.1,60.7 99.7,60.7 99.3,60.7 98.8,60.7 98.2,60.7 98.2,60.7 
				97.7,60.7 97.3,60.6 96.7,60.4 96.3,60.1 95.8,59.9 95.4,59.6 95,59.3 94.6,58.9 94.3,58.4 94,57.8 93.7,57.3 93.5,56.6 
				93.3,55.9 93.3,55.3 93.3,54.4 93.5,53.7 93.5,53.7 93.6,53.2 93.6,52.8 93.7,52.4 93.9,52 94,51.6 94.2,51.3 94.3,50.9 
				94.4,50.7 94.6,50.3 94.7,50 94.8,49.7 95.1,49.4 95.2,49.2 95.5,48.9 95.6,48.8 95.9,48.5 96.1,48.2 96.3,48.1 96.6,48 
				96.9,47.8 97.1,47.5 97.4,47.4 97.7,47.4 98,47.3 98.4,47.1 98.6,47 99,47 99.3,46.9 99.7,46.9 100,46.9 100.4,46.7 100.8,46.7 
				100.8,46.7 101.1,46.7 101.5,46.9 101.7,46.9 102,46.9 102.4,46.9 102.7,47 103,47 103.1,47.1 103.4,47.1 103.6,47.3 103.8,47.3 
				103.9,47.4 104,47.4 104.2,47.4 104.3,47.5 104.3,47.5 103.9,50.4 			"/>
			<polygon fill="#FFFFFF" points="129.1,60.7 126.3,60.7 126.5,59.6 126.5,59.5 126.4,59.7 126.1,59.9 126,60 125.9,60.1 
				125.6,60.3 125.5,60.4 125.3,60.6 125,60.7 124.9,60.7 124.6,60.8 124.5,60.8 124.2,60.8 124.1,60.8 123.8,61 123.7,61 123.4,61 
				122.9,60.8 122.5,60.7 121.9,60.6 121.5,60.3 121.2,60 120.8,59.7 120.6,59.3 120.3,58.9 120.2,58.4 120,58 119.9,57.4 
				119.8,56.9 119.8,56.3 119.8,55.8 119.8,55.3 119.9,54.9 120,54.2 120.3,53.7 120.4,53.1 120.7,52.6 121,52.2 121.2,51.8 
				121.7,51.3 121.9,51.1 122.3,50.7 122.7,50.5 123.1,50.3 123.4,50.1 123.8,49.9 124.2,49.9 124.8,49.7 125.2,49.7 125.5,49.7 
				125.7,49.9 126,49.9 126.3,49.9 126.4,50 126.7,50.1 126.9,50.3 127.1,50.3 127.2,50.4 127.3,50.5 127.5,50.7 127.6,50.8 
				127.7,50.9 127.9,51.1 127.9,51.2 128,51.3 128,51.3 128.7,47.3 131.5,47.3 			"/>
			<polyline fill="none" stroke="#FFFFFF" stroke-width="0.216" stroke-miterlimit="2.6131" points="129.1,60.7 126.3,60.7 
				126.5,59.6 126.5,59.5 126.5,59.5 126.4,59.7 126.1,59.9 126,60 125.9,60.1 125.6,60.3 125.5,60.4 125.3,60.6 125,60.7 
				124.9,60.7 124.6,60.8 124.5,60.8 124.2,60.8 124.1,60.8 123.8,61 123.7,61 123.4,61 123.4,61 122.9,60.8 122.5,60.7 121.9,60.6 
				121.5,60.3 121.2,60 120.8,59.7 120.6,59.3 120.3,58.9 120.2,58.4 120,58 119.9,57.4 119.8,56.9 119.8,56.3 119.8,55.8 
				119.8,55.3 119.9,54.9 119.9,54.9 120,54.2 120.3,53.7 120.4,53.1 120.7,52.6 121,52.2 121.2,51.8 121.7,51.3 121.9,51.1 
				122.3,50.7 122.7,50.5 123.1,50.3 123.4,50.1 123.8,49.9 124.2,49.9 124.8,49.7 125.2,49.7 125.2,49.7 125.5,49.7 125.7,49.9 
				126,49.9 126.3,49.9 126.4,50 126.7,50.1 126.9,50.3 127.1,50.3 127.2,50.4 127.3,50.5 127.5,50.7 127.6,50.8 127.7,50.9 
				127.9,51.1 127.9,51.2 128,51.3 128,51.3 128.7,47.3 131.5,47.3 129.1,60.7 			"/>
			<polygon fill="#FBB230" points="124.5,58.2 124.8,58.2 125,58.2 125.3,58.1 125.6,58 125.7,57.8 126,57.7 126.1,57.6 126.4,57.3 
				126.5,57.2 126.7,56.9 126.8,56.8 126.9,56.5 126.9,56.2 127.1,55.9 127.2,55.7 127.2,55.4 127.2,55.1 127.3,54.7 127.3,54.4 
				127.2,54.2 127.2,53.9 127.2,53.7 127.1,53.5 127.1,53.2 126.9,53 126.8,52.8 126.7,52.7 126.5,52.6 126.4,52.4 126.1,52.3 
				126,52.3 125.7,52.2 125.5,52.3 125.2,52.3 125,52.4 124.8,52.4 124.5,52.6 124.4,52.8 124.2,53 124,53.1 123.8,53.4 123.7,53.7 
				123.6,53.8 123.4,54 123.3,54.3 123.3,54.7 123.1,55 123.1,55.3 123,55.7 123.1,56.2 123.1,56.8 123.3,57.2 123.6,57.6 123.8,58 
				124.1,58.2 			"/>
			<polygon fill="#FFFFFF" points="61.4,58.5 61,60.7 58.4,60.7 58.4,60.3 58.5,60 58.5,59.6 58.5,59.5 58.4,59.7 58.3,59.9 
				58.1,60 57.8,60.1 57.6,60.3 57.3,60.4 57,60.6 56.8,60.7 56.5,60.7 56.2,60.8 55.9,60.8 55.5,61 55.3,61 55,61 54.7,61 
				54.5,60.8 54,60.8 53.8,60.7 53.5,60.6 53.3,60.4 53,60.1 52.7,60 52.6,59.9 52.4,59.6 52.3,59.5 52.3,59.2 52.2,58.9 52,58.8 
				52,58.5 52,58.2 52,58 52,57.8 52,57.4 52,57 52.2,56.6 52.3,56.3 52.4,55.9 52.7,55.7 52.8,55.4 53.1,55.1 53.4,54.9 53.7,54.7 
				53.9,54.4 54.3,54.3 54.6,54.2 55,54 55.3,53.9 55.7,53.9 55.7,53.9 55.7,53.9 55.8,53.9 55.9,53.9 56.1,53.9 56.2,53.9 
				56.4,53.8 56.5,53.8 56.6,53.8 56.9,53.8 57,53.8 57.2,53.8 57.4,53.8 57.6,53.8 57.7,53.7 57.8,53.7 58,53.7 58.3,53.8 
				58.5,53.8 58.7,53.8 58.9,53.8 59.1,53.8 59.2,53.8 59.2,53.8 59.2,53.7 59.3,53.5 59.3,53.2 59.3,53.1 59.3,52.8 59.2,52.7 
				59.1,52.4 58.9,52.3 58.7,52.2 58.5,52.2 58.3,52 58,52 57.7,52 57.4,52 57,52 56.8,52 56.4,52 56.1,52 55.8,52 55.4,52.2 
				55.1,52.2 54.9,52.2 54.6,52.3 54.3,52.3 54,52.4 53.9,52.4 53.8,52.6 53.7,52.6 54.3,50.1 54.6,50 54.9,50 55.1,49.9 55.3,49.9 
				55.5,49.7 55.8,49.7 56.1,49.7 56.4,49.7 56.6,49.6 57,49.6 57.3,49.6 57.6,49.6 58,49.6 58.3,49.6 58.7,49.6 58.9,49.6 
				59.3,49.7 59.6,49.7 59.9,49.7 60.3,49.9 60.6,50 60.8,50.1 61.1,50.3 61.5,50.5 61.8,50.7 61.9,50.9 62.2,51.2 62.3,51.6 
				62.5,51.9 62.5,52.3 62.5,52.7 62.5,53.1 			"/>
			<polyline fill="none" stroke="#FFFFFF" stroke-width="0.216" stroke-miterlimit="2.6131" points="61.4,58.5 61,60.7 58.4,60.7 
				58.4,60.7 58.4,60.3 58.5,60 58.5,59.6 58.5,59.5 58.5,59.5 58.4,59.7 58.3,59.9 58.1,60 57.8,60.1 57.6,60.3 57.3,60.4 57,60.6 
				56.8,60.7 56.5,60.7 56.2,60.8 55.9,60.8 55.5,61 55.3,61 55,61 54.7,61 54.5,60.8 54.5,60.8 54,60.8 53.8,60.7 53.5,60.6 
				53.3,60.4 53,60.1 52.7,60 52.6,59.9 52.4,59.6 52.3,59.5 52.3,59.2 52.2,58.9 52,58.8 52,58.5 52,58.2 52,58 52,57.8 52,57.8 
				52,57.4 52,57 52.2,56.6 52.3,56.3 52.4,55.9 52.7,55.7 52.8,55.4 53.1,55.1 53.4,54.9 53.7,54.7 53.9,54.4 54.3,54.3 54.6,54.2 
				55,54 55.3,53.9 55.7,53.9 55.7,53.9 55.7,53.9 55.7,53.9 55.8,53.9 55.9,53.9 56.1,53.9 56.2,53.9 56.4,53.8 56.5,53.8 
				56.6,53.8 56.9,53.8 57,53.8 57.2,53.8 57.4,53.8 57.6,53.8 57.7,53.7 57.8,53.7 57.8,53.7 58,53.7 58.3,53.8 58.5,53.8 
				58.7,53.8 58.9,53.8 59.1,53.8 59.2,53.8 59.2,53.8 59.2,53.8 59.2,53.7 59.3,53.5 59.3,53.2 59.3,53.1 59.3,53.1 59.3,52.8 
				59.2,52.7 59.1,52.4 58.9,52.3 58.7,52.2 58.5,52.2 58.3,52 58,52 58,52 57.7,52 57.4,52 57,52 56.8,52 56.4,52 56.1,52 55.8,52 
				55.4,52.2 55.1,52.2 54.9,52.2 54.6,52.3 54.3,52.3 54,52.4 53.9,52.4 53.8,52.6 53.7,52.6 54.3,50.1 54.3,50.1 54.6,50 54.9,50 
				55.1,49.9 55.3,49.9 55.5,49.7 55.8,49.7 56.1,49.7 56.4,49.7 56.6,49.6 57,49.6 57.3,49.6 57.6,49.6 58,49.6 58.3,49.6 
				58.7,49.6 58.9,49.6 58.9,49.6 59.3,49.7 59.6,49.7 59.9,49.7 60.3,49.9 60.6,50 60.8,50.1 61.1,50.3 61.5,50.5 61.8,50.7 
				61.9,50.9 62.2,51.2 62.3,51.6 62.5,51.9 62.5,52.3 62.5,52.7 62.5,53.1 61.4,58.5 			"/>
			<polygon fill="#EB2230" points="58.9,55.8 58.9,55.7 58.8,55.7 58.8,55.7 58.7,55.7 58.5,55.7 58.4,55.5 58.3,55.5 58.1,55.5 
				58,55.7 57.7,55.7 57.6,55.7 57.4,55.7 57.3,55.7 57.2,55.7 57,55.8 56.9,55.8 56.9,55.8 56.8,55.8 56.6,55.9 56.5,55.9 
				56.4,55.9 56.2,56.1 56.1,56.1 55.9,56.2 55.8,56.3 55.7,56.5 55.5,56.5 55.4,56.6 55.4,56.8 55.3,56.9 55.3,57.2 55.1,57.3 
				55.1,57.6 55.3,57.8 55.4,58.1 55.5,58.2 55.7,58.4 55.8,58.4 55.9,58.5 56.1,58.5 56.5,58.5 56.8,58.4 57,58.4 57.2,58.4 
				57.4,58.2 57.6,58.1 57.8,58.1 58,58 58.1,57.8 58.3,57.7 58.3,57.6 58.4,57.4 58.5,57.4 58.5,57.3 58.5,57.2 58.7,57 58.7,56.8 
				58.8,56.3 58.8,56.1 			"/>
			<polygon fill="#FFFFFF" points="39.7,60.7 37,60.7 39.3,47.3 44.2,47.3 44.6,55.3 48,47.3 53,47.3 50.7,60.7 47.8,60.7 
				49.6,50.7 49.5,50.7 45.4,60.7 42.1,60.7 42.1,60.3 42.1,59.2 42,57.6 41.9,55.8 41.7,53.9 41.7,52.3 41.6,51.2 41.6,50.7 
				41.6,50.7 41.5,50.7 41.5,50.7 41.5,50.7 			"/>
			<polyline fill="none" stroke="#FFFFFF" stroke-width="0.216" stroke-miterlimit="2.6131" points="39.7,60.7 37,60.7 39.3,47.3 
				44.2,47.3 44.6,55.3 48,47.3 53,47.3 50.7,60.7 47.8,60.7 49.6,50.7 49.5,50.7 45.4,60.7 42.1,60.7 42.1,60.7 42.1,60.3 
				42.1,59.2 42,57.6 41.9,55.8 41.7,53.9 41.7,52.3 41.6,51.2 41.6,50.7 41.6,50.7 41.6,50.7 41.5,50.7 41.5,50.7 41.5,50.7 
				39.7,60.7 			"/>
			<polygon fill="#FFFFFF" points="112.4,58.5 112,60.7 109.5,60.7 109.5,60.3 109.5,60 109.5,59.7 109.5,59.6 109.3,59.7 
				109.2,59.9 108.9,60 108.8,60.1 108.5,60.3 108.3,60.4 108.1,60.6 107.8,60.7 107.6,60.7 107.2,60.8 106.9,60.8 106.6,61 
				106.4,61 106.1,61 105.8,61 105.5,60.8 105.1,60.8 104.9,60.7 104.6,60.6 104.3,60.4 104,60.1 103.8,60 103.6,59.9 103.5,59.6 
				103.4,59.5 103.4,59.2 103.2,58.9 103.2,58.8 103.1,58.5 103.1,58.2 103.1,58 103.1,57.8 103.1,57.4 103.2,57 103.2,56.6 
				103.4,56.3 103.5,55.9 103.8,55.7 103.9,55.4 104.2,55.1 104.5,54.9 104.7,54.7 105,54.4 105.4,54.3 105.7,54.2 106.1,54 
				106.4,53.9 106.8,53.9 106.8,53.9 106.8,53.9 106.9,53.9 106.9,53.9 107,53.9 107.2,53.9 107.4,53.8 107.6,53.8 107.7,53.8 
				107.8,53.8 108.1,53.8 108.3,53.8 108.4,53.8 108.5,53.8 108.6,53.7 108.8,53.7 109,53.7 109.3,53.8 109.6,53.8 109.7,53.8 
				110,53.8 110.1,53.8 110.3,53.8 110.3,53.8 110.3,53.7 110.3,53.5 110.4,53.2 110.4,53.1 110.3,52.8 110.3,52.7 110.1,52.4 
				110,52.3 109.7,52.2 109.6,52.2 109.3,52 109,52 108.8,52 108.5,52 108.1,52 107.8,52 107.6,52 107.2,52 106.9,52 106.5,52.2 
				106.2,52.2 105.9,52.2 105.7,52.3 105.4,52.3 105.1,52.4 105,52.4 104.9,52.6 104.7,52.6 105.4,50.1 105.7,50 105.9,50 
				106.2,49.9 106.4,49.9 106.6,49.7 106.9,49.7 107.2,49.7 107.4,49.7 107.7,49.6 108.1,49.6 108.4,49.6 108.6,49.6 108.9,49.6 
				109.3,49.6 109.6,49.6 110,49.6 110.3,49.7 110.5,49.7 110.9,49.7 111.2,49.9 111.6,50 111.9,50.1 112.2,50.3 112.4,50.5 
				112.7,50.7 113,50.9 113.3,51.2 113.4,51.6 113.4,51.9 113.5,52.3 113.5,52.7 113.5,53.1 			"/>
			<polygon fill="#FFFFFF" points="112,60.8 112,60.8 112.4,58.5 112.3,58.5 111.9,60.7 112,60.7 112,60.8 112,60.8 112,60.8 			"/>
			<polygon fill="#FFFFFF" points="109.3,60.7 109.5,60.8 112,60.8 112,60.7 109.5,60.7 109.5,60.7 109.3,60.7 109.3,60.8 
				109.5,60.8 			"/>
			<polygon fill="#FFFFFF" points="109.5,59.6 109.5,59.5 109.3,59.7 109.3,60 109.3,60.3 109.3,60.7 109.5,60.7 109.5,60.3 
				109.5,60 109.5,59.7 109.5,59.6 109.5,59.5 			"/>
			<polygon fill="#FFFFFF" points="105.5,61 105.5,61 105.8,61 106.1,61 106.4,61 106.6,61 106.9,61 107.3,60.8 107.6,60.8 
				107.8,60.7 108.1,60.6 108.4,60.4 108.5,60.4 108.8,60.1 109,60 109.2,59.9 109.3,59.7 109.5,59.6 109.5,59.5 109.3,59.7 
				109,59.9 108.9,60 108.8,60.1 108.5,60.3 108.3,60.4 108,60.4 107.8,60.6 107.6,60.7 107.2,60.7 106.9,60.8 106.6,60.8 
				106.4,60.8 106.1,60.8 105.8,60.8 105.5,60.8 105.5,60.8 			"/>
			<polygon fill="#FFFFFF" points="103,57.8 103,57.8 103,58 103.1,58.2 103.1,58.5 103.1,58.8 103.2,58.9 103.2,59.2 103.4,59.5 
				103.5,59.6 103.6,59.9 103.8,60 104,60.3 104.2,60.4 104.5,60.6 104.7,60.7 105.1,60.8 105.5,61 105.5,60.8 105.1,60.7 
				104.9,60.6 104.6,60.4 104.3,60.3 104,60.1 103.9,60 103.8,59.7 103.6,59.6 103.5,59.3 103.4,59.2 103.2,58.9 103.2,58.7 
				103.2,58.5 103.2,58.2 103.1,58 103.1,57.8 103.1,57.8 			"/>
			<polygon fill="#FFFFFF" points="106.8,53.9 106.8,53.9 106.4,53.9 105.9,54 105.7,54.2 105.3,54.3 105,54.4 104.7,54.6 
				104.5,54.9 104.2,55.1 103.9,55.4 103.6,55.7 103.5,55.9 103.4,56.3 103.2,56.6 103.1,57 103.1,57.4 103,57.8 103.1,57.8 
				103.2,57.4 103.2,57 103.4,56.6 103.5,56.3 103.6,55.9 103.8,55.7 104,55.4 104.2,55.1 104.5,55 104.7,54.7 105.1,54.6 
				105.4,54.3 105.7,54.2 106.1,54.2 106.4,54 106.8,53.9 106.8,53.9 			"/>
			<polygon fill="#FFFFFF" points="108.8,53.7 108.8,53.7 108.6,53.7 108.5,53.7 108.4,53.7 108.3,53.7 108.1,53.7 107.8,53.7 
				107.7,53.8 107.6,53.8 107.4,53.8 107.2,53.8 107,53.8 106.9,53.8 106.9,53.8 106.8,53.8 106.8,53.9 106.8,53.9 106.8,53.9 
				106.8,53.9 106.8,53.9 106.9,53.9 106.9,53.9 107,53.9 107.2,53.9 107.4,53.9 107.6,53.9 107.7,53.9 107.8,53.8 108.1,53.8 
				108.3,53.8 108.4,53.8 108.5,53.8 108.6,53.8 108.8,53.8 108.8,53.8 			"/>
			<polygon fill="#FFFFFF" points="110.1,53.8 110.3,53.7 110.3,53.7 110.1,53.7 110,53.7 109.7,53.7 109.6,53.7 109.3,53.7 
				109,53.7 108.8,53.7 108.8,53.8 109,53.8 109.3,53.8 109.6,53.8 109.7,53.8 110,53.8 110.1,53.8 110.3,53.8 110.3,53.8 
				110.3,53.8 110.3,53.8 110.3,53.8 110.3,53.8 			"/>
			<polygon fill="#FFFFFF" points="110.3,53.1 110.3,53.1 110.3,53.2 110.3,53.5 110.3,53.7 110.1,53.8 110.3,53.8 110.4,53.7 
				110.4,53.5 110.4,53.2 110.4,53.1 110.4,53.1 			"/>
			<polygon fill="#FFFFFF" points="109,52 109,52 109.3,52.2 109.6,52.2 109.7,52.3 109.9,52.4 110,52.6 110.1,52.7 110.3,52.8 
				110.3,53.1 110.4,53.1 110.4,52.8 110.3,52.7 110.1,52.4 110,52.3 109.9,52.2 109.6,52 109.3,52 109,51.9 109,52 			"/>
			<polygon fill="#FFFFFF" points="104.7,52.6 104.7,52.7 104.9,52.6 105,52.6 105.1,52.4 105.4,52.4 105.7,52.3 105.9,52.3 
				106.2,52.3 106.5,52.2 106.9,52.2 107.2,52.2 107.6,52 107.8,52 108.1,52 108.5,52 108.8,52 109,52 109,52 108.8,51.9 
				108.5,51.9 108.1,51.9 107.8,51.9 107.6,52 107.2,52 106.9,52 106.5,52 106.2,52.2 105.9,52.2 105.7,52.2 105.4,52.3 105.1,52.3 
				105,52.4 104.9,52.4 104.7,52.6 104.9,52.6 			"/>
			<polygon fill="#FFFFFF" points="105.4,50 105.4,50.1 104.7,52.6 104.9,52.6 105.5,50.1 105.5,50.1 105.4,50 105.4,50 105.4,50.1 
							"/>
			<polygon fill="#FFFFFF" points="110,49.6 110,49.6 109.6,49.6 109.3,49.6 108.9,49.6 108.6,49.6 108.4,49.6 108.1,49.6 
				107.7,49.6 107.4,49.6 107.2,49.6 106.9,49.7 106.6,49.7 106.4,49.7 106.1,49.9 105.9,49.9 105.7,50 105.4,50 105.5,50.1 
				105.7,50.1 105.9,50 106.2,49.9 106.4,49.9 106.6,49.9 106.9,49.7 107.2,49.7 107.4,49.7 107.7,49.7 108.1,49.7 108.4,49.7 
				108.6,49.7 108.9,49.7 109.3,49.7 109.6,49.7 110,49.7 110,49.7 			"/>
			<polygon fill="#FFFFFF" points="113.5,53.1 113.5,53.1 113.5,52.7 113.5,52.3 113.5,51.9 113.4,51.5 113.3,51.2 113,50.9 
				112.8,50.7 112.6,50.4 112.2,50.3 111.9,50.1 111.6,50 111.2,49.9 110.9,49.7 110.7,49.6 110.3,49.6 110,49.6 110,49.7 
				110.3,49.7 110.5,49.7 110.9,49.9 111.2,50 111.5,50 111.9,50.3 112.2,50.4 112.4,50.5 112.7,50.8 113,51.1 113.1,51.3 
				113.3,51.6 113.4,51.9 113.5,52.3 113.5,52.7 113.4,53 113.4,53 			"/>
			<polygon fill="#FFFFFF" points="112.4,58.5 112.4,58.5 113.5,53.1 113.4,53 112.3,58.5 112.3,58.5 			"/>
			<polygon fill="#FBB230" points="109.9,55.8 109.9,55.7 109.9,55.7 109.7,55.7 109.7,55.7 109.6,55.5 109.5,55.5 109.3,55.5 
				109,55.5 108.9,55.7 108.8,55.7 108.6,55.7 108.5,55.7 108.4,55.7 108.3,55.7 108.1,55.8 108,55.8 107.8,55.8 107.8,55.8 
				107.7,55.8 107.6,55.9 107.4,55.9 107.3,56.1 107.2,56.1 107,56.2 106.9,56.2 106.8,56.3 106.6,56.5 106.5,56.6 106.5,56.8 
				106.4,56.9 106.4,57.2 106.4,57.3 106.2,57.6 106.4,57.8 106.4,58.1 106.5,58.2 106.8,58.4 106.9,58.4 107,58.5 107.2,58.5 
				107.6,58.5 107.8,58.4 108.1,58.4 108.4,58.2 108.5,58.2 108.8,58.1 108.9,58 109,57.8 109.2,57.8 109.3,57.7 109.5,57.6 
				109.6,57.4 109.6,57.3 109.7,57.2 109.7,57 109.7,56.9 109.7,56.6 109.9,56.3 109.9,56.1 			"/>
			<polygon fill="#FFFFFF" points="131.1,59.3 131.1,59.1 131.1,58.8 131.3,58.5 131.5,58.4 131.7,58.2 132,58.1 132.2,58 132.5,58 
				132.8,58 133,58.1 133.3,58.2 133.6,58.4 133.7,58.5 133.9,58.8 134,59.1 134,59.3 133.7,59.3 133.7,59.2 133.6,58.9 133.4,58.8 
				133.3,58.5 133.2,58.4 133,58.2 132.8,58.2 132.5,58.2 132.4,58.2 132.1,58.2 131.8,58.4 131.7,58.5 131.5,58.8 131.4,58.9 
				131.4,59.2 131.4,59.3 			"/>
			<polygon fill="#FFFFFF" points="132,59.3 132,58.8 132.6,58.8 132.8,58.8 132.8,58.8 132.9,58.8 133,58.8 133,58.9 133,58.9 
				133,59.1 133,59.1 133,59.2 133,59.2 133,59.3 133,59.3 132.6,59.3 132.6,59.3 132.6,59.3 132.8,59.3 132.8,59.3 132.9,59.2 
				132.9,59.2 132.9,59.2 132.9,59.1 132.9,59.1 132.9,59.1 132.8,58.9 132.8,58.9 132.8,58.9 132.6,58.9 132.6,58.9 132.6,58.9 
				132.2,58.9 132.2,59.3 			"/>
			<polygon fill="#FFFFFF" points="131.1,59.3 131.1,59.5 131.1,59.7 131.1,60 131.3,60.3 131.5,60.4 131.7,60.6 132,60.7 
				132.2,60.8 132.5,60.8 132.8,60.8 133,60.7 133.3,60.6 133.6,60.4 133.7,60.3 133.9,60 134,59.7 134,59.5 134,59.3 133.7,59.3 
				133.7,59.5 133.7,59.6 133.6,59.9 133.4,60 133.3,60.3 133.2,60.4 133,60.6 132.8,60.6 132.5,60.6 132.4,60.6 132.1,60.6 
				131.8,60.4 131.7,60.3 131.5,60 131.4,59.9 131.4,59.6 131.4,59.5 131.4,59.3 			"/>
			<polygon fill="#FFFFFF" points="132,59.3 132,60 132.2,60 132.2,59.5 132.5,59.5 132.9,60 133,60 132.8,59.5 132.8,59.5 
				132.9,59.5 132.9,59.5 133,59.3 133,59.3 132.6,59.3 132.5,59.3 132.2,59.3 132.2,59.3 			"/>
			<path fill="none" stroke="#FFFFFF" stroke-width="0.216" stroke-miterlimit="2.6131" d="M131.1,59.5L131.1,59.5v-0.3l0.1-0.3
				l0.1-0.3l0.1-0.3l0.3-0.1l0.3-0.1l0.3-0.1h0.3l0,0h0.3l0.3,0.1l0.3,0.1l0.3,0.1l0.1,0.3l0.1,0.3l0.1,0.3v0.3l0,0v0.3l-0.1,0.3
				l-0.1,0.3l-0.1,0.3l-0.3,0.1l-0.3,0.1h-0.4h-0.3l0,0h-0.3l-0.3-0.1l-0.3-0.1l-0.3-0.1l-0.1-0.3l-0.1-0.3l-0.1-0.3L131.1,59.5
				 M132.2,60H132v-1.2h0.5l0,0h0.1h0.1h0.1h0.1l0,0l0,0v0.1v0.1l0,0v0.1v0.1l0,0l0,0l0,0l0,0h-0.1h-0.1l0.3,0.5h-0.3l-0.3-0.5h-0.3
				L132.2,60 M132.5,59.3L132.5,59.3L132.5,59.3h0.1l0,0l0,0l0,0l0,0l0,0v-0.1l0,0l0,0l0,0l0,0l0,0l0,0l0,0l0,0l0,0h-0.3v0.4h0.1
				 M132.5,60.6L132.5,60.6h0.3l0.3-0.1l0.1-0.1l0.1-0.1l0.1-0.1l0.1-0.1v-0.3v-0.3l0,0v-0.3v-0.3l-0.1-0.3l-0.1-0.1l-0.1-0.1H133
				h-0.3h-0.3l0,0h-0.3h-0.1l-0.1,0.1l-0.1,0.1l-0.1,0.1l-0.3,0.3v0.3v0.3l0,0v0.3V60l0.1,0.1l0.1,0.1l0.1,0.1l0.1,0.1l0.3,0.1
				L132.5,60.6"/>
			<polygon fill="#FFFFFF" points="113.1,60.7 116.1,60.7 116.1,60.7 117.1,54.9 117.2,54.7 117.2,54.4 117.3,54.2 117.3,54 
				117.4,53.8 117.6,53.5 117.7,53.4 117.9,53.1 118,53 118.3,52.8 118.5,52.7 118.8,52.6 119.1,52.4 119.3,52.3 119.8,52.3 
				120.2,52.3 120.3,52.3 120.4,52.3 120.4,52.3 120.4,52.3 120.8,49.6 120.6,49.7 120.3,49.7 120,49.7 119.8,49.9 119.6,49.9 
				119.3,50 119.2,50.1 118.9,50.3 118.8,50.4 118.7,50.5 118.4,50.7 118.3,50.8 118.1,51.1 118,51.2 117.9,51.3 117.7,51.6 
				118,49.7 115.2,49.7 113.1,60.7 			"/>
			<polyline fill="none" stroke="#FFFFFF" stroke-width="0.216" stroke-miterlimit="2.6131" points="113.1,60.7 116.1,60.7 
				116.1,60.7 117.1,54.9 117.1,54.9 117.2,54.7 117.2,54.4 117.3,54.2 117.3,54 117.4,53.8 117.6,53.5 117.7,53.4 117.9,53.1 
				118,53 118.3,52.8 118.5,52.7 118.8,52.6 119.1,52.4 119.3,52.3 119.8,52.3 120.2,52.3 120.2,52.3 120.3,52.3 120.4,52.3 
				120.4,52.3 120.4,52.3 120.8,49.6 120.8,49.6 120.6,49.7 120.3,49.7 120,49.7 119.8,49.9 119.6,49.9 119.3,50 119.2,50.1 
				118.9,50.3 118.8,50.4 118.7,50.5 118.4,50.7 118.3,50.8 118.1,51.1 118,51.2 117.9,51.3 117.7,51.6 118,49.7 115.2,49.7 
				113.1,60.7 113.1,60.7 			"/>
			<polygon fill="#FFFFFF" points="85.9,60.7 88.9,60.7 88.9,60.7 89.8,54.9 89.9,54.7 89.9,54.4 89.9,54.2 90.1,54 90.2,53.8 
				90.2,53.7 90.4,53.5 90.5,53.2 90.8,53.1 90.9,53 91.2,52.8 91.3,52.7 91.7,52.7 92,52.6 92.3,52.6 92.7,52.4 92.8,52.4 
				92.8,52.4 92.8,52.6 92.9,52.6 92.9,52.6 92.9,52.6 93.1,52.6 93.1,52.6 93.1,52.4 93.1,52.4 93.1,52.2 93.2,52 93.2,51.8 
				93.3,51.3 93.3,51.1 93.5,50.8 93.6,50.7 93.7,50.4 93.7,50.3 93.9,50.1 94,49.9 94,49.9 94.2,49.7 94.2,49.7 94.2,49.7 94,49.7 
				94,49.7 93.9,49.7 93.9,49.7 93.7,49.6 93.7,49.6 93.6,49.6 93.3,49.7 93.1,49.7 92.8,49.7 92.5,49.9 92.3,49.9 92.1,50 
				91.8,50.1 91.7,50.3 91.6,50.4 91.3,50.5 91.2,50.7 91,50.8 90.9,50.9 90.8,51.2 90.6,51.3 90.5,51.6 90.8,49.7 87.9,49.7 
				85.9,60.7 			"/>
			<polyline fill="none" stroke="#FFFFFF" stroke-width="0.216" stroke-miterlimit="2.6131" points="85.9,60.7 88.9,60.7 88.9,60.7 
				89.8,54.9 89.8,54.9 89.9,54.7 89.9,54.4 89.9,54.2 90.1,54 90.2,53.8 90.2,53.7 90.4,53.5 90.5,53.2 90.8,53.1 90.9,53 
				91.2,52.8 91.3,52.7 91.7,52.7 92,52.6 92.3,52.6 92.7,52.4 92.7,52.4 92.8,52.4 92.8,52.4 92.8,52.6 92.9,52.6 92.9,52.6 
				92.9,52.6 93.1,52.6 93.1,52.6 93.1,52.6 93.1,52.4 93.1,52.4 93.1,52.2 93.2,52 93.2,51.8 93.3,51.3 93.3,51.1 93.5,50.8 
				93.5,50.8 93.6,50.7 93.7,50.4 93.7,50.3 93.9,50.1 94,49.9 94,49.9 94.2,49.7 94.2,49.7 94.2,49.7 94.2,49.7 94,49.7 94,49.7 
				93.9,49.7 93.9,49.7 93.7,49.6 93.7,49.6 93.6,49.6 93.6,49.6 93.3,49.7 93.1,49.7 92.8,49.7 92.5,49.9 92.3,49.9 92.1,50 
				91.8,50.1 91.7,50.3 91.6,50.4 91.3,50.5 91.2,50.7 91,50.8 90.9,50.9 90.8,51.2 90.6,51.3 90.5,51.6 90.8,49.7 87.9,49.7 
				85.9,60.7 85.9,60.7 			"/>
			<polygon fill="#FBB230" points="131.1,71.5 131.1,71.5 131.1,71.3 131.3,71 131.5,70.9 131.7,70.7 132,70.6 132.2,70.4 
				132.5,70.4 132.8,70.4 133,70.6 133.3,70.7 133.6,70.9 133.7,71 133.9,71.3 134,71.5 134,71.5 133.7,71.5 133.6,71.4 133.4,71.1 
				133.3,71 133.2,70.9 133,70.7 132.8,70.7 132.5,70.6 132.4,70.7 132.1,70.7 131.8,70.9 131.7,71 131.5,71.1 131.4,71.4 
				131.4,71.5 			"/>
			<polygon fill="#FBB230" points="132,71.5 132,71.3 132.6,71.3 132.8,71.3 132.8,71.3 132.9,71.3 133,71.3 133,71.4 133,71.4 
				133,71.5 133,71.5 132.9,71.5 132.9,71.5 132.9,71.5 132.9,71.4 132.8,71.4 132.8,71.4 132.8,71.4 132.6,71.4 132.6,71.4 
				132.6,71.4 132.2,71.4 132.2,71.5 			"/>
			<polygon fill="#FBB230" points="131.1,71.8 131.1,71.5 131.4,71.5 131.4,71.5 131.4,71.8 			"/>
			<polygon fill="#FBB230" points="132,71.8 132,71.5 132.2,71.5 132.2,71.8 132.5,71.8 132.6,71.8 132.6,71.8 132.8,71.7 
				132.8,71.7 132.9,71.7 132.9,71.7 132.9,71.7 132.9,71.5 133,71.5 133,71.5 133,71.7 133,71.7 133,71.8 133,71.8 			"/>
			<polygon fill="#FBB230" points="133.7,71.8 133.7,71.5 133.7,71.5 134,71.5 134,71.8 			"/>
			<polygon fill="#FBB230" points="131.1,71.8 131.1,71.8 131.1,72.1 131.1,72.3 131.3,72.6 131.5,72.9 131.7,73 132,73.1 
				132.2,73.3 132.5,73.3 132.8,73.3 133,73.1 133.3,73 133.6,72.9 133.7,72.6 133.9,72.3 134,72.1 134,71.8 134,71.8 133.7,71.8 
				133.7,71.8 133.7,72.1 133.6,72.3 133.4,72.5 133.3,72.6 133.2,72.9 133,72.9 132.8,73 132.5,73 132.4,73 132.1,72.9 131.8,72.9 
				131.7,72.6 131.5,72.5 131.4,72.3 131.4,72.1 131.4,71.8 131.4,71.8 			"/>
			<polygon fill="#FBB230" points="132,71.8 132,72.3 132.2,72.3 132.2,71.9 132.5,71.9 132.9,72.3 133,72.3 132.8,71.9 132.8,71.9 
				132.9,71.8 132.9,71.8 133,71.8 133,71.8 			"/>
			<path fill="#FFFFFF" d="M86.3,53l-0.1-0.7L86,51.7l-0.3-0.4l-0.3-0.4l-0.3-0.4l-0.3-0.3l-0.4-0.1L84.1,50l-0.4-0.1l-0.4-0.1
				L83,49.6h-0.4h-0.5h-0.8l-0.7,0.1l-0.7,0.1l-0.7,0.3l-0.5,0.3l-0.4,0.4l-0.4,0.4l-0.3,0.4L77.2,52L77,52.4l-0.1,0.4l-0.1,0.4
				l-0.1,0.4v0.5v0.4v0.3v0.8v0.8l0.1,0.7l0.1,0.5l0.3,0.5l0.3,0.4l0.4,0.4l0.4,0.4l0.4,0.3l0.4,0.3l0.5,0.1l0.5,0.1l0.5,0.1
				l0.5,0.1h0.5h0.5h0.3h0.3H83h0.3h0.3h0.3h0.3h0.1h0.1h0.1h0.1h0.1h0.1H85l0.1-0.1l0.1-0.1l0.4-2.6l-0.4,0.1L85,57.9L84.8,58
				l-0.4,0.1h-0.3h-0.3h-0.3h-0.3H83h-0.3h-0.3h-0.3H82h-0.3h-0.3h-0.3h-0.3h-0.1L80.5,58l-0.1-0.1l-0.2,0l-0.1-0.1l-0.1-0.1
				l-0.1-0.1l-0.1-0.1l-0.1-0.1l-0.1-0.3l-0.1-0.1v-0.1v-0.1v-0.1v-0.1h6.6v-0.7l0.1-0.8l0.1-0.8L86.3,53z M83.4,53.9h-3.8l0,0l0,0
				v-0.1v-0.3v-0.3l0.1-0.3l0.1-0.1l0.1-0.1l0.1-0.1l0.1-0.1l0.1-0.1l0.1-0.1l0.1-0.1l0.1-0.1l0.1-0.1h0.1h0.1h0.1h0.1h0.1h0.1h0.1
				H82l0.1,0.1l0.1,0.1l0.1,0.1l0.1,0.1l0.1,0.1l0.1,0.1l0.1,0.1l0.1,0.1v0.3v0.3v0.3L83.4,53.9z"/>
		</g>
	</g>
</g>
</svg>
