<?xml version="1.0" encoding="utf-8"?>
<!-- Generator: Adobe Illustrator 17.1.0, SVG Export Plug-In . SVG Version: 6.00 Build 0)  -->
<!DOCTYPE svg PUBLIC "-//W3C//DTD SVG 1.1//EN" "http://www.w3.org/Graphics/SVG/1.1/DTD/svg11.dtd">
<svg version="1.1" id="Layer_1" xmlns="http://www.w3.org/2000/svg" xmlns:xlink="http://www.w3.org/1999/xlink" x="0px" y="0px"
	 viewBox="32.1 0 896.4 560" enable-background="new 32.1 0 896.4 560" xml:space="preserve">
<g>
	<path fill="#13457C" d="M927.9,530c0,16.4-13.6,30-30,30H62.1c-16.4,0-30-13.6-30-30V30c0-16.4,13.6-30,30-30h836.4
		c16.4,0,30,13.6,30,30v500H927.9z"/>
	<g>
		<polygon fill="#FBB231" points="587.9,440.7 595.7,440.7 604.3,440 612.1,438.6 620,437.1 627.9,435.7 635.7,433.6 642.9,430.7 
			650,427.9 657.1,425 664.3,421.4 671.4,417.1 677.9,413.6 684.3,408.6 690,404.3 695.7,398.6 701.4,393.6 707.1,387.9 
			712.1,382.1 716.4,375.7 721.4,370 725,362.9 729.3,356.4 732.9,349.3 735.7,342.1 738.6,335 741.4,327.9 743.6,320 745.7,312.1 
			747.1,304.3 747.9,296.4 748.6,287.9 748.6,280 748.6,271.4 747.9,263.6 747.1,255 745.7,247.1 743.6,240 741.4,232.1 
			738.6,224.3 735.7,217.1 732.9,210 729.3,203.6 725,196.4 721.4,190 716.4,183.6 712.1,177.9 707.1,172.1 701.4,166.4 
			695.7,160.7 690,155.7 684.3,151.4 677.9,146.4 671.4,142.9 664.3,138.6 657.1,135 650,132.1 642.9,129.3 635.7,126.4 
			627.9,124.3 620,122.9 612.1,121.4 604.3,120 595.7,119.3 587.9,119.3 579.3,119.3 571.4,120 562.9,121.4 555,122.9 547.1,124.3 
			540,126.4 532.1,129.3 525,132.1 517.9,135 511.4,138.6 504.3,142.9 497.9,146.4 491.4,151.4 485.7,155.7 480,160.7 474.3,166.4 
			468.6,172.1 463.6,177.9 459.3,183.6 454.3,190 450.7,196.4 446.4,203.6 442.9,210 440,217.1 437.1,224.3 434.3,232.1 432.1,240 
			430.7,247.1 429.3,255 427.9,263.6 427.1,271.4 427.1,280 427.1,287.9 427.9,296.4 429.3,304.3 430.7,312.1 432.1,320 
			434.3,327.9 437.1,335 440,342.1 442.9,349.3 446.4,356.4 450.7,362.9 454.3,370 459.3,375.7 463.6,382.1 468.6,387.9 
			474.3,393.6 480,398.6 485.7,404.3 491.4,408.6 497.9,413.6 504.3,417.1 511.4,421.4 517.9,425 525,427.9 532.1,430.7 540,433.6 
			547.1,435.7 555,437.1 562.9,438.6 571.4,440 579.3,440.7 587.9,440.7 		"/>
		<polygon fill="#EC1C2E" points="372.9,440.7 380.7,440.7 389.3,440 397.1,438.6 405,437.1 412.9,435.7 420,433.6 427.9,430.7 
			435,427.9 442.1,425 449.3,421.4 455.7,417.1 462.1,413.6 468.6,408.6 475,404.3 480.7,398.6 485.7,393.6 491.4,387.9 
			496.4,382.1 501.4,375.7 505.7,370 510,362.9 513.6,356.4 517.1,349.3 520.7,342.1 523.6,335 525.7,327.9 527.9,320 530,312.1 
			531.4,304.3 532.1,296.4 532.9,287.9 532.9,280 532.9,271.4 532.1,263.6 531.4,255 530,247.1 527.9,240 525.7,232.1 523.6,224.3 
			520.7,217.1 517.1,210 513.6,203.6 510,196.4 505.7,190 501.4,183.6 496.4,177.9 491.4,172.1 485.7,166.4 480.7,160.7 475,155.7 
			468.6,151.4 462.1,146.4 455.7,142.9 449.3,138.6 442.1,135 435,132.1 427.9,129.3 420,126.4 412.9,124.3 405,122.9 397.1,121.4 
			389.3,120 380.7,119.3 372.9,119.3 364.3,119.3 356.4,120 347.9,121.4 340,122.9 332.1,124.3 325,126.4 317.1,129.3 310,132.1 
			302.9,135 295.7,138.6 289.3,142.9 282.9,146.4 276.4,151.4 270,155.7 264.3,160.7 258.6,166.4 253.6,172.1 248.6,177.9 
			243.6,183.6 239.3,190 235,196.4 230.7,203.6 227.1,210 224.3,217.1 221.4,224.3 218.6,232.1 216.4,240 215,247.1 213.6,255 
			212.1,263.6 211.4,271.4 211.4,280 211.4,287.9 212.1,296.4 213.6,304.3 215,312.1 216.4,320 218.6,327.9 221.4,335 224.3,342.1 
			227.1,349.3 230.7,356.4 235,362.9 239.3,370 243.6,375.7 248.6,382.1 253.6,387.9 258.6,393.6 264.3,398.6 270,404.3 
			276.4,408.6 282.9,413.6 289.3,417.1 295.7,421.4 302.9,425 310,427.9 317.1,430.7 325,433.6 332.1,435.7 340,437.1 347.9,438.6 
			356.4,440 364.3,440.7 372.9,440.7 		"/>
		<polygon fill="#FBB231" points="461.4,180.7 546.4,180.7 546.4,172.1 468.6,172.1 461.4,180.7 		"/>
		<polygon fill="#FBB231" points="448.6,200 546.4,200 546.4,191.4 453.6,191.4 448.6,200 		"/>
		<polygon fill="#FBB231" points="439.3,220 546.4,220 546.4,210.7 442.9,210.7 439.3,220 		"/>
		<polygon fill="#FBB231" points="432.1,239.3 546.4,239.3 546.4,230 435,230 432.1,239.3 		"/>
		<polygon fill="#FBB231" points="436.4,332.9 547.1,332.9 547.1,324.3 433.6,324.3 436.4,332.9 		"/>
		<polygon fill="#FBB231" points="444.3,352.1 547.1,352.1 547.1,343.6 440,343.6 444.3,352.1 		"/>
		<polygon fill="#FBB231" points="455.7,371.4 547.1,371.4 547.1,362.9 450.7,362.9 455.7,371.4 		"/>
		<polygon fill="#FBB231" points="471.4,390.7 547.1,390.7 547.1,382.1 464.3,382.1 471.4,390.7 		"/>
		<polygon fill="#FBB231" points="428.6,258.6 546.4,258.6 546.4,250 430,250 428.6,258.6 		"/>
		<polygon fill="#FBB231" points="500.7,313.6 545.7,313.6 545.7,305 502.1,305 500.7,313.6 		"/>
		<polygon fill="#FBB231" points="504.3,294.3 545.7,294.3 545.7,285.7 505.7,285.7 504.3,294.3 		"/>
		<polygon fill="#FBB231" points="425.7,285.7 437.1,285.7 437.1,294.3 426.4,294.3 425.7,285.7 		"/>
		<polygon fill="#FFFFFF" points="403.6,275 402.9,275 402.1,274.3 401.4,274.3 400.7,274.3 400,274.3 399.3,274.3 398.6,274.3 
			397.9,274.3 397.1,273.6 396.4,273.6 395,273.6 394.3,273.6 392.9,273.6 392.1,273.6 390.7,273.6 389.3,274.3 387.9,274.3 
			387.1,274.3 385.7,274.3 385,275 384.3,275 383.6,275.7 382.9,276.4 382.9,277.1 382.1,277.1 382.1,277.9 382.1,278.6 
			382.1,279.3 382.1,280 382.1,280.7 382.9,281.4 383.6,282.1 384.3,282.9 385.7,284.3 387.1,285 388.6,285 390.7,285.7 
			392.1,286.4 394.3,287.1 395.7,287.9 397.1,288.6 399.3,290 400,291.4 401.4,292.9 402.1,295 402.9,297.1 402.9,300 402.9,303.6 
			402.9,306.4 402.1,308.6 400.7,310.7 400,312.1 398.6,313.6 397.1,315 395.7,316.4 394.3,317.1 392.1,318.6 390.7,319.3 
			388.6,319.3 387.1,320 385,320 382.9,320.7 381.4,320.7 380,320.7 377.1,320.7 375,320.7 373.6,320.7 371.4,320.7 370,320.7 
			368.6,320 367.1,320 365.7,320 365,320 363.6,320 362.9,319.3 361.4,319.3 360.7,319.3 360,318.6 359.3,318.6 357.9,317.9 
			360.7,306.4 361.4,306.4 361.4,306.4 362.1,306.4 363.6,307.1 364.3,307.1 365.7,307.1 366.4,307.9 367.9,307.9 369.3,307.9 
			370.7,307.9 372.1,308.6 373.6,308.6 375,308.6 377.1,308.6 378.6,308.6 380,308.6 381.4,308.6 382.9,307.9 383.6,307.1 
			384.3,306.4 385,305.7 385.7,305 385.7,304.3 385.7,302.9 386.4,301.4 385.7,300 385,299.3 383.6,298.6 381.4,297.1 380,296.4 
			377.9,295.7 375.7,295 373.6,294.3 371.4,292.9 369.3,291.4 367.9,290 366.4,287.9 365.7,285 365,282.1 365,278.6 365,276.4 
			365.7,275 366.4,272.9 366.4,271.4 367.9,269.3 368.6,267.9 370,266.4 371.4,265.7 372.9,264.3 374.3,263.6 376.4,262.9 
			378.6,262.1 380.7,262.1 383.6,261.4 386.4,261.4 390,261.4 391.4,261.4 393.6,261.4 395,261.4 397.1,261.4 397.9,261.4 
			399.3,261.4 400.7,261.4 401.4,261.4 402.1,262.1 402.9,262.1 403.6,262.1 404.3,262.1 405,262.1 405.7,262.1 405.7,262.9 
			406.4,262.9 403.6,275 		"/>
		<polyline fill="none" stroke="#FFFFFF" stroke-width="0.216" stroke-miterlimit="2.6131" points="403.6,275 403.6,275 402.9,275 
			402.1,274.3 401.4,274.3 400.7,274.3 400,274.3 399.3,274.3 398.6,274.3 397.9,274.3 397.1,273.6 396.4,273.6 395,273.6 
			394.3,273.6 392.9,273.6 392.1,273.6 390.7,273.6 389.3,274.3 389.3,274.3 387.9,274.3 387.1,274.3 385.7,274.3 385,275 
			384.3,275 383.6,275.7 382.9,276.4 382.9,277.1 382.1,277.1 382.1,277.9 382.1,278.6 382.1,279.3 382.1,280 382.1,280.7 
			382.9,281.4 383.6,282.1 383.6,282.1 384.3,282.9 385.7,284.3 387.1,285 388.6,285 390.7,285.7 392.1,286.4 394.3,287.1 
			395.7,287.9 397.1,288.6 399.3,290 400,291.4 401.4,292.9 402.1,295 402.9,297.1 402.9,300 402.9,303.6 402.9,303.6 402.9,306.4 
			402.1,308.6 400.7,310.7 400,312.1 398.6,313.6 397.1,315 395.7,316.4 394.3,317.1 392.1,318.6 390.7,319.3 388.6,319.3 
			387.1,320 385,320 382.9,320.7 381.4,320.7 380,320.7 380,320.7 377.1,320.7 375,320.7 373.6,320.7 371.4,320.7 370,320.7 
			368.6,320 367.1,320 365.7,320 365,320 363.6,320 362.9,319.3 361.4,319.3 360.7,319.3 360,318.6 359.3,318.6 357.9,317.9 
			360.7,306.4 360.7,306.4 361.4,306.4 361.4,306.4 362.1,306.4 363.6,307.1 364.3,307.1 365.7,307.1 366.4,307.9 367.9,307.9 
			369.3,307.9 370.7,307.9 372.1,308.6 373.6,308.6 375,308.6 377.1,308.6 378.6,308.6 380,308.6 380,308.6 381.4,308.6 
			382.9,307.9 383.6,307.1 384.3,306.4 385,305.7 385.7,305 385.7,304.3 385.7,302.9 385.7,302.9 386.4,301.4 385.7,300 385,299.3 
			383.6,298.6 381.4,297.1 380,296.4 377.9,295.7 375.7,295 373.6,294.3 371.4,292.9 369.3,291.4 367.9,290 366.4,287.9 365.7,285 
			365,282.1 365,278.6 365,278.6 365,276.4 365.7,275 366.4,272.9 366.4,271.4 367.9,269.3 368.6,267.9 370,266.4 371.4,265.7 
			372.9,264.3 374.3,263.6 376.4,262.9 378.6,262.1 380.7,262.1 383.6,261.4 386.4,261.4 390,261.4 390,261.4 391.4,261.4 
			393.6,261.4 395,261.4 397.1,261.4 397.9,261.4 399.3,261.4 400.7,261.4 401.4,261.4 402.1,262.1 402.9,262.1 403.6,262.1 
			404.3,262.1 405,262.1 405.7,262.1 405.7,262.9 406.4,262.9 403.6,275 		"/>
		<polygon fill="#FFFFFF" points="416.4,249.3 431.4,249.3 429.3,262.1 438.6,262.1 436.4,274.3 427.1,274.3 421.4,304.3 
			421.4,305.7 422.1,306.4 422.1,307.1 422.9,307.9 424.3,307.9 425,308.6 426.4,308.6 427.9,308.6 428.6,308.6 430,308.6 
			430.7,308.6 432.1,308.6 432.9,307.9 432.9,307.9 433.6,307.9 433.6,307.9 431.4,317.9 431.4,317.9 430.7,318.6 430.7,318.6 
			430,318.6 430,319.3 429.3,319.3 428.6,319.3 428.6,319.3 427.9,319.3 427.1,320 426.4,320 425.7,320 425,320 424.3,320 
			423.6,320 422.9,320 418.6,320 416.4,320 414.3,320 412.9,320 411.4,319.3 410,318.6 408.6,318.6 407.9,317.9 407.1,317.1 
			406.4,316.4 406.4,315 406.4,314.3 405.7,313.6 405.7,312.1 405.7,310.7 405.7,310 406.4,308.6 416.4,249.3 		"/>
		<polyline fill="none" stroke="#FFFFFF" stroke-width="0.216" stroke-miterlimit="2.6131" points="416.4,249.3 431.4,249.3 
			429.3,262.1 438.6,262.1 436.4,274.3 427.1,274.3 421.4,304.3 421.4,304.3 421.4,305.7 422.1,306.4 422.1,307.1 422.9,307.9 
			424.3,307.9 425,308.6 426.4,308.6 427.9,308.6 427.9,308.6 428.6,308.6 430,308.6 430.7,308.6 432.1,308.6 432.9,307.9 
			432.9,307.9 433.6,307.9 433.6,307.9 431.4,317.9 431.4,317.9 431.4,317.9 430.7,318.6 430.7,318.6 430,318.6 430,319.3 
			429.3,319.3 428.6,319.3 428.6,319.3 427.9,319.3 427.1,320 426.4,320 425.7,320 425,320 424.3,320 423.6,320 422.9,320 
			418.6,320 418.6,320 416.4,320 414.3,320 412.9,320 411.4,319.3 410,318.6 408.6,318.6 407.9,317.9 407.1,317.1 406.4,316.4 
			406.4,315 406.4,314.3 405.7,313.6 405.7,312.1 405.7,310.7 405.7,310 406.4,308.6 416.4,249.3 		"/>
		<polyline fill="none" stroke="#FFFFFF" stroke-width="0.216" stroke-miterlimit="2.6131" points="450.7,295 450.7,295 450,295.7 
			450,297.1 450,297.9 450.7,299.3 450.7,300 451.4,300.7 452.1,302.1 452.9,302.9 453.6,303.6 454.3,304.3 455,305.7 455.7,306.4 
			457.1,306.4 457.9,307.1 459.3,307.9 460,307.9 460,307.9 461.4,307.9 462.9,307.9 464.3,308.6 465.7,308.6 467.1,308.6 
			468.6,308.6 470,308.6 471.4,308.6 472.9,307.9 474.3,307.9 475.7,307.1 477.1,307.1 479.3,306.4 480.7,305.7 482.1,305 
			483.6,304.3 481.4,317.1 481.4,317.1 480.7,317.9 480,317.9 478.6,318.6 477.9,318.6 477.1,319.3 476.4,319.3 475.7,319.3 
			474.3,320 473.6,320 472.9,320 471.4,320 470,320 468.6,320 467.1,320 465.7,320 463.6,320 463.6,320 461.4,320 458.6,320 
			455.7,320 452.9,319.3 450,317.9 447.9,317.1 445,315.7 442.9,314.3 440.7,312.1 439.3,310 437.9,307.9 436.4,305 435,301.4 
			435,297.9 434.3,294.3 435,289.3 435,289.3 435,287.9 435.7,285.7 435.7,283.6 436.4,281.4 437.1,279.3 437.9,276.4 439.3,274.3 
			440.7,272.1 442.9,270 445,267.9 447.1,265.7 450,264.3 452.9,262.9 456.4,262.1 460.7,261.4 465,261.4 465,261.4 467.1,261.4 
			469.3,261.4 471.4,262.1 473.6,262.1 475.7,262.9 477.9,264.3 480,265.7 481.4,267.1 483.6,268.6 485,270.7 485.7,273.6 
			486.4,276.4 487.1,279.3 487.1,283.6 486.4,287.1 485.7,292.1 485.7,295 445.7,295 448.6,284.3 472.1,284.3 472.1,284.3 
			472.1,282.9 472.1,282.1 472.1,280.7 472.1,279.3 471.4,278.6 471.4,277.9 470.7,277.1 470,276.4 469.3,275.7 468.6,275 
			467.9,274.3 467.1,274.3 466.4,273.6 465.7,273.6 464.3,273.6 463.6,272.9 463.6,272.9 462.1,273.6 461.4,273.6 460.7,273.6 
			460,274.3 458.6,274.3 457.9,275 457.1,275.7 456.4,276.4 455.7,277.1 455,277.9 454.3,278.6 454.3,279.3 453.6,280.7 
			452.9,281.4 452.9,282.9 452.9,283.6 450.7,295 		"/>
		<polygon fill="#FFFFFF" points="580,265.7 579.3,265 578.6,265 577.9,264.3 576.4,264.3 575.7,263.6 575,263.6 574.3,262.9 
			572.9,262.9 572.1,262.9 570.7,262.1 570,262.1 568.6,262.1 567.9,262.1 566.4,261.4 565,261.4 563.6,261.4 562.1,261.4 
			560.7,262.1 559.3,262.1 557.9,262.1 556.4,262.9 555,263.6 553.6,264.3 551.4,265 550,266.4 548.6,267.9 547.9,269.3 
			546.4,271.4 545,273.6 543.6,276.4 542.9,279.3 542.1,282.9 541.4,285 541.4,286.4 541.4,288.6 541.4,290.7 541.4,292.1 
			542.1,294.3 542.1,295.7 542.9,297.1 543.6,298.6 545,300 545.7,301.4 547.1,302.9 548.6,303.6 550.7,304.3 552.1,305 
			554.3,305.7 555,305.7 555.7,305.7 557.1,305.7 557.9,306.4 559.3,306.4 560,306.4 561.4,306.4 562.9,306.4 564.3,305.7 
			565.7,305.7 567.1,305 568.6,305 570,304.3 571.4,303.6 572.1,302.9 573.6,301.4 570.7,316.4 570.7,316.4 570,317.1 570,317.1 
			569.3,317.9 568.6,317.9 567.9,318.6 567.1,318.6 566.4,319.3 565,319.3 563.6,320 562.1,320 560,320 557.9,320 555.7,320 
			552.9,320 550,320 547.1,320 545,319.3 542.1,318.6 540,317.1 537.1,315.7 535,314.3 532.9,312.9 530.7,310.7 529.3,307.9 
			527.9,305 526.4,302.1 525,298.6 524.3,295 524.3,291.4 524.3,287.1 525,282.9 525.7,280.7 525.7,278.6 526.4,276.4 527.1,274.3 
			527.9,272.1 528.6,270.7 529.3,268.6 530,267.1 530.7,265 531.4,263.6 532.1,262.1 533.6,260.7 534.3,259.3 535.7,257.9 
			536.4,257.1 537.9,255.7 538.6,254.3 540,253.6 541.4,252.9 542.9,252.1 544.3,250.7 545.7,250 547.1,250 548.6,249.3 
			550.7,248.6 552.1,247.9 554.3,247.9 555.7,247.1 557.9,247.1 559.3,247.1 561.4,246.4 563.6,246.4 565,246.4 567.1,247.1 
			568.6,247.1 570,247.1 572.1,247.1 573.6,247.9 575,247.9 575.7,248.6 577.1,248.6 578.6,249.3 579.3,249.3 580,250 580.7,250 
			581.4,250 582.1,250.7 582.1,250.7 580,265.7 		"/>
		<polyline fill="none" stroke="#FFFFFF" stroke-width="0.216" stroke-miterlimit="2.6131" points="580,265.7 580,265.7 579.3,265 
			578.6,265 577.9,264.3 576.4,264.3 575.7,263.6 575,263.6 574.3,262.9 572.9,262.9 572.1,262.9 570.7,262.1 570,262.1 
			568.6,262.1 567.9,262.1 566.4,261.4 565,261.4 563.6,261.4 563.6,261.4 562.1,261.4 560.7,262.1 559.3,262.1 557.9,262.1 
			556.4,262.9 555,263.6 553.6,264.3 551.4,265 550,266.4 548.6,267.9 547.9,269.3 546.4,271.4 545,273.6 543.6,276.4 542.9,279.3 
			542.1,282.9 542.1,282.9 541.4,285 541.4,286.4 541.4,288.6 541.4,290.7 541.4,292.1 542.1,294.3 542.1,295.7 542.9,297.1 
			543.6,298.6 545,300 545.7,301.4 547.1,302.9 548.6,303.6 550.7,304.3 552.1,305 554.3,305.7 554.3,305.7 555,305.7 555.7,305.7 
			557.1,305.7 557.9,306.4 559.3,306.4 560,306.4 561.4,306.4 562.9,306.4 564.3,305.7 565.7,305.7 567.1,305 568.6,305 570,304.3 
			571.4,303.6 572.1,302.9 573.6,301.4 570.7,316.4 570.7,316.4 570.7,316.4 570,317.1 570,317.1 569.3,317.9 568.6,317.9 
			567.9,318.6 567.1,318.6 566.4,319.3 565,319.3 563.6,320 562.1,320 560,320 557.9,320 555.7,320 552.9,320 550,320 550,320 
			547.1,320 545,319.3 542.1,318.6 540,317.1 537.1,315.7 535,314.3 532.9,312.9 530.7,310.7 529.3,307.9 527.9,305 526.4,302.1 
			525,298.6 524.3,295 524.3,291.4 524.3,287.1 525,282.9 525,282.9 525.7,280.7 525.7,278.6 526.4,276.4 527.1,274.3 527.9,272.1 
			528.6,270.7 529.3,268.6 530,267.1 530.7,265 531.4,263.6 532.1,262.1 533.6,260.7 534.3,259.3 535.7,257.9 536.4,257.1 
			537.9,255.7 538.6,254.3 540,253.6 541.4,252.9 542.9,252.1 544.3,250.7 545.7,250 547.1,250 548.6,249.3 550.7,248.6 
			552.1,247.9 554.3,247.9 555.7,247.1 557.9,247.1 559.3,247.1 561.4,246.4 563.6,246.4 563.6,246.4 565,246.4 567.1,247.1 
			568.6,247.1 570,247.1 572.1,247.1 573.6,247.9 575,247.9 575.7,248.6 577.1,248.6 578.6,249.3 579.3,249.3 580,250 580.7,250 
			581.4,250 582.1,250.7 582.1,250.7 580,265.7 		"/>
		<polygon fill="#FFFFFF" points="712.9,320 697.9,320 699.3,314.3 699.3,313.6 698.6,315 697.1,315.7 696.4,316.4 695.7,317.1 
			694.3,317.9 693.6,318.6 692.9,319.3 691.4,320 690.7,320 689.3,320.7 688.6,320.7 687.1,320.7 686.4,320.7 685,321.4 
			684.3,321.4 682.9,321.4 680,320.7 677.9,320 675,319.3 672.9,317.9 671.4,316.4 669.3,315 667.9,312.9 666.4,310.7 665.7,307.9 
			665,305.7 664.3,302.9 663.6,300 663.6,297.1 663.6,294.3 663.6,291.4 664.3,289.3 665,285.7 666.4,282.9 667.1,280 668.6,277.1 
			670,275 671.4,272.9 673.6,270.7 675,269.3 677.1,267.1 679.3,266.4 681.4,265 682.9,264.3 685,262.9 687.1,262.9 690,262.1 
			692.1,262.1 693.6,262.1 695,262.9 696.4,262.9 697.9,262.9 698.6,263.6 700,264.3 701.4,265 702.1,265 702.9,265.7 703.6,266.4 
			704.3,267.1 705,267.9 705.7,268.6 706.4,269.3 706.4,270 707.1,270.7 707.1,270.7 710.7,249.3 725.7,249.3 712.9,320 		"/>
		<polyline fill="none" stroke="#FFFFFF" stroke-width="0.216" stroke-miterlimit="2.6131" points="712.9,320 697.9,320 
			699.3,314.3 699.3,313.6 699.3,313.6 698.6,315 697.1,315.7 696.4,316.4 695.7,317.1 694.3,317.9 693.6,318.6 692.9,319.3 
			691.4,320 690.7,320 689.3,320.7 688.6,320.7 687.1,320.7 686.4,320.7 685,321.4 684.3,321.4 682.9,321.4 682.9,321.4 680,320.7 
			677.9,320 675,319.3 672.9,317.9 671.4,316.4 669.3,315 667.9,312.9 666.4,310.7 665.7,307.9 665,305.7 664.3,302.9 663.6,300 
			663.6,297.1 663.6,294.3 663.6,291.4 664.3,289.3 664.3,289.3 665,285.7 666.4,282.9 667.1,280 668.6,277.1 670,275 671.4,272.9 
			673.6,270.7 675,269.3 677.1,267.1 679.3,266.4 681.4,265 682.9,264.3 685,262.9 687.1,262.9 690,262.1 692.1,262.1 692.1,262.1 
			693.6,262.1 695,262.9 696.4,262.9 697.9,262.9 698.6,263.6 700,264.3 701.4,265 702.1,265 702.9,265.7 703.6,266.4 704.3,267.1 
			705,267.9 705.7,268.6 706.4,269.3 706.4,270 707.1,270.7 707.1,270.7 710.7,249.3 725.7,249.3 712.9,320 		"/>
		<polygon fill="#FBB231" points="688.6,307.1 690,307.1 691.4,307.1 692.9,306.4 694.3,305.7 695,305 696.4,304.3 697.1,303.6 
			698.6,302.1 699.3,301.4 700,300 700.7,299.3 701.4,297.9 701.4,296.4 702.1,295 702.9,293.6 702.9,292.1 702.9,290.7 
			703.6,288.6 703.6,287.1 702.9,285.7 702.9,284.3 702.9,282.9 702.1,282.1 702.1,280.7 701.4,279.3 700.7,278.6 700,277.9 
			699.3,277.1 698.6,276.4 697.1,275.7 696.4,275.7 695,275 693.6,275.7 692.1,275.7 691.4,276.4 690,276.4 688.6,277.1 
			687.9,278.6 687.1,279.3 685.7,280 685,281.4 684.3,282.9 683.6,283.6 682.9,285 682.1,286.4 682.1,288.6 681.4,290 681.4,291.4 
			680.7,293.6 681.4,296.4 681.4,299.3 682.1,301.4 683.6,303.6 685,305.7 686.4,307.1 688.6,307.1 		"/>
		<polygon fill="#FFFFFF" points="355.7,308.6 353.6,320 340,320 340,317.9 340.7,316.4 340.7,314.3 340.7,313.6 340,315 
			339.3,315.7 338.6,316.4 337.1,317.1 335.7,317.9 334.3,318.6 332.9,319.3 331.4,320 330,320 328.6,320.7 327.1,320.7 325,321.4 
			323.6,321.4 322.1,321.4 320.7,321.4 319.3,320.7 317.1,320.7 315.7,320 314.3,319.3 312.9,318.6 311.4,317.1 310,316.4 
			309.3,315.7 308.6,314.3 307.9,313.6 307.9,312.1 307.1,310.7 306.4,310 306.4,308.6 306.4,307.1 306.4,305.7 306.4,305 
			306.4,302.9 306.4,300.7 307.1,298.6 307.9,297.1 308.6,295 310,293.6 310.7,292.1 312.1,290.7 313.6,289.3 315,288.6 
			316.4,287.1 318.6,286.4 320,285.7 322.1,285 323.6,284.3 325.7,284.3 325.7,284.3 325.7,284.3 326.4,284.3 327.1,284.3 
			327.9,284.3 328.6,284.3 329.3,283.6 330,283.6 330.7,283.6 332.1,283.6 332.9,283.6 333.6,283.6 335,283.6 335.7,283.6 
			336.4,282.9 337.1,282.9 337.9,282.9 339.3,283.6 340.7,283.6 341.4,283.6 342.9,283.6 343.6,283.6 344.3,283.6 344.3,283.6 
			344.3,282.9 345,282.1 345,280.7 345,280 345,278.6 344.3,277.9 343.6,276.4 342.9,275.7 341.4,275 340.7,275 339.3,274.3 
			337.9,274.3 336.4,274.3 335,274.3 332.9,274.3 331.4,274.3 329.3,274.3 327.9,274.3 326.4,274.3 324.3,275 322.9,275 321.4,275 
			320,275.7 318.6,275.7 317.1,276.4 316.4,276.4 315.7,277.1 315,277.1 318.6,264.3 320,263.6 321.4,263.6 322.9,262.9 
			323.6,262.9 325,262.1 326.4,262.1 327.9,262.1 329.3,262.1 330.7,261.4 332.9,261.4 334.3,261.4 335.7,261.4 337.9,261.4 
			339.3,261.4 341.4,261.4 342.9,261.4 345,262.1 346.4,262.1 347.9,262.1 350,262.9 351.4,263.6 352.9,264.3 354.3,265 
			356.4,266.4 357.9,267.1 358.6,268.6 360,270 360.7,272.1 361.4,273.6 361.4,275.7 361.4,277.9 361.4,280 355.7,308.6 		"/>
		<polyline fill="none" stroke="#FFFFFF" stroke-width="0.216" stroke-miterlimit="2.6131" points="355.7,308.6 353.6,320 340,320 
			340,320 340,317.9 340.7,316.4 340.7,314.3 340.7,313.6 340.7,313.6 340,315 339.3,315.7 338.6,316.4 337.1,317.1 335.7,317.9 
			334.3,318.6 332.9,319.3 331.4,320 330,320 328.6,320.7 327.1,320.7 325,321.4 323.6,321.4 322.1,321.4 320.7,321.4 319.3,320.7 
			319.3,320.7 317.1,320.7 315.7,320 314.3,319.3 312.9,318.6 311.4,317.1 310,316.4 309.3,315.7 308.6,314.3 307.9,313.6 
			307.9,312.1 307.1,310.7 306.4,310 306.4,308.6 306.4,307.1 306.4,305.7 306.4,305 306.4,305 306.4,302.9 306.4,300.7 
			307.1,298.6 307.9,297.1 308.6,295 310,293.6 310.7,292.1 312.1,290.7 313.6,289.3 315,288.6 316.4,287.1 318.6,286.4 320,285.7 
			322.1,285 323.6,284.3 325.7,284.3 325.7,284.3 325.7,284.3 325.7,284.3 326.4,284.3 327.1,284.3 327.9,284.3 328.6,284.3 
			329.3,283.6 330,283.6 330.7,283.6 332.1,283.6 332.9,283.6 333.6,283.6 335,283.6 335.7,283.6 336.4,282.9 337.1,282.9 
			337.1,282.9 337.9,282.9 339.3,283.6 340.7,283.6 341.4,283.6 342.9,283.6 343.6,283.6 344.3,283.6 344.3,283.6 344.3,283.6 
			344.3,282.9 345,282.1 345,280.7 345,280 345,280 345,278.6 344.3,277.9 343.6,276.4 342.9,275.7 341.4,275 340.7,275 
			339.3,274.3 337.9,274.3 337.9,274.3 336.4,274.3 335,274.3 332.9,274.3 331.4,274.3 329.3,274.3 327.9,274.3 326.4,274.3 
			324.3,275 322.9,275 321.4,275 320,275.7 318.6,275.7 317.1,276.4 316.4,276.4 315.7,277.1 315,277.1 318.6,264.3 318.6,264.3 
			320,263.6 321.4,263.6 322.9,262.9 323.6,262.9 325,262.1 326.4,262.1 327.9,262.1 329.3,262.1 330.7,261.4 332.9,261.4 
			334.3,261.4 335.7,261.4 337.9,261.4 339.3,261.4 341.4,261.4 342.9,261.4 342.9,261.4 345,262.1 346.4,262.1 347.9,262.1 
			350,262.9 351.4,263.6 352.9,264.3 354.3,265 356.4,266.4 357.9,267.1 358.6,268.6 360,270 360.7,272.1 361.4,273.6 361.4,275.7 
			361.4,277.9 361.4,280 355.7,308.6 		"/>
		<polygon fill="#EC1C2E" points="342.9,294.3 342.9,293.6 342.1,293.6 342.1,293.6 341.4,293.6 340.7,293.6 340,292.9 339.3,292.9 
			338.6,292.9 337.9,293.6 336.4,293.6 335.7,293.6 335,293.6 334.3,293.6 333.6,293.6 332.9,294.3 332.1,294.3 332.1,294.3 
			331.4,294.3 330.7,295 330,295 329.3,295 328.6,295.7 327.9,295.7 327.1,296.4 326.4,297.1 325.7,297.9 325,297.9 324.3,298.6 
			324.3,299.3 323.6,300 323.6,301.4 322.9,302.1 322.9,303.6 323.6,305 324.3,306.4 325,307.1 325.7,307.9 326.4,307.9 
			327.1,308.6 327.9,308.6 330,308.6 331.4,307.9 332.9,307.9 333.6,307.9 335,307.1 335.7,306.4 337.1,306.4 337.9,305.7 
			338.6,305 339.3,304.3 339.3,303.6 340,302.9 340.7,302.9 340.7,302.1 340.7,301.4 341.4,300.7 341.4,299.3 342.1,297.1 
			342.1,295.7 342.9,294.3 		"/>
		<polygon fill="#FFFFFF" points="241.4,320 227.1,320 239.3,249.3 265,249.3 267.1,291.4 285,249.3 311.4,249.3 299.3,320 
			284.3,320 293.6,267.1 292.9,267.1 271.4,320 254.3,320 254.3,317.9 254.3,312.1 253.6,303.6 252.9,294.3 252.1,284.3 
			252.1,275.7 251.4,270 251.4,267.1 251.4,267.1 250.7,267.1 250.7,267.1 250.7,267.1 241.4,320 		"/>
		<polyline fill="none" stroke="#FFFFFF" stroke-width="0.216" stroke-miterlimit="2.6131" points="241.4,320 227.1,320 
			239.3,249.3 265,249.3 267.1,291.4 285,249.3 311.4,249.3 299.3,320 284.3,320 293.6,267.1 292.9,267.1 271.4,320 254.3,320 
			254.3,320 254.3,317.9 254.3,312.1 253.6,303.6 252.9,294.3 252.1,284.3 252.1,275.7 251.4,270 251.4,267.1 251.4,267.1 
			251.4,267.1 250.7,267.1 250.7,267.1 250.7,267.1 241.4,320 		"/>
		<polygon fill="#FFFFFF" points="625,308.6 622.9,320 609.3,320 609.3,317.9 609.3,316.4 609.3,315 609.3,314.3 608.6,315 
			607.9,315.7 606.4,316.4 605.7,317.1 604.3,317.9 602.9,318.6 602.1,319.3 600.7,320 599.3,320 597.1,320.7 595.7,320.7 
			594.3,321.4 592.9,321.4 591.4,321.4 590,321.4 588.6,320.7 586.4,320.7 585,320 583.6,319.3 582.1,318.6 580.7,317.1 
			579.3,316.4 578.6,315.7 577.9,314.3 577.1,313.6 577.1,312.1 576.4,310.7 576.4,310 575.7,308.6 575.7,307.1 575.7,305.7 
			575.7,305 575.7,302.9 576.4,300.7 576.4,298.6 577.1,297.1 577.9,295 579.3,293.6 580,292.1 581.4,290.7 582.9,289.3 
			584.3,288.6 585.7,287.1 587.9,286.4 589.3,285.7 591.4,285 592.9,284.3 595,284.3 595,284.3 595,284.3 595.7,284.3 595.7,284.3 
			596.4,284.3 597.1,284.3 598.6,283.6 599.3,283.6 600,283.6 600.7,283.6 602.1,283.6 602.9,283.6 603.6,283.6 604.3,283.6 
			605,282.9 605.7,282.9 607.1,282.9 608.6,283.6 610,283.6 610.7,283.6 612.1,283.6 612.9,283.6 613.6,283.6 613.6,283.6 
			613.6,282.9 613.6,282.1 614.3,280.7 614.3,280 613.6,278.6 613.6,277.9 612.9,276.4 612.1,275.7 610.7,275 610,275 608.6,274.3 
			607.1,274.3 605.7,274.3 604.3,274.3 602.1,274.3 600.7,274.3 599.3,274.3 597.1,274.3 595.7,274.3 593.6,275 592.1,275 
			590.7,275 589.3,275.7 587.9,275.7 586.4,276.4 585.7,276.4 585,277.1 584.3,277.1 587.9,264.3 589.3,263.6 590.7,263.6 
			592.1,262.9 592.9,262.9 594.3,262.1 595.7,262.1 597.1,262.1 598.6,262.1 600,261.4 602.1,261.4 603.6,261.4 605,261.4 
			606.4,261.4 608.6,261.4 610,261.4 612.1,261.4 613.6,262.1 615,262.1 617.1,262.1 618.6,262.9 620.7,263.6 622.1,264.3 
			623.6,265 625,266.4 626.4,267.1 627.9,268.6 629.3,270 630,272.1 630,273.6 630.7,275.7 630.7,277.9 630.7,280 625,308.6 		"/>
		<polygon fill="#FFFFFF" points="622.9,320.7 622.9,320.7 625,308.6 624.3,308.6 622.1,320 622.9,320 622.9,320.7 622.9,320.7 
			622.9,320.7 622.9,320.7 		"/>
		<polygon fill="#FFFFFF" points="608.6,320 609.3,320.7 622.9,320.7 622.9,320 609.3,320 609.3,320 608.6,320 608.6,320.7 
			609.3,320.7 608.6,320 		"/>
		<polygon fill="#FFFFFF" points="609.3,314.3 609.3,313.6 608.6,315 608.6,316.4 608.6,317.9 608.6,320 609.3,320 609.3,317.9 
			609.3,316.4 609.3,315 609.3,314.3 609.3,313.6 609.3,314.3 		"/>
		<polygon fill="#FFFFFF" points="588.6,321.4 588.6,321.4 590,321.4 591.4,321.4 592.9,321.4 594.3,321.4 595.7,321.4 597.9,320.7 
			599.3,320.7 600.7,320 602.1,319.3 603.6,318.6 604.3,318.6 605.7,317.1 607.1,316.4 607.9,315.7 608.6,315 609.3,314.3 
			609.3,313.6 608.6,315 607.1,315.7 606.4,316.4 605.7,317.1 604.3,317.9 602.9,318.6 601.4,318.6 600.7,319.3 599.3,320 
			597.1,320 595.7,320.7 594.3,320.7 592.9,320.7 591.4,320.7 590,320.7 588.6,320.7 588.6,320.7 588.6,321.4 		"/>
		<polygon fill="#FFFFFF" points="575,305 575,305 575,305.7 575.7,307.1 575.7,308.6 575.7,310 576.4,310.7 576.4,312.1 
			577.1,313.6 577.9,314.3 578.6,315.7 579.3,316.4 580.7,317.9 581.4,318.6 582.9,319.3 584.3,320 586.4,320.7 588.6,321.4 
			588.6,320.7 586.4,320 585,319.3 583.6,318.6 582.1,317.9 580.7,317.1 580,316.4 579.3,315 578.6,314.3 577.9,312.9 577.1,312.1 
			576.4,310.7 576.4,309.3 576.4,308.6 576.4,307.1 575.7,305.7 575.7,305 575.7,305 575,305 		"/>
		<polygon fill="#FFFFFF" points="595,284.3 595,284.3 592.9,284.3 590.7,285 589.3,285.7 587.1,286.4 585.7,287.1 584.3,287.9 
			582.9,289.3 581.4,290.7 580,292.1 578.6,293.6 577.9,295 577.1,297.1 576.4,298.6 575.7,300.7 575.7,302.9 575,305 575.7,305 
			576.4,302.9 576.4,300.7 577.1,298.6 577.9,297.1 578.6,295 579.3,293.6 580.7,292.1 581.4,290.7 582.9,290 584.3,288.6 
			586.4,287.9 587.9,286.4 589.3,285.7 591.4,285.7 592.9,285 595,284.3 595,284.3 595,284.3 		"/>
		<polygon fill="#FFFFFF" points="605.7,282.9 605.7,282.9 605,282.9 604.3,282.9 603.6,282.9 602.9,282.9 602.1,282.9 600.7,282.9 
			600,283.6 599.3,283.6 598.6,283.6 597.1,283.6 596.4,283.6 595.7,283.6 595.7,283.6 595,283.6 595,284.3 595,284.3 595,284.3 
			595,284.3 595,284.3 595.7,284.3 595.7,284.3 596.4,284.3 597.1,284.3 598.6,284.3 599.3,284.3 600,284.3 600.7,283.6 
			602.1,283.6 602.9,283.6 603.6,283.6 604.3,283.6 605,283.6 605.7,283.6 605.7,283.6 605.7,282.9 		"/>
		<polygon fill="#FFFFFF" points="612.9,283.6 613.6,282.9 613.6,282.9 612.9,282.9 612.1,282.9 610.7,282.9 610,282.9 608.6,282.9 
			607.1,282.9 605.7,282.9 605.7,283.6 607.1,283.6 608.6,283.6 610,283.6 610.7,283.6 612.1,283.6 612.9,283.6 613.6,283.6 
			613.6,283.6 613.6,283.6 613.6,283.6 613.6,283.6 613.6,283.6 612.9,283.6 		"/>
		<polygon fill="#FFFFFF" points="613.6,280 613.6,280 613.6,280.7 613.6,282.1 613.6,282.9 612.9,283.6 613.6,283.6 614.3,282.9 
			614.3,282.1 614.3,280.7 614.3,280 614.3,280 613.6,280 		"/>
		<polygon fill="#FFFFFF" points="607.1,274.3 607.1,274.3 608.6,275 610,275 610.7,275.7 611.4,276.4 612.1,277.1 612.9,277.9 
			613.6,278.6 613.6,280 614.3,280 614.3,278.6 613.6,277.9 612.9,276.4 612.1,275.7 611.4,275 610,274.3 608.6,274.3 607.1,273.6 
			607.1,274.3 607.1,274.3 		"/>
		<polygon fill="#FFFFFF" points="584.3,277.1 584.3,277.9 585,277.1 585.7,277.1 586.4,276.4 587.9,276.4 589.3,275.7 590.7,275.7 
			592.1,275.7 593.6,275 595.7,275 597.1,275 599.3,274.3 600.7,274.3 602.1,274.3 604.3,274.3 605.7,274.3 607.1,274.3 
			607.1,274.3 605.7,273.6 604.3,273.6 602.1,273.6 600.7,273.6 599.3,274.3 597.1,274.3 595.7,274.3 593.6,274.3 592.1,275 
			590.7,275 589.3,275 587.9,275.7 586.4,275.7 585.7,276.4 585,276.4 584.3,277.1 585,277.1 584.3,277.1 		"/>
		<polygon fill="#FFFFFF" points="587.9,263.6 587.9,264.3 584.3,277.1 585,277.1 588.6,264.3 588.6,264.3 587.9,263.6 587.9,263.6 
			587.9,264.3 587.9,263.6 		"/>
		<polygon fill="#FFFFFF" points="612.1,261.4 612.1,261.4 610,261.4 608.6,261.4 606.4,261.4 605,261.4 603.6,261.4 602.1,261.4 
			600,261.4 598.6,261.4 597.1,261.4 595.7,262.1 594.3,262.1 592.9,262.1 591.4,262.9 590.7,262.9 589.3,263.6 587.9,263.6 
			588.6,264.3 589.3,264.3 590.7,263.6 592.1,262.9 592.9,262.9 594.3,262.9 595.7,262.1 597.1,262.1 598.6,262.1 600,262.1 
			602.1,262.1 603.6,262.1 605,262.1 606.4,262.1 608.6,262.1 610,262.1 612.1,262.1 612.1,262.1 612.1,261.4 		"/>
		<polygon fill="#FFFFFF" points="630.7,280 630.7,280 630.7,277.9 630.7,275.7 630.7,273.6 630,271.4 629.3,270 627.9,268.6 
			627.1,267.1 625.7,265.7 623.6,265 622.1,264.3 620.7,263.6 618.6,262.9 617.1,262.1 615.7,261.4 613.6,261.4 612.1,261.4 
			612.1,262.1 613.6,262.1 615,262.1 617.1,262.9 618.6,263.6 620,263.6 622.1,265 623.6,265.7 625,266.4 626.4,267.9 627.9,269.3 
			628.6,270.7 629.3,272.1 630,273.6 630.7,275.7 630.7,277.9 630,279.3 630,279.3 630.7,280 		"/>
		<polygon fill="#FFFFFF" points="625,308.6 625,308.6 630.7,280 630,279.3 624.3,308.6 624.3,308.6 625,308.6 		"/>
		<polygon fill="#FBB231" points="611.4,294.3 611.4,293.6 611.4,293.6 610.7,293.6 610.7,293.6 610,292.9 609.3,292.9 608.6,292.9 
			607.1,292.9 606.4,293.6 605.7,293.6 605,293.6 604.3,293.6 603.6,293.6 602.9,293.6 602.1,294.3 601.4,294.3 600.7,294.3 
			600.7,294.3 600,294.3 599.3,295 598.6,295 597.9,295.7 597.1,295.7 596.4,296.4 595.7,296.4 595,297.1 594.3,297.9 593.6,298.6 
			593.6,299.3 592.9,300 592.9,301.4 592.9,302.1 592.1,303.6 592.9,305 592.9,306.4 593.6,307.1 595,307.9 595.7,307.9 
			596.4,308.6 597.1,308.6 599.3,308.6 600.7,307.9 602.1,307.9 603.6,307.1 604.3,307.1 605.7,306.4 606.4,305.7 607.1,305 
			607.9,305 608.6,304.3 609.3,303.6 610,302.9 610,302.1 610.7,301.4 610.7,300.7 610.7,300 610.7,298.6 611.4,297.1 611.4,295.7 
			611.4,294.3 		"/>
		<polygon fill="#FFFFFF" points="723.6,312.9 723.6,311.4 723.6,310 724.3,308.6 725.7,307.9 726.4,307.1 727.9,306.4 729.3,305.7 
			730.7,305.7 732.1,305.7 733.6,306.4 735,307.1 736.4,307.9 737.1,308.6 737.9,310 738.6,311.4 738.6,312.9 737.1,312.9 
			737.1,312.1 736.4,310.7 735.7,310 735,308.6 734.3,307.9 733.6,307.1 732.1,307.1 730.7,307.1 730,307.1 728.6,307.1 
			727.1,307.9 726.4,308.6 725.7,310 725,310.7 725,312.1 725,312.9 723.6,312.9 		"/>
		<polygon fill="#FFFFFF" points="727.9,312.9 727.9,310 731.4,310 732.1,310 732.1,310 732.9,310 733.6,310 733.6,310.7 
			733.6,310.7 733.6,311.4 733.6,311.4 733.6,312.1 733.6,312.1 733.6,312.9 733.6,312.9 731.4,312.9 731.4,312.9 731.4,312.9 
			732.1,312.9 732.1,312.9 732.9,312.1 732.9,312.1 732.9,312.1 732.9,311.4 732.9,311.4 732.9,311.4 732.1,310.7 732.1,310.7 
			732.1,310.7 731.4,310.7 731.4,310.7 731.4,310.7 729.3,310.7 729.3,312.9 727.9,312.9 		"/>
		<polygon fill="#FFFFFF" points="723.6,312.9 723.6,313.6 723.6,315 723.6,316.4 724.3,317.9 725.7,318.6 726.4,319.3 727.9,320 
			729.3,320.7 730.7,320.7 732.1,320.7 733.6,320 735,319.3 736.4,318.6 737.1,317.9 737.9,316.4 738.6,315 738.6,313.6 
			738.6,312.9 737.1,312.9 737.1,313.6 737.1,314.3 736.4,315.7 735.7,316.4 735,317.9 734.3,318.6 733.6,319.3 732.1,319.3 
			730.7,319.3 730,319.3 728.6,319.3 727.1,318.6 726.4,317.9 725.7,316.4 725,315.7 725,314.3 725,313.6 725,312.9 723.6,312.9 		
			"/>
		<polygon fill="#FFFFFF" points="727.9,312.9 727.9,316.4 729.3,316.4 729.3,313.6 730.7,313.6 732.9,316.4 733.6,316.4 
			732.1,313.6 732.1,313.6 732.9,313.6 732.9,313.6 733.6,312.9 733.6,312.9 731.4,312.9 730.7,312.9 729.3,312.9 729.3,312.9 
			727.9,312.9 		"/>
		<path fill="none" stroke="#FFFFFF" stroke-width="0.216" stroke-miterlimit="2.6131" d="M723.6,313.6L723.6,313.6v-1.4l0.7-1.4
			l0.7-1.4l0.7-1.4l1.4-0.7l1.4-0.7l1.4-0.7h1.4l0,0h1.4l1.4,0.7l1.4,0.7l1.4,0.7l0.7,1.4l0.7,1.4l0.7,1.4v1.4l0,0v1.4l-0.7,1.4
			l-0.7,1.4l-0.7,1.4l-1.4,0.7l-1.4,0.7h-2.1h-1.4l0,0h-1.4l-1.4-0.7l-1.4-0.7l-1.4-0.7l-0.7-1.4l-0.7-1.4l-0.7-1.4L723.6,313.6
			 M729.3,316.4h-1.4V310h2.9l0,0h0.7h0.7h0.7h0.7l0,0l0,0v0.7v0.7l0,0v0.7v0.7l0,0l0,0l0,0l0,0h-0.7h-0.7l1.4,2.9h-1.4l-1.4-2.9
			h-1.4L729.3,316.4 M730.7,312.9L730.7,312.9L730.7,312.9h0.7l0,0l0,0l0,0l0,0l0,0v-0.7l0,0l0,0l0,0l0,0l0,0l0,0l0,0l0,0l0,0H730
			v2.1h0.7 M730.7,319.3L730.7,319.3h1.4l1.4-0.7l0.7-0.7l0.7-0.7l0.7-0.7l0.7-0.7v-1.4v-1.4l0,0v-1.4V310l-0.7-1.4l-0.7-0.7
			l-0.7-0.7l-0.7,0h-1.4h-1.4l0,0h-1.4h-0.7l-0.7,0.7l-0.7,0.7l-0.7,0.7l-1.4,1.4v1.4v1.4l0,0v1.4v1.4l0.7,0.7l0.7,0.7l0.7,0.7
			l0.7,0.7l1.4,0.7L730.7,319.3"/>
		<polygon fill="#FFFFFF" points="628.6,320 644.3,320 644.3,320 649.3,289.3 650,288.6 650,287.1 650.7,285.7 650.7,285 
			651.4,283.6 652.1,282.1 652.9,281.4 653.6,280 654.3,279.3 655.7,278.6 657.1,277.9 658.6,277.1 660,276.4 661.4,275.7 
			663.6,275.7 665.7,275.7 666.4,275.7 667.1,275.7 667.1,275.7 667.1,275.7 669.3,261.4 667.9,262.1 666.4,262.1 665,262.1 
			663.6,262.9 662.9,262.9 661.4,263.6 660.7,264.3 659.3,265 658.6,265.7 657.9,266.4 656.4,267.1 655.7,267.9 655,269.3 
			654.3,270 653.6,270.7 652.9,272.1 654.3,262.1 639.3,262.1 628.6,320 628.6,320 		"/>
		<polyline fill="none" stroke="#FFFFFF" stroke-width="0.216" stroke-miterlimit="2.6131" points="628.6,320 644.3,320 644.3,320 
			649.3,289.3 649.3,289.3 650,288.6 650,287.1 650.7,285.7 650.7,285 651.4,283.6 652.1,282.1 652.9,281.4 653.6,280 654.3,279.3 
			655.7,278.6 657.1,277.9 658.6,277.1 660,276.4 661.4,275.7 663.6,275.7 665.7,275.7 665.7,275.7 666.4,275.7 667.1,275.7 
			667.1,275.7 667.1,275.7 669.3,261.4 669.3,261.4 667.9,262.1 666.4,262.1 665,262.1 663.6,262.9 662.9,262.9 661.4,263.6 
			660.7,264.3 659.3,265 658.6,265.7 657.9,266.4 656.4,267.1 655.7,267.9 655,269.3 654.3,270 653.6,270.7 652.9,272.1 
			654.3,262.1 639.3,262.1 628.6,320 628.6,320 		"/>
		<polygon fill="#FFFFFF" points="485,320 500.7,320 500.7,320 505.7,289.3 506.4,288.6 506.4,287.1 506.4,285.7 507.1,285 
			507.9,283.6 507.9,282.9 508.6,282.1 509.3,280.7 510.7,280 511.4,279.3 512.9,278.6 513.6,277.9 515.7,277.9 517.1,277.1 
			518.6,277.1 520.7,276.4 521.4,276.4 521.4,276.4 521.4,277.1 522.1,277.1 522.1,277.1 522.1,277.1 522.9,277.1 522.9,277.1 
			522.9,276.4 522.9,276.4 522.9,275 523.6,274.3 523.6,272.9 524.3,270.7 524.3,269.3 525,267.9 525.7,267.1 526.4,265.7 
			526.4,265 527.1,264.3 527.9,262.9 527.9,262.9 528.6,262.1 528.6,262.1 528.6,262.1 527.9,262.1 527.9,262.1 527.1,262.1 
			527.1,262.1 526.4,261.4 526.4,261.4 525.7,261.4 524.3,262.1 522.9,262.1 521.4,262.1 520,262.9 518.6,262.9 517.9,263.6 
			516.4,264.3 515.7,265 515,265.7 513.6,266.4 512.9,267.1 512.1,267.9 511.4,268.6 510.7,270 510,270.7 509.3,272.1 510.7,262.1 
			495.7,262.1 485,320 485,320 		"/>
		<polyline fill="none" stroke="#FFFFFF" stroke-width="0.216" stroke-miterlimit="2.6131" points="485,320 500.7,320 500.7,320 
			505.7,289.3 505.7,289.3 506.4,288.6 506.4,287.1 506.4,285.7 507.1,285 507.9,283.6 507.9,282.9 508.6,282.1 509.3,280.7 
			510.7,280 511.4,279.3 512.9,278.6 513.6,277.9 515.7,277.9 517.1,277.1 518.6,277.1 520.7,276.4 520.7,276.4 521.4,276.4 
			521.4,276.4 521.4,277.1 522.1,277.1 522.1,277.1 522.1,277.1 522.9,277.1 522.9,277.1 522.9,277.1 522.9,276.4 522.9,276.4 
			522.9,275 523.6,274.3 523.6,272.9 524.3,270.7 524.3,269.3 525,267.9 525,267.9 525.7,267.1 526.4,265.7 526.4,265 527.1,264.3 
			527.9,262.9 527.9,262.9 528.6,262.1 528.6,262.1 528.6,262.1 528.6,262.1 527.9,262.1 527.9,262.1 527.1,262.1 527.1,262.1 
			526.4,261.4 526.4,261.4 525.7,261.4 525.7,261.4 524.3,262.1 522.9,262.1 521.4,262.1 520,262.9 518.6,262.9 517.9,263.6 
			516.4,264.3 515.7,265 515,265.7 513.6,266.4 512.9,267.1 512.1,267.9 511.4,268.6 510.7,270 510,270.7 509.3,272.1 510.7,262.1 
			495.7,262.1 485,320 485,320 		"/>
		<polygon fill="#FBB231" points="723.6,377.1 723.6,377.1 723.6,375.7 724.3,374.3 725.7,373.6 726.4,372.9 727.9,372.1 
			729.3,371.4 730.7,371.4 732.1,371.4 733.6,372.1 735,372.9 736.4,373.6 737.1,374.3 737.9,375.7 738.6,377.1 738.6,377.1 
			737.1,377.1 736.4,376.4 735.7,375 735,374.3 734.3,373.6 733.6,372.9 732.1,372.9 730.7,372.1 730,372.9 728.6,372.9 
			727.1,373.6 726.4,374.3 725.7,375 725,376.4 725,377.1 723.6,377.1 		"/>
		<polygon fill="#FBB231" points="727.9,377.1 727.9,375.7 731.4,375.7 732.1,375.7 732.1,375.7 732.9,375.7 733.6,375.7 
			733.6,376.4 733.6,376.4 733.6,377.1 733.6,377.1 732.9,377.1 732.9,377.1 732.9,377.1 732.9,376.4 732.1,376.4 732.1,376.4 
			732.1,376.4 731.4,376.4 731.4,376.4 731.4,376.4 729.3,376.4 729.3,377.1 727.9,377.1 		"/>
		<polygon fill="#FBB231" points="723.6,378.6 723.6,377.1 725,377.1 725,377.1 725,378.6 723.6,378.6 		"/>
		<polygon fill="#FBB231" points="727.9,378.6 727.9,377.1 729.3,377.1 729.3,378.6 730.7,378.6 731.4,378.6 731.4,378.6 
			732.1,377.9 732.1,377.9 732.9,377.9 732.9,377.9 732.9,377.9 732.9,377.1 733.6,377.1 733.6,377.1 733.6,377.9 733.6,377.9 
			733.6,378.6 733.6,378.6 727.9,378.6 		"/>
		<polygon fill="#FBB231" points="737.1,378.6 737.1,377.1 737.1,377.1 738.6,377.1 738.6,378.6 737.1,378.6 		"/>
		<polygon fill="#FBB231" points="723.6,378.6 723.6,378.6 723.6,380 723.6,381.4 724.3,382.9 725.7,384.3 726.4,385 727.9,385.7 
			729.3,386.4 730.7,386.4 732.1,386.4 733.6,385.7 735,385 736.4,384.3 737.1,382.9 737.9,381.4 738.6,380 738.6,378.6 
			738.6,378.6 737.1,378.6 737.1,378.6 737.1,380 736.4,381.4 735.7,382.1 735,382.9 734.3,384.3 733.6,384.3 732.1,385 730.7,385 
			730,385 728.6,384.3 727.1,384.3 726.4,382.9 725.7,382.1 725,381.4 725,380 725,378.6 725,378.6 723.6,378.6 		"/>
		<polygon fill="#FBB231" points="727.9,378.6 727.9,381.4 729.3,381.4 729.3,379.3 730.7,379.3 732.9,381.4 733.6,381.4 
			732.1,379.3 732.1,379.3 732.9,378.6 732.9,378.6 733.6,378.6 733.6,378.6 727.9,378.6 		"/>
		<path fill="#FFFFFF" d="M487.1,279.3l-0.7-3.6l-0.7-2.9l-1.4-2.1l-1.4-2.1l-1.4-2.1L480,265l-2.1-0.7l-2.1-0.7l-2.1-0.7l-2.1-0.7
			l-2.1-0.7h-2.1H465h-4.3l-3.6,0.7l-3.6,0.7l-3.6,1.4l-2.9,1.4l-2.1,2.1l-2.1,2.1l-1.4,2.1l-2.1,2.1l-1.4,2.1l-0.7,2.1l-0.7,2.1
			l-0.7,2.1l0,2.9v2.1v1.4v4.3v4.3l0.7,3.6l0.7,2.9l1.4,2.9l1.4,2.1l2.1,2.1l2.1,2.1l2.1,1.4l2.1,1.4l2.9,0.7l2.9,0.7l2.9,0.7
			l2.9,0.7h2.9h2.9h1.4h1.4h1.4h1.4h1.4h1.4h1.4h0.7h0.7h0.7h0.7h0.7h0.7h0.7l0.7-0.7l0.7-0.7l2.1-13.6l-2.1,0.7l-1.4,0.7l-1.4,0.7
			l-2.1,0.7h-1.4h-1.4h-1.4h-1.4H470h-1.4h-1.4h-1.4h-1.4h-1.4h-1.4H460h-1.4h-0.7l-1.4-0.7l-0.7-0.7L455,305l-0.7-0.7l-0.7-0.7
			l-0.7-0.7l-0.7-0.7l-0.7-0.7l-0.7-1.4l-0.7-0.7v-0.7v-0.7v-0.7v-0.7h35v-3.6l0.7-4.3l0.7-4.3L487.1,279.3z M472.1,284.3h-20l0,0
			l0,0v-0.7v-1.4v-1.4l0.7-1.4l0.7-0.7l0.7-0.7l0.7-0.7l0.7-0.7l0.7-0.7l0.7-0.7l0.7-0.7l0.7-0.7l0.7-0.7h0.7h0.7h0.7h0.7h0.7h0.7
			h0.7h0.7l0.7,0.7l0.7,0.7l0.7,0.7l0.7,0.7l0.7,0.7l0.7,0.7l0.7,0.7l0.7,0.7v1.4v1.4v1.4L472.1,284.3z"/>
	</g>
</g>
</svg>
