<?xml version="1.0" encoding="utf-8"?>
<!-- Generator: Adobe Illustrator 17.1.0, SVG Export Plug-In . SVG Version: 6.00 Build 0)  -->
<!DOCTYPE svg PUBLIC "-//W3C//DTD SVG 1.1//EN" "http://www.w3.org/Graphics/SVG/1.1/DTD/svg11.dtd">
<svg version="1.1" id="Layer_1" xmlns="http://www.w3.org/2000/svg" xmlns:xlink="http://www.w3.org/1999/xlink" x="0px" y="0px"
	 viewBox="14.3 17 896.4 560" enable-background="new 14.3 17 896.4 560" xml:space="preserve">
<g>
	<path fill="#FFF200" d="M910.1,356.9V38.1c0-11.6-9-20.6-20.6-20.6h-854c-11.7,0-20.6,9-20.6,20.6v318.8L910.1,356.9L910.1,356.9z"
		/>
	<polygon fill="#034EA2" points="624,189.9 757.3,61.4 890,194.1 758.4,325.7 	"/>
	<polygon fill="none" stroke="#A7A9AC" stroke-width="2.1433" stroke-miterlimit="2.6131" points="624,189.9 757.3,61.4 890,194.1 
		758.4,325.7 	"/>
	<path fill="#A7A9AC" d="M722.9,112.2l-8.5,21.1h40.7c0,0,25.4-2.7,25.4,22.7s-24.8,22.7-24.8,22.7h-32.2L713.4,202h41.3
		c0,0,23.8-2.7,23.8,20.6s-23.8,22.2-23.8,22.2h-29.1l-11.1,23.8l58.7-0.6c0,0,38,0.6,38-32.8c0-25.4-16.4-33.3-16.4-33.3H827
		l-9.5-22.2h-18c0,0,12.6-12.6,12.6-30.7s-14.3-37-36.5-36.5L722.9,112.2L722.9,112.2L722.9,112.2z"/>
	<path fill="#A7A9AC" d="M117.5,148.1c12.6,0,21.7-7.4,21.7-28.5c0-22.7-17.5-25.9-28.5-25.9H95.2v54.5L117.5,148.1L117.5,148.1
		L117.5,148.1z M41.3,280.9V36.5h78.8c47.1,0,69.8,32.2,69.8,82.5c0,52.4-21.1,85.7-68.2,85.7H94.7v76.2H41.3L41.3,280.9L41.3,280.9
		z"/>
	<path fill="#A7A9AC" d="M274.5,202c-15.3,11.1-35.9,5.8-35.9,29.1c0,9,5.8,14.8,14.8,14.8C270.3,246,275.5,226.8,274.5,202
		L274.5,202L274.5,202z M279.2,280.9l-2.1-19c-13.2,18.5-27,24.3-45,24.3c-22.7,0-42.8-16.4-42.8-53.4c0-80.9,85.1-43.9,85.1-77.2
		c0-12.6-10.6-14.8-15.3-14.8c-6.4,0-15.3,2.1-16.4,17.5h-45.5c0-37.6,18-59.7,65-59.7c56.6,0,59.7,31.2,59.7,73.5v83
		c0,10.1,0,15.3,6.4,22.7v3.1H279.2L279.2,280.9L279.2,280.9z"/>
	<path fill="#A7A9AC" d="M381.8,188.8c0,17.5,5.8,34.3,18.5,34.3c14.8,1,20.1-17.5,20.1-36.5c0-19.6-4.8-38.6-20.1-38.6
		C386.1,148.1,381.8,166.1,381.8,188.8L381.8,188.8L381.8,188.8z M388.2,289.8c0,2.1,1,5.3,3.1,7.9c2.1,2.7,5.3,4.2,10.1,4.2
		c13.8,0,19-9,19-34.3v-14.3c-6.8,10.1-16.9,19.6-34.3,19.6c-32.8,0-51.8-38.6-51.8-84c0-43.9,14.3-90.4,53.4-90.4
		c14.3,0,28.1,11.1,35.9,28.5v-23.2h41.7V247c0,53.4-4.2,95.2-62.9,95.2c-42.3,0-59.7-24.8-62.4-51.2h48.1L388.2,289.8L388.2,289.8z
		"/>
	<path fill="#A7A9AC" d="M519.9,190.4c0,33.8,8.5,48.1,20.6,48.1c12.6,0,20.6-14.8,20.6-48.1c0-25.9-7.9-46-20.1-45
		C524.6,145.5,519.9,170.3,519.9,190.4L519.9,190.4L519.9,190.4z M540.4,97.9c42.3,0,68.2,37,68.2,92.5c0,65-29.6,95.7-67.7,95.7
		c-38,0-67.7-31.2-67.7-92C472.8,132.2,499.7,97.9,540.4,97.9L540.4,97.9L540.4,97.9z"/>
	<path fill="#034EA2" d="M886.3,391.8h-75.1c-3.1,0-6.8,2.7-7.4,5.8l-2.1,11.6c-0.6,3.1,1.6,5.8,5.3,5.8h21.7l-11.1,95.2
		c-0.6,3.1,2.1,6.4,5.3,6.4h20.1c3.1,0,6.4-2.7,6.8-6.4l11.1-95.2h21.2c3.1,0,6.8-2.7,7.4-5.8l2.1-11.6
		C891.6,394.5,889.5,391.8,886.3,391.8L886.3,391.8L886.3,391.8z"/>
	<path fill="#034EA2" d="M634.6,440l-12.2-38c-2.7-6.8-6.4-10.1-10.1-10.1h-28.1c-3.1,0-6.8,2.7-7.4,5.8L562,510.8
		c-0.6,3.1,2.1,6.4,5.3,6.4h20.1c3.1,0,6.4-2.7,6.8-6.4l7.9-69.3l10.1,40.7c1,2.7,3.1,5.8,6.8,5.8h13.8c3.1,0,9-1,12.2-6.4
		l14.8-25.9l-5.8,55c-0.6,3.1,2.1,6.4,5.3,6.4h20.2c3.1,0,6.4-2.7,6.8-6.4l14.3-113.1c0.6-3.1-1.6-5.8-5.3-5.8H671
		c0,0-7.9-1-14.3,10.1C651.5,410.9,634.6,440,634.6,440L634.6,440z"/>
	<path fill="#034EA2" d="M347.5,391.8h18c3.1,0,5.8,2.7,5.3,5.8L357,510.8c-0.6,3.1-3.7,6.4-6.8,6.4h-16.9c-3.7,0-6.8-2.7-9.5-6.4
		c-9.5-14.3-25.9-51.2-25.9-51.2l-4.8,51.2c-0.6,3.1-3.1,6.4-6.8,6.4h-20.1c-3.1,0-5.8-2.7-5.3-6.4l13.8-113.1
		c0.6-3.1,3.7-5.8,7.4-5.8H298c3.1,0,7.9,5.3,11.6,10.1l24.8,37l4.8-41.7C338.5,397.7,339.5,391.8,347.5,391.8L347.5,391.8
		L347.5,391.8z"/>
	<path fill="#034EA2" d="M192.5,462.7l10.6-29.6l4.2,29.6H192.5L192.5,462.7L192.5,462.7z M232.7,400.8c-1.6-5.8-5.8-9.5-9.5-9.5
		h-29.1c-3.1,0-6.8,2.7-7.4,5.8l-46,111.1c-1.6,4.8,2.1,7.9,5.3,7.9h21.7c4.8,0,6.8-5.3,8.5-9.5l7.9-22.2h25.9l3.7,23.3
		c0,0,0.6,9,11.1,9h20.1c3.1,0,7.4-4.8,6.4-9.5L232.7,400.8L232.7,400.8L232.7,400.8z"/>
	<path fill="#034EA2" d="M745.6,462.7l10.6-29.6l4.2,29.6H745.6L745.6,462.7L745.6,462.7z M785.8,400.8c-1.6-5.8-5.8-9.5-9.5-9.5
		h-29.1c-3.1,0-6.8,2.7-7.4,5.8l-46,111.1c-1.6,4.8,2.1,7.9,5.3,7.9h21.7c4.8,0,6.8-5.3,8.5-9.5l7.9-22.2H763l3.7,23.3
		c0,0,0.6,9,11.1,9h20.1c3.1,0,7.4-4.8,6.4-9.5L785.8,400.8L785.8,400.8L785.8,400.8z"/>
	<path fill="#034EA2" d="M459,392.4h-39.7c-36.5,0-39.7,33.8-39.7,33.8s-3.7,20.6-8.5,55.5c-4.8,34.9,21.1,35.5,32.2,35.5h40.2
		c3.1,0,6.4-2.7,6.8-6.4l1.6-12.2c0.6-3.1-2.7-5.3-5.8-5.3h-23.8c-21.7,0-18.5-14.8-18.5-14.8s5.3-34.3,6.8-47.1
		c1.6-12.6,12.2-15.9,22.3-15.9h23.3c3.1,0,6.4-1.6,6.8-5.3l1.6-12.2C464.8,395.5,462.2,392.4,459,392.4L459,392.4L459,392.4z"/>
	<path fill="#034EA2" d="M529.4,429.9c0,0-3.1,34.3-5.3,45c-3.1,15.3-10.6,17.5-16.9,17.5c-15.9,0-12.6-13.2-12.6-13.2
		s5.3-34.3,6.8-47.1c1.5-12.7,9-14.3,18.5-14.3C530.9,417.2,529.4,429.9,529.4,429.9L529.4,429.9L529.4,429.9z M536.2,392.4
		c-17.5-2.1-31.8,0.6-31.8,0.6c-30.1,2.7-34.3,33.8-34.3,33.8s-3.7,20.6-8.5,55.5s21.7,36.5,38.6,36.5c0,0,48.1,4.8,53.9-35.5
		c5.8-41.3,6.8-53.9,7.4-60.9C563.7,406.2,553.2,394.5,536.2,392.4L536.2,392.4L536.2,392.4z"/>
	<path fill="#034EA2" d="M97.3,438.9c-4.2,0-10.1,0-14.3,0l2.1-16.4h16.4c0,0,7.9-0.6,6.8,6.8C108,436.8,104.3,438.9,97.3,438.9
		L97.3,438.9L97.3,438.9z M104.3,481.8c-1,9.5-6.4,12.6-14.3,13.2c-7.4,0.6-13.8,0-13.8,0l3.1-26.4h16.9
		C96.3,468.5,106.4,467.5,104.3,481.8L104.3,481.8L104.3,481.8z M120.1,453.2c19.6-9.5,20.1-24.3,21.1-33.8
		c2.7-22.7-20.1-26.4-26.4-26.4H60.9c-3.7,0-6.8,3.1-7.4,6.4l-13.2,111c-0.6,3.7,2.1,6.4,5.8,6.4h58.2c17.5,0,32.8-15.3,34.9-32.2
		C142.3,458.5,120.1,453.2,120.1,453.2L120.1,453.2L120.1,453.2z"/>
	<g>
		<path fill="none" stroke="#034EA2" stroke-miterlimit="2.6131" d="M14.8,558.5c0,9.9,8.1,18,18,18h859.4c9.9,0,18-8.1,18-18v-523
			c0-9.9-8.1-18-18-18H32.8c-9.9,0-18,8.1-18,18V558.5z"/>
	</g>
</g>
</svg>
