<?xml version="1.0" encoding="utf-8"?>
<!-- Generator: Adobe Illustrator 17.1.0, SVG Export Plug-In . SVG Version: 6.00 Build 0)  -->
<!DOCTYPE svg PUBLIC "-//W3C//DTD SVG 1.1//EN" "http://www.w3.org/Graphics/SVG/1.1/DTD/svg11.dtd">
<svg version="1.1" id="Layer_1" xmlns="http://www.w3.org/2000/svg" xmlns:xlink="http://www.w3.org/1999/xlink" x="0px" y="0px"
	 viewBox="18 -0.1 942 560" enable-background="new 18 -0.1 942 560" xml:space="preserve">
<path fill="none" stroke="#034EA2" stroke-width="0.714" stroke-miterlimit="2.613" d="M18.4,359.5v178.3c0,12.1,9.7,21.8,21.6,21.8
	h898c12,0,21.6-9.8,21.6-21.8V359.5"/>
<path fill="#FFF200" d="M959.7,359.5V22.2c0-12.1-9.7-21.9-21.6-21.9H40c-11.9,0.1-21.6,9.9-21.6,21.9v337.3H959.7z"/>
<path fill="none" stroke="#034EA2" stroke-width="0.714" stroke-miterlimit="2.613" d="M959.7,359.5V22.2c0-12.1-9.7-21.9-21.6-21.9
	H40c-11.9,0.1-21.6,9.9-21.6,21.9v337.3"/>
<path fill="#034EA2" d="M658.8,183.2L798.9,46.9l139.3,140.5L799.5,326.5L658.8,183.2z"/>
<path fill="none" stroke="#A7A9AC" stroke-width="2.143" stroke-miterlimit="2.613" d="M658.8,183.2L798.9,46.9l139.3,140.5
	L799.5,326.5L658.8,183.2z"/>
<path fill="#A7A9AC" d="M762.4,100.6l-9.1,22.6h42.8c0,0,26.6-2.8,26.6,24.1c0,26.8-26,24-26,24h-33.6L752.5,196H796
	c0,0,25.2-2.8,25.2,21.9S796,241.1,796,241.1h-30.8l-11.9,25.4l61.6-0.4c0,0,39.9,0.4,39.9-34.9c0-26.8-17.5-35.3-17.5-35.3h33.6
	l-9.8-23.3h-18.9c0,0,13.2-13.5,13.2-32.5s-15-39-38.5-38.9L762.4,100.6L762.4,100.6z M125.9,138.5c13.1,0,22.7-7.9,22.7-30.2
	c0-24.1-18.2-27.2-30.2-27.2h-16v57.4C102.4,138.5,125.9,138.5,125.9,138.5z M46.1,279.2V20.9h83c49.6,0,73.6,34,73.6,87.2
	c0,55.6-22.1,90.8-71.6,90.8h-28.6v80.4L46.1,279.2L46.1,279.2L46.1,279.2z M290.9,196c-16.3,11.9-37.8,6.1-37.8,30.5
	c0,9.4,6,15.8,15.8,15.8C286.4,242.2,292.1,221.8,290.9,196z M296,279.2l-2.4-20.1c-14.1,19.8-28.5,25.4-47.2,25.4
	c-23.7,0-44.8-17.5-44.8-56.6c0-85.4,89.3-46.7,89.3-81.8c0-13.7-11-15.4-16.3-15.4c-6.9,0-16.3,2.1-17.4,18.3h-47.9
	c0-39.8,18.9-63.2,68.4-63.2c59.4,0,63.1,33,63.1,77.9v87.9c0,10.7,0.2,16.1,6.7,24.1v3.6H296V279.2z M403.7,182
	c0,18.7,6.2,36.3,19.7,36.6c15.3,1.1,21.1-18.7,21.1-38.8c0-20.8-5.3-40.6-21.1-40.6C408.3,138.9,403.7,157.6,403.7,182L403.7,182z
	 M410.4,288.9c0,2.2,0.9,5.5,3.2,8.3c2.2,2.8,5.8,4.7,10.7,4.7c14.4,0,20.2-9.7,20.2-36.6v-15.4c-7.1,10.8-18,20.5-35.9,20.5
	c-34.7,0-54.5-40.9-54.5-89c0-46.3,14.8-95.5,56-95.5c15,0,29.2,11.9,38,30.2V91.2h43.8v151.4c0,56.3-4.3,100.5-66.1,100.5
	c-44.3,0-62.9-26.5-65.4-54.2L410.4,288.9L410.4,288.9z M549.2,183.4c0,35.5,8.8,51,21.5,51c13.5,0,21.5-15.4,21.5-51
	c0-27.6-8.1-48.4-21.1-47.4C554.2,136,549.2,162.3,549.2,183.4z M570.5,85.7c44.3,0,71.6,39.1,71.6,97.6
	c0,68.8-31.1,101.2-71.4,101.2c-40.2,0-71.4-33-71.4-97.2C499.4,122,528.1,85.7,570.5,85.7L570.5,85.7z"/>
<path fill="none" stroke="#034EA2" stroke-width="0.714" stroke-miterlimit="2.613" d="M959.7,537.8c0,12.1-9.7,21.8-21.6,21.8H40
	c-12,0-21.6-9.8-21.6-21.8V22.2c0-12,9.7-21.8,21.6-21.8h898c12,0,21.6,9.8,21.6,21.9v515.5H959.7L959.7,537.8z"/>
<path fill="#034EA2" d="M934,396.4h-78.8c-3.6,0-7,2.8-7.7,6.4l-2.2,12.2c-0.6,3.5,1.8,6.4,5.4,6.4h22.6l-11.7,100.9
	c-0.4,3.6,2.3,6.5,5.8,6.5h21.2c3.6,0,6.7-2.9,7.1-6.5l11.8-101h22.2c3.6,0,6.9-2.9,7.7-6.4l2.1-12.2
	C940.1,399.3,937.7,396.4,934,396.4L934,396.4z M670,447.3L657.2,407c-2.5-7-6.8-10.6-10.3-10.6h-30.1c-3.6,0-6.9,2.8-7.7,6.4
	l-15.3,119.5c-0.4,3.6,2.2,6.5,5.8,6.5h21c3.6,0,6.8-2.9,7.1-6.5l8.1-73.6l10.5,43.1c0.9,2.9,3.6,6.4,7.1,6.4H668
	c3.6,0,9.4-1.3,12.6-6.5l15.6-27.6l-6.2,58.4c-0.4,3.6,2.2,6.5,5.8,6.5h21c3.6,0,6.6-2.9,7.3-6.4l15.1-119.9
	c0.6-3.6-1.8-6.4-5.4-6.4h-25.6c0,0-8.6-1.3-15.2,10.6C687.4,416.5,669.9,447.3,670,447.3L670,447.3z M367.8,396.4h18.8
	c3.6,0,6,2.8,5.4,6.4l-14.6,119.9c-0.6,3.6-3.7,6.4-7.3,6.4h-17.9c-4.1,0-7.4-2.5-9.8-6.9c-9.7-14.7-27.1-54-27.1-54l-4.9,54.1
	c-0.3,3.6-3.6,6.5-7.1,6.5h-21c-3.6,0-6.2-2.9-5.8-6.5l14.4-119.5c0.6-3.6,4.1-6.4,7.7-6.4h16.8c3.6,0,8.6,5.8,12.1,10.6l26.1,39.4
	l4.7-43.9C358.3,402.5,359.5,396.4,367.8,396.4L367.8,396.4z M204.6,471.4l11-31.2l4.2,31.2H204.6z M247,406.4
	c-1.9-6.1-6.3-9.9-9.9-9.9h-30.5c-3.6,0-7,2.8-7.7,6.4l-48.3,117.7c-1.9,4.8,2.2,8.3,5.7,8.3h22.6c4.7,0,7.4-5.5,8.9-9.9l8.3-23.4
	h27.1L227,520c0,0,0.6,9.2,11.7,9.2h21.1c3.6,0,7.6-5.1,6.6-10.3L247,406.4z M786.5,471.4l11-31.2l4.2,31.2H786.5z M829,406.4
	c-1.9-6.1-6.3-9.9-9.9-9.9h-30.6c-3.6,0-6.9,2.8-7.7,6.4l-48.3,117.7c-1.9,4.8,2.2,8.3,5.8,8.3h22.5c4.7,0,7.4-5.5,8.9-9.9l8.3-23.4
	H805l3.8,24.4c0,0,0.6,9.2,11.8,9.2h21c3.6,0,7.6-5.1,6.6-10.3L829,406.4z M485.1,397.3h-41.8c-38.5,0-41.6,35.9-41.6,35.9
	s-4.1,21.9-8.9,58.6c-4.7,36.9,22.3,37.2,34,37.2h42.5c3.6,0,6.8-2.9,7.4-6.5l1.6-12.7c0.4-3.6-2.7-5.6-6.3-5.6h-25.3
	c-22.9,0-19.3-15.8-19.3-15.8s5.4-36.6,7.3-50c1.9-13.5,13-16.7,23.2-16.7h24.7c3.6,0,6.5-2,6.9-5.6l1.6-12.7
	C491.2,400.3,488.6,397.3,485.1,397.3L485.1,397.3z M559,436.8c0,0-3.2,36.5-5.4,47.8c-3.2,16.4-11.1,18.3-17.8,18.3
	c-16.6,0-13.5-14.1-13.5-14.1s5.4-36.6,7.4-50c1.9-13.5,9.6-15,19.8-15C560.5,423.6,559,436.8,559,436.8L559,436.8z M566.2,397
	c-18.1-2.2-33.4,0.3-33.4,0.3c-31.5,2.8-35.9,35.9-35.9,35.9s-4.1,21.9-8.9,58.6c-4.7,36.9,22.9,38.6,40.4,38.6
	c0,0,50.5,4.8,56.6-37.5c6.2-43.5,7-56.7,8-64.1C595.2,411.4,584.2,399.2,566.2,397L566.2,397z M104.8,446.4
	c-4.6,0.2-10.5,0.2-15,0.1l2.1-17.4h17.4c0,0,8.3-0.6,7.4,7C115.6,443.9,112.2,446.1,104.8,446.4z M112.2,491.6
	c-1.5,10.3-6.7,13.3-15,13.8c-8,0.3-14.5,0-14.5,0l3.4-27.8H104C104,477.5,114.4,476.6,112.2,491.6z M129,461.6
	c20.4-10.1,21.3-25.9,22.4-35.7c2.5-24.1-21-28.2-27.6-28.2H66.2c-3.9,0-7.4,3.2-7.8,6.9L44.6,522.2c-0.4,3.9,2.3,6.9,6.1,6.9h61.1
	c18.3,0,34.7-16.4,36.9-34.3C152.2,466.9,129,461.6,129,461.6L129,461.6z"/>
</svg>
