<?xml version="1.0" encoding="utf-8"?>
<!-- Generator: Adobe Illustrator 17.1.0, SVG Export Plug-In . SVG Version: 6.00 Build 0)  -->
<!DOCTYPE svg PUBLIC "-//W3C//DTD SVG 1.1//EN" "http://www.w3.org/Graphics/SVG/1.1/DTD/svg11.dtd">
<svg version="1.1" xmlns="http://www.w3.org/2000/svg" xmlns:xlink="http://www.w3.org/1999/xlink" x="0px" y="0px"
	 viewBox="0 0 170 100.7" enable-background="new 0 0 170 100.7" xml:space="preserve">
<g id="instagram">
</g>
<g id="tripadvisor_1_">
</g>
<g id="googleplus_1_">
</g>
<g id="twitter">
</g>
<g id="twitter_riquadro">
</g>
<g id="facebook_1_">
</g>
<g id="pagobancomat_1_">
	<g id="pagobancomat">
		<path fill="none" stroke="#034EA2" stroke-width="0.7144" stroke-miterlimit="2.6131" d="M0.4,64.6v31.9c0,2.2,1.7,3.9,3.9,3.9
			h161.5c2.1,0,3.9-1.7,3.9-3.9V64.6"/>
		<path fill="#FFF200" d="M169.6,64.6V4.3c0-2.2-1.7-3.9-3.9-3.9H4.2c-2.2,0-3.9,1.7-3.9,3.9v60.3H169.6L169.6,64.6z"/>
		<path fill="none" stroke="#034EA2" stroke-width="0.7144" stroke-miterlimit="2.6131" d="M169.6,64.6V4.3c0-2.2-1.7-3.9-3.9-3.9
			H4.2c-2.2,0-3.9,1.7-3.9,3.9v60.3"/>
		<polygon fill="#034EA2" points="115.5,33 140.7,8.7 165.8,33.8 140.9,58.7 115.5,33 115.5,33 		"/>
		<polygon fill="none" stroke="#A7A9AC" stroke-width="2.1433" stroke-miterlimit="2.6131" points="115.5,33 140.7,8.7 165.8,33.8 
			140.9,58.7 115.5,33 115.5,33 		"/>
		<path fill="#A7A9AC" d="M134.2,18.3l-1.6,4h7.7c0,0,4.8-0.5,4.8,4.3c0,4.8-4.7,4.3-4.7,4.3h-6.1l-1.9,4.4h7.8c0,0,4.5-0.5,4.5,3.9
			c0,4.4-4.5,4.2-4.5,4.2h-5.5l-2.1,4.5l11.1-0.1c0,0,7.2,0.1,7.2-6.2c0-4.8-3.1-6.3-3.1-6.3h6.1l-1.8-4.2h-3.4c0,0,2.4-2.4,2.4-5.8
			c0-3.4-2.7-7-6.9-6.9L134.2,18.3L134.2,18.3L134.2,18.3z"/>
		<path fill="#A7A9AC" d="M19.7,25.1c2.4,0,4.1-1.4,4.1-5.4c0-4.3-3.3-4.9-5.4-4.9h-2.9v10.3H19.7L19.7,25.1L19.7,25.1z M5.3,50.2V4
			h14.9c8.9,0,13.2,6.1,13.2,15.6c0,9.9-4,16.2-12.9,16.2h-5.1v14.4H5.3L5.3,50.2L5.3,50.2z"/>
		<path fill="#A7A9AC" d="M49.4,35.3c-2.9,2.1-6.8,1.1-6.8,5.5c0,1.7,1.1,2.8,2.8,2.8C48.6,43.6,49.6,40,49.4,35.3L49.4,35.3
			L49.4,35.3z M50.3,50.2l-0.4-3.6c-2.5,3.5-5.1,4.6-8.5,4.6c-4.3,0-8.1-3.1-8.1-10.1c0-15.3,16.1-8.3,16.1-14.6
			c0-2.4-2-2.8-2.9-2.8c-1.2,0-2.9,0.4-3.1,3.3h-8.6c0-7.1,3.4-11.3,12.3-11.3c10.7,0,11.3,5.9,11.3,13.9v15.7c0,1.9,0,2.9,1.2,4.3
			v0.6H50.3L50.3,50.2L50.3,50.2z"/>
		<path fill="#A7A9AC" d="M69.7,32.8c0,3.3,1.1,6.5,3.5,6.5c2.8,0.2,3.8-3.3,3.8-6.9c0-3.7-0.9-7.3-3.8-7.3
			C70.5,25.1,69.7,28.5,69.7,32.8L69.7,32.8L69.7,32.8z M70.9,51.9c0,0.4,0.2,1,0.6,1.5c0.4,0.5,1,0.8,1.9,0.8
			c2.6,0,3.6-1.7,3.6-6.5V45c-1.3,1.9-3.2,3.7-6.5,3.7c-6.2,0-9.8-7.3-9.8-15.9c0-8.3,2.7-17.1,10.1-17.1c2.7,0,5.3,2.1,6.8,5.4
			v-4.4h7.9v27.1c0,10.1-0.8,18-11.9,18c-8,0-11.3-4.7-11.8-9.7H70.9L70.9,51.9L70.9,51.9z"/>
		<path fill="#A7A9AC" d="M95.8,33.1c0,6.4,1.6,9.1,3.9,9.1c2.4,0,3.9-2.8,3.9-9.1c0-4.9-1.5-8.7-3.8-8.5
			C96.7,24.6,95.8,29.3,95.8,33.1L95.8,33.1L95.8,33.1z M99.7,15.6c8,0,12.9,7,12.9,17.5c0,12.3-5.6,18.1-12.8,18.1
			c-7.2,0-12.8-5.9-12.8-17.4C86.9,22.1,92,15.6,99.7,15.6L99.7,15.6L99.7,15.6z"/>
		<path fill="none" stroke="#034EA2" stroke-width="0.7144" stroke-miterlimit="2.6131" d="M169.6,96.5c0,2.2-1.7,3.9-3.9,3.9H4.2
			c-2.2,0-3.9-1.7-3.9-3.9V4.3c0-2.2,1.7-3.9,3.9-3.9h161.5c2.1,0,3.9,1.7,3.9,3.9V96.5L169.6,96.5L169.6,96.5z"/>
		<path fill="#034EA2" d="M165.1,71.2h-14.2c-0.6,0-1.3,0.5-1.4,1.1l-0.4,2.2c-0.1,0.6,0.3,1.1,1,1.1h4.1l-2.1,18
			c-0.1,0.6,0.4,1.2,1,1.2h3.8c0.6,0,1.2-0.5,1.3-1.2l2.1-18h4c0.6,0,1.3-0.5,1.4-1.1l0.4-2.2C166.1,71.7,165.7,71.2,165.1,71.2
			L165.1,71.2L165.1,71.2z"/>
		<path fill="#034EA2" d="M117.5,80.3l-2.3-7.2c-0.5-1.3-1.2-1.9-1.9-1.9H108c-0.6,0-1.3,0.5-1.4,1.1l-2.8,21.4
			c-0.1,0.6,0.4,1.2,1,1.2h3.8c0.6,0,1.2-0.5,1.3-1.2l1.5-13.1l1.9,7.7c0.2,0.5,0.6,1.1,1.3,1.1h2.6c0.6,0,1.7-0.2,2.3-1.2l2.8-4.9
			l-1.1,10.4c-0.1,0.6,0.4,1.2,1,1.2h3.8c0.6,0,1.2-0.5,1.3-1.2l2.7-21.4c0.1-0.6-0.3-1.1-1-1.1h-4.6c0,0-1.5-0.2-2.7,1.9
			C120.7,74.8,117.5,80.3,117.5,80.3L117.5,80.3z"/>
		<path fill="#034EA2" d="M63.2,71.2h3.4c0.6,0,1.1,0.5,1,1.1l-2.6,21.4c-0.1,0.6-0.7,1.2-1.3,1.2h-3.2c-0.7,0-1.3-0.5-1.8-1.2
			C56.9,91,53.8,84,53.8,84l-0.9,9.7c-0.1,0.6-0.6,1.2-1.3,1.2h-3.8c-0.6,0-1.1-0.5-1-1.2l2.6-21.4c0.1-0.6,0.7-1.1,1.4-1.1h3
			c0.6,0,1.5,1,2.2,1.9l4.7,7l0.9-7.9C61.5,72.3,61.7,71.2,63.2,71.2L63.2,71.2L63.2,71.2z"/>
		<path fill="#034EA2" d="M33.9,84.6l2-5.6l0.8,5.6H33.9L33.9,84.6L33.9,84.6z M41.5,72.9c-0.3-1.1-1.1-1.8-1.8-1.8h-5.5
			c-0.6,0-1.3,0.5-1.4,1.1l-8.7,21c-0.3,0.9,0.4,1.5,1,1.5h4.1c0.9,0,1.3-1,1.6-1.8l1.5-4.2h4.9l0.7,4.4c0,0,0.1,1.7,2.1,1.7h3.8
			c0.6,0,1.4-0.9,1.2-1.8L41.5,72.9L41.5,72.9L41.5,72.9z"/>
		<path fill="#034EA2" d="M138.5,84.6l2-5.6l0.8,5.6H138.5L138.5,84.6L138.5,84.6z M146.1,72.9c-0.3-1.1-1.1-1.8-1.8-1.8h-5.5
			c-0.6,0-1.3,0.5-1.4,1.1l-8.7,21c-0.3,0.9,0.4,1.5,1,1.5h4.1c0.9,0,1.3-1,1.6-1.8l1.5-4.2h4.9l0.7,4.4c0,0,0.1,1.7,2.1,1.7h3.8
			c0.6,0,1.4-0.9,1.2-1.8L146.1,72.9L146.1,72.9L146.1,72.9z"/>
		<path fill="#034EA2" d="M84.3,71.3h-7.5c-6.9,0-7.5,6.4-7.5,6.4s-0.7,3.9-1.6,10.5c-0.9,6.6,4,6.7,6.1,6.7h7.6
			c0.6,0,1.2-0.5,1.3-1.2l0.3-2.3c0.1-0.6-0.5-1-1.1-1h-4.5c-4.1,0-3.5-2.8-3.5-2.8s1-6.5,1.3-8.9c0.3-2.4,2.3-3,4.2-3h4.4
			c0.6,0,1.2-0.3,1.3-1l0.3-2.3C85.4,71.9,84.9,71.3,84.3,71.3L84.3,71.3L84.3,71.3z"/>
		<path fill="#034EA2" d="M97.6,78.4c0,0-0.6,6.5-1,8.5c-0.6,2.9-2,3.3-3.2,3.3c-3,0-2.4-2.5-2.4-2.5s1-6.5,1.3-8.9
			c0.3-2.4,1.7-2.7,3.5-2.7C97.9,76,97.6,78.4,97.6,78.4L97.6,78.4L97.6,78.4z M98.9,71.3c-3.3-0.4-6,0.1-6,0.1
			c-5.7,0.5-6.5,6.4-6.5,6.4s-0.7,3.9-1.6,10.5c-0.9,6.6,4.1,6.9,7.3,6.9c0,0,9.1,0.9,10.2-6.7c1.1-7.8,1.3-10.2,1.4-11.5
			C104.1,73.9,102.1,71.7,98.9,71.3L98.9,71.3L98.9,71.3z"/>
		<path fill="#034EA2" d="M15.9,80.1c-0.8,0-1.9,0-2.7,0l0.4-3.1h3.1c0,0,1.5-0.1,1.3,1.3C17.9,79.7,17.2,80.1,15.9,80.1L15.9,80.1
			L15.9,80.1z M17.2,88.2C17,90,16,90.6,14.5,90.7c-1.4,0.1-2.6,0-2.6,0l0.6-5h3.2C15.7,85.7,17.6,85.5,17.2,88.2L17.2,88.2
			L17.2,88.2z M20.2,82.8c3.7-1.8,3.8-4.6,4-6.4c0.5-4.3-3.8-5-5-5H9c-0.7,0-1.3,0.6-1.4,1.2l-2.5,21c-0.1,0.7,0.4,1.2,1.1,1.2h11
			c3.3,0,6.2-2.9,6.6-6.1C24.4,83.8,20.2,82.8,20.2,82.8L20.2,82.8L20.2,82.8z"/>
	</g>
</g>
<g id="visa">
</g>
<g id="mastercard">
</g>
</svg>
