<?xml version="1.0" encoding="utf-8"?>
<!-- Generator: Adobe Illustrator 17.1.0, SVG Export Plug-In . SVG Version: 6.00 Build 0)  -->
<!DOCTYPE svg PUBLIC "-//W3C//DTD SVG 1.1//EN" "http://www.w3.org/Graphics/SVG/1.1/DTD/svg11.dtd">
<svg version="1.1" id="Layer_1" xmlns="http://www.w3.org/2000/svg" xmlns:xlink="http://www.w3.org/1999/xlink" x="0px" y="0px"
	 viewBox="32.1 0 896.4 560" enable-background="new 32.1 0 896.4 560" xml:space="preserve">
<g>
	<path fill="#3957A7" d="M927.9,530c0,16.4-13.6,30-30,30H62.1c-16.4,0-30-13.6-30-30V30c0-16.4,13.6-30,30-30h836.4
		c16.4,0,30,13.6,30,30v500H927.9z"/>
	<g>
		<polygon fill="#FFFFFF" points="444.3,364.3 400.7,364.3 427.9,195.7 472.1,195.7 		"/>
		<path fill="#FFFFFF" d="M363.6,195.7l-41.4,115.7l-5-25l0,0l-15-75.7c0,0-1.4-15-20.7-15h-69.3l-0.7,2.9c0,0,21.4,4.3,45.7,19.3
			l38.6,146.4h45.7l69.3-168.6H363.6z"/>
		<path fill="#FFFFFF" d="M707.9,364.3h40l-35-167.9h-35c-16.4,0-20,12.9-20,12.9l-65,155h45.7l9.3-25h55.7L707.9,364.3z M660,304.3
			l22.9-62.9l12.9,62.9H660z"/>
		<path fill="#FFFFFF" d="M595.7,236.4l6.4-36.4c0,0-19.3-7.1-39.3-7.1c-21.4,0-73.6,9.3-73.6,55.7c0,43.6,60.7,44.3,60.7,66.4
			c0,22.9-54.3,18.6-72.1,4.3l-6.4,37.9c0,0,19.3,9.3,49.3,9.3c30,0,75-15.7,75-57.9c0-43.6-61.4-47.9-61.4-66.4
			C535,223.6,577.1,226.4,595.7,236.4z"/>
	</g>
	<path fill="#F9A533" d="M317.1,286.4l-15-75.7c0,0-1.4-15-20.7-15h-69.3l-0.7,2.9c0,0,32.9,7.1,65,32.9
		C307.1,255.7,317.1,286.4,317.1,286.4z"/>
</g>
</svg>
