<?xml version="1.0" encoding="utf-8"?>
<!-- Generator: Adobe Illustrator 17.1.0, SVG Export Plug-In . SVG Version: 6.00 Build 0)  -->
<!DOCTYPE svg PUBLIC "-//W3C//DTD SVG 1.1//EN" "http://www.w3.org/Graphics/SVG/1.1/DTD/svg11.dtd">
<svg version="1.1" xmlns="http://www.w3.org/2000/svg" xmlns:xlink="http://www.w3.org/1999/xlink" x="0px" y="0px"
	 viewBox="0 0 170 106.2" enable-background="new 0 0 170 106.2" xml:space="preserve">
<g id="instagram">
</g>
<g id="tripadvisor_1_">
</g>
<g id="googleplus_1_">
</g>
<g id="twitter">
</g>
<g id="twitter_riquadro">
</g>
<g id="facebook_1_">
</g>
<g id="pagobancomat_1_">
</g>
<g id="visa">
	<g>
		<path fill="#3A58A8" d="M169.9,100.5c0,3.1-2.6,5.7-5.7,5.7H5.7c-3.1,0-5.7-2.6-5.7-5.7V5.7C0,2.6,2.6,0,5.7,0h158.6
			c3.1,0,5.7,2.6,5.7,5.7v94.8H169.9z"/>
		<g>
			<polygon fill="#FFFFFF" points="78.2,69.1 69.9,69.1 75.1,37.1 83.4,37.1 			"/>
			<path fill="#FFFFFF" d="M62.9,37.1L55,59.1l-0.9-4.7l0,0L51.2,40c0,0-0.3-2.8-3.9-2.8H34.2L34,37.7c0,0,4.1,0.8,8.7,3.7L50,69.1
				h8.7l13.1-32H62.9L62.9,37.1z"/>
			<path fill="#FFFFFF" d="M128.2,69.1h7.6l-6.6-31.8h-6.6c-3.1,0-3.8,2.4-3.8,2.4l-12.3,29.4h8.7l1.8-4.7h10.6L128.2,69.1z
				 M119.1,57.7l4.3-11.9l2.4,11.9H119.1z"/>
			<path fill="#FFFFFF" d="M106.9,44.8l1.2-6.9c0,0-3.7-1.3-7.5-1.3c-4.1,0-14,1.8-14,10.6c0,8.3,11.5,8.4,11.5,12.6
				c0,4.3-10.3,3.5-13.7,0.8l-1.2,7.2c0,0,3.7,1.8,9.3,1.8c5.7,0,14.2-3,14.2-11c0-8.3-11.6-9.1-11.6-12.6
				C95.4,42.4,103.4,42.9,106.9,44.8z"/>
		</g>
		<path fill="#FAA634" d="M54,54.3L51.2,40c0,0-0.3-2.8-3.9-2.8H34.1L34,37.7c0,0,6.2,1.3,12.3,6.2C52.2,48.5,54,54.3,54,54.3z"/>
	</g>
</g>
<g id="mastercard">
</g>
</svg>
