<svg version="1.1" id="Livello_1" xmlns="http://www.w3.org/2000/svg" x="0" y="0" viewBox="0 0 266.97 137.78" xml:space="preserve"><style>.st0{fill:#3b3223}</style><path class="st0" d="M2.62 39.39h261.73v62.81H2.62z"/><path d="M266.97 104.82H0V36.78h266.97v68.04zM5.23 99.59h256.5V42.01H5.23v57.58zm52.32-17.66h-7.13V59.58h6.97c5.4 0 6.31 4.18 6.31 6.25v.38c0 1.32-.79 3.2-2.26 4.18 1.57 1 2.54 2.79 2.54 4.49v.72c0 2.03-1.07 6.33-6.43 6.33zm2.04-16.07c0-2.01-1.41-2.23-2.26-2.23H54.5v4.8h3.01c.91 0 2.07-.31 2.07-2.29v-.28zm.37 9.03c0-2.07-1.35-2.45-2.32-2.45H54.5v5.4h2.98c.88 0 2.48-.28 2.48-2.32v-.63zm10.43 7.04V59.58h12.93v4.05h-8.88v4.52h8.22v4.05h-8.22v5.68h8.88v4.05H70.39zm18.86 0V59.58h12.93v4.05H93.3v4.52h8.22v4.05H93.3v5.68h8.88v4.05H89.25zm28.82 0l-4.05-8.63h-1.82v8.63h-4.08V59.58h7c5.43 0 6.5 4.3 6.5 6.34v.97c0 1.6-.6 4.49-3.36 5.81l4.39 9.23h-4.58zm-.57-15.92c0-2.07-1.57-2.38-2.45-2.38h-2.86v5.62h2.92c.88 0 2.38-.28 2.38-2.39v-.85zm16.49 16.2c-4.18 0-6.88-3.04-6.88-7.06h4.05c0 1.95 1.19 3.01 2.79 3.01 1.88 0 3.08-1.03 3.08-2.48 0-1.13-.66-1.85-1.54-2.36-.85-.5-2.35-1.26-4.83-2.51-1.82-.91-3.2-2.98-3.2-5.34 0-3.58 2.7-6.09 6.56-6.09 4.02 0 6.78 2.92 6.78 6.91h-4.11c0-1.85-1.13-2.89-2.67-2.89-1.38 0-2.51.75-2.51 2.13 0 .75.47 1.38 1.32 1.82 2.7 1.38 3.73 1.88 4.58 2.35 2.39 1.29 3.64 3.39 3.64 6.03 0 3.75-3.08 6.48-7.06 6.48zm20.37-18.55v18.27h-4.05V63.66h-4.99v-4.08h14.06v4.08h-5.02zm20.15 18.27l-4.05-8.63h-1.82v8.63h-4.08V59.58h7c5.43 0 6.5 4.3 6.5 6.34v.97c0 1.6-.6 4.49-3.36 5.81l4.39 9.23h-4.58zm-.56-15.92c0-2.07-1.57-2.38-2.45-2.38h-2.86v5.62h2.92c.88 0 2.39-.28 2.39-2.39v-.85zm16.92 16.2c-5.24 0-6.72-4.36-6.72-6.5v-9.98c0-2.07 1.35-6.31 6.75-6.31 5.18 0 6.72 4.24 6.72 6.34v9.98c0 2.14-1.41 6.47-6.75 6.47zm2.64-16.42c0-2.07-1.79-2.35-2.6-2.35-.88 0-2.7.28-2.7 2.35v9.92c0 2.1 1.82 2.42 2.7 2.42.81 0 2.6-.31 2.6-2.42v-9.92zm18.02-2.13v18.27h-4.05V63.66h-4.99v-4.08h14.06v4.08h-5.02z" fill="#c7c4c3"/><path d="M261.73 42.01v1.05H6.28V99.6H5.23V42.01h256.5zM84.36 60.62h-1.04v3h-8.88v4.52h1.04v-3.48h8.88v-4.04zm18.87 22.35H90.3v-1.04h11.89v-3.01h1.04v4.05zm0-18.3h-8.88v3.48H93.3v-4.52h8.88v-3h1.04v4.04zM93.3 72.2h8.22v-3.01h1.05v4.05h-8.23v4.64H93.3V72.2zm19.95 10.77h-4.08v-1.04h3.04V73.3h1.82l.49 1.04h-1.26v8.63zm6.05-9.23l4.39 9.23h-4.58l-.49-1.04h4.03l-4.39-9.23c2.76-1.32 3.36-4.21 3.36-5.81v-.97c0-1.04-.29-2.66-1.28-4.01 1.84 1.43 2.33 3.72 2.33 5.05v.97c-.01 1.61-.61 4.5-3.37 5.81zM74.43 72.2h8.22v-3.01h1.05v4.05h-8.22v4.64h-1.04V72.2zm-15.02-7.37c-.36-.13-.73-.16-1.04-.16h-2.83v3.76H54.5v-4.8h2.82c.68 0 1.69.15 2.09 1.2zm-4.91 7.62h3.14c.74 0 1.69.22 2.11 1.24-.35-.14-.73-.19-1.06-.19h-3.14v4.35H54.5v-5.4zm4.09 10.52h-7.13v-1.04h6.08c5.37 0 6.43-4.3 6.43-6.34v-.72c0-1.11-.45-2.23-1.17-3.17 1.36 1.03 2.22 2.65 2.22 4.22v.72c.01 2.03-1.06 6.33-6.43 6.33zm25.77 0H71.43v-1.04h11.89v-3.01h1.04v4.05zm32.93-18.08c-.41-.17-.85-.22-1.19-.22h-2.86v4.58h-1.05v-5.62h2.86c.69 0 1.78.2 2.24 1.26zm-52.55 1.98v.38c0 1.29-.76 3.12-2.18 4.11-.33-.37-.7-.71-1.12-.97 1.48-.97 2.26-2.86 2.26-4.18v-.38c0-1.07-.25-2.71-1.24-4.04 1.87 1.39 2.28 3.7 2.28 5.08zm147.83 16.1h-4.05v-1.04h3V63.66h5.02v-3.04h1.05v4.08h-5.02v18.27zm-76.24-18.22c-.37-.19-.8-.3-1.27-.3-1.38 0-2.51.75-2.51 2.13 0 .26.07.49.18.71-.78-.43-1.23-1.04-1.23-1.76 0-1.38 1.13-2.13 2.51-2.13 1.04.01 1.88.48 2.32 1.35zm37.4.14c-.41-.18-.85-.22-1.19-.22h-2.86v4.58h-1.05v-5.62h2.86c.69 0 1.79.2 2.24 1.26zm-4.04 18.08h-4.08v-1.04h3.04V73.3h1.82l.49 1.04h-1.27v8.63zm6.06-9.23l4.4 9.23h-4.58l-.49-1.04h4.03l-4.39-9.23c2.76-1.32 3.36-4.21 3.36-5.81v-.97c0-1.04-.29-2.66-1.28-4.01 1.84 1.43 2.32 3.72 2.32 5.05v.97c-.01 1.61-.61 4.5-3.37 5.81zm31.73-9.04h-3.95v-1.04h3.95v1.04zm-20.86 16.13c1.01.81 2.38 1.38 4.25 1.38 5.34 0 6.75-4.33 6.75-6.47v-9.98c0-1.04-.38-2.61-1.4-3.93 1.8 1.42 2.44 3.63 2.44 4.97v9.98c0 2.13-1.41 6.46-6.75 6.46-2.6.01-4.27-1.06-5.29-2.41zm6.67-16.07c-.48-.21-1-.28-1.35-.28-.88 0-2.7.28-2.7 2.36v9.92c0 .44.09.78.22 1.07-.67-.31-1.27-.92-1.27-2.12v-9.92c0-2.07 1.82-2.35 2.7-2.35.66 0 1.92.19 2.4 1.32zm-61.98 11.43h.9c0 .65.14 1.2.38 1.64-.61-.32-1.07-.87-1.28-1.64zm-1.62 4.6c1.13.88 2.58 1.41 4.29 1.41 3.99 0 7.06-2.73 7.06-6.47 0-1.6-.47-3.01-1.37-4.15 1.58 1.28 2.42 3.06 2.42 5.2 0 3.73-3.08 6.46-7.06 6.46-2.3.01-4.14-.94-5.34-2.45zm.11-10.53c.27.21.56.4.86.56 2.48 1.25 3.99 2.01 4.83 2.51.51.29.93.67 1.21 1.15-.06-.03-.1-.08-.16-.11-.85-.5-2.36-1.26-4.83-2.51-.73-.37-1.39-.92-1.91-1.6zm25.6 12.71h-4.05v-1.04h3V63.66h5.02v-3.04h1.05v4.08h-5.02v18.27zm-13.56-15.63h-4.11c0-.39-.06-.73-.15-1.04h3.22c0-1.75-.56-3.27-1.49-4.45 1.57 1.23 2.53 3.17 2.53 5.49zm8.47-2.64h-3.94v-1.04h3.94v1.04z"/><path class="st0" d="M219.14 29.12H47.83v-1.85h171.31v1.85zm0-3.24H47.83v.52h171.31v-.52zm0 86.6H47.83v1.85h171.31v-1.85zm0 2.72H47.83v.52h171.31v-.52zM85.27 14.95c3.04 0 4.78-1.51 5.63-2.7a.83.83 0 00.18-.5c0-.41-.41-.81-.83-.81-.18 0-.39.07-.53.22-.72.73-1.72 1.57-4.17 1.57-2.22 0-4.19-1.23-4.19-4.58 0-3.97 2.34-5.79 4.13-5.79 1.48 0 1.85.63 1.85 1.4 0 .55-.37.85-.37 1.53s.55 1.2 1.38 1.2c1.04 0 1.79-1.25 1.79-2.55 0-2.03-1.38-3.76-4.34-3.76-3.93 0-7.66 2.69-7.66 7.97.01 3.87 2.87 6.8 7.13 6.8zm15.59 0c1.44 0 2.05-.72 2.4-1.37.22-.43.24-.81-.08-1.07-.31-.26-.72-.28-.98 0-.18.2-.42.31-.7.31-.35 0-.63-.29-.65-.64 0-2.21.18-3.6.18-6 0-.67-.54-1.2-1.2-1.2-.39 0-.72.17-.94.44-.76-.46-1.73-.63-2.56-.63-1.7 0-4.61 1.57-4.61 5.35 0 2.77 1.47 4.8 3.69 4.8 1.59 0 2.55-.68 3.19-1.31.45.78 1.3 1.32 2.26 1.32zm-4.8-2.4c-1.05 0-1.75-.83-1.75-2.4 0-2.31 1.18-3.04 2.4-3.04 1.2 0 1.75.37 1.75.37l-.09 2.95c-.04.92-.63 2.12-2.31 2.12zm8.12-10.98c0 .7.46 1.27 1.09 1.48-.18.7-.5 1.14-.68 1.33-.29.28-.31.78 0 1.04s.74.28 1.04 0c.3-.28 1.69-1.94 1.69-3.84 0-.87-.7-1.57-1.57-1.57-.86-.01-1.57.69-1.57 1.56zm19.85.37c0 1.13.31 2.46-.09 4.61-.52 2.77-2.32 5.55-4.46 5.93.79-8.73-.18-12.29-4.08-12.29-1.49 0-2.4.61-2.92 1.77-.19.44-.02.81.29 1.01.37.24.83.11 1.09-.22.17-.22.35-.3.59-.3 1.33 0 2.66 2.11 2.66 11.39 0 .63.53 1.11 1.11 1.11 5.35 0 8.95-6.87 8.95-13.01 0-.87-.7-1.57-1.57-1.57-.87 0-1.57.7-1.57 1.57zm9.05 11.07c-1.29 0-2.23-.61-2.6-1.72.44.05 1.03.09 1.68.09 3.21 0 4.43-1.77 4.43-3.27 0-2.01-1.48-3.32-3.88-3.32-2.91 0-4.98 1.97-4.98 5.35 0 2.66 2.22 4.8 5.35 4.8 2.47 0 4.25-1.37 4.25-2.66 0-.37-.33-.74-.78-.74-.24 0-.46.11-.61.33-.53.77-1.29 1.14-2.86 1.14zm-.37-6c.61 0 1.11.5 1.11 1.11 0 .85-.63 1.64-2.03 1.64-.61 0-1.13-.06-1.46-.11.15-1.84 1.18-2.64 2.38-2.64zm10.53 5.91c-1.38 0-2.49-1.11-2.49-2.77 0-2.21 1.11-3.14 2.4-3.14.74 0 1.01.7 1.53.7.87 0 1.36-.59 1.36-1.26 0-.31-.07-.61-.35-.85-.5-.44-1.31-.81-2.55-.81-2.92 0-4.99 1.97-4.99 5.35 0 2.66 1.85 4.8 4.62 4.8 2.27 0 3.65-1.2 4.17-2.42.18-.44 0-.79-.37-1-.35-.17-.72-.05-.94.26-.53.77-1.34 1.14-2.39 1.14zm9.42 0c-1.38 0-2.49-1.11-2.49-2.77 0-2.21 1.11-3.14 2.4-3.14.74 0 1.02.7 1.53.7.87 0 1.37-.59 1.37-1.26 0-.31-.08-.61-.35-.85-.5-.44-1.31-.81-2.55-.81-2.91 0-4.99 1.97-4.99 5.35 0 2.66 1.85 4.8 4.62 4.8 2.27 0 3.65-1.2 4.17-2.42.18-.44 0-.79-.37-1-.35-.17-.72-.05-.94.26-.54.77-1.35 1.14-2.4 1.14zm13.38 2.03c1.44 0 2.05-.72 2.4-1.37.22-.43.24-.81-.07-1.07s-.72-.28-.98 0c-.18.2-.43.31-.7.31-.35 0-.65-.29-.65-.64 0-2.21.18-2.95.18-4.43 0-.81-.33-2.95-3.14-2.95-1 0-2.17.4-3.04 1.29 0-1.38.09-3.17.09-4.71 0-.76-.63-1.38-1.39-1.38-.76 0-1.38.63-1.38 1.38 0 1.57.18 3.42.18 8.77 0 .92-.18 2.49-.18 3.32 0 .72.57 1.29 1.29 1.29.72 0 1.29-.57 1.29-1.29V9.6c0-1.87 1.35-2.49 2.49-2.49.91 0 1.2.57 1.2 1.2 0 1.85-.18 2.95-.18 4.06a2.601 2.601 0 002.59 2.58zm3.24-12.83c0 .87.7 1.57 1.57 1.57.87 0 1.57-.7 1.57-1.57 0-.87-.7-1.57-1.57-1.57-.87 0-1.57.7-1.57 1.57zm2.69 12.83c1.44 0 2.05-.72 2.4-1.37.22-.43.24-.81-.08-1.07-.31-.26-.72-.28-.98 0-.18.2-.43.31-.7.31-.35 0-.65-.29-.65-.64 0-2.21.19-3.6.19-6 0-.76-.63-1.38-1.39-1.38-.76 0-1.38.63-1.38 1.38 0 0 .18 2.4.18 3.97 0 .92-.09 1.57-.09 2.21.01 1.43 1.08 2.59 2.5 2.59zm12 0c1.44 0 2.05-.72 2.4-1.37.22-.43.24-.81-.08-1.07-.31-.26-.72-.28-.98 0-.18.2-.43.31-.7.31-.35 0-.63-.29-.65-.64 0-2.21.19-3.6.19-6 0-.67-.54-1.2-1.2-1.2-.39 0-.72.17-.94.44-.76-.46-1.74-.63-2.57-.63-1.7 0-4.62 1.57-4.62 5.35 0 2.77 1.48 4.8 3.69 4.8 1.59 0 2.55-.68 3.19-1.31.46.78 1.31 1.32 2.27 1.32zm-4.8-2.4c-1.05 0-1.75-.83-1.75-2.4 0-2.31 1.18-3.04 2.4-3.04 1.2 0 1.75.37 1.75.37l-.09 2.95c-.04.92-.63 2.12-2.31 2.12zM68.58 9.87c0 1.12-.91 2.03-2.02 2.03-1.12 0-2.03-.91-2.03-2.03 0-1.12.91-2.02 2.03-2.02 1.11 0 2.02.9 2.02 2.02zm133.86 0c0 1.12-.91 2.03-2.02 2.03-1.12 0-2.02-.91-2.02-2.03a2.02 2.02 0 014.04 0zM78.42 134.76h1.44v-6.8h-1.44v-.85h4.21v.85h-1.44v6.8h1.44v.85h-4.21v-.85zm4.97 0h1.08v-7.1h-1.08v-.93h2.29v8.03h1.07v.85h-3.36v-.85zm9.04-1.36c-.29 0-.53-.04-.78-.04-.41 0-.62.27-.62.52 0 .31.22.52.87.52h1.56c1.36 0 1.89.61 1.89 1.44 0 1.05-1.01 1.94-3.08 1.94-1.59 0-2.61-.56-2.61-1.33 0-.54.5-1.06 1.24-1.15v-.06c-.7-.23-.94-.62-.94-1.05 0-.44.49-.93 1.11-1.06-.65-.31-1.06-.8-1.06-1.59 0-1.24 1.05-1.94 2.42-1.94.32 0 .65.05.93.14.39-.66.96-1.15 1.66-1.15.5 0 .84.31.84.74 0 .36-.26.65-.6.65-.35 0-.56-.21-.56-.53 0-.04 0-.09.01-.14-.23-.05-.62.26-.84.66.58.34.96.87.96 1.51.01 1.24-1.02 1.92-2.4 1.92zm1.87 2.75c0-.41-.23-.7-.9-.7h-1.45c-.78 0-1.14.27-1.14.8 0 .44.29.87 1.55.87 1.14 0 1.94-.38 1.94-.97zm-.73-4.66c0-.75-.42-1.3-1.19-1.3-.74 0-1.11.4-1.11 1.32s.45 1.3 1.2 1.3c.73 0 1.1-.44 1.1-1.32zm3.15 2.35v-3.3h-.95v-.85h2.16v3.71c0 .45.09.83.31 1.05.15.15.38.25.67.25.72 0 1.54-.71 1.54-1.9v-2.25h-.98v-.85h2.2v5.07h.94v.85h-2.13v-1.5c-.67 1.12-1.37 1.58-2.23 1.58-.93-.01-1.53-.69-1.53-1.86zm6.7-.35h.79c.33.95 1.06 1.61 1.89 1.61.7 0 1-.35 1-.83 0-.52-.4-.76-1.57-1.09-1.42-.4-2.01-.89-2.01-1.84 0-.96.83-1.76 2.04-1.76.61 0 1.15.23 1.44.69l.13-.69h.76v2.03h-.78c-.4-.87-.78-1.4-1.58-1.4-.45 0-.92.26-.92.75 0 .52.45.79 1.51 1.07 1.37.38 2.02.82 2.02 1.82 0 .89-.79 1.86-2.12 1.86-.74 0-1.35-.31-1.72-.78l-.14.78h-.75v-2.22zm7.59-5.34v1.61h1.94v.79h-1.94v3.49c0 .58.17.87.71.87.36 0 .65-.34.91-1.02l.58.25c-.33 1.14-1.02 1.6-1.85 1.6-1.03 0-1.57-.61-1.57-1.58v-3.61h-1.16v-.79h1.16v-1.48l1.22-.13zm2.69 4.53c0-1.79 1.19-3.09 2.96-3.09 1.83 0 2.95 1.24 2.95 3.04 0 1.81-1.19 3.1-2.95 3.1-1.85 0-2.96-1.24-2.96-3.05zm4.56-.03c0-1.63-.63-2.37-1.67-2.37-1.02 0-1.55.74-1.55 2.37 0 1.63.63 2.38 1.67 2.38 1.01 0 1.55-.75 1.55-2.38zm4.71 2.11h1.07v-4.22h-1.07v-.85h2.29v5.07h1.08v.85h-3.36v-.85zm.76-7.15c0-.52.33-.88.84-.88.5 0 .84.34.84.85 0 .52-.33.87-.84.87s-.84-.32-.84-.84zm3.25 7.15h.95v-4.22h-.95v-.85h2.14v1.5c.67-1.11 1.37-1.58 2.22-1.58.94 0 1.58.69 1.58 1.85v3.3h.95v.85h-3.03v-.85h.87v-2.86c0-.44-.1-.81-.32-1.03-.17-.17-.4-.26-.7-.26-.72 0-1.54.71-1.54 1.9v2.25h.87v.85h-3.03v-.85zm9.88 0h.94v-4.22h-1.17v-.79h1.17v-.27c0-2.04 1.32-2.83 2.51-2.83 1.06 0 1.67.52 1.67 1.16 0 .41-.29.8-.71.8-.46 0-.79-.26-.79-.8 0-.1.04-.3.11-.43a.896.896 0 00-.46-.1c-.66 0-1.11.45-1.11 2.13v.34h1.71v.79h-1.71v4.22h1.34v.85h-3.5v-.85zm5.79-2.03c.04 1.46.67 2.19 1.81 2.19.72 0 1.27-.31 1.63-1.1h.62c-.34 1.27-1.27 1.91-2.57 1.91-1.81 0-2.83-1.31-2.83-3.01 0-1.77 1.23-3.13 2.91-3.13 1.77 0 2.56 1.58 2.52 3.14h-4.09zm.02-.61h2.83c-.09-1.1-.47-1.85-1.37-1.85-.82 0-1.36.52-1.46 1.85zm4.96 2.64h.95v-4.22h-.95v-.85h2.13v1.37c.3-.99 1.07-1.45 1.75-1.45.66 0 1.03.45 1.03 1.01 0 .45-.34.84-.78.84-.45 0-.81-.27-.81-.76 0-.06.01-.14.03-.22-.58-.03-.99.63-1.19 1.41v2.87h1.13v.85h-3.29v-.85zm13.42-5.14c.95 0 1.52.69 1.52 1.85v3.3h.94v.85h-2.96v-.85h.8v-2.86c0-.46-.09-.84-.31-1.06-.15-.16-.36-.23-.65-.23-.65 0-1.49.71-1.49 1.9v2.25h.8v.85h-2.82v-.85h.8v-2.86c0-.46-.09-.84-.31-1.06-.16-.16-.36-.23-.65-.23-.66 0-1.49.71-1.49 1.9v2.25h.8v.85h-2.96v-.85h.94v-4.22h-.94v-.85h2.13v1.5c.67-1.11 1.4-1.58 2.17-1.58.83 0 1.41.45 1.49 1.51.71-1.09 1.41-1.51 2.19-1.51zm4.45 3.11c.04 1.46.67 2.19 1.81 2.19.72 0 1.27-.31 1.63-1.1h.62c-.33 1.27-1.27 1.91-2.57 1.91-1.81 0-2.84-1.31-2.84-3.01 0-1.77 1.23-3.13 2.91-3.13 1.77 0 2.56 1.58 2.52 3.14h-4.08zm.02-.61h2.83c-.09-1.1-.46-1.85-1.37-1.85-.82 0-1.36.52-1.46 1.85zm4.96 2.64h.95v-4.22h-.95v-.85h2.14v1.5c.67-1.11 1.37-1.58 2.22-1.58.94 0 1.58.69 1.58 1.85v3.3h.95v.85h-3.03v-.85h.87v-2.86c0-.44-.1-.81-.33-1.03-.16-.17-.4-.26-.7-.26-.72 0-1.54.71-1.54 1.9v2.25h.87v.85h-3.03v-.85zm9.47-6.61v1.61h1.94v.79h-1.94v3.49c0 .58.17.87.71.87.36 0 .65-.34.91-1.02l.58.25c-.34 1.14-1.02 1.6-1.85 1.6-1.03 0-1.56-.61-1.56-1.58v-3.61h-1.17v-.79h1.17v-1.48l1.21-.13zm2.68 4.53c0-1.79 1.19-3.09 2.96-3.09 1.83 0 2.95 1.24 2.95 3.04 0 1.81-1.19 3.1-2.95 3.1-1.85 0-2.96-1.24-2.96-3.05zm4.57-.03c0-1.63-.63-2.37-1.67-2.37-1.02 0-1.55.74-1.55 2.37 0 1.63.63 2.38 1.67 2.38 1 0 1.55-.75 1.55-2.38z"/></svg>