<svg id="Isolation_Mode" data-name="Isolation Mode" xmlns="http://www.w3.org/2000/svg" viewBox="0 0 266.97 139.07"><path fill="#3f3120" d="M2.62 39.39h261.73v62.81H2.62z"/><path d="M267 104.82H0v-68h267zM5.23 99.59h256.5V42H5.23zm52.32-17.66h-7.13V59.58h7c5.4 0 6.31 4.17 6.31 6.24v.38a5.43 5.43 0 01-2.26 4.18A5.5 5.5 0 0164 74.87v.72c0 2.04-1.09 6.34-6.45 6.34zm2-16.07a2 2 0 00-2.26-2.23H54.5v4.8h3c.92 0 2.08-.31 2.08-2.29zm.37 9a2.14 2.14 0 00-2.32-2.44h-3.1v5.4h3a2.21 2.21 0 002.5-2.3zm10.43 7V59.58h12.97v4.05h-8.89v4.52h8.23v4h-8.23v5.68h8.89v4.05zm18.86 0V59.58h12.94v4.05H93.3v4.52h8.23v4H93.3v5.68h8.89v4.05zm28.82 0l-4-8.64h-1.83v8.64h-4.08V59.58h7a6.07 6.07 0 016.5 6.34v1a6.33 6.33 0 01-3.36 5.81l4.39 9.23zM117.5 66a2.21 2.21 0 00-2.45-2.38h-2.85v5.62h2.92a2.15 2.15 0 002.38-2.39zM134 82.21c-4.18 0-6.88-3-6.88-7.06h4a2.71 2.71 0 002.79 3c1.89 0 3.08-1 3.08-2.48a2.64 2.64 0 00-1.54-2.35c-.85-.51-2.35-1.26-4.83-2.51a6.05 6.05 0 01-3.2-5.34c0-3.58 2.7-6.09 6.56-6.09a6.58 6.58 0 016.78 6.9h-4.12a2.59 2.59 0 00-2.64-2.87 2.22 2.22 0 00-2.51 2.13 2.09 2.09 0 001.31 1.82c2.7 1.38 3.74 1.89 4.59 2.36a6.54 6.54 0 013.64 6c.02 3.76-3.03 6.49-7.03 6.49zm20.37-18.55v18.27h-4.05V63.66h-5v-4.08h14.06v4.08zm20.15 18.27l-4-8.64h-1.82v8.64h-4.08V59.58h7a6.07 6.07 0 016.5 6.34v1a6.33 6.33 0 01-3.36 5.81l4.4 9.23zM174 66a2.21 2.21 0 00-2.45-2.38h-2.86v5.62h2.92a2.16 2.16 0 002.39-2.38zm16.92 16.2a6.46 6.46 0 01-6.72-6.5v-10c0-2.07 1.35-6.31 6.75-6.31a6.41 6.41 0 016.72 6.34v10a6.4 6.4 0 01-6.8 6.48zm2.64-16.42a2.33 2.33 0 00-2.61-2.35c-.88 0-2.7.28-2.7 2.35v9.92a2.4 2.4 0 002.7 2.42 2.36 2.36 0 002.61-2.42zm18-2.13v18.28h-4.05V63.66h-5v-4.08h14.06v4.08z" fill="#bbb8b8"/><path d="M261.73 42v1H6.28v56.59h-1V42zM84.36 60.62h-1v3h-8.93v4.52h1v-3.47h8.88zM103.23 83H90.3v-1h11.89v-3h1zm0-18.3h-8.88v3.48h-1v-4.55h8.89v-3h1zm-9.93 7.5h8.23v-3h1v4h-8.18v4.64h-1zm20 10.77h-4.09v-1h3v-8.68H114l.49 1h-1.26zm6-9.23l4.4 9.26h-4.59l-.48-1h4l-4.39-9.23a6.33 6.33 0 003.36-5.81v-1a7 7 0 00-1.28-4 6.54 6.54 0 012.32 5v1a6.31 6.31 0 01-3.34 5.78zM74.43 72.2h8.23v-3h1v4h-8.18v4.64h-1zm-15-7.37a3.1 3.1 0 00-1-.16h-2.88v3.76h-1v-4.8h2.83a2 2 0 012.03 1.2zm-4.93 7.62h3.14a2.1 2.1 0 012.11 1.24 2.74 2.74 0 00-1.07-.2h-3.13v4.36h-1zM58.59 83h-7.12v-1h6.08c5.36 0 6.43-4.3 6.43-6.34v-.72a5.35 5.35 0 00-1.17-3.18A5.48 5.48 0 0165 75.91v.72c0 2.04-1 6.37-6.41 6.37zm25.77 0H71.43v-1h11.89v-3h1zm32.93-18.08a3.18 3.18 0 00-1.19-.22h-2.85v4.58h-1v-5.65h2.85a2.3 2.3 0 012.19 1.26zm-52.55 2v.38a5.38 5.38 0 01-2.18 4.1 5.47 5.47 0 00-1.12-1 5.43 5.43 0 002.26-4.2v-.38a6.92 6.92 0 00-1.24-4 6.33 6.33 0 012.28 5.05zM212.57 83h-4v-1h3V63.66h5v-3h1v4.04h-5zm-76.24-18.25a2.77 2.77 0 00-1.27-.3 2.22 2.22 0 00-2.51 2.14 1.73 1.73 0 00.18.71 2 2 0 01-1.22-1.76 2.22 2.22 0 012.49-2.13 2.46 2.46 0 012.33 1.34zm37.4.14a3.16 3.16 0 00-1.18-.22h-2.86v4.58h-1.05v-5.62h2.86a2.29 2.29 0 012.23 1.26zm-4 18.08h-4.08v-1h3v-8.68h1.82l.5 1h-1.27zm6.06-9.23l4.35 9.26h-4.58l-.49-1h4l-4.4-9.23a6.33 6.33 0 003.36-5.81v-1a7 7 0 00-1.28-4 6.56 6.56 0 012.33 5v1a6.31 6.31 0 01-3.33 5.78zm31.73-9h-3.95v-1h3.95zm-20.9 16.09a6.56 6.56 0 004.25 1.38 6.4 6.4 0 006.75-6.47v-10a6.73 6.73 0 00-1.4-3.92 6.66 6.66 0 012.44 5v10a6.4 6.4 0 01-6.74 6.46 6.28 6.28 0 01-5.3-2.45zm6.67-16.07a3.35 3.35 0 00-1.34-.28 2.38 2.38 0 00-2.7 2.36v9.92a2.57 2.57 0 00.22 1.07 2.14 2.14 0 01-1.27-2.12v-9.92c0-2.07 1.82-2.35 2.7-2.35a2.5 2.5 0 012.39 1.32zm-62 11.43h.9a3.43 3.43 0 00.38 1.64 2.54 2.54 0 01-1.26-1.64zm-1.62 4.6a6.84 6.84 0 004.3 1.42c4 0 7.06-2.73 7.06-6.47a6.58 6.58 0 00-1.37-4.15 6.45 6.45 0 012.41 5.2c0 3.73-3.07 6.46-7.06 6.46a6.62 6.62 0 01-5.32-2.46zm.11-10.53a5.52 5.52 0 00.86.56c2.48 1.25 4 2 4.83 2.51a3.19 3.19 0 011.21 1.15c-.06 0-.1-.08-.16-.11-.85-.5-2.36-1.25-4.84-2.51a5.69 5.69 0 01-1.88-1.6zM155.4 83h-4v-1h3V63.66h5v-3h1.05v4.04h-5zm-13.56-15.66h-4.11a3.8 3.8 0 00-.15-1h3.22a7.09 7.09 0 00-1.49-4.44 6.81 6.81 0 012.53 5.44zm8.47-2.64h-3.94v-1h3.94z"/><path d="M219.14 29.12H47.83v-1.84h171.31zm0-3.24H47.83v.52h171.31zm0 86.6H47.83v1.84h171.31zm0 2.72H47.83v.52h171.31zM85.27 15a6.62 6.62 0 005.63-2.7.82.82 0 00.19-.49.88.88 0 00-.84-.82.77.77 0 00-.53.23 5.15 5.15 0 01-4.17 1.56c-2.22 0-4.19-1.23-4.19-4.57 0-4 2.34-5.8 4.13-5.8 1.48 0 1.85.63 1.85 1.4 0 .56-.37.85-.37 1.53a1.25 1.25 0 001.38 1.16c1 0 1.79-1.26 1.79-2.55 0-2-1.38-3.76-4.33-3.76-3.94 0-7.66 2.69-7.66 8C78.15 12 81 15 85.27 15zm15.59 0a2.46 2.46 0 002.4-1.37.81.81 0 00-.08-1.07.69.69 0 00-1 0 .93.93 0 01-.7.32.66.66 0 01-.64-.65c0-2.21.18-3.6.18-6A1.2 1.2 0 0099.84 5a1.17 1.17 0 00-.94.45 4.82 4.82 0 00-7.18 4.72c0 2.77 1.48 4.8 3.69 4.8a4.3 4.3 0 003.19-1.31 2.64 2.64 0 002.26 1.34zm-4.8-2.4c-1 0-1.76-.83-1.76-2.4 0-2.31 1.19-3 2.4-3a3.4 3.4 0 011.75.36l-.09 3a2.13 2.13 0 01-2.3 1.99zm8.12-11a1.54 1.54 0 001.09 1.4 3 3 0 01-.68 1.33.71.71 0 000 1 .78.78 0 001 0 6.2 6.2 0 001.69-3.84 1.57 1.57 0 10-3.14 0zm19.82.34a18.2 18.2 0 01-.09 4.61c-.52 2.77-2.33 5.56-4.47 5.93.79-8.74-.18-12.29-4.08-12.29A2.84 2.84 0 00112.48 2a.77.77 0 00.29 1 .82.82 0 001.09-.22.67.67 0 01.59-.3c1.33 0 2.66 2.11 2.66 11.39a1.12 1.12 0 001.11 1.13c5.35 0 9-6.87 9-13a1.57 1.57 0 00-3.14 0zM133.08 13a2.53 2.53 0 01-2.6-1.72 13 13 0 001.68.1c3.21 0 4.43-1.77 4.43-3.27 0-2-1.48-3.32-3.88-3.32-2.91 0-5 2-5 5.35 0 2.66 2.22 4.8 5.35 4.8 2.47 0 4.24-1.37 4.24-2.66a.77.77 0 00-.77-.74.71.71 0 00-.61.34c-.51.76-1.27 1.12-2.84 1.12zm-.37-6a1.11 1.11 0 011.11 1.11c0 .85-.63 1.64-2 1.64a8.68 8.68 0 01-1.46-.11c.12-1.83 1.15-2.64 2.35-2.64zm10.53 5.91a2.55 2.55 0 01-2.49-2.77c0-2.21 1.1-3.14 2.4-3.14.74 0 1 .7 1.53.7A1.26 1.26 0 00146 6.46a1 1 0 00-.35-.85 3.73 3.73 0 00-2.54-.81c-2.92 0-5 2-5 5.35a4.57 4.57 0 004.62 4.8 4.3 4.3 0 004.27-2.42.76.76 0 00-1.31-.74 2.76 2.76 0 01-2.45 1.13zm9.42 0a2.56 2.56 0 01-2.5-2.77c0-2.21 1.11-3.14 2.4-3.14.74 0 1 .7 1.54.7a1.26 1.26 0 001.36-1.25 1 1 0 00-.35-.85 3.74 3.74 0 00-2.55-.81c-2.91 0-5 2-5 5.35A4.57 4.57 0 00152.2 15a4.29 4.29 0 004.16-2.42.75.75 0 00-1.3-.74 2.76 2.76 0 01-2.4 1.08zM166 15a2.46 2.46 0 002.4-1.37c.22-.42.24-.81-.07-1.07a.69.69 0 00-1 0 .94.94 0 01-.7.32.66.66 0 01-.65-.65c0-2.21.19-2.95.19-4.43a2.83 2.83 0 00-3.14-2.95A4.35 4.35 0 00160 6.09c0-1.38.1-3.17.1-4.71a1.39 1.39 0 00-2.77 0c0 1.57.18 3.42.18 8.77 0 .92-.18 2.49-.18 3.32a1.29 1.29 0 002.58 0V9.6a2.33 2.33 0 012.49-2.49 1.08 1.08 0 011.2 1.19c0 1.85-.18 3-.18 4.07A2.59 2.59 0 00166 15zm3.24-12.83a1.57 1.57 0 101.61-1.62 1.57 1.57 0 00-1.57 1.57zM172 15a2.46 2.46 0 002.4-1.37c.22-.42.24-.81-.07-1.07a.69.69 0 00-1 0 .94.94 0 01-.7.32.66.66 0 01-.65-.65c0-2.21.19-3.6.19-6a1.39 1.39 0 00-2.77 0s.18 2.4.18 4c0 .92-.09 1.57-.09 2.22A2.51 2.51 0 00172 15zm12 0a2.46 2.46 0 002.4-1.37c.22-.42.24-.81-.07-1.07a.69.69 0 00-1 0 .94.94 0 01-.7.32.68.68 0 01-.65-.65c0-2.21.19-3.6.19-6A1.2 1.2 0 00183 5a1.17 1.17 0 00-.94.45 4.83 4.83 0 00-7.19 4.72c0 2.77 1.48 4.8 3.7 4.8a4.34 4.34 0 003.19-1.31A2.61 2.61 0 00184 15zm-4.8-2.4c-1 0-1.75-.83-1.75-2.4 0-2.31 1.18-3 2.4-3a3.4 3.4 0 011.75.36l-.09 3a2.14 2.14 0 01-2.34 1.99zM68.58 9.87a2 2 0 11-2-2 2 2 0 012 2zm133.86 0a2 2 0 11-2-2 2 2 0 012 2zM63.33 132.72h1.15c1 2 1.76 2.75 3.35 2.75 1.2 0 1.9-.61 1.9-1.6 0-1.15-1.23-1.46-2.73-1.86-1.7-.44-3.54-1-3.54-3.26a3.29 3.29 0 013.54-3.19 3.44 3.44 0 012.62 1.14l.34-1.09h1.2v3.68H70c-.83-1.93-1.72-2.59-3-2.59a1.48 1.48 0 00-1.65 1.49c0 1.26 1.3 1.55 2.82 1.94s3.46.92 3.46 3.12a3.44 3.44 0 01-3.7 3.36 4 4 0 01-3-1.2l-.37 1.15h-1.23zM73.7 134v-3.9h-1.12v-1.19h3v4.64a1.71 1.71 0 00.37 1.24 1.07 1.07 0 00.77.27A1.93 1.93 0 0078.4 133v-2.85h-1.15v-1.19h3v6.23h1.13v1.18h-2.89v-1.9c-.71 1.33-1.54 2-2.73 2-1.36.01-2.06-.95-2.06-2.47zm8.81-.27h1.09a2.85 2.85 0 002.4 1.85c.78 0 1.12-.36 1.12-.89s-.45-.9-1.92-1.28c-1.78-.48-2.56-1.09-2.56-2.32a2.39 2.39 0 012.62-2.28 2.32 2.32 0 011.94.87l.19-.87h1.07v2.55h-1.08c-.54-1-1.12-1.65-2-1.65-.57 0-1 .3-1 .85s.51.88 1.86 1.23c1.68.45 2.61 1 2.61 2.34a2.52 2.52 0 01-2.85 2.38 2.86 2.86 0 01-2.26-1l-.21 1h-1.02zm7.24 1.44h1.13v-8.6h-1.13v-1.25h3v5.4a3 3 0 012.66-1.89c1.36 0 2.09 1 2.09 2.43v3.91h1.14v1.18h-4v-1.18h1v-3.46a1.65 1.65 0 00-.39-1.2 1 1 0 00-.8-.3 1.92 1.92 0 00-1.71 2.12v2.84h1v1.18h-4zm9.85 0h1.28v-5H99.6v-1.19h3.16v6.23H104v1.18h-4.4zm.9-8.73a1.17 1.17 0 011.22-1.21 1.12 1.12 0 011.2 1.17 1.21 1.21 0 01-2.42 0zm9.5 6.39c.06 1.81.81 2.55 2.14 2.55a1.93 1.93 0 001.92-1.33h1a3 3 0 01-3.29 2.46 3.53 3.53 0 01-3.72-3.78 3.74 3.74 0 013.75-3.92c2.34 0 3.39 1.88 3.31 4zm0-.85h3.21c-.1-1.44-.55-2.22-1.56-2.22s-1.52.59-1.65 2.24zm9.23 3.17h1.64V127h-1.64v-1.2h5.19v1.2h-1.49v3.31h4.52V127H126v-1.2h5.17v1.2h-1.63v8.13h1.63v1.2H126v-1.2h1.48v-3.7h-4.52v3.7h1.49v1.2h-5.19zm13.12-.62a1.82 1.82 0 01.55-1.33c.54-.55 1.33-.79 2.9-1 .91-.13 1-.14 1-.38v-.72c0-1-.45-1.32-1.41-1.32a2.07 2.07 0 00-1.12.28.91.91 0 01.43.8.94.94 0 01-1 .92 1 1 0 01-1.08-1c0-1.25 1.51-1.94 3.24-1.94 1.92 0 2.81.85 2.81 2.4v3.59c0 .35.13.5.45.5s.4-.21.54-.66l.66.3c-.35 1.06-.91 1.49-1.79 1.49a1.37 1.37 0 01-1.49-1.41H137a2.6 2.6 0 01-2.42 1.44 2 2 0 01-2.23-1.96zm4.49-.79v-1a2.68 2.68 0 01-.72.16c-1.38.23-1.8.48-1.8 1.33a1 1 0 001.11 1.11 1.5 1.5 0 001.41-1.6zm14.06-4.91c1.33 0 2 1 2 2.43v3.91h1.1v1.18h-3.89v-1.18h.9v-3.46a1.74 1.74 0 00-.37-1.23 1 1 0 00-.74-.27 2 2 0 00-1.63 2.12v2.84h.9v1.18h-3.67v-1.18h.9v-3.46a1.69 1.69 0 00-.36-1.23 1 1 0 00-.75-.27 1.94 1.94 0 00-1.63 2.12v2.84h.9v1.18h-3.89v-1.18h1.12v-5h-1.12v-1.19h2.91v1.91c.7-1.32 1.57-2 2.67-2a1.86 1.86 0 012 1.92c.75-1.34 1.56-1.98 2.65-1.98zm4.69-2.26h-1.14v-1.25h3v5.11a2.73 2.73 0 012.42-1.62 2.56 2.56 0 011.92.74 4.2 4.2 0 011 3.09 4.33 4.33 0 01-1.07 3.06 2.88 2.88 0 01-2 .81 2.78 2.78 0 01-2.52-1.51l-.61 1.49h-1zm5.15 6.08c0-1.69-.53-2.64-1.54-2.64s-1.84 1.2-1.84 2.81.82 2.54 1.86 2.54 1.52-.94 1.52-2.71zm4.17 1.35v-3.9h-1.12v-1.19h3v4.64a1.66 1.66 0 00.37 1.24 1 1 0 00.76.27 1.93 1.93 0 001.7-2.11v-2.85h-1.15v-1.19h3v6.23h1.14v1.18h-2.91v-1.9c-.7 1.33-1.54 2-2.72 2-1.36.06-2.07-.9-2.07-2.42zm8.69 1.17h1.12v-5h-1.12v-1.19h2.91v1.81a2.43 2.43 0 012.25-1.92 1.3 1.3 0 011.37 1.34 1.12 1.12 0 01-1.09 1.19 1 1 0 01-1.1-1 1.38 1.38 0 010-.2c-.59 0-1.1.67-1.38 1.6v3.44H178v1.18h-4.4zm10.6-1.6h-1c-.51 0-.77.3-.77.61s.27.59 1.1.59h2c1.81 0 2.51.77 2.51 1.86 0 1.39-1.28 2.49-4.14 2.49-2.16 0-3.36-.65-3.36-1.65 0-.68.64-1.28 1.63-1.42v-.08c-.88-.24-1.25-.75-1.25-1.33s.69-1.26 1.6-1.41a2 2 0 01-1.49-2c0-1.47 1.23-2.39 3.11-2.39a4.44 4.44 0 011.25.18 2.38 2.38 0 012.08-1.55c.77 0 1.18.44 1.18 1a.85.85 0 01-.86.89.72.72 0 01-.77-.76 1 1 0 010-.17c-.32 0-.7.32-1 .86a2.15 2.15 0 011.2 1.89c.06 1.52-1.17 2.39-3.02 2.39zm2.22 3.45c0-.44-.3-.76-1.18-.76h-1.86c-.93 0-1.35.33-1.35.91s.42 1 2 1 2.39-.46 2.39-1.17zm-1-5.82c0-1-.47-1.6-1.31-1.6s-1.24.49-1.24 1.61.48 1.59 1.33 1.59 1.23-.53 1.23-1.6zm5.4 1.63c.06 1.81.81 2.55 2.14 2.55a1.93 1.93 0 001.92-1.33h1a3 3 0 01-3.29 2.46 3.53 3.53 0 01-3.72-3.78 3.74 3.74 0 013.75-3.92c2.34 0 3.39 1.88 3.31 4zm0-.85H194c-.1-1.44-.55-2.22-1.56-2.22s-1.44.59-1.6 2.24zm6.29 3.19h1.12v-5h-1.12v-1.19H200v1.81a2.42 2.42 0 012.24-1.92 1.31 1.31 0 011.38 1.34 1.13 1.13 0 01-1.09 1.19 1 1 0 01-1.11-1 .71.71 0 010-.2c-.6 0-1.11.67-1.38 1.6v3.44h1.39v1.18h-4.38z" fill="#3f3120"/></svg>