<svg xmlns="http://www.w3.org/2000/svg" viewBox="0 0 125.4 78.4" enable-background="new 0 0 125.4 78.4"><path fill="#0079A7" d="M125.4 74.2c0 2.3-1.9 4.2-4.2 4.2H4.2c-2.3 0-4.2-1.9-4.2-4.2v-70C0 1.9 1.9 0 4.2 0h117.1c2.3 0 4.2 1.9 4.2 4.2v70z" class="img-cards"/><path fill="#fff" d="M38.9 37.4v-1.3l-.6 1.3h-5.2l-.6-1.4v1.3h-9.7l-1.1-2.7h-1.9l-1.2 2.7h-5v-8.2l3.7-8.3h7.1l1 2.4v-2.3H34l1.9 4 1.9-4h27.3s1.4 0 2.4.6v-.6h6.9v.9s1.2-.9 3.1-.9h12.1l1.1 2.4v-2.4h7.8l1.4 2.4v-2.4h7.4v16.6h-7.6l-1.8-2.9v2.9H88l-1.3-3h-1.9l-1.2 3h-5.7s-2.1 0-3.7-1.2v1.2H62.7v-3.9c0-.6-.4-.5-.4-.5h-.4v4.4h-23zM33.2 41h15l2.2 2.5 2.2-2.5h11.5s1.1 0 2.1.6V41h10.3c1.3 0 2.4.7 2.4.7V41h13.2v.6s.9-.6 2.2-.6h8.6v.6s1.1-.6 2.2-.6h6.8v15.6s-.9 1-2.7 1h-8.9v-.5s-.8.5-2.1.5H74.5v-4c0-.4-.2-.5-.5-.5h-.3v4.5h-7.4v-4.5s-.8.4-2.2.4h-2.7v4h-9.1L50.2 55 48 57.6H33.2V41z"/><path fill="#0079A7" d="M80.5 43.4H90V46h-6.6v2.2h6.4v2.2h-6.4v2.3H90v2.5h-9.5zM108.2 48c3.5.2 3.8 2 3.8 3.8 0 2.2-1.8 3.4-3.7 3.4h-6.1v-2.5h4.7c.8 0 2 0 2-1.1 0-.5-.2-.9-1.1-1-.4-.1-1.8-.1-2-.1-3.2-.1-3.9-1.7-3.9-3.6 0-2.2 1.5-3.4 3.4-3.4h6.1V46H107c-1 0-2.1-.1-2.1 1 0 .7.5.9 1.2.9.3 0 1.9.1 2.1.1zm-10.9 0c3.5.2 3.8 2 3.8 3.8 0 2.2-1.8 3.4-3.7 3.4h-6.1v-2.5H96c.8 0 2 0 2-1.1 0-.5-.2-.9-1.1-1-.4-.1-1.8-.1-2-.1-3.2-.1-3.9-1.7-3.9-3.6 0-2.2 1.5-3.4 3.4-3.4h6.1V46h-4.4c-1 0-2.1-.1-2.1 1 0 .7.5.9 1.2.9.3 0 1.9.1 2.1.1zm-34.2-4.5H53l-3.3 3.6-3.2-3.7H35.2v11.7h11l3.5-3.9 3.4 3.9h5.5v-4h3.9c1.5 0 4.2-.1 4.2-4.2-.1-2.8-2.1-3.4-3.6-3.4zm-18.4 9.2H38v-2.3h6.4v-2.2H38V46h7l2.8 3.2-3.1 3.5zm11 1.4l-4.1-4.9 4.1-4.6v9.5zm6.5-5.3h-3.6V46h3.6c1.2 0 1.6.8 1.6 1.3 0 .8-.5 1.5-1.6 1.5zm14.9 1.1c1.6-.8 2-1.8 2-3.2 0-2.5-2-3.1-3.5-3.1h-7.5v11.7H71v-4.1h3.8c1 0 1.4 1 1.4 2l.1 2.2h2.8L79 53c-.1-2.1-.6-3-1.9-3.1zm-2.5-1.2H71V46h3.6c1.2 0 1.6.8 1.6 1.3 0 .8-.4 1.4-1.6 1.4zM69.3 23.2h2.9V35h-2.9zM45.7 23.2h9.4v2.5h-6.6v2.2h6.4v2.3h-6.4v2.3h6.6v2.4h-9.4zM65.8 29.6c1.6-.8 2-1.8 2-3.2 0-2.5-2-3.1-3.5-3.1h-7.5V35h2.9v-4.1h3.8c1 0 1.4 1 1.4 2l.1 2.2h2.8l-.1-2.4c-.1-2.1-.6-3-1.9-3.1zm-2.5-1.2h-3.6v-2.7h3.6c1.2 0 1.6.8 1.6 1.3 0 .8-.5 1.4-1.6 1.4zM39 23.2l-3.5 7.9-3.5-7.9h-4.5v11.3l-5-11.3h-3.8l-5.1 11.7h3l1.1-2.6h5.8l1.1 2.6h5.8v-8.7l3.9 8.7h2.6l3.9-8.6v8.6h2.9V23.2H39zm-20.3 6.6l1.7-4.1 1.8 4.1h-3.5zm83.2-6.6v8.1L97 23.2h-4.3v11l-4.9-11H84l-4 9.1h-1.8c-.7-.1-1.8-.6-1.8-2.7v-.9c0-2.8 1.5-3 3.4-3h1.8v-2.6h-3.8c-1.3 0-4.2 1-4.3 5.8-.1 3.2 1.3 5.9 4.5 5.9h3.8l1.1-2.6h5.8l1.1 2.6h5.7v-8.6l5.2 8.6h3.9V23.2h-2.7zm-17.7 6.6l1.7-4.1 1.8 4.1h-3.5z"/></svg>