<svg xmlns="http://www.w3.org/2000/svg" viewBox="0 0 72 72" style="width:32px;height:32px" enable-background="new 0 0 72 72"><path class="fi-social" fill="#5fa9dd" d="M72 13.7c-2.6 1.2-5.5 2-8.5 2.3 3-1.8 5.4-4.7 6.5-8.2-2.9 1.7-6 2.9-9.4 3.6-2.7-2.9-6.5-4.7-10.8-4.7-8.2 0-14.8 6.6-14.8 14.8 0 1.2.1 2.3.4 3.4C23.2 24.3 12.3 18.4 5 9.4c-1.3 2.2-2 4.7-2 7.4 0 5.1 2.6 9.6 6.6 12.3-2.4-.1-4.7-.7-6.7-1.8v.2C2.9 34.7 8 40.6 14.7 42c-1.2.3-2.5.5-3.9.5-1 0-1.9-.1-2.8-.3 1.9 5.9 7.3 10.1 13.8 10.3-5.1 4-11.4 6.3-18.3 6.3-1.2 0-2.4-.1-3.5-.2 6.5 4.2 14.3 6.6 22.6 6.6 27.2 0 42-22.5 42-42v-1.9c2.9-2.1 5.4-4.7 7.4-7.6z"/></svg>