<svg xmlns="http://www.w3.org/2000/svg" width="100" height="100" viewBox="0 0 100 100"><path fill="#231F20" d="M86.284 58.294c.555-2.54.85-5.176.85-7.883 0-20.28-16.44-36.725-36.726-36.725-2.14 0-4.236.186-6.28.54-3.28-2.07-7.162-3.27-11.33-3.27-11.76 0-21.298 9.533-21.298 21.3 0 3.93 1.07 7.608 2.93 10.767-.488 2.392-.745 4.862-.745 7.392 0 20.282 16.44 36.725 36.723 36.725 2.3 0 4.545-.216 6.73-.616 2.997 1.608 6.422 2.525 10.064 2.525 11.763 0 21.3-9.53 21.3-21.298-.002-3.4-.802-6.61-2.218-9.456zm-17.037 9.67c-1.7 2.4-4.212 4.307-7.462 5.658-3.223 1.342-7.08 2.02-11.48 2.02-5.27 0-9.694-.93-13.146-2.76-2.47-1.337-4.504-3.14-6.048-5.367-1.56-2.25-2.354-4.483-2.354-6.636 0-1.345.517-2.51 1.533-3.467 1.007-.947 2.295-1.43 3.834-1.43 1.26 0 2.35.38 3.234 1.127.845.72 1.57 1.777 2.15 3.15.653 1.487 1.364 2.747 2.113 3.74.72.948 1.758 1.753 3.08 2.378 1.33.63 3.127.952 5.335.952 3.036 0 5.527-.65 7.396-1.93 1.83-1.25 2.72-2.747 2.72-4.583 0-1.45-.465-2.59-1.42-3.482-1-.934-2.315-1.662-3.916-2.16-1.67-.52-3.938-1.082-6.74-1.67-3.81-.816-7.047-1.784-9.625-2.88-2.633-1.12-4.757-2.674-6.308-4.617-1.576-1.976-2.376-4.452-2.376-7.362 0-2.774.838-5.273 2.494-7.432 1.644-2.143 4.043-3.807 7.128-4.95 3.05-1.128 6.676-1.696 10.776-1.696 3.28 0 6.164.38 8.57 1.125 2.42.758 4.46 1.77 6.066 3.027 1.612 1.262 2.816 2.61 3.567 4.012.765 1.416 1.152 2.827 1.152 4.19 0 1.313-.51 2.503-1.51 3.544-1.006 1.045-2.273 1.574-3.77 1.574-1.36 0-2.426-.33-3.164-.983-.688-.608-1.402-1.556-2.19-2.92-.918-1.737-2.024-3.11-3.296-4.077-1.234-.938-3.298-1.414-6.13-1.414-2.636 0-4.777.527-6.364 1.57-1.533 1.004-2.276 2.154-2.276 3.52 0 .838.24 1.536.73 2.137.526.64 1.26 1.195 2.192 1.664.965.484 1.958.87 2.954 1.145 1.024.285 2.733.705 5.084 1.246 2.97.64 5.702 1.354 8.116 2.127 2.445.783 4.56 1.75 6.283 2.87 1.76 1.144 3.15 2.617 4.142 4.373.99 1.765 1.49 3.938 1.49 6.467 0 3.026-.863 5.784-2.566 8.2z"/></svg>