<svg xmlns="http://www.w3.org/2000/svg" viewBox="0 0 72 72" style="width: 32px; height: 32px;" enable-background="new 0 0 72 72"><g><g fill="#dd4b39"><path class="fi-social" d="M11.2 37.2c1.8 1.4 3.8 2.1 6 2.1 2.9-.1 5.2-1.1 7.1-3.1.9-1.4 1.5-2.8 1.8-4.2.2-1.4.2-2.7.2-3.7 0-4.3-1.1-8.6-3.3-12.9-1-2.1-2.4-3.8-4.1-5.1-1.7-1.2-3.7-1.9-5.9-2-2.9.1-5.4 1.3-7.3 3.6C4.2 14.3 3.4 17 3.4 20c0 3.9 1.1 8 3.4 12.2 1.2 2 2.6 3.7 4.4 5zM17.8 53.7c-.8-1-1.5-2.1-2.1-3.3-.7-1.1-1.1-2.5-1.1-4.1 0-1 .1-1.8.4-2.4.2-.7.5-1.3.7-1.9-1.2.1-2.4.2-3.5.2C7 42.2 3 40.7 0 37.9v19.3c2.7-1.2 5.4-2.1 8.2-2.6 3.9-.5 7-.8 9.6-.9zM20.7 56.8c-.7-.1-1.5-.1-2.4-.1-.6-.1-2 0-4.2.2-2.2.3-4.5.8-6.9 1.5-.6.2-1.3.5-2.3 1-1 .5-2 1.1-3.1 2-.7.6-1.3 1.3-1.8 2v2.9c0 2.8 2.2 5 5 5h27.3v-.2c0-2.8-.9-5.2-2.7-7.2-1.8-1.9-4.8-4.3-8.9-7.1zM67 0H5C2.2 0 0 2.2 0 5v6.7c.3-.3.6-.7 1-1 3.1-2.5 6.3-4.2 9.6-5 3.3-.7 6.4-1 9.3-1h21.7l-6.7 3.9h-6.7c.7.4 1.4 1 2.3 1.9.8.8 1.6 1.9 2.4 3.1.7 1.2 1.4 2.5 2 4.1.5 1.6.7 3.4.7 5.6-.1 3.9-.9 7-2.6 9.3-.8 1.1-1.7 2.2-2.6 3.1-1 1-2.1 1.9-3.2 2.9-.6.7-1.2 1.4-1.8 2.3-.6.9-1 1.9-1 3.1 0 1.1.3 2.1 1 2.8.6.7 1.1 1.3 1.6 1.9l3.7 3c2.3 1.9 4.3 3.9 6 6.2 1.6 2.3 2.5 5.3 2.5 9 0 1.5-.2 3-.6 4.4H67c2.8 0 5-2.2 5-5V5c0-2.8-2.2-5-5-5zm3.9 22.1H59.5v11.4H54V22.1H42.7v-5.5H54V5.2h5.5v11.4h11.4v5.5z"/></g></g></svg>