<svg xmlns="http://www.w3.org/2000/svg" width="100" height="100" viewBox="0 0 100 100"><path d="M50 11c-21.536 0-39 17.46-39 39 0 15.97 9.603 29.688 23.345 35.72-.11-2.723-.02-5.994.68-8.953.75-3.168 5.017-21.252 5.017-21.252s-1.246-2.49-1.246-6.17c0-5.78 3.35-10.098 7.52-10.098 3.547 0 5.26 2.664 5.26 5.855 0 3.566-2.272 8.896-3.442 13.84-.978 4.14 2.075 7.512 6.156 7.512 7.39 0 12.365-9.49 12.365-20.736 0-8.545-5.756-14.943-16.227-14.943-11.83 0-19.2 8.822-19.2 18.676 0 3.4 1 5.797 2.57 7.65.722.853.822 1.196.56 2.176-.186.717-.616 2.444-.793 3.13-.26.987-1.06 1.34-1.953.975-5.45-2.224-7.987-8.19-7.987-14.9 0-11.08 9.343-24.362 27.873-24.362 14.89 0 24.69 10.775 24.69 22.344 0 15.298-8.505 26.728-21.043 26.728-4.21 0-8.17-2.277-9.527-4.86 0 0-2.264 8.983-2.743 10.72-.827 3.008-2.446 6.014-3.926 8.355 3.506 1.035 7.21 1.6 11.05 1.6C71.54 89 89 71.538 89 50c0-21.54-17.462-39-39-39z"/></svg>