<svg xmlns="http://www.w3.org/2000/svg" width="100" height="100" viewBox="0 0 100 100"><path d="M79 14H21c-3.85 0-7 3.15-7 7v58c0 3.85 3.15 7 7 7h58c3.85 0 7-3.15 7-7V21c0-3.85-3.15-7-7-7zM66.715 74.172c-2.32 1.092-4.42 1.86-6.298 2.3-1.88.44-3.913.66-6.098.66-2.48 0-4.674-.314-6.58-.94-1.907-.627-3.533-1.522-4.88-2.678-1.346-1.16-2.28-2.394-2.8-3.7s-.78-3.2-.78-5.68v-19.03h-5.996v-7.68c2.13-.692 3.96-1.684 5.478-2.98 1.52-1.29 2.74-2.844 3.66-4.657.92-1.81 1.552-4.117 1.898-6.916h7.72v13.716h12.876v8.518H52.04V59.02c0 3.144.165 5.163.5 6.058.33.893.952 1.606 1.857 2.14 1.2.718 2.573 1.08 4.12 1.08 2.745 0 5.478-.895 8.197-2.682v8.556z"/></svg>