<svg xmlns="http://www.w3.org/2000/svg" width="100" height="100" viewBox="0 0 100 100"><path d="M80.667 14H19.315C16.38 14 14 16.325 14 19.188v61.617C14 83.672 16.38 86 19.315 86h61.352C83.603 86 86 83.672 86 80.805V19.188C86 16.325 83.603 14 80.667 14zM35.354 75.354H24.67v-34.36h10.684v34.36zm-5.342-39.057a6.19 6.19 0 0 1-6.19-6.194 6.19 6.19 0 0 1 12.38 0 6.195 6.195 0 0 1-6.19 6.194zM75.35 75.354H64.683V58.646c0-3.986-.078-9.11-5.55-9.11-5.56 0-6.406 4.34-6.406 8.82v17H42.052v-34.36h10.245v4.69h.146c1.426-2.7 4.91-5.548 10.106-5.548 10.804 0 12.8 7.114 12.8 16.37v18.846z"/></svg>