<svg xmlns="http://www.w3.org/2000/svg" viewBox="0 0 72 72" style="width:36px;height:36px" enable-background="new 0 0 72 72"><path class="fi-social" fill="#589442" d="M18.1 24.8c-8 0-14.4 6.5-14.4 14.4 0 8 6.5 14.4 14.4 14.4 8 0 14.4-6.5 14.4-14.4 0-8-6.5-14.4-14.4-14.4zm-.2 23.1c-4.8 0-8.7-3.9-8.7-8.7 0-4.8 3.9-8.7 8.7-8.7 4.8 0 8.7 3.9 8.7 8.7 0 4.8-3.9 8.7-8.7 8.7zm35.5-26.6c-5.1-2.2-10.9-3.5-17.4-3.5-6.4 0-12.8 1.2-17.9 3.4 9.9 0 17.9 8 17.9 17.9 0-9.6 7.7-17.5 17.4-17.8zM17.9 33.1c-3.3 0-6 2.7-6 6s2.7 6 6 6 6-2.7 6-6-2.7-6-6-6zm-.5 9c-1.6 0-2.9-1.3-2.9-2.9 0-1.6 1.3-2.9 2.9-2.9s2.9 1.3 2.9 2.9c0 1.6-1.3 2.9-2.9 2.9zm54.4-2.9c0 9.9-8 17.9-17.9 17.9-5.6 0-10.6-2.6-13.9-6.6-1.4 1.8-4 5.6-4 5.6-.4-.9-2.7-4.1-4-5.6-3.3 4-8.3 6.6-13.9 6.6-9.9 0-17.9-8-17.9-17.9 0-3.9 1.3-7.6 3.4-10.5-.3-2-1.7-5-3.6-7.1V68c0 2.2 1.8 4 4 4h64c2.2 0 4-1.8 4-4V21.5c-1.9 2.2-3.2 5.1-3.6 7.2 2.2 2.9 3.4 6.6 3.4 10.5zm-23.9-.1c0 3.3 2.7 6 6 6s6-2.7 6-6-2.7-6-6-6-6 2.7-6 6zm8.5 0c0 1.6-1.3 2.9-2.9 2.9-1.6 0-2.9-1.3-2.9-2.9s1.3-2.9 2.9-2.9c1.6 0 2.9 1.3 2.9 2.9zm-16.9.1c0 8 6.5 14.4 14.4 14.4 8 0 14.4-6.5 14.4-14.4 0-8-6.5-14.4-14.4-14.4s-14.4 6.4-14.4 14.4zm23.1-.1c0 4.8-3.9 8.7-8.7 8.7-4.8 0-8.7-3.9-8.7-8.7 0-4.8 3.9-8.7 8.7-8.7 4.8 0 8.7 3.9 8.7 8.7zM68 0H4C1.8 0 0 1.8 0 4v17.5h11.4c6.1-4.1 15-6.7 24.6-6.7 9.6 0 17.9 2.6 24 6.7h12V4c0-2.2-1.8-4-4-4z"/></svg>