<svg xmlns="http://www.w3.org/2000/svg" width="32" height="32" viewBox="0 0 72 72"><radialGradient id="a" cx="20.9" cy="71.8" r="72.6" gradientUnits="userSpaceOnUse"><stop offset="0" stop-color="#FFD776"/><stop offset=".246" stop-color="#F3A554"/><stop offset=".379" stop-color="#F15C3C"/><stop offset=".539" stop-color="#D94867"/><stop offset=".7" stop-color="#C32F87"/><stop offset=".912" stop-color="#7D63A7"/><stop offset=".985" stop-color="#5C6CB3"/></radialGradient><path class="fi-social" d="M72 56.5C72 65.2 64.9 72 56.2 72H15.6C6.9 72 0 65.2 0 56.5V16.1C0 7.4 6.9 0 15.6 0h40.7C64.9 0 72 7.4 72 16.1v40.4z" fill="url(#a)"/><path d="M60 48.6C60 56 54 62 46.6 62H25.4C18 62 12 56 12 48.6V25.4C12 18 18 12 25.4 12h21.2C54 12 60 18 60 25.4v23.2z" fill="none" stroke-width="6" stroke="#fff"/><path d="M47.8 36.3c-.1 6.6-5.3 11.9-11.9 11.9S24 42.9 24 36.3s5.3-12.1 11.9-11.9c8 .3 12 5.4 11.9 11.9z" fill="none" stroke-width="7" stroke="#fff"/><circle cx="50.5" cy="21.7" r="3.3" fill="#FFF"/></svg>