<svg xmlns="http://www.w3.org/2000/svg" viewBox="0 314.6 841.9 561.3" enable-background="new 0 314.6 841.9 561.3"><path fill="#fff" d="M0 314.6h841.9v561.3H0z"/><g fill="none" stroke="#403120"><path stroke-width="13.281" d="M240.9 509.7H601"/><path stroke-width="3.765" d="M240.9 505.4H601"/><path stroke-width="13.281" d="M601 688.8H240.9"/><path stroke-width="3.765" d="M601 693.2H240.9"/></g><path fill="#403F34" d="M145.8 533.3h550.3v132.1H145.8z"/><path d="M153.5 660.5V540.9h538.3V530H142.5v130.5z"/><path fill="#BBB8B8" d="M701.6 670.8H140.3V527.7h561.3v143.1zm-550.3-11h539.2v-121H151.3v121z"/><g opacity=".75"><path d="M263.5 624.9h-15v-47h14.6c11.4 0 13.2 8.8 13.2 13.1v.8c0 2.8-1.7 6.8-4.7 8.8 3.3 2.1 5.3 5.9 5.3 9.4v1.5c.1 4.3-2.1 13.4-13.4 13.4zm4.3-33.8c0-4.2-3-4.7-4.7-4.7h-5.9v10.1h6.4c1.9 0 4.3-.7 4.3-4.8l-.1-.6zm.8 19c0-4.3-2.9-5.1-4.9-5.1h-6.6v11.4h6.3c1.8 0 5.2-.6 5.2-4.9v-1.4zM290.5 624.9v-47h27.2v8.5H299v9.5h17.3v8.5H299v11.9h18.7v8.5h-27.2v.1zM330.2 624.9v-47h27.2v8.5h-18.7v9.5H356v8.5h-17.3v11.9h18.7v8.5h-27.2v.1zM390.7 624.9l-8.5-18.2h-3.8v18.2h-8.6v-47h14.7c11.4 0 13.7 9 13.7 13.3v2.1c0 3.4-1.3 9.4-7.1 12.2l9.3 19.4h-9.7zm-1.2-33.5c0-4.3-3.3-5-5.1-5h-6v11.8h6.1c1.8 0 5-.6 5-5v-1.8zM424.2 625.5c-8.8 0-14.5-6.4-14.5-14.9h8.5c0 4.1 2.5 6.4 5.9 6.4 3.9 0 6.5-2.2 6.5-5.2 0-2.4-1.4-3.9-3.2-5-1.8-1.1-5-2.6-10.2-5.3-3.8-1.9-6.8-6.3-6.8-11.2 0-7.5 5.7-12.8 13.8-12.8 8.5 0 14.3 6.1 14.3 14.5h-8.6c0-3.9-2.4-6.1-5.6-6.1-2.9 0-5.3 1.6-5.3 4.5 0 1.6 1 2.9 2.8 3.8 5.7 2.9 7.8 3.9 9.6 5 5 2.7 7.7 7.1 7.7 12.7 0 7.8-6.5 13.6-14.9 13.6zM467 586.5v38.4h-8.5v-38.4H448v-8.6h29.6v8.6H467zM509.4 624.9l-8.5-18.2h-3.8v18.2h-8.6v-47h14.7c11.4 0 13.7 9 13.7 13.3v2.1c0 3.4-1.3 9.4-7.1 12.2l9.3 19.4h-9.7zm-1.2-33.5c0-4.3-3.3-5-5.1-5h-6v11.8h6.1c1.8 0 5-.6 5-5v-1.8zM543.8 625.5c-11 0-14.1-9.2-14.1-13.7v-21c0-4.3 2.9-13.3 14.2-13.3 10.9 0 14.1 8.9 14.1 13.3v21c0 4.6-3 13.7-14.2 13.7zm5.5-34.5c0-4.3-3.8-5-5.5-5-1.8 0-5.7.6-5.7 5v20.9c0 4.4 3.8 5.1 5.7 5.1 1.7 0 5.5-.7 5.5-5.1V591zM587.2 586.5v38.4h-8.5v-38.4h-10.5v-8.6h29.6v8.6h-10.6z"/></g><g fill="#BBB8B8"><path d="M261.3 622.7h-15v-47h14.6c11.4 0 13.3 8.8 13.3 13.2v.8c0 2.8-1.7 6.7-4.7 8.8 3.3 2.1 5.3 5.9 5.3 9.4v1.5c0 4.2-2.2 13.3-13.5 13.3zm4.3-33.8c0-4.2-3-4.7-4.7-4.7H255v10.1h6.3c1.9 0 4.3-.7 4.3-4.8v-.6zm.8 19c0-4.3-2.9-5.1-4.9-5.1h-6.6v11.4h6.3c1.8 0 5.2-.6 5.2-4.9v-1.4zM288.3 622.7v-47h27.2v8.5h-18.7v9.5h17.3v8.5h-17.3v11.9h18.7v8.5l-27.2.1zM327.9 622.7v-47h27.2v8.5h-18.7v9.5h17.3v8.5h-17.3v11.9h18.7v8.5l-27.2.1zM388.5 622.7l-8.5-18.2h-3.8v18.2h-8.6v-47h14.7c11.4 0 13.6 9 13.6 13.3v2.1c0 3.4-1.3 9.4-7.1 12.2l9.3 19.4h-9.6zm-1.1-33.5c0-4.3-3.3-5-5.1-5h-6V596h6.1c1.8 0 5-.6 5-5v-1.8zM422 623.3c-8.8 0-14.5-6.4-14.5-14.9h8.5c0 4.1 2.5 6.3 5.9 6.3 3.9 0 6.5-2.2 6.5-5.2 0-2.4-1.4-3.9-3.2-5-1.8-1.1-5-2.6-10.2-5.3-3.8-1.9-6.7-6.3-6.7-11.2 0-7.5 5.7-12.8 13.8-12.8 8.5 0 14.3 6.1 14.3 14.5h-8.6c0-3.9-2.4-6.1-5.6-6.1-2.9 0-5.3 1.6-5.3 4.5 0 1.6 1 2.9 2.8 3.8 5.7 2.9 7.8 3.9 9.6 5 5 2.7 7.7 7.1 7.7 12.7-.1 7.9-6.6 13.7-15 13.7zM464.8 584.3v38.4h-8.5v-38.4h-10.5v-8.6h29.6v8.6h-10.6zM507.2 622.7l-8.5-18.2h-3.8v18.2h-8.6v-47H501c11.4 0 13.7 9 13.7 13.3v2.1c0 3.4-1.3 9.4-7.1 12.2l9.3 19.4h-9.7zm-1.2-33.5c0-4.3-3.3-5-5.1-5h-6V596h6.1c1.8 0 5-.6 5-5v-1.8zM541.6 623.3c-11 0-14.1-9.2-14.1-13.7v-21c0-4.3 2.9-13.3 14.2-13.3 10.9 0 14.1 8.9 14.1 13.3v21c0 4.6-3 13.7-14.2 13.7zm5.5-34.5c0-4.3-3.8-5-5.5-5-1.8 0-5.7.6-5.7 5v20.9c0 4.4 3.8 5.1 5.7 5.1 1.7 0 5.5-.7 5.5-5.1v-20.9zM585 584.3v38.4h-8.5v-38.4H566v-8.6h29.6v8.6H585z"/></g><g fill="#403120"><path d="M304.6 467.6c0-11.1 7.8-16.8 16.1-16.8 6.2 0 9.1 3.6 9.1 7.9 0 2.7-1.6 5.3-3.8 5.3-1.8 0-2.9-1.1-2.9-2.5s.8-2.1.8-3.2c0-1.6-.8-2.9-3.9-2.9-3.8 0-8.7 3.9-8.7 12.2 0 7 4.2 9.6 8.8 9.6 5.2 0 7.2-1.8 8.8-3.3.3-.3.7-.5 1.1-.5.9 0 1.8.8 1.8 1.7 0 .3-.1.7-.4 1.1-1.8 2.5-5.4 5.7-11.8 5.7-9 0-15-6.2-15-14.3zM347.6 479.1c-1.4 1.3-3.4 2.8-6.7 2.8-4.6 0-7.8-4.3-7.8-10.1 0-7.9 6.1-11.3 9.7-11.3 1.8 0 3.8.4 5.4 1.3.5-.6 1.2-.9 2-.9 1.4 0 2.5 1.1 2.5 2.5 0 5-.4 7.9-.4 12.6 0 .7.6 1.4 1.4 1.4.6 0 1.1-.2 1.5-.7.5-.6 1.4-.5 2.1 0 .7.5.6 1.4.2 2.2-.7 1.4-2 2.9-5 2.9-2.2.1-3.9-1.1-4.9-2.7zm-.5-6.7l.2-6.2s-1.1-.8-3.7-.8c-2.5 0-5 1.5-5 6.4 0 3.3 1.5 5 3.7 5 3.5 0 4.7-2.5 4.8-4.4zM362.6 450.4c1.8 0 3.3 1.5 3.3 3.3 0 4-2.9 7.5-3.6 8.1-.6.6-1.5.5-2.2 0-.7-.5-.6-1.6 0-2.2.4-.4 1.1-1.3 1.4-2.8-1.3-.4-2.3-1.6-2.3-3.1.1-1.8 1.6-3.3 3.4-3.3zM404.4 451.2c1.8 0 3.3 1.5 3.3 3.3 0 12.9-7.6 27.4-18.8 27.4-1.2 0-2.3-1-2.3-2.3 0-19.5-2.8-23.9-5.6-23.9-.5 0-.9.2-1.2.6-.5.7-1.5 1-2.3.5-.7-.4-1-1.2-.6-2.1 1.1-2.5 3-3.7 6.1-3.7 8.2 0 10.3 7.5 8.6 25.8 4.5-.8 8.3-6.6 9.4-12.5.9-4.6.2-7.3.2-9.7-.1-1.9 1.3-3.4 3.2-3.4zM426.1 475.4c.3-.5.8-.7 1.3-.7.9 0 1.6.8 1.6 1.5 0 2.7-3.7 5.6-8.9 5.6-6.6 0-11.3-4.5-11.3-10.1 0-7.1 4.3-11.3 10.5-11.3 5 0 8.2 2.8 8.2 7 0 3.2-2.5 6.9-9.3 6.9-1.4 0-2.6-.1-3.6-.2.8 2.3 2.8 3.6 5.5 3.6 3.3.1 4.9-.7 6-2.3zm-11.8-4.7c.7.1 1.8.2 3.1.2 2.9 0 4.3-1.7 4.3-3.5 0-1.3-1.1-2.3-2.3-2.3-2.6.1-4.8 1.7-5.1 5.6zM446.5 475.3c.5-.7 1.2-.9 2-.5s1.1 1.1.8 2.1c-1.1 2.5-4 5.1-8.8 5.1-5.8 0-9.7-4.5-9.7-10.1 0-7.1 4.3-11.3 10.5-11.3 2.6 0 4.3.8 5.3 1.7.6.5.7 1.1.7 1.8 0 1.4-1.1 2.6-2.9 2.6-1.1 0-1.7-1.5-3.2-1.5-2.7 0-5 1.9-5 6.6 0 3.5 2.3 5.8 5.2 5.8 2.3 0 4-.8 5.1-2.3zM466.3 475.3c.5-.7 1.2-.9 2-.5s1.1 1.1.8 2.1c-1.1 2.5-4 5.1-8.8 5.1-5.8 0-9.7-4.5-9.7-10.1 0-7.1 4.3-11.3 10.5-11.3 2.6 0 4.3.8 5.3 1.7.6.5.7 1.1.7 1.8 0 1.4-1.1 2.6-2.9 2.6-1.1 0-1.7-1.5-3.2-1.5-2.7 0-5 1.9-5 6.6 0 3.5 2.3 5.8 5.2 5.8 2.3 0 4-.8 5.1-2.3zM484 476.4c0-2.3.4-4.6.4-8.6 0-1.3-.6-2.5-2.5-2.5-2.4 0-5.2 1.3-5.2 5.2v8.2c0 1.5-1.2 2.7-2.7 2.7-1.5 0-2.7-1.2-2.7-2.7 0-1.8.4-5 .4-7 0-11.3-.4-15.1-.4-18.4 0-1.6 1.3-2.9 2.9-2.9s2.9 1.3 2.9 2.9c0 3.2-.2 7-.2 9.9 1.8-1.8 4.3-2.7 6.4-2.7 5.9 0 6.6 4.5 6.6 6.2 0 3.1-.4 4.6-.4 9.3 0 .7.6 1.4 1.4 1.4.6 0 1.1-.2 1.5-.7.5-.6 1.4-.5 2.1 0 .7.5.6 1.4.1 2.2-.7 1.4-2 2.9-5 2.9-3.2.1-5.6-2.4-5.6-5.4zM499.5 451.6c1.8 0 3.3 1.5 3.3 3.3s-1.5 3.3-3.3 3.3c-1.8 0-3.3-1.5-3.3-3.3s1.5-3.3 3.3-3.3zm-2.9 24.8c0-1.4.2-2.7.2-4.6 0-3.3-.4-8.3-.4-8.3 0-1.6 1.3-2.9 2.9-2.9 1.6 0 2.9 1.3 2.9 2.9 0 5-.4 7.9-.4 12.6 0 .7.6 1.4 1.4 1.4.6 0 1.1-.2 1.5-.7.5-.6 1.4-.5 2.1 0 .7.5.6 1.4.2 2.2-.7 1.4-2 2.9-5 2.9-3.1 0-5.4-2.5-5.4-5.5zM522.4 479.1c-1.4 1.3-3.4 2.8-6.7 2.8-4.6 0-7.8-4.3-7.8-10.1 0-7.9 6.1-11.3 9.7-11.3 1.8 0 3.8.4 5.4 1.3.5-.6 1.2-.9 2-.9 1.4 0 2.5 1.1 2.5 2.5 0 5-.4 7.9-.4 12.6 0 .7.6 1.4 1.4 1.4.6 0 1.1-.2 1.5-.7.5-.6 1.4-.5 2.1 0s.6 1.4.2 2.2c-.7 1.4-2 2.9-5 2.9-2.2.1-4-1.1-4.9-2.7zm-.6-6.7l.2-6.2s-1.1-.8-3.7-.8c-2.5 0-5 1.5-5 6.4 0 3.3 1.5 5 3.7 5 3.5 0 4.8-2.5 4.8-4.4zM284.5 471.2c0 2.4-1.9 4.3-4.3 4.3s-4.3-1.9-4.3-4.3 1.9-4.3 4.3-4.3 4.3 2 4.3 4.3zM565.9 471.2c0 2.4-1.9 4.3-4.3 4.3s-4.3-1.9-4.3-4.3 1.9-4.3 4.3-4.3 4.3 2 4.3 4.3z"/></g><g fill="#403120"><path d="M305.2 733.7h3v-14.3h-3v-1.8h8.9v1.8h-3v14.3h3v1.8h-8.9v-1.8zM315.6 733.7h2.3v-14.9h-2.3v-2h4.8v16.9h2.2v1.8h-7.1v-1.8zM334.7 730.9c-.6 0-1.1-.1-1.6-.1-.9 0-1.3.6-1.3 1.1 0 .7.5 1.1 1.8 1.1h3.3c2.9 0 4 1.3 4 3 0 2.2-2.1 4.1-6.5 4.1-3.3 0-5.5-1.2-5.5-2.8 0-1.1 1.1-2.2 2.6-2.4v-.1c-1.4-.5-2-1.3-2-2.2 0-.9 1.1-2 2.3-2.2-1.4-.7-2.2-1.7-2.2-3.3 0-2.6 2.2-4.1 5.1-4.1.7 0 1.4.1 2 .3.8-1.4 2-2.4 3.5-2.4 1.1 0 1.8.7 1.8 1.5 0 .7-.5 1.4-1.3 1.4-.7 0-1.2-.4-1.2-1.1v-.3c-.5-.1-1.3.5-1.8 1.4 1.2.7 2 1.8 2 3.2 0 2.5-2.2 3.9-5 3.9zm3.9 5.8c0-.9-.5-1.4-1.9-1.4h-3.1c-1.6 0-2.4.6-2.4 1.7 0 .9.6 1.8 3.2 1.8 2.5-.1 4.2-.9 4.2-2.1zm-1.6-9.8c0-1.6-.9-2.8-2.5-2.8-1.5 0-2.3.8-2.3 2.8 0 1.9 1 2.8 2.5 2.8s2.3-1 2.3-2.8zM343.7 731.8v-6.9h-2v-1.8h4.6v7.8c0 1 .2 1.8.7 2.2.3.3.8.5 1.4.5 1.5 0 3.2-1.5 3.2-4v-4.7h-2.1v-1.8h4.6v10.7h2v1.8h-4.5v-3.2c-1.4 2.3-2.9 3.3-4.7 3.3-2 0-3.2-1.4-3.2-3.9zM357.8 731.1h1.7c.7 2 2.2 3.4 4 3.4 1.5 0 2.1-.7 2.1-1.8s-.8-1.6-3.3-2.3c-3-.8-4.2-1.9-4.2-3.9s1.8-3.7 4.3-3.7c1.3 0 2.4.5 3 1.4l.3-1.4h1.6v4.3h-1.6c-.8-1.8-1.6-2.9-3.3-2.9-1 0-1.9.5-1.9 1.6s1 1.7 3.2 2.2c2.9.8 4.3 1.7 4.3 3.8 0 1.9-1.7 3.9-4.5 3.9-1.5 0-2.9-.7-3.6-1.6l-.3 1.6H358l-.2-4.6zM373.7 719.9v3.4h4.1v1.7h-4.1v7.3c0 1.2.4 1.8 1.5 1.8.7 0 1.4-.7 1.9-2.1l1.2.5c-.7 2.4-2.1 3.4-3.9 3.4-2.1 0-3.3-1.3-3.3-3.3V725h-2.5v-1.7h2.5v-3.1l2.6-.3zM379.3 729.4c0-3.8 2.5-6.5 6.2-6.5 3.9 0 6.2 2.6 6.2 6.4 0 3.8-2.5 6.5-6.2 6.5-3.8 0-6.2-2.6-6.2-6.4zm9.6-.1c0-3.4-1.3-5-3.5-5-2.1 0-3.2 1.5-3.2 5s1.3 5 3.5 5c2.1 0 3.2-1.5 3.2-5zM398.8 733.7h2.2v-8.9h-2.2V723h4.8v10.7h2.3v1.8h-7.1v-1.8zm1.6-15c0-1.1.7-1.8 1.8-1.8s1.8.7 1.8 1.8-.7 1.8-1.8 1.8-1.8-.7-1.8-1.8zM407.3 733.7h2v-8.9h-2V723h4.5v3.2c1.4-2.3 2.9-3.3 4.7-3.3 2 0 3.3 1.4 3.3 3.9v6.9h2v1.8h-6.4v-1.8h1.8v-6c0-.9-.2-1.7-.7-2.2-.4-.4-.8-.5-1.4-.5-1.5 0-3.2 1.5-3.2 4v4.7h1.8v1.8h-6.4v-1.8zM428 733.7h2v-8.9h-2.5v-1.7h2.5v-.6c0-4.3 2.8-6 5.3-6 2.2 0 3.5 1.1 3.5 2.5 0 .9-.6 1.7-1.5 1.7-1 0-1.7-.5-1.7-1.7 0-.2.1-.6.2-.9-.2-.1-.5-.2-1-.2-1.4 0-2.3 1-2.3 4.5v.7h3.6v1.7h-3.6v8.9h2.9v1.8H428v-1.8zM440.2 729.5c.1 3.1 1.4 4.6 3.8 4.6 1.5 0 2.7-.7 3.4-2.3h1.3c-.7 2.7-2.7 4-5.4 4-3.8 0-6-2.8-6-6.3 0-3.7 2.6-6.6 6.1-6.6 3.7 0 5.4 3.3 5.3 6.6h-8.5zm0-1.3h6c-.2-2.3-1-3.9-2.9-3.9-1.7 0-2.8 1.1-3.1 3.9zM450.7 733.7h2v-8.9h-2V723h4.5v2.9c.6-2.1 2.3-3 3.7-3 1.4 0 2.1 1 2.1 2.1 0 1-.7 1.8-1.6 1.8-1 0-1.7-.6-1.7-1.6v-.4c-1.2 0-2.1 1.3-2.5 3v6.1h2.4v1.8h-6.9v-2zM478.9 723c2 0 3.2 1.4 3.2 3.9v6.9h2v1.8h-6.2v-1.8h1.7v-6c0-1-.2-1.8-.7-2.2-.3-.3-.7-.5-1.4-.5-1.4 0-3.1 1.5-3.1 4v4.7h1.7v1.8h-5.9v-1.8h1.7v-6c0-1-.2-1.8-.7-2.2-.3-.3-.7-.5-1.4-.5-1.4 0-3.1 1.5-3.1 4v4.7h1.7v1.8h-6.2v-1.8h2v-8.9h-2v-1.8h4.5v3.2c1.4-2.3 2.9-3.3 4.6-3.3 1.8 0 3 1 3.1 3.2 1.4-2.4 2.9-3.2 4.5-3.2zM488.3 729.5c.1 3.1 1.4 4.6 3.8 4.6 1.5 0 2.7-.7 3.4-2.3h1.3c-.7 2.7-2.7 4-5.4 4-3.8 0-6-2.8-6-6.3 0-3.7 2.6-6.6 6.1-6.6 3.7 0 5.4 3.3 5.3 6.6h-8.5zm0-1.3h6c-.2-2.3-1-3.9-2.9-3.9-1.7 0-2.9 1.1-3.1 3.9zM498.7 733.7h2v-8.9h-2V723h4.5v3.2c1.4-2.3 2.9-3.3 4.7-3.3 2 0 3.3 1.4 3.3 3.9v6.9h2v1.8h-6.4v-1.8h1.8v-6c0-.9-.2-1.7-.7-2.2-.4-.4-.8-.5-1.4-.5-1.5 0-3.2 1.5-3.2 4v4.7h1.8v1.8h-6.4v-1.8zM518.6 719.9v3.4h4.1v1.7h-4.1v7.3c0 1.2.4 1.8 1.5 1.8.7 0 1.4-.7 1.9-2.1l1.2.5c-.7 2.4-2.1 3.4-3.9 3.4-2.2 0-3.3-1.3-3.3-3.3V725h-2.5v-1.7h2.5v-3.1l2.6-.3zM524.3 729.4c0-3.8 2.5-6.5 6.2-6.5 3.9 0 6.2 2.6 6.2 6.4 0 3.8-2.5 6.5-6.2 6.5-3.9 0-6.2-2.6-6.2-6.4zm9.6-.1c0-3.4-1.3-5-3.5-5-2.1 0-3.2 1.5-3.2 5s1.3 5 3.5 5c2 0 3.2-1.5 3.2-5z"/></g></svg>