<svg xmlns="http://www.w3.org/2000/svg" x="0px" y="0px" viewBox="348.8 576.5 144.6 36.8" enable-background="new 348.8 576.5 144.6 36.8"><path fill="#403E34" d="M350.2 577.9h141.7v34H350.2z"/><path fill="#231F20" d="M352.2 610.7v-30.8h138.6V577H349.3v33.7z"/><path fill="#BBB8B7" d="M493.3 613.3H348.8v-36.8h144.6v36.8zm-141.7-2.8h138.9v-31.2H351.6v31.2z"/><g fill="#231F20" opacity=".75"><path d="M380.5 601.5h-3.9v-12.1h3.8c2.9 0 3.4 2.3 3.4 3.4v.2c0 .7-.4 1.7-1.2 2.3.8.5 1.4 1.5 1.4 2.4v.4c0 1.1-.6 3.4-3.5 3.4zm1.1-8.7c0-1.1-.8-1.2-1.2-1.2h-1.5v2.6h1.6c.5 0 1.1-.2 1.1-1.2v-.2zm.2 4.9c0-1.1-.7-1.3-1.3-1.3h-1.7v2.9h1.6c.5 0 1.3-.2 1.3-1.3v-.3zM387.4 601.5v-12.1h7v2.2h-4.8v2.4h4.5v2.2h-4.5v3.1h4.8v2.2h-7zM397.7 601.5v-12.1h7v2.2h-4.8v2.4h4.5v2.2h-4.5v3.1h4.8v2.2h-7zM413.3 601.5l-2.2-4.7h-1v4.7h-2.2v-12.1h3.8c2.9 0 3.5 2.3 3.5 3.4v.5c0 .9-.3 2.4-1.8 3.1l2.4 5h-2.5zm-.3-8.6c0-1.1-.8-1.3-1.3-1.3h-1.5v3h1.6c.5 0 1.3-.2 1.3-1.3v-.4zM421.9 601.6c-2.3 0-3.7-1.6-3.7-3.8h2.2c0 1.1.6 1.6 1.5 1.6 1 0 1.7-.6 1.7-1.3 0-.6-.4-1-.8-1.3-.5-.3-1.3-.7-2.6-1.4-1-.5-1.7-1.6-1.7-2.9 0-1.9 1.5-3.3 3.6-3.3 2.2 0 3.7 1.6 3.7 3.7h-2.2c0-1-.6-1.6-1.4-1.6-.7 0-1.4.4-1.4 1.2 0 .4.3.7.7 1 1.5.7 2 1 2.5 1.3 1.3.7 2 1.8 2 3.3-.3 2.1-2 3.5-4.1 3.5zM432.9 591.6v9.9h-2.2v-9.9H428v-2.2h7.6v2.2h-2.7zM443.8 601.5l-2.2-4.7h-1v4.7h-2.2v-12.1h3.8c2.9 0 3.5 2.3 3.5 3.4v.5c0 .9-.3 2.4-1.8 3.1l2.4 5h-2.5zm-.3-8.6c0-1.1-.8-1.3-1.3-1.3h-1.5v3h1.6c.5 0 1.3-.2 1.3-1.3v-.4zM452.7 601.6c-2.8 0-3.6-2.4-3.6-3.5v-5.4c0-1.1.7-3.4 3.7-3.4 2.8 0 3.6 2.3 3.6 3.4v5.4c-.1 1.2-.8 3.5-3.7 3.5zm1.4-8.8c0-1.1-1-1.3-1.4-1.3-.5 0-1.5.2-1.5 1.3v5.4c0 1.1 1 1.3 1.5 1.3.4 0 1.4-.2 1.4-1.3v-5.4zM463.9 591.6v9.9h-2.2v-9.9H459v-2.2h7.6v2.2h-2.7z"/></g><g fill="#BBB8B7"><path d="M379.9 600.9H376v-12.1h3.8c2.9 0 3.4 2.3 3.4 3.4v.2c0 .7-.4 1.7-1.2 2.3.8.5 1.4 1.5 1.4 2.4v.4c0 1.1-.6 3.4-3.5 3.4zm1.1-8.7c0-1.1-.8-1.2-1.2-1.2h-1.5v2.6h1.6c.5 0 1.1-.2 1.1-1.2v-.2zm.2 4.9c0-1.1-.7-1.3-1.3-1.3h-1.7v2.9h1.6c.5 0 1.3-.2 1.3-1.3v-.3zM386.9 600.9v-12.1h7v2.2h-4.8v2.4h4.5v2.2h-4.5v3.1h4.8v2.2h-7zM397.1 600.9v-12.1h7v2.2h-4.8v2.4h4.5v2.2h-4.5v3.1h4.8v2.2h-7zM412.7 600.9l-2.2-4.7h-1v4.7h-2.2v-12.1h3.8c2.9 0 3.5 2.3 3.5 3.4v.5c0 .9-.3 2.4-1.8 3.1l2.4 5h-2.5zm-.3-8.6c0-1.1-.8-1.3-1.3-1.3h-1.5v3h1.6c.5 0 1.3-.2 1.3-1.3v-.4zM421.3 601.1c-2.3 0-3.7-1.6-3.7-3.8h2.2c0 1.1.6 1.6 1.5 1.6 1 0 1.7-.6 1.7-1.3 0-.6-.4-1-.8-1.3-.5-.3-1.3-.7-2.6-1.4-1-.5-1.7-1.6-1.7-2.9 0-1.9 1.5-3.3 3.6-3.3 2.2 0 3.7 1.6 3.7 3.7H423c0-1-.6-1.6-1.4-1.6-.7 0-1.4.4-1.4 1.2 0 .4.3.7.7 1 1.5.7 2 1 2.5 1.3 1.3.7 2 1.8 2 3.3-.3 2-1.9 3.5-4.1 3.5zM432.3 591v9.9h-2.2V591h-2.7v-2.2h7.6v2.2h-2.7zM443.3 600.9l-2.2-4.7h-1v4.7h-2.2v-12.1h3.8c2.9 0 3.5 2.3 3.5 3.4v.5c0 .9-.3 2.4-1.8 3.1l2.4 5h-2.5zm-.3-8.6c0-1.1-.8-1.3-1.3-1.3h-1.5v3h1.6c.5 0 1.3-.2 1.3-1.3v-.4zM452.1 601.1c-2.8 0-3.6-2.4-3.6-3.5v-5.4c0-1.1.7-3.4 3.7-3.4 2.8 0 3.6 2.3 3.6 3.4v5.4c0 1.1-.8 3.5-3.7 3.5zm1.4-8.9c0-1.1-1-1.3-1.4-1.3-.5 0-1.5.2-1.5 1.3v5.4c0 1.1 1 1.3 1.5 1.3.4 0 1.4-.2 1.4-1.3v-5.4zM463.3 591v9.9h-2.2V591h-2.7v-2.2h7.6v2.2h-2.7z"/></g></svg> 