<svg xmlns="http://www.w3.org/2000/svg" viewBox="0 629.2 841.9 561.3" enable-background="new 0 629.2 841.9 561.3"><path fill="#fff" d="M0 629.2h841.9v561.3H0z"/><g fill="none" stroke="#403120"><path stroke-width="13.281" d="M175.4 793.2h491.1"/><path stroke-width="3.765" d="M175.4 787.4h491.1"/><path stroke-width="13.281" d="M666.5 1037.4H175.4"/><path stroke-width="3.765" d="M666.5 1043.4H175.4"/></g><path fill="#403F34" d="M45.8 825.4h750.4v180.1H45.8z"/><path d="M56.3 998.8v-163h734v-14.9h-749v177.9z"/><path fill="#BBB8B8" d="M803.6 1012.9H38.3V817.8h765.4v195.1zm-750.3-15h735.2v-165H53.3v165z"/><g opacity=".75"><path d="M206.3 950.3h-20.5v-64.1h19.9c15.5 0 18 12 18 17.9v1.1c0 3.8-2.3 9.3-6.4 12 4.5 2.9 7.2 8 7.2 12.8v2c.2 5.9-2.8 18.3-18.2 18.3zm5.8-46.1c0-5.7-4.1-6.4-6.4-6.4h-8v13.8h8.7c2.6 0 5.9-1 5.9-6.5l-.2-.9zm1.1 25.9c0-5.9-4-7-6.7-7h-9v15.5h8.6c2.5 0 7.1-.8 7.1-6.7v-1.8zM243.1 950.3v-64.1h37.1v11.6h-25.5v13h23.6v11.6h-23.6v16.2h25.5v11.6h-37.1v.1zM297.2 950.3v-64.1h37.1v11.6h-25.5v13h23.6v11.6h-23.6v16.2h25.5v11.6h-37.1v.1zM379.7 950.3l-11.6-24.8h-5.2v24.8h-11.7v-64.1h20c15.5 0 18.7 12.3 18.7 18.1v2.9c0 4.6-1.8 12.8-9.7 16.6l12.7 26.5h-13.2zm-1.6-45.7c0-5.9-4.5-6.8-7-6.8h-8.2v16.1h8.3c2.5 0 6.8-.8 6.8-6.8v-2.5zM425.4 951.1c-12 0-19.8-8.7-19.8-20.3h11.6c0 5.6 3.4 8.7 8 8.7 5.3 0 8.9-3 8.9-7.1 0-3.3-1.9-5.3-4.4-6.8-2.5-1.5-6.8-3.5-13.9-7.2-5.2-2.6-9.3-8.6-9.3-15.3 0-10.2 7.8-17.5 18.8-17.5 11.6 0 19.5 8.3 19.5 19.8h-11.7c0-5.3-3.3-8.3-7.6-8.3-4 0-7.2 2.2-7.2 6.1 0 2.2 1.4 4 3.8 5.2 7.8 4 10.6 5.3 13.1 6.8 6.8 3.7 10.5 9.7 10.5 17.3 0 10.7-8.9 18.6-20.3 18.6zM483.7 897.9v52.4h-11.6v-52.4h-14.3v-11.7h40.4v11.7h-14.5zM541.5 950.3L530 925.5h-5.2v24.8h-11.7v-64.1h20c15.5 0 18.7 12.3 18.7 18.1v2.9c0 4.6-1.8 12.8-9.7 16.6l12.7 26.5h-13.3zm-1.6-45.7c0-5.9-4.5-6.8-7-6.8h-8.2v16.1h8.3c2.5 0 6.8-.8 6.8-6.8v-2.5h.1zM588.5 951.1c-15 0-19.2-12.5-19.2-18.7v-28.6c0-5.9 4-18.1 19.4-18.1 14.9 0 19.2 12.1 19.2 18.1v28.6c-.1 6.3-4.2 18.7-19.4 18.7zm7.5-47c0-5.9-5.2-6.8-7.5-6.8-2.5 0-7.8.8-7.8 6.8v28.5c0 6 5.2 7 7.8 7 2.3 0 7.5-1 7.5-7v-28.5zM647.6 897.9v52.4H636v-52.4h-14.3v-11.7h40.4v11.7h-14.5z"/></g><g fill="#BBB8B8"><path d="M203.3 947.3h-20.5v-64.1h19.9c15.5 0 18.1 12 18.1 18v1.1c0 3.8-2.3 9.1-6.4 12 4.5 2.9 7.2 8 7.2 12.8v2c.1 5.8-2.9 18.2-18.3 18.2zm5.8-46.1c0-5.7-4.1-6.4-6.4-6.4h-8v13.8h8.6c2.6 0 5.9-1 5.9-6.5l-.1-.9zm1.1 25.9c0-5.9-4-7-6.7-7h-9v15.5h8.6c2.5 0 7.1-.8 7.1-6.7v-1.8zM240.1 947.3v-64.1h37.1v11.6h-25.5v13h23.6v11.6h-23.6v16.2h25.5v11.6l-37.1.1zM294.1 947.3v-64.1h37.1v11.6h-25.5v13h23.6v11.6h-23.6v16.2h25.5v11.6l-37.1.1zM376.7 947.3l-11.6-24.8h-5.2v24.8h-11.7v-64.1h20c15.5 0 18.5 12.3 18.5 18.1v2.9c0 4.6-1.8 12.8-9.7 16.6l12.7 26.5h-13zm-1.5-45.7c0-5.9-4.5-6.8-7-6.8H360v16.1h8.3c2.5 0 6.8-.8 6.8-6.8v-2.5zM422.4 948.1c-12 0-19.8-8.7-19.8-20.3h11.6c0 5.6 3.4 8.6 8 8.6 5.3 0 8.9-3 8.9-7.1 0-3.3-1.9-5.3-4.4-6.8-2.5-1.5-6.8-3.5-13.9-7.2-5.2-2.6-9.1-8.6-9.1-15.3 0-10.2 7.8-17.5 18.8-17.5 11.6 0 19.5 8.3 19.5 19.8h-11.7c0-5.3-3.3-8.3-7.6-8.3-4 0-7.2 2.2-7.2 6.1 0 2.2 1.4 4 3.8 5.2 7.8 4 10.6 5.3 13.1 6.8 6.8 3.7 10.5 9.7 10.5 17.3-.2 10.8-9.1 18.7-20.5 18.7zM480.7 894.9v52.4h-11.6v-52.4h-14.3v-11.7h40.4v11.7h-14.5zM538.6 947.3L527 922.5h-5.2v24.8h-11.7v-64.1h20c15.5 0 18.7 12.3 18.7 18.1v2.9c0 4.6-1.8 12.8-9.7 16.6l12.7 26.5h-13.2zm-1.7-45.7c0-5.9-4.5-6.8-7-6.8h-8.2v16.1h8.3c2.5 0 6.8-.8 6.8-6.8v-2.5h.1zM585.5 948.1c-15 0-19.2-12.5-19.2-18.7v-28.6c0-5.9 4-18.1 19.4-18.1 14.9 0 19.2 12.1 19.2 18.1v28.6c-.1 6.3-4.2 18.7-19.4 18.7zm7.5-47c0-5.9-5.2-6.8-7.5-6.8-2.5 0-7.8.8-7.8 6.8v28.5c0 6 5.2 7 7.8 7 2.3 0 7.5-1 7.5-7v-28.5zM644.6 894.9v52.4H633v-52.4h-14.3v-11.7h40.4v11.7h-14.5z"/></g><g fill="#403120"><path d="M262.3 735.8c0-15.1 10.6-22.9 22-22.9 8.5 0 12.4 4.9 12.4 10.8 0 3.7-2.2 7.2-5.2 7.2-2.5 0-4-1.5-4-3.4s1.1-2.9 1.1-4.4c0-2.2-1.1-4-5.3-4-5.2 0-11.9 5.3-11.9 16.6 0 9.5 5.7 13.1 12 13.1 7.1 0 9.8-2.5 12-4.5.4-.4 1-.7 1.5-.7 1.2 0 2.5 1.1 2.5 2.3 0 .4-.1 1-.5 1.5-2.5 3.4-7.4 7.8-16.1 7.8-12.3.1-20.5-8.3-20.5-19.4zM320.9 751.5c-1.9 1.8-4.6 3.8-9.1 3.8-6.3 0-10.6-5.9-10.6-13.8 0-10.8 8.3-15.4 13.2-15.4 2.5 0 5.2.5 7.4 1.8.7-.8 1.6-1.2 2.7-1.2 1.9 0 3.4 1.5 3.4 3.4 0 6.8-.5 10.8-.5 17.2 0 1 .8 1.9 1.9 1.9.8 0 1.5-.3 2-1 .7-.8 1.9-.7 2.9 0s.8 1.9.3 3c-1 1.9-2.7 4-6.8 4-3.1.1-5.4-1.5-6.8-3.7zm-.7-9.1l.3-8.5s-1.5-1.1-5-1.1c-3.4 0-6.8 2-6.8 8.7 0 4.5 2 6.8 5 6.8 4.8.1 6.4-3.3 6.5-5.9zM341.4 712.4c2.5 0 4.5 2 4.5 4.5 0 5.5-4 10.2-4.9 11-.8.8-2 .7-3 0s-.8-2.2 0-3c.5-.5 1.5-1.8 1.9-3.8-1.8-.5-3.1-2.2-3.1-4.2.1-2.5 2.1-4.5 4.6-4.5zM398.4 713.5c2.5 0 4.5 2 4.5 4.5 0 17.6-10.4 37.4-25.6 37.4-1.6 0-3.1-1.4-3.1-3.1 0-26.6-3.8-32.6-7.6-32.6-.7 0-1.2.3-1.6.8-.7 1-2 1.4-3.1.7-1-.5-1.4-1.6-.8-2.9 1.5-3.4 4.1-5 8.3-5 11.2 0 14 10.2 11.7 35.2 6.1-1.1 11.3-9 12.8-17 1.2-6.3.3-10 .3-13.2-.3-2.8 1.6-4.8 4.2-4.8zM428 746.5c.4-.7 1.1-1 1.8-1 1.2 0 2.2 1.1 2.2 2 0 3.7-5 7.6-12.1 7.6-9 0-15.4-6.1-15.4-13.8 0-9.7 5.9-15.4 14.3-15.4 6.8 0 11.2 3.8 11.2 9.5 0 4.4-3.4 9.4-12.7 9.4-1.9 0-3.5-.1-4.9-.3 1.1 3.1 3.8 4.9 7.5 4.9 4.4.3 6.6-.8 8.1-2.9zm-16.1-6.5c1 .1 2.5.3 4.2.3 4 0 5.9-2.3 5.9-4.8 0-1.8-1.5-3.1-3.1-3.1-3.6.1-6.6 2.3-7 7.6zM455.8 746.3c.7-1 1.6-1.2 2.7-.7s1.5 1.5 1.1 2.9c-1.5 3.4-5.5 7-12 7-7.9 0-13.2-6.1-13.2-13.8 0-9.7 5.9-15.4 14.3-15.4 3.5 0 5.9 1.1 7.2 2.3.8.7 1 1.5 1 2.5 0 1.9-1.5 3.5-4 3.5-1.5 0-2.3-2-4.4-2-3.7 0-6.8 2.6-6.8 9 0 4.8 3.1 7.9 7.1 7.9 3.2 0 5.5-1.1 7-3.2zM482.8 746.3c.7-1 1.6-1.2 2.7-.7s1.5 1.5 1.1 2.9c-1.5 3.4-5.5 7-12 7-7.9 0-13.2-6.1-13.2-13.8 0-9.7 5.9-15.4 14.3-15.4 3.5 0 5.9 1.1 7.2 2.3.8.7 1 1.5 1 2.5 0 1.9-1.5 3.5-4 3.5-1.5 0-2.3-2-4.4-2-3.7 0-6.8 2.6-6.8 9 0 4.8 3.1 7.9 7.1 7.9 3.2 0 5.5-1.1 7-3.2zM506.9 747.8c0-3.1.5-6.3.5-11.7 0-1.8-.8-3.4-3.4-3.4-3.3 0-7.1 1.8-7.1 7.1V751c0 2-1.6 3.7-3.7 3.7-2 0-3.7-1.6-3.7-3.7 0-2.5.5-6.8.5-9.5 0-15.4-.5-20.6-.5-25.1 0-2.2 1.8-4 4-4s4 1.8 4 4c0 4.4-.3 9.5-.3 13.5 2.5-2.5 5.9-3.7 8.7-3.7 8 0 9 6.1 9 8.5 0 4.2-.5 6.3-.5 12.7 0 1 .8 1.9 1.9 1.9.8 0 1.5-.3 2-1 .7-.8 1.9-.7 2.9 0s.8 1.9.1 3c-1 1.9-2.7 4-6.8 4-4.3 0-7.6-3.4-7.6-7.5zM528.1 714c2.5 0 4.5 2 4.5 4.5s-2 4.5-4.5 4.5-4.5-2-4.5-4.5 2-4.5 4.5-4.5zm-4 33.8c0-1.9.3-3.7.3-6.3 0-4.5-.5-11.3-.5-11.3 0-2.2 1.8-4 4-4s4 1.8 4 4c0 6.8-.5 10.8-.5 17.2 0 1 .8 1.9 1.9 1.9.8 0 1.5-.3 2-1 .7-.8 1.9-.7 2.9 0s.8 1.9.3 3c-1 1.9-2.7 4-6.8 4-4.5 0-7.6-3.4-7.6-7.5zM559.3 751.5c-1.9 1.8-4.6 3.8-9.1 3.8-6.3 0-10.6-5.9-10.6-13.8 0-10.8 8.3-15.4 13.2-15.4 2.5 0 5.2.5 7.4 1.8.7-.8 1.6-1.2 2.7-1.2 1.9 0 3.4 1.5 3.4 3.4 0 6.8-.5 10.8-.5 17.2 0 1 .8 1.9 1.9 1.9.8 0 1.5-.3 2-1 .7-.8 1.9-.7 2.9 0s.8 1.9.3 3c-1 1.9-2.7 4-6.8 4-3.1.1-5.6-1.5-6.8-3.7zm-.8-9.1l.3-8.5s-1.5-1.1-5-1.1c-3.4 0-6.8 2-6.8 8.7 0 4.5 2 6.8 5 6.8 4.7.1 6.5-3.3 6.5-5.9zM234.9 740.7c0 3.3-2.6 5.9-5.9 5.9s-5.9-2.6-5.9-5.9 2.6-5.9 5.9-5.9 5.9 2.8 5.9 5.9zM618.6 740.7c0 3.3-2.6 5.9-5.9 5.9-3.3 0-5.9-2.6-5.9-5.9s2.6-5.9 5.9-5.9 5.9 2.8 5.9 5.9z"/></g><g fill="#403120"><path d="M263.1 1098.7h4.1v-19.5h-4.1v-2.5h12.1v2.5h-4.1v19.5h4.1v2.5h-12.1v-2.5zM277.3 1098.7h3.1v-20.3h-3.1v-2.7h6.5v23h3v2.5h-9.7v-2.5h.2zM303.3 1094.8c-.8 0-1.5-.1-2.2-.1-1.2 0-1.8.8-1.8 1.5 0 1 .7 1.5 2.5 1.5h4.5c4 0 5.5 1.8 5.5 4.1 0 3-2.9 5.6-8.9 5.6-4.5 0-7.5-1.6-7.5-3.8 0-1.5 1.5-3 3.5-3.3v-.1c-1.9-.7-2.7-1.8-2.7-3s1.5-2.7 3.1-3c-1.9-1-3-2.3-3-4.5 0-3.5 3-5.6 7-5.6 1 0 1.9.1 2.7.4 1.1-1.9 2.7-3.3 4.8-3.3 1.5 0 2.5 1 2.5 2s-.7 1.9-1.8 1.9c-1 0-1.6-.5-1.6-1.5v-.4c-.7-.1-1.8.7-2.5 1.9 1.6 1 2.7 2.5 2.7 4.4.1 3.4-2.9 5.3-6.8 5.3zm5.4 7.9c0-1.2-.7-1.9-2.6-1.9h-4.2c-2.2 0-3.3.8-3.3 2.3 0 1.2.8 2.5 4.4 2.5 3.3-.1 5.7-1.2 5.7-2.9zm-2.2-13.3c0-2.2-1.2-3.8-3.4-3.8-2 0-3.1 1.1-3.1 3.8 0 2.6 1.4 3.8 3.4 3.8s3.1-1.4 3.1-3.8zM315.6 1096.1v-9.4h-2.7v-2.5h6.3v10.6c0 1.4.3 2.5 1 3 .4.4 1.1.7 1.9.7 2 0 4.4-2 4.4-5.5v-6.4h-2.9v-2.5h6.3v14.6h2.7v2.5h-6.1v-4.4c-1.9 3.1-4 4.5-6.4 4.5-2.9.1-4.5-1.8-4.5-5.2zM334.8 1095.1h2.3c1 2.7 3 4.6 5.5 4.6 2 0 2.9-1 2.9-2.5s-1.1-2.2-4.5-3.1c-4.1-1.1-5.7-2.6-5.7-5.3s2.5-5 5.9-5c1.8 0 3.3.7 4.1 1.9l.4-1.9h2.2v5.9h-2.2c-1.1-2.5-2.2-4-4.5-4-1.4 0-2.6.7-2.6 2.2s1.4 2.3 4.4 3c4 1.1 5.9 2.3 5.9 5.2 0 2.6-2.3 5.3-6.1 5.3-2 0-4-1-4.9-2.2l-.4 2.2h-2.2l-.5-6.3zM356.5 1079.8v4.6h5.6v2.3h-5.6v10c0 1.6.5 2.5 2 2.5 1 0 1.9-1 2.6-2.9l1.6.7c-1 3.3-2.9 4.6-5.3 4.6-2.9 0-4.5-1.8-4.5-4.5v-10.4h-3.4v-2.3h3.4v-4.2l3.6-.4zM364.2 1092.8c0-5.2 3.4-8.9 8.5-8.9 5.3 0 8.5 3.5 8.5 8.7 0 5.2-3.4 8.9-8.5 8.9-5.3 0-8.5-3.5-8.5-8.7zm13-.1c0-4.6-1.8-6.8-4.8-6.8-2.9 0-4.4 2-4.4 6.8s1.8 6.8 4.8 6.8c2.9 0 4.4-2.1 4.4-6.8zM390.7 1098.7h3v-12.1h-3v-2.5h6.5v14.6h3.1v2.5h-9.7l.1-2.5zm2.2-20.5c0-1.5 1-2.5 2.5-2.5s2.5 1 2.5 2.5-1 2.5-2.5 2.5-2.5-1-2.5-2.5zM402.3 1098.7h2.7v-12.1h-2.7v-2.5h6.1v4.4c1.9-3.1 4-4.5 6.4-4.5 2.7 0 4.5 1.9 4.5 5.3v9.4h2.7v2.5h-8.7v-2.5h2.5v-8.2c0-1.2-.3-2.3-1-3-.5-.5-1.1-.7-1.9-.7-2 0-4.4 2-4.4 5.5v6.4h2.5v2.5h-8.7v-2.5zM430.6 1098.7h2.7v-12.1h-3.4v-2.3h3.4v-.8c0-5.9 3.8-8.2 7.2-8.2 3 0 4.8 1.5 4.8 3.4 0 1.2-.8 2.3-2 2.3-1.4 0-2.3-.7-2.3-2.3 0-.3.1-.8.3-1.2-.3-.1-.7-.3-1.4-.3-1.9 0-3.1 1.4-3.1 6.1v1h4.9v2.3h-4.9v12.1h4v2.5h-10.1v-2.5zM447.2 1092.9c.1 4.2 1.9 6.3 5.2 6.3 2 0 3.7-1 4.6-3.1h1.8c-1 3.7-3.7 5.5-7.4 5.5-5.2 0-8.2-3.8-8.2-8.6 0-5 3.5-9 8.3-9 5 0 7.4 4.5 7.2 9h-11.5v-.1zm0-1.7h8.2c-.3-3.1-1.4-5.3-4-5.3-2.3-.1-3.8 1.4-4.2 5.3zM461.5 1098.7h2.7v-12.1h-2.7v-2.5h6.1v4c.8-2.9 3.1-4.1 5-4.1s2.9 1.4 2.9 2.9c0 1.4-1 2.5-2.2 2.5-1.4 0-2.3-.8-2.3-2.2v-.5c-1.6 0-2.9 1.8-3.4 4.1v8.3h3.3v2.5h-9.4v-2.9zM500 1084.1c2.7 0 4.4 1.9 4.4 5.3v9.4h2.7v2.5h-8.5v-2.5h2.3v-8.2c0-1.4-.3-2.5-1-3-.4-.4-1-.7-1.9-.7-1.9 0-4.2 2-4.2 5.5v6.4h2.3v2.5h-8v-2.5h2.3v-8.2c0-1.4-.3-2.5-1-3-.4-.4-1-.7-1.9-.7-1.9 0-4.2 2-4.2 5.5v6.4h2.3v2.5h-8.5v-2.5h2.7v-12.1h-2.7v-2.5h6.1v4.4c1.9-3.1 4-4.5 6.3-4.5 2.5 0 4.1 1.4 4.2 4.4 2-3.3 4.1-4.4 6.3-4.4zM512.8 1092.9c.1 4.2 1.9 6.3 5.2 6.3 2 0 3.7-1 4.6-3.1h1.8c-1 3.7-3.7 5.5-7.4 5.5-5.2 0-8.2-3.8-8.2-8.6 0-5 3.5-9 8.3-9 5 0 7.4 4.5 7.2 9h-11.5v-.1zm0-1.7h8.2c-.3-3.1-1.4-5.3-4-5.3-2.3-.1-3.9 1.4-4.2 5.3zM527 1098.7h2.7v-12.1H527v-2.5h6.1v4.4c1.9-3.1 4-4.5 6.4-4.5 2.7 0 4.5 1.9 4.5 5.3v9.4h2.7v2.5H538v-2.5h2.5v-8.2c0-1.2-.3-2.3-1-3-.5-.5-1.1-.7-1.9-.7-2 0-4.4 2-4.4 5.5v6.4h2.5v2.5H527v-2.5zM554.1 1079.8v4.6h5.6v2.3h-5.6v10c0 1.6.5 2.5 2 2.5 1 0 1.9-1 2.6-2.9l1.6.7c-1 3.3-2.9 4.6-5.3 4.6-3 0-4.5-1.8-4.5-4.5v-10.4h-3.4v-2.3h3.4v-4.2l3.6-.4zM561.9 1092.8c0-5.2 3.4-8.9 8.5-8.9 5.3 0 8.5 3.5 8.5 8.7 0 5.2-3.4 8.9-8.5 8.9-5.4 0-8.5-3.5-8.5-8.7zm13.1-.1c0-4.6-1.8-6.8-4.8-6.8-2.9 0-4.4 2-4.4 6.8s1.8 6.8 4.8 6.8c2.7 0 4.4-2.1 4.4-6.8z"/></g></svg>