<svg id="logo" xmlns="http://www.w3.org/2000/svg" viewBox="0 0 267 66.2"><defs><style>.cls-1{fill:none;stroke:#fff;stroke-width:2.83px;}.cls-2{fill:#fff;}</style></defs><title>logo-bianco</title><rect class="cls-1" x="1.4" y="1.4" width="264.1" height="63.4"/><path class="cls-2" d="M56.5,43.3H49.3V20.7h7c5.4,0,6.4,4.2,6.4,6.3v.4a5.49,5.49,0,0,1-2.3,4.2A5.51,5.51,0,0,1,63,36.1v.7C63,38.9,61.9,43.3,56.5,43.3Zm2.1-16.2a2,2,0,0,0-2.3-2.2H53.4v4.8h3c.9,0,2.1-.3,2.1-2.3v-.3Zm.4,9.1a2.19,2.19,0,0,0-2.3-2.5H53.5v5.4h3A2.21,2.21,0,0,0,59,36.8Z"/><path class="cls-2" d="M69.5,43.3V20.7H82.6v4.1h-9v4.6h8.3v4.1H73.6v5.7h9v4.1Z"/><path class="cls-2" d="M88.5,43.3V20.7h13.1v4.1h-9v4.6h8.3v4.1H92.6v5.7h9v4.1Z"/><path class="cls-2" d="M117.6,43.3l-4.1-8.7h-1.8v8.7h-4.1V20.7h7.1a6.13,6.13,0,0,1,6.6,6.4v1a6.5,6.5,0,0,1-3.4,5.9l4.4,9.3ZM117,27.2a2.24,2.24,0,0,0-2.5-2.4h-2.9v5.7h2.9a2.17,2.17,0,0,0,2.4-2.4v-.9Z"/><path class="cls-2" d="M133.7,43.6c-4.2,0-6.9-3.1-6.9-7.1h4.1a2.68,2.68,0,0,0,2.8,3c1.9,0,3.1-1,3.1-2.5a2.77,2.77,0,0,0-1.6-2.4c-.9-.5-2.4-1.3-4.9-2.5a6.1,6.1,0,0,1-3.2-5.4c0-3.6,2.7-6.1,6.6-6.1,4.1,0,6.8,2.9,6.8,7h-4.2a2.58,2.58,0,0,0-2.7-2.9,2.24,2.24,0,0,0-2.5,2.2,2,2,0,0,0,1.3,1.8c2.7,1.4,3.8,1.9,4.6,2.4a6.63,6.63,0,0,1,3.7,6.1C140.8,40.8,137.7,43.6,133.7,43.6Z"/><path class="cls-2" d="M154.2,24.8V43.2h-4.1V24.8h-5V20.7h14.2v4.1Z"/><path class="cls-2" d="M174.6,43.3l-4.1-8.7h-1.8v8.7h-4.1V20.7h7.1a6.13,6.13,0,0,1,6.6,6.4v1a6.5,6.5,0,0,1-3.4,5.9l4.4,9.3ZM174,27.2a2.24,2.24,0,0,0-2.5-2.4h-2.9v5.7h2.9a2.17,2.17,0,0,0,2.4-2.4v-.9Z"/><path class="cls-2" d="M191.1,43.6a6.54,6.54,0,0,1-6.8-6.6V26.9a6.38,6.38,0,0,1,6.8-6.4,6.52,6.52,0,0,1,6.8,6.4V37A6.47,6.47,0,0,1,191.1,43.6ZM193.7,27a2.35,2.35,0,0,0-2.6-2.4,2.38,2.38,0,0,0-2.7,2.4V37a2.38,2.38,0,0,0,2.7,2.4,2.35,2.35,0,0,0,2.6-2.4Z"/><path class="cls-2" d="M211.9,24.8V43.2h-4.1V24.8h-5V20.7H217v4.1Z"/></svg>