<svg xmlns="http://www.w3.org/2000/svg" viewBox="0 0 1920 1280" enable-background="new 0 0 1920 1280"><path fill="#fff" d="M0 0h1920v1280H0z"/><g fill="none" stroke="#403120"><path stroke-width="13.281" d="M549.3 444.9h821.4"/><path stroke-width="3.765" d="M549.3 435h821.4"/><path stroke-width="13.281" d="M1370.7 853.4H549.3"/><path stroke-width="3.765" d="M1370.7 863.3H549.3"/></g><path fill="#403F34" d="M332.5 498.6h1254.9v301.2H332.5z"/><path d="M350.1 788.7V516.1h1227.6v-25H325v297.6z"/><path fill="#BBB8B8" d="M1600 812.3H320V486h1280v326.3zM345.1 787.2h1229.8V511.1H345.1v276.1z"/><g opacity=".75"><path d="M600.9 707.5h-34.2V600.4h33.4c25.9 0 30.2 20 30.2 29.9v1.8c0 6.3-3.8 15.4-10.8 20 7.5 4.8 12.2 13.4 12.2 21.5v3.5c.1 9.8-5 30.4-30.8 30.4zm9.8-77c0-9.6-6.8-10.7-10.8-10.7h-13.5v23h14.5c4.4 0 9.9-1.5 9.9-11v-1.3zm1.8 43.3c0-9.9-6.5-11.7-11.1-11.7h-15.1V688h14.3c4.2 0 11.9-1.4 11.9-11.1v-3.1zM662.5 707.5V600.4h62v19.4h-42.6v21.7h39.4v19.4h-39.4v27.2h42.6v19.4h-62zM753 707.5V600.4h62v19.4h-42.6v21.7h39.4v19.4h-39.4v27.2H815v19.4h-62zM891.1 707.5l-19.4-41.4H863v41.4h-19.6V600.4H877c26 0 31.2 20.6 31.2 30.4v4.7c0 7.7-2.9 21.5-16.1 27.8l21.1 44.2h-22.1zm-2.7-76.3c0-9.9-7.5-11.4-11.7-11.4H863v26.9h14c4.2 0 11.4-1.3 11.4-11.4v-4.1zM967.4 708.9c-20 0-33-14.6-33-33.9h19.4c0 9.3 5.7 14.5 13.4 14.5 9 0 14.8-5 14.8-11.9 0-5.4-3.2-8.9-7.4-11.3-4.1-2.4-11.3-6-23.2-12-8.7-4.4-15.4-14.3-15.4-25.6 0-17.2 12.9-29.2 31.5-29.2 19.3 0 32.5 14 32.5 33.1h-19.7c0-8.9-5.4-13.8-12.8-13.8-6.6 0-12 3.6-12 10.2 0 3.6 2.2 6.6 6.3 8.7 13 6.6 17.9 9 22 11.3 11.4 6.2 17.5 16.3 17.5 28.9 0 17.9-14.8 31-33.9 31zM1065.1 619.9v87.6h-19.4v-87.6h-23.9v-19.6h67.4v19.6h-24.1zM1161.7 707.5l-19.4-41.4h-8.7v41.4H1114V600.4h33.6c26 0 31.2 20.6 31.2 30.4v4.7c0 7.7-2.9 21.5-16.1 27.8l21.1 44.2h-22.1zm-2.7-76.3c0-9.9-7.5-11.4-11.7-11.4h-13.7v26.9h14c4.2 0 11.4-1.3 11.4-11.4v-4.1zM1240.2 708.9c-25.1 0-32.2-20.9-32.2-31.2v-47.9c0-9.9 6.5-30.3 32.4-30.3 24.8 0 32.2 20.3 32.2 30.4v47.9c-.1 10.3-6.9 31.1-32.4 31.1zm12.6-78.7c0-9.9-8.6-11.3-12.5-11.3-4.2 0-12.9 1.4-12.9 11.3v47.6c0 10.1 8.7 11.6 12.9 11.6 3.9 0 12.5-1.5 12.5-11.6v-47.6zM1339.2 619.9v87.6h-19.4v-87.6h-23.9v-19.6h67.4v19.6h-24.1z"/></g><g fill="#BBB8B8"><path d="M595.9 702.5h-34.2V595.4h33.4c25.9 0 30.3 20 30.3 30v1.8c0 6.3-3.8 15.3-10.8 20 7.5 4.8 12.2 13.4 12.2 21.5v3.5c0 9.7-5.2 30.3-30.9 30.3zm9.8-77c0-9.6-6.8-10.7-10.8-10.7h-13.5v23h14.4c4.4 0 9.9-1.5 9.9-11v-1.3zm1.8 43.3c0-9.9-6.5-11.7-11.1-11.7h-15V683h14.3c4.2 0 11.9-1.3 11.9-11.1v-3.1zM657.5 702.5V595.4h62v19.4h-42.6v21.7h39.4v19.4h-39.4v27.2h42.6v19.4h-62zM747.9 702.5V595.4h62v19.4h-42.6v21.7h39.4v19.4h-39.4v27.2h42.6v19.4h-62zM886.1 702.5l-19.4-41.4H858v41.4h-19.6V595.4H872c26 0 31.1 20.6 31.1 30.4v4.7c0 7.7-2.9 21.5-16.1 27.8l21.1 44.3h-22zm-2.7-76.3c0-9.9-7.5-11.4-11.7-11.4H858v26.9h14c4.2 0 11.4-1.4 11.4-11.4v-4.1zM962.4 703.9c-20 0-33-14.6-33-33.9h19.4c0 9.3 5.7 14.4 13.4 14.4 9 0 14.8-5 14.8-11.9 0-5.4-3.2-8.9-7.4-11.3-4.1-2.4-11.3-6-23.2-12-8.7-4.4-15.3-14.3-15.3-25.6 0-17.2 12.9-29.2 31.5-29.2 19.3 0 32.5 14 32.5 33.1h-19.7c0-8.9-5.4-13.8-12.8-13.8-6.6 0-12 3.6-12 10.2 0 3.6 2.3 6.6 6.3 8.7 12.9 6.6 17.9 9 22 11.3 11.4 6.2 17.5 16.3 17.5 28.9-.1 18-14.9 31.1-34 31.1zM1060.1 614.9v87.6h-19.4v-87.6h-23.9v-19.6h67.4v19.6h-24.1zM1156.7 702.5l-19.4-41.4h-8.7v41.4H1109V595.4h33.6c26 0 31.2 20.6 31.2 30.4v4.7c0 7.7-2.9 21.5-16.1 27.8l21.1 44.3h-22.1zm-2.7-76.3c0-9.9-7.5-11.4-11.7-11.4h-13.7v26.9h14c4.2 0 11.4-1.4 11.4-11.4v-4.1zM1235.1 703.9c-25.1 0-32.2-20.9-32.2-31.2v-47.9c0-9.9 6.5-30.3 32.4-30.3 24.8 0 32.2 20.3 32.2 30.4v47.8c0 10.4-6.8 31.2-32.4 31.2zm12.7-78.7c0-9.9-8.6-11.3-12.5-11.3-4.2 0-12.9 1.4-12.9 11.3v47.6c0 10.1 8.7 11.6 12.9 11.6 3.9 0 12.5-1.5 12.5-11.6v-47.6zM1334.2 614.9v87.6h-19.4v-87.6h-23.9v-19.6h67.4v19.6h-24.1z"/></g><g fill="#403120"><path d="M694.7 348.8c0-25.3 17.9-38.2 36.7-38.2 14.2 0 20.8 8.3 20.8 18 0 6.2-3.6 12.2-8.6 12.2-4 0-6.6-2.5-6.6-5.8s1.8-4.7 1.8-7.3c0-3.7-1.8-6.7-8.9-6.7-8.6 0-19.8 8.8-19.8 27.8 0 16 9.5 21.9 20.1 21.9 11.8 0 16.5-4.1 20-7.5.7-.7 1.7-1.1 2.6-1.1 2 0 4 1.9 4 3.9 0 .7-.3 1.6-.9 2.4-4.1 5.7-12.4 12.9-27 12.9-20.5.1-34.2-14-34.2-32.5zM792.8 375.1c-3.1 3-7.7 6.3-15.3 6.3-10.6 0-17.7-9.7-17.7-23 0-18.1 14-25.7 22.1-25.7 4 0 8.7.8 12.3 3 1.1-1.3 2.7-2.1 4.5-2.1 3.2 0 5.8 2.6 5.8 5.8 0 11.5-.9 18.1-.9 28.8.1 1.7 1.4 3.1 3.1 3.1 1.3 0 2.5-.5 3.4-1.5 1.2-1.3 3.2-1.2 4.7 0s1.4 3.1.4 5.1c-1.7 3.1-4.6 6.5-11.5 6.5-4.7 0-8.8-2.6-10.9-6.3zm-1.2-15.4l.4-14.2s-2.6-1.8-8.4-1.8c-5.8 0-11.5 3.5-11.5 14.6 0 7.5 3.4 11.5 8.4 11.5 8.1.1 10.9-5.7 11.1-10.1zM827 309.7c4.2 0 7.5 3.4 7.5 7.5 0 9.1-6.7 17.1-8.1 18.4-1.4 1.3-3.5 1.2-5 0s-1.4-3.6 0-5c.9-.9 2.4-3 3.3-6.4-3-1-5.2-3.7-5.2-7.1 0-4 3.4-7.4 7.5-7.4zM922.2 311.5c4.2 0 7.5 3.4 7.5 7.5 0 29.5-17.3 62.4-42.9 62.4-2.8 0-5.3-2.3-5.3-5.3 0-44.5-6.4-54.6-12.7-54.6-1.1 0-2 .4-2.8 1.4-1.2 1.6-3.4 2.2-5.2 1.1-1.5-1-2.3-2.7-1.4-4.9 2.5-5.6 6.8-8.5 14-8.5 18.7 0 23.4 17.1 19.6 58.9 10.3-1.8 18.9-15.1 21.4-28.4 2-10.4.4-16.7.4-22.1-.1-4.2 3.2-7.5 7.4-7.5zM971.8 366.7c.7-1.1 1.8-1.6 2.9-1.6 2.1 0 3.7 1.8 3.7 3.5 0 6.2-8.5 12.7-20.4 12.7-15 0-25.7-10.3-25.7-23 0-16.2 9.9-25.7 23.9-25.7 11.5 0 18.6 6.3 18.6 15.9 0 7.2-5.8 15.7-21.2 15.7-3.1 0-5.9-.2-8.1-.4 1.8 5.3 6.3 8.2 12.5 8.2 7.6.1 11.2-1.7 13.8-5.3zM944.9 356c1.6.3 4.1.5 7 .5 6.7 0 9.7-3.8 9.7-7.9 0-2.9-2.4-5.3-5.3-5.3-5.8 0-10.7 3.8-11.4 12.7zM1018.3 366.3c1.1-1.5 2.8-2 4.5-1.2 1.8 1 2.6 2.6 1.8 4.8-2.5 5.8-9.1 11.6-20 11.6-13.3 0-22.1-10.3-22.1-23 0-16.2 9.9-25.7 23.9-25.7 5.9 0 9.8 1.8 12.2 3.9 1.3 1.2 1.7 2.6 1.7 4.1 0 3.2-2.4 6-6.5 6-2.5 0-3.8-3.4-7.3-3.4-6.2 0-11.5 4.4-11.5 15 0 8 5.3 13.3 11.9 13.3 4.9 0 8.8-1.8 11.4-5.4zM1063.4 366.3c1.1-1.5 2.8-2 4.5-1.2 1.8 1 2.6 2.6 1.8 4.8-2.5 5.8-9.1 11.6-20 11.6-13.3 0-22.1-10.3-22.1-23 0-16.2 9.9-25.7 23.9-25.7 5.9 0 9.8 1.8 12.2 3.9 1.3 1.2 1.7 2.6 1.7 4.1 0 3.2-2.4 6-6.6 6-2.5 0-3.8-3.4-7.3-3.4-6.2 0-11.5 4.4-11.5 15 0 8 5.3 13.3 11.9 13.3 5.1 0 9-1.8 11.5-5.4zM1103.7 369c0-5.3.9-10.6.9-19.5 0-3-1.4-5.7-5.8-5.7-5.5 0-11.9 3-11.9 11.9v18.6c0 3.5-2.7 6.2-6.2 6.2-3.4 0-6.2-2.7-6.2-6.2 0-4 .9-11.5.9-15.9 0-25.7-.9-34.5-.9-42 0-3.6 3-6.6 6.6-6.6 3.6 0 6.6 3 6.6 6.6 0 7.3-.4 15.9-.4 22.6 4.2-4.2 9.8-6.2 14.6-6.2 13.5 0 15 10.3 15 14.2 0 7.1-.9 10.6-.9 21.2 0 1.7 1.4 3.1 3.1 3.1 1.3 0 2.5-.5 3.4-1.5 1.2-1.3 3.2-1.2 4.7 0s1.4 3.1.3 5.1c-1.7 3.1-4.6 6.5-11.5 6.5-6.7 0-12.3-5.6-12.3-12.4zM1139.1 312.4c4.2 0 7.5 3.4 7.5 7.5s-3.4 7.5-7.5 7.5c-4.2 0-7.5-3.4-7.5-7.5s3.4-7.5 7.5-7.5zm-6.5 56.6c0-3.1.4-6.2.4-10.6 0-7.5-.9-19-.9-19 0-3.6 3-6.6 6.6-6.6 3.6 0 6.6 3 6.6 6.6 0 11.5-.9 18.1-.9 28.8 0 1.7 1.4 3.1 3.1 3.1 1.3 0 2.5-.5 3.4-1.5 1.2-1.3 3.2-1.2 4.7 0s1.4 3.1.4 5.1c-1.7 3.1-4.6 6.5-11.5 6.5-6.8 0-11.9-5.6-11.9-12.4zM1191.3 375.1c-3.1 3-7.7 6.3-15.3 6.3-10.6 0-17.7-9.7-17.7-23 0-18.1 14-25.7 22.1-25.7 4 0 8.7.8 12.3 3 1.1-1.3 2.7-2.1 4.5-2.1 3.2 0 5.8 2.6 5.8 5.8 0 11.5-.9 18.1-.9 28.8.1 1.7 1.4 3.1 3.1 3.1 1.3 0 2.5-.5 3.4-1.5 1.2-1.3 3.2-1.2 4.7 0s1.4 3.1.4 5.1c-1.7 3.1-4.6 6.5-11.5 6.5-4.7 0-8.8-2.6-10.9-6.3zm-1.2-15.4l.4-14.2s-2.6-1.8-8.4-1.8c-5.8 0-11.5 3.5-11.5 14.6 0 7.5 3.4 11.5 8.4 11.5 8.1.1 10.9-5.7 11.1-10.1zM648.8 357.1c0 5.4-4.4 9.7-9.7 9.7-5.4 0-9.7-4.3-9.7-9.7 0-5.4 4.4-9.7 9.7-9.7 5.4-.1 9.7 4.3 9.7 9.7zM1290.6 357.1c0 5.4-4.3 9.7-9.7 9.7-5.4 0-9.7-4.3-9.7-9.7 0-5.4 4.3-9.7 9.7-9.7 5.4-.1 9.7 4.3 9.7 9.7z"/></g><g fill="#403120"><path d="M696 955.8h6.9v-32.6H696v-4.1h20.2v4.1h-6.9v32.6h6.9v4.1H696v-4.1zM719.8 955.8h5.2v-34h-5.2v-4.5h11v38.5h5.1v4.1h-16.1v-4.1zM763.2 949.3c-1.4 0-2.5-.2-3.7-.2-2 0-3 1.3-3 2.5 0 1.5 1.1 2.5 4.2 2.5h7.5c6.5 0 9.1 2.9 9.1 6.9 0 5-4.8 9.3-14.8 9.3-7.6 0-12.5-2.7-12.5-6.4 0-2.6 2.4-5.1 5.9-5.5v-.3c-3.3-1.1-4.5-3-4.5-5 0-2.1 2.4-4.5 5.3-5.1-3.1-1.5-5.1-3.8-5.1-7.6 0-5.9 5-9.3 11.6-9.3 1.5 0 3.1.3 4.5.7 1.9-3.2 4.6-5.5 7.9-5.5 2.4 0 4 1.5 4 3.5 0 1.7-1.2 3.1-2.9 3.1s-2.7-1-2.7-2.5c0-.2 0-.4.1-.7-1.1-.3-3 1.2-4 3.2 2.8 1.6 4.6 4.2 4.6 7.3 0 5.8-4.9 9.1-11.5 9.1zm8.9 13.2c0-2-1.1-3.3-4.3-3.3h-7c-3.7 0-5.4 1.3-5.4 3.8 0 2.1 1.4 4.2 7.4 4.2 5.5-.1 9.3-1.9 9.3-4.7zm-3.5-22.4c0-3.6-2-6.3-5.7-6.3-3.5 0-5.3 1.9-5.3 6.3s2.2 6.3 5.8 6.3c3.4.1 5.2-2 5.2-6.3zM783.8 951.4v-15.8h-4.5v-4.1h10.4v17.8c0 2.2.4 4 1.5 5 .7.7 1.8 1.2 3.2 1.2 3.5 0 7.4-3.4 7.4-9.1v-10.8H797v-4.1h10.5v24.3h4.5v4.1h-10.2v-7.2c-3.2 5.3-6.6 7.6-10.7 7.6-4.5 0-7.3-3.3-7.3-8.9zM815.9 949.8h3.8c1.6 4.5 5.1 7.7 9.1 7.7 3.4 0 4.8-1.7 4.8-4 0-2.5-1.9-3.6-7.5-5.2-6.8-1.9-9.6-4.3-9.6-8.8 0-4.6 4-8.4 9.8-8.4 2.9 0 5.5 1.1 6.9 3.3l.6-3.3h3.6v9.7h-3.7c-1.9-4.1-3.7-6.7-7.6-6.7-2.2 0-4.4 1.2-4.4 3.6 0 2.5 2.2 3.8 7.3 5.1 6.6 1.8 9.7 3.9 9.7 8.7 0 4.3-3.8 8.9-10.2 8.9-3.5 0-6.5-1.5-8.2-3.7l-.7 3.7H816v-10.6zM852.2 924.2v7.7h9.3v3.8h-9.3v16.7c0 2.8.8 4.1 3.4 4.1 1.7 0 3.1-1.6 4.3-4.9l2.8 1.2c-1.6 5.5-4.9 7.7-8.9 7.7-4.9 0-7.5-2.9-7.5-7.6v-17.3h-5.6v-3.8h5.6v-7.1l5.9-.5zM865.1 945.9c0-8.6 5.7-14.8 14.2-14.8 8.8 0 14.1 6 14.1 14.6 0 8.7-5.7 14.9-14.1 14.9-8.8-.1-14.2-6.1-14.2-14.7zm21.9-.2c0-7.8-3-11.3-8-11.3-4.9 0-7.4 3.5-7.4 11.3 0 7.8 3 11.4 8 11.4 4.8 0 7.4-3.5 7.4-11.4zM909.6 955.8h5.1v-20.2h-5.1v-4.1h11v24.3h5.2v4.1h-16.1v-4.1zm3.6-34.3c0-2.5 1.6-4.2 4-4.2s4 1.6 4 4.1c0 2.5-1.6 4.2-4 4.2s-4-1.6-4-4.1zM928.8 955.8h4.5v-20.2h-4.5v-4.1H939v7.2c3.2-5.3 6.6-7.6 10.7-7.6 4.5 0 7.6 3.3 7.6 8.9v15.8h4.5v4.1h-14.5v-4.1h4.2v-13.7c0-2.1-.5-3.9-1.6-5-.8-.8-1.9-1.2-3.3-1.2-3.5 0-7.4 3.4-7.4 9.1v10.8h4.2v4.1h-14.5v-4.1zM976.2 955.8h4.5v-20.2h-5.6v-3.8h5.6v-1.3c0-9.8 6.3-13.6 12-13.6 5.1 0 8 2.5 8 5.6 0 2-1.4 3.8-3.4 3.8-2.2 0-3.8-1.2-3.8-3.8 0-.5.2-1.4.5-2-.5-.3-1.1-.5-2.2-.5-3.2 0-5.3 2.2-5.3 10.2v1.6h8.2v3.8h-8.2v20.2h6.5v4.1h-16.8v-4.1zM1004 946.1c.2 7 3.2 10.5 8.7 10.5 3.5 0 6.1-1.5 7.8-5.3h3c-1.6 6.1-6.1 9.2-12.3 9.2-8.7 0-13.6-6.3-13.6-14.4 0-8.5 5.9-15 14-15 8.5 0 12.3 7.6 12.1 15.1H1004zm0-2.9h13.6c-.4-5.3-2.2-8.9-6.6-8.9-3.9 0-6.5 2.5-7 8.9zM1027.8 955.8h4.5v-20.2h-4.5v-4.1h10.2v6.6c1.4-4.8 5.2-6.9 8.4-6.9 3.1 0 4.9 2.2 4.9 4.8 0 2.2-1.6 4-3.7 4-2.2 0-3.9-1.3-3.9-3.7 0-.3.1-.7.1-1-2.8-.1-4.7 3-5.7 6.8v13.8h5.4v4.1h-15.8v-4.2zM1092.2 931.2c4.5 0 7.3 3.3 7.3 8.9v15.8h4.5v4.1h-14.2v-4.1h3.9v-13.7c0-2.2-.4-4-1.5-5.1-.7-.7-1.7-1.1-3.1-1.1-3.1 0-7.1 3.4-7.1 9.1v10.8h3.8v4.1h-13.5v-4.1h3.8v-13.7c0-2.2-.4-4-1.5-5.1-.7-.7-1.7-1.1-3.1-1.1-3.1 0-7.1 3.4-7.1 9.1v10.8h3.8v4.1H1054v-4.1h4.5v-20.2h-4.5v-4.1h10.2v7.2c3.2-5.3 6.7-7.6 10.4-7.6 4 0 6.8 2.2 7.1 7.3 3.4-5.3 6.8-7.3 10.5-7.3zM1113.5 946.1c.2 7 3.2 10.5 8.7 10.5 3.5 0 6.1-1.5 7.8-5.3h3c-1.6 6.1-6.1 9.2-12.3 9.2-8.7 0-13.6-6.3-13.6-14.4 0-8.5 5.9-15 14-15 8.5 0 12.3 7.6 12.1 15.1h-19.7zm.1-2.9h13.6c-.4-5.3-2.2-8.9-6.6-8.9-3.9 0-6.5 2.5-7 8.9zM1137.4 955.8h4.5v-20.2h-4.5v-4.1h10.2v7.2c3.2-5.3 6.6-7.6 10.7-7.6 4.5 0 7.6 3.3 7.6 8.9v15.8h4.5v4.1h-14.5v-4.1h4.1v-13.7c0-2.1-.5-3.9-1.6-5-.8-.8-1.9-1.2-3.3-1.2-3.5 0-7.4 3.4-7.4 9.1v10.8h4.2v4.1h-14.5v-4.1zM1182.8 924.2v7.7h9.3v3.8h-9.3v16.7c0 2.8.8 4.1 3.4 4.1 1.7 0 3.1-1.6 4.3-4.9l2.8 1.2c-1.6 5.5-4.9 7.7-8.9 7.7-5 0-7.5-2.9-7.5-7.6v-17.3h-5.6v-3.8h5.6v-7.1l5.9-.5zM1195.7 945.9c0-8.6 5.7-14.8 14.2-14.8 8.8 0 14.1 6 14.1 14.6 0 8.7-5.7 14.9-14.1 14.9-8.9-.1-14.2-6.1-14.2-14.7zm21.8-.2c0-7.8-3-11.3-8-11.3-4.9 0-7.4 3.5-7.4 11.3 0 7.8 3 11.4 8 11.4 4.8 0 7.4-3.5 7.4-11.4z"/></g></svg>