<svg xmlns="http://www.w3.org/2000/svg" viewBox="0 0 841.9 1190.6" enable-background="new 0 0 841.9 1190.6"><g><path fill="#414042" stroke="#D1D3D4" stroke-width="2.835" d="M8.2 496h825v198H8.2z"/><g enable-background="new" opacity=".75"><path d="M207.3 613.5c0 1.1-.1 2.3-.3 3.7-.2 1.4-.6 2.8-1.2 4.3s-1.3 2.9-2.3 4.4c-1 1.4-2.2 2.7-3.7 3.8-1.5 1.1-3.3 2-5.4 2.7-2.1.7-4.6 1-7.4 1h-22.5V563h22c2.8 0 5.3.3 7.4 1 2.1.7 3.9 1.6 5.3 2.6 1.5 1.1 2.7 2.3 3.6 3.7.9 1.4 1.7 2.8 2.2 4.3.5 1.5.9 2.9 1.1 4.3s.3 2.6.3 3.7v1.2c0 1-.2 2.2-.5 3.4-.3 1.2-.8 2.4-1.4 3.6-.6 1.2-1.3 2.3-2.2 3.4-.9 1.1-1.9 2-3.1 2.8 1.3.8 2.4 1.7 3.4 2.8 1 1.1 1.8 2.2 2.5 3.5.7 1.2 1.2 2.5 1.6 3.9.4 1.4.6 2.7.6 4v2.3zm-13.9-30.7c0-1.6-.2-2.8-.7-3.8-.5-.9-1.1-1.6-1.8-2.1s-1.5-.8-2.3-.9c-.8-.1-1.6-.2-2.2-.2h-8.9v15.1h9.5c.7 0 1.5-.1 2.2-.2.8-.2 1.5-.5 2.1-1 .6-.5 1.2-1.2 1.6-2.2.4-.9.6-2.2.6-3.7v-1zm1.2 28.5c0-1.6-.2-3-.7-4s-1.1-1.8-1.8-2.3c-.7-.5-1.5-.9-2.4-1.1-.9-.2-1.7-.3-2.4-.3h-9.9v17h9.4c.7 0 1.5-.1 2.4-.2.9-.2 1.8-.5 2.6-1s1.5-1.3 2-2.2c.5-1 .8-2.3.8-3.9v-2zM225.8 633.5V563h40.8v12.8h-28V590h25.9v12.8h-25.9v17.9h28v12.8h-40.8zM283.6 633.5V563h40.8v12.8h-28V590h25.9v12.8h-25.9v17.9h28v12.8h-40.8zM372.8 633.5L360 606.3h-5.7v27.2h-12.9V563h22.1c2.8 0 5.3.3 7.4 1 2.1.7 3.9 1.6 5.5 2.7 1.5 1.1 2.8 2.4 3.7 3.8 1 1.4 1.8 2.9 2.3 4.4.6 1.5 1 2.9 1.2 4.3.2 1.4.3 2.7.3 3.7v3c0 1.3-.1 2.7-.4 4.4-.3 1.7-.8 3.4-1.6 5.1-.8 1.7-1.9 3.4-3.2 4.9-1.4 1.6-3.2 2.9-5.3 3.9l13.9 29.1h-14.5zm-1.8-50.2c0-1.6-.3-3-.8-3.9-.5-1-1.2-1.7-2-2.3-.8-.5-1.6-.9-2.5-1.1-.9-.2-1.7-.3-2.4-.3h-9v17.7h9.2c.7 0 1.5-.1 2.4-.2.9-.2 1.7-.5 2.5-1s1.4-1.3 1.9-2.3c.5-1 .8-2.3.8-4v-2.6zM443.5 614c0 2.9-.6 5.6-1.7 8.1s-2.7 4.6-4.7 6.5c-2 1.8-4.3 3.2-7.1 4.3-2.7 1-5.6 1.5-8.8 1.5-3.3 0-6.3-.6-8.9-1.7-2.7-1.1-5-2.7-6.8-4.7s-3.3-4.3-4.4-7.1c-1-2.7-1.5-5.7-1.5-8.8h12.8c0 1.5.2 2.9.7 4.1.5 1.2 1.1 2.2 1.9 2.9.8.8 1.7 1.4 2.8 1.8 1.1.4 2.2.6 3.5.6 1.5 0 2.8-.2 4-.6 1.2-.4 2.2-.9 3-1.6.8-.7 1.5-1.5 1.9-2.5.5-1 .7-2 .7-3.2 0-1.8-.5-3.2-1.4-4.4-.9-1.2-2.1-2.2-3.5-3-1.4-.8-3.3-1.8-5.7-3.1-2.4-1.2-5.6-2.9-9.6-4.9-1.4-.7-2.7-1.6-4-2.8-1.2-1.1-2.3-2.4-3.2-3.9-.9-1.5-1.6-3.1-2.1-4.8-.5-1.7-.8-3.5-.8-5.3 0-2.8.5-5.4 1.5-7.8 1-2.4 2.4-4.4 4.3-6.1 1.8-1.7 4-3 6.5-3.9 2.5-.9 5.3-1.4 8.4-1.4 3.2 0 6 .5 8.7 1.6 2.6 1.1 4.9 2.6 6.8 4.5s3.3 4.2 4.4 6.9c1 2.7 1.5 5.6 1.5 8.7h-13c0-1.4-.2-2.7-.6-3.9-.4-1.1-1-2.1-1.8-2.9-.8-.8-1.7-1.4-2.7-1.8s-2.1-.6-3.3-.6c-1.1 0-2.1.1-3.1.4-1 .3-1.8.7-2.5 1.3-.7.6-1.3 1.3-1.7 2.1-.4.8-.6 1.8-.6 2.9 0 1.2.4 2.3 1.1 3.2.7 1 1.7 1.8 3.1 2.5 2.1 1.1 3.9 2 5.5 2.8 1.5.8 2.8 1.4 3.9 2 1.1.5 2.1 1 2.9 1.5.8.4 1.5.8 2.2 1.2 3.8 2 6.6 4.7 8.6 7.9s2.8 7.3 2.8 11.5zM483.8 575.9v57.6H471v-57.6h-15.7V563h44.3v12.9h-15.8zM545.7 633.5l-12.8-27.2h-5.7v27.2h-12.9V563h22.1c2.8 0 5.3.3 7.4 1 2.1.7 3.9 1.6 5.5 2.7 1.5 1.1 2.8 2.4 3.7 3.8 1 1.4 1.8 2.9 2.3 4.4.6 1.5 1 2.9 1.2 4.3.2 1.4.3 2.7.3 3.7v3c0 1.3-.1 2.7-.4 4.4-.3 1.7-.8 3.4-1.6 5.1-.8 1.7-1.9 3.4-3.2 4.9-1.4 1.6-3.2 2.9-5.3 3.9l13.9 29.1h-14.5zm-1.8-50.2c0-1.6-.3-3-.8-3.9-.5-1-1.2-1.7-2-2.3-.8-.5-1.6-.9-2.5-1.1-.9-.2-1.7-.3-2.4-.3h-9v17.7h9.2c.7 0 1.5-.1 2.4-.2.9-.2 1.7-.5 2.5-1s1.4-1.3 1.9-2.3c.5-1 .8-2.3.8-4v-2.6zM616.8 614c0 1.1-.1 2.4-.4 3.8-.3 1.4-.7 2.9-1.4 4.4-.6 1.5-1.5 3-2.6 4.4-1.1 1.4-2.4 2.7-4 3.9-1.6 1.1-3.4 2-5.6 2.7-2.1.7-4.6 1-7.4 1-2.8 0-5.2-.3-7.3-1-2.1-.7-3.9-1.6-5.5-2.8-1.6-1.1-2.9-2.4-3.9-3.9-1.1-1.5-1.9-3-2.6-4.5-.7-1.5-1.1-3-1.4-4.4-.3-1.5-.4-2.7-.4-3.9v-31.5c0-1.1.1-2.3.4-3.7.3-1.4.7-2.8 1.3-4.3.6-1.5 1.5-2.9 2.5-4.3 1.1-1.4 2.4-2.7 3.9-3.8 1.6-1.1 3.4-2 5.6-2.7 2.2-.7 4.7-1 7.5-1 2.7 0 5.1.3 7.2 1 2.1.7 4 1.6 5.5 2.7 1.6 1.1 2.9 2.4 4 3.8s1.9 2.9 2.6 4.3 1.1 2.9 1.4 4.3c.3 1.4.4 2.7.4 3.8V614zm-13-31.4c0-1.6-.3-2.9-.9-3.9-.6-1-1.4-1.7-2.2-2.2-.9-.5-1.8-.9-2.7-1-.9-.2-1.7-.2-2.4-.2s-1.5.1-2.5.2c-1 .2-1.9.5-2.8 1-.9.5-1.6 1.3-2.3 2.2-.6 1-.9 2.3-.9 3.9v31.3c0 1.7.3 3 .9 4 .6 1 1.4 1.8 2.3 2.3.9.5 1.8.9 2.8 1.1s1.8.3 2.5.3c.6 0 1.4-.1 2.4-.3s1.8-.5 2.7-1.1c.9-.5 1.6-1.3 2.2-2.3.6-1 .9-2.3.9-4v-31.3zM659 575.9v57.6h-12.8v-57.6h-15.7V563h44.3v12.9H659z"/></g><g enable-background="new" fill="#E6E7E8"><path d="M200.7 606.9c0 1.1-.1 2.3-.3 3.7-.2 1.4-.6 2.8-1.2 4.3s-1.3 2.9-2.3 4.4c-1 1.4-2.2 2.7-3.7 3.8-1.5 1.1-3.3 2-5.4 2.7-2.1.7-4.6 1-7.4 1h-22.5v-70.5h22c2.8 0 5.3.3 7.4 1 2.1.7 3.9 1.6 5.3 2.6 1.5 1.1 2.7 2.3 3.6 3.7.9 1.4 1.7 2.8 2.2 4.3.5 1.5.9 2.9 1.1 4.3s.3 2.6.3 3.7v1.2c0 1-.2 2.2-.5 3.4-.3 1.2-.8 2.4-1.4 3.6-.6 1.2-1.3 2.3-2.2 3.4-.9 1.1-1.9 2-3.1 2.8 1.3.8 2.4 1.7 3.4 2.8 1 1.1 1.8 2.2 2.5 3.5.7 1.2 1.2 2.5 1.6 3.9.4 1.4.6 2.7.6 4v2.4zm-13.9-30.7c0-1.6-.2-2.8-.7-3.8-.5-.9-1.1-1.6-1.8-2.1s-1.5-.8-2.3-.9c-.8-.1-1.6-.2-2.2-.2h-8.9v15.1h9.5c.7 0 1.5-.1 2.2-.2.8-.2 1.5-.5 2.1-1 .6-.5 1.2-1.2 1.6-2.2.4-.9.6-2.2.6-3.7v-1zm1.2 28.5c0-1.6-.2-3-.7-4s-1.1-1.8-1.8-2.3c-.7-.5-1.5-.9-2.4-1.1-.9-.2-1.7-.3-2.4-.3h-9.9v17h9.4c.7 0 1.5-.1 2.4-.2.9-.2 1.8-.5 2.6-1s1.5-1.3 2-2.2c.5-1 .8-2.3.8-3.9v-2zM219.2 626.9v-70.5H260v12.8h-28v14.3h25.9v12.8H232v17.9h28V627h-40.8zM277 626.9v-70.5h40.8v12.8h-28v14.3h25.9v12.8h-25.9v17.9h28V627H277zM366.2 626.9l-12.8-27.2h-5.7v27.2h-12.9v-70.5h22.1c2.8 0 5.3.3 7.4 1 2.1.7 3.9 1.6 5.5 2.7 1.5 1.1 2.8 2.4 3.7 3.8 1 1.4 1.8 2.9 2.3 4.4.6 1.5 1 2.9 1.2 4.3.2 1.4.3 2.7.3 3.7v3c0 1.3-.1 2.7-.4 4.4-.3 1.7-.8 3.4-1.6 5.1-.8 1.7-1.9 3.4-3.2 4.9-1.4 1.6-3.2 2.9-5.3 3.9l13.9 29.1h-14.5zm-1.8-50.2c0-1.6-.3-3-.8-3.9-.5-1-1.2-1.7-2-2.3-.8-.5-1.6-.9-2.5-1.1-.9-.2-1.7-.3-2.4-.3h-9v17.7h9.2c.7 0 1.5-.1 2.4-.2.9-.2 1.7-.5 2.5-1s1.4-1.3 1.9-2.3c.5-1 .8-2.3.8-4v-2.6zM436.9 607.4c0 2.9-.6 5.6-1.7 8.1s-2.7 4.6-4.7 6.5c-2 1.8-4.3 3.2-7.1 4.3-2.7 1-5.6 1.5-8.8 1.5-3.3 0-6.3-.6-8.9-1.7-2.7-1.1-5-2.7-6.8-4.7s-3.3-4.3-4.4-7.1c-1-2.7-1.5-5.7-1.5-8.8h12.8c0 1.5.2 2.9.7 4.1.5 1.2 1.1 2.2 1.9 2.9.8.8 1.7 1.4 2.8 1.8 1.1.4 2.2.6 3.5.6 1.5 0 2.8-.2 4-.6 1.2-.4 2.2-.9 3-1.6.8-.7 1.5-1.5 1.9-2.5.5-1 .7-2 .7-3.2 0-1.8-.5-3.2-1.4-4.4-.9-1.2-2.1-2.2-3.5-3-1.4-.8-3.3-1.8-5.7-3.1-2.4-1.2-5.6-2.9-9.6-4.9-1.4-.7-2.7-1.6-4-2.8-1.2-1.1-2.3-2.4-3.2-3.9-.9-1.5-1.6-3.1-2.1-4.8-.5-1.7-.8-3.5-.8-5.3 0-2.8.5-5.4 1.5-7.8 1-2.4 2.4-4.4 4.3-6.1 1.8-1.7 4-3 6.5-3.9 2.5-.9 5.3-1.4 8.4-1.4 3.2 0 6 .5 8.7 1.6 2.6 1.1 4.9 2.6 6.8 4.5s3.3 4.2 4.4 6.9c1 2.7 1.5 5.6 1.5 8.7h-13c0-1.4-.2-2.7-.6-3.9-.4-1.1-1-2.1-1.8-2.9-.8-.8-1.7-1.4-2.7-1.8-1-.4-2.1-.6-3.3-.6-1.1 0-2.1.1-3.1.4-1 .3-1.8.7-2.5 1.3-.7.6-1.3 1.3-1.7 2.1-.4.8-.6 1.8-.6 2.9 0 1.2.4 2.3 1.1 3.2.7 1 1.7 1.8 3.1 2.5 2.1 1.1 3.9 2 5.5 2.8 1.5.8 2.8 1.4 3.9 2 1.1.5 2.1 1 2.9 1.5.8.4 1.5.8 2.2 1.2 3.8 2 6.6 4.7 8.6 7.9 1.8 3.6 2.8 7.3 2.8 11.5zM477.2 569.3v57.6h-12.8v-57.6h-15.7v-12.9H493v12.9h-15.8zM539.1 626.9l-12.8-27.2h-5.7v27.2h-12.9v-70.5h22.1c2.8 0 5.3.3 7.4 1 2.1.7 3.9 1.6 5.5 2.7 1.5 1.1 2.8 2.4 3.7 3.8 1 1.4 1.8 2.9 2.3 4.4.6 1.5 1 2.9 1.2 4.3.2 1.4.3 2.7.3 3.7v3c0 1.3-.1 2.7-.4 4.4-.3 1.7-.8 3.4-1.6 5.1-.8 1.7-1.9 3.4-3.2 4.9-1.4 1.6-3.2 2.9-5.3 3.9l13.9 29.1h-14.5zm-1.8-50.2c0-1.6-.3-3-.8-3.9-.5-1-1.2-1.7-2-2.3-.8-.5-1.6-.9-2.5-1.1-.9-.2-1.7-.3-2.4-.3h-9v17.7h9.2c.7 0 1.5-.1 2.4-.2.9-.2 1.7-.5 2.5-1s1.4-1.3 1.9-2.3c.5-1 .8-2.3.8-4v-2.6zM610.2 607.4c0 1.1-.1 2.4-.4 3.8-.3 1.4-.7 2.9-1.4 4.4-.6 1.5-1.5 3-2.6 4.4-1.1 1.4-2.4 2.7-4 3.9-1.6 1.1-3.4 2-5.6 2.7-2.1.7-4.6 1-7.4 1-2.8 0-5.2-.3-7.3-1-2.1-.7-3.9-1.6-5.5-2.8-1.6-1.1-2.9-2.4-3.9-3.9-1.1-1.5-1.9-3-2.6-4.5-.7-1.5-1.1-3-1.4-4.4-.3-1.5-.4-2.7-.4-3.9v-31.5c0-1.1.1-2.3.4-3.7.3-1.4.7-2.8 1.3-4.3.6-1.5 1.5-2.9 2.5-4.3 1.1-1.4 2.4-2.7 3.9-3.8 1.6-1.1 3.4-2 5.6-2.7 2.2-.7 4.7-1 7.5-1 2.7 0 5.1.3 7.2 1 2.1.7 4 1.6 5.5 2.7 1.6 1.1 2.9 2.4 4 3.8s1.9 2.9 2.6 4.3 1.1 2.9 1.4 4.3c.3 1.4.4 2.7.4 3.8v31.7zm-13-31.4c0-1.6-.3-2.9-.9-3.9-.6-1-1.4-1.7-2.2-2.2-.9-.5-1.8-.9-2.7-1-.9-.2-1.7-.2-2.4-.2s-1.5.1-2.5.2c-1 .2-1.9.5-2.8 1-.9.5-1.6 1.3-2.3 2.2-.6 1-.9 2.3-.9 3.9v31.3c0 1.7.3 3 .9 4 .6 1 1.4 1.8 2.3 2.3.9.5 1.8.9 2.8 1.1s1.8.3 2.5.3c.6 0 1.4-.1 2.4-.3s1.8-.5 2.7-1.1c.9-.5 1.6-1.3 2.2-2.3.6-1 .9-2.3.9-4V576zM652.4 569.3v57.6h-12.8v-57.6h-15.7v-12.9h44.3v12.9h-15.8z"/></g></g></svg>