<svg xmlns="http://www.w3.org/2000/svg" viewBox="-122.7 267.7 470 242.6" enable-background="new -122.7 267.7 470 242.6"><path fill="#3B3B3C" d="M-118.1 337h460.8v110.6h-460.8z"/><path fill="#C0C2C4" d="M347.3 452.2h-470V332.4h470v119.8zm-460.8-9.2h451.6V341.6h-451.6V443zm92.1-31.1h-12.5v-39.3h12.3c9.5 0 11.1 7.4 11.1 11v.7c0 2.3-1.4 5.6-4 7.4 2.8 1.8 4.5 4.9 4.5 7.9v1.3c0 3.4-1.9 11-11.4 11zm3.6-28.3c0-3.5-2.5-3.9-4-3.9h-5v8.5h5.3c1.6 0 3.7-.6 3.7-4v-.6zm.7 15.9c0-3.6-2.4-4.3-4.1-4.3h-5.5v9.5h5.2c1.5 0 4.4-.5 4.4-4.1v-1.1zm18.3 12.4v-39.3H24v7.1H8.4v8h14.5v7.1H8.4v10H24v7.1H1.2zm33.2 0v-39.3h22.8v7.1H41.6v8h14.5v7.1H41.6v10h15.6v7.1H34.4zm50.8 0L78 396.7h-3.2v15.2h-7.2v-39.3H80c9.6 0 11.4 7.6 11.4 11.2v1.7c0 2.8-1 7.9-5.9 10.2l7.7 16.2h-8zm-1-28c0-3.6-2.8-4.2-4.3-4.2h-5v9.9H80c1.5 0 4.2-.5 4.2-4.2v-1.5zm29 28.5c-7.4 0-12.1-5.4-12.1-12.4h7.1c0 3.4 2.1 5.3 4.9 5.3 3.3 0 5.4-1.8 5.4-4.4 0-2-1.2-3.3-2.7-4.1-1.5-.9-4.1-2.2-8.5-4.4-3.2-1.6-5.6-5.3-5.6-9.4 0-6.3 4.8-10.7 11.5-10.7 7.1 0 11.9 5.1 11.9 12.2h-7.2c0-3.3-2-5.1-4.7-5.1-2.4 0-4.4 1.3-4.4 3.8 0 1.3.8 2.4 2.3 3.2 4.8 2.4 6.6 3.3 8.1 4.1 4.2 2.3 6.4 6 6.4 10.6 0 6.5-5.4 11.3-12.4 11.3zm35.9-32.6V412H142v-32.2h-8.8v-7.2H158v7.2h-8.9zm35.4 32.1l-7.1-15.2h-3.2v15.2H167v-39.3h12.3c9.6 0 11.4 7.6 11.4 11.2v1.7c0 2.8-1.1 7.9-5.9 10.2l7.7 16.2h-8zm-.9-28c0-3.6-2.8-4.2-4.3-4.2h-5v9.9h5.1c1.5 0 4.2-.5 4.2-4.2v-1.5zm29.7 28.5c-9.2 0-11.8-7.7-11.8-11.4v-17.6c0-3.6 2.4-11.1 11.9-11.1 9.1 0 11.8 7.5 11.8 11.2V401c0 3.8-2.5 11.4-11.9 11.4zm4.7-28.9c0-3.6-3.2-4.1-4.6-4.1-1.5 0-4.8.5-4.8 4.1V401c0 3.7 3.2 4.3 4.8 4.3 1.4 0 4.6-.6 4.6-4.3v-17.5zm31.7-3.7V412h-7.1v-32.2h-8.8v-7.2h24.8v7.2h-8.9z"/><path d="M338.1 341.6v1.8h-449.7V443h-1.8V341.6h451.5zM25.8 374.4H24v5.3H8.4v8h1.8v-6.1h15.6v-7.2zm33.3 39.4H36.3V412h20.9v-5.3H59v7.1zm0-32.3H43.4v6.1h-1.8v-8h15.6v-5.3H59v7.2zm-17.5 13.3h14.5v-5.3h1.8v7.1H43.4v8.2h-1.8v-10zm35.1 19h-7.2V412h5.3v-15.2H78l.9 1.8h-2.2v15.2zm10.6-16.3l7.7 16.2h-8l-.9-1.8h7.1l-7.7-16.2c4.9-2.3 5.9-7.4 5.9-10.2v-1.7c0-1.8-.5-4.7-2.3-7.1 3.2 2.5 4.1 6.5 4.1 8.9v1.7c.1 2.8-1 7.9-5.9 10.2zm-78.9-2.7h14.5v-5.3h1.8v7.1H10.2v8.2H8.4v-10zm-26.5-13c-.6-.2-1.3-.3-1.8-.3h-5v6.6h-1.8v-8.5h5c1.1.1 2.9.4 3.6 2.2zm-8.6 13.4h5.5c1.3 0 3 .4 3.7 2.2-.6-.3-1.3-.3-1.9-.3h-5.5v7.7h-1.8v-9.6zm7.2 18.6H-32V412h10.7c9.4 0 11.3-7.6 11.3-11.2v-1.3c0-1.9-.8-3.9-2.1-5.6 2.4 1.8 3.9 4.7 3.9 7.4v1.3c0 3.6-1.9 11.2-11.3 11.2zm45.3 0H3.1V412H24v-5.3h1.8v7.1zm58-31.9c-.7-.3-1.5-.4-2.1-.4h-5v8.1h-1.8v-9.9h5c1.2 0 3.1.4 3.9 2.2zm-92.5 3.5v.7c0 2.3-1.3 5.5-3.8 7.2-.6-.6-1.2-1.2-2-1.7 2.6-1.7 4-5 4-7.4v-.7c0-1.9-.4-4.8-2.2-7.1 3.3 2.5 4 6.6 4 9zm260.3 28.4h-7.1V412h5.3v-32.2h8.8v-5.3h1.8v7.2h-8.8v32.1zm-134.3-32.1c-.7-.3-1.4-.5-2.2-.5-2.4 0-4.4 1.3-4.4 3.8 0 .5.1.9.3 1.3-1.4-.8-2.2-1.8-2.2-3.1 0-2.4 2-3.8 4.4-3.8 1.9-.1 3.3.7 4.1 2.3zm65.9.2c-.7-.3-1.5-.4-2.1-.4h-5v8.1h-1.8v-9.9h5c1.1 0 3.1.4 3.9 2.2zm-7.1 31.9h-7.2V412h5.3v-15.2h3.2l.9 1.8h-2.2v15.2zm10.6-16.3l7.7 16.2h-8.1l-.9-1.8h7.1l-7.7-16.2c4.9-2.3 5.9-7.4 5.9-10.2v-1.7c0-1.8-.5-4.7-2.2-7.1 3.2 2.5 4.1 6.5 4.1 8.9v1.7c0 2.8-1 7.9-5.9 10.2zm55.9-15.9h-6.9v-1.8h6.9v1.8zM205.9 410c1.8 1.4 4.2 2.4 7.5 2.4 9.4 0 11.9-7.6 11.9-11.4v-17.6c0-1.8-.7-4.6-2.5-6.9 3.2 2.5 4.3 6.4 4.3 8.7v17.6c0 3.8-2.5 11.4-11.9 11.4-4.6 0-7.5-1.8-9.3-4.2zm11.7-28.3c-.9-.4-1.8-.5-2.4-.5-1.5 0-4.8.5-4.8 4.1v17.5c0 .8.2 1.4.4 1.9-1.2-.5-2.2-1.6-2.2-3.7v-17.5c0-3.6 3.2-4.1 4.8-4.1 1.1 0 3.4.3 4.2 2.3zm-109.1 20.1h1.6c0 1.1.3 2.1.7 2.9-1.1-.6-1.9-1.5-2.3-2.9zm-2.9 8.1c2 1.6 4.5 2.5 7.6 2.5 7 0 12.4-4.8 12.4-11.4 0-2.8-.8-5.3-2.4-7.3 2.8 2.3 4.3 5.4 4.3 9.1 0 6.6-5.4 11.4-12.4 11.4-4.1 0-7.3-1.6-9.5-4.3zm.2-18.5c.5.4 1 .7 1.5 1 4.4 2.2 7 3.5 8.5 4.4.9.5 1.6 1.2 2.1 2-.1-.1-.2-.1-.3-.2-1.5-.9-4.1-2.2-8.5-4.4-1.2-.7-2.3-1.6-3.3-2.8zm45.1 22.4h-7.1V412h5.3v-32.2h8.8v-5.3h1.8v7.2h-8.8v32.1zM127 386.2h-7.2c0-.7-.1-1.3-.3-1.8h5.7c0-3.1-1-5.8-2.6-7.8 2.7 2.1 4.4 5.5 4.4 9.6zm14.9-4.6H135v-1.8h6.9v1.8z"/><path fill="#3B3B3C" d="M263.1 319H-38.5v-3.2h301.6v3.2zm0-5.8H-38.5v.9h301.6v-.9zm0 152.5H-38.5v3.3h301.6v-3.3zm0 4.8H-38.5v.9h301.6v-.9zM27.4 294c5.4 0 8.4-2.7 9.9-4.7.2-.3.3-.6.3-.9 0-.7-.7-1.4-1.5-1.4-.3 0-.7.1-.9.4-1.3 1.3-3 2.8-7.3 2.8-3.9 0-7.4-2.2-7.4-8.1 0-7 4.1-10.2 7.3-10.2 2.6 0 3.3 1.1 3.3 2.5 0 1-.6 1.5-.6 2.7 0 1.2 1 2.1 2.4 2.1 1.8 0 3.2-2.2 3.2-4.5 0-3.6-2.4-6.6-7.6-6.6-6.9 0-13.5 4.7-13.5 14-.1 6.7 4.9 11.9 12.4 11.9zm27.5 0c2.5 0 3.6-1.3 4.2-2.4.4-.7.4-1.4-.1-1.9-.6-.5-1.3-.5-1.7 0-.3.4-.7.6-1.2.6-.6 0-1.1-.5-1.1-1.1 0-3.9.3-6.3.3-10.6 0-1.2-.9-2.1-2.1-2.1-.7 0-1.3.3-1.7.8-1.3-.8-3.1-1.1-4.5-1.1-3 0-8.1 2.8-8.1 9.4 0 4.9 2.6 8.4 6.5 8.4 2.8 0 4.5-1.2 5.6-2.3.7 1.4 2.2 2.3 3.9 2.3zm-8.5-4.2c-1.8 0-3.1-1.5-3.1-4.2 0-4.1 2.1-5.4 4.2-5.4s3.1.6 3.1.6l-.2 5.2c0 1.7-1 3.8-4 3.8zm14.3-19.4c0 1.2.8 2.2 1.9 2.6-.3 1.2-.9 2-1.2 2.3-.5.5-.6 1.4 0 1.8.6.5 1.3.5 1.8 0s3-3.4 3-6.8c0-1.5-1.2-2.8-2.8-2.8-1.4.2-2.7 1.4-2.7 2.9zm35 .7c0 2 .6 4.3-.2 8.1-.9 4.9-4.1 9.8-7.9 10.4 1.4-15.4-.3-21.6-7.2-21.6-2.6 0-4.2 1.1-5.1 3.1-.3.8 0 1.4.5 1.8.7.4 1.5.2 1.9-.4.3-.4.6-.5 1-.5 2.3 0 4.7 3.7 4.7 20.1 0 1.1.9 1.9 1.9 1.9 9.4 0 15.8-12.1 15.8-22.9 0-1.5-1.2-2.8-2.8-2.8-1.4 0-2.6 1.3-2.6 2.8zm15.9 19.5c-2.3 0-3.9-1.1-4.6-3 .8.1 1.8.2 3 .2 5.7 0 7.8-3.1 7.8-5.8 0-3.5-2.6-5.8-6.8-5.8-5.1 0-8.8 3.5-8.8 9.4 0 4.7 3.9 8.4 9.4 8.4 4.4 0 7.5-2.4 7.5-4.7 0-.6-.6-1.3-1.4-1.3-.4 0-.8.2-1.1.6-.9 1.3-2.2 2-5 2zM111 280c1.1 0 1.9.9 1.9 1.9 0 1.5-1.1 2.9-3.6 2.9-1.1 0-2-.1-2.6-.2.3-3.2 2.1-4.6 4.3-4.6zm18.5 10.4c-2.4 0-4.4-1.9-4.4-4.9 0-3.9 1.9-5.5 4.2-5.5 1.3 0 1.8 1.2 2.7 1.2 1.5 0 2.4-1 2.4-2.2 0-.6-.1-1.1-.6-1.5-.9-.8-2.3-1.4-4.5-1.4-5.1 0-8.8 3.5-8.8 9.4 0 4.7 3.3 8.4 8.1 8.4 4 0 6.4-2.1 7.3-4.3.3-.8 0-1.4-.6-1.8-.6-.3-1.3-.1-1.7.5-.8 1.5-2.3 2.1-4.1 2.1zm16.6 0c-2.4 0-4.4-1.9-4.4-4.9 0-3.9 1.9-5.5 4.2-5.5 1.3 0 1.8 1.2 2.7 1.2 1.5 0 2.4-1 2.4-2.2 0-.6-.1-1.1-.6-1.5-.9-.8-2.3-1.4-4.5-1.4-5.1 0-8.8 3.5-8.8 9.4 0 4.7 3.3 8.4 8.1 8.4 4 0 6.4-2.1 7.3-4.3.3-.8 0-1.4-.6-1.8-.6-.3-1.3-.1-1.7.5-.8 1.5-2.3 2.1-4.1 2.1zm23.5 3.6c2.5 0 3.6-1.3 4.2-2.4.4-.7.4-1.4-.1-1.9-.6-.5-1.3-.5-1.7 0-.3.4-.7.6-1.2.6-.6 0-1.1-.5-1.1-1.1 0-3.9.3-5.2.3-7.8 0-1.4-.6-5.2-5.5-5.2-1.8 0-3.8.7-5.4 2.3 0-2.4.2-5.6.2-8.3 0-1.3-1.1-2.4-2.4-2.4-1.3 0-2.4 1.1-2.4 2.4 0 2.8.3 6 .3 15.4 0 1.6-.3 4.4-.3 5.8 0 1.3 1 2.3 2.3 2.3 1.3 0 2.3-1 2.3-2.3v-6.8c0-3.3 2.4-4.4 4.4-4.4 1.6 0 2.1 1 2.1 2.1 0 3.2-.3 5.2-.3 7.1-.2 2.6 1.8 4.6 4.3 4.6zm5.7-22.6c0 1.5 1.2 2.8 2.8 2.8 1.5 0 2.8-1.2 2.8-2.8 0-1.5-1.2-2.8-2.8-2.8-1.5.1-2.8 1.3-2.8 2.8zm4.8 22.6c2.5 0 3.6-1.3 4.2-2.4.4-.7.4-1.4-.1-1.9-.6-.5-1.3-.5-1.7 0-.3.4-.7.6-1.2.6-.6 0-1.1-.5-1.1-1.1 0-3.9.3-6.3.3-10.6 0-1.3-1.1-2.4-2.4-2.4-1.3 0-2.4 1.1-2.4 2.4 0 0 .3 4.2.3 7 0 1.6-.2 2.8-.2 3.9-.1 2.5 1.8 4.5 4.3 4.5zm21.1 0c2.5 0 3.6-1.3 4.2-2.4.4-.7.4-1.4-.1-1.9-.6-.5-1.3-.5-1.7 0-.3.4-.8.6-1.2.6-.6 0-1.1-.5-1.1-1.1 0-3.9.3-6.3.3-10.6 0-1.2-.9-2.1-2.1-2.1-.7 0-1.3.3-1.7.8-1.3-.8-3.1-1.1-4.5-1.1-3 0-8.1 2.8-8.1 9.4 0 4.9 2.6 8.4 6.5 8.4 2.8 0 4.5-1.2 5.6-2.3.7 1.4 2.2 2.3 3.9 2.3zm-8.4-4.2c-1.9 0-3.1-1.5-3.1-4.2 0-4.1 2.1-5.4 4.2-5.4s3.1.6 3.1.6l-.2 5.2c-.1 1.7-1.1 3.8-4 3.8zm-194.7-4.7c0 2-1.6 3.6-3.6 3.6s-3.6-1.6-3.6-3.6 1.6-3.6 3.6-3.6 3.6 1.6 3.6 3.6zm235.6 0c0 2-1.6 3.6-3.6 3.6s-3.6-1.6-3.6-3.6 1.6-3.6 3.6-3.6 3.6 1.6 3.6 3.6zM15.4 504.9h2.5v-12h-2.5v-1.5h7.4v1.5h-2.5v12h2.5v1.5h-7.4v-1.5zm8.7 0H26v-12.5h-1.9v-1.6h4v14.1H30v1.5h-5.9v-1.5zm15.9-2.4c-.5 0-.9-.1-1.4-.1-.7 0-1.1.5-1.1.9 0 .5.4.9 1.5.9h2.7c2.4 0 3.3 1.1 3.3 2.5 0 1.8-1.8 3.4-5.4 3.4-2.8 0-4.6-1-4.6-2.3 0-1 .9-1.9 2.2-2v-.1c-1.2-.4-1.7-1.1-1.7-1.8 0-.8.9-1.6 2-1.9-1.1-.5-1.9-1.4-1.9-2.8 0-2.2 1.8-3.4 4.3-3.4.6 0 1.1.1 1.6.3.7-1.2 1.7-2 2.9-2 .9 0 1.5.5 1.5 1.3 0 .6-.5 1.1-1 1.1-.6 0-1-.4-1-.9v-.3c-.4-.1-1.1.5-1.5 1.2 1 .6 1.7 1.5 1.7 2.7.2 2.1-1.6 3.3-4.1 3.3zm3.3 4.9c0-.7-.4-1.2-1.6-1.2h-2.6c-1.4 0-2 .5-2 1.4 0 .8.5 1.5 2.7 1.5 2.1 0 3.5-.7 3.5-1.7zm-1.3-8.2c0-1.3-.7-2.3-2.1-2.3-1.3 0-2 .7-2 2.3 0 1.6.8 2.3 2.1 2.3 1.4 0 2-.8 2-2.3zm5.6 4.1v-5.8h-1.7V496h3.8v6.5c0 .8.2 1.5.5 1.8.3.3.7.4 1.2.4 1.3 0 2.7-1.3 2.7-3.3v-4h-1.7V496h3.9v8.9H58v1.5h-3.8v-2.6c-1.2 2-2.4 2.8-3.9 2.8-1.7 0-2.7-1.2-2.7-3.3zm11.8-.6h1.4c.6 1.7 1.9 2.8 3.3 2.8 1.2 0 1.8-.6 1.8-1.5s-.7-1.3-2.8-1.9c-2.5-.7-3.5-1.6-3.5-3.2 0-1.7 1.5-3.1 3.6-3.1 1.1 0 2 .4 2.5 1.2l.2-1.2h1.3v3.6h-1.4c-.7-1.5-1.4-2.5-2.8-2.5-.8 0-1.6.5-1.6 1.3 0 .9.8 1.4 2.7 1.9 2.4.7 3.5 1.4 3.5 3.2 0 1.6-1.4 3.3-3.7 3.3-1.3 0-2.4-.5-3-1.4l-.2 1.4h-1.3v-3.9zm13.3-9.4v2.8h3.4v1.4h-3.4v6.2c0 1 .3 1.5 1.2 1.5.6 0 1.1-.6 1.6-1.8l1 .4c-.6 2-1.8 2.8-3.3 2.8-1.8 0-2.8-1.1-2.8-2.8v-6.4h-2V496h2v-2.6l2.3-.1zm4.8 8c0-3.2 2.1-5.4 5.2-5.4 3.2 0 5.2 2.2 5.2 5.4s-2.1 5.5-5.2 5.5c-3.3-.2-5.2-2.4-5.2-5.5zm8-.1c0-2.9-1.1-4.2-2.9-4.2-1.8 0-2.7 1.3-2.7 4.2 0 2.9 1.1 4.2 2.9 4.2 1.8 0 2.7-1.3 2.7-4.2zm8.3 3.7h1.9v-7.4h-1.9V496h4v8.9h1.9v1.5h-5.9v-1.5zm1.3-12.6c0-.9.6-1.5 1.5-1.5s1.5.6 1.5 1.5-.6 1.5-1.5 1.5-1.5-.6-1.5-1.5zm5.8 12.6h1.7v-7.4h-1.7V496h3.8v2.6c1.2-2 2.4-2.8 3.9-2.8 1.7 0 2.8 1.2 2.8 3.3v5.8h1.7v1.5h-5.3v-1.5h1.5v-5c0-.8-.2-1.4-.6-1.8-.3-.3-.7-.5-1.2-.5-1.3 0-2.7 1.3-2.7 3.3v4h1.5v1.5H101v-1.5zm17.4 0h1.7v-7.4h-2.1v-1.4h2.1v-.5c0-3.6 2.3-5 4.4-5 1.9 0 2.9.9 2.9 2 0 .7-.5 1.4-1.2 1.4-.8 0-1.4-.5-1.4-1.4 0-.2.1-.5.2-.8-.2-.1-.4-.2-.8-.2-1.2 0-2 .8-2 3.8v.6h3v1.4h-3v7.4h2.4v1.5h-6.2v-1.4zm10.2-3.5c.1 2.6 1.2 3.8 3.2 3.8 1.3 0 2.2-.5 2.9-1.9h1.1c-.6 2.2-2.2 3.4-4.5 3.4-3.2 0-5-2.3-5-5.3 0-3.1 2.2-5.5 5.1-5.5 3.1 0 4.5 2.8 4.4 5.5h-7.2zm0-1.1h5c-.2-1.9-.8-3.3-2.4-3.3-1.5 0-2.4.9-2.6 3.3zm8.7 4.6h1.7v-7.4h-1.7V496h3.8v2.4c.5-1.8 1.9-2.5 3.1-2.5 1.2 0 1.8.8 1.8 1.8 0 .8-.6 1.5-1.4 1.5-.8 0-1.4-.5-1.4-1.3 0-.1 0-.3.1-.4-1 0-1.7 1.1-2.1 2.5v5.1h2v1.5h-5.8v-1.7zm23.6-9c1.7 0 2.7 1.2 2.7 3.3v5.8h1.7v1.5H160V505h1.4v-5c0-.8-.2-1.5-.5-1.9-.3-.3-.6-.4-1.1-.4-1.1 0-2.6 1.3-2.6 3.3v4h1.4v1.5h-5V505h1.4v-5c0-.8-.2-1.5-.5-1.9-.3-.3-.6-.4-1.1-.4-1.2 0-2.6 1.3-2.6 3.3v4h1.4v1.5H147V505h1.7v-7.4H147V496h3.8v2.6c1.2-2 2.5-2.8 3.8-2.8 1.5 0 2.5.8 2.6 2.7 1-1.9 2.3-2.6 3.6-2.6zm7.9 5.5c.1 2.6 1.2 3.8 3.2 3.8 1.3 0 2.2-.5 2.9-1.9h1.1c-.6 2.2-2.2 3.4-4.5 3.4-3.2 0-5-2.3-5-5.3 0-3.1 2.2-5.5 5.1-5.5 3.1 0 4.5 2.8 4.4 5.5h-7.2zm0-1.1h5c-.2-1.9-.8-3.3-2.4-3.3-1.5 0-2.4.9-2.6 3.3zm8.7 4.6h1.7v-7.4h-1.7V496h3.8v2.6c1.2-2 2.4-2.8 3.9-2.8 1.7 0 2.8 1.2 2.8 3.3v5.8h1.7v1.5h-5.3v-1.5h1.5v-5c0-.8-.2-1.4-.6-1.8-.3-.3-.7-.5-1.2-.5-1.3 0-2.7 1.3-2.7 3.3v4h1.5v1.5h-5.3v-1.5zm16.7-11.6v2.8h3.4v1.4h-3.4v6.2c0 1 .3 1.5 1.2 1.5.6 0 1.1-.6 1.6-1.8l1 .4c-.6 2-1.8 2.8-3.3 2.8-1.8 0-2.8-1.1-2.8-2.8v-6.4h-2.1V496h2.1v-2.6l2.3-.1zm4.7 8c0-3.2 2.1-5.4 5.2-5.4 3.2 0 5.2 2.2 5.2 5.4s-2.1 5.5-5.2 5.5c-3.2-.2-5.2-2.4-5.2-5.5zm8.1-.1c0-2.9-1.1-4.2-2.9-4.2-1.8 0-2.7 1.3-2.7 4.2 0 2.9 1.1 4.2 2.9 4.2 1.7 0 2.7-1.3 2.7-4.2z"/></svg>