<svg xmlns="http://www.w3.org/2000/svg" viewBox="0 0 1920 1280" enable-background="new 0 0 1920 1280"><g><path fill="#fff" d="M0 0h1920v1280H0z"/><g fill="none" stroke="#6D6E71"><path stroke-width="13.277" d="M344.2 347.5h1231.6"/><path stroke-width="3.764" d="M344.2 332.7h1231.6"/><path stroke-width="13.277" d="M1575.8 960H344.2"/><path stroke-width="3.764" d="M1575.8 974.8H344.2"/></g><path fill="#414042" stroke="#D1D3D4" stroke-width="37.635" d="M19.1 427.9h1881.8v451.6H19.1z"/><text transform="translate(359.229 741.217)" font-family="'TSTARPRO-Headline'" font-size="225.706" letter-spacing="16" opacity=".75">BEERSTROT</text><text transform="translate(344.175 726.163)" fill="#E6E7E8" font-family="'TSTARPRO-Headline'" font-size="225.706" letter-spacing="16">BEERSTROT</text><g fill="#58595B"><path d="M562.2 203.4c0-37.9 26.8-57.3 55.1-57.3 21.2 0 31.2 12.5 31.2 27.1 0 9.3-5.4 18.3-12.9 18.3-6 0-9.9-3.7-9.9-8.6 0-4.9 2.6-7 2.6-11 0-5.6-2.6-10.1-13.3-10.1-12.9 0-29.7 13.1-29.7 41.7 0 24 14.2 32.9 30.1 32.9 17.6 0 24.8-6.1 30-11.3 1.1-1.1 2.5-1.6 3.8-1.6 3.1 0 6 2.9 6 5.8 0 1.1-.4 2.4-1.3 3.6-6.1 8.5-18.6 19.4-40.5 19.4-30.7-.1-51.2-21.2-51.2-48.9zM709.2 242.8c-4.6 4.5-11.5 9.4-23 9.4-15.9 0-26.5-14.6-26.5-34.5 0-27.2 21-38.5 33.2-38.5 6 0 13 1.2 18.4 4.5 1.6-2 4-3.2 6.8-3.2 4.8 0 8.6 3.9 8.6 8.6 0 17.2-1.3 27.2-1.3 43.1.1 2.5 2.1 4.6 4.6 4.6 2 0 3.7-.8 5-2.3 1.9-2 4.8-1.9 7 0 2.3 1.9 2.1 4.6.5 7.7-2.5 4.6-6.9 9.8-17.2 9.8-6.8.2-12.9-3.6-16.1-9.2zm-1.7-23.1l.6-21.2s-4-2.7-12.6-2.7c-8.7 0-17.2 5.3-17.2 21.9 0 11.3 5.1 17.2 12.6 17.2 12.1 0 16.3-8.6 16.6-15.2zM760.6 144.7c6.2 0 11.3 5 11.3 11.3 0 13.7-10.1 25.6-12.2 27.6-2.1 2-5.2 1.9-7.4 0-2.3-1.9-2.1-5.4 0-7.4 1.3-1.3 3.6-4.5 4.9-9.5-4.5-1.5-7.8-5.6-7.8-10.6-.1-6.3 5-11.4 11.2-11.4zM903.3 147.4c6.2 0 11.3 5 11.3 11.3 0 44.2-25.9 93.5-64.4 93.5-4.1 0-8-3.5-8-8 0-66.7-9.6-81.9-19.1-81.9-1.7 0-3.1.5-4.3 2.1-1.8 2.4-5.2 3.3-7.8 1.6-2.3-1.5-3.4-4.1-2.1-7.3 3.7-8.4 10.2-12.7 21-12.7 28 0 35 25.6 29.3 88.4 15.4-2.7 28.4-22.7 32.1-42.6 2.9-15.5.7-25.1.7-33.2 0-6.2 5.1-11.2 11.3-11.2zM977.7 230.2c1.1-1.6 2.6-2.4 4.4-2.4 3.2 0 5.6 2.6 5.6 5.3 0 9.3-12.7 19.1-30.5 19.1-22.5 0-38.5-15.4-38.5-34.5 0-24.3 14.9-38.5 35.8-38.5 17.2 0 27.9 9.4 27.9 23.9 0 10.7-8.8 23.5-31.8 23.5-4.7 0-8.9-.3-12.1-.7 2.6 8 9.4 12.3 18.7 12.3 11.2.1 16.6-2.6 20.5-8zm-40.4-16.1c2.4.4 6.1.8 10.5.8 10.1 0 14.6-5.7 14.6-11.8 0-4.4-3.6-8-8-8-8.6 0-16 5.7-17.1 19zM1047.4 229.5c1.6-2.3 4.2-3 6.8-1.9 2.6 1.5 4 4 2.6 7.2-3.7 8.8-13.7 17.4-30 17.4-19.9 0-33.2-15.4-33.2-34.5 0-24.3 14.9-38.5 35.8-38.5 8.9 0 14.7 2.6 18.3 5.8 2 1.7 2.5 3.9 2.5 6.1 0 4.8-3.6 9-9.8 9-3.7 0-5.7-5-11-5-9.3 0-17.2 6.6-17.2 22.6 0 11.9 8 19.9 17.9 19.9 7.6 0 13.4-2.7 17.3-8.1zM1115.1 229.5c1.6-2.3 4.3-3 6.8-1.9 2.6 1.5 4 4 2.6 7.2-3.7 8.8-13.7 17.4-30 17.4-19.9 0-33.2-15.4-33.2-34.5 0-24.3 14.9-38.5 35.8-38.5 8.9 0 14.7 2.6 18.3 5.8 2 1.7 2.5 3.9 2.5 6.1 0 4.8-3.6 9-9.8 9-3.7 0-5.7-5-11-5-9.3 0-17.2 6.6-17.2 22.6 0 11.9 8 19.9 17.9 19.9 7.6 0 13.5-2.7 17.3-8.1zM1175.5 233.6c0-8 1.3-15.9 1.3-29.2 0-4.5-2.1-8.6-8.6-8.6-8.2 0-17.9 4.5-17.9 17.9v27.9c0 5.2-4.1 9.3-9.3 9.3-5.2 0-9.3-4.1-9.3-9.3 0-6 1.3-17.2 1.3-23.9 0-38.5-1.3-51.8-1.3-63 0-5.4 4.5-9.9 10-9.9 5.4 0 10 4.5 10 9.9 0 11-.7 23.9-.7 33.8 6.3-6.4 14.7-9.3 21.9-9.3 20.2 0 22.6 15.4 22.6 21.2 0 10.6-1.3 15.9-1.3 31.8 0 2.5 2.1 4.6 4.6 4.6 2 0 3.7-.8 5.1-2.3 1.8-2 4.8-1.9 7 0 2.3 1.9 2.1 4.6.5 7.7-2.5 4.6-6.9 9.8-17.2 9.8-10.3.2-18.7-8.2-18.7-18.4zM1228.6 148.7c6.2 0 11.3 5 11.3 11.3 0 6.2-5 11.3-11.3 11.3-6.2 0-11.3-5-11.3-11.3 0-6.3 5.1-11.3 11.3-11.3zm-9.8 84.9c0-4.6.6-9.3.6-15.9 0-11.3-1.3-28.5-1.3-28.5 0-5.4 4.5-10 10-10s10 4.5 10 10c0 17.2-1.3 27.2-1.3 43.1 0 2.5 2.1 4.6 4.7 4.6 2 0 3.7-.8 5-2.3 1.9-2 4.8-1.9 7 0 2.3 1.9 2.1 4.6.5 7.7-2.5 4.6-6.9 9.8-17.3 9.8-10.2.1-17.9-8.3-17.9-18.5zM1306.8 242.8c-4.6 4.5-11.5 9.4-22.9 9.4-15.9 0-26.6-14.6-26.6-34.5 0-27.2 21-38.5 33.2-38.5 6 0 13 1.2 18.4 4.5 1.6-2 4-3.2 6.8-3.2 4.8 0 8.6 3.9 8.6 8.6 0 17.2-1.3 27.2-1.3 43.1.2 2.5 2.1 4.6 4.7 4.6 2 0 3.7-.8 5-2.3 1.9-2 4.8-1.9 7 0 2.3 1.9 2.1 4.6.5 7.7-2.5 4.6-6.9 9.8-17.3 9.8-6.8.2-12.9-3.6-16.1-9.2zm-1.7-23.1l.6-21.2s-4-2.7-12.6-2.7c-8.8 0-17.2 5.3-17.2 21.9 0 11.3 5 17.2 12.6 17.2 12.1 0 16.3-8.6 16.6-15.2zM493.4 215.7c0 8-6.5 14.6-14.5 14.6s-14.6-6.5-14.6-14.6 6.5-14.5 14.6-14.5c7.9 0 14.5 6.5 14.5 14.5zM1455.8 215.7c0 8-6.5 14.6-14.5 14.6s-14.5-6.5-14.5-14.6 6.5-14.5 14.5-14.5c7.9 0 14.5 6.5 14.5 14.5z"/></g><g fill="#58595B"><path d="M564.1 1113.6h10.3v-48.9h-10.3v-6.1h30.2v6.1H584v48.9h10.3v6.1h-30.2v-6.1zM599.8 1113.6h7.7v-51h-7.7v-6.7h16.5v57.7h7.7v6.1h-24.2v-6.1zM664.9 1103.9c-2 0-3.8-.3-5.6-.3-3 0-4.5 2-4.5 3.7 0 2.2 1.6 3.7 6.2 3.7h11.2c9.8 0 13.6 4.4 13.6 10.3 0 7.5-7.3 14-22.1 14-11.4 0-18.8-4-18.8-9.6 0-3.9 3.6-7.6 8.9-8.3v-.5c-5-1.7-6.8-4.5-6.8-7.5 0-3.2 3.5-6.7 8-7.6-4.6-2.2-7.6-5.8-7.6-11.4 0-8.9 7.5-14 17.4-14 2.3 0 4.6.4 6.7 1 2.8-4.7 6.9-8.3 11.9-8.3 3.6 0 6 2.2 6 5.3 0 2.6-1.9 4.6-4.3 4.6-2.5 0-4-1.5-4-3.8 0-.3 0-.6.1-1-1.7-.4-4.5 1.9-6 4.7 4.2 2.4 6.9 6.2 6.9 10.9.1 9.1-7.4 14.1-17.2 14.1zm13.4 19.7c0-3-1.7-5-6.5-5h-10.4c-5.6 0-8.2 1.9-8.2 5.8 0 3.2 2.1 6.2 11.2 6.2 8.1-.1 13.9-2.8 13.9-7zm-5.3-33.5c0-5.4-3.1-9.4-8.6-9.4-5.3 0-8 2.9-8 9.5s3.2 9.4 8.6 9.4c5.3 0 8-3.2 8-9.5zM695.7 1107v-23.7h-6.8v-6.1h15.5v26.7c0 3.3.6 6 2.2 7.5 1.1 1.1 2.7 1.8 4.8 1.8 5.2 0 11-5.1 11-13.7v-16.2h-7.1v-6.1h15.8v36.4h6.8v6.1h-15.3V1109c-4.8 8-9.9 11.4-16 11.4-6.6-.1-10.9-5-10.9-13.4zM743.9 1104.5h5.7c2.3 6.8 7.6 11.5 13.6 11.5 5 0 7.2-2.5 7.2-6 0-3.7-2.9-5.5-11.3-7.8-10.2-2.9-14.4-6.4-14.4-13.2 0-6.9 6-12.7 14.7-12.7 4.4 0 8.3 1.7 10.3 4.9l.9-4.9h5.5v14.6h-5.6c-2.9-6.2-5.6-10-11.3-10-3.3 0-6.6 1.9-6.6 5.4 0 3.7 3.3 5.7 10.9 7.7 9.9 2.7 14.5 5.9 14.5 13.1 0 6.4-5.7 13.4-15.2 13.4-5.3 0-9.7-2.2-12.4-5.6l-1 5.6H744v-16zM798.4 1066.1v11.5h13.9v5.7h-13.9v25.1c0 4.2 1.2 6.2 5.1 6.2 2.6 0 4.6-2.4 6.5-7.3l4.2 1.8c-2.4 8.2-7.3 11.5-13.3 11.5-7.4 0-11.3-4.4-11.3-11.3v-25.9h-8.3v-5.7h8.3V1067l8.8-.9zM817.7 1098.6c0-12.9 8.6-22.2 21.3-22.2 13.1 0 21.2 8.9 21.2 21.9 0 13-8.6 22.3-21.2 22.3-13.3 0-21.3-8.9-21.3-22zm32.9-.1c0-11.7-4.6-17-12-17-7.3 0-11.2 5.3-11.2 17s4.5 17.1 12 17.1c7.3 0 11.2-5.4 11.2-17.1zM884.4 1113.6h7.7v-30.3h-7.7v-6.1h16.4v36.4h7.7v6.1h-24.2v-6.1zm5.5-51.4c0-3.7 2.4-6.3 6-6.3s6 2.4 6 6.1c0 3.7-2.4 6.2-6 6.2s-6-2.3-6-6zM913.3 1113.6h6.8v-30.3h-6.8v-6.1h15.4v10.8c4.8-8 9.9-11.3 16-11.3 6.8 0 11.3 4.9 11.3 13.3v23.7h6.8v6.1H941v-6.1h6.2v-20.6c0-3.2-.8-5.9-2.3-7.4-1.2-1.2-2.9-1.9-5-1.9-5.2 0-11.1 5.1-11.1 13.7v16.2h6.2v6.1h-21.8v-6.2zM984.3 1113.6h6.8v-30.3h-8.4v-5.7h8.4v-2c0-14.7 9.5-20.4 18-20.4 7.6 0 12 3.7 12 8.4 0 3-2.1 5.8-5.1 5.8-3.3 0-5.7-1.9-5.7-5.8 0-.8.3-2.1.8-3.1-.8-.5-1.7-.7-3.3-.7-4.7 0-8 3.3-8 15.3v2.4h12.3v5.7h-12.3v30.3h9.7v6.1h-25.2v-6zM1025.9 1099c.3 10.5 4.8 15.7 13 15.7 5.2 0 9.1-2.2 11.7-7.9h4.5c-2.4 9.1-9.1 13.8-18.5 13.8-13 0-20.4-9.4-20.4-21.7 0-12.7 8.8-22.5 20.9-22.5 12.7 0 18.4 11.4 18.1 22.6h-29.3zm.1-4.4h20.4c-.6-7.9-3.3-13.3-9.9-13.3-5.8 0-9.7 3.8-10.5 13.3zM1061.7 1113.6h6.8v-30.3h-6.8v-6.1h15.3v9.9c2.2-7.2 7.7-10.4 12.6-10.4 4.7 0 7.4 3.3 7.4 7.2 0 3.3-2.4 6-5.6 6-3.2 0-5.9-1.9-5.9-5.5 0-.5.1-1 .2-1.6-4.2-.2-7.1 4.5-8.6 10.1v20.6h8.1v6.1h-23.6v-6zM1158.2 1076.6c6.8 0 10.9 4.9 10.9 13.3v23.7h6.8v6.1h-21.3v-6.1h5.8V1093c0-3.3-.6-6-2.2-7.6-1.1-1.1-2.6-1.7-4.7-1.7-4.6 0-10.7 5.1-10.7 13.7v16.2h5.8v6.1h-20.3v-6.1h5.8V1093c0-3.3-.6-6-2.2-7.6-1.1-1.1-2.6-1.7-4.7-1.7-4.7 0-10.7 5.1-10.7 13.7v16.2h5.8v6.1H1101v-6.1h6.8v-30.3h-6.8v-6.1h15.4v10.8c4.8-8 10-11.3 15.6-11.3 6 0 10.1 3.3 10.7 10.9 4.9-7.9 9.9-11 15.5-11zM1190.2 1099c.3 10.5 4.8 15.7 13 15.7 5.2 0 9.1-2.2 11.7-7.9h4.5c-2.4 9.1-9.1 13.8-18.5 13.8-13 0-20.4-9.4-20.4-21.7 0-12.7 8.8-22.5 20.9-22.5 12.7 0 18.4 11.4 18.1 22.6h-29.3zm.1-4.4h20.4c-.6-7.9-3.3-13.3-9.9-13.3-5.8 0-9.7 3.8-10.5 13.3zM1226 1113.6h6.8v-30.3h-6.8v-6.1h15.4v10.8c4.8-8 9.9-11.3 16-11.3 6.8 0 11.3 4.9 11.3 13.3v23.7h6.8v6.1h-21.8v-6.1h6.2v-20.6c0-3.2-.8-5.9-2.3-7.4-1.2-1.2-2.9-1.9-5-1.9-5.2 0-11.1 5.1-11.1 13.7v16.2h6.2v6.1H1226v-6.2zM1294 1066.1v11.5h14v5.7h-14v25.1c0 4.2 1.2 6.2 5.1 6.2 2.6 0 4.7-2.4 6.5-7.3l4.2 1.8c-2.4 8.2-7.4 11.5-13.3 11.5-7.4 0-11.3-4.4-11.3-11.3v-25.9h-8.4v-5.7h8.4V1067l8.8-.9zM1313.4 1098.6c0-12.9 8.6-22.2 21.3-22.2 13.1 0 21.2 8.9 21.2 21.9 0 13-8.6 22.3-21.2 22.3-13.3 0-21.3-8.9-21.3-22zm32.8-.1c0-11.7-4.6-17-12-17-7.3 0-11.1 5.3-11.1 17s4.5 17.1 12 17.1c7.2 0 11.1-5.4 11.1-17.1z"/></g></g></svg>