<svg xmlns="http://www.w3.org/2000/svg" viewBox="-10.4 314.6 862.8 561.3" enable-background="new -10.4 314.6 862.8 561.3"><g><path fill="#fff" d="M0 314.6h841.9v561.3H0z"/><g fill="none" stroke="#6D6E71"><path stroke-width="13.277" d="M150.9 467H691"/><path stroke-width="3.764" d="M150.9 460.5H691"/><path stroke-width="13.277" d="M691 735.6H150.9"/><path stroke-width="3.764" d="M691 742.1H150.9"/></g><path fill="#414042" stroke="#D1D3D4" stroke-width="37.635" d="M8.4 502.3h825.1v198H8.4z"/><g enable-background="new" opacity=".75"><path d="M207.4 619.7c0 1.1-.1 2.3-.3 3.7-.2 1.4-.6 2.8-1.2 4.3s-1.3 2.9-2.3 4.4c-1 1.4-2.2 2.7-3.7 3.8-1.5 1.1-3.3 2-5.4 2.7-2.1.7-4.6 1-7.4 1h-22.5v-70.5h22c2.8 0 5.3.3 7.4 1s3.9 1.6 5.3 2.6c1.5 1.1 2.7 2.3 3.6 3.7.9 1.4 1.7 2.8 2.2 4.3.5 1.5.9 2.9 1.1 4.3.2 1.4.3 2.6.3 3.7v1.2c0 1-.2 2.2-.5 3.4-.3 1.2-.8 2.4-1.4 3.6-.6 1.2-1.3 2.3-2.2 3.4-.9 1.1-1.9 2-3.1 2.8 1.3.8 2.4 1.7 3.4 2.8 1 1.1 1.8 2.2 2.5 3.5.7 1.2 1.2 2.5 1.6 3.9.4 1.4.6 2.7.6 4v2.4zM193.5 589c0-1.6-.2-2.8-.7-3.8-.5-.9-1.1-1.6-1.8-2.1s-1.5-.8-2.3-.9c-.8-.1-1.6-.2-2.2-.2h-8.9v15.1h9.5c.7 0 1.4-.1 2.2-.2.8-.2 1.5-.5 2.1-1 .6-.5 1.2-1.2 1.6-2.2.4-.9.6-2.2.6-3.7v-1zm1.2 28.5c0-1.6-.2-3-.7-4-.5-1-1.1-1.8-1.8-2.3-.7-.5-1.5-.9-2.4-1.1-.9-.2-1.7-.3-2.4-.3h-9.9v17h9.4c.7 0 1.5-.1 2.4-.2.9-.2 1.8-.5 2.6-1s1.5-1.3 2-2.2c.5-1 .8-2.3.8-3.9v-2zM227.1 639.7v-70.5h40.8V582h-28v14.3h25.9V609h-25.9v17.9h28v12.8h-40.8zM286 639.7v-70.5h40.8V582h-28v14.3h25.9V609h-25.9v17.9h28v12.8H286zM376.4 639.7l-12.8-27.2h-5.7v27.2H345v-70.5h22.1c2.8 0 5.3.3 7.4 1 2.1.7 3.9 1.6 5.5 2.7 1.5 1.1 2.8 2.4 3.7 3.8 1 1.4 1.8 2.9 2.3 4.4.6 1.5 1 2.9 1.2 4.3.2 1.4.3 2.7.3 3.7v3c0 1.3-.1 2.7-.4 4.4-.3 1.7-.8 3.4-1.6 5.1-.8 1.7-1.9 3.4-3.2 4.9-1.4 1.6-3.2 2.9-5.3 3.9l13.9 29.1h-14.5zm-1.8-50.2c0-1.6-.3-3-.8-3.9-.5-1-1.2-1.7-2-2.3-.8-.5-1.6-.9-2.5-1.1-.9-.2-1.7-.3-2.4-.3h-9v17.7h9.2c.7 0 1.5-.1 2.4-.2.9-.2 1.7-.5 2.5-1s1.4-1.3 1.9-2.3c.5-1 .8-2.3.8-4v-2.6zM448.4 620.2c0 2.9-.6 5.6-1.7 8.1s-2.7 4.6-4.7 6.5c-2 1.8-4.3 3.2-7.1 4.3s-5.6 1.5-8.8 1.5c-3.3 0-6.3-.6-8.9-1.7-2.7-1.1-5-2.7-6.8-4.7-1.9-2-3.3-4.3-4.4-7.1-1-2.7-1.5-5.7-1.5-8.8h12.8c0 1.5.2 2.9.7 4.1.5 1.2 1.1 2.2 1.9 2.9.8.8 1.7 1.4 2.8 1.8 1.1.4 2.2.6 3.5.6 1.5 0 2.8-.2 4-.6 1.2-.4 2.2-.9 3-1.6.8-.7 1.5-1.5 1.9-2.5s.7-2 .7-3.2c0-1.8-.5-3.2-1.4-4.4-.9-1.2-2.1-2.2-3.5-3-1.4-.8-3.3-1.8-5.7-3.1-2.4-1.2-5.6-2.9-9.6-4.9-1.4-.7-2.7-1.6-4-2.8-1.2-1.1-2.3-2.4-3.2-3.9-.9-1.5-1.6-3.1-2.1-4.8-.5-1.7-.8-3.5-.8-5.3 0-2.8.5-5.4 1.5-7.8 1-2.4 2.4-4.4 4.3-6.1 1.8-1.7 4-3 6.5-3.9 2.5-.9 5.3-1.4 8.4-1.4 3.2 0 6 .5 8.7 1.6 2.6 1.1 4.9 2.6 6.8 4.5s3.3 4.2 4.4 6.9c1 2.7 1.5 5.5 1.5 8.7h-13c0-1.4-.2-2.7-.6-3.9-.4-1.1-1-2.1-1.8-2.9-.8-.8-1.7-1.4-2.7-1.8-1-.4-2.1-.6-3.3-.6-1.1 0-2.1.1-3.1.4-1 .3-1.8.7-2.5 1.3-.7.6-1.3 1.3-1.7 2.1-.4.8-.6 1.8-.6 2.9 0 1.2.4 2.3 1.1 3.2.7 1 1.7 1.8 3.1 2.5 2.1 1.1 3.9 2 5.5 2.8s2.8 1.4 3.9 2 2.1 1 2.9 1.4c.8.4 1.5.8 2.2 1.2 3.8 2 6.6 4.7 8.6 7.9 1.8 3.7 2.8 7.4 2.8 11.6zM489.8 582.1v57.6H477v-57.6h-15.7v-12.9h44.3v12.9h-15.8zM552.9 639.7l-12.8-27.2h-5.7v27.2h-12.9v-70.5h22.1c2.8 0 5.3.3 7.4 1 2.1.7 3.9 1.6 5.5 2.7 1.5 1.1 2.8 2.4 3.7 3.8 1 1.4 1.8 2.9 2.3 4.4.6 1.5 1 2.9 1.2 4.3.2 1.4.3 2.7.3 3.7v3c0 1.3-.1 2.7-.4 4.4-.3 1.7-.8 3.4-1.6 5.1-.8 1.7-1.9 3.4-3.2 4.9-1.4 1.6-3.2 2.9-5.3 3.9l13.9 29.1h-14.5zm-1.8-50.2c0-1.6-.3-3-.8-3.9-.5-1-1.2-1.7-2-2.3s-1.6-.9-2.5-1.1c-.9-.2-1.7-.3-2.4-.3h-9v17.7h9.2c.7 0 1.5-.1 2.4-.2.9-.2 1.7-.5 2.5-1s1.4-1.3 1.9-2.3c.5-1 .8-2.3.8-4v-2.6zM625.2 620.2c0 1.1-.1 2.4-.4 3.8-.3 1.4-.7 2.9-1.4 4.4s-1.5 3-2.6 4.4c-1.1 1.5-2.4 2.7-4 3.9-1.6 1.1-3.4 2-5.6 2.7s-4.6 1-7.4 1c-2.8 0-5.2-.3-7.3-1-2.1-.7-3.9-1.6-5.5-2.8-1.6-1.1-2.9-2.4-3.9-3.9-1.1-1.5-1.9-3-2.6-4.5s-1.1-3-1.4-4.4c-.3-1.4-.4-2.7-.4-3.9v-31.5c0-1.1.1-2.3.4-3.7s.7-2.8 1.3-4.3c.6-1.5 1.5-2.9 2.5-4.3 1.1-1.4 2.4-2.7 3.9-3.8s3.4-2 5.6-2.7c2.2-.7 4.7-1 7.5-1 2.7 0 5.1.3 7.2 1 2.1.7 4 1.6 5.5 2.7s2.9 2.4 4 3.8 1.9 2.9 2.6 4.3c.7 1.5 1.1 2.9 1.4 4.3.3 1.4.4 2.7.4 3.8v31.7zm-13-31.4c0-1.6-.3-2.9-.9-3.9-.6-1-1.4-1.7-2.2-2.2-.9-.5-1.8-.9-2.7-1-.9-.2-1.7-.2-2.4-.2s-1.5.1-2.5.2c-1 .2-1.9.5-2.8 1-.9.5-1.6 1.3-2.3 2.2-.6 1-.9 2.3-.9 3.9V620c0 1.7.3 3 .9 4 .6 1 1.4 1.8 2.3 2.3.9.5 1.8.9 2.8 1.1 1 .2 1.8.3 2.5.3.6 0 1.4-.1 2.4-.3s1.8-.5 2.7-1.1c.9-.5 1.6-1.3 2.2-2.3.6-1 .9-2.3.9-4v-31.2zM668.6 582.1v57.6h-12.8v-57.6h-15.7v-12.9h44.3v12.9h-15.8z"/></g><g enable-background="new" fill="#E6E7E8"><path d="M200.8 613c0 1.1-.1 2.3-.3 3.7-.2 1.4-.6 2.8-1.2 4.3s-1.3 2.9-2.3 4.4c-1 1.4-2.2 2.7-3.7 3.8-1.5 1.1-3.3 2-5.4 2.7-2.1.7-4.6 1-7.4 1H158v-70.5h22c2.8 0 5.3.3 7.4 1s3.9 1.6 5.3 2.6c1.5 1.1 2.7 2.3 3.6 3.7.9 1.4 1.7 2.8 2.2 4.3.5 1.5.9 2.9 1.1 4.3.2 1.4.3 2.6.3 3.7v1.2c0 1-.2 2.2-.5 3.4-.3 1.2-.8 2.4-1.4 3.6-.6 1.2-1.3 2.3-2.2 3.4-.9 1.1-1.9 2-3.1 2.8 1.3.8 2.4 1.7 3.4 2.8 1 1.1 1.8 2.2 2.5 3.5.7 1.2 1.2 2.5 1.6 3.9.4 1.4.6 2.7.6 4v2.4zm-13.9-30.6c0-1.6-.2-2.8-.7-3.8-.5-.9-1.1-1.6-1.8-2.1s-1.5-.8-2.3-.9c-.8-.1-1.6-.2-2.2-.2H171v15.1h9.5c.7 0 1.4-.1 2.2-.2.8-.2 1.5-.5 2.1-1 .6-.5 1.2-1.2 1.6-2.2.4-.9.6-2.2.6-3.7v-1zm1.2 28.5c0-1.6-.2-3-.7-4-.5-1-1.1-1.8-1.8-2.3-.7-.5-1.5-.9-2.4-1.1-.9-.2-1.7-.3-2.4-.3h-9.9v17h9.4c.7 0 1.5-.1 2.4-.2.9-.2 1.8-.5 2.6-1s1.5-1.3 2-2.2c.5-1 .8-2.3.8-3.9v-2zM220.5 633.1v-70.5h40.8v12.8h-28v14.3h25.9v12.8h-25.9v17.9h28v12.8h-40.8zM279.4 633.1v-70.5h40.8v12.8h-28v14.3h25.9v12.8h-25.9v17.9h28v12.8h-40.8zM369.8 633.1L357 605.8h-5.7V633h-12.9v-70.5h22.1c2.8 0 5.3.3 7.4 1 2.1.7 3.9 1.6 5.5 2.7 1.5 1.1 2.8 2.4 3.7 3.8 1 1.4 1.8 2.9 2.3 4.4.6 1.5 1 2.9 1.2 4.3.2 1.4.3 2.7.3 3.7v3c0 1.3-.1 2.7-.4 4.4-.3 1.7-.8 3.4-1.6 5.1-.8 1.7-1.9 3.4-3.2 4.9-1.4 1.6-3.2 2.9-5.3 3.9l13.9 29.1h-14.5zm-1.8-50.2c0-1.6-.3-3-.8-3.9-.5-1-1.2-1.7-2-2.3-.8-.5-1.6-.9-2.5-1.1-.9-.2-1.7-.3-2.4-.3h-9V593h9.2c.7 0 1.5-.1 2.4-.2.9-.2 1.7-.5 2.5-1s1.4-1.3 1.9-2.3c.5-1 .8-2.3.8-4v-2.6zM441.8 613.6c0 2.9-.6 5.6-1.7 8.1s-2.7 4.6-4.7 6.5c-2 1.8-4.3 3.2-7.1 4.3s-5.6 1.5-8.8 1.5c-3.3 0-6.3-.6-8.9-1.7-2.7-1.1-5-2.7-6.8-4.7-1.9-2-3.3-4.3-4.4-7.1-1-2.7-1.5-5.7-1.5-8.8h12.8c0 1.5.2 2.9.7 4.1.5 1.2 1.1 2.2 1.9 2.9.8.8 1.7 1.4 2.8 1.8 1.1.4 2.2.6 3.5.6 1.5 0 2.8-.2 4-.6s2.2-.9 3-1.6c.8-.7 1.5-1.5 1.9-2.5s.7-2 .7-3.2c0-1.8-.5-3.2-1.4-4.4s-2.1-2.2-3.5-3c-1.4-.8-3.3-1.8-5.7-3.1-2.4-1.2-5.6-2.9-9.6-4.9-1.4-.7-2.7-1.6-4-2.8-1.2-1.1-2.3-2.4-3.2-3.9-.9-1.5-1.6-3.1-2.1-4.8-.5-1.7-.8-3.5-.8-5.3 0-2.8.5-5.4 1.5-7.8 1-2.4 2.4-4.4 4.3-6.1 1.8-1.7 4-3 6.5-3.9 2.5-.9 5.3-1.4 8.4-1.4 3.2 0 6 .5 8.7 1.6 2.6 1.1 4.9 2.6 6.8 4.5s3.3 4.2 4.4 6.9 1.5 5.5 1.5 8.7h-13c0-1.4-.2-2.7-.6-3.9-.4-1.1-1-2.1-1.8-2.9-.8-.8-1.7-1.4-2.7-1.8-1-.4-2.1-.6-3.3-.6-1.1 0-2.1.1-3.1.4-1 .3-1.8.7-2.5 1.3-.7.6-1.3 1.3-1.7 2.1-.4.8-.6 1.8-.6 2.9 0 1.2.4 2.3 1.1 3.2.7 1 1.7 1.8 3.1 2.5 2.1 1.1 3.9 2 5.5 2.8 1.5.8 2.8 1.4 3.9 2 1.1.5 2.1 1 2.9 1.4.8.4 1.5.8 2.2 1.2 3.8 2 6.6 4.7 8.6 7.9 1.8 3.7 2.8 7.4 2.8 11.6zM483.2 575.5v57.6h-12.8v-57.6h-15.7v-12.9H499v12.9h-15.8zM546.3 633.1l-12.8-27.2h-5.7v27.2h-12.9v-70.5H537c2.8 0 5.3.3 7.4 1 2.1.7 3.9 1.6 5.5 2.7 1.5 1.1 2.8 2.4 3.7 3.8 1 1.4 1.8 2.9 2.3 4.4.6 1.5 1 2.9 1.2 4.3.2 1.4.3 2.7.3 3.7v3c0 1.3-.1 2.7-.4 4.4-.3 1.7-.8 3.4-1.6 5.1-.8 1.7-1.9 3.4-3.2 4.9-1.4 1.6-3.2 2.9-5.3 3.9l13.9 29.1h-14.5zm-1.8-50.2c0-1.6-.3-3-.8-3.9-.5-1-1.2-1.7-2-2.3s-1.6-.9-2.5-1.1c-.9-.2-1.7-.3-2.4-.3h-9V593h9.2c.7 0 1.5-.1 2.4-.2.9-.2 1.7-.5 2.5-1s1.4-1.3 1.9-2.3c.5-1 .8-2.3.8-4v-2.6zM618.6 613.6c0 1.1-.1 2.4-.4 3.8-.3 1.4-.7 2.9-1.4 4.4s-1.5 3-2.6 4.4c-1.1 1.5-2.4 2.7-4 3.9-1.6 1.1-3.4 2-5.6 2.7s-4.6 1-7.4 1c-2.8 0-5.2-.3-7.3-1-2.1-.7-3.9-1.6-5.5-2.8-1.6-1.1-2.9-2.4-3.9-3.9-1.1-1.5-1.9-3-2.6-4.5s-1.1-3-1.4-4.4c-.3-1.4-.4-2.7-.4-3.9V582c0-1.1.1-2.3.4-3.7s.7-2.8 1.3-4.3c.6-1.5 1.5-2.9 2.5-4.3 1.1-1.4 2.4-2.7 3.9-3.8s3.4-2 5.6-2.7c2.2-.7 4.7-1 7.5-1 2.7 0 5.1.3 7.2 1 2.1.7 4 1.6 5.5 2.7s2.9 2.4 4 3.8 1.9 2.9 2.6 4.3c.7 1.5 1.1 2.9 1.4 4.3.3 1.4.4 2.7.4 3.8v31.5zm-13-31.4c0-1.6-.3-2.9-.9-3.9-.6-1-1.4-1.7-2.2-2.2-.9-.5-1.8-.9-2.7-1-.9-.2-1.7-.2-2.4-.2s-1.5.1-2.5.2c-1 .2-1.9.5-2.8 1-.9.5-1.6 1.3-2.3 2.2-.6 1-.9 2.3-.9 3.9v31.3c0 1.7.3 3 .9 4 .6 1 1.4 1.8 2.3 2.3.9.5 1.8.9 2.8 1.1 1 .2 1.8.3 2.5.3.6 0 1.4-.1 2.4-.3s1.8-.5 2.7-1.1c.9-.5 1.6-1.3 2.2-2.3.6-1 .9-2.3.9-4v-31.3zM662 575.5v57.6h-12.8v-57.6h-15.7v-12.9h44.3v12.9H662z"/></g><g fill="#58595B"><path d="M246.5 403.8c0-16.6 11.8-25.1 24.2-25.1 9.3 0 13.7 5.5 13.7 11.9 0 4.1-2.4 8-5.7 8-2.6 0-4.3-1.6-4.3-3.8s1.1-3.1 1.1-4.8c0-2.5-1.1-4.4-5.8-4.4-5.7 0-13 5.7-13 18.3 0 10.5 6.2 14.4 13.2 14.4 7.7 0 10.9-2.7 13.2-5 .5-.5 1.1-.7 1.7-.7 1.4 0 2.6 1.3 2.6 2.5 0 .5-.2 1.1-.6 1.6-2.7 3.7-8.2 8.5-17.8 8.5-13.5 0-22.5-9.2-22.5-21.4zM311 421.1c-2 2-5 4.1-10.1 4.1-7 0-11.6-6.4-11.6-15.1 0-11.9 9.2-16.9 14.6-16.9 2.6 0 5.7.5 8.1 2 .7-.9 1.8-1.4 3-1.4 2.1 0 3.8 1.7 3.8 3.8 0 7.5-.6 11.9-.6 18.9 0 1.1.9 2 2 2 .9 0 1.6-.4 2.2-1 .8-.9 2.1-.8 3.1 0s.9 2 .2 3.4c-1.1 2-3 4.3-7.5 4.3-3.1 0-5.8-1.6-7.2-4.1zm-.8-10.1l.3-9.3s-1.8-1.2-5.5-1.2c-3.8 0-7.5 2.3-7.5 9.6 0 5 2.2 7.5 5.5 7.5 5.3 0 7.1-3.7 7.2-6.6zM333.5 378.1c2.7 0 5 2.2 5 5 0 6-4.4 11.2-5.3 12.1-.9.9-2.3.8-3.2 0-1-.8-.9-2.4 0-3.2.6-.6 1.6-2 2.1-4.2-2-.7-3.4-2.5-3.4-4.6-.1-2.9 2.1-5.1 4.8-5.1zM396.1 379.3c2.7 0 5 2.2 5 5 0 19.4-11.4 41-28.2 41-1.8 0-3.5-1.5-3.5-3.5 0-29.2-4.2-35.9-8.4-35.9-.7 0-1.4.2-1.9.9-.8 1.1-2.3 1.4-3.4.7-1-.7-1.5-1.8-.9-3.2 1.6-3.7 4.5-5.6 9.2-5.6 12.3 0 15.3 11.2 12.8 38.8 6.8-1.2 12.5-10 14.1-18.7 1.3-6.8.3-11 .3-14.6-.1-2.7 2.2-4.9 4.9-4.9zM428.7 415.6c.5-.7 1.1-1.1 1.9-1.1 1.4 0 2.5 1.1 2.5 2.3 0 4.1-5.6 8.4-13.4 8.4-9.9 0-16.9-6.8-16.9-15.1 0-10.7 6.5-16.9 15.7-16.9 7.5 0 12.2 4.1 12.2 10.5 0 4.7-3.9 10.3-13.9 10.3-2.1 0-3.9-.1-5.3-.3 1.1 3.5 4.1 5.4 8.2 5.4 4.9 0 7.3-1.1 9-3.5zm-17.7-7.1c1.1.2 2.7.4 4.6.4 4.4 0 6.4-2.5 6.4-5.2 0-1.9-1.6-3.5-3.5-3.5-3.8 0-7 2.5-7.5 8.3zM459.3 415.3c.7-1 1.8-1.3 3-.8 1.1.7 1.8 1.8 1.1 3.2-1.6 3.9-6 7.6-13.2 7.6-8.7 0-14.6-6.8-14.6-15.1 0-10.7 6.5-16.9 15.7-16.9 3.9 0 6.4 1.1 8 2.5.9.7 1.1 1.7 1.1 2.7 0 2.1-1.6 3.9-4.3 3.9-1.6 0-2.5-2.2-4.8-2.2-4.1 0-7.5 2.9-7.5 9.9 0 5.2 3.5 8.7 7.8 8.7 3.4 0 6-1.2 7.7-3.5zM489 415.3c.7-1 1.9-1.3 3-.8 1.1.7 1.8 1.8 1.1 3.2-1.6 3.9-6 7.6-13.2 7.6-8.7 0-14.6-6.8-14.6-15.1 0-10.7 6.5-16.9 15.7-16.9 3.9 0 6.4 1.1 8 2.5.9.7 1.1 1.7 1.1 2.7 0 2.1-1.6 3.9-4.3 3.9-1.6 0-2.5-2.2-4.8-2.2-4.1 0-7.5 2.9-7.5 9.9 0 5.2 3.5 8.7 7.8 8.7 3.4 0 6-1.2 7.7-3.5zM515.4 417.1c0-3.5.6-7 .6-12.8 0-2-.9-3.8-3.8-3.8-3.6 0-7.8 2-7.8 7.8v12.2c0 2.3-1.8 4.1-4.1 4.1s-4.1-1.8-4.1-4.1c0-2.6.6-7.5.6-10.5 0-16.9-.6-22.7-.6-27.6 0-2.4 2-4.3 4.4-4.3 2.4 0 4.4 2 4.4 4.3 0 4.8-.3 10.5-.3 14.8 2.8-2.8 6.4-4.1 9.6-4.1 8.9 0 9.9 6.8 9.9 9.3 0 4.6-.6 7-.6 13.9 0 1.1.9 2 2 2 .9 0 1.6-.4 2.2-1 .8-.9 2.1-.8 3.1 0s.9 2 .2 3.4c-1.1 2-3 4.3-7.5 4.3-4.5.2-8.2-3.5-8.2-7.9zM538.7 379.8c2.7 0 5 2.2 5 5 0 2.7-2.2 5-5 5-2.7 0-5-2.2-5-5 .1-2.8 2.3-5 5-5zm-4.3 37.3c0-2 .3-4.1.3-7 0-5-.6-12.5-.6-12.5 0-2.4 2-4.4 4.4-4.4 2.4 0 4.4 2 4.4 4.4 0 7.5-.6 11.9-.6 18.9 0 1.1.9 2 2.1 2 .9 0 1.6-.4 2.2-1 .8-.9 2.1-.8 3.1 0s.9 2 .2 3.4c-1.1 2-3 4.3-7.6 4.3-4.5 0-7.9-3.7-7.9-8.1zM573 421.1c-2 2-5 4.1-10 4.1-7 0-11.7-6.4-11.7-15.1 0-11.9 9.2-16.9 14.6-16.9 2.6 0 5.7.5 8.1 2 .7-.9 1.8-1.4 3-1.4 2.1 0 3.8 1.7 3.8 3.8 0 7.5-.6 11.9-.6 18.9.1 1.1.9 2 2.1 2 .9 0 1.6-.4 2.2-1 .8-.9 2.1-.8 3.1 0s.9 2 .2 3.4c-1.1 2-3 4.3-7.6 4.3-3.1 0-5.8-1.6-7.2-4.1zm-.7-10.1l.3-9.3s-1.8-1.2-5.5-1.2c-3.9 0-7.5 2.3-7.5 9.6 0 5 2.2 7.5 5.5 7.5 5.2 0 7-3.7 7.2-6.6zM216.3 409.2c0 3.5-2.9 6.4-6.4 6.4s-6.4-2.9-6.4-6.4 2.9-6.4 6.4-6.4c3.6.1 6.4 2.9 6.4 6.4zM638.3 409.2c0 3.5-2.9 6.4-6.4 6.4s-6.4-2.9-6.4-6.4 2.9-6.4 6.4-6.4c3.6.1 6.4 2.9 6.4 6.4z"/></g><g fill="#58595B"><path d="M247.3 802.9h4.5v-21.4h-4.5v-2.7h13.2v2.7H256v21.4h4.5v2.7h-13.2v-2.7zM263 802.9h3.4v-22.4H263v-2.9h7.2v25.3h3.4v2.7H263v-2.7zM291.5 798.7c-.9 0-1.7-.1-2.5-.1-1.3 0-2 .9-2 1.6 0 1 .7 1.6 2.7 1.6h4.9c4.3 0 6 1.9 6 4.5 0 3.3-3.2 6.1-9.7 6.1-5 0-8.2-1.8-8.2-4.2 0-1.7 1.6-3.3 3.9-3.6v-.2c-2.2-.7-3-2-3-3.3 0-1.4 1.5-2.9 3.5-3.3-2-1-3.3-2.5-3.3-5 0-3.9 3.3-6.1 7.6-6.1 1 0 2 .2 2.9.4 1.2-2.1 3-3.6 5.2-3.6 1.6 0 2.6 1 2.6 2.3 0 1.1-.8 2-1.9 2-1.1 0-1.8-.7-1.8-1.7v-.4c-.7-.2-2 .8-2.6 2.1 1.8 1.1 3 2.7 3 4.8.3 3.9-3 6.1-7.3 6.1zm5.9 8.6c0-1.3-.7-2.2-2.9-2.2H290c-2.5 0-3.6.8-3.6 2.5 0 1.4.9 2.7 4.9 2.7 3.6.1 6.1-1.1 6.1-3zm-2.3-14.7c0-2.4-1.4-4.1-3.8-4.1-2.3 0-3.5 1.3-3.5 4.2s1.4 4.1 3.8 4.1c2.3 0 3.5-1.4 3.5-4.2zM305.1 800v-10.4h-3V787h6.8v11.7c0 1.4.3 2.6 1 3.3.5.5 1.2.8 2.1.8 2.3 0 4.8-2.2 4.8-6v-7.1h-3.1V787h6.9v16h3v2.7h-6.7V801c-2.1 3.5-4.3 5-7 5-3-.1-4.8-2.3-4.8-6zM326.2 799h2.5c1 3 3.3 5 6 5 2.2 0 3.2-1.1 3.2-2.6 0-1.6-1.3-2.4-5-3.4-4.5-1.3-6.3-2.8-6.3-5.8s2.6-5.6 6.4-5.6c1.9 0 3.6.7 4.5 2.1l.4-2.1h2.4v6.4h-2.5c-1.3-2.7-2.5-4.4-5-4.4-1.4 0-2.9.8-2.9 2.4 0 1.6 1.4 2.5 4.8 3.4 4.3 1.2 6.4 2.6 6.4 5.7 0 2.8-2.5 5.9-6.7 5.9-2.3 0-4.3-1-5.4-2.5l-.4 2.5h-2.4v-7zM350.1 782.1v5h6.1v2.5h-6.1v11c0 1.8.5 2.7 2.2 2.7 1.1 0 2-1.1 2.9-3.2l1.8.8c-1.1 3.6-3.2 5-5.8 5-3.2 0-5-1.9-5-5v-11.4h-3.6V787h3.6v-4.7l3.9-.2zM358.5 796.4c0-5.7 3.8-9.7 9.3-9.7 5.7 0 9.3 3.9 9.3 9.6s-3.8 9.8-9.3 9.8c-5.7-.1-9.3-4-9.3-9.7zm14.5-.1c0-5.1-2-7.5-5.3-7.5-3.2 0-4.9 2.3-4.9 7.5 0 5.1 2 7.5 5.3 7.5 3.2 0 4.9-2.3 4.9-7.5zM387.8 802.9h3.4v-13.3h-3.4V787h7.2v16h3.4v2.7h-10.6v-2.8zm2.4-22.5c0-1.6 1.1-2.8 2.6-2.8 1.6 0 2.6 1.1 2.6 2.7s-1.1 2.7-2.6 2.7-2.6-1-2.6-2.6zM400.5 802.9h3v-13.3h-3V787h6.8v4.7c2.1-3.5 4.3-5 7-5 3 0 5 2.1 5 5.8V803h3v2.7h-9.6V803h2.7v-9c0-1.4-.4-2.6-1-3.2-.5-.5-1.3-.8-2.2-.8-2.3 0-4.9 2.2-4.9 6v7.1h2.7v2.7h-9.6l.1-2.9zM431.6 802.9h3v-13.3h-3.7v-2.5h3.7v-.9c0-6.4 4.2-8.9 7.9-8.9 3.3 0 5.3 1.6 5.3 3.7 0 1.3-.9 2.5-2.2 2.5-1.4 0-2.5-.8-2.5-2.5 0-.4.1-.9.4-1.4-.4-.2-.7-.3-1.4-.3-2.1 0-3.5 1.4-3.5 6.7v1.1h5.4v2.5h-5.4v13.3h4.3v2.7h-11v-2.7zM449.8 796.5c.1 4.6 2.1 6.9 5.7 6.9 2.3 0 4-1 5.1-3.5h2c-1.1 4-4 6.1-8.1 6.1-5.7 0-8.9-4.1-8.9-9.5 0-5.6 3.9-9.9 9.2-9.9 5.6 0 8.1 5 7.9 9.9h-12.9zm.1-1.9h8.9c-.3-3.5-1.4-5.8-4.3-5.8-2.6 0-4.3 1.6-4.6 5.8zM465.5 802.9h3v-13.3h-3V787h6.7v4.3c1-3.2 3.4-4.6 5.5-4.6s3.2 1.4 3.2 3.2c0 1.4-1.1 2.6-2.5 2.6s-2.6-.8-2.6-2.4c0-.2 0-.4.1-.7-1.8-.1-3.1 2-3.8 4.4v9h3.6v2.7h-10.3l.1-2.6zM507.9 786.7c3 0 4.8 2.1 4.8 5.8v10.4h3v2.7h-9.3v-2.7h2.5v-9c0-1.4-.3-2.6-1-3.3-.5-.5-1.1-.7-2.1-.7-2 0-4.7 2.2-4.7 6v7.1h2.5v2.7h-8.9V803h2.5v-9c0-1.4-.3-2.6-1-3.3-.5-.5-1.1-.7-2.1-.7-2.1 0-4.7 2.2-4.7 6v7.1h2.5v2.7h-9.3v-2.7h3v-13.3h-3V787h6.8v4.7c2.1-3.5 4.4-5 6.8-5 2.6 0 4.4 1.4 4.7 4.8 2.3-3.4 4.5-4.8 7-4.8zM521.9 796.5c.1 4.6 2.1 6.9 5.7 6.9 2.3 0 4-1 5.1-3.5h2c-1.1 4-4 6.1-8.1 6.1-5.7 0-8.9-4.1-8.9-9.5 0-5.6 3.9-9.9 9.2-9.9 5.6 0 8.1 5 7.9 9.9h-12.9zm0-1.9h8.9c-.3-3.5-1.4-5.8-4.3-5.8-2.5 0-4.2 1.6-4.6 5.8zM537.6 802.9h3v-13.3h-3V787h6.8v4.7c2.1-3.5 4.3-5 7-5 3 0 5 2.1 5 5.8V803h3v2.7h-9.6V803h2.7v-9c0-1.4-.4-2.6-1-3.2-.5-.5-1.3-.8-2.2-.8-2.3 0-4.9 2.2-4.9 6v7.1h2.7v2.7h-9.5v-2.9zM567.4 782.1v5h6.1v2.5h-6.1v11c0 1.8.5 2.7 2.2 2.7 1.1 0 2.1-1.1 2.9-3.2l1.8.8c-1.1 3.6-3.2 5-5.8 5-3.2 0-5-1.9-5-5v-11.4h-3.7V787h3.7v-4.7l3.9-.2zM575.9 796.4c0-5.7 3.8-9.7 9.3-9.7 5.7 0 9.3 3.9 9.3 9.6s-3.8 9.8-9.3 9.8c-5.8-.1-9.3-4-9.3-9.7zm14.4-.1c0-5.1-2-7.5-5.3-7.5-3.2 0-4.9 2.3-4.9 7.5 0 5.1 2 7.5 5.3 7.5 3.2 0 4.9-2.3 4.9-7.5z"/></g></g></svg>