<svg xmlns="http://www.w3.org/2000/svg" viewBox="0 0 267 66.2"><path fill="none" stroke="#403F34" stroke-width="2.835" d="M1.4 1.4h264.1v63.4H1.4z"/><g fill="#403F34"><path d="M56.5 43.3h-7.2V20.7h7c5.4 0 6.4 4.2 6.4 6.3v.4c0 1.3-.8 3.2-2.3 4.2 1.6 1 2.6 2.8 2.6 4.5v.7c0 2.1-1.1 6.5-6.5 6.5zm2.1-16.2c0-2-1.4-2.2-2.3-2.2h-2.9v4.8h3c.9 0 2.1-.3 2.1-2.3v-.3zm.4 9.1c0-2.1-1.4-2.5-2.3-2.5h-3.2v5.4h3c.9 0 2.5-.3 2.5-2.3v-.6zM69.5 43.3V20.7h13.1v4.1h-9v4.6h8.3v4.1h-8.3v5.7h9v4.1H69.5zM88.5 43.3V20.7h13.1v4.1h-9v4.6h8.3v4.1h-8.3v5.7h9v4.1H88.5zM117.6 43.3l-4.1-8.7h-1.8v8.7h-4.1V20.7h7.1c5.5 0 6.6 4.3 6.6 6.4v1c0 1.6-.6 4.5-3.4 5.9l4.4 9.3h-4.7zm-.6-16.1c0-2.1-1.6-2.4-2.5-2.4h-2.9v5.7h2.9c.9 0 2.4-.3 2.4-2.4v-.9zM133.7 43.6c-4.2 0-6.9-3.1-6.9-7.1h4.1c0 2 1.2 3 2.8 3 1.9 0 3.1-1 3.1-2.5 0-1.1-.7-1.9-1.6-2.4-.9-.5-2.4-1.3-4.9-2.5-1.8-.9-3.2-3-3.2-5.4 0-3.6 2.7-6.1 6.6-6.1 4.1 0 6.8 2.9 6.8 7h-4.2c0-1.9-1.1-2.9-2.7-2.9-1.4 0-2.5.8-2.5 2.2 0 .8.5 1.4 1.3 1.8 2.7 1.4 3.8 1.9 4.6 2.4 2.4 1.3 3.7 3.4 3.7 6.1.1 3.6-3 6.4-7 6.4zM154.2 24.8v18.4h-4.1V24.8h-5v-4.1h14.2v4.1h-5.1zM174.6 43.3l-4.1-8.7h-1.8v8.7h-4.1V20.7h7.1c5.5 0 6.6 4.3 6.6 6.4v1c0 1.6-.6 4.5-3.4 5.9l4.4 9.3h-4.7zm-.6-16.1c0-2.1-1.6-2.4-2.5-2.4h-2.9v5.7h2.9c.9 0 2.4-.3 2.4-2.4v-.9zM191.1 43.6c-5.3 0-6.8-4.4-6.8-6.6V26.9c0-2.1 1.4-6.4 6.8-6.4 5.2 0 6.8 4.3 6.8 6.4V37c0 2.2-1.4 6.6-6.8 6.6zm2.6-16.6c0-2.1-1.8-2.4-2.6-2.4-.9 0-2.7.3-2.7 2.4v10c0 2.1 1.8 2.4 2.7 2.4.8 0 2.6-.3 2.6-2.4V27zM211.9 24.8v18.4h-4.1V24.8h-5v-4.1H217v4.1h-5.1z"/></g></svg>