<?xml version="1.0" encoding="utf-8"?>
<!-- Generator: Adobe Illustrator 17.1.0, SVG Export Plug-In . SVG Version: 6.00 Build 0)  -->
<!DOCTYPE svg PUBLIC "-//W3C//DTD SVG 1.1//EN" "http://www.w3.org/Graphics/SVG/1.1/DTD/svg11.dtd">
<svg version="1.1" id="logo" xmlns="http://www.w3.org/2000/svg" xmlns:xlink="http://www.w3.org/1999/xlink" x="0px" y="0px"
	 viewBox="0 0 267 66.2"  xml:space="preserve">
<rect x="1.4" y="1.4" fill="none" stroke="#FFFFFF" stroke-width="2.8347" width="264.1" height="63.4"/>
<g>
	<path fill="#FFFFFF" d="M56.5,43.3h-7.2V20.7h7c5.4,0,6.4,4.2,6.4,6.3v0.4c0,1.3-0.8,3.2-2.3,4.2c1.6,1,2.6,2.8,2.6,4.5v0.7
		C63,38.9,61.9,43.3,56.5,43.3z M58.6,27.1c0-2-1.4-2.2-2.3-2.2h-2.9v4.8h3c0.9,0,2.1-0.3,2.1-2.3V27.1z M59,36.2
		c0-2.1-1.4-2.5-2.3-2.5h-3.2v5.4h3c0.9,0,2.5-0.3,2.5-2.3V36.2z"/>
	<path fill="#FFFFFF" d="M69.5,43.3V20.7h13.1v4.1h-9v4.6h8.3v4.1h-8.3v5.7h9v4.1H69.5z"/>
	<path fill="#FFFFFF" d="M88.5,43.3V20.7h13.1v4.1h-9v4.6h8.3v4.1h-8.3v5.7h9v4.1H88.5z"/>
	<path fill="#FFFFFF" d="M117.6,43.3l-4.1-8.7h-1.8v8.7h-4.1V20.7h7.1c5.5,0,6.6,4.3,6.6,6.4v1c0,1.6-0.6,4.5-3.4,5.9l4.4,9.3
		H117.6z M117,27.2c0-2.1-1.6-2.4-2.5-2.4h-2.9v5.7h2.9c0.9,0,2.4-0.3,2.4-2.4V27.2z"/>
	<path fill="#FFFFFF" d="M133.7,43.6c-4.2,0-6.9-3.1-6.9-7.1h4.1c0,2,1.2,3,2.8,3c1.9,0,3.1-1,3.1-2.5c0-1.1-0.7-1.9-1.6-2.4
		c-0.9-0.5-2.4-1.3-4.9-2.5c-1.8-0.9-3.2-3-3.2-5.4c0-3.6,2.7-6.1,6.6-6.1c4.1,0,6.8,2.9,6.8,7h-4.2c0-1.9-1.1-2.9-2.7-2.9
		c-1.4,0-2.5,0.8-2.5,2.2c0,0.8,0.5,1.4,1.3,1.8c2.7,1.4,3.8,1.9,4.6,2.4c2.4,1.3,3.7,3.4,3.7,6.1
		C140.8,40.8,137.7,43.6,133.7,43.6z"/>
	<path fill="#FFFFFF" d="M154.2,24.8v18.4h-4.1V24.8h-5v-4.1h14.2v4.1H154.2z"/>
	<path fill="#FFFFFF" d="M174.6,43.3l-4.1-8.7h-1.8v8.7h-4.1V20.7h7.1c5.5,0,6.6,4.3,6.6,6.4v1c0,1.6-0.6,4.5-3.4,5.9l4.4,9.3
		H174.6z M174,27.2c0-2.1-1.6-2.4-2.5-2.4h-2.9v5.7h2.9c0.9,0,2.4-0.3,2.4-2.4V27.2z"/>
	<path fill="#FFFFFF" d="M191.1,43.6c-5.3,0-6.8-4.4-6.8-6.6V26.9c0-2.1,1.4-6.4,6.8-6.4c5.2,0,6.8,4.3,6.8,6.4V37
		C197.9,39.2,196.5,43.6,191.1,43.6z M193.7,27c0-2.1-1.8-2.4-2.6-2.4c-0.9,0-2.7,0.3-2.7,2.4v10c0,2.1,1.8,2.4,2.7,2.4
		c0.8,0,2.6-0.3,2.6-2.4V27z"/>
	<path fill="#FFFFFF" d="M211.9,24.8v18.4h-4.1V24.8h-5v-4.1H217v4.1H211.9z"/>
</g>
</svg>
