<svg xmlns="http://www.w3.org/2000/svg" viewBox="0 0 144.6 74.6" enable-background="new 0 0 144.6 74.6"><g><g fill="none" stroke="#6D6E71"><path d="M25.9 15.3h92.8"/><path stroke-width=".283" d="M25.9 14.2h92.8"/><path d="M118.7 61.4H25.9"/><path stroke-width=".283" d="M118.7 62.5H25.9"/></g><path fill="#414042" stroke="#D1D3D4" stroke-width="2.835" d="M1.4 21.3h141.7v34H1.4z"/><text transform="translate(27.034 44.927)" font-family="'TSTARPRO-Headline'" font-size="17" letter-spacing="1" opacity=".75">BEERSTROT</text><text transform="translate(25.9 43.794)" fill="#E6E7E8" font-family="'TSTARPRO-Headline'" font-size="17" letter-spacing="1">BEERSTROT</text><g fill="#58595B"><path d="M42.3 4.4c0-2.9 2-4.3 4.1-4.3 1.6 0 2.3.9 2.3 2 0 .7-.4 1.4-1 1.4-.4 0-.7-.3-.7-.7 0-.4.2-.5.2-.8 0-.4-.2-.8-1-.8-1 0-2.2 1-2.2 3.1 0 1.8 1.1 2.5 2.3 2.5 1.3 0 1.9-.5 2.3-.8.1-.1.2-.1.3-.1.2 0 .5.2.5.4 0 .1 0 .2-.1.3-.5.6-1.4 1.5-3 1.5-2.4 0-4-1.6-4-3.7zM53.4 7.4c-.3.3-.9.7-1.7.7-1.2 0-2-1.1-2-2.6 0-2 1.6-2.9 2.5-2.9.4 0 1 .1 1.4.3.1-.2.3-.2.5-.2.4 0 .7.3.7.7 0 1.3-.1 2-.1 3.2 0 .2.2.3.3.3.2 0 .3-.1.4-.2.1-.2.4-.1.5 0 .2.1.2.3 0 .6s-.5.7-1.3.7c-.5.1-1-.2-1.2-.6zm-.1-1.8V4s-.3-.2-.9-.2c-.7 0-1.3.4-1.3 1.6 0 .8.4 1.3.9 1.3.9.1 1.2-.6 1.3-1.1zM57.3 0c.5 0 .8.4.8.8 0 1-.8 1.9-.9 2.1-.2.1-.4.1-.6 0-.2-.1-.2-.4 0-.6.1 0 .3-.3.4-.7-.3-.1-.6-.4-.6-.8s.4-.8.9-.8zM68 .2c.5 0 .8.4.8.8 0 3.3-1.9 7-4.8 7-.3 0-.6-.3-.6-.6 0-5-.7-6.2-1.4-6.2-.1 0-.2 0-.3.2-.1.2-.4.2-.6.1-.2-.1-.3-.3-.2-.5.3-.6.8-1 1.6-1 2.1 0 2.6 1.9 2.2 6.7 1.2-.2 2.1-1.7 2.4-3.2.2-1.2.1-1.9.1-2.5 0-.4.3-.8.8-.8zM73.6 6.4c.1-.1.2-.2.3-.2.2 0 .4.2.4.4 0 .7-1 1.4-2.3 1.4-1.7 0-2.9-1.2-2.9-2.6 0-1.8 1.1-2.9 2.7-2.9 1.3 0 2.1.7 2.1 1.8 0 .8-.7 1.8-2.4 1.8-.4 0-.7 0-.9-.1.3.7.8 1 1.5 1 .8 0 1.2-.2 1.5-.6zm-3-1.2c.2 0 .5.1.8.1.8 0 1.1-.4 1.1-.9 0-.3-.3-.6-.6-.6-.7 0-1.2.4-1.3 1.4zM78.9 6.4c.1-.2.3-.2.5-.1s.3.3.2.5c-.3.7-1 1.3-2.3 1.3-1.5 0-2.5-1.2-2.5-2.6 0-1.8 1.1-2.9 2.7-2.9.7 0 1.1.2 1.4.4.2.1.2.3.2.5 0 .4-.3.7-.7.7-.3 0-.4-.4-.8-.4-.7 0-1.3.5-1.3 1.7 0 .9.6 1.5 1.3 1.5.5 0 1-.2 1.3-.6zM84 6.4c.1-.2.3-.2.5-.1s.3.3.2.5c-.3.7-1 1.3-2.3 1.3-1.5 0-2.5-1.2-2.5-2.6 0-1.8 1.1-2.9 2.7-2.9.7 0 1.1.2 1.4.4.2.1.2.3.2.5 0 .4-.3.7-.7.7-.3 0-.4-.4-.8-.4-.7 0-1.3.5-1.3 1.7 0 .9.6 1.5 1.3 1.5.5 0 1-.2 1.3-.6zM88.5 6.7c0-.6.1-1.2.1-2.2 0-.3-.2-.6-.7-.6-.6 0-1.3.3-1.3 1.3v2.1c0 .4-.3.7-.7.7-.4 0-.7-.3-.7-.7 0-.4.1-1.3.1-1.8 0-2.9-.1-3.9-.1-4.7 0-.5.4-.8.8-.8s.8.3.8.7c0 .8-.1 1.8-.1 2.5.5-.5 1.1-.7 1.6-.7 1.5 0 1.7 1.2 1.7 1.6 0 .8-.1 1.2-.1 2.4 0 .2.2.3.3.3.2 0 .3-.1.4-.2.1-.2.4-.1.5 0 .2.1.2.3 0 .6s-.5.7-1.3.7c-.7.2-1.3-.4-1.3-1.2zM92.5.3c.5 0 .8.4.8.8.1.5-.3.9-.8.9s-.8-.4-.8-.8c0-.5.3-.9.8-.9zm-.7 6.4V5.5c0-.8-.1-2.1-.1-2.1 0-.4.3-.8.8-.8.4 0 .8.3.8.8 0 1.3-.1 2-.1 3.2 0 .2.2.3.4.3.1 0 .3-.1.4-.2.1-.2.4-.1.5 0 .2.1.2.3 0 .6s-.5.7-1.3.7c-.8.1-1.4-.5-1.4-1.3zM98.4 7.4c-.3.3-.9.7-1.7.7-1.2 0-2-1.1-2-2.6 0-2 1.6-2.9 2.5-2.9.4 0 1 .1 1.4.3.1-.2.3-.2.5-.2.4 0 .7.3.7.7 0 1.3-.1 2-.1 3.2 0 .2.2.3.4.3.1 0 .3-.1.4-.2.1-.2.4-.1.5 0 .2.1.2.3 0 .6s-.5.7-1.3.7c-.6.1-1.1-.2-1.3-.6zm-.1-1.8V4s-.3-.2-.9-.2c-.7 0-1.3.4-1.3 1.6 0 .8.4 1.3.9 1.3.9.1 1.3-.6 1.3-1.1z"/><circle cx="36" cy="5.3" r="1.1"/><circle cx="108.5" cy="5.3" r="1.1"/></g><g fill="#58595B"><path d="M42.5 73h.8v-3.7h-.8v-.5h2.3v.5H44V73h.8v.5h-2.3V73zM45.2 73h.6v-3.8h-.6v-.5h1.2V73h.6v.5h-1.8V73zM50.1 72.2h-.4c-.2 0-.3.1-.3.3 0 .2.1.3.5.3h.8c.7 0 1 .3 1 .8 0 .6-.5 1.1-1.7 1.1-.9 0-1.4-.3-1.4-.7 0-.3.3-.6.7-.6-.4-.1-.5-.3-.5-.6 0-.2.3-.5.6-.6-.3-.2-.6-.4-.6-.9 0-.7.6-1.1 1.3-1.1.2 0 .3 0 .5.1.2-.4.5-.6.9-.6.3 0 .5.2.5.4s-.1.3-.3.3c-.2 0-.3-.1-.3-.3V70c-.1 0-.3.1-.5.4.3.2.5.5.5.8 0 .7-.6 1-1.3 1zm1 1.5c0-.2-.1-.4-.5-.4h-.8c-.4 0-.6.1-.6.4 0 .2.2.5.8.5.6.1 1.1-.2 1.1-.5zm-.4-2.5c0-.4-.2-.7-.6-.7-.4 0-.6.2-.6.7 0 .5.2.7.7.7.3 0 .5-.2.5-.7zM52.4 72.5v-1.8h-.5v-.5H53v2c0 .2 0 .4.2.6.1.1.2.1.4.1.4 0 .8-.4.8-1v-1.2h-.5v-.5h1.2V73h.5v.5h-1.2v-.8c-.4.6-.7.9-1.2.9-.5-.1-.8-.5-.8-1.1zM56 72.3h.4c.2.5.6.9 1 .9s.5-.2.5-.4c0-.3-.2-.4-.8-.6-.8-.2-1.1-.5-1.1-1s.4-1 1.1-1c.3 0 .6.1.8.4l.1-.4h.4v1.1H58c-.2-.5-.4-.8-.9-.8-.2 0-.5.1-.5.4 0 .3.2.4.8.6.7.2 1.1.4 1.1 1 0 .5-.4 1-1.1 1-.4 0-.7-.2-.9-.4l-.1.4H56v-1.2zM60.1 69.4v.9h1v.4h-1v1.9c0 .3.1.5.4.5.2 0 .3-.2.5-.6l.3.1c-.2.6-.6.9-1 .9-.6 0-.8-.3-.8-.9v-2h-.6v-.4h.6v-.8h.6zM61.6 71.8c0-1 .6-1.7 1.6-1.7s1.6.7 1.6 1.6c0 1-.6 1.7-1.6 1.7-1 .1-1.6-.6-1.6-1.6zm2.4 0c0-.9-.3-1.3-.9-1.3-.6 0-.8.4-.8 1.3s.3 1.3.9 1.3c.5 0 .8-.4.8-1.3zM66.6 73h.6v-2.3h-.6v-.5h1.2V73h.6v.5h-1.8V73zm.4-3.9c0-.3.2-.5.5-.5s.5.2.5.5-.2.5-.5.5-.5-.2-.5-.5zM68.8 73h.5v-2.3h-.5v-.5H70v.8c.4-.6.7-.9 1.2-.9s.9.4.9 1V73h.5v.5H71V73h.5v-1.5c0-.2-.1-.4-.2-.6-.1-.1-.2-.1-.4-.1-.4 0-.8.4-.8 1V73h.5v.5H69V73zM74.1 73h.5v-2.3H74v-.4h.6v-.1c0-1.1.7-1.5 1.4-1.5.6 0 .9.3.9.6 0 .2-.2.4-.4.4-.3 0-.4-.1-.4-.4 0-.1 0-.2.1-.2-.1 0-.1-.1-.2-.1-.4 0-.6.2-.6 1.2v.2h.9v.4h-.9V73h.6v.5h-1.9V73zM77.2 71.9c0 .8.4 1.2 1 1.2.4 0 .7-.2.9-.6h.3c-.2.7-.7 1-1.4 1-1 0-1.5-.7-1.5-1.6 0-1 .7-1.7 1.6-1.7 1 0 1.4.9 1.4 1.7h-2.3zm.1-.4h1.5c0-.6-.3-1-.7-1-.5 0-.8.3-.8 1zM79.9 73h.5v-2.3h-.5v-.5h1.2v.8c.2-.5.6-.8.9-.8.4 0 .6.2.6.5 0 .2-.2.5-.4.5s-.4-.1-.4-.4v-.1c-.3 0-.5.3-.6.8V73h.6v.5H80V73zM87.2 70.2c.5 0 .8.4.8 1V73h.5v.5h-1.6V73h.4v-1.5c0-.3 0-.5-.2-.6-.1-.1-.2-.1-.4-.1-.3 0-.8.4-.8 1V73h.4v.5H85V73h.4v-1.5c0-.3 0-.5-.2-.6-.1-.1-.2-.1-.4-.1-.4 0-.8.4-.8 1V73h.4v.5h-1.6V73h.5v-2.3h-.5v-.5H84v.8c.4-.6.8-.9 1.2-.9.4 0 .8.2.8.8.4-.5.8-.7 1.2-.7zM89.6 71.9c0 .8.4 1.2 1 1.2.4 0 .7-.2.9-.6h.3c-.2.7-.7 1-1.4 1-1 0-1.5-.7-1.5-1.6 0-1 .7-1.7 1.6-1.7 1 0 1.4.9 1.4 1.7h-2.3zm0-.4h1.5c0-.6-.3-1-.7-1-.4 0-.7.3-.8 1zM92.3 73h.5v-2.3h-.5v-.5h1.2v.8c.4-.6.7-.9 1.2-.9s.9.4.9 1V73h.4v.5h-1.6V73h.5v-1.5c0-.2-.1-.4-.2-.6-.1-.1-.2-.1-.4-.1-.4 0-.8.4-.8 1V73h.5v.5h-1.6V73zM97.4 69.4v.9h1.1v.4h-1.1v1.9c0 .3.1.5.4.5.2 0 .4-.2.5-.6l.3.1c-.2.6-.6.9-1 .9-.6 0-.8-.3-.8-.9v-2h-.6v-.4h.6v-.8h.6zM98.9 71.8c0-1 .6-1.7 1.6-1.7s1.6.7 1.6 1.6c0 1-.6 1.7-1.6 1.7-1 .1-1.6-.6-1.6-1.6zm2.5 0c0-.9-.3-1.3-.9-1.3-.6 0-.8.4-.8 1.3s.3 1.3.9 1.3c.5 0 .8-.4.8-1.3z"/></g></g></svg>