<svg xmlns="http://www.w3.org/2000/svg" viewBox="14.3 17 896.4 560" enable-background="new 14.3 17 896.4 560"><path fill="#FFF200" d="M910.1 356.9V38.1c0-11.6-9-20.6-20.6-20.6h-854c-11.7 0-20.6 9-20.6 20.6v318.8h895.2z"/><path class="img-cards" fill="#034EA2" d="M624 189.9L757.3 61.4 890 194.1 758.4 325.7z"/><path fill="none" stroke="#A7A9AC" stroke-width="2.143" stroke-miterlimit="2.613" d="M624 189.9L757.3 61.4 890 194.1 758.4 325.7z"/><path fill="#A7A9AC" d="M722.9 112.2l-8.5 21.1h40.7s25.4-2.7 25.4 22.7-24.8 22.7-24.8 22.7h-32.2L713.4 202h41.3s23.8-2.7 23.8 20.6-23.8 22.2-23.8 22.2h-29.1l-11.1 23.8 58.7-.6s38 .6 38-32.8c0-25.4-16.4-33.3-16.4-33.3H827l-9.5-22.2h-18s12.6-12.6 12.6-30.7-14.3-37-36.5-36.5l-52.7-.3zm-605.4 35.9c12.6 0 21.7-7.4 21.7-28.5 0-22.7-17.5-25.9-28.5-25.9H95.2v54.5l22.3-.1zM41.3 280.9V36.5h78.8c47.1 0 69.8 32.2 69.8 82.5 0 52.4-21.1 85.7-68.2 85.7h-27v76.2H41.3zM274.5 202c-15.3 11.1-35.9 5.8-35.9 29.1 0 9 5.8 14.8 14.8 14.8 16.9.1 22.1-19.1 21.1-43.9zm4.7 78.9l-2.1-19c-13.2 18.5-27 24.3-45 24.3-22.7 0-42.8-16.4-42.8-53.4 0-80.9 85.1-43.9 85.1-77.2 0-12.6-10.6-14.8-15.3-14.8-6.4 0-15.3 2.1-16.4 17.5h-45.5c0-37.6 18-59.7 65-59.7 56.6 0 59.7 31.2 59.7 73.5v83c0 10.1 0 15.3 6.4 22.7v3.1h-49.1zm102.6-92.1c0 17.5 5.8 34.3 18.5 34.3 14.8 1 20.1-17.5 20.1-36.5 0-19.6-4.8-38.6-20.1-38.6-14.2.1-18.5 18.1-18.5 40.8zm6.4 101c0 2.1 1 5.3 3.1 7.9 2.1 2.7 5.3 4.2 10.1 4.2 13.8 0 19-9 19-34.3v-14.3c-6.8 10.1-16.9 19.6-34.3 19.6-32.8 0-51.8-38.6-51.8-84 0-43.9 14.3-90.4 53.4-90.4 14.3 0 28.1 11.1 35.9 28.5v-23.2h41.7V247c0 53.4-4.2 95.2-62.9 95.2-42.3 0-59.7-24.8-62.4-51.2h48.1l.1-1.2zm131.7-99.4c0 33.8 8.5 48.1 20.6 48.1 12.6 0 20.6-14.8 20.6-48.1 0-25.9-7.9-46-20.1-45-16.4.1-21.1 24.9-21.1 45zm20.5-92.5c42.3 0 68.2 37 68.2 92.5 0 65-29.6 95.7-67.7 95.7-38 0-67.7-31.2-67.7-92-.4-61.9 26.5-96.2 67.2-96.2z"/><path fill="#034EA2" d="M886.3 391.8h-75.1c-3.1 0-6.8 2.7-7.4 5.8l-2.1 11.6c-.6 3.1 1.6 5.8 5.3 5.8h21.7l-11.1 95.2c-.6 3.1 2.1 6.4 5.3 6.4H843c3.1 0 6.4-2.7 6.8-6.4l11.1-95.2h21.2c3.1 0 6.8-2.7 7.4-5.8l2.1-11.6c0-3.1-2.1-5.8-5.3-5.8zM634.6 440l-12.2-38c-2.7-6.8-6.4-10.1-10.1-10.1h-28.1c-3.1 0-6.8 2.7-7.4 5.8L562 510.8c-.6 3.1 2.1 6.4 5.3 6.4h20.1c3.1 0 6.4-2.7 6.8-6.4l7.9-69.3 10.1 40.7c1 2.7 3.1 5.8 6.8 5.8h13.8c3.1 0 9-1 12.2-6.4l14.8-25.9-5.8 55c-.6 3.1 2.1 6.4 5.3 6.4h20.2c3.1 0 6.4-2.7 6.8-6.4l14.3-113.1c.6-3.1-1.6-5.8-5.3-5.8H671s-7.9-1-14.3 10.1c-5.2 9-22.1 38.1-22.1 38.1zm-287.1-48.2h18c3.1 0 5.8 2.7 5.3 5.8L357 510.8c-.6 3.1-3.7 6.4-6.8 6.4h-16.9c-3.7 0-6.8-2.7-9.5-6.4-9.5-14.3-25.9-51.2-25.9-51.2l-4.8 51.2c-.6 3.1-3.1 6.4-6.8 6.4h-20.1c-3.1 0-5.8-2.7-5.3-6.4l13.8-113.1c.6-3.1 3.7-5.8 7.4-5.8H298c3.1 0 7.9 5.3 11.6 10.1l24.8 37 4.8-41.7c-.7.4.3-5.5 8.3-5.5zm-155 70.9l10.6-29.6 4.2 29.6h-14.8zm40.2-61.9c-1.6-5.8-5.8-9.5-9.5-9.5h-29.1c-3.1 0-6.8 2.7-7.4 5.8l-46 111.1c-1.6 4.8 2.1 7.9 5.3 7.9h21.7c4.8 0 6.8-5.3 8.5-9.5l7.9-22.2H210l3.7 23.3s.6 9 11.1 9h20.1c3.1 0 7.4-4.8 6.4-9.5l-18.6-106.4zm512.9 61.9l10.6-29.6 4.2 29.6h-14.8zm40.2-61.9c-1.6-5.8-5.8-9.5-9.5-9.5h-29.1c-3.1 0-6.8 2.7-7.4 5.8l-46 111.1c-1.6 4.8 2.1 7.9 5.3 7.9h21.7c4.8 0 6.8-5.3 8.5-9.5l7.9-22.2H763l3.7 23.3s.6 9 11.1 9h20.1c3.1 0 7.4-4.8 6.4-9.5l-18.5-106.4zM459 392.4h-39.7c-36.5 0-39.7 33.8-39.7 33.8s-3.7 20.6-8.5 55.5 21.1 35.5 32.2 35.5h40.2c3.1 0 6.4-2.7 6.8-6.4l1.6-12.2c.6-3.1-2.7-5.3-5.8-5.3h-23.8c-21.7 0-18.5-14.8-18.5-14.8s5.3-34.3 6.8-47.1c1.6-12.6 12.2-15.9 22.3-15.9h23.3c3.1 0 6.4-1.6 6.8-5.3l1.6-12.2c.2-2.5-2.4-5.6-5.6-5.6zm70.4 37.5s-3.1 34.3-5.3 45c-3.1 15.3-10.6 17.5-16.9 17.5-15.9 0-12.6-13.2-12.6-13.2s5.3-34.3 6.8-47.1c1.5-12.7 9-14.3 18.5-14.3 11-.6 9.5 12.1 9.5 12.1zm6.8-37.5c-17.5-2.1-31.8.6-31.8.6-30.1 2.7-34.3 33.8-34.3 33.8s-3.7 20.6-8.5 55.5 21.7 36.5 38.6 36.5c0 0 48.1 4.8 53.9-35.5 5.8-41.3 6.8-53.9 7.4-60.9 2.2-16.2-8.3-27.9-25.3-30zM97.3 438.9H83l2.1-16.4h16.4s7.9-.6 6.8 6.8c-.3 7.5-4 9.6-11 9.6zm7 42.9c-1 9.5-6.4 12.6-14.3 13.2-7.4.6-13.8 0-13.8 0l3.1-26.4h16.9c.1-.1 10.2-1.1 8.1 13.2zm15.8-28.6c19.6-9.5 20.1-24.3 21.1-33.8 2.7-22.7-20.1-26.4-26.4-26.4H60.9c-3.7 0-6.8 3.1-7.4 6.4l-13.2 111c-.6 3.7 2.1 6.4 5.8 6.4h58.2c17.5 0 32.8-15.3 34.9-32.2 3.1-26.1-19.1-31.4-19.1-31.4z"/><path fill="none" stroke="#034EA2" stroke-miterlimit="2.613" d="M14.8 558.5c0 9.9 8.1 18 18 18h859.4c9.9 0 18-8.1 18-18v-523c0-9.9-8.1-18-18-18H32.8c-9.9 0-18 8.1-18 18v523z"/></svg>