<?xml version="1.0" encoding="utf-8"?>
<!-- Generator: Adobe Illustrator 17.1.0, SVG Export Plug-In . SVG Version: 6.00 Build 0)  -->
<!DOCTYPE svg PUBLIC "-//W3C//DTD SVG 1.1//EN" "http://www.w3.org/Graphics/SVG/1.1/DTD/svg11.dtd">
<svg version="1.1" id="Layer_1" xmlns="http://www.w3.org/2000/svg" xmlns:xlink="http://www.w3.org/1999/xlink" x="0px" y="0px"
	 viewBox="0 0 125.4 78.4" enable-background="new 0 0 125.4 78.4" xml:space="preserve">
<g>
	<path fill="#0079A7" d="M125.4,74.2c0,2.3-1.9,4.2-4.2,4.2H4.2c-2.3,0-4.2-1.9-4.2-4.2v-70C0,1.9,1.9,0,4.2,0h117.1
		c2.3,0,4.2,1.9,4.2,4.2V74.2z"/>
	<g>
		<path fill="#FFFFFF" d="M38.9,37.4v-1.3l-0.6,1.3h-5.2L32.5,36v1.3h-9.7l-1.1-2.7h-1.9l-1.2,2.7h-5v-8.2l3.7-8.3h7.1l1,2.4v-2.3
			h8.6l1.9,4l1.9-4h27.3c0,0,1.4,0,2.4,0.6l0-0.6h6.9v0.9c0,0,1.2-0.9,3.1-0.9c1.8,0,12.1,0,12.1,0l1.1,2.4v-2.4h7.8l1.4,2.4v-2.4
			h7.4v16.6h-7.6l-1.8-2.9v2.9H88l-1.3-3h-1.9l-1.2,3h-5.7c0,0-2.1,0-3.7-1.2c0,0.6,0,1.2,0,1.2H62.7c0,0,0-3.3,0-3.9
			c0-0.6-0.4-0.5-0.4-0.5h-0.4v4.4H38.9z"/>
		<path fill="#FFFFFF" d="M33.2,41h15l2.2,2.5l2.2-2.5h11.5c0,0,1.1,0,2.1,0.6V41c0,0,9,0,10.3,0c1.3,0,2.4,0.7,2.4,0.7V41h13.2v0.6
			c0,0,0.9-0.6,2.2-0.6c1.3,0,8.6,0,8.6,0v0.6c0,0,1.1-0.6,2.2-0.6c1.1,0,6.8,0,6.8,0v15.6c0,0-0.9,1-2.7,1h-8.9v-0.5
			c0,0-0.8,0.5-2.1,0.5c-1.3,0-23.7,0-23.7,0s0-3.6,0-4c0-0.4-0.2-0.5-0.5-0.5h-0.3v4.5h-7.4v-4.5c0,0-0.8,0.4-2.2,0.4
			c-1.4,0-2.7,0-2.7,0v4h-9.1L50.2,55L48,57.6H33.2V41z"/>
		<polygon fill="#0079A7" points="80.5,43.4 90,43.4 90,46 83.4,46 83.4,48.2 89.8,48.2 89.8,50.4 83.4,50.4 83.4,52.7 90,52.7 
			90,55.2 80.5,55.2 		"/>
		<path fill="#0079A7" d="M108.2,48c3.5,0.2,3.8,2,3.8,3.8c0,2.2-1.8,3.4-3.7,3.4h-6.1v-2.5h4.7c0.8,0,2,0,2-1.1
			c0-0.5-0.2-0.9-1.1-1c-0.4-0.1-1.8-0.1-2-0.1c-3.2-0.1-3.9-1.7-3.9-3.6c0-2.2,1.5-3.4,3.4-3.4h6.1V46H107c-1,0-2.1-0.1-2.1,1
			c0,0.7,0.5,0.9,1.2,0.9C106.4,47.9,108,48,108.2,48z"/>
		<path fill="#0079A7" d="M97.3,48c3.5,0.2,3.8,2,3.8,3.8c0,2.2-1.8,3.4-3.7,3.4h-6.1v-2.5h4.7c0.8,0,2,0,2-1.1c0-0.5-0.2-0.9-1.1-1
			c-0.4-0.1-1.8-0.1-2-0.1c-3.2-0.1-3.9-1.7-3.9-3.6c0-2.2,1.5-3.4,3.4-3.4h6.1V46h-4.4c-1,0-2.1-0.1-2.1,1c0,0.7,0.5,0.9,1.2,0.9
			C95.5,47.9,97.1,48,97.3,48z"/>
		<path fill="#0079A7" d="M63.1,43.5H53l-3.3,3.6l-3.2-3.7H35.2v11.7h11l3.5-3.9l3.4,3.9h5.5v-4h3.9c1.5,0,4.2-0.1,4.2-4.2
			C66.6,44.1,64.6,43.5,63.1,43.5z M44.7,52.7H38v-2.3h6.4v-2.2H38V46l7,0l2.8,3.2L44.7,52.7z M55.7,54.1l-4.1-4.9l4.1-4.6V54.1z
			 M62.2,48.8h-3.6V46h3.6c1.2,0,1.6,0.8,1.6,1.3C63.8,48.1,63.3,48.8,62.2,48.8z"/>
		<path fill="#0079A7" d="M77.1,49.9c1.6-0.8,2-1.8,2-3.2c0-2.5-2-3.1-3.5-3.1h-7.5v11.7H71v-4.1h3.8c1,0,1.4,1,1.4,2l0.1,2.2h2.8
			l-0.1-2.4C78.9,50.9,78.4,50,77.1,49.9z M74.6,48.7H71V46h3.6c1.2,0,1.6,0.8,1.6,1.3C76.2,48.1,75.8,48.7,74.6,48.7z"/>
		<rect x="69.3" y="23.2" fill="#0079A7" width="2.9" height="11.8"/>
		<polygon fill="#0079A7" points="45.7,23.2 55.1,23.2 55.1,25.7 48.5,25.7 48.5,27.9 54.9,27.9 54.9,30.2 48.5,30.2 48.5,32.5 
			55.1,32.5 55.1,34.9 45.7,34.9 		"/>
		<path fill="#0079A7" d="M65.8,29.6c1.6-0.8,2-1.8,2-3.2c0-2.5-2-3.1-3.5-3.1h-7.5v11.7h2.9v-4.1h3.8c1,0,1.4,1,1.4,2l0.1,2.2h2.8
			l-0.1-2.4C67.6,30.6,67.1,29.7,65.8,29.6z M63.3,28.4h-3.6v-2.7h3.6c1.2,0,1.6,0.8,1.6,1.3C64.9,27.8,64.4,28.4,63.3,28.4z"/>
		<path fill="#0079A7" d="M39,23.2l-3.5,7.9l-3.5-7.9h-4.5v11.3l-5-11.3h-3.8l-5.1,11.7h3l1.1-2.6h5.8l1.1,2.6h5.8v-8.7l3.9,8.7h2.6
			l3.9-8.6v8.6h2.9V23.2H39z M18.7,29.8l1.7-4.1l1.8,4.1H18.7z"/>
		<path fill="#0079A7" d="M101.9,23.2v8.1L97,23.2h-4.3v11l-4.9-11H84l-4,9.1c0,0-1.7,0-1.8,0c-0.7-0.1-1.8-0.6-1.8-2.7v-0.9
			c0-2.8,1.5-3,3.4-3h1.8v-2.6h-3.8c-1.3,0-4.2,1-4.3,5.8c-0.1,3.2,1.3,5.9,4.5,5.9h3.8l1.1-2.6h5.8l1.1,2.6h5.7v-8.6l5.2,8.6h3.9
			V23.2H101.9z M84.2,29.8l1.7-4.1l1.8,4.1H84.2z"/>
	</g>
</g>
</svg>
