<svg xmlns="http://www.w3.org/2000/svg" width="100" height="100" viewBox="0 0 100 100"><path d="M91.17 81.374l.006-.004-.14-.24c-.067-.128-.133-.257-.215-.375L53.13 15.472c-.61-1.11-1.775-1.87-3.132-1.87-1.47 0-2.73.887-3.285 2.153l-.004-.002L9.31 80.53l.036.02c-.505.618-.82 1.397-.82 2.257 0 1.982 1.607 3.59 3.588 3.59h75.767c1.982 0 3.59-1.607 3.59-3.59 0-.51-.11-.993-.303-1.433zm-41.135-1.757c-2.874 0-5.2-2.257-5.2-5.13 0-2.874 2.325-5.2 5.2-5.2 2.803 0 5.13 2.325 5.13 5.2 0 2.873-2.327 5.13-5.13 5.13zm5.13-45.367v28.3h-.002l.002.015c0 1.173-.95 2.094-2.094 2.094l-.013-.002h-6.093c-1.174 0-2.123-.92-2.123-2.093 0-.005.003-.01.003-.016h-.002V34.325c0-.026-.007-.05-.007-.077 0-1.118.865-1.997 1.935-2.08v-.015h6.288c1.15.008 2.074.898 2.103 2.04h.004v.055c.002 0 0 0 0 0z"/></svg>