<svg xmlns="http://www.w3.org/2000/svg" width="100" height="100" viewBox="0 0 100 100"><path d="M87.5 50.002C87.5 29.292 70.712 12.5 50 12.5S12.5 29.293 12.5 50.002C12.5 70.712 29.288 87.5 50 87.5c6.668 0 12.918-1.756 18.342-4.81.61-.22 1.05-.798 1.05-1.485 0-.622-.362-1.153-.883-1.413l.002-.004-6.53-4.002-.002.004c-.274-.227-.62-.37-1.005-.37-.238 0-.46.057-.663.15l-.014-.012C57.115 76.848 53.64 77.56 50 77.56c-15.2 0-27.56-12.36-27.56-27.558C22.44 34.807 34.802 22.44 50 22.44c14.322 0 26.12 10.984 27.434 24.967C77.428 57.42 73.06 63 69.63 63c-1.846 0-3.253-1.23-3.253-3.957 0-.527.176-1.672.264-2.11l4.164-19.92h-.018c.012-.07.042-.135.042-.21 0-.733-.596-1.33-1.33-1.33h-7.23c-.657 0-1.178.486-1.286 1.113h-.025l-.737 3.548c-1.847-3.342-5.63-5.893-10.994-5.893-10.202 0-19.877 9.765-19.877 21.55 0 8.53 5.1 14.775 13.63 14.775 4.75 0 9.588-2.727 12.666-7.035l.088.527c.615 3.342 9.843 7.576 15.12 7.576 7.652 0 16.618-5.156 16.618-19.932l-.022-.008c.027-.562.05-1.123.05-1.69zm-30.885 6.842c-1.935 2.727-5.1 5.805-9.763 5.805-4.486 0-7.212-3.167-7.212-7.74 0-6.42 5.013-12.753 12.05-12.753 3.957 0 6.244 2.55 7.123 4.486l-2.198 10.2z"/></svg>