<svg xmlns="http://www.w3.org/2000/svg" width="100" height="100" viewBox="0 0 100 100"><path d="M81.195 31.517c1.128 0 2.042-.897 2.042-1.996v-5.91c0-1.102-.914-2-2.042-2H76.61v-1.603c0-1.77-1.437-3.207-3.207-3.207H19.97c-1.77 0-3.206 1.435-3.206 3.207v59.986c0 1.766 1.436 3.206 3.206 3.206h53.432c1.77 0 3.206-1.44 3.206-3.207v-1.67h4.586c1.128 0 2.042-.894 2.042-1.996v-5.912c0-1.102-.914-2-2.042-2h-4.586v-5.7h4.586c1.128 0 2.042-.893 2.042-1.99v-5.912c0-1.102-.914-2-2.042-2h-4.586v-5.7h4.586c1.128 0 2.042-.896 2.042-1.995v-5.912c0-1.098-.914-1.996-2.042-1.996h-4.586v-5.695h4.587zM62.39 63.68c0 1.153-.803 2.09-1.794 2.09H32.75c-.992 0-1.795-.936-1.795-2.09v-8.603c0-.856.447-1.625 1.127-1.94l10.9-5.078c-2.583-1.558-4.35-4.69-4.35-8.305 0-5.168 3.598-9.356 8.04-9.356 4.443 0 8.042 4.187 8.042 9.355 0 3.562-1.708 6.655-4.226 8.238l10.79 5.148c.673.326 1.114 1.086 1.114 1.938v8.603z"/></svg>