<svg xmlns="http://www.w3.org/2000/svg" width="100" height="100" viewBox="0 0 100 100"><path d="M81.232 15.138H18.77c-1.883 0-3.408 1.525-3.408 3.407v3.143c0 1.88 1.525 3.407 3.407 3.407H81.23c1.88 0 3.407-1.525 3.407-3.407v-3.143c0-1.882-1.527-3.407-3.408-3.407zM81.232 35.06H35.597c-1.882 0-3.407 1.525-3.407 3.407v3.143c0 1.88 1.525 3.407 3.407 3.407H81.23c1.882 0 3.408-1.525 3.408-3.407v-3.143c0-1.88-1.525-3.407-3.406-3.407zM81.217 74.905H25.583c-1.882 0-3.407 1.525-3.407 3.407v3.143c0 1.88 1.525 3.407 3.407 3.407h55.634c1.88 0 3.407-1.525 3.407-3.407h.015v-3.143h-.016c0-1.88-1.526-3.407-3.407-3.407zM84.64 58.39c0-1.882-1.526-3.407-3.408-3.407h-38.82c-1.882 0-3.407 1.525-3.407 3.407v3.143c0 1.88 1.525 3.407 3.407 3.407h38.82c1.88 0 3.407-1.525 3.407-3.407V58.39z"/></svg>