<svg xmlns="http://www.w3.org/2000/svg" width="100" height="100" viewBox="0 0 100 100"><path d="M82.466 60.066c-.01-.006-.022-.01-.032-.015l.034-.058-17.31-9.994 17.39-10.04-.005-.01c.923-.57 1.233-1.773.687-2.72-.012-.02-.03-.037-.042-.058l.01-.006-5.52-9.562-.006.004c-.56-.91-1.73-1.225-2.67-.72L75 26.88 57.577 36.942v-20.15h-.01c-.033-1.082-.92-1.952-2.01-1.952-.025 0-.048.006-.073.007v-.013h-11.04v.007c-1.07.03-1.926.887-1.957 1.953h-.006v20.115l-17.45-10.075-.006.01c-.956-.513-2.15-.183-2.697.764-.013.02-.02.044-.03.065l-.01-.006-5.52 9.562.004.003c-.508.94-.196 2.11.712 2.673l-.002.003.035.02c.005.003.01.008.015.01l.018.01 17.41 10.05-17.027 9.833c-.146.043-.29.1-.426.18-.96.552-1.29 1.78-.743 2.74l-.007.003 5.71 9.892.033-.02c.617.74 1.69.952 2.55.456.01-.005.02-.014.03-.02l.032.056 17.37-10.027V82.68c-.036.15-.06.302-.06.46 0 1.11.896 2.006 2 2.015v.007H55.85v-.037c.948-.165 1.67-.986 1.67-1.98 0-.012-.003-.023-.004-.035h.066V63.056l16.967 9.796c.112.105.233.202.37.282.96.556 2.186.227 2.746-.724l.005.003 5.534-9.587.003-.004.002-.004.173-.3-.03-.017c.328-.902-.023-1.936-.884-2.434z"/></svg>