<svg xmlns="http://www.w3.org/2000/svg" width="100" height="100" viewBox="0 0 100 100"><path d="M4.712 69.854L.022 98.127c-.086.512.082 1.034.45 1.4v.004c.37.37.894.536 1.407.448l28.196-4.765c.594-.1 1.08-.525 1.264-1.1.185-.572.03-1.202-.396-1.628l-5.513-5.513L40.234 72.17c.63-.63.63-1.647 0-2.277l-10.2-10.2c-.63-.63-1.648-.63-2.278 0l-14.8 14.8-5.516-5.515c-.426-.425-1.056-.577-1.63-.394-.576.184-1 .674-1.098 1.27zM95.288 30.146l4.69-28.273c.085-.512-.083-1.034-.45-1.4V.47c-.37-.367-.894-.534-1.407-.447L69.925 4.788c-.594.1-1.08.525-1.265 1.1-.186.572-.032 1.202.395 1.628l5.513 5.513-14.802 14.8c-.63.63-.63 1.648 0 2.278l10.2 10.2c.63.63 1.648.63 2.278 0l14.802-14.8 5.515 5.514c.426.425 1.057.578 1.63.394.576-.184 1-.674 1.098-1.27zM69.854 95.288l28.27 4.69c.513.086 1.036-.082 1.402-.45l.002-.002c.368-.37.535-.892.448-1.406L95.21 69.924c-.1-.594-.524-1.08-1.1-1.265-.57-.186-1.2-.032-1.627.395l-5.513 5.513-14.8-14.803c-.63-.628-1.648-.628-2.278 0l-10.2 10.202c-.63.63-.63 1.648 0 2.277l14.8 14.802-5.514 5.515c-.425.426-.577 1.056-.393 1.63.183.576.673 1 1.27 1.098zM30.146 4.712L1.874.022C1.36-.064.84.104.474.472L.47.473c-.367.37-.534.892-.447 1.406L4.79 30.077c.1.593.524 1.08 1.098 1.264.573.187 1.202.033 1.63-.394l5.512-5.513 14.8 14.8c.63.63 1.648.63 2.278.002l10.2-10.2c.63-.63.63-1.65 0-2.28l-14.8-14.8 5.514-5.516c.424-.426.577-1.057.394-1.63-.184-.576-.674-1-1.27-1.098z"/></svg>