<svg xmlns="http://www.w3.org/2000/svg" width="100" height="100" viewBox="0 0 100 100"><path d="M89.148 32.927c0-.037.01-.07.01-.107 0-1.023-.392-1.935-1.015-2.642l.02-.01-7.87-13.628c-.276-1.11-1.28-1.916-2.468-1.914-.083 0-.16.016-.242.024v-.024H22.22v.004c-.014 0-.027-.004-.04-.004-.96 0-1.76.53-2.17 1.315l-.008-.004-8.212 14.23.015.01c-.596.706-.963 1.618-.963 2.64 0 .048.012.092.014.14v48.21c-.002.048-.014.093-.014.142 0 2.284 1.817 4.07 4.095 4.066.043 0 .083-.01.125-.012h69.87c.043 0 .083.012.126.012 2.283 0 4.1-1.782 4.1-4.062 0-.036-.01-.068-.01-.104v-48.28zM63.413 57.492l-12.39 17.43c-.227.318-.59.505-.98.507h-.005c-.386 0-.75-.188-.977-.504L36.59 57.494c-.262-.368-.3-.85-.09-1.25.207-.402.62-.655 1.07-.655h5.833V39.934c0-.667.54-1.205 1.204-1.205h10.79c.664 0 1.203.54 1.203 1.204V55.59h5.83c.453 0 .867.252 1.07.65.208.4.174.884-.087 1.252zm-45.037-28.76l5.263-9.118h52.67l5.265 9.12h-63.2z"/></svg>