<svg xmlns="http://www.w3.org/2000/svg" width="100" height="100" viewBox="0 0 100 100"><path d="M81.232 15.138H18.77c-1.883 0-3.408 1.525-3.408 3.407v3.143c0 1.88 1.525 3.407 3.407 3.407H81.23c1.88 0 3.407-1.525 3.407-3.407v-3.143c0-1.882-1.527-3.407-3.408-3.407zM76.224 41.61V38.47c0-1.882-1.525-3.407-3.407-3.407H27.183c-1.882 0-3.407 1.526-3.407 3.408v3.143c0 1.882 1.525 3.408 3.407 3.408h45.634c1.882 0 3.407-1.526 3.407-3.407zM77.81 74.905H22.176c-1.882 0-3.407 1.525-3.407 3.407v3.143c0 1.88 1.524 3.407 3.406 3.407H77.81c1.88 0 3.407-1.525 3.407-3.407h.015v-3.143h-.015c0-1.88-1.526-3.407-3.407-3.407zM72.817 58.39c0-1.882-1.525-3.407-3.407-3.407H30.59c-1.882 0-3.407 1.525-3.407 3.407v3.143c0 1.88 1.525 3.407 3.407 3.407h38.82c1.88 0 3.407-1.525 3.407-3.407V58.39z"/></svg>