<svg xmlns="http://www.w3.org/2000/svg" width="100" height="100" viewBox="0 0 100 100"><path d="M5.128 67.194L.024 97.962c-.093.558.09 1.125.49 1.524v.003c.404.4.973.58 1.532.485L32.73 94.79c.648-.11 1.18-.573 1.377-1.198.2-.622.034-1.308-.43-1.77l-6-6 16.108-16.108c.685-.685.685-1.793 0-2.478l-11.1-11.102c-.686-.685-1.794-.685-2.48 0L14.098 72.242 8.096 66.24c-.464-.462-1.15-.627-1.774-.428-.625.2-1.086.733-1.194 1.382zM94.872 32.806l5.104-30.768c.093-.558-.09-1.125-.49-1.524V.51c-.405-.398-.973-.58-1.532-.486L67.27 5.21c-.647.11-1.178.572-1.378 1.197-.2.623-.033 1.308.43 1.772l6.002 5.997-16.11 16.11c-.684.685-.684 1.793 0 2.48l11.103 11.1c.685.685 1.794.685 2.48 0L85.902 27.76l6 6c.466.463 1.15.63 1.776.43.623-.202 1.085-.735 1.192-1.384z"/></svg>