<svg xmlns="http://www.w3.org/2000/svg" width="100" height="100" viewBox="0 0 100 100"><path d="M39.17 88.427l5.104-30.768c.093-.56-.09-1.126-.49-1.525v-.003c-.404-.4-.972-.58-1.532-.486l-30.685 5.186c-.646.108-1.176.57-1.375 1.196-.202.622-.034 1.308.43 1.772l6 6L.514 85.906c-.685.685-.685 1.793 0 2.48l11.1 11.1c.686.685 1.793.685 2.48 0L30.2 83.38l6.003 6c.462.463 1.148.628 1.774.43.626-.2 1.087-.734 1.194-1.383zM60.83 11.573L55.724 42.34c-.093.558.09 1.126.49 1.525l.002.003c.403.4.972.58 1.53.486l30.685-5.187c.647-.108 1.176-.57 1.376-1.196.202-.622.034-1.307-.43-1.772l-6-6 16.108-16.106c.685-.686.685-1.794 0-2.48L88.386.515c-.685-.685-1.794-.685-2.48 0L69.8 16.62l-6.003-6c-.463-.463-1.15-.63-1.775-.43-.624.2-1.085.734-1.193 1.383z"/></svg>