<svg xmlns="http://www.w3.org/2000/svg" width="100" height="100" viewBox="0 0 100 100"><path d="M25.352 26.045c.347-.208.73-.37 1.03-.632 3.38-2.916 7.1-5.305 11.382-6.59 2.212-.666 4.583-.823 6.897-1.09.425-.047 1.13.387 1.317.78.19.397.08 1.194-.222 1.516-.538.576-1.262 1.096-2.006 1.344-2.847.95-5.75 1.73-8.59 2.7-.673.23-1.164.97-1.76 1.446-1.383 1.1-2.78 2.193-4.167 3.287-.22.174-.425.366-.637.55l.127.23c.71-.298 1.404-.64 2.133-.882 2.274-.773 4.514-1.815 6.856-2.16 2.02-.3 4.167.167 6.248.39.484.054.97.438 1.38.765 1.52 1.196 3.005 2.436 4.512 3.656.518.42.523.824.133 1.37-.926 1.294-2.098 1.7-3.47.9-1.088-.634-2.064-1.468-3.057-2.253-.528-.418-1-.57-1.722-.454-1.38.215-2.796.174-4.19.307-.514.048-1.092.166-1.5.45-1.937 1.374-3.842 2.792-5.715 4.25-.35.274-.505.808-.593 1.382.188-.085.394-.144.56-.257 1.53-1.043 3.308-1.186 5.063-1.407.56-.07 1.13-.07 1.685-.165 2.27-.382 4.003.708 5.675 2.003 1.375 1.064 2.77 2.104 4.134 3.18.803.63 1.214 1.457 1.207 2.513-.012 1.767.098 3.54-.548 5.243-.076.198-.116.575-.008.66 1.075.822.37 1.737.09 2.546-.6 1.737-1.32 3.428-1.996 5.137-.647 1.627-1.637 2.716-3.48 3.24-4.078 1.16-8.08 2.582-12.105 3.924-1.645.55-3.25.766-4.998.344-3.317-.796-6.583-.446-9.708.94-1.453.645-2.867 1.38-4.35 2.102-1.7-2.443-2.703-5.113-3.326-7.945-.734-3.33-.78-6.69-.37-10.06.034-.292.298-.7.557-.804 3.312-1.352 4.84-4.12 5.937-7.28 1.302-3.75 1.923-7.825 4.223-11.122 2.55-3.655 4.515-7.73 7.852-10.85 1.644-1.538 2.97-3.416 4.43-5.147.682-.807.996-.795 1.582.094.668 1.012.507 2.094-.318 3.133-1.992 2.516-3.942 5.062-5.896 7.605-.205.27-.318.61-.474.918l.198.192zm14.36 28.297c.812 0 1.544.22 1.946-.646.79-1.7 1.992-3.08 3.444-4.24.432-.35.39-.636.144-1.1-.704-1.35-1.305-2.75-1.996-4.105-.194-.373-.504-.746-.858-.974-1.23-.785-2.48-1.543-3.762-2.234-.34-.186-.872-.248-1.23-.125-.974.338-1.89.834-2.85 1.22-.864.35-1.765.603-2.627.954-2.055.837-2.553 2.735-3.158 4.6-.405 1.24-.13 2.15.758 3.074 1.176 1.218 2.26 2.532 3.317 3.858.374.47.714.496 1.203.334 1.887-.625 3.804-.985 5.67-.614zM74.49 73.967c-.655.49-1.343.944-1.957 1.48-3.015 2.647-6.487 4.54-10.255 5.754-2.19.71-4.57.903-6.88 1.14-1.313.136-2.024-1.223-1.2-2.28.51-.653 1.35-1.183 2.15-1.455 2.43-.824 4.93-1.438 7.362-2.26.88-.3 1.69-.892 2.445-1.46 1.57-1.19 3.085-2.458 4.618-3.695.225-.182.435-.38.53-.783-.838.357-1.654.77-2.512 1.064-2.112.73-4.202 1.716-6.38 2.003-2.07.274-4.244-.164-6.363-.385-.48-.05-.947-.46-1.365-.777-1.328-1.01-2.632-2.048-3.94-3.085-1.344-1.068-1.14-2.455.543-2.986.656-.208 1.585-.142 2.18.183 1.187.65 2.215 1.592 3.347 2.354.317.217.77.348 1.15.332 1.467-.06 2.937-.147 4.392-.33.665-.082 1.394-.278 1.933-.655 1.835-1.28 3.62-2.637 5.375-4.027.368-.29.53-.842.692-1.375-2.368 1.56-5.022 1.568-7.64 1.78-1.722.138-3.213-.276-4.568-1.384-1.756-1.44-3.613-2.757-5.358-4.208-.414-.345-.79-1.022-.78-1.54.032-1.756.224-3.512.397-5.263.057-.583.367-1.14-.247-1.657-.175-.146-.18-.64-.096-.922.21-.702.522-1.37.778-2.058.49-1.312.975-2.627 1.452-3.95.65-1.8 1.736-2.987 3.71-3.55 4.042-1.165 8.02-2.555 12.018-3.873 1.676-.558 3.3-.79 5.092-.313 3.496.927 6.89.274 10.134-1.2 1.244-.568 2.443-1.232 3.732-1.887 1.47 1.793 2.24 3.92 2.917 6.08 1.224 3.896 1.276 7.885.905 11.908-.082.898-.825 1.02-1.374 1.25-1.99.842-3.227 2.424-4.062 4.262-.906 2-1.605 4.108-2.26 6.207-.92 2.944-1.89 5.848-3.627 8.44-1.318 1.968-2.508 4.028-3.907 5.934-1.142 1.557-2.514 2.943-3.776 4.41-1.347 1.564-2.683 3.138-4.03 4.703-.715.83-1.06.798-1.65-.145-.64-1.025-.455-2.03.414-3.117 1.98-2.48 3.914-4.996 5.85-7.513.2-.26.274-.615.408-.926-.1-.074-.2-.146-.296-.223zM54.765 51.12c.635 1.527 1.283 3.15 1.998 4.74.157.352.513.662.85.877 1.238.773 2.53 1.465 3.75 2.264.446.293.742.362 1.248.143 1.494-.655 3.02-1.235 4.545-1.82 1.476-.56 2.797-1.304 3.38-2.89.3-.812.575-1.64.788-2.478.233-.914.105-1.72-.615-2.483-1.28-1.35-2.428-2.82-3.668-4.21-.16-.18-.572-.296-.8-.224-2.13.676-4.273.99-6.515.646-.408-.066-1.043.256-1.32.604-1.282 1.596-2.47 3.262-3.64 4.832z"/></svg>