<svg xmlns="http://www.w3.org/2000/svg" width="100" height="100" viewBox="0 0 100 100"><path d="M35.995 89.365l4.69-28.272c.085-.512-.082-1.034-.45-1.4v-.003c-.37-.368-.894-.535-1.407-.447L10.63 64.007c-.594.1-1.08.525-1.264 1.1-.185.572-.03 1.202.395 1.628l5.514 5.513L.474 87.05c-.63.63-.63 1.647 0 2.277l10.2 10.2c.63.63 1.647.63 2.277 0l14.803-14.8 5.515 5.514c.425.426 1.055.578 1.63.395.575-.183.998-.674 1.097-1.27zM64.006 10.635l-4.69 28.273c-.085.512.083 1.033.45 1.4v.003c.37.368.894.535 1.407.448l28.196-4.766c.593-.1 1.08-.525 1.264-1.1.185-.572.03-1.202-.396-1.628l-5.513-5.513 14.802-14.8c.63-.63.63-1.65 0-2.28L89.327.47c-.63-.63-1.648-.63-2.278 0L72.247 15.275 66.733 9.76c-.425-.426-1.056-.58-1.63-.396-.575.185-1 .675-1.097 1.27zM89.365 64.006l-28.27-4.69c-.513-.085-1.036.082-1.402.45l-.003.002c-.368.37-.535.892-.447 1.406l4.765 28.196c.1.594.525 1.082 1.1 1.264.57.185 1.2.032 1.628-.395l5.513-5.514L87.05 99.53c.63.627 1.647.627 2.277-.003l10.2-10.2c.63-.63.63-1.648 0-2.278L84.727 72.247l5.516-5.515c.424-.426.577-1.055.394-1.63-.185-.575-.676-1-1.272-1.097zM10.635 35.995l28.272 4.69c.513.086 1.034-.082 1.4-.45l.003-.002c.368-.37.535-.892.448-1.406L35.993 10.63c-.1-.593-.525-1.08-1.1-1.264-.572-.186-1.2-.032-1.628.395l-5.513 5.514-14.8-14.8c-.63-.63-1.65-.63-2.28-.002l-10.2 10.2c-.63.63-.63 1.65 0 2.28l14.8 14.8L9.76 33.27c-.424.425-.577 1.056-.394 1.63.185.575.676 1 1.27 1.097z"/></svg>