<svg xmlns="http://www.w3.org/2000/svg" width="100" height="100" viewBox="0 0 100 100"><path d="M81.232 15.39H18.77c-1.883 0-3.408 1.524-3.408 3.406v3.143c0 1.88 1.525 3.406 3.407 3.406H81.23c1.88 0 3.407-1.525 3.407-3.407v-3.144c0-1.882-1.527-3.407-3.408-3.407zM81.232 35.144H18.77c-1.883 0-3.408 1.525-3.408 3.407v3.144c0 1.88 1.525 3.407 3.407 3.407H81.23c1.88 0 3.407-1.524 3.407-3.406V38.55c0-1.88-1.527-3.406-3.408-3.406zM81.232 54.9H18.77c-1.883 0-3.408 1.524-3.408 3.406v3.143c0 1.88 1.525 3.406 3.407 3.406H81.23c1.88 0 3.407-1.525 3.407-3.407v-3.144c0-1.88-1.527-3.407-3.408-3.407zM81.232 74.654H18.77c-1.883 0-3.408 1.525-3.408 3.407v3.144c0 1.88 1.525 3.407 3.407 3.407H81.23c1.88 0 3.407-1.524 3.407-3.406V78.06c0-1.88-1.527-3.406-3.408-3.406z"/></svg>