<svg xmlns="http://www.w3.org/2000/svg" width="100" height="100" viewBox="0 0 100 100"><path d="M62.73 49.11c5.347-1.104 9.76-5.94 9.76-12.986 0-7.553-5.517-14.428-16.295-14.428H29.01c-1.437 0-2.603 1.166-2.603 2.604v51.4c0 1.437 1.166 2.603 2.604 2.603h28.12c10.862 0 16.463-6.79 16.463-15.36 0-7.044-4.752-12.9-10.863-13.834zM38.458 32.304h15.107c4.074 0 6.62 2.46 6.62 5.94 0 3.65-2.546 5.94-6.62 5.94H38.458v-11.88zm15.615 35.39H38.458v-12.9h15.616c4.668 0 7.214 2.886 7.214 6.45 0 4.074-2.716 6.45-7.215 6.45z"/></svg>