<svg xmlns="http://www.w3.org/2000/svg" width="100" height="100" viewBox="0 0 100 100"><path d="M66.237 47.445c3.667-1.87 5.96-5.162 5.42-10.644-.722-7.493-7.192-10.002-15.36-10.714l-.003-9.058c.002-.03.017-.054.017-.084 0-.69-.56-1.25-1.25-1.25h-3.812c-.69 0-1.25.56-1.25 1.25h-.03l.006 8.87c-1.664 0-3.364.034-5.052.07l-.003-8.83c.002-.04.02-.072.02-.11 0-.692-.56-1.25-1.25-1.252h-3.812c-.69 0-1.25.56-1.25 1.25v.003h-.03l.002 9.143c-1.37.028-2.715.057-4.027.057v-.033h-8.727v.013c-.69 0-1.25.56-1.25 1.25v4.227c0 .69.56 1.25 1.25 1.25h.005v.02s4.673-.092 4.595-.01c2.562.002 3.397 1.49 3.64 2.772l.005 11.843v.045l.006 16.587c-.112.805-.586 2.092-2.376 2.095.08.07-4.6 0-4.6 0v.005c-.008 0-.014-.005-.022-.005-.6 0-1.08.432-1.2.997l-.05-.003-1.153 5.168.027.005c-.005.046-.027.086-.027.134 0 .664.522 1.195 1.176 1.236l-.002.02 8.233-.004c1.533 0 3.04.024 4.52.033l.008 9.262h.003c0 .69.56 1.25 1.252 1.25h3.812c.69 0 1.25-.56 1.25-1.25h.002l-.004-9.15c1.735.035 3.414.048 5.054.044l.002 9.105H50c.002.69.56 1.25 1.25 1.25h3.813c.69 0 1.25-.56 1.25-1.25v-.002h.008v-9.247c10.634-.615 18.078-3.297 18.998-13.286.742-8.04-3.043-11.63-9.08-13.075zM45.072 33.32c3.57-.002 14.79-1.142 14.793 6.312 0 7.148-11.218 6.318-14.79 6.32l-.003-12.632zm.01 32.935l-.002-13.93c4.288 0 17.733-1.237 17.736 6.956.006 7.857-13.445 6.968-17.733 6.975z"/></svg>