<svg xmlns="http://www.w3.org/2000/svg" width="100" height="100" viewBox="0 0 100 100"><path d="M44.105 55.64l3.598-2.078-4.666-3.925zM88.558 49.96c0-.885-.435-1.663-1.097-2.15l.015-.025-9.324-5.383 5.368-9.296-.018-.01c.328-.753.315-1.644-.127-2.41-.443-.765-1.208-1.222-2.025-1.313v-.026H70.58V18.61h-.022c-.092-.816-.55-1.58-1.314-2.022-.767-.443-1.658-.456-2.412-.125l-.013-.023-9.482 5.474-5.25-9.094-.02.01c-.487-.66-1.264-1.093-2.148-1.093-.885 0-1.664.435-2.15 1.097l-.025-.014-5.337 9.244-9.19-5.306-.01.02c-.754-.33-1.644-.316-2.41.126-.766.442-1.222 1.208-1.314 2.025h-.027v10.673H18.845v.02c-.816.093-1.58.55-2.022 1.315-.442.766-.455 1.657-.126 2.41l-.023.014 5.246 9.087-9.394 5.423.01.02c-.66.487-1.093 1.264-1.093 2.148 0 .886.435 1.665 1.097 2.152l-.014.024L21.85 57.6l-5.367 9.295.018.01c-.327.753-.314 1.643.128 2.408.443.766 1.208 1.223 2.025 1.314v.027H29.42V81.39h.022c.092.816.55 1.58 1.314 2.022.767.443 1.66.455 2.412.125l.013.023 9.482-5.474 5.25 9.094.02-.01c.487.66 1.264 1.093 2.148 1.093.885 0 1.664-.435 2.15-1.096l.024.013 5.337-9.244 9.192 5.306.01-.02c.754.33 1.644.316 2.41-.126.766-.442 1.223-1.208 1.314-2.025h.027V70.4h10.613v-.02c.816-.093 1.58-.55 2.022-1.315.442-.766.455-1.657.126-2.41l.023-.013-5.246-9.087 9.395-5.424-.01-.02c.66-.488 1.093-1.266 1.093-2.15zm-51.02 15.237c-2.23 1.288-4.253 1.464-5.972 1.002l.24-2.698c1.303.377 2.986.375 4.576-.544 1.367-.79 1.658-1.765 1.27-2.438-1.16-2.006-6.993 3.23-9.5-1.11-1.108-1.92-.367-4.472 2.35-6.04 1.833-1.06 3.675-1.383 5.426-.988l-.31 2.623c-1.432-.324-2.907-.004-4.083.674-1.038.6-1.367 1.388-.967 2.08 1.05 1.817 6.965-3.235 9.45 1.07 1.22 2.11.617 4.58-2.48 6.367zM51.48 56.87l-1.854-1.534-4.947 2.856.4 2.374-2.785 1.607L40.08 48.07l3.08-1.777 11.105 8.97-2.785 1.608zm3.753-2.165l-6.66-11.538 2.473-1.43 5.413 9.376 4.877-2.816 1.25 2.163-7.354 4.245zm9.012-5.203l-6.66-11.537 8.163-4.715 1.248 2.162-5.707 3.296 1.397 2.422 5.586-3.226 1.248 2.162-5.585 3.225 1.518 2.63 5.708-3.295 1.25 2.162-8.165 4.715z"/></svg>