<svg xmlns="http://www.w3.org/2000/svg" width="100" height="100" viewBox="0 0 100 100"><g fill="#231F20"><path d="M49.805 38.076l-2.05 8.215c2.324.58 9.484 2.942 10.644-1.707 1.208-4.847-6.272-5.928-8.595-6.507zM46.723 50.437l-2.26 9.058c2.79.693 11.392 3.455 12.664-1.655 1.33-5.328-7.615-6.707-10.404-7.403zM59.067 13.62c-20.086-5.008-40.434 7.22-45.44 27.312-5.012 20.09 7.215 40.438 27.3 45.447 20.09 5.008 40.44-7.218 45.448-27.308 5.01-20.09-7.217-40.443-27.308-45.45zM66.53 44.66c-.542 3.653-2.566 5.422-5.255 6.04 3.69 1.922 5.57 4.87 3.78 9.98-2.22 6.345-7.497 6.88-14.512 5.553l-1.703 6.825-4.115-1.025 1.68-6.733c-1.066-.264-2.156-.546-3.28-.85L41.44 71.21l-4.11-1.025 1.703-6.836c-.96-.247-1.937-.51-2.933-.758l-5.354-1.336 2.042-4.71s3.032.808 2.99.748c1.166.29 1.682-.47 1.886-.978l2.69-10.787c.152.036.3.072.435.107-.165-.065-.314-.108-.428-.137l1.92-7.7c.05-.875-.252-1.977-1.918-2.393.065-.044-2.988-.743-2.988-.743l1.095-4.395 5.676 1.416-.005.02c.854.213 1.733.414 2.63.618l1.685-6.757 4.112 1.025-1.652 6.625c1.104.252 2.215.506 3.297.775l1.64-6.58 4.115 1.024-1.685 6.76c5.194 1.79 8.993 4.47 8.247 9.462z"/></g></svg>