<svg xmlns="http://www.w3.org/2000/svg" width="100" height="100" viewBox="0 0 100 100"><path d="M88.558 49.96c0-.885-.435-1.663-1.097-2.15l.015-.025-9.324-5.383 5.368-9.296-.018-.01c.328-.753.315-1.644-.127-2.41-.443-.765-1.208-1.222-2.025-1.313v-.026H70.58V18.61h-.022c-.092-.816-.55-1.58-1.314-2.022-.767-.443-1.658-.456-2.412-.125l-.013-.023-9.482 5.474-5.25-9.094-.02.01c-.487-.66-1.264-1.093-2.148-1.093-.885 0-1.664.435-2.15 1.097l-.025-.014-5.337 9.244-9.19-5.306-.01.02c-.754-.33-1.644-.316-2.41.126-.766.442-1.222 1.208-1.314 2.025h-.027v10.673H18.845v.02c-.816.093-1.58.55-2.022 1.315-.442.766-.455 1.657-.126 2.41l-.023.014 5.246 9.087-9.394 5.423.01.02c-.66.487-1.093 1.264-1.093 2.148 0 .886.435 1.665 1.097 2.152l-.014.024L21.85 57.6l-5.367 9.295.02.01c-.33.754-.316 1.644.126 2.41.442.765 1.207 1.222 2.024 1.313v.027H29.42V81.39h.022c.092.816.55 1.58 1.314 2.022.767.443 1.658.455 2.412.125l.013.023 9.482-5.474 5.25 9.094.02-.01c.487.66 1.264 1.093 2.148 1.093.885 0 1.664-.435 2.15-1.096l.024.013 5.337-9.244 9.192 5.306.01-.02c.754.33 1.644.316 2.41-.126.766-.442 1.222-1.208 1.314-2.025h.027V70.4h10.613v-.02c.816-.093 1.58-.55 2.022-1.315.442-.766.455-1.658.126-2.41l.023-.014-5.246-9.088 9.395-5.424-.01-.02c.66-.486 1.093-1.264 1.093-2.148z"/></svg>