<svg xmlns="http://www.w3.org/2000/svg" width="100" height="100" viewBox="0 0 100 100"><g fill="#231F20"><circle cx="41.53" cy="19.773" r="7.152"/><path d="M83.162 84.562l.01-.006-20.92-36.234c.36-.495.577-1.098.577-1.756 0-1.263-.783-2.34-1.888-2.783L54.907 40.3l-9.16-9.16c-1.31-1.613-3.31-2.646-5.55-2.646-2.027 0-3.852.846-5.153 2.2l-10.632 10.63.012.012c-.17.134-.285.332-.285.564 0 .056.02.104.03.156h-.028V54.03c0 .01-.003.018-.003.026 0 1.658 1.343 3.003 3.002 3.003s3.002-1.346 3.002-3.004l-.002-.024v-10.01l3.65-3.65V59.18l-6.954 12.044-8.89 8.89.032.034c-.82.764-1.34 1.843-1.34 3.052 0 2.31 1.873 4.18 4.182 4.18 1.317 0 2.476-.62 3.243-1.57l9.596-9.597-.036-.037 8.096-14.024 7.104 7.104 9.232 15.99.036-.02c.715 1.277 2.066 2.152 3.635 2.152 2.31 0 4.18-1.87 4.18-4.18 0-.915-.3-1.754-.8-2.443L55.482 64.08l-.01.008-8.68-8.678v-14.8l4.45 4.45v.002l.007.004.025.025.007-.006 6.846 3.954c.054.037.113.064.17.098l.027.016c.443.257.952.416 1.502.416.19 0 .372-.022.552-.056l20.816 36.054c.013.032.034.057.05.087l.007.012c.19.35.553.598.983.598.62 0 1.125-.496 1.125-1.11 0-.22-.082-.417-.196-.59z"/></g></svg>