<svg xmlns="http://www.w3.org/2000/svg" width="100" height="100" viewBox="0 0 100 100"><path fill="#231F20" d="M81.615 28.882l-31.178-6.257c-.287-.06-.586-.06-.875 0l-31.176 6.257c-1.026.208-1.764 1.1-1.764 2.136v37.967c0 1.035.738 1.927 1.764 2.134l31.176 6.253c.29.062.588.062.875 0l31.178-6.254c1.025-.208 1.764-1.1 1.764-2.136V31.017c0-1.034-.74-1.927-1.765-2.135zm-35.972 29.23c-2.142 4.72-5.503 7.11-9.99 7.11-7.494 0-12.526-6.118-12.526-15.22 0-9.107 5.033-15.225 12.525-15.225 4.462 0 7.803 2.264 9.936 6.73.19.395.21.853.055 1.264-.15.418-.467.75-.874.93l-3.622 1.616c-.827.368-1.815.006-2.19-.82-.54-1.173-1.553-2.577-3.306-2.577-2.774 0-4.71 3.323-4.71 8.083 0 4.758 1.936 8.08 4.71 8.08 1.986 0 2.942-1.953 3.263-2.792.16-.42.485-.763.904-.933.42-.182.893-.173 1.308.005l3.663 1.576c.408.172.726.5.886.912.16.408.148.86-.033 1.263zm31.083 0c-2.142 4.72-5.5 7.11-9.99 7.11-7.494 0-12.526-6.118-12.526-15.22 0-9.107 5.033-15.225 12.525-15.225 4.462 0 7.803 2.264 9.936 6.73.192.395.21.853.056 1.264-.15.418-.467.75-.874.93l-3.62 1.616c-.828.368-1.815.006-2.192-.82-.54-1.173-1.552-2.577-3.305-2.577-2.774 0-4.71 3.323-4.71 8.083 0 4.758 1.935 8.08 4.71 8.08 1.986 0 2.942-1.953 3.263-2.792.16-.42.486-.763.904-.933.42-.182.894-.173 1.31.005l3.662 1.576c.407.172.726.5.885.912.16.408.148.86-.034 1.263z"/></svg>