<svg xmlns="http://www.w3.org/2000/svg" width="100" height="100" viewBox="0 0 100 100"><path fill="#231F20" d="M92.038 24.333l-8.62-8.622c-.303-.3-.712-.472-1.14-.472-.43 0-.84.17-1.142.473l-31.15 31.15-6.07-6.068c-.63-.63-1.65-.63-2.28 0l-8.623 8.622c-.303.302-.473.713-.473 1.14 0 .428.17.84.473 1.142l15.782 15.778c.302.302.712.473 1.14.473.02 0 .038-.01.057-.01.016 0 .033.01.05.01.414 0 .825-.16 1.14-.474L92.04 26.616c.63-.632.63-1.653 0-2.283z"/><path d="M72.022 53.625v21.16H27.978V30.74h31.06l9.98-9.978H23.192v.007c-.023 0-.044-.008-.068-.008-2.788 0-5.045 2.23-5.113 5H18v54h.013c.067 2.728 2.26 4.92 4.987 4.987v.012h54v-.013c2.73-.068 4.92-2.26 4.987-4.988H82V43.647l-9.978 9.978z"/></svg>