<svg xmlns="http://www.w3.org/2000/svg" width="100" height="100" viewBox="0 0 100 100"><path d="M88.23 71.062h-7.263V23.96h-.05c.002-.07.02-.136.02-.207 0-2.635-2.137-4.772-4.772-4.772H28.99v-7.067c0-1.487-1.205-2.692-2.693-2.693h-4.57c-1.49 0-2.694 1.205-2.694 2.693v7.068H11.77c-1.488 0-2.693 1.206-2.694 2.694v4.57c0 1.49 1.205 2.694 2.693 2.694h7.263V76.04h.052c-.003.07-.02.136-.02.207 0 2.635 2.136 4.772 4.77 4.772H71.01v7.067c0 1.487 1.205 2.692 2.693 2.693h4.57c1.49 0 2.694-1.205 2.694-2.693V81.02h7.263c1.488 0 2.693-1.206 2.694-2.694v-4.57c0-1.49-1.205-2.694-2.693-2.694zm-59.24 0V28.938h42.02v42.125H28.99z"/></svg>