<svg xmlns="http://www.w3.org/2000/svg" width="100" height="100" viewBox="0 0 100 100"><g fill-rule="evenodd" clip-rule="evenodd"><path d="M84.01 79.998c0-1.68-1.362-3.043-3.042-3.043H19.033c-1.68 0-3.042 1.364-3.042 3.043v3.87c0 1.682 1.363 3.043 3.043 3.043h61.935c1.68 0 3.042-1.36 3.042-3.04v-3.872zM24.62 38.433l-.018-.017-.002.002c-.572-.49-1.306-.798-2.118-.798-1.78 0-3.22 1.424-3.26 3.193h-.08V70.05h.103c.155 1.66 1.536 2.966 3.237 2.966.012 0 .024-.003.036-.004v.004H77.48v-.076c.014 0 .025.004.038.004 1.675 0 3.04-1.268 3.23-2.893h.036V41.422c.046-.22.073-.446.073-.68 0-1.802-1.463-3.265-3.267-3.265-.776 0-1.48.282-2.04.733l-.01-.01-.09.092c-.112.097-.215.2-.312.312l-6.88 6.88-15.853-15.85-.03.03c-.597-.633-1.436-1.033-2.374-1.033-.94 0-1.78.4-2.376 1.036l-.035-.035L31.7 45.517l-6.766-6.767c-.1-.113-.204-.218-.317-.317zm48.353 8.394v.095h-.095l.095-.095z"/><circle cx="22.348" cy="27.13" r="6.042"/><circle cx="77.348" cy="27.13" r="6.042"/><circle cx="50.348" cy="19.13" r="6.042"/></g></svg>