<svg xmlns="http://www.w3.org/2000/svg" width="100" height="100" viewBox="0 0 100 100"><path fill="#231F20" d="M50 22.44c15.198 0 27.56 12.367 27.56 27.562 0 15.197-12.362 27.56-27.56 27.56-15.2 0-27.56-12.363-27.56-27.56C22.44 34.806 34.8 22.44 50 22.44m0-9.94c-20.712 0-37.5 16.792-37.5 37.502S29.288 87.5 50 87.5s37.5-16.788 37.5-37.498C87.5 29.292 70.712 12.5 50 12.5zM69.195 36.068l-3.897-3.902c-.743-.747-2.077-.73-2.79 0L50.02 44.654 43.16 37.79c-.744-.742-2.047-.742-2.79 0l-3.892 3.894c-.372.364-.585.873-.585 1.402 0 .525.204 1.025.578 1.394l12.134 12.133c.374.374.87.578 1.396.578h.078c.517-.008 1-.212 1.364-.577L69.196 38.86c.77-.773.77-2.025 0-2.792z"/></svg>