<svg xmlns="http://www.w3.org/2000/svg" width="100" height="100" viewBox="0 0 100 100"><path d="M63.185 55.07c-.956 0-1.73-.774-1.73-1.73V36.445c0-.957.774-1.73 1.73-1.73h17.962v-17.78h-.034c-.172-1.703-1.592-3.036-3.34-3.036H7.43v.01c-1.706.046-3.08 1.354-3.248 3.026h-.035v56.342h.068c.305 1.512 1.622 2.65 3.214 2.694v.01h11.563v6.743c0 1.864 1.51 3.374 3.374 3.374 1.165 0 2.193-.592 2.8-1.49l8.627-8.63h43.98c1.634 0 2.995-1.16 3.306-2.702h.068V55.07H63.185zM94.123 39.702h-25.95c-.956 0-1.73.774-1.73 1.73v6.92c0 .956.773 1.73 1.73 1.73h25.95c.956 0 1.73-.774 1.73-1.73v-6.92c0-.956-.774-1.73-1.73-1.73z"/></svg>