<svg xmlns="http://www.w3.org/2000/svg" width="100" height="100" viewBox="0 0 100 100"><path d="M88.466 16.936c-.172-1.703-1.592-3.036-3.34-3.036H14.78v.01c-1.704.046-3.078 1.354-3.246 3.026H11.5v56.342h.068c.305 1.512 1.622 2.65 3.214 2.694v.01h11.564v6.743c0 1.864 1.51 3.374 3.373 3.374 1.165 0 2.193-.593 2.8-1.493l8.626-8.627h43.98c1.634 0 2.995-1.16 3.306-2.703h.068v-56.34h-.034zM28.4 50.662c-3.056 0-5.788-2.405-5.788-6.632 0-4.878 2.667-9.234 6.7-12.095l.013.012c.1-.05.206-.085.324-.085.163 0 .307.064.43.156l.007-.007 2.703 1.707-.016.015c.192.13.325.34.325.59 0 .277-.162.51-.39.633v.002c-.014.008-.03.02-.045.028l-.012.007c-2.065 1.124-4.26 3.726-4.84 6.046.26-.13.78-.195 1.302-.195 2.47 0 4.42 1.885 4.42 4.68.002 2.798-2.34 5.14-5.136 5.14zm13.232 0c-3.055 0-5.787-2.405-5.787-6.632 0-4.878 2.667-9.234 6.7-12.095l.013.012c.1-.05.206-.085.324-.085.164 0 .308.064.43.156l.008-.007 2.703 1.707-.016.015c.192.13.325.34.325.59 0 .277-.16.51-.39.633l.002.002c-.015.008-.03.02-.046.028l-.012.007c-2.065 1.124-4.26 3.726-4.84 6.046.26-.13.78-.195 1.302-.195 2.47 0 4.42 1.885 4.42 4.68 0 2.798-2.34 5.14-5.136 5.14zm15.824 7.187l-.014-.013c-.1.05-.206.085-.324.085-.164 0-.308-.064-.43-.156l-.008.007-2.703-1.706.016-.015c-.192-.13-.325-.34-.325-.59 0-.277.16-.51.39-.633l-.002-.003c.015-.008.03-.02.046-.028.004-.003.007-.006.012-.008 2.065-1.124 4.26-3.726 4.84-6.046-.26.13-.78.195-1.302.195-2.47 0-4.42-1.884-4.42-4.68 0-2.797 2.34-5.137 5.137-5.137 3.054 0 5.786 2.405 5.786 6.632 0 4.877-2.668 9.233-6.7 12.094zm13.233 0l-.015-.013c-.1.05-.206.085-.324.085-.163 0-.307-.064-.43-.156l-.007.007-2.703-1.706.016-.015c-.192-.13-.325-.34-.325-.59 0-.277.162-.51.39-.633v-.003c.014-.008.03-.02.045-.028.004-.003.007-.006.012-.008 2.065-1.124 4.26-3.726 4.84-6.046-.26.13-.78.195-1.302.195-2.47 0-4.42-1.884-4.42-4.68 0-2.797 2.34-5.137 5.137-5.137 3.055 0 5.787 2.405 5.787 6.632-.002 4.877-2.67 9.233-6.7 12.094z"/></svg>