<svg xmlns="http://www.w3.org/2000/svg" width="100" height="100" viewBox="0 0 100 100"><circle cx="50.041" cy="53.256" r="9.513"/><path d="M86.778 24.2v-.037H70.11V21.37c0-2.055-1.666-3.72-3.72-3.72H33.61c-2.055 0-3.722 1.665-3.722 3.72v2.793H13.22v.037c-2.055 0-3.72 1.666-3.72 3.722v50.67c0 2.055 1.665 3.72 3.72 3.72v.038H86.78v-.037c2.055 0 3.722-1.667 3.722-3.722V27.923c0-2.056-1.667-3.722-3.722-3.722zm-36.53 48.342c-10.652 0-19.287-8.634-19.287-19.286 0-10.65 8.636-19.286 19.287-19.286 10.652 0 19.287 8.635 19.287 19.286 0 10.652-8.635 19.286-19.287 19.286zm35.265-33.397h-14.74v-9.957h14.74v9.957z"/></svg>