<svg xmlns="http://www.w3.org/2000/svg" width="100" height="100" viewBox="0 0 100 100"><path d="M88.466 16.936c-.172-1.703-1.592-3.036-3.34-3.036H14.78v.01c-1.704.046-3.077 1.354-3.246 3.026H11.5v56.342h.068c.305 1.512 1.622 2.65 3.213 2.694v.01h11.566v6.743c0 1.864 1.51 3.374 3.374 3.374 1.166 0 2.193-.592 2.8-1.492l8.627-8.628h43.98c1.634 0 2.995-1.16 3.306-2.703h.067v-56.34h-.034zm-17.492 40.24L58.28 51.17v5.653c0 1.335-1.093 2.426-2.428 2.426H34.374c-1.334 0-2.427-1.09-2.427-2.425V33.39c0-1.335 1.093-2.425 2.427-2.425h21.478c1.334 0 2.428 1.09 2.428 2.425v5.503l12.694-5.948v24.23z"/></svg>