<svg xmlns="http://www.w3.org/2000/svg" width="100" height="100" viewBox="0 0 100 100"><path d="M80.76 17.26h-.018c0-.05.015-.095.015-.145 0-2.893-2.346-5.245-5.24-5.245-.04 0-.077.01-.117.012H60.842V8.478c0-.88-.714-1.593-1.593-1.595v-.008H40.8v.006c-.015 0-.028-.003-.043-.003-.88 0-1.594.713-1.594 1.594l.003.03v3.38H24.48c-2.892 0-5.24 2.353-5.24 5.242 0 .047.012.09.013.137h-.014v70.57h.002c0 .01-.003.02-.003.028 0 2.895 2.35 5.238 5.242 5.238.078 0 .15-.02.23-.023v.02h50.5c.097.006.19.03.29.03 2.893 0 5.238-2.348 5.238-5.238 0-.02-.005-.036-.005-.055h.028V17.26zm-9.938 65.925H29.178V21.81h4.997v3.068c-.002.033-.01.063-.01.097 0 .998.81 1.814 1.814 1.814l.013-.002v.008H64.02c1.005-.002 1.813-.816 1.813-1.813 0-.015-.004-.03-.004-.044v-3.13h4.99v61.375zM39.15 41.12c0-.66-.537-1.196-1.198-1.196-.03 0-.058.015-.088.018v-.018h-2.502c-.66 0-1.2.54-1.2 1.197v2.598c0 .656.538 1.193 1.2 1.193h2.503v-.017c.03.002.056.018.086.018.664 0 1.2-.536 1.2-1.192V41.12zM65.83 41.12c0-.66-.536-1.196-1.197-1.196H45.338c-.66 0-1.2.54-1.2 1.197v2.598c0 .656.538 1.193 1.2 1.193h19.295c.663 0 1.2-.536 1.2-1.192V41.12zM39.15 51.094c0-.658-.537-1.195-1.198-1.195-.03 0-.058.014-.088.017V49.9h-2.502c-.66 0-1.2.538-1.2 1.196V53.694c0 .656.538 1.193 1.2 1.193h2.503v-.018c.03.002.056.018.086.018.664 0 1.2-.537 1.2-1.193V51.095zM65.83 51.094c0-.658-.536-1.195-1.197-1.195H45.338c-.66 0-1.2.538-1.2 1.196V53.694c0 .656.538 1.193 1.2 1.193h19.295c.663 0 1.2-.537 1.2-1.193V51.095zM39.15 61.07c0-.66-.537-1.196-1.198-1.196-.03 0-.058.015-.088.018v-.018h-2.502c-.66 0-1.2.54-1.2 1.197v2.598c0 .656.538 1.193 1.2 1.193h2.503v-.017c.03.002.056.018.086.018.664 0 1.2-.536 1.2-1.192V61.07zM65.83 61.07c0-.66-.536-1.196-1.197-1.196H45.338c-.66 0-1.2.54-1.2 1.197v2.598c0 .656.538 1.193 1.2 1.193h19.295c.663 0 1.2-.536 1.2-1.192V61.07z"/></svg>