<svg xmlns="http://www.w3.org/2000/svg" width="100" height="100" viewBox="0 0 100 100"><g fill="#231F20"><path d="M50 12.5c-20.712 0-37.5 16.793-37.5 37.502C12.5 70.712 29.288 87.5 50 87.5s37.5-16.788 37.5-37.498C87.5 29.292 70.712 12.5 50 12.5zm0 65.06c-15.2 0-27.56-12.362-27.56-27.558C22.44 34.807 34.8 22.44 50 22.44c15.198 0 27.56 12.367 27.56 27.562C77.56 65.198 65.198 77.56 50 77.56zM64.674 32.69L45.13 44.338c-.268.156-.49.38-.647.64L32.69 64.67c-.442.737-.32 1.684.29 2.285l.08.078c.358.354.832.54 1.31.54.328 0 .66-.09.956-.27l19.69-11.788c.262-.16.485-.383.64-.645l11.65-19.545c.436-.73.244-1.738-.35-2.345-.602-.61-1.546-.736-2.282-.29z"/></g></svg>