<svg xmlns="http://www.w3.org/2000/svg" width="100" height="100" viewBox="0 0 100 100"><path d="M80.76 17.26h-.018c0-.05.015-.095.015-.145 0-2.893-2.346-5.245-5.24-5.245-.04 0-.077.01-.117.012H60.842V8.478c0-.88-.714-1.593-1.593-1.595v-.008H40.8v.006c-.015 0-.028-.003-.043-.003-.88 0-1.594.713-1.594 1.594l.003.03v3.38H24.48c-2.892 0-5.24 2.353-5.24 5.242 0 .047.012.09.013.137h-.014v70.57h.002c0 .01-.003.02-.003.028 0 2.895 2.35 5.238 5.242 5.238.078 0 .15-.02.23-.023v.02h50.5c.097.006.19.03.29.03 2.893 0 5.238-2.348 5.238-5.238 0-.02-.005-.036-.005-.055h.028V17.26zm-9.938 65.925H29.178V21.81h4.997v3.068c-.002.033-.01.063-.01.097 0 .998.81 1.814 1.814 1.814l.013-.002v.008H64.02c1.005-.002 1.813-.816 1.813-1.813 0-.015-.004-.03-.004-.044v-3.13h4.99v61.375z"/></svg>