<svg xmlns="http://www.w3.org/2000/svg" width="100" height="100" viewBox="0 0 100 100"><path d="M94.974 17.838c-.127-1.257-1.16-2.24-2.443-2.277v-.006H39.625c-1.315 0-2.384 1.004-2.513 2.284h-.025v13.14h22.342c1.174 0 2.127.895 2.243 2.038h.023v29.232h11.01l6.487 6.487c.456.677 1.23 1.122 2.106 1.122 1.402 0 2.538-1.136 2.538-2.537v-5.072h8.698v-.008c1.197-.033 2.188-.89 2.417-2.027H95V17.838h-.026zM54.44 35.964H7.204v.006c-1.144.03-2.067.91-2.18 2.033H5v37.835h.046c.205 1.015 1.09 1.78 2.158 1.81v.005h7.765v4.53c0 1.25 1.014 2.264 2.265 2.264.783 0 1.474-.398 1.88-1.002l5.792-5.792H54.44c1.096 0 2.01-.78 2.22-1.815h.045V38.003h-.023c-.114-1.144-1.068-2.04-2.242-2.04z"/></svg>