<svg xmlns="http://www.w3.org/2000/svg" width="100" height="100" viewBox="0 0 100 100"><path d="M82.533 29.788h-.006c0-.323-.124-.646-.37-.894l.004-.003-9.763-9.763-.024.024c-.28-.23-.626-.317-.967-.27H35.304c-.073-.007-.143-.023-.218-.023-1.356 0-2.453 1.067-2.523 2.406h-.008v.082c0 .017-.005.032-.005.048s.005.032.005.048V57.948c0 1.4 1.136 2.537 2.537 2.537.047 0 .09-.01.136-.014h9.93c.15.245.335.454.537.638l.11.188v.11h.062l9.71 16.815.024-.013c.99 1.753 2.848 2.936 4.98 2.936 3.172 0 5.743-2.607 5.743-5.825h.058V60.472h13.685v-.018c1.36-.04 2.452-1.145 2.46-2.513h.01V29.787zM27.407 25.873v-.01c0-1.4-1.136-2.535-2.537-2.535-.047 0-.09.01-.137.014h-4.798v.018c-1.36.04-2.452 1.145-2.46 2.513h-.01v27.502h.044c.12 1.257 1.146 2.243 2.425 2.287v.022h4.97c1.4 0 2.537-1.136 2.537-2.537 0-.12-.02-.234-.035-.35V25.873z"/></svg>