<svg xmlns="http://www.w3.org/2000/svg" width="100" height="100" viewBox="0 0 100 100"><path d="M32.948 24.348h-.01c-.058-2.327-1.972-4.133-4.3-4.165v-.006h-15.69v.01c-2.308.058-4.068 1.853-4.12 4.162h-.01v51.2h.008c.043 2.3 1.838 4.088 4.12 4.177v.097h15.69c2.402 0 4.312-1.875 4.312-4.274V24.347zM20.882 74.836c-3.443 0-6.233-2.792-6.233-6.234 0-3.443 2.79-6.234 6.232-6.234 3.444 0 6.235 2.79 6.235 6.234 0 3.443-2.79 6.234-6.235 6.234zm7.078-22.41H13.805V25.164H27.96v27.262zM62.065 24.348h-.01c-.058-2.327-1.972-4.133-4.3-4.165v-.006h-15.69v.01c-2.308.058-4.068 1.853-4.12 4.162h-.01v51.2h.008c.043 2.3 1.838 4.088 4.12 4.177v.097h15.69c2.402 0 4.312-1.875 4.312-4.274V24.347zM50 74.836c-3.444 0-6.234-2.792-6.234-6.234 0-3.443 2.79-6.234 6.233-6.234 3.443 0 6.234 2.79 6.234 6.234 0 3.443-2.79 6.234-6.235 6.234zm7.077-22.41H42.923V25.164h14.155v27.262zM91.182 24.348h-.01c-.058-2.327-1.972-4.133-4.3-4.165v-.006H71.18v.01c-2.308.058-4.068 1.853-4.12 4.162h-.01v51.2h.008c.043 2.3 1.838 4.088 4.12 4.177v.097h15.69c2.402 0 4.312-1.875 4.312-4.274V24.347zM79.117 74.836c-3.443 0-6.233-2.792-6.233-6.234 0-3.443 2.79-6.234 6.233-6.234 3.444 0 6.235 2.79 6.235 6.234 0 3.443-2.792 6.234-6.235 6.234zm7.078-22.41H72.04V25.164h14.155v27.262z"/></svg>