<svg xmlns="http://www.w3.org/2000/svg" width="100" height="100" viewBox="0 0 100 100"><path d="M83.92 23.292c-.09-3.956-3.263-7.145-7.212-7.264v-.01H23.292v.007c-3.974.092-7.174 3.293-7.267 7.267h-.01v53.416h.01c.09 3.974 3.292 7.175 7.267 7.267v.008h53.416v-.01c3.975-.09 7.176-3.29 7.267-7.266h.01V23.292h-.064zM32.99 73.676c-3.885 0-7.034-3.148-7.034-7.034 0-3.885 3.15-7.035 7.034-7.035 3.885 0 7.035 3.15 7.035 7.035 0 3.885-3.15 7.034-7.035 7.034zm0-33.606c-3.885 0-7.034-3.148-7.034-7.034 0-3.885 3.15-7.035 7.034-7.035 3.885 0 7.035 3.15 7.035 7.036 0 3.885-3.15 7.034-7.035 7.034zM50 57.035c-3.885 0-7.034-3.148-7.034-7.034 0-3.884 3.15-7.034 7.034-7.034 3.885 0 7.035 3.15 7.035 7.035 0 3.886-3.15 7.035-7.035 7.035zM67.01 73.98c-3.886 0-7.035-3.15-7.035-7.034 0-3.887 3.15-7.036 7.034-7.036s7.034 3.15 7.034 7.036c0 3.884-3.15 7.033-7.035 7.033zm0-33.91c-3.886 0-7.035-3.148-7.035-7.033 0-3.887 3.15-7.036 7.034-7.036s7.034 3.15 7.034 7.037c0 3.884-3.15 7.033-7.035 7.033z"/></svg>