<svg xmlns="http://www.w3.org/2000/svg" width="100" height="100" viewBox="0 0 100 100"><path d="M84.514 49.615H67.01c-2.134 0-4.026 1.374-4.68 3.406-1.734 5.376-6.69 8.984-12.33 8.984s-10.594-3.608-12.328-8.983c-.656-2.03-2.546-3.405-4.68-3.405H15.485c-2.716 0-4.92 2.2-4.92 4.92v28.053c0 2.714 2.204 4.917 4.92 4.917h69.028c2.72 0 4.92-2.203 4.92-4.917V54.534c0-2.72-2.2-4.92-4.92-4.92zM48.968 52.237c.247.346.65.553 1.076.553h.003c.428 0 .826-.207 1.076-.558L64.727 33.1c.286-.405.32-.933.096-1.375-.225-.442-.682-.716-1.177-.716h-6.4V13.82c0-.734-.592-1.325-1.322-1.325H44.078c-.732 0-1.323.59-1.323 1.326v17.19H36.35c-.494 0-.948.278-1.173.715-.23.442-.19.97.098 1.374l13.693 19.137z"/></svg>