<svg xmlns="http://www.w3.org/2000/svg" width="100" height="100" viewBox="0 0 100 100"><path d="M93.68 30.128h-.044c0-2.135-1.73-3.866-3.865-3.865H10.186c-2.135 0-3.866 1.73-3.866 3.865v39.744c0 2.136 1.73 3.866 3.865 3.866H89.77c2.136 0 3.867-1.73 3.866-3.864h.045V30.127zm-14.976 5.346v-3.43c0-.44.354-.794.793-.794.03 0 .058.014.088.018v-.018h8.27v.006c.012 0 .02-.006.032-.006.438 0 .793.355.793.793v8.417c0 .438-.356.793-.793.793-.01 0-.02-.006-.03-.006v.006h-3.37c-.44 0-.794-.355-.794-.793v-4.194h-4.107v-.018c-.03.003-.057.018-.088.018-.44 0-.794-.354-.794-.792zM21.296 64.526v3.43c0 .44-.354.794-.793.794-.03 0-.058-.014-.088-.018v.017h-8.27v-.007c-.012 0-.02.006-.032.006-.438 0-.793-.356-.793-.794v-8.418c0-.438.356-.793.793-.793.01 0 .02.006.03.006v-.005h3.372c.44 0 .793.355.793.793v4.194h4.107v.018c.03-.003.057-.018.088-.018.44 0 .793.356.793.794zm.014-32.452v3.37c0 .44-.355.794-.793.794h-4.194v4.107h-.018c.003.03.018.057.018.088 0 .438-.355.793-.793.793H12.1c-.438 0-.793-.354-.793-.793 0-.03.014-.058.018-.088h-.017v-8.27h.006c0-.012-.006-.02-.006-.032 0-.438.355-.793.793-.793h8.42c.437 0 .792.355.792.793 0 .01-.006.02-.006.03h.004zM50 68.75c-10.356 0-18.75-8.394-18.75-18.75 0-10.353 8.394-18.75 18.75-18.75S68.75 39.646 68.75 50c0 10.356-8.394 18.75-18.75 18.75zm38.693-9.094v8.27h-.006c0 .012.006.02.006.032 0 .438-.355.793-.793.793h-8.418c-.438 0-.793-.355-.793-.792 0-.01.005-.02.005-.03h-.006v-3.372c0-.438.354-.793.792-.793h4.194v-4.107h.018c-.003-.03-.018-.057-.018-.088 0-.438.355-.793.793-.793h3.43c.438 0 .793.354.793.793 0 .03-.014.058-.018.088h.018zM50 36.22c-7.6 0-13.78 6.184-13.78 13.78 0 2.91.912 5.608 2.457 7.835v-.096c0-.618.322-1.17.812-1.4l5.64-2.626 2.21-1.03c-.998-.602-1.82-1.537-2.373-2.673-.48-.977-.76-2.102-.76-3.31 0-.693.115-1.35.283-1.98.73-2.75 2.906-4.76 5.51-4.76 2.652 0 4.862 2.085 5.55 4.915.14.584.24 1.19.24 1.826 0 1.137-.252 2.198-.678 3.137-.536 1.182-1.355 2.163-2.364 2.8l2.31 1.1 5.462 2.606c.485.234.802.782.802 1.396v.094C62.867 55.607 63.78 52.91 63.78 50c0-7.597-6.18-13.78-13.78-13.78z"/></svg>