<svg xmlns="http://www.w3.org/2000/svg" width="100" height="100" viewBox="0 0 100 100"><path d="M54.284 44.798v-10.11c3.297.807 6.52 2.344 9.157 4.762l.012-.015c.197.157.436.265.708.265.358 0 .665-.173.877-.428l.015.003 4.262-6.008-.01-.005c.175-.202.29-.458.29-.746 0-.34-.152-.638-.386-.85-3.953-3.65-9-5.842-14.924-6.5v-5.807c0-.638-.517-1.154-1.154-1.154h-4.578c-.637 0-1.153.516-1.153 1.153v5.658c-9.89 1.025-15.75 7.326-15.75 14.725 0 9.963 8.204 12.82 15.75 14.652V65.75c-4.846-.87-8.828-3.38-11.537-6.19-.02-.022-.04-.04-.06-.06-.016-.016-.036-.033-.052-.05l-.007.01c-.2-.16-.442-.272-.72-.272-.435 0-.8.25-.997.608l-.014-.002-4.125 6.124.005.01c-.176.202-.292.458-.292.748 0 .367.182.68.448.89l-.01.016c4.028 4.03 9.67 6.96 17.36 7.62v5.44c0 .636.517 1.152 1.154 1.152h4.578c.637 0 1.153-.517 1.153-1.153V75.2c10.77-1.1 16.118-7.398 16.118-15.53 0-10.036-8.497-12.968-16.116-14.872zm-6.886-1.686c-3.003-.95-5.055-2.05-5.055-4.176 0-2.49 1.832-4.248 5.055-4.688v8.864zm6.886 22.784V56.08c3.224 1.025 5.495 2.2 5.495 4.615 0 2.345-1.76 4.468-5.496 5.2z"/></svg>