<svg xmlns="http://www.w3.org/2000/svg" width="100" height="100" viewBox="0 0 100 100"><g fill="#231F20"><path d="M77.74 10.79H4.36c-1.39 0-2.52 1.13-2.52 2.52v73.38c0 1.39 1.13 2.52 2.52 2.52H77.74c1.394 0 2.522-1.128 2.522-2.52V13.31c0-1.392-1.128-2.52-2.52-2.52zM11.863 20.81h58.38v58.38h-58.38V20.81zM97.524 63.966h-2.882V56.23c0-.33-.266-.597-.595-.597h-5.333c-.33 0-.595.266-.595.596v7.735h-2.884c-.223 0-.427.126-.53.324-.102.196-.084.436.046.617l6.164 8.616c.11.156.292.248.483.248.193 0 .373-.093.484-.25l6.125-8.614c.128-.182.145-.42.042-.62-.1-.196-.305-.32-.528-.32zM85.276 36.035h2.882v7.737c0 .33.267.595.596.596h5.333c.33 0 .596-.267.595-.596v-7.737h2.883c.223 0 .427-.125.53-.323s.084-.438-.046-.618l-6.165-8.615c-.112-.158-.292-.25-.483-.25-.194 0-.374.093-.486.25l-6.124 8.615c-.13.18-.146.42-.044.618.1.197.305.322.528.322z"/><circle cx="27.998" cy="31.993" r="4.955"/><path d="M37.38 38.28v-.024H19.628v.017c-1.283 0-2.323 1.036-2.332 2.316h-.002v14.04h.023c0 .534.202 1.07.61 1.477.813.814 2.133.814 2.947 0 .407-.408.61-.943.61-1.478h.004V44.826h.006c.015-.354.302-.638.66-.638.358 0 .646.282.66.637h.007v25.701c.003 1.345 1.092 2.434 2.438 2.434 1.345 0 2.437-1.09 2.437-2.437v-12.94h.018c0-.374.302-.676.675-.676s.675.3.675.674h.017v12.94c0 1.347 1.092 2.438 2.437 2.438 1.346 0 2.437-1.09 2.437-2.437V44.83c0-.37.298-.667.666-.667.367 0 .665.3.665.668V54.63h.023c0 .535.202 1.07.61 1.478.814.814 2.133.814 2.947 0 .408-.408.61-.943.61-1.478h.004V40.59c-.003-1.207-.924-2.19-2.1-2.31z"/><circle cx="53.331" cy="31.993" r="4.955"/><path d="M62.713 38.28v-.024H44.96v.017c-1.282 0-2.322 1.036-2.33 2.316h-.003v14.04h.023c0 .534.202 1.07.61 1.477.813.814 2.133.814 2.947 0 .407-.408.61-.943.61-1.478h.004V44.826h.007c.015-.354.302-.638.66-.638.358 0 .646.282.66.637h.007v25.701c.002 1.345 1.09 2.434 2.437 2.434 1.346 0 2.438-1.09 2.438-2.437v-12.94h.018c0-.374.302-.676.675-.676s.676.3.676.674h.017v12.94c0 1.347 1.092 2.438 2.437 2.438 1.346 0 2.437-1.09 2.437-2.437V44.83c0-.37.298-.667.666-.667.367 0 .665.3.665.668V54.63h.023c0 .535.203 1.07.61 1.478.815.814 2.134.814 2.948 0 .408-.408.61-.943.61-1.478h.004V40.59c-.003-1.207-.923-2.19-2.1-2.31z"/></g></svg>