<svg xmlns="http://www.w3.org/2000/svg" width="100" height="100" viewBox="0 0 100 100"><path d="M77.024 63.084c-.03-.016-.06-.016-.09-.03l.005-.012-7.808-3.746-.002.016c-.532-.238-1.166-.056-1.464.46-.026.045-.028.094-.047.14-2.275 4.303-7.07 7.715-12.506 7.715-6.76 0-12.154-3.46-14.89-8.934h19.603c.025.002.047.015.073.015.637 0 1.153-.516 1.153-1.153v-4.062c0-.622-.494-1.12-1.11-1.145v-.014h-21.65c-.08-.725-.08-1.53-.08-2.334 0-.885 0-1.69.16-2.576h21.513l.015.003s.01-.003.016-.003h.03v-.006c.615-.024 1.11-.523 1.11-1.145V42.21c0-.636-.517-1.152-1.154-1.152-.015 0-.028.008-.044.01H40.305c2.817-5.313 8.21-8.694 14.81-8.694 5.474 0 10.303 3.46 12.557 7.807l.01-.004c.304.5.924.677 1.45.442v.016l7.808-3.746-.005-.012c.03-.014.062-.014.09-.03.523-.302.705-.95.452-1.486l.015-.007c-.013-.023-.028-.046-.04-.07-.003-.003-.003-.008-.006-.012s-.008-.006-.01-.01c-3.794-6.73-10.623-13.03-22.32-13.03-13.12 0-23.745 7.324-27.367 18.836h-4.143c-.015 0-.028-.01-.044-.01-.637 0-1.153.517-1.153 1.154v4.062c0 .637.516 1.153 1.153 1.153l.015-.003h2.964c-.08.887-.08 1.69-.08 2.576 0 .805 0 1.61.08 2.334h-2.978v.005c-.637 0-1.153.516-1.153 1.153v4.062c0 .637.517 1.153 1.154 1.153.026 0 .047-.013.073-.015h4.032c3.54 11.673 14.245 19.08 27.445 19.08 11.68 0 18.505-6.44 22.303-13.078.008-.012.02-.02.028-.032.006-.01.006-.024.012-.035.01-.02.023-.037.034-.056l-.013-.007c.247-.536.065-1.178-.456-1.48z"/></svg>