<svg xmlns="http://www.w3.org/2000/svg" width="100" height="100" viewBox="0 0 100 100"><path d="M15.194 59.995l69.732-.074v-.013c1.316-.073 2.363-1.155 2.36-2.49 0-.72-.31-1.366-.8-1.822L51.833 21.02l-.004.004c-.46-.542-1.136-.892-1.902-.892-.833 0-1.566.414-2.02 1.04L13.448 55.71c-.466.455-.757 1.087-.756 1.79 0 1.38 1.12 2.5 2.502 2.497zM87.308 77.253l-.01-9.803v-.05h-.005c-.03-1.378-1.15-2.486-2.534-2.485v-.006l-69.752.073v.042c-1.286.125-2.295 1.198-2.293 2.516 0 .034.008.064.01.097l.01 9.477c-.006.074-.022.145-.022.22 0 1.322 1.018 2.395 2.31 2.51v.024l69.752-.074c1.4 0 2.535-1.138 2.534-2.54h-.002z"/></svg>