<svg xmlns="http://www.w3.org/2000/svg" width="100" height="100" viewBox="0 0 100 100"><path d="M84.772 23.937c-.21 0-.41.043-.593.118v-.01c-3.37 1.757-7.192 2.765-11.254 2.765-7.52 0-14.244-3.4-18.724-8.747-4.048-3.82-9.5-6.167-15.504-6.167-5.782 0-11.054 2.174-15.052 5.745-.842-1.773-2.635-3.008-4.73-3.008-2.897 0-5.247 2.35-5.247 5.247v62.973c0 2.898 2.35 5.248 5.247 5.248 2.898 0 5.248-2.35 5.248-5.247V54.497c3.302-1.668 7.03-2.614 10.984-2.614 7.53 0 14.26 3.41 18.74 8.767 4.045 3.81 9.492 6.146 15.487 6.146 6.49 0 12.328-2.747 16.45-7.128.31-.285.505-.69.505-1.142v-33.03c0-.86-.7-1.56-1.56-1.56z"/></svg>