<svg xmlns="http://www.w3.org/2000/svg" width="100" height="100" viewBox="0 0 100 100"><path d="M29.365 27.367h6.146v-5.15h28.777v5.258h6.145V18.43h-.002c-.012-1.36-1.115-2.462-2.477-2.466H31.84c-1.375 0-2.488 1.115-2.488 2.488 0 .045.01.086.013.13v8.785zM24.772 84.037h50.436v-51.2H24.772v51.2zm9.985-29.186c0-.407.36-.767.768-.767H45.76V43.85c0-.425.344-.77.768-.77h7.17c.424 0 .768.345.768.77v10.234h10.236c.424 0 .768.344.768.768v7.17c0 .212-.086.404-.225.543-.14.14-.33.225-.543.225H54.466v10.236c0 .204-.08.4-.224.542-.144.144-.34.226-.544.226h-7.17c-.203 0-.398-.08-.542-.225-.144-.145-.225-.34-.225-.544V62.79H35.526c-.204 0-.4-.082-.543-.226-.144-.144-.225-.34-.225-.543v-7.17zM13.835 32.84c-2.207 0-3.998 1.786-3.998 3.995 0 .053.013.102.016.154v42.94c0 .034-.01.066-.01.1 0 2.204 1.79 3.996 3.993 4v.007h5.96v-51.2l-5.96.002zM90.16 80.006V36.814h-.02c-.01-2.195-1.794-3.977-3.994-3.977h-5.96v51.2h5.944v-.004c.012 0 .023.003.035.003 2.208 0 3.998-1.79 3.998-3.998 0-.01-.003-.02-.003-.032z"/></svg>