<svg xmlns="http://www.w3.org/2000/svg" width="100" height="100" viewBox="0 0 100 100"><path d="M90 22.292c0-3.508-2.78-6.36-6.258-6.488v-.012H16.848v.018c-.116-.006-.23-.018-.348-.018-3.59 0-6.5 2.91-6.5 6.5 0 2.045.946 3.867 2.423 5.06l30.14 30.138v18.753h.014c.054 1.204.727 2.236 1.713 2.8l-.01.016 7.873 4.544c.066.046.14.08.208.12l.03.016c.5.29 1.077.468 1.7.468 1.886 0 3.416-1.53 3.415-3.416 0-.09-.02-.175-.026-.263h.025V57.517l30.417-30.416-.03-.03C89.185 25.884 90 24.185 90 22.292zm-57.75 6.5h.013v.015l-.014-.015z"/></svg>