<svg xmlns="http://www.w3.org/2000/svg" width="100" height="100" viewBox="0 0 100 100"><circle cx="28.549" cy="35.885" r="4.342"/><circle cx="65.794" cy="15.531" r="8.767"/><circle cx="47.712" cy="18.329" r="5.469"/><path d="M72.903 74.043c-1.387-2.237-2.202-4.867-2.202-7.693 0-2.464.617-4.782 1.693-6.82l-.034-.05c2.167-3.253 3.435-7.156 3.435-11.357 0-11.326-9.182-20.507-20.507-20.507-11.326 0-20.507 9.18-20.507 20.507 0 2.212.36 4.338 1.01 6.335.436 1.792 1.14 3.475 2.068 5.01l-.096.056 14.854 25.73c1.568 4.64 5.947 7.983 11.115 7.983 6.485 0 11.744-5.256 11.744-11.74 0-2.814-.992-5.395-2.643-7.417l.073-.037z"/><circle cx="36.161" cy="26.693" r="4.342"/></svg>