<svg xmlns="http://www.w3.org/2000/svg" width="100" height="100" viewBox="0 0 100 100"><path d="M69.5 52.14c-1.84 0-3.337 1.494-3.337 3.33v2.922h6.672V55.44c-.018-1.823-1.507-3.3-3.336-3.3zM86.016 24.09H49.313c-1.98-2.37-4.013-4.864-4.54-5.623-.51-1.07-1.608-1.808-2.874-1.808H27.366c-.963 0-1.875.434-2.478 1.184l-5.022 6.247h-5.885c-3.02 0-5.484 2.46-5.484 5.485V77.86c0 3.023 2.462 5.48 5.483 5.48h72.032c3.02 0 5.484-2.457 5.484-5.48V29.574c0-3.025-2.464-5.484-5.484-5.484zM81.543 72.49c0 .497-.4.897-.898.897H58.67c-.496 0-.897-.4-.897-.897v-13.2c0-.495.4-.896.897-.896h2.713v-2.92c0-4.474 3.64-8.115 8.115-8.115 4.476 0 8.116 3.64 8.116 8.114V58.393H80.643c.496 0 .898.4.898.897v13.198z"/></svg>