<svg xmlns="http://www.w3.org/2000/svg" width="100" height="100" viewBox="0 0 100 100"><path d="M86.016 24.09H49.313c-1.98-2.37-4.013-4.864-4.54-5.623-.512-1.07-1.608-1.808-2.876-1.808h-14.53c-.964 0-1.875.434-2.48 1.184l-5.02 6.247h-5.884c-3.02 0-5.484 2.46-5.484 5.485V77.86c0 3.023 2.462 5.48 5.483 5.48h72.032c3.02 0 5.484-2.457 5.484-5.48V29.574c0-3.025-2.464-5.484-5.484-5.484zm-4.473 39.196c0 .182-.074.346-.195.465-.12.12-.283.195-.464.195h-8.78v8.78c0 .174-.07.34-.192.466-.124.123-.29.194-.465.194h-6.15c-.175 0-.342-.07-.466-.193-.123-.124-.19-.29-.19-.465v-8.78h-8.78c-.175 0-.343-.07-.466-.194-.124-.122-.193-.29-.193-.464v-6.15c.002-.35.31-.658.66-.658h8.778v-8.78c0-.363.294-.658.66-.658h6.15c.363 0 .658.294.658.66v8.777h8.78c.364 0 .66.294.66.66l-.003 6.15z"/></svg>