<svg xmlns="http://www.w3.org/2000/svg" width="100" height="100" viewBox="0 0 100 100"><path d="M46.05 60.163H31.923c-.836 0-1.513.677-1.513 1.513V83.61c0 .836.677 1.513 1.513 1.513H46.05c.836 0 1.512-.677 1.512-1.513V61.675c0-.836-.677-1.512-1.512-1.512zM68.077 14.878H53.95c-.836 0-1.513.677-1.513 1.513v67.22c0 .835.677 1.512 1.513 1.512h14.127c.836 0 1.513-.677 1.513-1.513V16.39c0-.835-.677-1.512-1.513-1.512zM90.217 35.3H76.09c-.836 0-1.513.676-1.513 1.512V83.61c0 .835.677 1.512 1.513 1.512h14.126c.836 0 1.513-.677 1.513-1.513V36.81c0-.835-.678-1.513-1.513-1.513zM23.91 35.3H9.783c-.836 0-1.513.676-1.513 1.512V83.61c0 .835.677 1.512 1.513 1.512H23.91c.836 0 1.513-.677 1.513-1.513V36.81c0-.835-.677-1.513-1.513-1.513z"/></svg>