<svg xmlns="http://www.w3.org/2000/svg" width="100" height="100" viewBox="0 0 100 100"><path d="M39.818 24.963L51.575 36.72c.033.035.067.07.102.102l.095.095.01-.01c.35.286.79.465 1.278.465 1.123 0 2.034-.91 2.034-2.035 0-.733-.39-1.37-.973-1.728l-11.7-11.7c-.372-.425-.912-.698-1.522-.698-1.123 0-2.034.91-2.034 2.034 0 .725.382 1.358.954 1.717zM53.06 65.73V40.69h-26.9c-.148 0-.29.037-.433.09L14.76 34.45l-.01.015c-.353-.183-.748-.296-1.174-.296-1.42 0-2.573 1.15-2.573 2.57 0 .91.474 1.705 1.185 2.163l-.02.033 11.113 6.416c-.428 1.868-.684 4.162-.684 6.65 0 5.262 1.133 9.67 2.664 10.937l-6.264 10.85c-.464.595-.75 1.333-.75 2.146 0 1.94 1.57 3.512 3.51 3.512 1.135 0 2.133-.547 2.775-1.382l.06.035 7.328-12.69 7.327 12.69.06-.034c.642.835 1.64 1.382 2.774 1.382 1.94 0 3.51-1.572 3.51-3.512 0-.812-.286-1.55-.75-2.146l-4.732-8.195c2.467.142 5.146.22 7.95.22 1.722 0 3.394-.03 5-.086zM70.685 63.13c1.15-.65 2.112-3.05 2.597-6.305L57.06 40.602v22.686L50.994 73.79c-.464.595-.75 1.333-.75 2.146 0 1.94 1.57 3.512 3.51 3.512 1.135 0 2.133-.547 2.775-1.382l.06.035 7.327-12.69 7.328 12.69.06-.034c.642.835 1.64 1.382 2.774 1.382 1.94 0 3.51-1.572 3.51-3.512 0-.812-.286-1.55-.75-2.146l-6.155-10.66zM88.997 41.676c0-.83-.41-1.56-1.03-2.015l-3.907-3.905V31.69c0-1.528-.88-2.837-2.15-3.49l-5.055-2.918-.014.024c-.424-.252-.897-.426-1.405-.503l-2.454-4.25-5.097 8.83-8.193 8.192 13.92 13.92c-.017-1.063-.07-2.092-.17-3.06l2.745-2.745h9.875v-.027l2.174-2.174-.01-.01c.474-.457.773-1.094.773-1.804z"/></svg>