<svg xmlns="http://www.w3.org/2000/svg" width="100" height="100" viewBox="0 0 100 100"><path d="M85.088 80.27c2.715 0 4.912-2.2 4.912-4.916v-50.71c0-2.716-2.197-4.916-4.912-4.916H14.912c-2.714 0-4.912 2.2-4.912 4.917v50.71c0 2.716 2.197 4.916 4.912 4.916h70.176zm-4.913-9.827h-60.35V29.556h60.35v40.887zM41.564 65.897c-.927 0-1.82-.37-2.48-1.03l-4.897-4.896-5.96 4.933c-1.5 1.242-3.708 1.024-4.942-.466-1.234-1.495-1.026-3.71.466-4.94l8.425-6.97c1.394-1.156 3.434-1.06 4.72.223l4.07 4.075 8.98-13.99c.69-1.07 1.874-1.687 3.18-1.6 1.273.08 2.4.845 2.946 2l5.3 11.207L71.602 36.45c.96-1.688 3.1-2.266 4.787-1.318 1.682.963 2.272 3.102 1.314 4.79l-13.57 23.862c-.647 1.135-1.902 1.82-3.184 1.77-1.31-.047-2.48-.822-3.04-2.01l-5.48-11.59-7.914 12.326c-.573.897-1.52 1.48-2.577 1.597-.125.01-.252.02-.376.02z"/></svg>