<svg xmlns="http://www.w3.org/2000/svg" width="100" height="100" viewBox="0 0 100 100"><path d="M47.484 28.548c-11.263 0-20.424 9.236-20.424 20.586 0 1.848 1.49 3.35 3.32 3.35 1.832 0 3.322-1.502 3.322-3.35 0-7.654 6.182-13.887 13.782-13.887 7.598 0 13.777 6.232 13.777 13.887 0 1.615-.27 3.192-.728 4.52-.872 1.554-2.828 4.862-4.005 6.306-.23.28-.462.55-.694.81-1.647 1.9-3.704 4.262-3.56 9.345.093 3.17.147 6.25-.06 7.3l-.062.354c-.15.876-.337 1.962-4.406 2.104-.887.033-1.71.41-2.315 1.064-.607.648-.923 1.502-.892 2.398.064 1.812 1.522 3.23 3.318 3.23H47.974c6.288-.217 9.894-2.797 10.757-7.844.295-1.482.34-3.547.19-8.807-.07-2.453.55-3.166 1.912-4.732.273-.312.55-.627.824-.965 1.946-2.38 4.73-7.39 4.754-7.432.08-.148.155-.305.223-.475.847-2.293 1.276-4.71 1.276-7.18-.003-11.346-9.165-20.582-20.426-20.582zM52.17 49.685c0 1.537 1.244 2.798 2.774 2.798s2.776-1.26 2.776-2.798c0-5.69-4.594-10.32-10.237-10.32-5.648 0-10.24 4.63-10.24 10.32 0 1.537 1.244 2.798 2.773 2.798 1.53 0 2.776-1.26 2.776-2.798 0-2.604 2.103-4.72 4.69-4.72 2.584 0 4.687 2.116 4.687 4.72zM33.252 59.843L19.534 73.665c-.583.586-.902 1.36-.902 2.193 0 .828.32 1.604.903 2.193.58.585 1.355.91 2.177.91.82 0 1.592-.325 2.175-.91l13.718-13.825c.582-.586.9-1.363.9-2.192 0-.833-.318-1.604-.9-2.188-1.166-1.182-3.194-1.18-4.353-.002zM59.11 22.296c-.016 0-.03.004-.047.005v-.004H57.77v.03c-.63.073-1.124.584-1.14 1.23h-.006v2.302h.03c.074.586.527 1.038 1.114 1.107v.03h1.294v-.022c.016 0 .032.005.048.005 4.775 0 8.656 3.862 8.705 8.617h-.01v1.295h.03c.074.632.587 1.127 1.234 1.14v.005h2.298v-.03c.587-.073 1.038-.526 1.108-1.115h.03v-1.295H72.5c-.047-7.338-6.034-13.3-13.39-13.3zM81.365 35.597c-.05-12.23-10.012-22.164-22.254-22.164-.016 0-.03.004-.047.005v-.005H57.77v.03c-.633.073-1.13.586-1.14 1.236h-.006v2.297h.03c.072.586.526 1.038 1.114 1.107v.03h1.294v-.02c.016 0 .032.004.048.004 9.66 0 17.52 7.832 17.568 17.478h-.01v1.295h.03c.075.632.586 1.125 1.232 1.14v.006h2.302v-.03c.585-.075 1.036-.527 1.105-1.114h.03v-1.295h-.002z"/></svg>