<svg xmlns="http://www.w3.org/2000/svg" width="100" height="100" viewBox="0 0 100 100"><path d="M81.232 15.138H18.77c-1.883 0-3.408 1.525-3.408 3.407v3.143c0 1.88 1.525 3.407 3.407 3.407H81.23c1.88 0 3.407-1.525 3.407-3.407v-3.143c0-1.882-1.527-3.407-3.408-3.407zM81.232 74.905H18.77c-1.883 0-3.408 1.525-3.408 3.407v3.143c0 1.88 1.525 3.407 3.407 3.407H81.23c1.88 0 3.407-1.525 3.407-3.407v-3.143c0-1.88-1.527-3.407-3.408-3.407zM84.64 58.39c0-1.882-1.526-3.407-3.408-3.407h-38.82c-1.882 0-3.407 1.525-3.407 3.407v3.143c0 1.88 1.525 3.406 3.407 3.406h38.82c1.88 0 3.407-1.526 3.407-3.407V58.39zM84.64 38.577c0-1.882-1.526-3.407-3.408-3.407h-38.82c-1.882 0-3.407 1.525-3.407 3.407v3.143c0 1.88 1.525 3.406 3.407 3.406h38.82c1.88 0 3.407-1.525 3.407-3.406v-3.142zM15.93 57.847c.16 0 .302-.066.406-.172L28.763 50.5l-.014-.024c.168-.098.288-.274.288-.484 0-.232-.14-.43-.34-.52l.006-.01-12.376-7.145c-.103-.1-.243-.164-.398-.164-.308 0-.556.247-.565.553h-.003V57.28c0 .313.254.567.568.567z"/></svg>