<svg xmlns="http://www.w3.org/2000/svg" width="100" height="100" viewBox="0 0 100 100"><path d="M81.232 15.138H18.77c-1.883 0-3.408 1.525-3.408 3.407v3.143c0 1.88 1.525 3.407 3.407 3.407H81.23c1.88 0 3.407-1.525 3.407-3.407v-3.143c0-1.882-1.527-3.407-3.408-3.407zM81.232 74.905H18.77c-1.883 0-3.408 1.525-3.408 3.407v3.143c0 1.88 1.525 3.407 3.407 3.407H81.23c1.88 0 3.407-1.525 3.407-3.407v-3.143c0-1.88-1.527-3.407-3.408-3.407zM84.64 58.39c0-1.882-1.526-3.407-3.408-3.407h-38.82c-1.882 0-3.407 1.525-3.407 3.407v3.143c0 1.88 1.525 3.406 3.407 3.406h38.82c1.88 0 3.407-1.526 3.407-3.407V58.39zM84.64 38.577c0-1.882-1.526-3.407-3.408-3.407h-38.82c-1.882 0-3.407 1.525-3.407 3.407v3.143c0 1.88 1.525 3.406 3.407 3.406h38.82c1.88 0 3.407-1.525 3.407-3.406v-3.142zM15.36 50.008c0 .232.14.43.34.52l-.005.01 12.376 7.146c.104.1.244.164.4.164.307 0 .555-.247.564-.553h.003V42.722c0-.314-.255-.57-.57-.57-.158 0-.3.067-.405.173L15.636 49.5l.014.024c-.17.098-.29.274-.29.484z"/></svg>