<svg xmlns="http://www.w3.org/2000/svg" width="100" height="100" viewBox="0 0 100 100"><path d="M93.48 44.925c-.04-.42-.215-.83-.537-1.152-.372-.37-.858-.557-1.344-.557H52.127c-2.6-9.968-11.654-17.354-22.426-17.354C16.907 25.862 6.5 36.27 6.5 49.064c0 12.798 10.407 23.202 23.202 23.202 11.445 0 20.953-8.332 22.84-19.242h8.79v12.518h.014c.072.98.884 1.757 1.886 1.757.026 0 .05-.007.075-.008v.01h6.1V67.3c1.002 0 1.814-.776 1.886-1.758h.016V53.024h4.978V72.378h.015c.075.982.885 1.758 1.887 1.76l.02-.002h6.113l.02.002c1.002-.002 1.813-.778 1.888-1.76h.016V53.024H91.6v-.002c.487 0 .973-.186 1.345-.558.37-.372.555-.857.556-1.343v-6.196h-.02zM29.703 62.532c-7.338 0-13.308-5.974-13.308-13.31 0-7.34 5.97-13.312 13.308-13.312 7.337 0 13.304 5.973 13.304 13.31 0 7.34-5.967 13.312-13.304 13.312z"/></svg>