<svg xmlns="http://www.w3.org/2000/svg" width="100" height="100" viewBox="0 0 100 100"><path d="M17.563 30.277h.012c0 1.245 1.004 2.254 2.246 2.267v.002h60.36c1.248-.007 2.26-1.02 2.26-2.27h.01V19.82c-.003-1.25-1.018-2.265-2.27-2.265H19.82c-1.252 0-2.268 1.017-2.268 2.27 0 .038.01.075.012.114v10.34zM80.18 42.504H19.82c-1.252 0-2.268 1.017-2.268 2.27 0 .038.01.075.012.114v10.34h.012c0 1.245 1.004 2.254 2.246 2.267v.002h60.36c1.247-.007 2.258-1.02 2.258-2.27h.01V44.77c-.004-1.252-1.02-2.266-2.27-2.266zM80.18 67.454H19.82c-1.252 0-2.268 1.017-2.268 2.27 0 .038.01.075.012.114v10.34h.012c0 1.245 1.004 2.254 2.246 2.267v.002h60.36c1.247-.007 2.258-1.02 2.258-2.27h.01v-10.46c-.004-1.25-1.02-2.263-2.27-2.263z"/></svg>