<svg xmlns="http://www.w3.org/2000/svg" width="100" height="100" viewBox="0 0 100 100"><path d="M14.427 22.495v7.747H16.7V19.566h-1.985l-3.36 3.377 1.295 1.36zM12.828 46.423c.88 0 1.73.448 1.73 1.393 0 1.312-1.28 2.4-5.65 5.634v1.793h8.034v-2h-4.354c2.77-2.018 4.274-3.602 4.274-5.427 0-2.13-1.792-3.41-4.082-3.41-1.49 0-3.073.544-4.114 1.745l1.296 1.506c.72-.753 1.65-1.233 2.866-1.233zM14.604 74.736c1.184-.208 2.337-1.088 2.337-2.433 0-1.776-1.536-2.897-4.033-2.897-1.873 0-3.217.72-4.082 1.697l1.136 1.424c.753-.72 1.682-1.104 2.722-1.104 1.104 0 1.985.416 1.985 1.264 0 .785-.8 1.137-1.985 1.137-.4 0-1.137 0-1.33-.016v2.05c.16-.017.88-.033 1.33-.033 1.49 0 2.145.384 2.145 1.233 0 .8-.72 1.36-2.017 1.36-1.04 0-2.21-.448-2.93-1.216l-1.2 1.52c.785.96 2.258 1.713 4.21 1.713 2.56 0 4.21-1.296 4.21-3.137.002-1.602-1.407-2.45-2.496-2.562zM87.926 19.89H25.462c-1.882 0-3.407 1.524-3.407 3.406v3.143c0 1.88 1.525 3.406 3.407 3.406h62.463c1.88 0 3.407-1.525 3.407-3.407v-3.144c0-1.88-1.525-3.407-3.406-3.407zM87.926 44.78H25.462c-1.882 0-3.407 1.526-3.407 3.408v3.143c0 1.882 1.525 3.408 3.407 3.408h62.463c1.88 0 3.407-1.525 3.407-3.407V48.19c0-1.882-1.525-3.407-3.406-3.407zM87.926 69.673H25.462c-1.882 0-3.407 1.525-3.407 3.407v3.143c0 1.88 1.525 3.407 3.407 3.407h62.463c1.88 0 3.407-1.525 3.407-3.407V73.08c0-1.882-1.525-3.407-3.406-3.407z"/></svg>