<svg xmlns="http://www.w3.org/2000/svg" width="100" height="100" viewBox="0 0 100 100"><path d="M83.73 23.57c-.008-.562-.32-1.084-.826-1.337-.503-.26-1.107-.212-1.568.114l-5.944 4.262-.468.335c-6.405-6.39-15.196-10.39-24.938-10.39-13.284 0-24.878 7.355-30.94 18.202l.023.013c-.55 1.183-.125 2.607 1.025 3.27l.002.002 8.136 4.697c1.218.703 2.777.286 3.48-.933.006-.01.01-.023.015-.034 3.59-6.404 10.438-10.747 18.29-10.747 4.878 0 9.35 1.696 12.913 4.5l-1 .72-5.948 4.26c-.455.328-.696.89-.61 1.448.08.558.47 1.028 1.007 1.208l25.446 8.67c.46.16.966.083 1.367-.204.4-.29.63-.746.627-1.23l-.09-26.828zM79.904 61.958h-.002l-8.136-4.698c-1.218-.704-2.777-.287-3.48.932-.006.01-.01.023-.015.034-3.59 6.404-10.437 10.747-18.288 10.747-4.88 0-9.352-1.696-12.914-4.5l1-.72 5.95-4.26c.454-.328.695-.89.61-1.448-.08-.558-.47-1.028-1.008-1.208l-25.447-8.67c-.46-.16-.966-.083-1.367.204-.4.29-.63.747-.627 1.23l.09 26.83c.008.56.32 1.083.826 1.336.503.26 1.107.212 1.568-.114l5.944-4.262.468-.336c6.405 6.39 15.196 10.39 24.938 10.39 13.284 0 24.878-7.355 30.94-18.202l-.024-.012c.548-1.184.125-2.607-1.026-3.272z"/></svg>