<svg xmlns="http://www.w3.org/2000/svg" width="100" height="100" viewBox="0 0 100 100"><path d="M80.182 67.457h-35.41c-1.252 0-2.268 1.016-2.268 2.268 0 .042.01.08.012.12V80.18h.01c0 1.248 1.01 2.26 2.255 2.268h35.4c1.247-.01 2.255-1.02 2.255-2.27V69.826c.002-.034.01-.067.01-.1 0-1.25-1.012-2.265-2.263-2.268zM30.278 67.454H19.823c-1.254 0-2.27 1.017-2.27 2.27v10.453c0 1.253 1.016 2.27 2.268 2.27H30.277c1.253 0 2.27-1.017 2.27-2.27V69.723c0-1.252-1.015-2.27-2.268-2.27zM80.182 42.467h-35.41c-1.252 0-2.268 1.016-2.268 2.268 0 .042.01.08.012.12V55.19h.01c0 1.248 1.01 2.26 2.255 2.268h35.4c1.247-.01 2.255-1.02 2.255-2.27V44.836c.002-.034.01-.067.01-.1 0-1.25-1.012-2.265-2.263-2.268zM30.278 42.464H19.823c-1.254 0-2.27 1.017-2.27 2.27v10.453c0 1.253 1.016 2.27 2.268 2.27H30.277c1.253 0 2.27-1.017 2.27-2.27V44.733c0-1.252-1.015-2.27-2.268-2.27zM42.516 30.276h.01c0 1.248 1.01 2.26 2.255 2.268h35.4c1.247-.01 2.255-1.02 2.255-2.27V19.922c.002-.033.01-.066.01-.1 0-1.25-1.013-2.265-2.264-2.268H44.773c-1.253 0-2.27 1.016-2.27 2.268 0 .042.01.08.013.12v10.336zM30.278 17.55H19.823c-1.254 0-2.27 1.018-2.27 2.27v10.454c0 1.253 1.016 2.27 2.268 2.27H30.277c1.253 0 2.27-1.017 2.27-2.27V19.82c0-1.253-1.015-2.27-2.268-2.27z"/></svg>