<svg xmlns="http://www.w3.org/2000/svg" width="100" height="100" viewBox="0 0 100 100"><path d="M88.72 20.13H26.26c-1.882 0-3.407 1.525-3.407 3.407v3.143c0 1.88 1.526 3.407 3.408 3.407H88.72c1.882 0 3.408-1.525 3.408-3.407v-3.143c0-1.882-1.526-3.407-3.407-3.407zM88.72 45.022H26.26c-1.882 0-3.407 1.525-3.407 3.407v3.142c0 1.88 1.526 3.407 3.408 3.407H88.72c1.882 0 3.408-1.526 3.408-3.408V48.43c0-1.883-1.526-3.408-3.407-3.408zM88.72 69.913H26.26c-1.882 0-3.407 1.525-3.407 3.407v3.143c0 1.88 1.526 3.407 3.408 3.407H88.72c1.882 0 3.408-1.525 3.408-3.407V73.32c0-1.88-1.526-3.407-3.407-3.407z"/><circle cx="12.856" cy="25.108" r="4.984"/><circle cx="12.856" cy="49.002" r="4.984"/><circle cx="12.856" cy="74.891" r="4.984"/></svg>