<svg xmlns="http://www.w3.org/2000/svg" width="100" height="100" viewBox="0 0 100 100"><path d="M82.488 74.334c0-.12-.02-.234-.035-.35V47.05c0-1.4-1.136-2.535-2.537-2.535-.047 0-.09.01-.136.014h-4.8v.017c-1.36.04-2.45 1.145-2.46 2.513h-.008v27.502h.043c.12 1.257 1.147 2.243 2.426 2.287v.02h4.972c1.4 0 2.536-1.135 2.536-2.536zM67.49 78.554V42.053c0-1.4-1.135-2.536-2.536-2.536-.046 0-.09.01-.136.014h-9.932c-.15-.244-.334-.453-.536-.637l-9.88-17.115-.025.015c-.99-1.753-2.848-2.936-4.98-2.936-3.17 0-5.742 2.608-5.742 5.825h-.058v14.846H19.98v.017c-1.36.04-2.45 1.145-2.46 2.513h-.008v28.152h.006c0 .323.124.646.368.894l-.003.003 9.764 9.763.024-.024c.282.23.627.317.968.27H64.74c.074.007.144.023.218.023 1.355 0 2.454-1.066 2.523-2.405h.01v-.078c0-.018.004-.035.004-.053s-.003-.035-.004-.053zm-46.985-8.342l.042.047-.047-.048h.005z"/></svg>