<svg xmlns="http://www.w3.org/2000/svg" width="100" height="100" viewBox="0 0 100 100"><g fill="#231F20"><path d="M75.46 49.16h.003V34.787c0-2.088-1.693-3.78-3.782-3.78-2.087 0-3.782 1.692-3.782 3.78v14.256c0 9.885-8.013 17.897-17.898 17.897s-17.898-8.013-17.898-17.897V34.787c0-2.088-1.693-3.78-3.782-3.78-2.088 0-3.783 1.692-3.783 3.78V49.16h.003c.058 12.724 9.447 23.243 21.678 25.065v5.438h-13.38v.003c-2.073.018-3.75 1.7-3.75 3.78 0 2.077 1.677 3.76 3.75 3.778v.003h34.29c2.09 0 3.783-1.693 3.783-3.782 0-2.09-1.692-3.782-3.78-3.782H53.78v-5.438c12.23-1.822 21.62-12.34 21.678-25.065zM37.186 48.94c0 7.09 5.745 12.834 12.833 12.834 7.086 0 12.83-5.746 12.83-12.833 0-.095-.012-.187-.014-.282h.053V25.322h-.054c-.153-6.955-5.826-12.55-12.817-12.55-6.993 0-12.667 5.595-12.82 12.55h-.052v23.336h.052c0 .095-.014.187-.014.283z"/></g></svg>