<svg xmlns="http://www.w3.org/2000/svg" width="100" height="100" viewBox="0 0 100 100"><path d="M27.328 28.507c-8.252 0-14.94 6.69-14.94 14.94s6.688 14.942 14.94 14.942c1.357 0 2.472-.998 2.676-2.297h.043V31.227c0-1.5-1.218-2.72-2.72-2.72zM87.614 16.314c0-1.5-1.217-2.72-2.72-2.72-.622 0-1.19.22-1.647.57L59.32 27.98H37.754c-1.502 0-2.72 1.216-2.72 2.718v25.81h.035c.167 1.34 1.298 2.382 2.685 2.382H56.89l26.16 15.103c.486.45 1.13.73 1.845.73 1.5 0 2.72-1.217 2.72-2.718 0-.103-.02-.2-.03-.3h.03V16.47h-.017c.003-.053.016-.103.016-.158zM56.212 79.572l-.038-.066c-.013-.024-.02-.05-.033-.073s-.03-.042-.045-.064L47.79 64.985l-.03.018c-.455-.624-1.13-1.006-1.858-1.096v-.03H38.68v.018c-.388.032-.775.14-1.135.347-1.3.75-1.746 2.414-.995 3.714.064.11.142.206.22.303l-.033.02 9.678 16.763c0 .002 0 .003.002.005 0 .002.002.003.003.004l.097.168.017-.01c.794 1.165 2.356 1.55 3.596.832.145-.084.276-.183.4-.287l.024.043 4.983-2.876-.023-.04c.965-.797 1.264-2.165.69-3.306l.008-.004z"/></svg>