<svg xmlns="http://www.w3.org/2000/svg" width="100" height="100" viewBox="0 0 100 100"><g fill="#231F20"><circle cx="22.336" cy="19.721" r="8.272"/><path d="M38 30.217v-.04H8.362v.027c-2.142 0-3.878 1.73-3.894 3.867h-.004v23.44h.04c-.003.893.336 1.786 1.017 2.467 1.358 1.36 3.56 1.36 4.92 0 .68-.68 1.018-1.574 1.016-2.467h.007V41.148h.01c.024-.592.504-1.064 1.1-1.064.598 0 1.078.473 1.103 1.064h.01v42.905c.002 2.245 1.82 4.063 4.067 4.063 2.246 0 4.068-1.82 4.068-4.068V62.444h.03c0-.623.504-1.128 1.126-1.128.623 0 1.128.505 1.128 1.128h.03v21.604c0 2.247 1.822 4.068 4.068 4.068 2.247 0 4.068-1.82 4.068-4.068V41.148c0-.615.497-1.112 1.112-1.112.613 0 1.11.497 1.11 1.112V57.51h.038c-.002.894.337 1.787 1.018 2.468 1.36 1.36 3.56 1.36 4.92 0 .68-.68 1.02-1.574 1.018-2.467h.007V34.073c.002-2.015-1.535-3.654-3.498-3.855z"/><circle cx="72.297" cy="19.768" r="8.32"/><path d="M95.534 54.16l-5.55-20.71c-.003-.017-.01-.033-.013-.05l-.097-.364-.014.004c-.507-1.58-1.97-2.73-3.716-2.73-.014 0-.026.005-.04.005v-.072h-26.12v.068c-1.747 0-3.21 1.152-3.715 2.73l-.015-.004-.098.364c-.004.017-.01.033-.013.05l-5.55 20.71.052.015c-.025.17-.052.342-.052.52 0 1.952 1.583 3.536 3.536 3.536 1.495 0 2.767-.93 3.283-2.243l.025.007 4.07-15.193v.058h.033c.112-.5.537-.882 1.07-.882.535 0 .96.382 1.07.882h.034v.164c.002.025.015.047.015.072 0 .025-.014.047-.016.072v.155l-6.518 24.327c-.105.214-.17.45-.187.698l-.015.05.008.003c0 .028-.008.054-.008.082 0 1.048.85 1.897 1.898 1.897h4.82v16.08c0 2.26 1.83 4.09 4.09 4.09s4.092-1.832 4.092-4.09v-16.08h2.326v16.08c0 2.26 1.833 4.09 4.092 4.09 2.26 0 4.09-1.832 4.09-4.09v-16.08h4.836c1.048 0 1.898-.85 1.898-1.897 0-.028-.007-.055-.008-.082l.008-.002-.014-.05c-.018-.25-.082-.485-.187-.7l-6.5-24.252.022-.006c-.027-.096-.06-.19-.06-.296 0-.616.5-1.118 1.118-1.118.525 0 .946.37 1.065.86l.043-.01 4.065 15.168.024-.007c.517 1.312 1.788 2.244 3.283 2.244 1.953 0 3.536-1.585 3.536-3.537 0-.178-.026-.35-.05-.52l.054-.012z"/></g></svg>