<svg xmlns="http://www.w3.org/2000/svg" width="100" height="100" viewBox="0 0 100 100"><path fill="#231F20" d="M67.44 44.796H32.56c-.508 0-.92.41-.92.918v8.572c0 .507.412.918.92.918H67.44c.507 0 .918-.41.918-.918v-8.572c0-.507-.412-.918-.92-.918zM50 22.44c15.196 0 27.56 12.366 27.56 27.562C77.56 65.2 65.196 77.56 50 77.56S22.44 65.2 22.44 50.002C22.44 34.806 34.804 22.44 50 22.44m0-9.94c-20.71 0-37.5 16.793-37.5 37.502C12.5 70.712 29.29 87.5 50 87.5s37.5-16.788 37.5-37.498C87.5 29.292 70.71 12.5 50 12.5z"/></svg>