<svg xmlns="http://www.w3.org/2000/svg" width="100" height="100" viewBox="0 0 100 100"><path d="M50 10.417c-15.58 0-28.2 12.627-28.2 28.2 0 6.328 2.082 12.17 5.6 16.874l18.09 31.333c.105.202.21.403.34.588l.04.07.01-.006c.924 1.278 2.41 2.11 4.135 2.11 1.556 0 2.912-.707 3.845-1.798l.047.027.18-.31c.263-.356.497-.736.666-1.155L72.475 55.65c3.592-4.733 5.726-10.632 5.726-17.032 0-15.574-12.62-28.2-28.2-28.2zm-.28 42.498c-7.676 0-13.894-6.22-13.894-13.895 0-7.673 6.218-13.895 13.895-13.895s13.896 6.222 13.896 13.895c0 7.673-6.218 13.895-13.895 13.895z"/></svg>