<svg xmlns="http://www.w3.org/2000/svg" width="100" height="100" viewBox="0 0 100 100"><path fill="#231F20" d="M95.294 78.127l.026-.015L62.074 20.53l-.014.008c-.732-1.502-2.26-2.547-4.044-2.547-1.83 0-3.4 1.097-4.107 2.665l-22.126 38.32-5.417-9.382-.007.004c-.386-.792-1.19-1.344-2.133-1.344-.964 0-1.79.578-2.164 1.402L6.27 77.01H6.2v.12l-1.53 2.65c-.176.23-.284.517-.284.83 0 .765.62 1.384 1.382 1.384.152 0 .295-.03.432-.076v.09h87v-.05c1.35-.107 2.413-1.223 2.413-2.6 0-.448-.122-.862-.32-1.23z"/></svg>