<svg xmlns="http://www.w3.org/2000/svg" width="100" height="100" viewBox="0 0 100 100"><g fill="#231F20"><circle cx="49.354" cy="19.938" r="8.272"/><path d="M65.016 30.435v-.04H35.38v.027c-2.142 0-3.878 1.73-3.894 3.867h-.003v23.438h.04c-.003.893.336 1.786 1.017 2.467 1.358 1.36 3.56 1.36 4.92 0 .68-.68 1.018-1.574 1.016-2.467h.008V41.365h.01c.024-.592.504-1.064 1.1-1.064.598 0 1.078.474 1.103 1.065h.01V84.27c.002 2.245 1.82 4.063 4.067 4.063 2.246 0 4.068-1.82 4.068-4.068V62.66h.03c0-.622.504-1.127 1.126-1.127.622 0 1.127.505 1.127 1.128h.03v21.605c0 2.247 1.822 4.068 4.068 4.068 2.247 0 4.068-1.82 4.068-4.068V41.367c0-.615.498-1.112 1.113-1.112.613 0 1.11.497 1.11 1.112V57.728h.038c0 .894.338 1.787 1.02 2.468 1.358 1.36 3.56 1.36 4.92 0 .68-.68 1.02-1.574 1.017-2.467h.007V34.29c.002-2.016-1.535-3.654-3.498-3.855z"/></g></svg>