<svg xmlns="http://www.w3.org/2000/svg" width="100" height="100" viewBox="0 0 100 100"><path fill="#231F20" d="M69.328 29.884h-38.76v.01c-1.332.056-2.397 1.144-2.397 2.49V92.35c0 1.346 1.066 2.434 2.397 2.49v.01h38.76c1.38 0 2.5-1.118 2.5-2.5V32.385c0-1.38-1.118-2.5-2.5-2.5zm-19.27 62.384c-1.352 0-2.45-1.097-2.45-2.45 0-1.354 1.098-2.45 2.45-2.45s2.45 1.096 2.45 2.45c0 1.352-1.096 2.45-2.45 2.45zm11.814-7.396H38.128V39.84H61.87v45.032z"/><path d="M69.603 15.696c.428-.55.426-1.303-.006-1.85l.024-.024-.998-1-.08-.078-.003.004C58.3 2.594 41.713 2.616 31.506 12.82c-.015.016-.02.037-.034.052l-.008-.008-.955.955h-.003l-.002.004-.118.12.024.023c-.463.588-.448 1.427.08 1.98l-.003.003 1.918 1.918.026-.026c.55.428 1.304.427 1.85-.006l.026.024 1.08-1.078-.023-.022c.015-.015.036-.02.05-.034 8.054-8.052 21.136-8.074 29.222-.075l-.01.01.957.957.12.122.025-.025c.59.464 1.427.45 1.98-.08l.003.005.02-.02h.002v-.002L69.5 15.85l.128-.128-.025-.026zM62.208 21.235l.024-.024-1.08-1.078-.003.004c-6.166-6.078-16.12-6.054-22.252.076-.015.015-.02.035-.033.05l-.01-.008-1.078 1.08.024.023c-.464.59-.45 1.427.08 1.98l-.004.003 1.918 1.918.026-.026c.55.428 1.303.427 1.85-.006l.025.025 1.08-1.077-.023-.022c.015-.014.036-.018.05-.033 3.978-3.977 10.426-3.995 14.437-.072l-.006.005.957.957h.002l.12.12.025-.024c.588.464 1.427.45 1.98-.08l.003.005.02-.02 1.898-1.898-.026-.026c.43-.548.428-1.302-.004-1.85z"/></svg>