<svg xmlns="http://www.w3.org/2000/svg" width="100" height="100" viewBox="0 0 100 100"><g fill="#231F20"><path d="M85.944 20.19H14.056c-1.41 0-2.556 1.146-2.556 2.556v5.144c0 .237.257.51.467.62L49.753 50.09c.098.057.208.083.318.083.113 0 .226-.03.325-.088L87.04 28.53c.205-.115.75-.42.956-.56.248-.168.504-.32.504-.624v-4.6c0-1.41-1.146-2.557-2.556-2.557zM88.18 35.646c-.2-.116-.443-.11-.644.004L66.8 47.85c-.167.097-.282.267-.31.46-.025.19.035.385.164.526l20.74 22.357c.123.133.29.204.467.204.08 0 .16-.015.235-.043.245-.097.405-.332.405-.596V36.2c0-.23-.12-.44-.32-.554zM60.823 51.948c-.204-.22-.532-.27-.79-.118l-8.313 4.89c-.976.575-2.226.58-3.208.022l-7.315-4.18c-.242-.136-.547-.103-.75.087l-27.78 25.765c-.147.138-.22.337-.2.538.023.2.14.38.315.482.432.254.85.375 1.273.375h71.153c.255 0 .485-.15.585-.385.102-.232.056-.503-.118-.69L60.823 51.95zM34.334 49.6c.15-.136.225-.338.203-.54-.022-.2-.142-.38-.318-.482L12.452 36.146c-.194-.112-.44-.11-.637.004-.196.114-.316.325-.316.552v32.62c0 .253.15.483.382.584.082.037.17.055.257.055.156 0 .313-.058.433-.17l21.76-20.19z"/></g></svg>