<svg xmlns="http://www.w3.org/2000/svg" width="100" height="100" viewBox="0 0 100 100"><path d="M56.774 10.39c-17.68 0-32 14.33-32 32 0 6.045 1.675 11.696 4.587 16.518L13.847 74.423l.054.054c-1.656 1.585-2.673 3.835-2.673 6.378 0 4.913 3.913 8.755 8.82 8.754 2.508-.002 4.75-1.005 6.35-2.637l.04.04 16.007-16.01c4.312 2.163 9.176 3.388 14.33 3.388 17.68 0 32-14.326 32-32 0-17.67-14.32-32-32-32zm.194 51.418c-11.05 0-20-8.954-20-20 0-11.044 8.95-20 20-20s20 8.955 20 20c0 11.046-8.95 20-20 20z"/></svg>