<svg xmlns="http://www.w3.org/2000/svg" width="100" height="100" viewBox="0 0 100 100"><path fill="#231F20" d="M50 12.5c-20.712 0-37.5 16.793-37.5 37.502C12.5 70.712 29.288 87.5 50 87.5s37.5-16.788 37.5-37.498C87.5 29.292 70.712 12.5 50 12.5zm0 65.06c-15.2 0-27.56-12.36-27.56-27.558 0-6.702 2.407-12.852 6.4-17.636L41.643 45.17H36.81v.008c-.063.005-.124.02-.185.042l-6.043-3.49-.005.01c-.195-.102-.413-.165-.648-.165-.783 0-1.418.635-1.418 1.418 0 .5.26.94.652 1.19l-.01.02 6.124 3.534c-.237 1.03-.378 2.294-.378 3.667 0 2.898.625 5.328 1.47 6.025l-3.455 5.98c-.255.327-.413.733-.413 1.18 0 1.07.866 1.936 1.935 1.936.626 0 1.176-.302 1.53-.762l.03.018 4.038-6.992 4.037 6.992.032-.02c.354.462.904.764 1.53.764 1.07 0 1.936-.866 1.936-1.935 0-.447-.16-.854-.415-1.183l-2.61-4.518c1.362.077 2.836.122 4.384.122 1.487 0 2.905-.042 4.222-.114l-2.604 4.51c-.256.327-.414.734-.414 1.182 0 1.07.866 1.935 1.935 1.935.625 0 1.175-.302 1.53-.763l.03.02 3.158-5.468 4.167 4.167.75 1.3.032-.017c.296.386.73.654 1.232.732l4.664 4.665c-4.782 3.993-10.93 6.4-17.634 6.4zm21.16-9.925l-9.304-9.305-.46-.795c.92-.518 1.62-3.062 1.62-6.13 0-.688-.036-1.348-.1-1.966l1.514-1.516h5.44v-.015l1.198-1.197-.006-.005c.262-.25.427-.602.427-.993 0-.458-.227-.862-.572-1.113l-2.15-2.15v-2.24c0-.84-.484-1.562-1.182-1.922l-2.79-1.61-.006.013c-.038-.023-.078-.044-.118-.064l-1.906-3.302-3.41 5.91h.198l-5.933 5.933h-4.925l-16.33-16.33c4.782-3.992 10.93-6.4 17.634-6.4 15.197 0 27.56 12.368 27.56 27.563 0 6.7-2.407 12.85-6.4 17.632z"/></svg>