<svg xmlns="http://www.w3.org/2000/svg" width="100" height="100" viewBox="0 0 100 100"><path d="M88.765 77.29V22.328h-.024c-.122-1.286-1.193-2.296-2.512-2.296-.03 0-.058.008-.087.01h-4.568c-.07-.007-.14-.022-.213-.022-1.4 0-2.538 1.136-2.538 2.537 0 .117.02.23.035.343v23.14l-33.34-19.25c-.31-.306-.737-.496-1.208-.496-.933 0-1.687.743-1.714 1.67h-.006V43.21L14.148 26.788c-.31-.307-.736-.497-1.207-.497-.93 0-1.686.744-1.712 1.67h-.005v44.03c0 .95.77 1.72 1.718 1.72.484 0 .92-.2 1.23-.522L42.59 56.78v15.212c0 .95.77 1.718 1.718 1.718.483 0 .918-.2 1.23-.52l33.32-19.238v23.382h.012c-.002.04-.012.075-.012.114 0 1.4 1.134 2.533 2.532 2.536h4.852v-.024c1.4 0 2.537-1.136 2.537-2.537-.002-.046-.013-.088-.015-.132z"/></svg>