<svg xmlns="http://www.w3.org/2000/svg" width="100" height="100" viewBox="0 0 100 100"><g fill="#231F20"><path d="M65.55 45.894h-.672c-.63 0-1.14.51-1.14 1.14v6.086h.03c.078.553.534.986 1.11.986h.672c.575 0 1.03-.433 1.11-.987h.03v-6.087c0-.63-.51-1.14-1.14-1.14zM69.79 45.894h-.671c-.63 0-1.14.51-1.14 1.14h-.002v6.086h.032c.077.553.533.986 1.108.986h.673c.576 0 1.033-.433 1.11-.987h.03v-6.087c0-.63-.51-1.14-1.14-1.14zM50 12.5c-20.712 0-37.5 16.793-37.5 37.502C12.5 70.712 29.288 87.5 50 87.5s37.5-16.788 37.5-37.498C87.5 29.292 70.712 12.5 50 12.5zm0 65.06c-15.2 0-27.56-12.36-27.56-27.558 0-6.702 2.407-12.853 6.4-17.636l13.53 13.53H30.22l-.01-.002c-.63 0-1.14.51-1.14 1.14l.002.003h-.002v5.93c0 .63.51 1.14 1.14 1.14h20.37l17.055 17.055c-4.783 3.99-10.932 6.4-17.635 6.4zm21.16-9.925l-13.527-13.53h3.463c.63 0 1.14-.51 1.14-1.14V47.033c0-.63-.51-1.14-1.14-1.14H49.422L32.366 28.84c4.782-3.993 10.93-6.4 17.634-6.4 15.198 0 27.56 12.366 27.56 27.56 0 6.704-2.407 12.853-6.4 17.635z"/></g></svg>