<svg xmlns="http://www.w3.org/2000/svg" width="100" height="100" viewBox="0 0 100 100"><path d="M67.04 78.553h-6.49c-.955 0-1.73.774-1.73 1.73h-.006v3.01h-40.64V36.16h17.722c.956 0 1.73-.774 1.73-1.73V16.707h21.188v12.34h.016c.047.913.796 1.64 1.72 1.64h6.49c.926 0 1.675-.727 1.722-1.64h.01V12.498h-.006V8.48c0-.956-.774-1.73-1.73-1.73h-32.87L8.215 32.7V91.52c0 .955.774 1.73 1.73 1.73h57.089c.956 0 1.73-.775 1.73-1.73v-2.45h.005v-8.788c0-.954-.773-1.73-1.73-1.73zM91.277 39.04l-11.62-11.62c-.677-.677-1.772-.677-2.448 0L45.403 59.223l.07.07-.11-.03-4.35 16.237.002.002c-.2.6-.066 1.287.412 1.765.528.528 1.31.638 1.948.34l.002.007 16.08-4.31-.01-.036.023.024 31.807-31.806c.676-.675.676-1.77 0-2.446zM46.305 72.353l2.584-9.643 7.058 7.06-9.643 2.583z"/></svg>