<svg xmlns="http://www.w3.org/2000/svg" width="100" height="100" viewBox="0 0 100 100"><path d="M41.13 61.862h-4.926v9.23H39v-2.905h2.13c2.16 0 3.322-1.44 3.322-3.156 0-1.73-1.162-3.168-3.32-3.168zm-.36 3.89H39v-1.454h1.77c.472 0 .845.235.845.733 0 .486-.373.72-.844.72zM50.032 61.862h-4.124v9.23h4.138c2.893 0 5.052-1.674 5.052-4.622s-2.16-4.608-5.066-4.608zm0 6.796h-1.33v-4.36h1.343c1.495 0 2.214.927 2.214 2.173 0 1.163-.83 2.188-2.228 2.188zM56.792 71.093h2.796v-3.446h4.11V65.21h-4.11V64.3h4.207v-2.436h-7.003zM80.277 12.5h-.005V8.48c0-.956-.774-1.73-1.73-1.73h-32.87L19.722 32.7V91.52c0 .955.774 1.73 1.73 1.73h57.09c.956 0 1.73-.775 1.73-1.73v-2.45h.005V12.5zM29.68 83.294V36.16H47.4c.956 0 1.73-.774 1.73-1.73V16.707H70.32v66.587H29.68z"/></svg>