<svg xmlns="http://www.w3.org/2000/svg" width="100" height="100" viewBox="0 0 100 100"><path d="M33.47 70.372l2.73-11.775c.366-1.647 2.06-3.01 3.78-3.01h2.267c9.698-.01 17.22-1.993 22.626-5.965 5.398-3.963 8.098-9.217 8.085-15.714.013-2.854-.48-5.24-1.512-7.148-.985-1.923-2.463-3.484-4.35-4.663-1.955-1.207-4.23-2.04-6.882-2.54-2.668-.48-5.784-.714-9.36-.746l-16.553.014c-1.72.02-3.405 1.37-3.802 3.022L19.335 70.372c-.384 1.66.69 3.032 2.404 3.032h7.93c1.714 0 3.413-1.336 3.8-3.032zm6.485-28.16l2.387-10.288c.364-1.657 2.073-3.03 3.787-3.016l2.594-.016c3.03 0 5.335.52 6.89 1.55 1.532 1.005 2.31 2.59 2.284 4.723.045 3.21-1.172 5.696-3.575 7.45-2.39 1.748-5.705 2.624-10.006 2.624h-1.944c-1.714 0-2.796-1.36-2.418-3.03zM79.23 34.544c-.986-1.923-2.463-3.484-4.35-4.663-.14-.086-.288-.167-.433-.25.055.1.115.197.167.3 1.03 1.906 1.525 4.295 1.512 7.148.013 6.497-2.687 11.75-8.085 15.714-5.405 3.97-12.927 5.955-22.626 5.964H43.15c-1.72 0-3.414 1.363-3.78 3.01l-2.73 11.776c-.386 1.696-2.085 3.032-3.8 3.032h-5.356l-.364 1.582c-.384 1.66.69 3.033 2.404 3.033h7.93c1.715 0 3.414-1.338 3.8-3.034l2.732-11.775c.365-1.645 2.06-3.01 3.78-3.01h2.266c9.698-.01 17.22-1.992 22.626-5.964 5.398-3.963 8.098-9.217 8.084-15.713.014-2.853-.48-5.242-1.512-7.15z"/></svg>