<svg xmlns="http://www.w3.org/2000/svg" width="100" height="100" viewBox="0 0 100 100"><path d="M75.412 70.658v-.033h-.003c-.02-.94-.784-1.696-1.728-1.696h-6.49c-.944 0-1.708.756-1.727 1.695h-.01v12.668h-40.64V36.16h17.722c.956 0 1.73-.774 1.73-1.73V16.707h21.188v30.2h.013c.034.926.79 1.668 1.724 1.668h6.49c.935 0 1.69-.742 1.724-1.668h.006V12.5h-.005V8.48c0-.956-.774-1.73-1.73-1.73h-32.87L14.857 32.7V91.52c0 .955.774 1.73 1.73 1.73h57.088c.956 0 1.73-.775 1.73-1.73v-2.45h.005V70.66h.002zM83.413 53.562h-25.95c-.956 0-1.73.774-1.73 1.73v6.92c0 .955.774 1.73 1.73 1.73h25.95c.956 0 1.73-.775 1.73-1.73v-6.92c0-.957-.775-1.73-1.73-1.73z"/></svg>