<svg xmlns="http://www.w3.org/2000/svg" width="100" height="100" viewBox="0 0 100 100"><path d="M78.59 48.774V35.887h-.002c-.005-2.155-1.728-3.897-3.87-3.953v-.038H62.666c-.06.002-.115.018-.175.018s-.115-.016-.174-.018h-.203v-.02c-2.8-.2-5.016-2.51-5.016-5.357 0-1.237.432-2.362 1.13-3.272h-.105c.695-1.206 1.098-2.6 1.098-4.092 0-4.54-3.68-8.22-8.223-8.22-4.54 0-8.22 3.68-8.22 8.22 0 1.49.402 2.886 1.097 4.092h-.09c.69.907 1.116 2.027 1.116 3.256 0 2.847-2.216 5.157-5.017 5.354v.038H25.36v.02c-2.184.01-3.954 1.783-3.954 3.97 0 .06.015.113.017.17V49.48h.043c0 1.237 1.004 2.244 2.243 2.244.225 0 .44-.045.644-.11 1.19-.516 2.503-.807 3.883-.807 5.393 0 9.764 4.37 9.764 9.762s-4.37 9.762-9.763 9.762c-1.343 0-2.623-.273-3.788-.764-.242-.088-.498-.144-.77-.144-1.24 0-2.242 1.002-2.242 2.244 0 .127.017.25.038.372h-.053v12.884c-.003.058-.017.112-.017.17 0 2.19 1.78 3.973 3.973 3.973.108 0 .21-.023.318-.032H38.89c1.24 0 2.244-1.007 2.244-2.246 0-.248-.05-.48-.124-.704 0-.004-.003-.01-.004-.014-.017-.052-.027-.107-.048-.156h.008c-.254-.87-.397-1.79-.397-2.74 0-5.394 4.37-9.763 9.76-9.763 5.392 0 9.763 4.37 9.763 9.763 0 .953-.143 1.87-.397 2.74h.025c-.114.27-.178.568-.178.88 0 1.24 1.005 2.244 2.245 2.244.013 0 .025-.004.038-.004h12.792c2.178 0 3.944-1.758 3.97-3.933h.004V72.038h-.045c-.14-1.108-1.072-1.964-2.216-1.964v-.1c-.82.224-1.678.354-2.568.354-5.392 0-9.763-4.37-9.763-9.762 0-5.39 4.37-9.762 9.762-9.762.89 0 1.748.13 2.567.353v-.094l.024.002c1.01 0 1.853-.67 2.134-1.588h.103v-.605c0-.017.006-.032.006-.05-.002-.016-.006-.03-.007-.048z"/></svg>