<svg xmlns="http://www.w3.org/2000/svg" width="100" height="100" viewBox="0 0 100 100"><path d="M94.284 65.553L75.824 52.41c-.388-.275-.886-.31-1.31-.092-.425.218-.685.694-.686 1.173l.01 6.222H57.23c-.705 0-1.39.497-1.39 1.204v11.442c0 .707.685 1.194 1.39 1.194h16.775v6.27c0 .478.184.917.61 1.136s.852.182 1.24-.097L94.29 67.634c.335-.24.477-.626.477-1.038v-.002c0-.414-.144-.8-.48-1.04zM64.06 78.553h-6.49c-.956 0-1.73.774-1.73 1.73h-.007v3.01H15.19V36.16h17.724c.956 0 1.73-.774 1.73-1.73V16.707h21.188v36.356h.01c.022.937.785 1.69 1.727 1.69h6.49c.942 0 1.704-.753 1.725-1.69h.004V12.5h-.006V8.48c0-.956-.774-1.73-1.73-1.73h-32.87L5.234 32.7V91.52c0 .955.775 1.73 1.73 1.73H64.055c.956 0 1.73-.775 1.73-1.73v-2.45h.005v-8.788c0-.954-.775-1.73-1.73-1.73zM26.18 64.173c.83 0 1.55.623 1.786 1.342l2.408-1.12c-.553-1.274-1.77-2.686-4.193-2.686-2.892 0-5.078 1.923-5.078 4.774 0 2.837 2.187 4.774 5.08 4.774 2.42 0 3.653-1.467 4.192-2.7l-2.408-1.106c-.235.72-.955 1.342-1.786 1.342-1.342 0-2.242-1.024-2.242-2.31s.9-2.31 2.242-2.31zM35.656 68.907c-1.246 0-2.284-.526-2.976-1.19l-1.453 2.076c.982.886 2.325 1.467 4.29 1.467 2.478 0 3.987-1.176 3.987-3.21 0-3.433-5.135-2.686-5.135-3.558 0-.235.15-.415.705-.415.872 0 1.91.304 2.712.913l1.495-1.98c-1.052-.857-2.408-1.286-3.917-1.286-2.533 0-3.833 1.495-3.833 3.06 0 3.64 5.148 2.74 5.148 3.625 0 .358-.498.497-1.024.497zM43.27 61.862h-3.168l3.404 9.23h3.516l3.404-9.23h-3.17l-1.992 6.214z"/></svg>