<svg xmlns="http://www.w3.org/2000/svg" width="100" height="100" viewBox="0 0 100 100"><path d="M50 12.5c-20.712 0-37.5 16.793-37.5 37.502C12.5 70.712 29.288 87.5 50 87.5s37.5-16.788 37.5-37.498C87.5 29.292 70.712 12.5 50 12.5zm0 65.06c-15.2 0-27.56-12.36-27.56-27.558C22.44 34.807 34.802 22.44 50 22.44c15.198 0 27.56 12.367 27.56 27.562 0 15.196-12.362 27.56-27.56 27.56zM66.352 49.097l.006-.01-23.367-13.49-.005.01c-.156-.092-.328-.158-.52-.158-.586 0-1.06.474-1.06 1.06 0 .042.02.078.024.12h-.025v26.98h.024c.06.526.492.94 1.034.94.194 0 .365-.066.52-.157l.017.027L66.37 50.93l-.016-.027c.316-.183.538-.51.538-.903 0-.392-.222-.72-.538-.903z"/></svg>