<svg xmlns="http://www.w3.org/2000/svg" width="100" height="100" viewBox="0 0 100 100"><path d="M83.095 47.878l-.004-.003-32.087-32.09c-.985-.984-2.58-.984-3.563 0l-5.26 5.26L30.934 9.8c-.903-.944-2.166-1.536-3.57-1.535-2.744 0-4.967 2.23-4.965 4.986 0 1.427.602 2.704 1.557 3.613L35.16 28.068 7.883 55.344c-.984.983-.984 2.578 0 3.562l32.09 32.092c.985.984 2.58.984 3.563 0l39.56-39.558c.982-.984.982-2.58 0-3.562zM63.39 57.106H20.234l29.003-29.004 21.58 21.58-7.425 7.424zM91.073 73.735l-5.97-10.34c-.03-.057-.06-.116-.098-.17l-.015-.025-.004.002c-.302-.418-.788-.69-1.35-.69-.51 0-.953.23-1.257.588l-.017-.01-.06.104c-.085.116-.16.24-.216.375l-5.835 10.104c-1.144 1.535-1.83 3.432-1.83 5.493 0 5.09 4.125 9.217 9.217 9.217 5.092 0 9.216-4.127 9.216-9.217 0-2.034-.667-3.907-1.783-5.432z"/></svg>