<svg xmlns="http://www.w3.org/2000/svg" width="100" height="100" viewBox="0 0 100 100"><path d="M34.848 40.708c0-5.6-4.542-10.14-10.143-10.14-5.6 0-10.14 4.54-10.14 10.14 0 5.604 4.538 10.143 10.14 10.143s10.143-4.538 10.143-10.142zM75.293 32.548c-5.6 0-10.14 4.54-10.14 10.14 0 5.605 4.54 10.142 10.14 10.142 5.6 0 10.142-4.537 10.142-10.14 0-5.6-4.54-10.142-10.142-10.142zM66.082 53.978c-.705-.87-1.703-1.875-2.85-2.93-3.057-3.963-7.84-6.527-13.232-6.527-4.8 0-9.113 2.033-12.162 5.27-1.732 1.508-3.272 2.98-4.252 4.19l-.656.8c-3.06 3.73-6.87 8.373-6.84 16.25.026 7.315 5.983 13.27 13.277 13.27 4.166 0 7.984-1.926 10.467-5.16 2.48 3.234 6.3 5.16 10.47 5.16 7.29 0 13.247-5.954 13.275-13.27.027-7.877-3.783-12.52-6.842-16.25l-.656-.802z"/><circle cx="50.703" cy="26.877" r="11.175"/></svg>