<svg xmlns="http://www.w3.org/2000/svg" width="100" height="100" viewBox="0 0 100 100"><g fill="#231F20"><path d="M93.194 18c0-2.47-2.002-4.472-4.472-4.472-.228 0-.447.034-.667.067V13.5H11.25v.028c-2.47 0-4.472 2.002-4.472 4.472v64.5h.05c.252 2.23 2.123 3.972 4.42 3.972v.028h76.806v-.095c.22.033.438.067.667.067 2.3 0 4.17-1.74 4.423-3.972h.078V18h-.026zm-9.93 58.543h-10.86c-.038-.155-.092-.304-.166-.442l.018-.01-22.72-39.35-.008.006c-.5-1.027-1.544-1.74-2.764-1.74-1.25 0-2.324.75-2.807 1.82l-15.12 26.187-3.7-6.41-.006.002c-.263-.542-.813-.918-1.456-.918-.66 0-1.224.395-1.48.958l-5.46 9.457V23.485h66.53v53.058z"/><circle cx="68.122" cy="38.584" r="10.1"/></g></svg>