<svg xmlns="http://www.w3.org/2000/svg" width="100" height="100" viewBox="0 0 100 100"><path d="M40.416 64.173c.83 0 1.55.623 1.786 1.342l2.408-1.12c-.553-1.274-1.77-2.686-4.193-2.686-2.893 0-5.08 1.923-5.08 4.774 0 2.837 2.188 4.774 5.08 4.774 2.422 0 3.654-1.467 4.193-2.7l-2.408-1.106c-.235.72-.955 1.342-1.786 1.342-1.342 0-2.242-1.024-2.242-2.31s.9-2.31 2.242-2.31zM48.605 64.492c0-.235.152-.415.706-.415.873 0 1.91.304 2.713.913l1.495-1.98c-1.052-.857-2.408-1.286-3.917-1.286-2.532 0-3.832 1.495-3.832 3.06 0 3.64 5.148 2.74 5.148 3.625 0 .36-.498.498-1.024.498-1.246 0-2.284-.526-2.976-1.19l-1.453 2.076c.982.886 2.325 1.467 4.29 1.467 2.478 0 3.987-1.175 3.987-3.21 0-3.434-5.135-2.686-5.135-3.558zM59.5 68.076l-1.992-6.214h-3.17l3.405 9.23h3.515l3.405-9.23h-3.17zM80.277 12.5h-.005V8.48c0-.956-.774-1.73-1.73-1.73h-32.87L19.722 32.7V91.52c0 .955.774 1.73 1.73 1.73h57.09c.956 0 1.73-.775 1.73-1.73v-2.45h.005V12.5zM29.68 83.294V36.16H47.4c.956 0 1.73-.774 1.73-1.73V16.707H70.32v66.587H29.68z"/></svg>