<svg xmlns="http://www.w3.org/2000/svg" width="100" height="100" viewBox="0 0 100 100"><path d="M81.465 66.127c-.022-.038-.052-.07-.076-.105l-26.903-46.6-.014.008c-.23-.368-.558-.637-.93-.8l.04-.023-11.01-6.357v.044c-.555-.315-1.233-.367-1.847-.107l-.012-.02-.206.118c-.004.003-.01.003-.013.006l-.012.01L19.3 24.53c-.656.377-1.02 1.057-1.037 1.763l-.007-.004v12.713l.02-.012c-.046.428.03.873.262 1.274.014.024.032.042.047.065L45.4 86.774c.027.055.045.112.076.166.562.972 1.785 1.317 2.772.802l.005.008 32.465-18.743-.014-.025c.996-.578 1.338-1.856.76-2.855zm-45.1-36.766c-1.848 1.07-4.213.436-5.28-1.413-1.068-1.85-.434-4.213 1.415-5.28 1.85-1.07 4.213-.435 5.28 1.415 1.07 1.847.435 4.212-1.414 5.28z"/></svg>