<svg xmlns="http://www.w3.org/2000/svg" width="100" height="100" viewBox="0 0 100 100"><path d="M80.277 12.5h-.005V8.48c0-.956-.774-1.73-1.73-1.73h-32.87L19.722 32.7V91.52c0 .955.774 1.73 1.73 1.73h57.09c.956 0 1.73-.775 1.73-1.73v-2.45h.005V12.5zM29.68 83.294V36.16H47.4c.956 0 1.73-.774 1.73-1.73V16.707H70.32v66.587H29.68zM38.663 61.862H34.54v9.23h4.137c2.893 0 5.052-1.674 5.052-4.622s-2.16-4.608-5.067-4.608zm0 6.796h-1.33v-4.36h1.343c1.495 0 2.214.927 2.214 2.173 0 1.163-.83 2.188-2.227 2.188zM49.958 61.71c-2.85 0-5.052 1.938-5.052 4.775 0 2.837 2.2 4.774 5.052 4.774 2.85 0 5.05-1.94 5.05-4.775.002-2.838-2.2-4.775-5.05-4.775zm0 7.086c-1.343 0-2.214-1.024-2.214-2.31s.872-2.313 2.214-2.313 2.214 1.024 2.214 2.312-.87 2.31-2.214 2.31zM61.268 64.173c.83 0 1.55.623 1.786 1.342l2.408-1.12c-.554-1.274-1.77-2.686-4.194-2.686-2.892 0-5.08 1.923-5.08 4.774 0 2.837 2.188 4.774 5.08 4.774 2.422 0 3.654-1.467 4.194-2.7l-2.408-1.106c-.235.72-.955 1.342-1.786 1.342-1.342 0-2.242-1.024-2.242-2.31s.9-2.31 2.242-2.31z"/></svg>