<svg xmlns="http://www.w3.org/2000/svg" width="100" height="100" viewBox="0 0 100 100"><path d="M30.267 88.384c-2.726 0-6.235-.922-9.74-4.426-4.62-4.62-5.202-9.08-4.877-12.013.38-3.436 2.14-6.747 5.225-9.833L50.287 32.7c8.215-8.212 13.68-5.208 16.206-2.684 3.056 3.057 5.06 8.338-2.747 16.143L36.668 73.236l-5.27-5.27 27.077-27.08c4.172-4.173 3.21-5.134 2.745-5.6-.37-.37-1.49-1.485-5.662 2.684L26.146 67.384c-1.28 1.28-2.852 3.252-3.087 5.387-.214 1.922.68 3.86 2.742 5.916 2.555 2.558 4.487 2.286 5.125 2.194 1.74-.243 3.725-1.442 5.74-3.456 2.494-2.49 32.595-32.59 34.9-34.9 2.85-2.85 4.66-5.62 5.383-8.237 1.048-3.786-.206-7.387-3.83-11.013-3.825-3.825-9.986-7.83-19.308 1.495L21.602 56.98c-1.457 1.456-3.816 1.456-5.272 0-1.457-1.456-1.457-3.815 0-5.27l32.213-32.213C58.5 9.54 69.38 8.99 78.393 18.003c6.988 6.99 6.98 13.79 5.746 18.27-1.088 3.93-3.474 7.696-7.298 11.52-2.308 2.31-32.414 32.417-34.904 34.903-3.208 3.213-6.564 5.086-9.967 5.567-.522.077-1.094.12-1.703.12z"/></svg>