<svg xmlns="http://www.w3.org/2000/svg" width="100" height="100" viewBox="0 0 100 100"><path d="M71.586 72.845c0-.205-.068-.388-.162-.555l.016-.003-2.974-7.29-.006-.013-.005-.013-.002.003c-.18-.403-.58-.687-1.05-.687-.335 0-.63.147-.84.375l-.006-.01c-1.046 1.45-3.46 2.898-6.922 2.898-3.944 0-5.795-2.656-10.464-2.656-1.206 0-2.735.24-3.943.644 2.897-1.77 5.232-5.15 5.232-8.934 0-.483-.082-1.047-.082-1.53h9.015v-.006c.635-.002 1.15-.517 1.15-1.153V49.6h-.023c-.058-.582-.53-1.04-1.128-1.043v-.006h-11.59c-1.85-2.896-3.944-5.392-3.944-9.496 0-4.508 3.703-7.486 8.45-7.486 3.692 0 6.9 2.322 8.197 5.684.172.422.583.72 1.066.72.16 0 .31-.032.45-.09l.005-.003 7.132-4.27-.008-.007c.374-.19.637-.57.637-1.018 0-.226-.082-.424-.193-.602l.022-.013c-3.38-6.6-9.74-9.74-18.674-9.74-9.498 0-19.56 6.44-19.56 16.663 0 3.943 1.69 6.922 3.704 9.658h-5.474v.015c-.015 0-.028-.01-.044-.01-.637 0-1.153.517-1.153 1.154v4.31h.022c.058.584.533 1.045 1.13 1.045.017 0 .03-.008.045-.01v.015h9.66c.562 1.368.965 2.816.965 4.346 0 4.062-3.627 7.57-8.616 9.983-.007.002-.013.006-.02.01-.047.022-.09.046-.137.068l.01.018c-.332.203-.564.55-.564.968 0 .155.032.302.087.438h-.002l.003.008c0 .003.003.005.004.008l2.76 5.76c.005.014.013.027.02.042l.05.104.017-.005c.2.34.554.578.977.578.18 0 .343-.05.495-.12l.004.008c3.22-1.77 6.52-3.06 9.337-3.06 4.91 0 7.566 3.542 14.57 3.542 5.875 0 9.658-1.77 11.912-4.024l-.005-.01c.265-.21.446-.523.446-.89z"/></svg>