<svg xmlns="http://www.w3.org/2000/svg" width="100" height="100" viewBox="0 0 100 100"><path d="M89.307 12.5h-.005V8.48c0-.956-.774-1.73-1.73-1.73h-32.87L28.75 32.7v5.237h.014c.073.888.81 1.588 1.716 1.588h6.49c.907 0 1.642-.7 1.716-1.588h.02V36.16h17.724c.956 0 1.73-.774 1.73-1.73V16.707H79.35v66.587H38.708v-3.012H38.7c0-.954-.774-1.728-1.73-1.728h-6.49c-.954 0-1.728.773-1.73 1.728V91.52c0 .957.775 1.73 1.73 1.73H87.57c.956 0 1.73-.773 1.73-1.73v-2.447h.005l.002-76.573zM49.6 59.04c0-8.847-7.17-16.02-16.02-16.02s-16.02 7.173-16.02 16.02c0 2.99.834 5.78 2.26 8.175l-7.815 7.815.03.03c-.83.796-1.343 1.92-1.343 3.195 0 2.463 1.962 4.39 4.423 4.39 1.257 0 2.38-.506 3.18-1.324l.023.023 8.024-8.024c2.176 1.104 4.63 1.74 7.238 1.74 8.85 0 16.02-7.173 16.02-16.02zm-25.318 0c0-5.136 4.162-9.3 9.3-9.3 5.136 0 9.297 4.164 9.297 9.3 0 5.135-4.162 9.298-9.3 9.298-5.137 0-9.298-4.163-9.298-9.3z"/></svg>