<svg xmlns="http://www.w3.org/2000/svg" width="100" height="100" viewBox="0 0 100 100"><path d="M73.603 78.553h-6.49c-.956 0-1.73.774-1.73 1.73h-.007v3.01h-40.64V36.16h17.722c.956 0 1.73-.774 1.73-1.73V16.707h21.188v20.627h.008c.003.954.776 1.726 1.73 1.726h6.49c.954 0 1.727-.772 1.73-1.726V12.5h-.006V8.48c0-.956-.774-1.73-1.73-1.73h-32.87L14.777 32.7V91.52c0 .955.774 1.73 1.73 1.73h57.089c.956 0 1.73-.775 1.73-1.73v-2.45h.005v-8.788c0-.954-.773-1.73-1.73-1.73zM79.21 58.75l5.505-5.504c.676-.676.676-1.77 0-2.447l-4.894-4.894c-.675-.676-1.77-.676-2.445 0L71.87 51.41l-5.505-5.504c-.676-.676-1.77-.676-2.446 0L59.025 50.8c-.676.676-.676 1.77 0 2.447l5.505 5.505-5.504 5.505c-.676.676-.676 1.77 0 2.446l4.894 4.893c.676.676 1.77.676 2.446 0l5.505-5.505 5.506 5.506c.676.676 1.77.676 2.446 0l4.894-4.893c.676-.676.676-1.77 0-2.446L79.21 58.75z"/></svg>