<svg xmlns="http://www.w3.org/2000/svg" width="100" height="100" viewBox="0 0 100 100"><path d="M86.45 23.27h-3.475v66.91c0 .835-.677 1.513-1.513 1.513H31.987v3.475c0 .836.677 1.513 1.513 1.513h52.95c.837 0 1.514-.676 1.514-1.512V24.782c0-.836-.678-1.512-1.514-1.512zM77.988 85.193V14.807c0-.836-.677-1.513-1.513-1.513H73v66.91c0 .837-.677 1.514-1.513 1.514H22.01v3.475c0 .836.678 1.513 1.514 1.513h52.95c.837 0 1.514-.677 1.514-1.513zM68.013 75.218V4.832c0-.836-.677-1.513-1.513-1.513H13.55c-.836 0-1.513.676-1.513 1.512v70.386c0 .836.677 1.513 1.513 1.513H66.5c.836 0 1.513-.676 1.513-1.512z"/></svg>