<svg xmlns="http://www.w3.org/2000/svg" width="100" height="100" viewBox="0 0 100 100"><path d="M73.682 78.553h-6.49c-.956 0-1.73.774-1.73 1.73h-.007v3.01h-40.64V36.16h17.722c.956 0 1.73-.774 1.73-1.73V16.707h21.188v20.627h.008c.003.954.776 1.726 1.73 1.726h6.49c.954 0 1.727-.772 1.73-1.726V12.5h-.006V8.48c0-.956-.774-1.73-1.73-1.73h-32.87L14.857 32.7V91.52c0 .955.774 1.73 1.73 1.73h57.088c.956 0 1.73-.775 1.73-1.73v-2.45h.005v-8.788c.002-.954-.772-1.73-1.728-1.73zM83.413 53.562h-7.785v-7.785c0-.955-.774-1.73-1.73-1.73h-6.92c-.956 0-1.73.775-1.73 1.73v7.785h-7.785c-.956 0-1.73.774-1.73 1.73v6.92c0 .955.774 1.73 1.73 1.73h7.785v7.785c0 .956.774 1.73 1.73 1.73h6.92c.956 0 1.73-.773 1.73-1.73v-7.785h7.785c.956 0 1.73-.775 1.73-1.73v-6.92c0-.957-.775-1.73-1.73-1.73z"/></svg>