<svg xmlns="http://www.w3.org/2000/svg" width="100" height="100" viewBox="0 0 100 100"><path d="M75.272 7.482h-.005v-4.02c0-.956-.774-1.73-1.73-1.73h-32.87l-25.95 25.95V86.5c0 .957.774 1.73 1.73 1.73h57.088c.956 0 1.73-.773 1.73-1.73v-2.447h.005l.002-76.57zM24.674 78.276V31.142h17.723c.956 0 1.73-.774 1.73-1.73V11.69h21.188v66.586h-40.64zM83.77 24.857h-3.475v66.91c0 .836-.677 1.514-1.513 1.514H29.306v3.476c0 .836.677 1.513 1.513 1.513h52.95c.836 0 1.513-.678 1.513-1.514V26.37c0-.836-.677-1.513-1.513-1.513z"/></svg>