<svg xmlns="http://www.w3.org/2000/svg" width="100" height="100" viewBox="0 0 100 100"><path d="M87.06 26.29c-.483 0-.918.2-1.23.522L57.41 43.22V28.01c0-.95-.77-1.72-1.718-1.72-.483 0-.918.2-1.23.522L21.144 46.05V22.666h-.013c.003-.04.013-.075.013-.114 0-1.4-1.134-2.533-2.532-2.536h-4.85v.024c-1.402 0-2.538 1.137-2.538 2.538 0 .045.01.086.013.13v54.968h.024c.122 1.286 1.193 2.296 2.512 2.296.03 0 .058-.008.087-.01h4.568c.07.007.14.022.213.022 1.4 0 2.538-1.136 2.538-2.537 0-.117-.02-.23-.035-.343V53.962l33.34 19.25c.31.307.737.497 1.208.497.933 0 1.687-.744 1.714-1.67h.005V56.79L85.85 73.214c.31.307.736.497 1.207.497.93 0 1.686-.743 1.712-1.67h.005V28.01c0-.95-.77-1.72-1.717-1.72z"/></svg>