<svg xmlns="http://www.w3.org/2000/svg" width="100" height="100" viewBox="0 0 100 100"><path d="M94.284 65.553L75.824 52.41c-.388-.275-.886-.31-1.31-.092-.425.218-.685.694-.686 1.173l.01 6.222H57.23c-.705 0-1.39.497-1.39 1.204v11.442c0 .707.685 1.194 1.39 1.194h16.775v6.27c0 .478.184.917.61 1.136s.852.182 1.24-.097L94.29 67.634c.335-.24.477-.626.477-1.038v-.002c0-.414-.144-.8-.48-1.04zM64.06 78.553h-6.49c-.956 0-1.73.774-1.73 1.73h-.007v3.01H15.19V36.16h17.724c.956 0 1.73-.774 1.73-1.73V16.707h21.188v36.356h.01c.022.937.785 1.69 1.727 1.69h6.49c.942 0 1.704-.753 1.725-1.69h.004V12.5h-.006V8.48c0-.956-.774-1.73-1.73-1.73h-32.87L5.234 32.7V91.52c0 .955.775 1.73 1.73 1.73H64.055c.956 0 1.73-.775 1.73-1.73v-2.45h.005v-8.788c0-.954-.775-1.73-1.73-1.73zM21.525 61.862v9.23h2.795v-2.905h2.13c2.16 0 3.322-1.44 3.322-3.156 0-1.73-1.162-3.168-3.32-3.168h-4.927zm5.41 3.17c0 .483-.373.72-.843.72H24.32v-1.454h1.77c.472 0 .846.235.846.733zM31.228 61.862v9.23h4.138c2.893 0 5.052-1.674 5.052-4.622s-2.16-4.608-5.065-4.608h-4.125zm6.352 4.61c0 1.162-.83 2.186-2.228 2.186h-1.33v-4.36h1.343c1.495 0 2.215.927 2.215 2.173zM49.116 64.298v-2.436h-7.003v9.23h2.795v-3.445h4.11V65.21h-4.11V64.3z"/></svg>