<svg xmlns="http://www.w3.org/2000/svg" width="100" height="100" viewBox="0 0 100 100"><path d="M94.284 65.553L75.824 52.41c-.388-.275-.886-.31-1.31-.092-.425.218-.685.694-.686 1.173l.01 6.222H57.23c-.705 0-1.39.497-1.39 1.204v11.442c0 .707.685 1.194 1.39 1.194h16.775v6.27c0 .478.184.917.61 1.136.424.22.852.182 1.24-.097L94.29 67.634c.335-.24.477-.626.477-1.038v-.002c0-.414-.144-.8-.48-1.04zM64.06 78.553h-6.49c-.956 0-1.73.774-1.73 1.73h-.007v3.01H15.19V36.16h17.724c.956 0 1.73-.774 1.73-1.73V16.707h21.188v36.356h.01c.022.937.785 1.69 1.727 1.69h6.49c.942 0 1.704-.753 1.725-1.69h.004V12.5h-.006V8.48c0-.956-.774-1.73-1.73-1.73h-32.87L5.234 32.7V91.52c0 .955.775 1.73 1.73 1.73H64.055c.956 0 1.73-.775 1.73-1.73v-2.45h.005v-8.788c0-.954-.775-1.73-1.73-1.73zM20.364 61.862v9.23h4.138c2.893 0 5.052-1.674 5.052-4.622s-2.16-4.608-5.065-4.608h-4.126zm6.352 4.61c0 1.162-.83 2.186-2.228 2.186H23.16v-4.36h1.342c1.495 0 2.214.927 2.214 2.173zM30.733 66.485c0 2.837 2.2 4.774 5.052 4.774 2.85 0 5.05-1.94 5.05-4.775 0-2.837-2.2-4.775-5.05-4.775-2.852 0-5.052 1.937-5.052 4.775zm7.266 0c0 1.287-.873 2.31-2.215 2.31-1.343 0-2.214-1.023-2.214-2.31s.873-2.312 2.215-2.312c1.342 0 2.214 1.025 2.214 2.312zM47.093 64.173c.83 0 1.55.623 1.786 1.342l2.407-1.12c-.554-1.274-1.77-2.686-4.194-2.686-2.892 0-5.08 1.923-5.08 4.774 0 2.837 2.188 4.774 5.08 4.774 2.422 0 3.654-1.467 4.194-2.7l-2.408-1.106c-.236.72-.956 1.342-1.787 1.342-1.342 0-2.242-1.024-2.242-2.31s.9-2.31 2.243-2.31z"/></svg>