<svg xmlns="http://www.w3.org/2000/svg" width="100" height="100" viewBox="0 0 100 100"><path d="M17.572 43.713c-.81 0-1.617.1-2.02.303.9-3.602 4.307-7.642 7.513-9.387.007-.004.012-.01.018-.012.024-.013.048-.03.07-.044l-.002-.002c.356-.19.606-.552.606-.983 0-.39-.208-.714-.505-.917l.026-.024L19.08 30l-.013.01c-.19-.143-.413-.242-.668-.242-.185 0-.35.054-.505.132l-.02-.02c-6.26 4.443-10.402 11.207-10.402 18.78 0 6.563 4.24 10.298 8.985 10.298 4.342 0 7.978-3.634 7.978-7.977 0-4.34-3.027-7.267-6.864-7.267zM38.12 43.713c-.81 0-1.618.1-2.02.303.898-3.602 4.306-7.642 7.512-9.387.007-.004.012-.01.018-.012.024-.013.048-.03.07-.044l-.002-.002c.355-.19.605-.552.605-.983 0-.39-.208-.714-.505-.917l.025-.024L39.627 30l-.013.01c-.19-.143-.413-.242-.668-.242-.184 0-.35.054-.504.132l-.02-.02C32.16 34.324 28.02 41.088 28.02 48.66c0 6.563 4.24 10.298 8.985 10.298 4.342 0 7.978-3.634 7.978-7.977 0-4.34-3.027-7.267-6.864-7.267zM62.994 41.04c-4.342 0-7.978 3.635-7.978 7.978 0 4.34 3.028 7.27 6.865 7.27.81 0 1.618-.102 2.02-.304-.898 3.602-4.306 7.642-7.512 9.387-.007.004-.012.01-.018.012-.024.013-.048.03-.07.044l.002.002c-.355.19-.605.552-.605.983 0 .39.208.714.505.917l-.025.024L60.373 70l.013-.01c.19.143.413.242.668.242.184 0 .35-.054.504-.132l.02.02c6.26-4.444 10.402-11.207 10.402-18.78 0-6.564-4.242-10.3-8.986-10.3zM83.54 41.04c-4.34 0-7.977 3.635-7.977 7.978 0 4.34 3.028 7.27 6.865 7.27.81 0 1.617-.102 2.02-.304-.9 3.602-4.307 7.642-7.513 9.387-.007.004-.012.01-.018.012-.024.013-.048.03-.07.044l.002.002c-.356.19-.606.552-.606.983 0 .39.208.714.505.917l-.026.024L80.92 70l.013-.01c.19.143.413.242.668.242.185 0 .35-.054.505-.132l.02.02c6.26-4.444 10.402-11.207 10.402-18.78 0-6.564-4.242-10.3-8.986-10.3z"/></svg>