<svg xmlns="http://www.w3.org/2000/svg" width="100" height="100" viewBox="0 0 100 100"><path d="M92.11 21.93c0-.974-.79-1.762-1.76-1.762h-.007v-.004H44.465v.014c-.965.005-1.746.786-1.75 1.752h-.002v6.342c0 .03-.01.057-.01.087 0 .97.79 1.76 1.762 1.76H90.35c.972 0 1.76-.788 1.76-1.76v-6.43zM92.11 36.83c0-.973-.79-1.76-1.76-1.76h-.007v-.005H44.465v.014c-.965.004-1.746.785-1.75 1.75h-.002V43.175c0 .03-.01.057-.01.087 0 .973.79 1.76 1.762 1.762H90.35c.972 0 1.76-.79 1.76-1.76V36.83zM32.748 21.925c0-.973-.788-1.76-1.76-1.76-.044 0-.085.01-.127.012H9.778c-.042-.003-.083-.013-.126-.013-.972 0-1.76.79-1.76 1.76V43.26c0 .972.788 1.76 1.76 1.76h21.337c.973 0 1.76-.788 1.76-1.76V21.925zM92.11 56.744c0-.973-.79-1.76-1.76-1.76h-.007v-.005H44.465v.013c-.965.005-1.746.786-1.75 1.752h-.002v6.343c0 .03-.01.057-.01.087 0 .972.79 1.76 1.762 1.76H90.35c.972 0 1.76-.788 1.76-1.76v-6.43zM92.11 71.645c0-.973-.79-1.76-1.76-1.76h-.007v-.005H44.465v.014c-.965.005-1.746.786-1.75 1.752h-.002v6.342c0 .03-.01.057-.01.087 0 .972.79 1.76 1.762 1.76H90.35c.972 0 1.76-.788 1.76-1.76v-6.43zM32.748 56.74c0-.973-.788-1.762-1.76-1.762-.044 0-.085.01-.127.013H9.778c-.042-.002-.083-.012-.126-.012-.972 0-1.76.79-1.76 1.762v21.335c0 .972.79 1.76 1.76 1.76h21.337c.973 0 1.76-.788 1.76-1.76V56.74z"/></svg>