<svg xmlns="http://www.w3.org/2000/svg" width="100" height="100" viewBox="0 0 100 100"><path d="M27.953 46.506c-1.385-2.83-2.117-6.008-2.117-9.192 0-1.743.252-3.534.768-5.468.23-.87.52-1.702.847-2.51-1.25-.682-2.625-1.102-4.1-1.102-5.47 0-9.898 5.153-9.898 11.517 0 4.453 2.176 8.306 5.354 10.223L5.39 56.217c-.835.393-1.386 1.337-1.386 2.392v10.587c0 1.42.99 2.57 2.21 2.57h7.93v-11.11c0-3.238 1.8-6.173 4.598-7.482l10.262-4.78c-.38-.603-.73-1.234-1.05-1.89zM60.137 34.8h34.097c.973 0 1.76-.788 1.76-1.76v-6.43c0-.974-.788-1.762-1.76-1.762h-.006v-.004H56.132c1.614 2.114 2.844 4.627 3.526 7.435.214.888.37 1.72.477 2.52zM95.996 66.436c0-.973-.79-1.76-1.76-1.76h-.007v-.005H72.006v9.09c0 .293-.016.582-.045.867h22.272c.973 0 1.76-.79 1.76-1.76V66.434zM94.235 44.762h-.006v-.004H58.943c-.16.42-.327.836-.514 1.25-.364.8-.773 1.568-1.224 2.296l10.288 4.908c.78.378 1.473.897 2.078 1.503h24.662c.973 0 1.76-.79 1.76-1.76V46.522c0-.973-.788-1.76-1.76-1.76zM65.323 57.702l-11.55-5.51-4.886-2.33c2.134-1.344 3.866-3.418 5-5.917.9-1.984 1.435-4.23 1.435-6.63 0-1.35-.213-2.628-.512-3.864-1.453-5.982-6.126-10.39-11.736-10.39-5.504 0-10.106 4.25-11.648 10.064-.356 1.333-.602 2.72-.602 4.19 0 2.55.596 4.93 1.61 7 1.17 2.4 2.905 4.378 5.017 5.65l-4.677 2.178-11.926 5.554c-1.037.485-1.717 1.654-1.717 2.96V73.76c0 1.756 1.224 3.18 2.735 3.18h42.417c1.51 0 2.735-1.423 2.735-3.18V60.656c.002-1.3-.668-2.458-1.694-2.954z"/></svg>