<svg xmlns="http://www.w3.org/2000/svg" width="100" height="100" viewBox="0 0 100 100"><path d="M84.54 21.586c-.008-.562-.322-1.083-.826-1.337-.503-.26-1.107-.213-1.568.114l-5.944 4.26-.468.338c-6.405-6.392-15.196-10.39-24.937-10.39-19.535 0-35.427 15.895-35.427 35.43s15.893 35.427 35.427 35.427c11.782 0 22.764-5.84 29.374-15.62.264-.39.363-.866.273-1.327-.09-.46-.357-.87-.747-1.134l-8.863-6.152c-.87-.576-2.043-.355-2.628.512-3.918 5.792-10.41 9.25-17.375 9.25-11.558 0-20.962-9.402-20.962-20.957s9.404-20.957 20.962-20.957c4.878 0 9.352 1.696 12.914 4.5l-1 .72-5.95 4.26c-.454.328-.695.89-.61 1.448.08.558.47 1.028 1.008 1.208l25.446 8.67c.46.16.966.082 1.368-.204.4-.29.63-.747.627-1.23l-.094-26.832z"/></svg>