<svg xmlns="http://www.w3.org/2000/svg" width="100" height="100" viewBox="0 0 100 100"><path d="M26.258 64.95c-4.848 0-8.78 3.93-8.78 8.783 0 4.848 3.932 8.782 8.78 8.782 4.855 0 8.784-3.934 8.784-8.782 0-4.855-3.93-8.784-8.784-8.784zM23.536 40.8c-.046 0-.09.007-.135.008V40.8h-3.463v.04c-1.698.193-3.02 1.603-3.056 3.344h-.006v6.16h.04c.19 1.58 1.438 2.82 3.022 3v.04H23.4v-.048c.045 0 .09.007.135.007 12.772 0 23.173 10.32 23.31 23.06h-.032v3.465h.04c.192 1.698 1.602 3.02 3.343 3.056v.007h6.158v-.04c1.58-.19 2.822-1.437 3.002-3.02h.04v-3.465h-.007C59.25 56.748 43.222 40.8 23.535 40.8zM83.12 76.403c-.14-32.74-26.812-59.333-59.584-59.333-.046 0-.09.006-.135.007v-.007h-3.463v.04c-1.698.192-3.02 1.602-3.056 3.343h-.006v6.16h.04c.19 1.58 1.438 2.82 3.022 3v.04H23.4v-.048c.045 0 .09.007.135.007 25.857 0 46.902 20.967 47.04 46.792h-.034v3.464h.04c.193 1.698 1.603 3.02 3.344 3.056v.007h6.16v-.04c1.58-.19 2.82-1.437 3-3.02h.04v-3.465h-.005z"/></svg>