<svg xmlns="http://www.w3.org/2000/svg" width="100" height="100" viewBox="0 0 100 100"><path d="M52.872 17.026h10.352v21.47H52.872zM86.217 19.195l.006-.006-5.21-5.213c-.438-.48-1.06-.785-1.76-.785-.015 0-.027.004-.04.004h-9.088v.024c-.286.03-.564.128-.78.344-.214.215-.314.493-.342.78h-.028v25.305h-.01c-.046 1.276-1.088 2.3-2.377 2.3H32.136v-.013c-1.234-.062-2.215-1.05-2.26-2.288h-.008V14.342h-.048c-.052-.266-.16-.526-.368-.735-.31-.31-.724-.427-1.12-.387v-.027h-12.95c-1.318 0-2.387 1.068-2.386 2.388v68.843c0 1.32 1.067 2.386 2.387 2.386h7.57V53.802h.01c.04-1.12.85-2.045 1.92-2.254v-.013h.13c.11-.015.216-.032.327-.032h49.387v.01c1.25.045 2.247 1.042 2.292 2.29h.008V86.81h7.58c1.32 0 2.388-1.068 2.388-2.386V21.028c0-.026.007-.05.007-.074 0-.7-.306-1.325-.786-1.76z"/></svg>