<svg xmlns="http://www.w3.org/2000/svg" width="100" height="100" viewBox="0 0 100 100"><path fill="#231F20" d="M79 14H21c-3.866 0-7 3.134-7 7v58c0 3.866 3.134 7 7 7h58c3.866 0 7-3.134 7-7V21c0-3.866-3.134-7-7-7zm-8.647 43.23v5.34c-.104 1.055-.924 1.887-1.973 2.018l-30.145.002c-2.232 0-4.135-.72-5.707-2.157-1.57-1.438-2.357-3.177-2.357-5.22 0-1.627.532-3.072 1.595-4.346 1.064-1.27 2.41-2.154 4.04-2.656l26.342-7.526H30.172v-5.096c.015-1.07.77-1.955 1.78-2.177h30.337c2.23 0 4.132.715 5.704 2.14 1.572 1.427 2.36 3.13 2.36 5.112 0 1.655-.537 3.11-1.608 4.37-1.07 1.263-2.45 2.142-4.134 2.636L38.235 57.23h32.118z"/></svg>