<svg xmlns="http://www.w3.org/2000/svg" width="100" height="100" viewBox="0 0 100 100"><path d="M81.652 14h-63.65c-1.892.784-3.364 2.37-4.002 4.336V81.13c.917 2.825 3.562 4.87 6.687 4.87h58.28C82.85 86 86 82.843 86 78.948v-58.43c0-2.942-1.796-5.46-4.348-6.518zM67.867 40.385h-1.4c-.52 0-1.12.682-1.12 1.163v17.437c0 .482.6 1.203 1.12 1.203h1.4v4.048H55.312v-4.048h2.52v-18.32h-.12l-6.2 22.368h-4.797l-6.118-22.368h-.12v18.32h2.64v4.048H32.48v-4.048h1.36c.56 0 1.16-.72 1.16-1.203V41.548c0-.48-.6-1.163-1.16-1.163h-1.36v-4.21h13.276l4.358 16.276h.12l4.398-16.274h13.235v4.21z"/></svg>