<svg xmlns="http://www.w3.org/2000/svg" width="100" height="100" viewBox="0 0 100 100"><path d="M52.02 35.98c-4.333.372-8.663.796-12.852 2.048-8.593 2.574-12.98 8.387-12.838 16.97.128 7.733 4.6 12.864 12.285 13.683 4.953.528 9.708-.292 13.728-3.583 1.15-.94 2.23-1.97 3.25-2.875 1.664 1.838 3.228 3.666 4.905 5.387 1.063 1.09 2.088 1.046 3.23.067 2.145-1.832 4.276-3.68 6.408-5.527 1.152-1 1.302-1.89.268-3.06-2.53-2.866-3.404-6.16-3.337-9.954.118-6.76.064-13.53-.16-20.285-.172-5.196-2.77-9.065-7.555-11.183-7.35-3.25-14.798-3.178-22.127.05-4.95 2.185-7.977 6.077-9.16 11.378-.388 1.742.076 2.392 1.83 2.602 2.53.303 5.055.627 7.58.957 1.394.182 2.17-.236 2.47-1.63.9-4.155 5.006-6.21 8.9-5.632 2.512.373 4.386 1.963 4.77 4.37.312 1.96.29 3.974.413 5.942-.33.09-.456.145-.586.156-.474.047-.948.08-1.422.12zm-.185 19.773c-1.262 1.906-2.88 3.28-5.155 3.664-3.688.62-6.4-1.754-6.672-5.738-.355-5.218 2.31-8.792 7.46-9.782 2.076-.4 4.212-.496 6.42-.742.022 4.505.474 8.777-2.053 12.597zM75.38 70.892c-.357.106-.698.262-1.042.408-4.914 2.096-9.966 3.748-15.213 4.783-4.954.98-9.942 1.473-14.99 1.006-6.205-.57-11.993-2.567-17.527-5.325-3.522-1.754-6.962-3.672-10.447-5.502-1.092-.574-2.094-.404-2.655.39-.554.784-.362 1.815.616 2.585 3.47 2.73 6.846 5.594 10.48 8.086 6.772 4.645 14.24 7.418 23.98 7.414 7.914-.2 16.618-2.61 24.675-7.3 1.434-.833 2.808-1.784 4.148-2.765 1.02-.748 1.24-1.848.718-2.79-.503-.91-1.62-1.323-2.74-.99zM82.865 63.228c-3.83-.387-7.53.078-10.76 2.443-.752.548-1.187 1.288-.777 2.204.39.873 1.19.986 2.077.86 1.678-.235 3.363-.427 5.046-.638.005.043.01.086.013.13.612 0 1.223-.007 1.833.003.707.01 1.084.32.92 1.08-.178.827-.3 1.673-.55 2.478-.48 1.555-1.102 3.068-1.518 4.637-.13.494.03 1.324.38 1.62.4.337 1.176.384 1.755.306.408-.052.806-.476 1.13-.81 2.582-2.672 3.898-5.943 4.29-9.576.385-3.57-.248-4.373-3.838-4.736z"/></svg>