<svg xmlns="http://www.w3.org/2000/svg" width="100" height="100" viewBox="0 0 100 100"><g fill-rule="evenodd" clip-rule="evenodd"><path d="M80.8 26.084C85.94 32.686 89 40.988 89 50c0 21.536-17.464 39-39 39-15.152 0-28.29-8.646-34.745-21.27h16.998c8.1 0 13.758-4.367 13.758-11.346 0-14.79-17.062-8.765-17.062-14.014 0-2.53 2.03-3.45 5.742-3.45h11.83c3.28 0 7.136.59 7.136 4.167v11.787c0 8.535 6.665 12.854 13.573 12.854 7.025 0 13.57-4.32 13.57-12.854v-28.79zM50 11c8.137 0 15.688 2.496 21.938 6.756V55.15c0 2.592-2.12 4.713-4.708 4.713-2.59 0-4.71-2.12-4.71-4.713V43.945C62.52 35 57.995 31.28 52.1 31.28h-19.19c-6.946 0-12.71 4.42-12.71 11.433 0 3.588 1.538 8.846 8.807 10.15 5.92 1.066 8.258.756 8.258 3.924 0 3.076-3.446 3.076-7.995 3.076H12.26C11.438 56.71 11 53.407 11 50c0-21.53 17.466-39 39-39z"/></g></svg>