<svg xmlns="http://www.w3.org/2000/svg" width="100" height="100" viewBox="0 0 100 100"><g fill="#231F20"><path d="M64.165 56.23c-3.28 0-4.36 2.495-4.69 3.653h8.754c-.083-.643-.34-1.773-1.158-2.597-.697-.7-1.672-1.055-2.907-1.055zM41.662 60.89H33.37v7.066h7.84c1.397-.035 3.13-.485 3.13-3.422 0-3.543-2.404-3.645-2.678-3.645zM79.035 14.073h-58c-3.15 0-5.815 2.083-6.693 4.946v62.106c.74 2.42 2.757 4.28 5.265 4.8h60.855c2.438-.505 4.406-2.28 5.196-4.602V18.82c-.94-2.76-3.546-4.747-6.623-4.747zM57.268 44.448c0-.277.226-.502.502-.502h12.465c.274 0 .5.225.5.502v3.72c0 .278-.227.502-.5.502H57.77c-.276 0-.502-.224-.502-.5v-3.722zm-5.294 20.64c0 4.75-2.513 7.04-4.625 8.12-2.302 1.178-4.687 1.27-5.365 1.27H26.162c-.274 0-.502-.227-.502-.503V43.77c0-.277.228-.503.502-.503h15.72c5.58 0 9.048 3.274 9.048 8.547 0 3.266-1.59 4.833-2.99 5.58.784.276 1.47.718 2.04 1.328 2.194 2.32 2.006 6.2 1.994 6.365zm23.304-.456c-.03.25-.244.437-.497.437H59.65c.11 1.658.766 2.855 1.953 3.562 1.05.623 2.212.69 2.658.69.093 0 .15-.003.158-.005 1.737 0 2.97-.383 3.697-1.14.697-.725.678-1.546.673-1.58 0-.14.046-.272.144-.372.093-.098.223-.155.362-.155h5.313c.278 0 .504.225.504.503 0 8.13-8.684 8.543-10.43 8.543-.28 0-.438-.01-.438-.01h-.005c-3.92 0-6.987-1.143-9.09-3.395-3.298-3.533-2.997-8.477-2.982-8.685 0-.09.014-3.02 1.495-5.992 1.39-2.773 4.352-6.08 10.612-6.08 3.587 0 6.38 1.1 8.287 3.273 3.508 4 2.758 10.146 2.718 10.406zM43.29 52.132c0-2.61-1.565-2.64-1.63-2.64H33.37v5.735h7.742c1.15 0 2.178-.236 2.178-3.095z"/></g></svg>