<svg xmlns="http://www.w3.org/2000/svg" width="100" height="100" viewBox="0 0 100 100"><path d="M87.255 72.316c-2.248-2.246-5.832-2.318-8.118-.208l-9-9c2.46-3.77 3.894-8.27 3.894-13.107s-1.434-9.336-3.893-13.106l8.95-8.95c2.286 2.112 5.87 2.043 8.117-.206 2.306-2.3 2.33-6.017.054-8.293-1.37-1.37-3.264-1.9-5.058-1.603.33-1.82-.196-3.755-1.592-5.15-2.274-2.276-5.985-2.253-8.29.054-2.247 2.248-2.32 5.832-.21 8.118l-9 9c-3.77-2.458-8.27-3.892-13.107-3.892-4.836 0-9.335 1.434-13.106 3.893l-8.95-8.95c2.11-2.286 2.04-5.87-.206-8.118-2.305-2.304-6.018-2.328-8.293-.054-1.372 1.372-1.9 3.266-1.604 5.06-1.82-.33-3.755.196-5.15 1.59-2.276 2.275-2.25 5.986.054 8.29 2.25 2.25 5.834 2.32 8.12.21l9 9c-2.46 3.77-3.893 8.27-3.893 13.107s1.435 9.337 3.895 13.107l-8.95 8.95c-2.286-2.11-5.87-2.04-8.118.206-2.304 2.305-2.327 6.018-.054 8.293 1.372 1.372 3.266 1.9 5.06 1.604-.33 1.82.196 3.756 1.59 5.152 2.275 2.275 5.986 2.248 8.29-.055 2.25-2.25 2.32-5.834.21-8.12l8.726-8.727v5.946c3.644 2.985 8.302 4.78 13.38 4.78 5.08 0 9.74-1.795 13.384-4.78V70.41l8.674 8.674c-2.11 2.287-2.043 5.87.206 8.12 2.3 2.305 6.018 2.328 8.293.053 1.37-1.37 1.9-3.265 1.603-5.058 1.82.33 3.755-.197 5.15-1.592 2.275-2.275 2.252-5.985-.055-8.292zM43.445 58.99c-2.54 0-4.596-2.057-4.596-4.593s2.056-4.597 4.595-4.597c2.535 0 4.59 2.06 4.59 4.597s-2.056 4.592-4.59 4.592zm13.11.066c-2.535 0-4.59-2.056-4.59-4.592 0-2.54 2.055-4.592 4.59-4.592 2.54 0 4.596 2.05 4.596 4.592 0 2.536-2.055 4.592-4.594 4.592z"/></svg>