<svg xmlns="http://www.w3.org/2000/svg" width="100" height="100" viewBox="0 0 100 100"><circle cx="32.961" cy="81.02" r="5.889"/><circle cx="74.309" cy="81.02" r="5.889"/><path d="M73.513 55.216c1.377 0 2.556-.812 3.11-1.978l.003.002 14.59-25.27-.02-.01c.215-.45.345-.946.345-1.477 0-1.907-1.544-3.452-3.45-3.452H34.498v-6.487c0-1.907-1.546-3.452-3.453-3.452h-18.86v.03c-.093-.01-.182-.03-.276-.03-1.762 0-3.2 1.328-3.41 3.036h-.04v3.452c0 1.907 1.544 3.452 3.45 3.452.095 0 .184-.02.276-.028v.028H24.56v43.733c.005 1.902 1.548 3.442 3.45 3.442h59.257v-.085c1.633-.103 2.948-1.33 3.185-2.922h.05V63.652c0-1.833-1.43-3.316-3.235-3.43v-.02h-52.77v-4.99h39.016z"/></svg>