<svg xmlns="http://www.w3.org/2000/svg" width="100" height="100" viewBox="0 0 100 100"><g><path d="M39.75 33.478C28.284 26.4 21.48 23.375 21.48 23.375 14.976 30.353 11 39.72 11 50.02c0 9.228 3.19 17.694 8.522 24.372 0 0-5.35-14.37 20.227-40.914zM49.97 25.935l.033.018-.026-.018c15.61-11.28 25.305-5.61 25.305-5.61-6.803-5.847-15.642-9.382-25.305-9.382-9.66 0-18.498 3.535-25.3 9.38-.002 0 9.694-5.8 25.294 5.612zM49.846 41.947C28.15 58.007 21.824 76.96 21.824 76.96c7.083 7.454 17.08 12.097 28.152 12.097 11.1 0 21.114-4.658 28.2-12.14 0 0-4.12-17.048-28.33-34.97zM89 50.02c0-10.302-3.978-19.667-10.48-26.645 0 0-6.805 3.025-18.27 10.103C85.828 60.023 80.48 74.392 80.48 74.392 85.81 67.715 89 59.248 89 50.02z"/></g></svg>