<svg xmlns="http://www.w3.org/2000/svg" width="100" height="100" viewBox="0 0 100 100"><path d="M94.762 48.994c0-5.688-4.63-10.314-10.315-10.314-2.463 0-4.767.9-6.626 2.477-.06.037-.12.072-.18.11-6.707-4.29-15.6-7.03-25.44-7.403l5.873-16.698L72.73 20.67c.01 4.633 3.78 8.4 8.42 8.4 4.64 0 8.42-3.777 8.42-8.42 0-4.647-3.78-8.424-8.42-8.424-3.53 0-6.545 2.182-7.795 5.26l-17.364-4.15-7.21 20.49c-10.26.193-19.556 2.97-26.513 7.404-1.873-1.625-4.21-2.55-6.718-2.55-5.688 0-10.31 4.626-10.31 10.313 0 3.518 1.814 6.768 4.755 8.66-.18 1.025-.293 2.064-.293 3.123 0 14.886 18.043 26.997 40.22 26.997 22.18 0 40.223-12.11 40.223-26.997 0-1.027-.103-2.037-.272-3.035 3.02-1.877 4.89-5.174 4.89-8.746zM63.598 62.347c-3.5 0-6.334-2.834-6.334-6.338 0-3.5 2.834-6.335 6.334-6.335 3.5 0 6.34 2.836 6.34 6.334 0 3.503-2.84 6.337-6.34 6.337zm1.26 10.806c-.19.194-4.732 4.82-15.008 4.82-10.333 0-14.463-4.688-14.636-4.89-.58-.677-.5-1.703.178-2.283.677-.575 1.692-.5 2.278.166.092.104 3.54 3.77 12.18 3.77 8.784 0 12.64-3.797 12.68-3.834.62-.636 1.646-.648 2.284-.027.637.62.66 1.63.045 2.278zM30.81 56.01c0-3.5 2.834-6.335 6.34-6.335 3.494 0 6.334 2.836 6.334 6.334 0 3.503-2.84 6.337-6.334 6.337-3.505 0-6.34-2.834-6.34-6.338z"/></svg>