<svg xmlns="http://www.w3.org/2000/svg" width="100" height="100" viewBox="0 0 100 100"><path d="M71.925 43.847c.846-.21 1.65-.773 2.48-.79 1.28-.03 2.725-.044 3.814.5 1.89.942 2.04 2.998.31 4.25-1.383.99-3.05 1.646-4.666 2.266-3.594 1.388-4.072 2.433-2.255 5.837 3.01 5.64 7.228 9.836 13.68 11.39.668.158 1.74.895 1.708 1.283-.073.882-.506 2.178-1.174 2.485-2.17 1.016-4.47 1.878-6.804 2.38-1.457.3-2.004.838-2.31 2.21-.657 2.894-1.232 3.254-4.037 2.692-4.46-.9-8.383-.125-12.184 2.62-7.67 5.548-13.387 5.524-21.04-.033-3.733-2.72-7.6-3.48-11.994-2.578-2.947.602-3.453.246-4.157-2.753-.292-1.226-.75-1.858-2.18-2.13-2.217-.416-4.43-1.145-6.475-2.104-.826-.38-1.48-1.692-1.643-2.66-.065-.396 1.316-1.306 2.16-1.54 6.947-1.9 11.177-6.65 14.022-12.95.672-1.49.105-2.546-1.13-3.238-1.1-.607-2.347-.95-3.52-1.44-.742-.313-1.5-.624-2.18-1.045-1.383-.854-2.545-1.915-1.744-3.752.652-1.51 2.8-2.31 4.493-1.77.96.305 1.898.7 2.874.916 1.28.275 2-.09 1.95-1.656-.112-3.558-.315-7.144-.027-10.686.607-7.484 4.983-12.423 11.718-15.05 9.735-3.78 21.36-.927 26.61 8.492 1.842 3.303 2.12 6.877 2.275 10.524-.146 2.287-.263 4.57-.445 6.845-.112 1.484.665 1.783 1.867 1.484z"/></svg>