<svg xmlns="http://www.w3.org/2000/svg" width="100" height="100" viewBox="0 0 100 100"><path d="M84 41.515c0-16.82-13.663-28.125-34-28.125-20.015 0-34 11.566-34 28.125 0 5.924 2.54 14.568 7.225 18.93l7.917-8.503c-1.744-1.62-3.52-6.884-3.52-10.427C27.623 30.107 38.868 25 50 25c10.824 0 22.378 4.34 22.378 16.515 0 13.64-15.88 15.154-21.73 15.242V34.755H38.24v35.283c0 3.574-3.863 5.13-7.984 2.14V84.91c2.565 1.26 4.895 1.7 6.89 1.7 2.236 0 4.068-.555 5.334-1.12 4.89-2.15 8.17-7.257 8.17-12.69v-4.44C70.92 68.136 84 57.66 84 41.514z"/></svg>