<svg xmlns="http://www.w3.org/2000/svg" width="100" height="100" viewBox="0 0 100 100"><g fill-rule="evenodd" clip-rule="evenodd"><path d="M65.193 43.13c-1.03 0-2.022.22-2.975.657-.954.438-1.854.992-2.704 1.66-.85.67-1.66 1.404-2.434 2.202-.772.798-1.468 1.53-2.086 2.2.67.77 1.39 1.532 2.163 2.278.773.747 1.596 1.417 2.472 2.008.874.593 1.788 1.07 2.742 1.43.952.36 1.97.54 3.05.54 1.906 0 3.374-.618 4.405-1.854 1.03-1.236 1.545-2.754 1.545-4.557 0-1.802-.554-3.348-1.66-4.635-1.108-1.285-2.614-1.93-4.52-1.93zM43.562 47.65c-.825-.8-1.688-1.533-2.588-2.202-.902-.67-1.842-1.223-2.82-1.66-.98-.438-1.958-.657-2.935-.657-1.804 0-3.234.684-4.29 2.048-1.055 1.364-1.583 2.896-1.583 4.596 0 1.854.54 3.373 1.622 4.557 1.08 1.186 2.574 1.777 4.48 1.777.977 0 1.956-.193 2.935-.58.978-.386 1.905-.874 2.78-1.467.876-.592 1.7-1.26 2.473-2.008.772-.746 1.468-1.48 2.086-2.2-.617-.67-1.34-1.404-2.162-2.203zM79 14H21c-3.866 0-7 3.134-7 7v58c0 3.866 3.134 7 7 7h58c3.866 0 7-3.134 7-7V21c0-3.866-3.134-7-7-7zm-1.292 41.102c-.618 1.75-1.494 3.282-2.627 4.596-1.133 1.312-2.537 2.344-4.21 3.09s-3.54 1.12-5.6 1.12c-1.597 0-3.09-.245-4.48-.734-1.392-.49-2.693-1.132-3.902-1.93-1.21-.8-2.356-1.726-3.438-2.782-1.08-1.055-2.112-2.15-3.09-3.282-1.082 1.133-2.138 2.227-3.168 3.282-1.03 1.057-2.124 1.982-3.284 2.78-1.16.8-2.42 1.442-3.785 1.932-1.365.49-2.897.733-4.597.733-2.112 0-3.992-.373-5.64-1.12-1.65-.745-3.065-1.75-4.25-3.012-1.185-1.26-2.085-2.768-2.703-4.52-.618-1.75-.927-3.63-.927-5.638s.295-3.873.888-5.6c.59-1.725 1.455-3.217 2.588-4.48 1.132-1.26 2.523-2.264 4.172-3.012 1.648-.745 3.502-1.12 5.562-1.12 1.7 0 3.257.26 4.674.774 1.416.514 2.73 1.195 3.94 2.045 1.21.85 2.343 1.83 3.4 2.935 1.054 1.108 2.097 2.278 3.128 3.515.977-1.185 1.995-2.343 3.05-3.476 1.056-1.134 2.19-2.126 3.4-2.976 1.21-.85 2.523-1.53 3.94-2.046 1.416-.515 2.948-.773 4.597-.773 2.06 0 3.914.36 5.562 1.08 1.647.723 3.038 1.714 4.172 2.975 1.13 1.262 2.007 2.742 2.626 4.44.618 1.7.927 3.554.927 5.562s-.306 3.89-.925 5.64z"/></g></svg>