<svg xmlns="http://www.w3.org/2000/svg" width="100" height="100" viewBox="0 0 100 100"><path d="M49.165 39.83c-4.657 3.568-9.147 7.374-14.374 10.133-.804.424-1.616.818-2.503 1.064-2.403.664-4.022 2.848-3.995 5.316.027 2.404 1.728 4.602 4.035 5.21 2.397.633 5.02-.335 6.117-2.565 1.44-2.94 3.917-4.77 6.447-6.576.98-.698 1.348-.6 2.137.34.88-1.788 1.74-3.53 2.602-5.285.267.158.205.327.167.455-1.433 4.97-2.683 9.996-4.333 14.9-.362 1.08-.887 1.932-1.946 2.604-2.8 1.774-3.51 5.462-1.78 8.305 1.687 2.774 5.243 3.747 8.16 2.23 2.886-1.498 4.16-5.016 2.73-7.97-.51-1.06-.545-2.005-.266-3.056.733-2.78 1.176-5.658 2.69-8.183.67-1.115 1.463-2.125 2.564-2.85 1.274-.84 2.244-.668 3.166.537 1.108 1.45 1.66 3.04 1.506 4.908-.21 2.553 1.348 4.816 3.712 5.617 2.31.787 4.852-.047 6.253-2.044 1.464-2.086 1.402-4.72-.332-6.697-1.984-2.268-4.127-4.39-5.935-6.814-3.092-4.147-3.367-8.433-.753-12.913 1.425-2.437 2.8-4.904 4.218-7.347 1.265-2.175 2.85-4.06 5.09-5.302 1.894-1.05 3.757-1.246 5.677.016 1.23.81 2.566 1.455 3.838 2.2 2.888 1.696 4.422 4.223 4.43 7.577.02 10.938.02 21.873-.002 32.806-.008 3.282-1.496 5.83-4.325 7.442-9.868 5.63-19.764 11.21-29.668 16.776-2.933 1.65-5.955 1.657-8.89.014-9.966-5.585-19.926-11.18-29.85-16.836-2.76-1.572-4.23-4.072-4.235-7.29-.02-11.028-.018-22.06 0-33.088.006-3.18 1.436-5.686 4.16-7.238 10.053-5.743 20.143-11.43 30.263-17.06 2.595-1.44 5.385-1.38 8.06-.08 1.552.753 3.02 1.672 4.516 2.533 1.19.682 1.715 1.797 1.872 3.1.28 2.303-.282 4.428-1.402 6.42-1.368 2.433-2.693 4.898-4.153 7.277-2.64 4.3-6.46 6.925-11.48 7.723-3.205.506-6.39.077-9.57-.28-2.353-.267-4.523.997-5.31 3.16-.803 2.21.016 4.576 2.015 5.827 1.977 1.233 4.445.93 6.1-.826 1.04-1.1 2.44-1.04 3.742-1.266 1.015-.178 2.056-.212 3.09-.27.37-.02.655-.187.957-.345 1.556-.818 3.106-1.635 4.657-2.458.044.055.09.1.135.152z"/></svg>