<svg xmlns="http://www.w3.org/2000/svg" width="100" height="100" viewBox="0 0 100 100"><g fill="#231F20"><path d="M45.718 55.325c-3.727-1.408-7.23-3.226-10.202-5.4-.077-.057-.157-.112-.233-.17-.433-.32-.85-.653-1.26-.99-.106-.088-.21-.178-.315-.267-.353-.3-.697-.606-1.03-.92-.062-.057-.127-.114-.188-.172-.373-.357-.73-.724-1.074-1.096-.09-.098-.18-.197-.268-.296-.305-.34-.598-.685-.877-1.037-.04-.052-.084-.102-.124-.154-.306-.393-.59-.796-.862-1.204-.07-.105-.137-.21-.204-.316-.246-.385-.48-.774-.693-1.17-.02-.04-.045-.078-.066-.118-.226-.43-.427-.867-.614-1.31-.047-.11-.09-.22-.135-.332-.17-.434-.33-.872-.462-1.318l-.02-.06c-.135-.463-.24-.934-.33-1.41-.023-.117-.044-.234-.063-.352-.08-.482-.144-.968-.176-1.464-.043-.665-.056-1.318-.048-1.963.002-.2.018-.392.025-.59.016-.446.04-.89.08-1.328.022-.22.052-.436.08-.653.05-.412.112-.82.188-1.225.04-.21.083-.42.13-.63.09-.412.197-.82.314-1.223.052-.184.103-.367.162-.548.148-.454.316-.9.5-1.34.048-.12.09-.243.143-.362.77-1.752 1.82-3.4 3.185-4.943l-15.07 3.608c-3.027.724-4.895 3.765-4.17 6.793l12.534 52.42c.725 3.028 3.766 4.897 6.793 4.172l6.45-1.543c-2.503-.83-6.832-2.41-10.98-4.623L32.85 68.15s7.08 6.304 17.243 6.304c10.165 0 14.682-11.93-4.375-19.13zM87.96 68.632l-12.535-52.42c-.723-3.03-3.765-4.896-6.793-4.172l-10.797 2.58c.86.137 1.984.347 3.307.668.313.076.64.16.975.25.117.03.237.063.357.096.24.066.488.136.738.21.13.037.26.074.394.114.353.106.714.218 1.083.34.115.037.236.08.354.12.276.092.556.188.84.29.16.056.32.114.48.173.286.106.576.216.868.33.133.052.263.1.397.154.405.162.817.335 1.234.515.14.06.285.126.428.19.314.14.63.283.95.433.146.07.293.138.44.21.452.22.906.444 1.365.685l-4.702 13.03s-3.913-4.37-14.405-4.903c-9.974-.504-15.522 10.285 3.93 16.647.574.188 1.128.384 1.67.585.15.055.3.112.447.17.42.16.832.323 1.234.49.124.052.25.102.37.154.508.22 1.004.442 1.484.672l.18.09c.42.203.825.41 1.222.622.12.063.236.127.353.19.378.21.75.42 1.108.637.064.04.13.077.194.116.424.26.833.523 1.23.792l.2.14c.328.227.646.457.954.69.084.064.17.127.252.192.357.276.706.556 1.038.84 5.63 4.836 7.638 10.852 7.476 16.563-.128 4.513-1.707 8.184-3.538 10.953l11.048-2.64c3.025-.724 4.892-3.767 4.17-6.794z"/></g></svg>