<svg xmlns="http://www.w3.org/2000/svg" width="100" height="100" viewBox="0 0 100 100"><path d="M81.433 68.316c-1.245-1.03-2.883-1.582-4.507-2.443 1.247-6.475-1.226-11.717-6.17-16.113-2.453-2.184-4.67-4.638-6.934-7.027-2.06-2.176-4.038-4.43-6.348-6.976l-6.986 7.634c.418.32.987.656 1.438 1.11 4.596 4.62 9.167 9.27 13.76 13.895 1.703 1.715 2.34 3.752 1.544 6.012-.786 2.234-2.49 3.82-4.89 3.75-1.73-.05-3.433-.927-5.164-1.44-1.97 1.94-4.17 4.105-6.474 6.37 4.344 4.494 9.656 5.625 15.73 4.275.853 3.877 3.5 5.938 6.804 7.368h4.652c.324-.168.638-.363.975-.5 6.762-2.763 8.183-11.27 2.57-15.914zM56.4 51.27c-.29.41-.625 1.065-1.122 1.558-4.63 4.592-9.27 9.173-13.943 13.722-2.322 2.26-5.26 2.342-7.65.31-2.308-1.962-2.667-5.088-.87-7.652.283-.403.6-.783.745-.97l-6.73-6.794c-4.256 4.05-5.51 9.106-4.457 14.934-4.266 1.21-6.417 4.19-7.282 8.273v1.94c.94 4.086 3.358 6.83 7.366 8.14h4.264c2.657-1.11 5.172-2.475 6.204-5.362.52-1.45 1.195-1.79 2.67-1.595 4.76.63 8.983-.766 12.37-4.13 5.173-5.137 10.19-10.434 15.56-15.96L56.4 51.27zM35.946 42.96l6.537 6.358c2.867-2.89 5.67-5.742 8.507-8.56 2.288-2.274 4.57-4.554 6.94-6.743 2.056-1.9 4.53-2.146 6.76-.85 2.125 1.235 3.316 3.697 2.677 6.104-.318 1.196-1.12 2.265-1.673 3.337l6.65 6.67c4.362-4.22 5.63-9.398 4.41-15.265 6.023-2.594 8.532-5.794 8.056-10.204-.457-4.23-3.475-7.902-7.386-8.34-1.958-.22-4.138.098-5.998.775-3.06 1.114-4.47 3.87-5.263 6.897-.565-.045-.955-.033-1.325-.112-4.585-.97-8.977-.134-12.308 2.99-5.727 5.37-11.017 11.206-16.584 16.942zM22.564 33.8c-1.655 6.86.583 12.262 5.552 16.802 2.38 2.176 4.605 4.527 6.86 6.837 2.244 2.298 4.438 4.645 6.653 6.97 2.478-2.452 4.658-4.606 6.917-6.84-.526-.554-1-1.065-1.49-1.563-4.567-4.65-9.163-9.274-13.7-13.955-2.185-2.256-2.242-5.44-.27-7.695 2.056-2.347 5.237-2.633 7.812-.705.34.255.69.496.632.455l6.786-6.805c-3.857-3.83-8.686-5.32-14.26-4.3-2.73-6.083-5.455-8.083-10.413-7.68-3.768.304-7.274 3.066-8.018 6.786-1.162 5.824 1.47 9.66 6.937 11.69z"/></svg>