<svg xmlns="http://www.w3.org/2000/svg" width="100" height="100" viewBox="0 0 100 100"><path fill="#231F20" d="M97.017 82.01v-4.62h-.002l.002-.018c-.01-1.335-1.092-2.407-2.42-2.417v-.003h-7.512l-33.037-57.22-.013.008c-.732-1.503-2.26-2.547-4.044-2.547-1.83 0-3.4 1.096-4.107 2.665L12.92 74.95H5.386c-1.347 0-2.44 1.092-2.44 2.44v4.862h.012c-.002.04-.012.075-.012.114 0 1.347 1.092 2.44 2.44 2.44h89.21V84.8c.013 0 .024.005.037.004 1.346-.01 2.43-1.11 2.42-2.458 0-.114-.02-.224-.036-.336zM47.513 25.16h4.977l5.748 9.956H41.765l5.748-9.957zM36.017 45.07h27.97l5.75 9.957h-39.47l5.75-9.958zm-17.25 29.88l5.747-9.958H75.49l5.748 9.957H18.766z"/></svg>