<svg xmlns="http://www.w3.org/2000/svg" width="100" height="100" viewBox="0 0 100 100"><path d="M78.84 51.036c7.793 0 14.112-6.294 14.112-14.06 0-7.766-6.32-14.062-14.11-14.062-7.8 0-14.12 6.297-14.12 14.06 0 7.768 6.32 14.062 14.12 14.062z"/><ellipse cx="47.046" cy="40.984" rx="12.703" ry="12.656"/><path d="M18.214 55.984c6.313 0 11.433-5.096 11.433-11.386 0-6.292-5.12-11.39-11.433-11.39-6.315 0-11.433 5.098-11.433 11.39 0 6.29 5.118 11.386 11.434 11.386zM18.214 58.585c-7.25 0-12.565 6.363-12.565 12.936v4.426c0 .626.51 1.14 1.14 1.14H29.635c.632 0 1.144-.514 1.144-1.14V71.52c0-6.572-5.315-12.935-12.564-12.935zM47.046 56.526c-8.055 0-13.962 7.07-13.962 14.376v4.917c0 .694.57 1.266 1.27 1.266H59.735c.702 0 1.27-.57 1.27-1.267V70.9c0-7.304-5.905-14.376-13.96-14.376zM78.84 54.243c-8.95 0-15.513 7.856-15.513 15.974v5.462c0 .772.632 1.406 1.41 1.406h28.2c.782 0 1.414-.635 1.414-1.407v-5.463c0-8.117-6.56-15.974-15.51-15.974z"/></svg>