<svg xmlns="http://www.w3.org/2000/svg" width="100" height="100" viewBox="0 0 100 100"><path d="M90.326 30.746C80.5 31.03 68.638 23.322 64.04 20.42c-.426-.27-.86-.52-1.3-.743-.482-.268-.98-.517-1.478-.76v28.36h-.014c.018 2.54-.736 5.216-2.324 7.783l-.14.226c-4.593 7.427-14.257 11.756-23.32 8.695-8.804-2.975-11.155-11.5-6.494-19.04l.14-.227C33.7 37.29 43.365 32.96 52.43 36.02c.698.236 1.343.517 1.956.823v-20.51c-3.245-.878-6.687-1.38-10.313-1.38-20.98 0-36.555 15.7-36.555 35.047v.252c0 19.346 15.45 34.797 36.304 34.797C64.8 85.047 80.378 69.346 80.378 50v-.25c0-1.51-.105-2.988-.287-4.443 10.928-2.85 15.433-14.155 10.236-14.56z"/></svg>