<svg xmlns="http://www.w3.org/2000/svg" width="100" height="100" viewBox="0 0 100 100"><path d="M78.404 46.408l-5.97-1.306c-4.104-.932-5.316-2.61-5.316-5.41 0-3.17 2.518-5.037 6.622-5.037 4.478 0 6.903 1.68 7.276 5.69l9.328-1.12C89.598 30.83 83.814 27.38 74.3 27.38c-8.395 0-16.604 3.172-16.604 13.34 0 6.344 3.078 10.354 10.82 12.22l6.344 1.492c4.757 1.12 6.342 3.08 6.342 5.784 0 3.45-3.357 4.85-9.7 4.85-9.422 0-13.34-4.943-15.58-11.753l-3.077-9.326C48.928 31.857 42.678 27.378 30.27 27.378c-13.712 0-20.988 8.676-20.988 23.414 0 14.18 7.276 21.828 20.336 21.828 10.54 0 15.578-4.944 15.578-4.944L42.21 59.56s-4.85 5.412-12.125 5.412c-6.437 0-11.008-5.598-11.008-14.553 0-11.475 5.783-15.58 11.474-15.58 8.21 0 10.82 5.318 13.06 12.128l2.985 9.328c2.984 9.048 8.58 16.324 24.72 16.324 11.567 0 19.402-3.545 19.402-12.873 0-7.555-4.29-11.473-12.313-13.34z"/></svg>