<svg xmlns="http://www.w3.org/2000/svg" width="100" height="100" viewBox="0 0 100 100"><path d="M77.5 49.72c-.035 0-.068.008-.103.01v-.01h-55v.01c-1.608.055-2.897 1.367-2.897 2.99 0 1.62 1.29 2.933 2.897 2.99v.01h55v-.01c.035 0 .068.01.103.01 1.657 0 3-1.344 3-3 0-1.658-1.343-3-3-3zM70.928 59.47h-7.14v.01c-.035-.002-.07-.01-.105-.01-.863 0-1.562.698-1.562 1.56 0 .127.02.248.048.366h-.018c.092.393.157.802.157 1.25 0 3.818-3.14 7.807-11.288 7.807-7.742 0-13.843-3.592-17.68-7.653-.285-.373-.73-.617-1.236-.617-.528 0-.992.264-1.275.664l-.002-.002-.01.015-.02.03-3.424 5.21.003.002c-.245.276-.398.635-.398 1.033 0 .515.252.97.636 1.253 5.09 5.205 12.61 8.89 22.978 8.89 15.19 0 21.896-8.146 21.896-17.567 0-.17-.01-.334-.018-.5.007-.06.018-.118.018-.18 0-.862-.7-1.56-1.562-1.56zM31.868 45.677c.27.47.77.792 1.35.792h23.543c.278 0 .503-.226.503-.503s-.225-.502-.502-.502v-.008c-8.47-2.48-17.2-3.403-17.2-8.866 0-4.158 3.735-7.043 9.506-7.043 5.94 0 11.967 2.037 16.465 6.535l.007-.008c.272.23.62.375 1.005.375.49 0 .923-.232 1.21-.585l.002.003.028-.04c.028-.036.056-.073.08-.113l3.41-4.788h-.003c.244-.277.397-.636.397-1.034 0-.473-.215-.892-.547-1.178l.01-.015c-5.174-5.094-12.388-7.98-21.13-7.98-12.476 0-20.623 7.214-20.623 16.634 0 3.5.94 6.195 2.49 8.323z"/></svg>