<svg xmlns="http://www.w3.org/2000/svg" width="100" height="100" viewBox="0 0 100 100"><path fill="#231F20" d="M79.048 14H20.952C17.128 14 14 17.128 14 20.952v58.096C14 82.872 17.128 86 20.952 86h58.096C82.872 86 86 82.872 86 79.048V20.952C86 17.128 82.872 14 79.048 14zM74.41 36.852c-.565 2.938-4.314 13.22-11.107 22.297-2.97 3.834-6.442 7.602-10.897 10.204-1.643.96-4.893 2.172-7.052 1.266-1.512-.628-2.672-1.954-3.6-3.616-1.673-2.998-2.578-7.097-3.363-10.206-.723-2.85-1.403-5.558-2.29-8.036-.515-1.455-.83-2.927-1.43-4.325l-.01-.014c.005.004.007.01.01.014l-.07-.104.06.09c-.166-.39-.35-.772-.575-1.147-1.7-2.828-4.133-.11-6.686-.48-.69-.1-1.21-.596-1.55-1.122-.194-.3.15-.612-.85-.864v-.275c4-2.916 7.17-6.455 11.46-8.94 1.346-.78 3.737-1.667 5.59-1.128 1.46.422 2.793 1.78 3.51 3.752.133 0 .25.65.34.94.717 2.214 1.1 5.043 1.465 7.194.577 3.387.48 8.63 2.415 11.59.256 0 .545.686.876 1.038 3.17 3.345 5.587-1.36 6.878-3.724 1.116-2.053 2.115-4.22 2.288-6.173.1-1.107.045-2.004-.15-2.7-.553-1.972-2.255-2.445-4.92-2.354-.34.013-.695.028-1.065.057 2.424-7.428 9.553-10.53 11.658-10.85 2.593-.39 6.372-.31 8.15 1.908.355.44.61.927.79 1.436.455 1.314.39 2.806.125 4.27z"/></svg>