<svg xmlns="http://www.w3.org/2000/svg" width="100" height="100" viewBox="0 0 100 100"><path d="M93.246 44.073l.73-15.993H62.702l-1.563 8.465v-6.128h-17.17v7.947h-5.568V40.1c-3.27-2.575-8.317-2.712-12.11-1.3V28.08H3.55v15.04h2.957v12.865H3.55v14.903h60.542v-1.955c3.732 2.115 8.155 2.986 12.412 2.986 5.88 0 10.547-1.77 13.888-4.52 3.46-2.848 5.606-7.443 5.994-12.13.33-4.008-.623-8.085-3.14-11.197zm-45.334-9.71h9.28v6.255h-9.28v-6.255zm-6.264 32.58H25.36v-7.01h1.558V51.37c0-4.036-4.575-2.61-4.575 4.052v4.51h1.375v7.01H7.498v-7.01h2.954V39.175H7.497v-7.148h14.846V47.18c1.955-3.15 4.606-5.295 8.998-5.295 6.222 0 7.155 5.39 7.155 7.53v10.517h3.152v7.01zm18.498 0H42.413v-7.01H45.3v-10.45h-2.956V42.31H57.19v17.62h2.956v7.013zm16.358 1.03c-6.803 0-12.444-2.53-14.475-6.277-2.1-3.868-.453-9.84 4.656-9.85 3.333-.005 5.436 1.478 4.732 5.284-.884 2.564.797 3.414 2.423 3.414 2.465 0 4.337-2.837 4.465-5.733.12-2.72-1-5.365-3.508-5.394-1.017-.012-2.227.37-3.38 1.778l-8.77-1.183 3.324-17.984h23.887l-.43 9.416H73.663l-.362 3.016c2.268-1.005 4.985-1.69 7.483-1.69 6.628 0 11.978 3.344 11.667 12.078 0 6.738-5.512 13.128-15.946 13.128z"/></svg>