<svg xmlns="http://www.w3.org/2000/svg" width="100" height="100" viewBox="0 0 100 100"><path fill="#050708" d="M90.624 66.304C88.44 58.498 81.72 53.184 73.71 52.89c-1.315-.05-2.246-.642-2.768-1.782-.873-1.91-.825-3.857.09-5.752.855-1.768 1.788-3.498 2.615-5.28 1.093-2.352 1.786-4.753 1.303-7.435-.572-3.185-2.348-5.564-4.615-7.67-3.786-3.518-8.42-5.38-13.33-6.632-3.276-.83-5.17-2.894-5.898-6.13-.204-.905-.38-1.815-.57-2.726-.332.528-.422 1.053-.48 1.58-.468 4.474 1.55 7.813 5.688 9.433.487.188.98.36 1.458.567 3.12 1.337 6.103 2.878 8.448 5.42 3.19 3.464 3.46 6.985.776 10.81-1.56 2.225-3.585 4.088-5.046 6.62-.067-.356-.093-.507-.122-.655-.63-3.022-1.328-6.016-3.086-8.656-3.785-5.67-8.855-9.773-15.038-12.58-2.406-1.093-4.82-2.157-6.77-4.07-3.494-3.42-4.804-7.582-4.52-12.354h-.48c.01.157.05.318.025.473-1.33 7.802.98 14.317 6.874 19.6 2.26 2.023 4.78 3.653 7.396 5.156 3.435 1.975 5.693 4.82 6.158 8.84.244 2.11.253 4.245.408 6.367.06.78-.424.508-.768.456-4.072-.636-7.94-1.887-11.692-3.6-3.792-1.73-6.243-4.536-7.444-8.49-.233-.767-.485-1.532-.714-2.3-.816-2.723-1.428-5.517-2.653-8.106-1.14-2.408-2.727-4.49-5.382-5.188-5.015-1.32-9.94-.958-14.63 1.432-.24.12-.543.22-.41.602.223.195.453.05.68.012 2.508-.437 4.998-.496 7.54-.085 5.07.816 8.188 3.558 9.154 8.667.32 1.692.834 3.354 1.12 5.05 1.537 9.108 6.444 15.83 14.34 20.473 1.58.927 3.132 1.905 4.908 2.99-2.072.372-3.938.72-5.808 1.048-3.875.676-7.755 1.32-11.715 1.094-2.15-.12-4.088-.592-4.943-2.9-.252-.675-.493-1.36-.656-2.058-.987-4.24-.8-8.553-.628-12.838.187-4.564-2.917-8.45-7.45-8.964-.22-.023-.536-.143-.687.122 2.47 1.934 4.376 4.14 4.103 7.482-.138 1.674-.47 3.336-.768 4.994-.735 4.078-1.42 8.158-.813 12.322.587 4.023 2.304 7.344 6.01 9.35 2.296 1.244 4.777 1.816 7.39 1.898 4.686.146 9.282-.672 13.877-1.352 4.19-.62 6.91 1.09 7.658 5.25.14.788.235 1.59.284 2.39.3 4.938 1.99 9.312 5.376 12.952 4.094 4.395 9.272 6.29 15.128 5.488 9.154-1.254 14.866-6.853 17.803-15.406 1.413-4.113 1.352-8.34.184-12.516z"/></svg>