<svg xmlns="http://www.w3.org/2000/svg" width="100" height="100" viewBox="0 0 100 100"><g fill-rule="evenodd" clip-rule="evenodd" fill="#231F20"><path d="M82.047 36.84c-4.124-5.138-9.91-8.11-15.372-8.11-7.226 0-10.28 3.432-15.292 3.432-5.167 0-9.096-3.428-15.346-3.428-6.14 0-12.666 3.73-16.804 10.102-5.823 8.962-4.837 25.824 4.605 40.193 3.377 5.137 7.887 10.915 13.784 10.97 5.24.048 6.724-3.343 13.835-3.383 7.112-.04 8.457 3.42 13.697 3.37 5.897-.055 10.655-6.453 14.03-11.592 2.42-3.68 3.32-5.54 5.2-9.702-13.652-5.158-15.847-24.447-2.337-31.852zM61.194 22.988C63.82 19.62 65.814 14.862 65.09 10c-4.29.296-9.305 3.023-12.233 6.58-2.658 3.228-4.853 8.015-4 12.668 4.682.145 9.526-2.652 12.337-6.26z"/></g></svg>