<svg xmlns="http://www.w3.org/2000/svg" width="100" height="100" viewBox="0 0 100 100"><path d="M91.532 39.844c-.278-.804-1.036-1.343-1.888-1.343H61.482l-9.597-27.158c-.284-.8-1.04-1.334-1.886-1.334-.847 0-1.603.534-1.886 1.334l-9.598 27.16h-28.16c-.85 0-1.608.538-1.89 1.342-.278.804-.018 1.698.65 2.226l21.987 17.41-9.84 27.845c-.28.795-.03 1.682.62 2.215.654.536 1.573.603 2.297.167L49.998 74.22l25.818 15.487c.317.19.677.285 1.032.285.447 0 .898-.152 1.266-.452.65-.533.9-1.42.62-2.215l-9.84-27.846 21.992-17.41c.667-.528.927-1.422.646-2.226z"/></svg>