<svg xmlns="http://www.w3.org/2000/svg" width="100" height="100" viewBox="0 0 100 100"><g fill="#231F20"><path d="M60.623 18.128l3.36-6.136c.18-.322.062-.733-.262-.91-.328-.178-.733-.055-.906.266l-3.396 6.197c-2.856-1.267-6.053-1.98-9.432-1.978-3.373-.003-6.564.707-9.41 1.972l-3.4-6.185c-.173-.326-.583-.445-.903-.267-.326.174-.446.583-.265.905l3.362 6.13c-6.606 3.408-11.068 9.893-11.064 17.34l43.365-.003c.003-7.446-4.45-13.92-11.047-17.332zm-20.5 9.48c-.998 0-1.81-.814-1.81-1.817 0-.997.812-1.817 1.812-1.817 1.006 0 1.82.82 1.82 1.818 0 1.004-.814 1.82-1.82 1.82zm19.747-.003c-1.002 0-1.82-.81-1.818-1.818 0-.996.814-1.816 1.818-1.82.997.002 1.815.824 1.815 1.822 0 1.002-.813 1.815-1.815 1.815zM83.01 41.038c0-2.66-2.156-4.814-4.816-4.814-2.658-.002-4.813 2.156-4.812 4.816l.002 20.16c0 2.66 2.155 4.814 4.816 4.812 2.658 0 4.81-2.15 4.812-4.815l-.003-20.16zM71.523 37.13l-43.04.01.008 31.24c0 .82.208 1.58.547 2.267.837 1.697 2.567 2.872 4.59 2.872h3.5l.003 10.665c0 .332.034.656.098.97.448 2.193 2.39 3.845 4.712 3.845.332 0 .657-.034.97-.098 2.195-.45 3.846-2.393 3.846-4.718l-.003-10.666h6.5v10.666c.002 2.323 1.656 4.268 3.847 4.715.313.063.637.096.97.096 2.66.002 4.814-2.16 4.814-4.817l-.003-10.663 3.512-.002c.96 0 1.85-.28 2.62-.742 1.5-.897 2.518-2.52 2.52-4.398l-.01-31.244zM21.8 36.23c-2.658 0-4.812 2.158-4.813 4.813l.003 20.16c0 1.684.862 3.157 2.164 4.018.76.505 1.67.8 2.65.803 2.33-.003 4.27-1.65 4.717-3.847.065-.314.098-.64.098-.972V41.042c0-2.657-2.158-4.813-4.817-4.813z"/></g></svg>