<svg xmlns="http://www.w3.org/2000/svg" width="100" height="100" viewBox="0 0 100 100"><g fill="#231F20"><path d="M66.746 37.902l.26 15.744-9.163-14.804-.582-.94H51.79V62.903h6.108l-.262-15.18 9.672 15.18h5.547v-25h-6.11zM79 14H21c-3.85 0-7 3.15-7 7v58c0 3.85 3.15 7 7 7h31.825L24.843 63.556V36.902h10.529c3.975 0 6.096.493 8.394 1.945 1.26.77 2.41 1.865 3.327 3.156.377.523.703 1.07.993 1.637l2.703 2.014V36.9h7.028l.293.475.105.167 7.625 6.025-.094-5.65-.017-1.017H73.855v.01L86 46.753V21c0-3.85-3.15-7-7-7zM40.842 38.546c-1.324-.434-2.86-.613-5-.636-.16-.002-.304-.008-.47-.008h-8.397v25.001h9.822c7.085 0 11.77-5.023 11.77-12.595 0-3.072-.75-5.586-2.285-7.72-.172-.244-.36-.475-.55-.703-.133-.16-.273-.31-.414-.46-.08-.086-.16-.172-.243-.256-.124-.125-.25-.245-.378-.362-.127-.116-.257-.226-.388-.334-.103-.084-.202-.17-.306-.248-.247-.188-.5-.366-.76-.526-.262-.167-.522-.32-.783-.458-.243-.13-.488-.248-.736-.357-.017-.007-.033-.017-.05-.024-.272-.116-.547-.22-.832-.314zm1.35 11.95c0 4.387-2.135 6.786-6.108 6.786h-2.737V43.524h2.774c3.9 0 6.073 2.513 6.073 6.972z"/></g></svg>