<svg xmlns="http://www.w3.org/2000/svg" width="100" height="100" viewBox="0 0 100 100"><path d="M73.213 38.25c-1.478 0-2.886.285-4.19.782L38.5 21.408c.017-.26.04-.517.04-.78 0-6.49-5.262-11.75-11.75-11.75-6.49 0-11.75 5.26-11.75 11.75s5.26 11.75 11.75 11.75c2.562 0 4.926-.83 6.857-2.223L61.988 46.52c-.34 1.1-.525 2.27-.525 3.48 0 1.233.19 2.42.543 3.535L33.693 69.88c-1.94-1.413-4.32-2.257-6.906-2.257-6.49 0-11.75 5.26-11.75 11.75s5.26 11.75 11.75 11.75 11.75-5.26 11.75-11.75c0-.243-.022-.48-.036-.72l30.59-17.66c1.285.48 2.67.757 4.123.757 6.49 0 11.75-5.26 11.75-11.75s-5.26-11.75-11.75-11.75z"/></svg>