<svg xmlns="http://www.w3.org/2000/svg" width="100" height="100" viewBox="0 0 100 100"><path d="M23.85 26.072h7.336c.42 0 .76-.342.76-.758 0-.004-.09-6.286-.09-8.033v-.02c0-1.436.302-2.686.827-3.735l.25-.47c-.027.004-.055.018-.083.047L18.605 27.226c-.028.022-.045.052-.054.083.296-.148.7-.346.756-.37 1.24-.56 2.745-.868 4.545-.868zM80.894 24.535c-.582-3.117-2.435-4.654-4.11-5.258-1.81-.653-5.475-1.33-10.08-1.873-3.707-.436-8.06-.4-10.692-.32-.316-2.162-1.833-4.138-3.53-4.822-4.522-1.818-11.51-1.38-13.303-.878-1.426.398-3.004 1.216-3.882 2.474-.59.84-.97 1.917-.974 3.42 0 .853.024 2.857.045 4.64.02 1.788.044 3.386.044 3.398 0 1.59-1.29 2.887-2.89 2.89h-7.33c-1.565 0-2.76.263-3.673.677-.913.414-1.56.975-2.052 1.637-.98 1.312-1.15 2.936-1.145 4.592 0 0 .014 1.352.34 3.97.27 2.027 2.468 16.183 4.555 20.486.81 1.674 1.35 2.372 2.938 3.11 3.542 1.517 11.633 3.204 15.424 3.687 3.785.484 6.16 1.503 7.577-1.467.004-.006.283-.738.667-1.81 1.23-3.724 1.4-7.03 1.4-9.42 0-.243.356-.255.356 0 0 1.69-.323 7.662 4.19 9.265 1.782.632 5.48 1.195 9.234 1.635 3.396.39 5.86 1.73 5.86 10.44 0 5.3-1.113 6.026-6.933 6.026-4.718 0-6.516.122-6.516-3.626 0-3.028 2.997-2.712 5.217-2.712.993 0 .273-.737.273-2.606 0-1.86 1.163-2.934.063-2.962-7.678-.21-12.196-.01-12.196 9.594 0 8.717 3.336 10.337 14.234 10.337 8.544 0 11.556-.28 15.084-11.228.698-2.162 2.386-8.756 3.41-19.83.646-7.002-.608-28.133-1.604-33.467zM66 47.892c-1.056-.037-2.07.028-3.018.182.268-2.153 1.155-4.793 4.3-4.682 3.484.12 3.973 3.41 3.985 5.642-1.47-.656-3.287-1.073-5.267-1.142z"/></svg>