<svg xmlns="http://www.w3.org/2000/svg" width="100" height="100" viewBox="0 0 100 100"><g fill="#231F20"><path d="M66.078 14.577c-5.087-2.312-10.495-3.495-16.08-3.495-4.65 0-9.22.894-13.62 2.542 1.03.936 28.368 25.748 29.7 26.96V14.576zM29.924 83.39V49.857C28.62 51.045 14.26 64.095 13.81 64.5c3.126 7.84 8.832 14.487 16.114 18.89zM11 50.082c0 3.35.505 6.757 1.416 10.132l34.57-31.408-14.76-13.398C19.134 22.128 11 35.378 11 50.082zM34.02 67.034V85.64c3.964 1.775 8.11 2.884 12.377 3.278h7.16c13.472-1.256 25.5-9.56 31.475-21.885H34.02zM70.19 16.813v46.11h16.597C88.24 58.768 89 54.45 89 50.084c0-13.554-7.206-26.207-18.81-33.27z"/></g></svg>