<svg xmlns="http://www.w3.org/2000/svg" width="100" height="100" viewBox="0 0 100 100"><path d="M19.4 62.222H8.023c-.17-.036-.344-.056-.525-.056-1.236 0-2.262.885-2.488 2.056H4.96v11h.076c.238.992 1.056 1.75 2.078 1.906v.094h17v-.06c1.74-.022 3.23-1.01 4.002-2.444L38.63 64.206 28.024 53.6 19.4 62.22zM94.65 30.776l-18.613-13.26c-.393-.28-.89-.315-1.32-.094-.427.22-.687.662-.687 1.146l.002 5.6H59.116v.025c-1.066.06-2.03.476-2.78 1.138l-.022-.02L45.722 35.9 56.33 46.507l7.34-7.34h10.368l.002 6.004c0 .482.27.925.7 1.147.43.222.946.183 1.34-.1l18.576-13.345c.338-.24.46-.63.46-1.046v-.003c0-.417-.125-.806-.465-1.047zM94.578 67.126L76.002 53.78c-.394-.28-.91-.318-1.34-.098-.428.223-.7.665-.7 1.146v6.005H63.59L28.04 25.28c-.772-1.434-2.263-2.42-4-2.44v-.062h-17v.094c-1.023.156-1.84.914-2.08 1.906h-.076v11h.05c.224 1.17 1.25 2.056 2.487 2.056.18 0 .356-.02.526-.056h11.378L56.237 74.69l.02-.02c.754.662 1.717 1.078 2.783 1.138v.026h14.916l-.002 5.6c0 .483.26.927.688 1.145.43.222.926.186 1.32-.094l18.613-13.26c.34-.242.465-.63.465-1.05v-.003c0-.415-.124-.806-.462-1.047z"/></svg>