<svg xmlns="http://www.w3.org/2000/svg" width="100" height="100" viewBox="0 0 100 100"><path fill-rule="evenodd" clip-rule="evenodd" fill="#231F20" d="M89.782 77.807L79.567 76.56l1.136-8.964 10.215 1.246-1.136 8.965zM100 23.438l-17.48-2.155.11 40.522 7.608 1.02L100 23.437zM64.813 30.477c-7.038-5.336-16.118-7.94-27.13-7.94-11.123 0-20.203 2.604-27.126 7.94C3.52 35.695 0 42.397 0 50.68c0 8.4 3.52 15.213 10.557 20.435 5.742 4.33 12.97 6.865 21.615 7.602h10.98c8.583-.736 15.823-3.27 21.662-7.602 6.923-5.223 10.44-12.035 10.44-20.435 0-8.284-3.518-14.985-10.44-20.203zm-5.222 13.28l-5.334 1.136c-.793.225-2.95 1.816-6.696 4.88-3.974 3.18-6.017 5.222-6.356 6.243l-.227 2.84-.114 1.703.455 4.31 7.038.11-.115 2.158H36.777l-10.216.114.34-2.043 3.293-.11c1.703-.12 2.726-.344 3.064-.686.228-.227.34-1.59.34-3.973v-1.474l-.112-2.95c-.228-.68-2.044-3.18-5.562-7.493-3.632-4.426-6.015-7.037-7.15-7.947l-6.584-.904V37.74c.34-.225 3.972-.225 10.668-.113 4.654-.11 8.513-.11 11.58.113l-.23 1.592-6.924.678c2.157 3.18 5.45 7.605 9.876 13.17 5.79-4.43 8.854-7.268 8.966-8.518l-5.9-.906-.454-2.04h9.874l9.308.112-1.363 1.928z"/></svg>