<svg xmlns="http://www.w3.org/2000/svg" width="100" height="100" viewBox="0 0 100 100"><ellipse cx="50.156" cy="56.277" rx="19.383" ry="13.568"/><path d="M77.132 38.34c-7.063-4.91-15.964-7.332-24.577-7.78-10.167-.102-20.04 1.224-29.082 7.514v-19.34h-11.32v35.044c-.13 14.675 9.747 20.96 22.465 25.78 4.62 1.14 9.74 1.71 15.36 1.71 5.526 0 10.588-.57 15.186-1.71 4.597-1.14 8.568-2.973 11.912-4.984 3.344-2.012 5.944-4.365 7.802-7.06 1.857-2.695 2.786-5.573 2.786-8.63 1.43-10.44-5.757-17.227-10.532-20.545zm-23.82 36.677c-12.717.398-27.623-3.44-29.07-18.36-.803-8.292 7.454-18.73 25.736-19.375 7.517-.265 25.052 3.927 26.25 18.09.736 8.732-10.197 19.248-22.915 19.645z"/></svg>