<svg xmlns="http://www.w3.org/2000/svg" width="100" height="100" viewBox="0 0 100 100"><path fill-rule="evenodd" clip-rule="evenodd" fill="#181616" d="M49.998 11.963C28.46 11.963 11 29.425 11 50.965c0 17.23 11.172 31.85 26.67 37.003 1.953.36 2.663-.84 2.663-1.877 0-.923-.034-3.374-.05-6.632-10.85 2.36-13.14-5.23-13.14-5.23-1.773-4.504-4.33-5.702-4.33-5.702-3.54-2.418.27-2.37.27-2.37 3.913.276 5.973 4.017 5.973 4.017 3.478 5.96 9.13 4.235 11.35 3.243.353-2.525 1.363-4.24 2.476-5.217-8.66-.985-17.763-4.33-17.763-19.275 0-4.26 1.518-7.74 4.012-10.468-.4-.982-1.74-4.947.383-10.32 0 0 3.274-1.047 10.726 4.002 3.11-.87 6.447-1.304 9.764-1.317 3.312.014 6.65.447 9.763 1.316 7.447-5.05 10.716-4.002 10.716-4.002 2.128 5.372.788 9.337.388 10.32 2.5 2.726 4.01 6.208 4.01 10.467 0 14.98-9.118 18.28-17.806 19.24 1.398 1.206 2.646 3.59 2.646 7.23 0 5.21-.047 9.416-.047 10.695 0 1.045.7 2.26 2.68 1.873C77.837 82.798 89 68.19 89 50.965c0-21.54-17.46-39.002-39.002-39.002z"/></svg>