<svg xmlns="http://www.w3.org/2000/svg" width="100" height="100" viewBox="0 0 100 100"><g fill-rule="evenodd" clip-rule="evenodd"><path d="M50.104 34.348c-8.863 0-16.062 7.198-16.062 16.076s7.2 16.062 16.062 16.062c8.878 0 16.077-7.185 16.077-16.062 0-8.878-7.198-16.076-16.076-16.076zM79 14H21c-3.866 0-7 3.134-7 7v58c0 3.866 3.134 7 7 7h58c3.866 0 7-3.134 7-7V21c0-3.866-3.134-7-7-7zM50.104 74.707c-13.404 0-24.297-10.864-24.297-24.283 0-13.42 10.893-24.31 24.297-24.31 13.42 0 24.297 10.892 24.297 24.31 0 13.42-10.877 24.283-24.296 24.283z"/></g></svg>