<svg xmlns="http://www.w3.org/2000/svg" width="100" height="100" viewBox="0 0 100 100"><path d="M88.5 26.12c-2.833 1.256-5.877 2.105-9.073 2.486 3.26-1.955 5.767-5.05 6.945-8.738-3.052 1.81-6.434 3.126-10.03 3.832-2.882-3.068-6.988-4.988-11.532-4.988-8.724 0-15.798 7.072-15.798 15.798 0 1.237.14 2.444.41 3.6-13.13-.658-24.77-6.948-32.562-16.507-1.36 2.334-2.14 5.05-2.14 7.943 0 5.48 2.79 10.315 7.03 13.15-2.59-.084-5.026-.795-7.156-1.977-.002.065-.002.13-.002.198 0 7.652 5.445 14.037 12.67 15.49-1.324.36-2.72.553-4.16.553-1.02 0-2.008-.097-2.973-.282 2.01 6.275 7.843 10.844 14.756 10.972-5.407 4.236-12.218 6.763-19.62 6.763-1.275 0-2.532-.074-3.77-.22 6.992 4.48 15.296 7.095 24.217 7.095 29.058 0 44.948-24.07 44.948-44.945 0-.684-.015-1.367-.045-2.046 3.09-2.226 5.768-5.01 7.885-8.177z"/></svg>