<svg xmlns="http://www.w3.org/2000/svg" width="100" height="100" viewBox="0 0 100 100"><g fill-rule="evenodd" clip-rule="evenodd"><path d="M74.12 14H25.88C19.35 14 14 19.35 14 25.88v48.24C14 80.65 19.35 86 25.88 86h48.24C80.65 86 86 80.65 86 74.12V25.88C86 19.35 80.65 14 74.12 14zm-2.3 43.982c-.043 7.65-6.263 13.913-13.927 13.913H41.886c-7.664 0-13.928-6.264-13.928-13.913V41.725c0-7.665 6.264-13.943 13.928-13.943h9.743c3.595.428 8.828 3.508 10.758 7.605.53 1.15.81 1.326 1.253 4.73.237 1.754.355 3.05 1.136 3.773 1.105 1.002 5.203.324 6.014.958l.62.486.367.767.133.62-.09 11.262zM42.063 44.495h7.724c1.474 0 2.668-1.21 2.668-2.668 0-1.46-1.194-2.653-2.668-2.653h-7.724c-1.474 0-2.667 1.194-2.667 2.653 0 1.46 1.193 2.668 2.667 2.668zM57.76 55.122H42.063c-1.474 0-2.667 1.193-2.667 2.653 0 1.443 1.194 2.652 2.667 2.652H57.76c1.46 0 2.653-1.21 2.653-2.652 0-1.46-1.194-2.653-2.653-2.653z"/></g></svg>