<svg xmlns="http://www.w3.org/2000/svg" width="100" height="100" viewBox="0 0 100 100"><path d="M46.347 44.786c2.026-.797 7.307-1.86 11.093-1.328l4.75 9.896 13.05-3.09c.665-.132.997-.995 0-1.892-8.17-6.575-16.24-7.87-32.18-4.383l9.465 19.726-33.044 9.316v5.995c0 .22.09.42.234.562.144.144.344.232.563.232h59.248c.22 0 .42-.09.563-.233.144-.145.233-.345.233-.563V56.123L55.116 62.82S48.04 48.57 46.347 44.785zM79.524 19.513H20.276c-.165 0-.31.062-.437.148-.213.144-.36.375-.36.65v25.81c1.265-.978 5.98-4.47 10.527-5.918l-3.886-8.967h10.96s2.89 6.276 2.89 6.376c3.985-1.194 23.114-4.283 40.15 3.09l.2.146V20.31c0-.274-.148-.506-.36-.648-.127-.087-.27-.15-.436-.15zM27.185 61.89c2.458-.53 11.823-3.056 11.823-3.056l-6.045-12.42c-1.66.464-8.634 3.652-8.103 14.346 0 0-.133 1.66 2.325 1.13zM80.022 14.133H19.978c-3.3 0-5.978 2.677-5.978 5.977v59.78c0 3.3 2.677 5.977 5.978 5.977h60.044c3.3 0 5.978-2.677 5.978-5.977V20.11c0-3.3-2.677-5.977-5.978-5.977zm2.29 64.893c0 1.538-1.25 2.79-2.788 2.79H20.276c-1.538 0-2.79-1.252-2.79-2.79V20.31c0-1.538 1.252-2.79 2.79-2.79h59.248c1.538 0 2.79 1.252 2.79 2.79v58.716z"/></svg>