<svg xmlns="http://www.w3.org/2000/svg" width="100" height="100" viewBox="0 0 100 100"><path fill-rule="evenodd" clip-rule="evenodd" d="M50 13.766C30.02 13.766 13.766 30.02 13.766 50c0 19.98 16.255 36.233 36.234 36.233S86.234 69.98 86.234 50c0-19.98-16.254-36.234-36.234-36.234zm23.957 16.71c4.31 5.265 6.92 11.973 6.99 19.28-1.022-.22-11.254-2.292-21.552-.998-.217-.53-.44-1.062-.666-1.597-.645-1.508-1.335-3.01-2.055-4.48 11.443-4.675 16.63-11.32 17.282-12.205zM50 19.095c7.864 0 15.05 2.95 20.517 7.8-.557.793-5.216 7.055-16.22 11.18-5.072-9.318-10.694-16.973-11.55-18.12 2.328-.56 4.756-.86 7.253-.86zM36.843 22.04c.815 1.117 6.346 8.782 11.474 17.897-14.477 3.845-27.228 3.788-28.612 3.77 2.006-9.602 8.478-17.584 17.138-21.668zM19.05 50.045c0-.316.006-.63.016-.945 1.354.03 16.353.222 31.808-4.403.886 1.733 1.732 3.494 2.51 5.253-.41.115-.817.237-1.22.368-15.963 5.16-24.457 19.224-25.158 20.424-4.942-5.488-7.956-12.746-7.956-20.696zM50 80.998c-7.155 0-13.75-2.44-18.998-6.533.558-1.14 6.825-13.246 24.28-19.328.07-.023.137-.045.206-.07 4.345 11.292 6.14 20.756 6.602 23.473-3.716 1.58-7.803 2.458-12.09 2.458zm17.292-5.294c-.316-1.883-1.963-10.943-6.012-22.067 9.698-1.552 18.22.99 19.278 1.322-1.38 8.612-6.322 16.05-13.266 20.744z"/></svg>