<svg xmlns="http://www.w3.org/2000/svg" width="100" height="100" viewBox="0 0 100 100"><path d="M90.478 31.418c-.194-.194-.448-.29-.703-.29v-.012h-5.208c3.816-2.52 5.064-4.32 5.064-6.504 0-3.216-2.71-5.52-6.864-5.52-2.138 0-4.685.694-6.52 2.48-.044.03-.093.048-.13.087-.028.026-.04.062-.063.092-.018.018-.038.033-.055.052l.012.014c-.225.336-.224.76.005 1.095l-.016.01 1.366 1.995c.348.346.88.365 1.266.093l.007.01c.035-.03.07-.056.107-.085.007-.007.017-.01.025-.016l.005-.008c1.184-.965 2.446-1.548 4.088-1.548 1.032 0 1.848.48 1.848 1.248 0 1.2-.696 1.8-8.017 6.96v.022c-.067.04-.14.073-.197.13-.163.163-.24.368-.268.58h-.024v2.608c0 .24.195.437.437.437.018 0 .034-.01.052-.01v.003H89.78c.253 0 .508-.097.702-.29.194-.195.29-.45.29-.704v-2.226c-.003-.258-.1-.512-.294-.706zM70.28 33.467l-3.39-3.39c-1.017-1.017-2.666-1.017-3.683 0l-.016-.016-13.033 13.035L37.124 30.06c-1.017-1.016-2.666-1.016-3.683 0l-3.388 3.39c-1.017 1.017-1.017 2.666 0 3.683l-.016.016L43.07 50.18 30.034 63.217l.016.016c-1.016 1.017-1.016 2.666 0 3.683l3.39 3.39c1.017 1.016 2.666 1.016 3.683 0L50.156 57.27 63.19 70.305l.015-.016c1.017 1.016 2.666 1.016 3.683 0l3.39-3.39c1.016-1.017 1.016-2.666 0-3.683L57.245 50.183 70.28 37.15c1.016-1.017 1.016-2.666 0-3.683z"/></svg>