<svg xmlns="http://www.w3.org/2000/svg" width="100" height="100" viewBox="0 0 100 100"><path d="M50 11c-21.54 0-39 17.46-39 39 0 10.157 3.886 19.407 10.25 26.345 2.548-2.887 5.568-5.242 9.01-6.986 4.27-2.165 8.868-3.263 13.665-3.263 7.622 0 14.906 2.848 20.51 8.014 2.715 2.505 4.91 5.45 6.56 8.75C81.817 75.93 89 63.81 89 50c0-21.54-17.46-39-39-39zm18.467 54.146c-.505.727-1.315 1.117-2.14 1.117-.51 0-1.026-.15-1.478-.463-6.107-4.236-13.27-6.475-20.71-6.475-4.306 0-8.52.744-12.52 2.21-1.35.497-2.843-.196-3.337-1.546-.495-1.35.198-2.843 1.547-3.337 4.577-1.678 9.392-2.525 14.31-2.525 8.505 0 16.692 2.56 23.672 7.398 1.18.82 1.473 2.438.655 3.62zm5.673-11.993c-.555.89-1.508 1.375-2.483 1.375-.53 0-1.065-.143-1.547-.445-7.78-4.86-16.76-7.432-25.97-7.432-5.12 0-10.168.788-15.006 2.343-1.54.49-3.185-.355-3.68-1.894-.492-1.54.355-3.187 1.893-3.68 5.417-1.737 11.067-2.62 16.793-2.62 10.31 0 20.36 2.88 29.07 8.322 1.37.857 1.786 2.66.93 4.03zm2.864-10.402c-.56 0-1.126-.144-1.643-.448-9.432-5.54-20.23-8.47-31.222-8.47-5.94 0-11.82.85-17.48 2.517-1.725.505-3.53-.482-4.038-2.202-.506-1.723.478-3.53 2.2-4.035 6.257-1.842 12.756-2.78 19.318-2.78 12.15 0 24.085 3.24 34.514 9.366 1.548.907 2.065 2.9 1.157 4.446-.606 1.03-1.692 1.605-2.806 1.605zM54.908 84.444c-3-2.768-6.902-4.293-10.983-4.293-2.57 0-5.03.587-7.312 1.747-1.52.77-2.882 1.773-4.085 2.97C37.785 87.504 43.716 89 49.998 89c2.71 0 5.354-.276 7.908-.804-.81-1.39-1.807-2.654-2.998-3.752z"/></svg>