<svg xmlns="http://www.w3.org/2000/svg" width="100" height="100" viewBox="0 0 100 100"><path fill="none" d="M32.092 55.916h14.575c1.087 0 2.563 2.496 4.734 4.04v-1.777s-.07-1.054.35-1.69c.423-.64 1.307-.81 1.583-.81h14.575s4.4-.74 9.294-3.044l-53.794.514c4.642 2.082 8.684 2.766 8.684 2.766z"/><path d="M16.868 55.11c-.385-.292-.733-.575-1.06-.854.246.396.608.703 1.06.855zM19.538 15.56h60.708v35.517c2.128-1.18 3.27-1.984 4.054-2.5v-35.05c0-1.117-.907-2.027-2.03-2.027H17.508c-1.123 0-2.033.91-2.033 2.028v35.14c.77.486 1.878 1.3 4.063 2.52V15.56zM87.79 47.978c-.522-.417-1.246-.415-2.395 0-.335.122-.674.325-1.095.6-.783.515-1.925 1.32-4.054 2.5-.657.36-1.373.747-2.24 1.182-.273.136-.535.247-.804.377-4.893 2.304-9.294 3.044-9.294 3.044H53.333c-.276 0-1.16.17-1.584.81-.42.638-.35 1.69-.35 1.69v1.776c.527.373 1.083.707 1.696.918 4.394 1.498 7.367.192 8.664-1.628 1.517-2.134 2.29-3.33 3.955-2.705 1.666.625 0 4.68-2.08 6.764-2.085 2.084-4.584 3.75-8.12 3.75-1.486 0-2.926-.224-4.114-.477v15.13c0 4.27 4.54 6.553 7.66 6.553 3.118 0 9.366-1.768 12.386-9.263 3.017-7.493-.205-17.38-.205-17.38s4.89-2.192 9.992-5.415c5.098-3.225 6.455-6.246 6.56-6.67.1-.427.515-1.136 0-1.554zM63.635 63.303c2.08-2.083 3.746-6.14 2.08-6.763-1.666-.624-2.438.57-3.955 2.705-1.297 1.82-4.27 3.126-8.664 1.628-.613-.21-1.17-.545-1.695-.918-2.17-1.543-3.646-4.04-4.733-4.04H32.092s-4.043-.683-8.684-2.765c-.466-.21-.935-.418-1.41-.657-.97-.485-1.752-.91-2.46-1.306-2.185-1.22-3.292-2.033-4.063-2.52-.32-.203-.593-.355-.87-.455-1.145-.416-1.874-.416-2.395 0-.518.418-.104 1.128 0 1.553.08.325.913 2.184 3.596 4.49.328.28.676.562 1.06.855.57.434 1.193.877 1.903 1.326 5.097 3.227 9.99 5.412 9.99 5.412s-3.227 9.886-.205 17.38c3.018 7.495 9.263 9.27 12.385 9.27 3.123 0 7.66-2.296 7.66-6.563v-16.13s1.153.42 2.8.77c1.188.253 2.628.476 4.114.476 3.537.002 6.036-1.663 8.12-3.747zM61.017 34.38c-5.003 0-9.058 4.058-9.058 9.058s4.054 9.056 9.057 9.056c4.998 0 9.052-4.057 9.052-9.056 0-5-4.055-9.057-9.053-9.057zM39.544 34.38c-5 0-9.053 4.058-9.053 9.058s4.053 9.056 9.054 9.056c5.003 0 9.058-4.057 9.058-9.056 0-5-4.055-9.057-9.058-9.057z"/></svg>