<svg xmlns="http://www.w3.org/2000/svg" width="100" height="100" viewBox="0 0 100 100"><g fill="#231F20"><path d="M67.96 45.288c0 9.92-8.04 17.96-17.96 17.96-9.918 0-17.96-8.04-17.96-17.96 0-2.795.658-5.43 1.796-7.788H14v42c0 3.85 3.15 7 7 7h58c3.85 0 7-3.15 7-7v-42H66.165c1.14 2.358 1.796 4.993 1.796 7.788zM79 13.5H21c-3.85 0-7 3.15-7 7v14h21.665c3.278-4.35 8.47-7.172 14.335-7.172S61.057 30.15 64.335 34.5H86v-14c0-3.85-3.15-7-7-7zM19.756 31.216H17.15V21.12c0-1.765 1.076-3.278 2.607-3.92v14.016zm4.27 0h-2.47V16.868h2.47v14.348zm4.27 0h-2.47V16.868h2.47v14.348zM32.56 21.12v10.096h-2.465V16.868h2.466v4.253zm49.79 5.843c0 2.35-1.903 4.253-4.25 4.253h-6.91c-2.347 0-4.25-1.903-4.25-4.253V21.12c0-2.35 1.903-4.252 4.25-4.252h6.91c2.348 0 4.25 1.903 4.25 4.253v5.843zM50 61.148c8.737 0 15.82-7.085 15.82-15.82 0-8.734-7.082-15.82-15.82-15.82-8.737 0-15.82 7.086-15.82 15.82S41.264 61.15 50 61.15zm0-28.423c6.96 0 12.604 5.643 12.604 12.604 0 6.96-5.643 12.603-12.604 12.603S37.396 52.29 37.396 45.33c0-6.963 5.644-12.605 12.604-12.605z"/></g></svg>