<svg xmlns="http://www.w3.org/2000/svg" width="100" height="100" viewBox="0 0 100 100"><path d="M57.852 61.47c-1.4 1.408-.215 3.98-.215 3.98L68.18 83.056s1.732 2.32 3.23 2.32c1.507 0 2.997-1.236 2.997-1.236l8.335-11.916s.84-1.504.86-2.82c.03-1.87-2.794-2.387-2.794-2.387L61.07 60.68c.002 0-1.93-.514-3.218.79zM56.852 52.594c1.01 1.71 3.795 1.212 3.795 1.212l19.69-5.756s2.684-1.09 3.068-2.543c.375-1.46-.444-3.213-.444-3.213L73.553 31.21s-.816-1.404-2.508-1.544c-1.865-.157-3.015 2.1-3.015 2.1L56.903 49.27s-.983 1.747-.052 3.322zM47.547 45.767c2.32-.572 2.688-3.94 2.688-3.94l-.158-28.035s-.35-3.457-1.903-4.397c-2.438-1.477-3.16-.707-3.857-.602L27.97 14.867s-1.603.53-2.436 1.865c-1.19 1.89 1.21 4.663 1.21 4.663L43.735 44.56s1.676 1.736 3.81 1.207zM43.51 57.112c.06-2.162-2.596-3.46-2.596-3.46l-17.57-8.88s-2.605-1.073-3.87-.325c-.968.573-1.827 1.61-1.91 2.524L16.42 61.06s-.172 2.443.46 3.552c.896 1.573 3.845.48 3.845.48l20.514-4.536c.796-.536 2.194-.586 2.27-3.444zM48.612 64.714c-1.76-.904-3.868.97-3.868.97l-13.736 15.12s-1.714 2.314-1.28 3.733c.413 1.333 1.092 1.995 2.054 2.46l13.794 4.354s1.673.348 2.94-.018c1.797-.523 1.466-3.334 1.466-3.334l.31-20.48s-.068-1.97-1.68-2.804z"/></svg>