<svg xmlns="http://www.w3.org/2000/svg" width="100" height="100" viewBox="0 0 100 100"><path d="M37.483 61.48c7.22.67 12.822 4.535 18.604 8.086 4.09 2.512 8.593 3.973 13.483 3.91 2.35-.03 4.435-.8 6.224-2.303.767-.646 1.085-.514 1.312.43 1.756 7.254-4.007 14.668-11.467 14.89-3.72.112-6.916-1.222-9.896-3.17-3.4-2.224-6.648-4.685-10.036-6.927-6.246-4.137-13.147-5.55-20.546-4.674-2.162.258-2.375.086-2.547-2.2-.32-4.286 1.237-7.81 4.117-10.93 8.217-8.892 16.293-17.91 23.846-27.388.647-.812 1.29-1.63 1.92-2.453.18-.237.557-.444.377-.794-.175-.34-.564-.185-.86-.17-3.608.2-7.216.402-10.833.322-1.868-.045-3.69-.3-5.413-1.06-2.894-1.27-3.836-3.454-2.734-6.39.896-2.383 2.238-4.523 3.71-6.594.415-.584.777-.727 1.448-.38 3.368 1.726 7.045 2.183 10.744 2.476 7.833.62 15.604.076 23.297-1.486 1.005-.203 1.03.293 1.118.982.456 3.51-.722 6.443-3.028 9.047C62.057 34.035 54.18 43.71 45.35 52.55c-2.734 2.735-5.468 5.508-7.867 8.93z"/></svg>