<svg xmlns="http://www.w3.org/2000/svg" width="100" height="100" viewBox="0 0 100 100"><path d="M36.217 40.748c-.495-.498-1.175-.78-1.878-.78-.7 0-1.385.28-1.882.776l-6.322 6.315c-1.04 1.037-1.044 2.72-.003 3.758L47.53 72.26c.43.432.987.697 1.58.762.1.016.2.02.304.02.007 0 .013 0 .02-.002l.002.002c.715.002 1.393-.28 1.9-.78L89.72 33.855c1.04-1.037 1.04-2.716.002-3.757l-6.312-6.323c-.507-.502-1.168-.783-1.88-.778-.712-.006-1.378.275-1.884.775l-30.208 30.22-13.22-13.247zM87.348 43.137l-32.513 32.53c-1.404 1.388-3.262 2.153-5.24 2.153l-1.443-.002-.304-.204c-1.324-.315-2.55-.997-3.518-1.97L22.94 54.208c-1.403-1.4-2.176-3.26-2.175-5.238 0-1.98.774-3.845 2.175-5.242l6.33-6.322c1.375-1.368 3.277-2.153 5.236-2.157 1.952 0 3.862.796 5.234 2.174l9.863 9.88 20.953-20.96L56.6 12.387c-3.695-3.693-9.74-3.693-13.433 0L12.27 43.283c-3.694 3.693-3.694 9.74 0 13.433L43.17 87.613c3.694 3.693 9.737 3.693 13.432 0l30.897-30.897c3.694-3.692 3.694-9.737 0-13.433l-.15-.146z"/></svg>