<svg xmlns="http://www.w3.org/2000/svg" width="100" height="100" viewBox="0 0 100 100"><path d="M92.546 38.012c0-.333-.035-.667-.06-1.096h-.902c-6.932 0-13.863.014-20.794-.017-.825-.005-1.055.235-1.052 1.054.03 7.81.03 15.623 0 23.435-.004.837.26 1.05 1.064 1.04 3.977-.035 7.954-.017 11.93-.013.33 0 .66.03 1.072.05 0 1.125-.046 2.172.015 3.213.043.745-.183.972-.945.964-4.062-.037-8.125.004-12.187-.035-.772-.01-.97.238-.947.965.048 1.504.053 3.013 0 4.517-.028.76.224.944.967.94 6.93-.027 13.862-.036 20.793.01.914.005 1.065-.294 1.062-1.112-.02-11.307-.013-22.613-.016-33.918zm-9.588 18.022c-1.22-.042-2.442-.033-3.662-.002-.605.016-.854-.16-.85-.816.026-3.72.004-7.438.03-11.157.003-.255.266-.722.42-.728 1.608-.054 3.22-.032 4.91-.032v2.23c0 3.208-.02 6.416.013 9.624.006.667-.19.904-.862.88zM66.026 36.9c-6.902.028-13.805.03-20.707-.002-.815-.004-1.055.215-1.052 1.04.03 7.81.03 15.622 0 23.434-.003.81.203 1.07 1.04 1.06 4.003-.04 8.01.013 12.013-.04.902-.012 1.143.278 1.07 1.113-.065.732-.053 1.478-.003 2.214.048.7-.195.926-.91.92-4.033-.03-8.067-.013-12.1-.013h-1.09c0 1.898.037 3.683-.02 5.464-.023.768.228.945.967.942 6.96-.028 13.918-.016 20.877-.018.278 0 .555-.024.906-.04.02-.348.056-.65.056-.954.002-11.362-.007-22.724.02-34.086 0-.84-.264-1.038-1.066-1.035zm-7.678 18.558c-.002.188-.35.528-.544.534-1.418.046-2.84.042-4.256 0-.176-.003-.493-.315-.494-.487-.028-4.025-.02-8.053-.02-12.216 1.695 0 3.252-.02 4.807.025.184.005.51.365.512.562.028 3.86.028 7.722-.004 11.58zM21.554 27.974v7.67c0 1.272 0 1.273-1.312 1.273-3.95 0-7.898.018-11.847-.016-.746-.006-.96.203-.958.958.026 8.607.027 17.217-.002 25.824-.003.8.232.995 1.006.99 6.933-.026 13.865-.015 20.797-.017.303 0 .605-.025.927-.04V26.96h-8.61v1.014zm-1 30.307c-1.217-.057-2.44.01-3.66-.04-.233-.008-.653-.312-.654-.483-.036-4.766-.03-9.53-.03-14.404h5.344v.908c0 4.343-.02 8.686.018 13.028.007.8-.248 1.028-1.017.993zM40.852 36.91c-2.328.014-4.658.038-6.985-.01-.78-.018-.952.267-.94.984.035 2.47.013 4.94.013 7.412 0 6.134.01 12.268-.013 18.4-.003.714.146 1.037.937.976.903-.07 1.816-.017 2.725-.017h4.96c.04-.232.067-.315.067-.398.004-8.89 0-17.776.02-26.665 0-.62-.296-.683-.785-.68zM33.633 33.51c2.442.038 4.886.015 7.33.032.53.004.69-.21.67-.712-.03-.823-.006-1.647-.006-2.472V26.96h-8.68c0 2.08-.017 4.064.03 6.05.003.18.424.498.656.5z"/></svg>