<svg xmlns="http://www.w3.org/2000/svg" width="100" height="100" viewBox="0 0 100 100"><path d="M84 78.754c-.035 0-.068.01-.104.01v-.01h-68v.01c-1.608.056-2.896 1.37-2.896 2.99s1.288 2.934 2.897 2.99v.01h68v-.01c.035 0 .068.01.104.01 1.657 0 3-1.343 3-3s-1.344-3-3-3zM25.37 71.854h5.68c1.138 0 2.096-.735 2.45-1.754l3.493-9.195h25.97l3.605 9.492.02-.004c.393.795 1.172 1.353 2.096 1.437v.024h5.68v-.024c.077.007.152.024.232.024 1.44 0 2.604-1.166 2.604-2.604 0-.266-.05-.517-.125-.76h.012l-.06-.157c-.02-.05-.038-.1-.06-.15l-20.09-51.147h-.02c-.342-1.037-1.31-1.79-2.46-1.79h-8.813c-1.17 0-2.147.776-2.476 1.836l-20.194 51.3.012.002c-.096.272-.16.56-.16.865 0 1.438 1.168 2.604 2.605 2.604zM49.98 25.176l10.185 26.99h-20.37l10.185-26.99z"/></svg>