<svg xmlns="http://www.w3.org/2000/svg" width="100" height="100" viewBox="0 0 100 100"><path d="M90.937 63.235c-.185-1.43-.998-2.653-2.166-3.218L73.75 52.85l-6.353-3.03c2.775-1.747 5.028-4.445 6.503-7.695 1.17-2.58 1.866-5.502 1.866-8.625 0-1.753-.278-3.416-.666-5.023-1.89-7.782-7.968-13.515-15.263-13.515-6.494 0-12.01 4.557-14.48 11.047-.253.663-.484 1.34-.67 2.042-.347 1.3-.613 2.64-.725 4.035-.037.465-.057.936-.057 1.413 0 .415.012.826.036 1.234.165 2.852.903 5.515 2.055 7.87 1.523 3.12 3.78 5.695 6.527 7.35l-6.084 2.833-15.51 7.223c-1.01.474-1.76 1.447-2.074 2.62-.104.39-.16.804-.16 1.23V80.9c0 2.284 1.592 4.136 3.558 4.136H87.42c1.965 0 3.557-1.852 3.557-4.136V63.86c0-.212-.013-.42-.04-.625zM39.227 50.335l2.85-1.452c-3.165-4.206-5.065-9.555-5.065-15.383 0-4.04.917-7.85 2.53-11.21-1.565-.772-3.237-1.212-4.982-1.212-8.365 0-15.186 9.612-15.544 21.665H19v5.12c0 1.073.87 1.944 1.945 1.944h7.09c.08.05.158.108.24.157l-17.45 8.122c-1.086.51-1.803 1.74-1.803 3.11V74.97c0 1.846 1.29 3.34 2.875 3.34h11.53V63.86c0-3.738 2.07-7.12 5.276-8.622l10.524-4.9z"/></svg>