<svg xmlns="http://www.w3.org/2000/svg" width="100" height="100" viewBox="0 0 100 100"><path fill="#231F20" d="M92.566 22.08c0-1.675-1.358-3.034-3.035-3.034H10.47c-1.677 0-3.036 1.36-3.036 3.035 0 .044.01.085.013.128h-.013v55.838h.013c.068 1.616 1.39 2.908 3.022 2.908h79.06c1.634 0 2.955-1.292 3.023-2.908h.013V22.208h-.013c.002-.044.013-.084.013-.127zM82.61 70.998H17.39V29.003h65.22v41.994zm4.977-18.386c-1.372 0-2.484-1.11-2.484-2.483 0-1.372 1.112-2.484 2.484-2.484 1.372 0 2.485 1.112 2.485 2.484 0 1.372-1.113 2.484-2.485 2.484z"/></svg>