<svg xmlns="http://www.w3.org/2000/svg" width="100" height="100" viewBox="0 0 100 100"><g fill="#231F20"><path d="M19.777 37.475c.662.48 1.51.607 2.336.365l12.607-3.262.104-.023c.484-.156.94-.444 1.32-.83.666-.66 1.05-1.548 1.048-2.434v-4.683c.005-.193.194-.658.286-.763.028-.022 2.92-2.528 12.854-2.528 9.913-.002 12.832 2.496 12.834 2.494.134.14.323.604.328.8v3.993c0 1.41.96 2.787 2.28 3.273l12.71 3.893c.98.34 2.01.123 2.703-.57.49-.487.755-1.157.755-1.894l.014-10.88c.004-1.04-.455-2.397-1.088-3.227-.302-.398-7.673-9.7-30.535-9.7-19.405 0-27.724 6.814-29.815 8.905-.45.45-.68.74-.723.796-.63.828-1.09 2.184-1.088 3.22v10.884c.002.89.39 1.68 1.07 2.17zM24.36 58.576v2.543c0 1.167.95 2.12 2.12 2.12h6.836c1.17 0 2.117-.953 2.117-2.12v-2.544c0-1.168-.946-2.123-2.117-2.123H26.48c-1.17 0-2.12.955-2.12 2.123zM48.904 61.12v-2.544c0-1.168-.95-2.123-2.12-2.123h-6.837c-1.17 0-2.117.955-2.117 2.123v2.543c0 1.167.947 2.12 2.117 2.12h6.838c1.17 0 2.12-.953 2.12-2.12zM62.375 61.12v-2.544c0-1.168-.95-2.123-2.12-2.123h-6.837c-1.17 0-2.12.955-2.12 2.123v2.543c0 1.167.948 2.12 2.12 2.12h6.836c1.17 0 2.12-.953 2.12-2.12zM75.846 61.12v-2.544c0-1.168-.95-2.123-2.122-2.123h-6.836c-1.17 0-2.122.955-2.122 2.123v2.543c0 1.167.95 2.12 2.122 2.12h6.836c1.172 0 2.122-.953 2.122-2.12zM19.64 50.61h6.84c1.168 0 2.118-.954 2.118-2.122v-2.543c0-1.166-.95-2.12-2.117-2.12h-6.84c-1.166 0-2.116.954-2.116 2.12v2.543c0 1.168.95 2.12 2.117 2.12zM39.947 50.61c1.17 0 2.12-.954 2.12-2.122v-2.543c0-1.166-.95-2.12-2.12-2.12H33.11c-1.17 0-2.116.954-2.116 2.12v2.543c0 1.168.946 2.12 2.117 2.12h6.837zM53.418 50.61c1.17 0 2.122-.954 2.122-2.122v-2.543c0-1.166-.95-2.12-2.122-2.12h-6.836c-1.172 0-2.122.954-2.122 2.12v2.543c0 1.168.95 2.12 2.122 2.12h6.836zM66.89 43.824h-6.836c-1.172 0-2.122.955-2.122 2.12v2.544c0 1.168.95 2.12 2.122 2.12h6.835c1.17 0 2.116-.952 2.116-2.12v-2.543c0-1.166-.946-2.12-2.117-2.12zM80.36 43.824h-6.84c-1.167 0-2.117.955-2.117 2.12v2.544c0 1.168.95 2.12 2.117 2.12h6.84c1.167 0 2.117-.952 2.117-2.12v-2.543c0-1.166-.95-2.12-2.117-2.12zM28.598 73.748v-2.542c0-1.167-.95-2.12-2.117-2.12h-6.84c-1.166 0-2.116.953-2.116 2.12v2.542c0 1.17.95 2.123 2.117 2.123h6.84c1.168 0 2.118-.952 2.118-2.122zM33.11 75.87h6.837c1.17 0 2.12-.952 2.12-2.122v-2.542c0-1.167-.95-2.12-2.12-2.12H33.11c-1.17 0-2.116.953-2.116 2.12v2.542c0 1.17.946 2.123 2.117 2.123zM46.583 75.87h6.836c1.17 0 2.12-.952 2.12-2.122v-2.542c0-1.167-.95-2.12-2.12-2.12h-6.837c-1.172 0-2.122.953-2.122 2.12v2.542c0 1.17.95 2.123 2.123 2.123zM60.053 75.87h6.835c1.172 0 2.117-.952 2.117-2.122v-2.542c0-1.167-.945-2.12-2.117-2.12h-6.835c-1.172 0-2.122.953-2.122 2.12v2.542c.002 1.17.95 2.123 2.123 2.123zM80.36 69.086h-6.84c-1.167 0-2.117.953-2.117 2.12v2.542c0 1.17.95 2.123 2.117 2.123h6.84c1.167 0 2.117-.952 2.117-2.122v-2.542c0-1.167-.95-2.12-2.117-2.12zM72.427 81.715H26.97c-1.166 0-2.116.955-2.116 2.12v2.544c0 1.17.95 2.12 2.117 2.12h45.457c1.168 0 2.118-.95 2.118-2.12v-2.544c0-1.166-.95-2.12-2.118-2.12z"/></g></svg>