<svg xmlns="http://www.w3.org/2000/svg" width="100" height="100" viewBox="0 0 100 100"><path d="M77.067 59.255L62.99 52.54l-5.754-2.745c.1-.07.2-.14.3-.208h7.834c1.212 0 2.196-.983 2.196-2.196v-5.778h-.02c-.228-7.653-2.767-14.425-6.622-18.894-2.71-3.484-6.605-5.68-10.97-5.68-4.733 0-8.912 2.585-11.626 6.592-3.435 4.452-5.664 10.833-5.877 17.982h-.02v5.78c0 1.212.984 2.195 2.197 2.195h7.855c.155.105.312.207.47.31L37.4 52.48l-14.534 6.768c-1.152.54-1.936 1.776-2.065 3.198-.028.205-.045.414-.045.626v16.005c0 2.146 1.495 3.884 3.34 3.884H75.9c1.847 0 3.34-1.738 3.34-3.883V63.072c0-.805-.21-1.563-.58-2.196-.36-.71-.908-1.29-1.593-1.62zM25.646 52.52v-6.08h.027c.243-8.173 2.377-15.628 5.776-21.473-1.655-1.008-3.514-1.623-5.512-1.623-6.666 0-12.062 6.28-12.062 14.034 0 5.425 2.65 10.12 6.524 12.457l-16.35 7.61c-1.02.48-1.69 1.63-1.69 2.915v12.903c0 1.73 1.21 3.13 2.694 3.13H15.86v-13.54c0-3.503 1.937-6.672 4.942-8.08l4.844-2.253zM95.948 57.635L79.6 50.025c3.873-2.337 6.524-7.032 6.524-12.457 0-7.754-5.396-14.034-12.062-14.034-1.998 0-3.857.615-5.51 1.623 3.398 5.845 5.53 13.3 5.775 21.472h.027v6.08l4.844 2.256c3.005 1.407 4.943 4.576 4.943 8.08v13.54h10.806c1.485 0 2.694-1.4 2.694-3.13V60.55c0-1.286-.672-2.436-1.692-2.915z"/></svg>