<svg xmlns="http://www.w3.org/2000/svg" width="100" height="100" viewBox="0 0 100 100"><path d="M34.2 47.04v-6.415h.02c.164-5.466 1.39-10.528 3.383-14.767.223-.73.474-1.447.756-2.145-1.88-1.25-4.027-2.022-6.35-2.022-7.114 0-12.872 6.703-12.872 14.98 0 5.79 2.83 10.8 6.962 13.294L8.652 58.086c-1.088.51-1.804 1.74-1.804 3.11V74.97c0 1.846 1.29 3.34 2.874 3.34h11.532V63.86c0-3.738 2.068-7.12 5.275-8.622l7.668-3.572V47.04zM90.853 60.44l-15.66-7.47-6.62-3.158c.165-.105.323-.224.486-.335h8.694c1.346 0 2.438-1.09 2.438-2.438v-6.416h-.022c-.266-8.937-3.368-16.798-8.03-21.73-2.46-2.778-5.65-4.664-9.218-5.227-.157-.026-.315-.05-.474-.07-.185-.023-.37-.046-.555-.062-.398-.035-.798-.06-1.202-.06-.397 0-.792.024-1.185.058-.187.016-.372.04-.557.062-.157.02-.313.043-.47.068-3.53.553-6.693 2.405-9.144 5.134-4.712 4.927-7.853 12.832-8.12 21.827h-.023v6.415c0 1.345 1.092 2.437 2.44 2.437h8.718c.238.162.475.327.72.475l-6.34 2.953-16.17 7.53c-1.404.658-2.327 2.242-2.327 4.01V82.212c0 2.382 1.66 4.312 3.71 4.312h57.504c2.05 0 3.708-1.93 3.708-4.31V64.445c0-1.763-.908-3.332-2.3-4.005z"/></svg>