<svg xmlns="http://www.w3.org/2000/svg" width="32" height="32" viewBox="0 0 32 32"><path class="fi-social" fill="#e00c10" d="M84.96 70.237c-.167-1.032-.814-1.914-1.783-2.438L68.842 59.35l-.118-.066c-.58-.297-1.25-.45-1.937-.45-1.2 0-2.348.455-3.144 1.253l-4.23 4.232c-.182.172-.772.42-.95.43-.05-.004-4.924-.355-13.897-9.33-8.957-8.954-9.337-13.843-9.34-13.843.005-.25.25-.84.426-1.02l3.608-3.608c1.27-1.274 1.652-3.386.898-5.022L32.19 16.94c-.58-1.192-1.704-1.928-2.952-1.928-.883 0-1.735.366-2.4 1.03L17 25.855c-.943.938-1.755 2.578-1.932 3.898-.086.63-1.83 15.693 18.82 36.346 17.53 17.53 31.2 18.89 34.975 18.89.812 0 1.285-.058 1.376-.07 1.316-.177 2.954-.987 3.89-1.926l9.828-9.826c.8-.806 1.167-1.87 1-2.93z"/></svg>