<svg xmlns="http://www.w3.org/2000/svg" width="100" height="100" viewBox="0 0 100 100"><path d="M49.984 27.452C37.53 27.452 27.436 37.547 27.436 50c0 12.453 10.095 22.548 22.548 22.548S72.53 62.453 72.53 50c0-12.453-10.094-22.548-22.546-22.548zm0 35.156c-6.964 0-12.61-5.645-12.61-12.608 0-6.964 5.646-12.61 12.61-12.61S62.592 43.037 62.592 50c0 6.963-5.645 12.608-12.608 12.608zM50 12.5c-20.712 0-37.5 16.793-37.5 37.502C12.5 70.712 29.288 87.5 50 87.5s37.5-16.788 37.5-37.498C87.5 29.292 70.712 12.5 50 12.5zm0 65.06c-15.2 0-27.56-12.36-27.56-27.558C22.44 34.807 34.802 22.44 50 22.44c15.198 0 27.56 12.367 27.56 27.562 0 15.196-12.362 27.56-27.56 27.56z"/><circle cx="49.984" cy="50" r="7.621"/></svg>