<svg xmlns="http://www.w3.org/2000/svg" width="100" height="100" viewBox="0 0 100 100"><path d="M80.16 60.44L64.5 52.97l-6.62-3.158c2.89-1.822 5.24-4.634 6.777-8.02 1.22-2.69 1.945-5.735 1.945-8.99 0-1.828-.29-3.563-.694-5.237-1.97-8.112-8.305-14.088-15.91-14.088-7.46 0-13.7 5.763-15.792 13.644-.483 1.81-.815 3.69-.815 5.68 0 3.46.81 6.685 2.182 9.49 1.587 3.254 3.94 5.937 6.804 7.662l-6.342 2.953-16.168 7.53c-1.404.658-2.327 2.242-2.327 4.01V82.212c0 2.382 1.658 4.312 3.706 4.312H45.26V72.92c0-.147.05-.278.118-.396l-.01-.006 3.933-6.812.01.006c.14-.24.39-.41.688-.41.298 0 .547.17.687.41l.004-.003.035.062c.005.01.012.018.016.028l3.882 6.72-.005.004c.07.12.12.25.12.397v13.603h24.012c2.047 0 3.707-1.93 3.707-4.31V64.444c.003-1.763-.905-3.332-2.296-4.005zm-25.54-4.554l.01.006-3.934 6.812-.01-.006c-.14.24-.39.41-.687.41-.3 0-.548-.17-.688-.41l-.005.003-.04-.068c-.003-.007-.01-.013-.012-.02l-3.88-6.723.003-.004c-.07-.12-.12-.25-.12-.397 0-.446.362-.807.807-.807h7.866c.446 0 .807.36.807.806.002.147-.048.277-.117.396z"/></svg>