<svg xmlns="http://www.w3.org/2000/svg" width="100" height="100" viewBox="0 0 100 100"><path d="M99.483 33.642c-.03-.03-.063-.05-.094-.077L87.157 21.327c-2.378 1.59-5.623 1.336-7.722-.763-2.1-2.1-2.353-5.347-.76-7.725L66.357.515c-.69-.688-1.805-.687-2.494 0L.52 63.862l-.003.003c-.69.69-.69 1.805 0 2.494l12.326 12.313c2.377-1.59 5.623-1.336 7.722.763 2.098 2.098 2.353 5.34.767 7.718l12.166 12.154c.046.06.09.122.144.176.69.69 1.804.69 2.493 0l63.348-63.348c.69-.69.69-1.806 0-2.494zm-13.965 2.493L36.136 85.518c-.69.69-1.804.69-2.493 0l-19.16-19.16c-.688-.69-.688-1.804 0-2.493l49.382-49.382c.69-.688 1.805-.688 2.493 0l19.16 19.16c.69.688.69 1.804 0 2.492zM61.923 51.52l-6.82-3.258.83-7.134c.024-.216-.09-.425-.287-.52-.195-.094-.43-.055-.585.1l-5.096 5.097-6.653-3.178c-.195-.094-.428-.054-.582.1-.154.15-.193.385-.1.58l3.18 6.656-5.1 5.096c-.153.152-.192.388-.098.585.095.195.304.31.52.284l7.132-.83 3.26 6.822c.093.194.3.31.513.288.215-.02.394-.176.446-.386l1.87-7.476 7.48-1.87c.09-.024.172-.072.237-.136.08-.08.135-.19.148-.31.02-.213-.096-.42-.292-.51z"/></svg>