<svg xmlns="http://www.w3.org/2000/svg" width="100" height="100" viewBox="0 0 100 100"><path d="M94.988 47.506h-7.58c-1.23-18.72-16.193-33.684-34.914-34.915V5.01c0-1.376-1.117-2.492-2.494-2.492s-2.493 1.116-2.493 2.493v7.58c-18.722 1.232-33.683 16.196-34.914 34.916h-7.58c-1.377 0-2.493 1.117-2.493 2.494s1.116 2.494 2.493 2.494h7.58c1.228 18.722 16.19 33.684 34.914 34.914v7.58c0 1.377 1.117 2.493 2.494 2.493s2.494-1.115 2.494-2.492v-7.58c18.723-1.23 33.685-16.193 34.915-34.914h7.578c1.377 0 2.493-1.117 2.493-2.495 0-1.378-1.115-2.494-2.492-2.494zM47.506 77.443c-13.212-1.19-23.76-11.74-24.95-24.95h4.99c1.153 10.485 9.476 18.808 19.96 19.96v4.99zm0-49.896C37.022 28.7 28.7 37.022 27.546 47.507h-4.99c1.193-13.21 11.74-23.758 24.95-24.95v4.99zm4.988-4.99c13.21 1.192 23.756 11.74 24.948 24.95h-4.99c-1.15-10.486-9.474-18.81-19.958-19.96v-4.99zm0 54.886v-4.99c10.484-1.15 18.807-9.474 19.96-19.958h4.988c-1.19 13.21-11.737 23.756-24.948 24.948z"/></svg>