<svg xmlns="http://www.w3.org/2000/svg" width="100" height="100" viewBox="0 0 100 100"><path d="M80.16 60.442l-15.66-7.47-6.62-3.16c.165-.104.323-.223.486-.334h8.695c1.347 0 2.44-1.09 2.44-2.438v-6.415h-.023c-.266-8.94-3.37-16.805-8.034-21.737-2.46-2.773-5.646-4.657-9.21-5.22-.16-.026-.32-.05-.48-.07-.183-.024-.366-.047-.552-.062-.397-.035-.797-.06-1.2-.06h-.003c-.398 0-.79.024-1.183.058-.188.016-.374.04-.56.062-.156.02-.31.042-.465.068-3.537.553-6.702 2.408-9.154 5.14-4.708 4.928-7.847 12.83-8.115 21.822h-.02v6.415c0 1.347 1.09 2.44 2.438 2.44h8.72c.237.16.474.326.72.474l-6.342 2.953-16.168 7.53c-1.405.658-2.327 2.242-2.327 4.01V82.214c0 2.38 1.66 4.31 3.71 4.31h57.503c2.05 0 3.708-1.93 3.708-4.31V64.446c0-1.763-.908-3.332-2.3-4.004z"/></svg>