<svg xmlns="http://www.w3.org/2000/svg" width="100" height="100" viewBox="0 0 100 100"><path d="M30.278 17.553H19.823c-1.254 0-2.27 1.017-2.27 2.27v10.453c0 1.253 1.016 2.27 2.27 2.27h10.454c1.253 0 2.27-1.017 2.27-2.27V19.823c0-1.253-1.016-2.27-2.27-2.27zM55.227 17.553H44.773c-1.254 0-2.27 1.017-2.27 2.27v10.453c0 1.253 1.016 2.27 2.27 2.27h10.454c1.253 0 2.27-1.017 2.27-2.27V19.823c0-1.253-1.016-2.27-2.27-2.27zM82.446 19.822c0-1.252-1.016-2.27-2.27-2.27H69.723c-1.254 0-2.27 1.018-2.27 2.27v10.454c0 1.254 1.016 2.27 2.27 2.27h10.454c1.253 0 2.27-1.015 2.27-2.268V19.822zM30.278 42.506H19.823c-1.254 0-2.27 1.017-2.27 2.27V55.23c0 1.253 1.016 2.27 2.27 2.27h10.454c1.253 0 2.27-1.017 2.27-2.27V44.776c0-1.253-1.016-2.27-2.27-2.27zM55.227 42.506H44.773c-1.254 0-2.27 1.017-2.27 2.27V55.23c0 1.253 1.016 2.27 2.27 2.27h10.454c1.253 0 2.27-1.017 2.27-2.27V44.776c0-1.253-1.016-2.27-2.27-2.27zM80.177 42.506H69.722c-1.254 0-2.27 1.017-2.27 2.27V55.23c0 1.253 1.016 2.27 2.27 2.27h10.454c1.253 0 2.27-1.016 2.27-2.27V44.777c0-1.253-1.016-2.27-2.27-2.27zM30.278 67.454H19.823c-1.254 0-2.27 1.017-2.27 2.27v10.453c0 1.253 1.016 2.27 2.27 2.27h10.454c1.253 0 2.27-1.017 2.27-2.27V69.723c0-1.252-1.016-2.27-2.27-2.27zM55.227 67.454H44.773c-1.254 0-2.27 1.017-2.27 2.27v10.453c0 1.253 1.016 2.27 2.27 2.27h10.454c1.253 0 2.27-1.017 2.27-2.27V69.723c0-1.252-1.016-2.27-2.27-2.27zM80.177 67.454H69.722c-1.254 0-2.27 1.017-2.27 2.27v10.452c0 1.254 1.016 2.27 2.27 2.27h10.454c1.253 0 2.27-1.015 2.27-2.268V69.723c0-1.252-1.016-2.27-2.27-2.27z"/></svg>