<svg xmlns="http://www.w3.org/2000/svg" width="100" height="100" viewBox="0 0 100 100"><path d="M40.348 49.813c.92-.584 1.763-1.303 2.527-2.12-2.683-4.037-4.24-8.967-4.24-14.192 0-3.49.69-6.797 1.897-9.786-1.88-1.25-4.026-2.022-6.35-2.022-7.113 0-12.87 6.702-12.87 14.978 0 5.79 2.83 10.8 6.96 13.295l-17.447 8.12c-1.087.512-1.804 1.74-1.804 3.112v13.77c0 1.847 1.29 3.342 2.875 3.342h11.532V63.86c0-3.74 2.068-7.122 5.275-8.624l11.646-5.423zM88.772 60.017L73.75 52.85l-6.354-3.03c2.775-1.748 5.028-4.445 6.503-7.695 1.168-2.58 1.865-5.502 1.865-8.625 0-1.753-.278-3.416-.666-5.023-1.89-7.782-7.97-13.515-15.264-13.515-7.158 0-13.144 5.53-15.15 13.09-.463 1.734-.782 3.538-.782 5.448 0 3.32.775 6.412 2.092 9.103 1.523 3.12 3.78 5.696 6.527 7.35l-6.085 2.834L30.93 60.01c-1.348.63-2.233 2.15-2.233 3.85V80.9c0 2.284 1.59 4.136 3.557 4.136H87.42c1.965 0 3.557-1.852 3.557-4.136V63.86c0-1.692-.87-3.198-2.205-3.843z"/></svg>