<svg xmlns="http://www.w3.org/2000/svg" width="100" height="100" viewBox="0 0 100 100"><path fill="#231F20" d="M77.92 7.434c-.044 0-.085.01-.128.013v-.013H21.954v.013c-1.616.068-2.908 1.39-2.908 3.022v79.06c0 1.634 1.292 2.955 2.908 3.023v.013h55.838v-.013c.043.002.083.013.127.013 1.675 0 3.034-1.358 3.034-3.035V10.47c0-1.678-1.36-3.036-3.035-3.036zM49.872 90.072c-1.372 0-2.484-1.113-2.484-2.485 0-1.372 1.11-2.484 2.483-2.484 1.372 0 2.484 1.112 2.484 2.484 0 1.372-1.112 2.485-2.484 2.485zm21.124-7.463H29.003V17.39h41.995v65.22z"/></svg>