<svg xmlns="http://www.w3.org/2000/svg" width="100" height="100" viewBox="0 0 100 100"><path d="M80.16 60.44L64.5 52.97l-6.62-3.158c2.89-1.822 5.24-4.634 6.777-8.022 1.22-2.69 1.946-5.734 1.946-8.99 0-1.827-.29-3.562-.694-5.236-1.97-8.11-8.305-14.087-15.91-14.087-7.46 0-13.7 5.763-15.792 13.645-.482 1.808-.815 3.688-.815 5.68 0 3.46.808 6.684 2.18 9.49 1.588 3.253 3.94 5.936 6.805 7.66l-6.342 2.954-16.168 7.53c-1.404.658-2.327 2.242-2.327 4.01v17.765c0 2.38 1.66 4.312 3.71 4.312h57.504c2.048 0 3.708-1.93 3.708-4.312V64.445c-.002-1.763-.91-3.332-2.3-4.005z"/></svg>