<svg xmlns="http://www.w3.org/2000/svg" width="100" height="100" viewBox="0 0 100 100"><path d="M85.886 49.615h-18.2c-2.22 0-4.186 1.374-4.866 3.406-1.803 5.376-6.957 8.984-12.82 8.984s-11.015-3.608-12.817-8.983c-.682-2.03-2.647-3.405-4.867-3.405h-18.2c-2.825 0-5.115 2.2-5.115 4.92v28.053c0 2.714 2.29 4.917 5.116 4.917h71.77c2.828 0 5.115-2.203 5.115-4.917V54.534c0-2.72-2.288-4.92-5.114-4.92zM35.81 34.276h6.653v17.188c0 .735.617 1.326 1.376 1.326h12.316c.762 0 1.376-.59 1.376-1.326V34.276h6.658c.514 0 .986-.28 1.22-.716.24-.442.198-.97-.1-1.374L51.07 13.048c-.257-.346-.677-.553-1.12-.553h-.002c-.445 0-.86.207-1.12.558L34.687 32.187c-.297.403-.334.932-.1 1.374.235.442.71.716 1.224.716z"/></svg>