<svg xmlns="http://www.w3.org/2000/svg" width="100" height="100" viewBox="0 0 100 100"><path d="M16.2 20.386l9.72 9.72c1.12 1.12 2.935 1.12 4.054 0 1.118-1.12 1.118-2.932 0-4.054l-9.68-9.677c0-.003-.003-.005-.005-.008s-.006-.004-.01-.006l-.025-.025-.003.003c-1.122-1.085-2.91-1.077-4.017.03-1.107 1.108-1.115 2.895-.03 4.015l-.004.003zM32.898 16.546l3.558 13.277c.41 1.53 1.98 2.437 3.51 2.026 1.527-.41 2.435-1.982 2.027-3.51l-3.545-13.225v-.007l-.004-.007-.01-.04-.005.002c-.43-1.5-1.98-2.387-3.494-1.982-1.513.405-2.413 1.95-2.035 3.463l-.002.003zM16.054 39.423v.005l.045.012 13.23 3.544c1.53.41 3.1-.498 3.51-2.025.41-1.53-.497-3.102-2.025-3.51L17.6 33.907c-.005-.002-.01-.005-.016-.006l-.017-.003-.03-.01v.004c-1.516-.377-3.06.523-3.464 2.035-.405 1.512.482 3.062 1.98 3.493zM83.798 79.613l-9.72-9.72c-1.12-1.12-2.934-1.12-4.053 0-1.118 1.12-1.118 2.933 0 4.055l9.68 9.677c0 .003.003.005.005.008l.008.006.026.025.003-.003c1.122 1.085 2.908 1.077 4.017-.03 1.107-1.108 1.115-2.895.03-4.016l.004-.003zM67.1 83.454l-3.558-13.277c-.41-1.53-1.98-2.436-3.51-2.026-1.53.41-2.436 1.982-2.027 3.51l3.546 13.23v.002l.013.046h.005c.428 1.5 1.98 2.386 3.493 1.982 1.514-.406 2.413-1.95 2.035-3.463l.006-.003zM83.943 60.577v-.004l-.04-.01c-.002 0-.003-.002-.005-.003h-.005l-13.226-3.545c-1.53-.41-3.1.5-3.51 2.026-.41 1.53.497 3.1 2.026 3.512l13.224 3.542.006.002h.007l.04.012v-.004c1.515.378 3.06-.522 3.463-2.035.408-1.513-.48-3.064-1.98-3.493zM48.212 51.756c-7.552-7.552-19.648-7.79-27.486-.713l-.02-.02L10.61 61.122c-7.797 7.798-7.797 20.44 0 28.238 7.797 7.798 20.44 7.798 28.237 0L48.945 79.26l-.02-.02c7.076-7.836 6.84-19.932-.713-27.484zM41.66 72.558l-.62.62h-.002l-9.005 9.005c-3.936 3.936-10.315 3.936-14.25 0s-3.934-10.313 0-14.247h.002l9.005-9.007v-.002h.002l.62-.62.028.028c3.96-3.33 9.874-3.134 13.6.59 3.726 3.727 3.92 9.643.59 13.6l.03.032zM89.39 10.64c-7.553-7.55-19.65-7.79-27.487-.712l-.02-.02-10.096 10.098c-7.797 7.797-7.797 20.44 0 28.237 7.797 7.798 20.44 7.798 28.237 0l10.098-10.098-.02-.02c7.076-7.836 6.84-19.932-.713-27.484zm-6.554 20.803l-.62.62-9.006 9.005c-3.936 3.936-10.315 3.936-14.25 0-3.934-3.934-3.934-10.313 0-14.247h.002l9.005-9.006.002-.002.618-.62.03.03c3.958-3.33 9.873-3.135 13.6.59s3.92 9.642.59 13.6l.028.03z"/></svg>