<svg xmlns="http://www.w3.org/2000/svg" width="100" height="100" viewBox="0 0 100 100"><path d="M82.105 45.587H41.237V34.945c0-5.207 4.372-9.437 9.747-9.437 5.372 0 9.744 4.23 9.746 9.437 0 1.05.88 1.904 1.965 1.904H72.78c1.088 0 1.966-.854 1.966-1.905 0-.16-.018-.312-.056-.457-.253-12.456-10.79-22.513-23.707-22.513-13.074 0-23.71 10.305-23.71 22.97v10.642h-9.378c-1.45 0-2.62 1.135-2.62 2.54v37.36c0 1.403 1.17 2.54 2.62 2.54h64.21c1.45 0 2.62-1.137 2.62-2.54V48.125c0-1.403-1.172-2.538-2.62-2.538z"/></svg>