<svg xmlns="http://www.w3.org/2000/svg" width="100" height="100" viewBox="0 0 100 100"><path d="M77.5 75.545c-.036 0-.068.01-.103.01v-.01h-55v.01c-1.608.056-2.897 1.368-2.897 2.99s1.288 2.934 2.897 2.99v.01h55v-.01c.035 0 .068.01.103.01 1.656 0 3-1.343 3-3s-1.344-3-3-3zM50 72.12c15.83 0 23.58-9.057 23.58-22.52V21.382c0-1.617-1.31-2.928-2.928-2.928h-3.864c-1.618 0-2.93 1.31-2.93 2.928 0 .04.01.076.013.116v27.855c0 8.65-4.813 14.28-13.87 14.28-9.057 0-13.87-5.63-13.87-14.28V21.49c0-.036.01-.07.01-.107 0-1.617-1.31-2.928-2.928-2.928h-3.865c-1.617 0-2.93 1.31-2.93 2.928V49.6c0 13.463 7.835 22.52 23.583 22.52z"/></svg>