<svg xmlns="http://www.w3.org/2000/svg" width="100" height="100" viewBox="0 0 100 100"><path d="M64.603 35.504c-.032-1.506-1.26-2.72-2.774-2.72-.048 0-.092.012-.14.014h-2.038V17.774c0-.93-.755-1.683-1.684-1.684H41.765v.03c-.788.14-1.386.826-1.386 1.654v15.022h-2.053c-.043-.002-.083-.013-.126-.013-1.514 0-2.74 1.213-2.773 2.72h-.036v45.625h.002c0 1.535 1.245 2.78 2.78 2.78H61.83c1.533 0 2.778-1.244 2.78-2.78V35.505h-.007zm-9.938-2.706h-9.33v-11.72h9.33v11.72zM47.506 27.933h4.988v2.072h-4.988z"/></svg>