<svg xmlns="http://www.w3.org/2000/svg" width="100" height="100" viewBox="0 0 100 100"><g fill="#231F20"><path d="M50 12.5c-20.712 0-37.5 16.793-37.5 37.502C12.5 70.712 29.288 87.5 50 87.5s37.5-16.788 37.5-37.498C87.5 29.292 70.712 12.5 50 12.5zm0 65.06c-15.2 0-27.56-12.36-27.56-27.558C22.44 34.807 34.802 22.44 50 22.44c15.198 0 27.56 12.367 27.56 27.562 0 15.196-12.362 27.56-27.56 27.56z"/><circle cx="49.63" cy="32.546" r="4.723"/><path d="M65.892 48.19l-8.973-8.975-.09-.09-.06-.06-.007.006c-.39-.34-.897-.555-1.457-.555-.05 0-.098.012-.148.015H44.695c-.56 0-1.067.213-1.458.556l-.005-.005-.055.056c-.035.032-.068.065-.1.1l-8.968 8.968.014.015c-.36.358-.584.855-.584 1.405 0 1.097.89 1.986 1.986 1.986.55 0 1.046-.222 1.406-.582l.003.003 6.673-6.672v.004c.115-.118.275-.192.452-.192.35 0 .634.284.634.635V69.27c0 1.283 1.04 2.323 2.323 2.323 1.282 0 2.322-1.04 2.322-2.322V56.936h.016c0-.356.288-.644.643-.644.354 0 .642.29.642.645h.017V69.27c0 1.28 1.04 2.32 2.32 2.32 1.284 0 2.324-1.04 2.324-2.32V44.874h.02c-.005-.034-.02-.064-.02-.1 0-.35.284-.632.635-.632.154 0 .29.062.4.155v-.007l.022.022c.015.014.03.027.042.042l6.66 6.66.003-.002c.36.36.857.583 1.406.583 1.097 0 1.986-.89 1.986-1.986 0-.55-.224-1.047-.585-1.407l.017-.014z"/></g></svg>