<svg xmlns="http://www.w3.org/2000/svg" width="100" height="100" viewBox="0 0 100 100"><path d="M79.437 36.83C75.927 23.85 64.973 14.75 52.303 14.75c-8.835 0-17.065 4.454-22.414 12.018-1.485-.34-2.988-.514-4.502-.514C13.5 26.252 3.825 36.79 3.825 49.75c0 4.646 1.25 9.147 3.612 13.017.555.906 1.49 1.45 2.49 1.45H29.85c.143-9.266 7.688-16.735 16.987-16.735 9.3 0 16.843 7.47 16.987 16.734H90.77c.946 0 1.835-.485 2.402-1.315 1.964-2.875 3.004-6.254 3.004-9.767 0-9.656-7.816-17.47-16.74-16.302zM57.345 70.33l-9.918-13.86c-.18-.25-.472-.4-.78-.4-.31 0-.6.15-.78.403L36.013 70.33c-.207.292-.233.675-.07.996.165.32.495.518.854.518h4.634v12.45c0 .53.43.96.96.96h8.58c.53 0 .957-.43.957-.96v-12.45h4.638c.358 0 .687-.202.85-.518.166-.32.138-.703-.07-.996z"/></svg>