<svg xmlns="http://www.w3.org/2000/svg" width="100" height="100" viewBox="0 0 100 100"><path d="M78.864 17.02c-.026-.025-.056-.04-.082-.066l.008-.008-1.924-1.923-.022.022c-1.05-.836-2.567-.788-3.553.16l-.003-.003-3.42 3.418.024.023c-.772.983-.77 2.365.01 3.345l-.02.022.215.216 1.707 1.708.03-.03c.026.025.043.056.068.082 14.358 14.358 14.4 37.688.138 52.104l-.02-.02-1.706 1.708-.216.216.022.022c-.836 1.05-.787 2.568.16 3.553l-.004.003 3.42 3.42.023-.023c.983.773 2.365.77 3.345-.01l.022.02.216-.215 1.707-1.707-.004-.004c18.102-18.257 18.058-47.835-.14-66.033zM69.376 30.198c-.026-.026-.056-.042-.082-.067l.008-.007-1.925-1.923-.022.022c-1.05-.836-2.568-.787-3.554.16l-.003-.004-.035.035-.003.002c-.002 0-.003.002-.003.003l-3.15 3.148s0 .002-.002.002l-.002.003-.225.226.023.023c-.772.983-.768 2.364.012 3.343l-.022.022 1.923 1.924.03-.032c.026.026.043.057.068.083 7.092 7.092 7.133 18.595.136 25.747l-.014-.014-1.707 1.707h-.002l-.215.215.022.022c-.836 1.05-.788 2.57.16 3.554l-.004.005 3.42 3.42.023-.023c.982.773 2.363.77 3.343-.01l.022.02 1.923-1.922-.004-.004c10.838-10.99 10.794-28.745-.138-39.678zM52.75 23.803c-.377 0-.726.108-1.03.285l-.018-.032L31.238 35.87v.013l-7.74 4.47H9.016v.04c-.012 0-.024-.005-.037-.005-.843 0-1.526.684-1.526 1.525v20.66c0 .842.683 1.524 1.525 1.524.012 0 .023-.003.036-.004v.04h14.482l11.524 6.654v-.03L51.57 80.31c.336.233.742.373 1.18.373 1.144 0 2.072-.927 2.072-2.07 0-.08-.015-.155-.024-.233h.024V25.64h-.024c-.117-1.03-.983-1.837-2.047-1.837z"/></svg>