<svg xmlns="http://www.w3.org/2000/svg" width="100" height="100" viewBox="0 0 100 100"><path d="M60.416 35.232l-.022.022 1.923 1.924.03-.03c.026.025.043.056.068.082 4.39 4.39 6.07 10.47 5.06 16.163l7.867 7.868c4.384-10.268 2.403-22.628-5.964-30.994-.026-.026-.056-.042-.082-.067l.008-.01-1.924-1.922-.022.02c-1.05-.834-2.568-.786-3.554.162l-.004-.004-.035.035c0 .002-.002.002-.003.003l-.002.003-3.15 3.148s0 .002-.002.002l-.002.003-.225.224.024.022c-.77.986-.768 2.367.012 3.346zM78.868 17.09c-.026-.026-.056-.043-.082-.068l.008-.008-1.924-1.923-.022.023c-1.05-.836-2.567-.788-3.553.16l-.004-.003-3.418 3.418.023.023c-.773.984-.77 2.366.01 3.346l-.022.02.216.217L71.805 24l.03-.03c.026.026.043.057.068.083C83.057 35.206 85.567 51.77 79.45 65.368l7.33 7.332c9.753-17.77 7.126-40.573-7.912-55.61zM54.826 25.708h-.024c-.117-1.03-.983-1.837-2.047-1.837-.378 0-.727.11-1.03.286l-.02-.032-8.557 4.94 11.68 11.68V25.708zM23.502 40.42H9.022v.04c-.013 0-.025-.003-.038-.003-.842 0-1.525.684-1.525 1.525v20.66c0 .842.682 1.524 1.524 1.524.013 0 .024-.003.037-.004v.04h14.483l11.524 6.654v-.03l16.548 9.554c.336.232.742.372 1.18.372 1.144 0 2.072-.927 2.072-2.07 0-.08-.015-.155-.024-.233h.024v-9.414L25.22 39.428l-1.718.992zM85.818 78.788L21.172 14.14l-.002.003-.016-.02c-.97-.97-2.545-.97-3.516 0-.034.034-.058.074-.09.11L14.09 17.71c-.004.003-.008.005-.012.01-.97.97-.97 2.544 0 3.514l64.65 64.65h.002c.97.962 2.538.96 3.507-.01l.004.005 3.433-3.45c.05-.042.103-.076.15-.123.97-.97.97-2.545 0-3.516-.002 0-.004 0-.005-.002z"/></svg>