<svg xmlns="http://www.w3.org/2000/svg" width="100" height="100" viewBox="0 0 100 100"><path d="M86.257 23.405L82.39 27.27l-3.736 3.738-4.76 4.76c-2.52.16-5.095-.714-7.022-2.64-1.927-1.928-2.8-4.503-2.64-7.024l4.76-4.76 3.736-3.736 3.866-3.866c.25-.25.25-.66 0-.91-.046-.047-.1-.075-.155-.104l-.01-.005c-.034-.017-.066-.032-.102-.043-2.677-1.193-5.63-1.878-8.75-1.878-11.938 0-21.617 9.68-21.617 21.618 0 2.28.36 4.475 1.013 6.538L24.428 61.504C16.883 61.626 10.8 67.77 10.8 75.346c0 7.65 6.204 13.853 13.854 13.853 7.574 0 13.72-6.084 13.842-13.63l22.546-22.545c2.063.654 4.26 1.012 6.54 1.012 11.938 0 21.617-9.68 21.617-21.618 0-3.12-.687-6.067-1.878-8.743-.012-.04-.03-.08-.05-.118l-.022-.053-.007.007c-.024-.037-.04-.078-.074-.11-.254-.25-.66-.25-.913 0zm-55.88 51.94c0 3.162-2.562 5.725-5.723 5.725-3.16 0-5.724-2.563-5.724-5.724 0-3.162 2.563-5.725 5.724-5.725 3.16 0 5.724 2.564 5.724 5.726z"/></svg>