<svg xmlns="http://www.w3.org/2000/svg" width="100" height="100" viewBox="0 0 100 100"><path d="M88.553 43.44L78.277 42.43c-.66-2.466-1.644-4.832-2.936-7.06l6.562-7.992c.703-.86.64-2.11-.145-2.893l-6.24-6.243c-.42-.42-.97-.633-1.525-.633-.485 0-.97.162-1.37.49L64.63 24.66c-2.23-1.293-4.596-2.276-7.06-2.936l-1.01-10.278C56.45 10.342 55.52 9.5 54.41 9.5H45.59c-1.11 0-2.04.842-2.15 1.946l-1.01 10.28c-2.464.66-4.83 1.644-7.054 2.937L27.378 18.1c-.4-.33-.884-.49-1.37-.49-.554 0-1.104.21-1.524.632l-6.24 6.24c-.784.783-.848 2.038-.145 2.894l6.565 7.996c-1.29 2.225-2.277 4.59-2.936 7.057L11.447 43.44c-1.105.105-1.948 1.035-1.948 2.145v8.825c0 1.11.843 2.04 1.947 2.146l10.28 1.013c.66 2.467 1.645 4.83 2.937 7.055l-6.562 7.994c-.708.857-.648 2.11.14 2.894l6.24 6.242c.42.418.97.63 1.525.63.485 0 .97-.16 1.37-.488l7.992-6.562c2.23 1.293 4.59 2.276 7.06 2.938l1.01 10.28c.11 1.103 1.038 1.945 2.148 1.945h8.823c1.11 0 2.04-.843 2.15-1.947l1.01-10.278c2.47-.66 4.83-1.643 7.06-2.94l7.993 6.563c.4.327.884.49 1.37.49.554 0 1.104-.214 1.524-.632l6.24-6.242c.788-.783.848-2.037.14-2.895l-6.557-7.992c1.292-2.228 2.275-4.59 2.936-7.057l10.276-1.012c1.104-.11 1.947-1.036 1.947-2.146v-8.825c0-1.11-.843-2.037-1.947-2.146zm-38.55 18.51c-6.604 0-11.954-5.35-11.954-11.95 0-6.602 5.35-11.95 11.952-11.95C56.6 38.05 61.95 43.397 61.95 50c0 6.6-5.35 11.95-11.948 11.95z"/></svg>