<svg xmlns="http://www.w3.org/2000/svg" width="100" height="100" viewBox="0 0 100 100"><path d="M84.707 68.752L65.95 49.998 84.7 31.246c.778-.777.778-2.036 0-2.813L71.567 15.295c-.777-.777-2.037-.777-2.814 0L50 34.047 31.25 15.295c-.747-.747-2.068-.747-2.815 0L15.297 28.43c-.373.374-.583.88-.583 1.408 0 .527.21 1.034.583 1.407L34.05 49.998 15.294 68.753c-.373.374-.583.88-.583 1.407 0 .528.21 1.035.584 1.407L28.43 84.704c.373.373.88.583 1.41.583.525 0 1.03-.21 1.404-.583L50 65.95l18.755 18.753c.39.388.896.583 1.407.583.51 0 1.02-.195 1.408-.583l13.138-13.137c.776-.777.776-2.036 0-2.814z"/></svg>