<svg xmlns="http://www.w3.org/2000/svg" width="100" height="100" viewBox="0 0 100 100"><path fill="#231F20" d="M68.056 59.756L58.298 50l9.755-9.757c.404-.404.404-1.06 0-1.464l-6.833-6.836c-.405-.404-1.06-.404-1.464 0L50 41.7l-9.756-9.756c-.388-.388-1.075-.388-1.464 0l-6.835 6.835c-.194.194-.304.457-.304.73 0 .275.11.54.305.733L41.7 50l-9.757 9.757c-.194.193-.304.458-.304.732 0 .272.11.537.303.73l6.833 6.834c.194.194.46.304.733.304.273 0 .537-.11.73-.304l9.757-9.757 9.758 9.756c.202.203.466.304.732.304.266 0 .53-.1.732-.304l6.834-6.834c.406-.404.406-1.06.002-1.464zM50 22.44c15.196 0 27.56 12.367 27.56 27.562 0 15.197-12.364 27.56-27.56 27.56S22.44 65.198 22.44 50C22.44 34.807 34.804 22.44 50 22.44m0-9.94c-20.71 0-37.5 16.793-37.5 37.502C12.5 70.712 29.29 87.5 50 87.5s37.5-16.788 37.5-37.498C87.5 29.292 70.71 12.5 50 12.5z"/></svg>