<svg xmlns="http://www.w3.org/2000/svg" width="100" height="100" viewBox="0 0 100 100"><path d="M76.275 22.81c.05-.048.08-.115.08-.19 0-.134-.104-.233-.233-.255v-.017H64.12c-.337 0-.62.19-.78.463h-.015L50.045 44.3 36.762 22.81h-.014c-.16-.27-.443-.462-.78-.462H23.916c-.15 0-.272.122-.272.272 0 .074.03.142.08.19h-.002l16.42 25.355H25.977v.017c-.025-.002-.046-.015-.072-.015-.637 0-1.153.516-1.153 1.153v4.12h.014c.038.602.527 1.083 1.14 1.083.025 0 .046-.012.07-.014v.014H44.33v6.44H25.964c-.637 0-1.153.515-1.153 1.152v3.97c0 .636.516 1.152 1.153 1.152l.012-.002v.004H44.33v9.2c-.002.02-.013.037-.013.057 0 .637.516 1.153 1.153 1.153h9.144c.636 0 1.15-.517 1.15-1.153 0-.01-.005-.02-.005-.03V67.24H74.19v-.003l.01.002c.637 0 1.153-.517 1.153-1.154v-3.97c0-.636-.516-1.152-1.153-1.152l-.01.002v-.002H55.76v-6.44H74.19v-.002l.01.002c.637 0 1.153-.516 1.153-1.153v-4.12h-.014c-.037-.602-.526-1.083-1.138-1.083l-.01.002v-.005H59.864l16.42-25.354h-.01z"/></svg>