<svg xmlns="http://www.w3.org/2000/svg" viewBox="1.9 263 959.9 290.1" enable-background="new 1.9 263 959.9 290.1"><path fill="none" stroke="#E00C10" stroke-width="17" stroke-miterlimit="10" d="M605.5 544.6l-595.1-.3V271.5h943v272.8h-61.5"/><path d="M41.2 456.6v-118h39.2c13.1 0 23.3 2.7 30.6 8.1 7.3 5.4 11 13.4 11 24.1 0 5.3-1.5 10.1-4.6 14.3s-7.3 7.3-12.8 9.4c7 1.6 12.4 4.9 16.2 10.1 3.8 5.2 5.7 11.2 5.7 18.1 0 11.1-3.6 19.5-10.9 25.2-7.2 5.8-17.2 8.6-30 8.6H41.2zm19.7-68.3h21.7c6.1 0 10.9-1.4 14.5-4.3 3.5-2.9 5.3-7 5.3-12.3 0-5.8-1.9-10.2-5.6-13-3.7-2.8-9.2-4.3-16.4-4.3H60.9v33.9zm0 14.6v37.9h24.8c6.8 0 12-1.5 15.7-4.7 3.7-3.1 5.5-7.6 5.5-13.5 0-6.3-1.5-11.1-4.6-14.6-3.1-3.4-7.9-5.2-14.4-5.2h-27zm154.3.6h-51.6v37.3h59.9v15.8h-79.6v-118h79v15.8h-59.3v33.3h51.6v15.8zm92.6 0h-51.6v37.3H316v15.8h-79.6v-118h79v15.8h-59.3v33.3h51.6v15.8zm40.9 4.1v49H329v-118h43.6c13.2 0 23.4 3 30.6 8.9 7.2 5.9 10.8 14.4 10.8 25.5 0 6.1-1.6 11.4-4.7 15.8s-7.8 7.9-13.8 10.6c6.6 2.1 11.4 5.6 14.3 10.3 2.9 4.8 4.4 10.7 4.4 17.6v9.8c0 3.5.4 6.8 1.3 10.1s2.3 5.8 4.4 7.5v1.9h-20.3c-2.2-1.8-3.6-4.6-4.2-8.4-.6-3.8-.9-7.6-.9-11.3v-9.5c0-6.1-1.7-10.9-5.2-14.4-3.5-3.6-8.2-5.3-14.3-5.3h-26.3zm0-15.8h22.9c7.9 0 13.6-1.5 17.3-4.5 3.6-3 5.4-7.6 5.4-13.9 0-5.9-1.8-10.6-5.3-14-3.6-3.4-9-5.1-16.3-5.1h-23.9v37.5zm150.5 34.4c0-4.9-1.8-8.9-5.5-12-3.6-3.1-10.1-5.9-19.3-8.4-13.2-3.5-23.3-8-30.4-13.7-7.1-5.7-10.7-13.2-10.7-22.4 0-9.5 3.9-17.3 11.8-23.5s18-9.2 30.4-9.2c13 0 23.4 3.5 31.2 10.5 7.9 7 11.7 15.4 11.4 25.2l-.1.3h-18.9c0-6.1-2.1-11-6.2-14.7-4.1-3.8-10-5.6-17.6-5.6-7.2 0-12.7 1.6-16.6 4.7-3.9 3.1-5.8 7.2-5.8 12.1 0 4.5 2.1 8.2 6.3 11.2 4.2 3 11.1 5.8 20.8 8.4 12.7 3.4 22.3 8.1 28.9 14.1 6.6 6 9.9 13.6 9.9 22.9 0 9.8-3.9 17.7-11.8 23.5-7.9 5.8-18.2 8.7-31 8.7-12.3 0-23.1-3.3-32.4-9.8-9.3-6.6-13.8-15.5-13.5-26.9l.2-.5h19c0 7.2 2.5 12.6 7.5 16.1 5 3.5 11.4 5.3 19.4 5.3 7.3 0 13-1.5 17-4.4 4-2.9 6-6.9 6-11.9zm117.4-71.8H581v102.2h-19.7V354.4h-35.7v-15.8h91v15.8zm31.5 53.2v49h-19.7v-118H672c13.2 0 23.4 3 30.6 8.9 7.2 5.9 10.8 14.4 10.8 25.5 0 6.1-1.6 11.4-4.7 15.8-3.2 4.4-7.8 7.9-13.8 10.6 6.6 2.1 11.4 5.6 14.3 10.3 2.9 4.8 4.4 10.7 4.4 17.6v9.8c0 3.5.4 6.8 1.3 10.1s2.3 5.8 4.4 7.5v1.9H699c-2.2-1.8-3.6-4.6-4.2-8.4-.6-3.8-.9-7.6-.9-11.3v-9.5c0-6.1-1.7-10.9-5.2-14.4-3.5-3.6-8.2-5.3-14.3-5.3h-26.3zm0-15.8H671c7.9 0 13.6-1.5 17.3-4.5 3.6-3 5.4-7.6 5.4-13.9 0-5.9-1.8-10.6-5.3-14-3.6-3.4-9-5.1-16.3-5.1h-23.9v37.5zm178.6 16.4c0 14.4-4.5 26.4-13.6 35.9s-20.8 14.2-35.2 14.2c-14.2 0-25.7-4.7-34.5-14.2s-13.3-21.4-13.3-35.9V387c0-14.4 4.4-26.3 13.3-35.8 8.8-9.5 20.3-14.3 34.4-14.3 14.4 0 26.2 4.8 35.3 14.3 9.1 9.5 13.6 21.5 13.6 35.8v21.2zM807 386.8c0-9.8-2.6-17.9-7.9-24.2-5.3-6.3-12.4-9.5-21.4-9.5-8.6 0-15.5 3.2-20.5 9.5s-7.5 14.4-7.5 24.2v21.4c0 9.9 2.5 18.1 7.5 24.4s11.9 9.5 20.6 9.5c9 0 16.1-3.2 21.4-9.5s7.8-14.5 7.8-24.5v-21.3zm115.6-32.4H887v102.2h-19.7V354.4h-35.7v-15.8h91v15.8z" enable-background="new" fill="#E00C10"/></svg>