<svg xmlns="http://www.w3.org/2000/svg" viewBox="0 0 170 106.2" enable-background="new 0 0 170 106.2"><g><path fill="#14477C" d="M169.9 100.5c0 3.1-2.6 5.7-5.7 5.7H5.7c-3.1 0-5.7-2.6-5.7-5.7V5.7C0 2.6 2.6 0 5.7 0h158.6c3.1 0 5.7 2.6 5.7 5.7v94.8h-.1z"/><path fill="#FBB230" d="M105.4 83.6h1.5l1.6-.2 1.5-.2 1.5-.3 1.5-.3 1.5-.4 1.3-.5 1.4-.5 1.3-.6 1.4-.7 1.3-.8 1.3-.7 1.2-.9 1.1-.8 1.1-1.1 1-1 1.1-1 1-1.1.8-1.2.9-1.1.7-1.4.8-1.2.7-1.4.5-1.3.6-1.4.5-1.3.4-1.5.4-1.5.3-1.5.1-1.5.2-1.6v-3.1l-.2-1.5-.1-1.6-.3-1.5-.4-1.4-.4-1.5-.5-1.5-.6-1.3-.5-1.4-.7-1.2-.8-1.4-.7-1.2-.9-1.2-.8-1.1-1-1.1-1.1-1-1-1.1-1.1-1-1.1-.8-1.2-.9-1.3-.7-1.3-.8-1.4-.7-1.3-.5-1.4-.6-1.3-.5-1.5-.4-1.5-.3-1.5-.3-1.5-.2-1.6-.2h-3.1l-1.5.2-1.6.2-1.5.3-1.5.3-1.4.4-1.5.5-1.3.6-1.4.5-1.2.7-1.3.8-1.3.7-1.2.9-1.1.8-1.1 1-1 1.1-1.1 1-1 1.1-.8 1.1-.9 1.2-.7 1.2-.8 1.4-.7 1.2-.5 1.4-.6 1.3-.5 1.5-.4 1.5-.3 1.4-.3 1.5-.2 1.6-.2 1.5v3.1l.2 1.6.2 1.5.3 1.5.3 1.5.4 1.5.5 1.3.6 1.4.5 1.3.7 1.4.8 1.2.7 1.4.9 1.1.8 1.2 1 1.1 1.1 1 1 1 1.1 1.1 1.1.8 1.2.9 1.3.7 1.3.8 1.2.7 1.4.6 1.3.5 1.5.5 1.4.4 1.5.3 1.5.3 1.6.2 1.5.2z"/><path fill="#EB2230" d="M64.6 83.6h1.5l1.6-.2 1.5-.2 1.5-.3 1.5-.3 1.4-.4 1.5-.5 1.3-.5 1.4-.6 1.3-.7 1.2-.8 1.2-.7 1.3-.9 1.2-.8 1.1-1.1.9-1 1.1-1 1-1.1.9-1.2.8-1.1.8-1.4.7-1.2.7-1.4.7-1.3.5-1.4.4-1.3.4-1.5.4-1.5.3-1.5.1-1.5.2-1.6v-3.1l-.2-1.5-.1-1.6-.3-1.5-.4-1.4-.4-1.5-.4-1.5-.5-1.3-.7-1.4-.7-1.2-.7-1.4-.8-1.2-.8-1.2-.9-1.1-1-1.1-1.1-1-.9-1.1-1.1-1-1.2-.8-1.3-.9-1.2-.7-1.2-.8-1.3-.7-1.4-.5-1.3-.6-1.5-.5-1.4-.4-1.5-.3-1.5-.3-1.5-.2-1.6-.2H63l-1.5.2-1.6.2-1.5.3-1.5.3-1.4.4-1.5.5-1.3.6-1.3.5-1.4.7-1.2.8-1.2.7-1.3.9-1.2.8-1.1 1-1 1.1-1 1-.9 1.1-1 1.1-.8 1.2-.8 1.2-.8 1.4-.7 1.2-.5 1.4-.6 1.3-.5 1.5-.4 1.5-.3 1.4-.3 1.5-.3 1.6-.1 1.5v3.1l.1 1.6.3 1.5.3 1.5.3 1.5.4 1.5.5 1.3.6 1.4.5 1.3.7 1.4.8 1.2.8 1.4.8 1.1 1 1.2.9 1.1 1 1 1 1 1.1 1.1 1.2.8 1.3.9 1.2.7 1.2.8 1.4.7 1.3.6 1.3.5 1.5.5 1.4.4 1.5.3 1.5.3 1.6.2 1.5.2z"/><path fill="#FBB230" d="M81.4 34.3h16.1v-1.7H82.8zM79 37.9h18.5v-1.6H79.9zM77.2 41.7h20.3V40H77.9zM75.9 45.4h21.6v-1.8H76.4zM76.7 63.1h21v-1.6H76.1zM78.2 66.8h19.5v-1.6H77.4zM80.3 70.4h17.4v-1.6H79.4zM83.3 74.1h14.4v-1.6H82zM75.2 49h22.3v-1.6h-22zM88.9 59.5h8.5v-1.7h-8.3zM89.6 55.8h7.8v-1.6h-7.6zM74.6 54.2h2.2v1.6h-2z"/><path fill="#fff" d="M70.5 52.2h-.2l-.1-.2h-.8l-.2-.1H68l-.3.1H67.1l-.2.2h-.1l-.1.1-.2.1v.2h-.1v.6l.1.2.2.1.1.2.3.2.2.1h.3l.4.2.3.1.4.1.3.2.2.1.4.3.2.3.2.2.2.4.1.4V58.1l-.1.4-.3.4-.1.3-.3.3-.3.2-.2.3-.3.1-.4.3-.3.2h-.4l-.3.1h-.4l-.4.1H64.1l-.3-.1H62.9l-.2-.1h-.4l-.1-.2h-.1l-.3-.1.5-2.2H62.6l.3.1h.4l.1.2h.8l.3.1h1.7l.3-.1.2-.2.1-.1.1-.1.2-.2v-.4l.1-.2-.1-.3-.2-.1-.2-.2-.5-.3-.2-.1-.4-.1-.4-.2-.4-.1-.5-.3-.4-.2-.2-.3-.3-.4-.1-.6-.2-.5v-1.1l.2-.2.1-.4v-.3l.3-.4.1-.3.3-.3.2-.1.3-.3.3-.1.4-.1.4-.2h.4l.6-.1H70l.2.1h.7v.2h.1z"/><path fill="none" stroke="#fff" stroke-width=".216" stroke-miterlimit="2.613" d="M70.5 52.2h-.2l-.1-.2h-.8l-.2-.1H68l-.3.1H67.1l-.2.2h-.1l-.1.1-.2.1v.2h-.1v.6l.1.2.2.1.1.2.3.2.2.1h.3l.4.2.3.1.4.1.3.2.2.1.4.3.2.3.2.2.2.4.1.4V58.1l-.1.4-.3.4-.1.3-.3.3-.3.2-.2.3-.3.1-.4.3-.3.2h-.4l-.3.1h-.4l-.4.1H64.1l-.3-.1H62.9l-.2-.1h-.4l-.1-.2h-.1l-.3-.1.5-2.2H62.6l.3.1h.4l.1.2h.8l.3.1h1.7l.3-.1.2-.2.1-.1.1-.1.2-.2v-.4l.1-.2-.1-.3-.2-.1-.2-.2-.5-.3-.2-.1-.4-.1-.4-.2-.4-.1-.5-.3-.4-.2-.2-.3-.3-.4-.1-.6-.2-.5v-1.1l.2-.2.1-.4v-.3l.3-.4.1-.3.3-.3.2-.1.3-.3.3-.1.4-.1.4-.2h.4l.6-.1H70l.2.1h.7v.2h.1l-.5 2.3"/><path fill="#fff" d="M72.9 47.3h2.8l-.4 2.4h1.8l-.4 2.3h-1.8l-1.1 5.7v.3l.2.1v.1l.1.2h.3l.1.1H75.9l.1-.1h.1l-.4 1.9-.1.1h-.1v.2h-.4l-.2.1H72.2l-.3-.1-.2-.2h-.3l-.1-.1-.2-.2-.1-.1v-.4l-.1-.1v-.7l.1-.3z"/><path fill="none" stroke="#fff" stroke-width=".216" stroke-miterlimit="2.613" d="M72.9 47.3h2.8l-.4 2.4h1.8l-.4 2.3h-1.8l-1.1 5.7v.3l.2.1v.1l.1.2h.3l.1.1H75.9l.1-.1h.1l-.4 1.9-.1.1h-.1v.2h-.4l-.2.1H72.2l-.3-.1-.2-.2h-.3l-.1-.1-.2-.2-.1-.1v-.4l-.1-.1v-.7l.1-.3 1.9-11.2M79.4 55.9l-.1.2v.4l.1.3v.1l.1.1.2.3.1.1.1.2.2.1.1.3.1.1h.3l.2.1.2.2h.7l.3.1h1.3l.3-.1h.3l.2-.2h.3l.4-.1.3-.1.2-.2.3-.1-.4 2.4-.1.2h-.2l-.2.1h-.2l-.1.2H84.1l-.2.1h-3.6l-.5-.1-.5-.3-.4-.2-.6-.2-.4-.3-.4-.4-.3-.4-.2-.4-.3-.6-.3-.6v-.7l-.1-.7.1-.9v-.3l.1-.4v-.4l.2-.4.1-.4.2-.6.2-.4.3-.4.4-.4.4-.4.4-.4.6-.3.5-.2.7-.2.8-.1h1.6l.4.1h.4l.4.2.4.2.4.3.3.3.4.2.3.4.1.6.2.5.1.6v.8l-.1.6-.2 1v.5h-7.6l.6-2h4.4V53l-.1-.2v-.1l-.1-.1-.2-.2-.1-.1-.1-.1-.2-.2h-.1l-.1-.1H82l-.2-.1-.3.1h-.2l-.1.1h-.3l-.1.2-.2.1-.1.1-.2.2-.1.1-.1.1v.2l-.2.2-.1.2v.4l-.4 2.1"/><path fill="#fff" d="M103.9 50.4l-.1-.1h-.2l-.1-.2h-.3l-.1-.1h-.1l-.2-.1h-.4l-.3-.2h-.5l-.3-.1h-.8l-.3.1h-.5l-.3.2-.2.1-.3.1-.4.2-.3.2-.2.3-.2.3-.3.4-.2.4-.3.5-.1.6-.2.7-.1.3V55.4l.1.4v.3l.2.2.1.3.3.3.1.3.3.2.3.2.4.1.2.1.4.2H99.6l.1.1h1l.2-.1h.3l.3-.2h.2l.3-.1.3-.1.1-.2.3-.2-.6 2.8-.1.1-.1.2h-.2l-.1.1h-.1l-.2.2h-.2l-.3.1h-3.1l-.4-.1-.6-.2-.4-.3-.5-.2-.4-.3-.4-.3-.4-.4-.3-.5-.3-.6-.3-.5-.2-.7-.2-.7v-1.5l.2-.7.1-.5v-.4l.1-.4.2-.4.1-.4.2-.3.1-.4.1-.2.2-.4.1-.3.1-.3.3-.3.1-.2.3-.3.1-.1.3-.3.2-.3.2-.1.3-.1.3-.2.2-.3.3-.1h.3l.3-.1.4-.2.2-.1h.4l.3-.1h.7l.4-.2h.7l.4.2h.9l.3.1h.3l.1.1h.3l.2.2h.2l.1.1H104.2l.1.1z"/><path fill="none" stroke="#fff" stroke-width=".216" stroke-miterlimit="2.613" d="M103.9 50.4l-.1-.1h-.2l-.1-.2h-.3l-.1-.1h-.1l-.2-.1h-.4l-.3-.2h-.5l-.3-.1h-.8l-.3.1h-.5l-.3.2-.2.1-.3.1-.4.2-.3.2-.2.3-.2.3-.3.4-.2.4-.3.5-.1.6-.2.7-.1.3V55.4l.1.4v.3l.2.2.1.3.3.3.1.3.3.2.3.2.4.1.2.1.4.2H99.6l.1.1h1l.2-.1h.3l.3-.2h.2l.3-.1.3-.1.1-.2.3-.2-.6 2.8-.1.1-.1.2h-.2l-.1.1h-.1l-.2.2h-.2l-.3.1h-3.1l-.4-.1-.6-.2-.4-.3-.5-.2-.4-.3-.4-.3-.4-.4-.3-.5-.3-.6-.3-.5-.2-.7-.2-.7v-1.5l.2-.7.1-.5v-.4l.1-.4.2-.4.1-.4.2-.3.1-.4.1-.2.2-.4.1-.3.1-.3.3-.3.1-.2.3-.3.1-.1.3-.3.2-.3.2-.1.3-.1.3-.2.2-.3.3-.1h.3l.3-.1.4-.2.2-.1h.4l.3-.1h.7l.4-.2h.7l.4.2h.9l.3.1h.3l.1.1h.3l.2.2h.2l.1.1H104.2l.1.1-.4 2.9"/><path fill="#fff" d="M129.1 60.7h-2.8l.2-1.1v-.1l-.1.2-.3.2-.1.1-.1.1-.3.2-.1.1-.2.2-.3.1h-.1l-.3.1h-.5l-.3.2h-.4l-.5-.2-.4-.1-.6-.1-.4-.3-.3-.3-.4-.3-.2-.4-.3-.4-.1-.5-.2-.4-.1-.6-.1-.5v-1.6l.1-.4.1-.7.3-.5.1-.6.3-.5.3-.4.2-.4.5-.5.2-.2.4-.4.4-.2.4-.2.3-.2.4-.2h.4l.6-.2h.7l.2.2h.6l.1.1.3.1.2.2h.2l.1.1.1.1.2.2.1.1.1.1.2.2v.1l.1.1.7-4h2.8z"/><path fill="none" stroke="#fff" stroke-width=".216" stroke-miterlimit="2.613" d="M129.1 60.7h-2.8l.2-1.1v-.1l-.1.2-.3.2-.1.1-.1.1-.3.2-.1.1-.2.2-.3.1h-.1l-.3.1h-.5l-.3.2h-.4l-.5-.2-.4-.1-.6-.1-.4-.3-.3-.3-.4-.3-.2-.4-.3-.4-.1-.5-.2-.4-.1-.6-.1-.5v-1.6l.1-.4.1-.7.3-.5.1-.6.3-.5.3-.4.2-.4.5-.5.2-.2.4-.4.4-.2.4-.2.3-.2.4-.2h.4l.6-.2h.7l.2.2h.6l.1.1.3.1.2.2h.2l.1.1.1.1.2.2.1.1.1.1.2.2v.1l.1.1.7-4h2.8l-2.4 13.4"/><path fill="#FBB230" d="M124.5 58.2h.5l.3-.1.3-.1.1-.2.3-.1.1-.1.3-.3.1-.1.2-.3.1-.1.1-.3v-.3l.2-.3.1-.2v-.6l.1-.4v-.3l-.1-.2v-.5l-.1-.2v-.3l-.2-.2-.1-.2-.1-.1-.2-.1-.1-.2-.3-.1h-.1l-.3-.1-.2.1h-.3l-.2.1h-.2l-.3.2-.1.2-.2.2-.2.1-.2.3-.1.3-.1.1-.2.2-.1.3v.4l-.2.3v.3l-.1.4.1.5v.6l.2.4.3.4.2.4.3.2z"/><path fill="#fff" d="M61.4 58.5l-.4 2.2h-2.6v-.4l.1-.3v-.5l-.1.2-.1.2-.2.1-.3.1-.2.2-.3.1-.3.2-.2.1h-.3l-.3.1h-.3l-.4.2h-.8l-.2-.2H54l-.2-.1-.3-.1-.2-.2-.3-.3-.3-.1-.1-.1-.2-.3-.1-.1v-.3l-.1-.3-.2-.1V57l.2-.4.1-.3.1-.4.3-.2.1-.3.3-.3.3-.2.3-.2.2-.3.4-.1.3-.1.4-.2.3-.1h.9l.2-.1h1.2l.1-.1H58l.3.1h.9v-.1l.1-.2v-.7l-.1-.1-.1-.3-.2-.1-.2-.1h-.2l-.2-.2H55.8l-.4.2h-.5l-.3.1h-.3l-.3.1h-.1l-.1.2h-.1l.6-2.5.3-.1h.3l.2-.1h.2l.2-.2H56.4l.2-.1H58.9l.4.1h.6l.4.2.3.1.2.1.3.2.4.2.3.2.1.2.3.3.1.4.2.3V53.1z"/><path fill="none" stroke="#fff" stroke-width=".216" stroke-miterlimit="2.613" d="M61.4 58.5l-.4 2.2h-2.6v-.4l.1-.3v-.5l-.1.2-.1.2-.2.1-.3.1-.2.2-.3.1-.3.2-.2.1h-.3l-.3.1h-.3l-.4.2h-.8l-.2-.2H54l-.2-.1-.3-.1-.2-.2-.3-.3-.3-.1-.1-.1-.2-.3-.1-.1v-.3l-.1-.3-.2-.1V57l.2-.4.1-.3.1-.4.3-.2.1-.3.3-.3.3-.2.3-.2.2-.3.4-.1.3-.1.4-.2.3-.1h.9l.2-.1h1.2l.1-.1H58l.3.1h.9v-.1l.1-.2v-.7l-.1-.1-.1-.3-.2-.1-.2-.1h-.2l-.2-.2H55.8l-.4.2h-.5l-.3.1h-.3l-.3.1h-.1l-.1.2h-.1l.6-2.5.3-.1h.3l.2-.1h.2l.2-.2H56.4l.2-.1H58.9l.4.1h.6l.4.2.3.1.2.1.3.2.4.2.3.2.1.2.3.3.1.4.2.3V53.1l-1.1 5.4"/><path fill="#EB2230" d="M58.9 55.8v-.1h-.4l-.1-.2H58.1l-.1.2h-.8l-.2.1h-.2l-.2.1h-.2l-.2.2h-.1l-.2.1-.1.1-.1.2h-.2l-.1.1v.2l-.1.1v.3l-.2.1v.3l.2.2.1.3.1.1.2.2h.1l.1.1H56.5l.3-.1h.4l.2-.2.2-.1h.2l.2-.1.1-.2.2-.1v-.1l.1-.2h.1v-.2l.2-.2v-.2l.1-.5v-.2z"/><path fill="#fff" d="M39.7 60.7H37l2.3-13.4h4.9l.4 8 3.4-8h5l-2.3 13.4h-2.9l1.8-10h-.1l-4.1 10h-3.3v-1.5l-.1-1.6-.1-1.8-.2-1.9v-1.6l-.1-1.1v-.5h-.1z"/><path fill="none" stroke="#fff" stroke-width=".216" stroke-miterlimit="2.613" d="M39.7 60.7H37l2.3-13.4h4.9l.4 8 3.4-8h5l-2.3 13.4h-2.9l1.8-10h-.1l-4.1 10h-3.3v-1.5l-.1-1.6-.1-1.8-.2-1.9v-1.6l-.1-1.1v-.5h-.1l-1.8 10"/><path fill="#fff" d="M112.4 58.5l-.4 2.2h-2.5v-1.1l-.2.1-.1.2-.3.1-.1.1-.3.2-.2.1-.2.2-.3.1h-.2l-.4.1h-.3l-.3.2h-.8l-.3-.2h-.4l-.2-.1-.3-.1-.3-.2-.3-.3-.2-.1-.2-.1-.1-.3-.1-.1v-.3l-.2-.3v-.1l-.1-.3v-1.1l.1-.4v-.4l.2-.3.1-.4.3-.2.1-.3.3-.3.3-.2.2-.2.3-.3.4-.1.3-.1.4-.2.3-.1h.8l.2-.1H108.5l.1-.1h.4l.3.1h1V53.5l.1-.3v-.1l-.1-.3v-.1l-.2-.3-.1-.1-.3-.1h-.1l-.3-.2h-2.4l-.4.2h-.6l-.2.1h-.3l-.3.1h-.1l-.1.2h-.2l.7-2.5.3-.1h.2l.3-.1h.2l.2-.2h.8l.3-.1H110l.3.1H110.9l.3.2.4.1.3.1.3.2.2.2.3.2.3.2.3.3.1.4v.3l.1.4v.8zM112 60.8l.4-2.3h-.1l-.4 2.2h.1v.1zM109.3 60.7l.2.1h2.5v-.1h-2.7v.1h.2zM109.5 59.6v-.1l-.2.2v1h.2V59.5zM105.5 61h1.4l.4-.2h.3l.2-.1.3-.1.3-.2h.1l.3-.3.2-.1.2-.1.1-.2.2-.1v-.1l-.2.2-.3.2-.1.1-.1.1-.3.2-.2.1h-.3l-.2.2-.2.1h-.4l-.3.1H105.5zM103 57.8v.2l.1.2v.6l.1.1v.3l.2.3.1.1.1.3.2.1.2.3.2.1.3.2.2.1.4.1.4.2v-.2l-.4-.1-.2-.1-.3-.2-.3-.1-.3-.2-.1-.1-.1-.3-.2-.1-.1-.3-.1-.1-.2-.3v-.7l-.1-.2v-.2zM106.8 53.9h-.4l-.5.1-.2.2-.4.1-.3.1-.3.2-.2.3-.3.2-.3.3-.3.3-.1.2-.1.4-.2.3-.1.4v.4l-.1.4h.1l.1-.4V57l.2-.4.1-.3.1-.4.2-.2.2-.3.2-.3.3-.1.2-.3.4-.1.3-.3.3-.1h.4l.3-.2.4-.1zM108.8 53.7h-1l-.1.1H106.8v.1h.9l.1-.1h1zM110.1 53.8l.2-.1h-1.5v.1h1.5zM110.3 53.1V53.7l-.2.1h.2l.1-.1v-.6zM109 52l.3.2h.3l.1.1.2.1.1.2.1.1.2.1v.3h.1v-.3l-.1-.1-.2-.3-.1-.1-.1-.1-.3-.2h-.3l-.3-.1v.1zM104.7 52.6v.1l.2-.1h.1l.1-.2h.3l.3-.1h.5l.3-.1h.7l.4-.2h1.4l-.2-.1h-1l-.2.1h-1.1l-.3.2h-.5l-.3.1h-.3l-.1.1h-.1l-.2.2h.2zM105.4 50v.1l-.7 2.5h.2l.6-2.5-.1-.1v.1zM110 49.6H107.2l-.3.1h-.5l-.3.2h-.2l-.2.1h-.3l.1.1h.2l.2-.1.3-.1h.4l.3-.2H110zM113.5 53.1V51.9l-.1-.4-.1-.3-.3-.3-.2-.2-.2-.3-.4-.1-.3-.2-.3-.1-.4-.1-.3-.2-.2-.1h-.7v.1h.5l.4.2.3.1h.3l.4.3.3.1.2.1.3.3.3.3.1.2.2.3.1.3.1.4v.4l-.1.3zM112.4 58.5l1.1-5.4-.1-.1-1.1 5.5z"/><path fill="#FBB230" d="M109.9 55.8v-.1h-.2l-.1-.2H109l-.1.2h-.6l-.2.1h-.4l-.1.1h-.2l-.1.2h-.1l-.2.1h-.1l-.1.1-.2.2-.1.1v.2l-.1.1v.4l-.2.3.2.2v.3l.1.1.3.2h.1l.1.1H107.6l.2-.1h.3l.3-.2h.1l.3-.1.1-.1.1-.2h.2l.1-.1.2-.1.1-.2v-.1l.1-.1V56.6l.2-.3v-.2z"/><path fill="#fff" d="M131.1 59.3v-.5l.2-.3.2-.1.2-.2.3-.1.2-.1h.6l.2.1.3.1.3.2.1.1.2.3.1.3v.2h-.3v-.1l-.1-.3-.2-.1-.1-.3-.1-.1-.2-.2H132.1l-.3.2-.1.1-.2.3-.1.1v.4zM132 59.3v-.5h1v.5h-.4.2l.1-.1v-.1l-.1-.2H132.2v.4zM131.1 59.3v.7l.2.3.2.1.2.2.3.1.2.1h.6l.2-.1.3-.1.3-.2.1-.1.2-.3.1-.3v-.4h-.3V59.6l-.1.3-.2.1-.1.3-.1.1-.2.2H132.1l-.3-.2-.1-.1-.2-.3-.1-.1V59.3zM132 59.3v.7h.2v-.5h.3l.4.5h.1l-.2-.5h.1l.1-.2h-.8z"/><path fill="none" stroke="#fff" stroke-width=".216" stroke-miterlimit="2.613" d="M131.1 59.5v-.3l.1-.3.1-.3.1-.3.3-.1.3-.1.3-.1h.6l.3.1.3.1.3.1.1.3.1.3.1.3v.6l-.1.3-.1.3-.1.3-.3.1-.3.1h-1l-.3-.1-.3-.1-.3-.1-.1-.3-.1-.3-.1-.3.1-.2m1.1.5h-.2v-1.2H132.9v.4h-.2l.3.5h-.3l-.3-.5h-.3l.1.8m.3-.7h.1v-.1h-.3v.4h.1m.1 1h.3l.3-.1.1-.1.1-.1.1-.1.1-.1v-1.2l-.1-.3-.1-.1-.1-.1H132l-.1.1-.1.1-.1.1-.3.3V60l.1.1.1.1.1.1.1.1.3.1.4.1"/><path fill="#fff" d="M113.1 60.7h3l1-5.8.1-.2v-.3l.1-.2V54l.1-.2.2-.3.1-.1.2-.3.1-.1.3-.2.2-.1.3-.1.3-.2.2-.1h1.1l.4-2.7-.2.1h-.6l-.2.2h-.2l-.3.1-.1.1-.3.2-.1.1-.1.1-.3.2-.1.1-.2.3-.1.1-.1.1-.2.3.3-1.9h-2.8l-2.1 11z"/><path fill="none" stroke="#fff" stroke-width=".216" stroke-miterlimit="2.613" d="M113.1 60.7h3l1-5.8.1-.2v-.3l.1-.2V54l.1-.2.2-.3.1-.1.2-.3.1-.1.3-.2.2-.1.3-.1.3-.2.2-.1h1.1l.4-2.7-.2.1h-.6l-.2.2h-.2l-.3.1-.1.1-.3.2-.1.1-.1.1-.3.2-.1.1-.2.3-.1.1-.1.1-.2.3.3-1.9h-2.8l-2.1 11"/><path fill="#fff" d="M85.9 60.7h3l.9-5.8.1-.2v-.5l.2-.2.1-.2v-.1l.2-.2.1-.3.3-.1.1-.1.3-.2.1-.1h.4l.3-.1h.3l.4-.2h.1v.2H93.1v-.4l.1-.2v-.2l.1-.5v-.2l.2-.3.1-.1.1-.3v-.1l.2-.2.1-.2.2-.2H93.9l-.2-.1h-.1l-.3.1h-.5l-.3.2h-.2l-.2.1-.3.1-.1.2-.1.1-.3.1-.1.2-.2.1-.1.1-.1.3-.2.1-.1.3.3-1.9h-2.9l-2 11z"/><path fill="none" stroke="#fff" stroke-width=".216" stroke-miterlimit="2.613" d="M85.9 60.7h3l.9-5.8.1-.2v-.5l.2-.2.1-.2v-.1l.2-.2.1-.3.3-.1.1-.1.3-.2.1-.1h.4l.3-.1h.3l.4-.2h.1v.2H93.1v-.4l.1-.2v-.2l.1-.5v-.2l.2-.3.1-.1.1-.3v-.1l.2-.2.1-.2.2-.2H93.9l-.2-.1h-.1l-.3.1h-.5l-.3.2h-.2l-.2.1-.3.1-.1.2-.1.1-.3.1-.1.2-.2.1-.1.1-.1.3-.2.1-.1.3.3-1.9h-2.9l-2 11"/><path fill="#FBB230" d="M131.1 71.5v-.2l.2-.3.2-.1.2-.2.3-.1.2-.2h.6l.2.2.3.1.3.2.1.1.2.3.1.2h-.3l-.1-.1-.2-.3-.1-.1-.1-.1-.2-.2h-.2l-.3-.1-.1.1h-.3l-.3.2-.1.1-.2.1-.1.3v.1zM132 71.5v-.2h1v.2h-.1v-.1H132.2v.1zM131.1 71.8v-.3h.3v.3zM132 71.8v-.3h.2v.3h.4l.2-.1h.1v-.2h.1V71.8zM133.7 71.8v-.3h.3v.3zM131.1 71.8v.5l.2.3.2.3.2.1.3.1.2.2h.6l.2-.2.3-.1.3-.1.1-.3.2-.3.1-.2v-.3h-.3v.3l-.1.2-.2.2-.1.1-.1.3h-.2l-.2.1h-.4l-.3-.1h-.3l-.1-.3-.2-.1-.1-.2v-.5zM132 71.8v.5h.2v-.4h.3l.4.4h.1l-.2-.4.1-.1h.1z"/><path fill="#fff" d="M86.3 53l-.1-.7-.2-.6-.3-.4-.3-.4-.3-.4-.3-.3-.4-.1-.3-.1-.4-.1-.4-.1-.3-.2H81.3l-.7.1-.7.1-.7.3-.5.3-.4.4-.4.4-.3.4-.4.4-.2.4-.1.4-.1.4-.1.4v2.8l.1.7.1.5.3.5.3.4.4.4.4.4.4.3.4.3.5.1.5.1.5.1.5.1H85l.1-.1.1-.1.4-2.6-.4.1-.2.3-.2.1-.4.1H80.7l-.2-.1-.1-.1h-.2l-.1-.1-.1-.1-.1-.1-.1-.1-.1-.1-.1-.3-.1-.1v-.4h6.6v-.7l.1-.8.1-.8V53zm-2.9.9h-3.8v-.7l.1-.3.1-.1.1-.1.1-.1.1-.1.1-.1.1-.1.1-.1.1-.1.1-.1H82l.1.1.1.1.1.1.1.1.1.1.1.1.1.1.1.1V53.7l.6.2z"/></g></svg>