<svg xmlns="http://www.w3.org/2000/svg" viewBox="32.1 0 896.4 560" enable-background="new 32.1 0 896.4 560"><path fill="#13457C" d="M927.9 530c0 16.4-13.6 30-30 30H62.1c-16.4 0-30-13.6-30-30V30c0-16.4 13.6-30 30-30h836.4c16.4 0 30 13.6 30 30v500h-.6z"/><path fill="#FBB231" d="M587.9 440.7h7.8l8.6-.7 7.8-1.4 7.9-1.5 7.9-1.4 7.8-2.1 7.2-2.9 7.1-2.8 7.1-2.9 7.2-3.6 7.1-4.3 6.5-3.5 6.4-5 5.7-4.3 5.7-5.7 5.7-5 5.7-5.7 5-5.8 4.3-6.4 5-5.7 3.6-7.1 4.3-6.5 3.6-7.1 2.8-7.2 2.9-7.1 2.8-7.1 2.2-7.9 2.1-7.9 1.4-7.8.8-7.9.7-8.5v-16.5l-.7-7.8-.8-8.6-1.4-7.9-2.1-7.1-2.2-7.9-2.8-7.8-2.9-7.2-2.8-7.1-3.6-6.4-4.3-7.2-3.6-6.4-5-6.4-4.3-5.7-5-5.8-5.7-5.7-5.7-5.7-5.7-5-5.7-4.3-6.4-5-6.5-3.5-7.1-4.3-7.2-3.6-7.1-2.9-7.1-2.8-7.2-2.9-7.8-2.1-7.9-1.4-7.9-1.5-7.8-1.4-8.6-.7h-16.4l-7.9.7-8.5 1.4-7.9 1.5-7.9 1.4-7.1 2.1-7.9 2.9-7.1 2.8-7.1 2.9-6.5 3.6-7.1 4.3-6.4 3.5-6.5 5-5.7 4.3-5.7 5-5.7 5.7-5.7 5.7-5 5.8-4.3 5.7-5 6.4-3.6 6.4-4.3 7.2-3.5 6.4-2.9 7.1-2.9 7.2-2.8 7.8-2.2 7.9-1.4 7.1-1.4 7.9-1.4 8.6-.8 7.8v16.5l.8 8.5 1.4 7.9 1.4 7.8 1.4 7.9 2.2 7.9 2.8 7.1 2.9 7.1 2.9 7.2 3.5 7.1 4.3 6.5 3.6 7.1 5 5.7 4.3 6.4 5 5.8 5.7 5.7 5.7 5 5.7 5.7 5.7 4.3 6.5 5 6.4 3.5 7.1 4.3 6.5 3.6 7.1 2.9 7.1 2.8 7.9 2.9 7.1 2.1 7.9 1.4 7.9 1.5 8.5 1.4 7.9.7h8.6z"/><path fill="#EC1C2E" d="M372.9 440.7h7.8l8.6-.7 7.8-1.4 7.9-1.5 7.9-1.4 7.1-2.1 7.9-2.9 7.1-2.8 7.1-2.9 7.2-3.6 6.4-4.3 6.4-3.5 6.5-5 6.4-4.3 5.7-5.7 5-5 5.7-5.7 5-5.8 5-6.4 4.3-5.7 4.3-7.1 3.6-6.5 3.5-7.1 3.6-7.2 2.9-7.1 2.1-7.1 2.2-7.9 2.1-7.9 1.4-7.8.7-7.9.8-8.5v-16.5l-.8-7.8-.7-8.6-1.4-7.9-2.1-7.1-2.2-7.9-2.1-7.8-2.9-7.2-3.6-7.1-3.5-6.4-3.6-7.2-4.3-6.4-4.3-6.4-5-5.7-5-5.8-5.7-5.7-5-5.7-5.7-5-6.4-4.3-6.5-5-6.4-3.5-6.4-4.3-7.2-3.6-7.1-2.9-7.1-2.8-7.9-2.9-7.1-2.1-7.9-1.4-7.9-1.5-7.8-1.4-8.6-.7h-16.4l-7.9.7-8.5 1.4-7.9 1.5-7.9 1.4-7.1 2.1-7.9 2.9-7.1 2.8-7.1 2.9-7.2 3.6-6.4 4.3-6.4 3.5-6.5 5-6.4 4.3-5.7 5-5.7 5.7-5 5.7-5 5.8-5 5.7-4.3 6.4-4.3 6.4-4.3 7.2-3.6 6.4-2.8 7.1-2.9 7.2-2.8 7.8-2.2 7.9-1.4 7.1-1.4 7.9-1.5 8.6-.7 7.8v16.5l.7 8.5 1.5 7.9 1.4 7.8 1.4 7.9 2.2 7.9 2.8 7.1 2.9 7.1 2.8 7.2 3.6 7.1 4.3 6.5 4.3 7.1 4.3 5.7 5 6.4 5 5.8 5 5.7 5.7 5 5.7 5.7 6.4 4.3 6.5 5 6.4 3.5 6.4 4.3 7.2 3.6 7.1 2.9 7.1 2.8 7.9 2.9 7.1 2.1 7.9 1.4 7.9 1.5 8.5 1.4 7.9.7h8.6z"/><path fill="#FBB231" d="M461.4 180.7h85v-8.6h-77.8l-7.2 8.6zM448.6 200h97.8v-8.6h-92.8l-5 8.6zM439.3 220h107.1v-9.3H442.9l-3.6 9.3zM432.1 239.3h114.3V230H435l-2.9 9.3zM436.4 332.9h110.7v-8.6H433.6l2.8 8.6zM444.3 352.1h102.8v-8.5H440l4.3 8.5zM455.7 371.4h91.4v-8.5h-96.4l5 8.5zM471.4 390.7h75.7v-8.6h-82.8l7.1 8.6zM428.6 258.6h117.8V250H430l-1.4 8.6zM500.7 313.6h45V305h-43.6l-1.4 8.6zM504.3 294.3h41.4v-8.6h-40l-1.4 8.6zM425.7 285.7h11.4v8.6h-10.7l-.7-8.6z"/><path fill="#fff" d="M403.6 275h-.7l-.8-.7h-4.2l-.8-.7H390.7l-1.4.7h-3.6l-.7.7h-.7l-.7.7-.7.7v.7h-.8V280.7l.8.7.7.7.7.8 1.4 1.4 1.4.7h1.5l2.1.7 1.4.7 2.2.7 1.4.8 1.4.7 2.2 1.4.7 1.4 1.4 1.5.7 2.1.8 2.1v9.3l-.8 2.2-1.4 2.1-.7 1.4-1.4 1.5-1.5 1.4-1.4 1.4-1.4.7-2.2 1.5-1.4.7h-2.1l-1.5.7H385l-2.1.7H370l-1.4-.7h-5l-.7-.7h-2.2l-.7-.7h-.7l-1.4-.7 2.8-11.5h1.4l1.5.7H365.7l.7.8h4.3l1.4.7h9.3l1.5-.7.7-.8.7-.7.7-.7.7-.7V302.9l.7-1.5-.7-1.4-.7-.7-1.4-.7-2.2-1.5-1.4-.7-2.1-.7-2.2-.7-2.1-.7-2.2-1.4-2.1-1.5-1.4-1.4-1.5-2.1-.7-2.9-.7-2.9v-5.7l.7-1.4.7-2.1v-1.5l1.5-2.1.7-1.4 1.4-1.5 1.4-.7 1.5-1.4 1.4-.7 2.1-.7 2.2-.8h2.1l2.9-.7h17.8l.7.7H405.7v.8h.7l-2.8 12.1z"/><path fill="none" stroke="#fff" stroke-width=".216" stroke-miterlimit="2.613" d="M403.6 275h-.7l-.8-.7h-4.2l-.8-.7H390.7l-1.4.7h-3.6l-.7.7h-.7l-.7.7-.7.7v.7h-.8V280.7l.8.7.7.7.7.8 1.4 1.4 1.4.7h1.5l2.1.7 1.4.7 2.2.7 1.4.8 1.4.7 2.2 1.4.7 1.4 1.4 1.5.7 2.1.8 2.1v9.3l-.8 2.2-1.4 2.1-.7 1.4-1.4 1.5-1.5 1.4-1.4 1.4-1.4.7-2.2 1.5-1.4.7h-2.1l-1.5.7H385l-2.1.7H370l-1.4-.7h-5l-.7-.7h-2.2l-.7-.7h-.7l-1.4-.7 2.8-11.5h1.4l1.5.7H365.7l.7.8h4.3l1.4.7h9.3l1.5-.7.7-.8.7-.7.7-.7.7-.7V302.9l.7-1.5-.7-1.4-.7-.7-1.4-.7-2.2-1.5-1.4-.7-2.1-.7-2.2-.7-2.1-.7-2.2-1.4-2.1-1.5-1.4-1.4-1.5-2.1-.7-2.9-.7-2.9v-5.7l.7-1.4.7-2.1v-1.5l1.5-2.1.7-1.4 1.4-1.5 1.4-.7 1.5-1.4 1.4-.7 2.1-.7 2.2-.8h2.1l2.9-.7h17.8l.7.7H405.7v.8h.7l-2.8 12.1"/><path fill="#fff" d="M416.4 249.3h15l-2.1 12.8h9.3l-2.2 12.2h-9.3l-5.7 30v1.4l.7.7v.7l.8.8h1.4l.7.7h7.1l.8-.7h.7l-2.2 10-.7.7h-.7v.7H427.9l-.8.7h-14.2l-1.5-.7-1.4-.7h-1.4l-.7-.7-.8-.8-.7-.7V314.3l-.7-.7V310l.7-1.4 10-59.3z"/><path fill="none" stroke="#fff" stroke-width=".216" stroke-miterlimit="2.613" d="M416.4 249.3h15l-2.1 12.8h9.3l-2.2 12.2h-9.3l-5.7 30v1.4l.7.7v.7l.8.8h1.4l.7.7h7.1l.8-.7h.7l-2.2 10-.7.7h-.7v.7H427.9l-.8.7h-14.2l-1.5-.7-1.4-.7h-1.4l-.7-.7-.8-.8-.7-.7V314.3l-.7-.7V310l.7-1.4 10-59.3M450.7 295l-.7.7v2.2l.7 1.4v.7l.7.7.7 1.4.8.8.7.7.7.7.7 1.4.7.7h1.4l.8.7 1.4.8H462.9l1.4.7h7.1l1.5-.7h1.4l1.4-.8h1.4l2.2-.7 1.4-.7 1.4-.7 1.5-.7-2.2 12.8-.7.8h-.7l-1.4.7h-.7l-.8.7h-1.4l-1.4.7H455.7l-2.8-.7-2.9-1.4-2.1-.8-2.9-1.4-2.1-1.4-2.2-2.2-1.4-2.1-1.4-2.1-1.5-2.9-1.4-3.6v-3.5l-.7-3.6.7-5v-1.4l.7-2.2v-2.1l.7-2.2.7-2.1.8-2.9 1.4-2.1 1.4-2.2 2.2-2.1 2.1-2.1 2.1-2.2 2.9-1.4 2.9-1.4 3.5-.8 4.3-.7H469.3l2.1.7h2.2l2.1.8 2.2 1.4 2.1 1.4 1.4 1.4 2.2 1.5 1.4 2.1.7 2.9.7 2.8.7 2.9v4.3l-.7 3.5-.7 5v2.9h-40l2.9-10.7h23.5v-5l-.7-.7v-.7l-.7-.8-.7-.7-.7-.7-.7-.7-.7-.7h-.8l-.7-.7H464.3l-.7-.7-1.5.7h-1.4l-.7.7h-1.4l-.7.7-.8.7-.7.7-.7.7-.7.8-.7.7v.7l-.7 1.4-.7.7v2.2l-2.2 11.4"/><path fill="#fff" d="M580 265.7l-.7-.7h-.7l-.7-.7h-1.5l-.7-.7h-.7l-.7-.7h-2.2l-1.4-.8h-2.8l-1.5-.7h-4.3l-1.4.7h-2.8l-1.5.8-1.4.7-1.4.7-2.2.7-1.4 1.4-1.4 1.5-.7 1.4-1.5 2.1-1.4 2.2-1.4 2.8-.7 2.9-.8 3.6-.7 2.1v7.1l.7 2.2v1.4l.8 1.4.7 1.5 1.4 1.4.7 1.4 1.4 1.5 1.5.7 2.1.7 1.4.7 2.2.7h2.8l.8.7h5l1.4-.7h1.4l1.4-.7h1.5l1.4-.7 1.4-.7.7-.7 1.5-1.5-2.9 15-.7.7-.7.8h-.7l-.7.7h-.8l-.7.7H565l-1.4.7h-16.5l-2.1-.7-2.9-.7-2.1-1.5-2.9-1.4-2.1-1.4-2.1-1.4-2.2-2.2-1.4-2.8-1.4-2.9-1.5-2.9-1.4-3.5-.7-3.6v-7.9l.7-4.2.7-2.2v-2.1l.7-2.2.7-2.1.8-2.2.7-1.4.7-2.1.7-1.5.7-2.1.7-1.4.7-1.5 1.5-1.4.7-1.4 1.4-1.4.7-.8 1.5-1.4.7-1.4 1.4-.7 1.4-.7 1.5-.8 1.4-1.4 1.4-.7h1.4l1.5-.7 2.1-.7 1.4-.7h2.2l1.4-.8h3.6l2.1-.7h3.6l2.1.7h5l1.5.8h1.4l.7.7h1.4l1.5.7h.7l.7.7h1.4l.7.7-2.1 15z"/><path fill="none" stroke="#fff" stroke-width=".216" stroke-miterlimit="2.613" d="M580 265.7l-.7-.7h-.7l-.7-.7h-1.5l-.7-.7h-.7l-.7-.7h-2.2l-1.4-.8h-2.8l-1.5-.7h-4.3l-1.4.7h-2.8l-1.5.8-1.4.7-1.4.7-2.2.7-1.4 1.4-1.4 1.5-.7 1.4-1.5 2.1-1.4 2.2-1.4 2.8-.7 2.9-.8 3.6-.7 2.1v7.1l.7 2.2v1.4l.8 1.4.7 1.5 1.4 1.4.7 1.4 1.4 1.5 1.5.7 2.1.7 1.4.7 2.2.7h2.8l.8.7h5l1.4-.7h1.4l1.4-.7h1.5l1.4-.7 1.4-.7.7-.7 1.5-1.5-2.9 15-.7.7-.7.8h-.7l-.7.7h-.8l-.7.7H565l-1.4.7h-16.5l-2.1-.7-2.9-.7-2.1-1.5-2.9-1.4-2.1-1.4-2.1-1.4-2.2-2.2-1.4-2.8-1.4-2.9-1.5-2.9-1.4-3.5-.7-3.6v-7.9l.7-4.2.7-2.2v-2.1l.7-2.2.7-2.1.8-2.2.7-1.4.7-2.1.7-1.5.7-2.1.7-1.4.7-1.5 1.5-1.4.7-1.4 1.4-1.4.7-.8 1.5-1.4.7-1.4 1.4-.7 1.4-.7 1.5-.8 1.4-1.4 1.4-.7h1.4l1.5-.7 2.1-.7 1.4-.7h2.2l1.4-.8h3.6l2.1-.7h3.6l2.1.7h5l1.5.8h1.4l.7.7h1.4l1.5.7h.7l.7.7h1.4l.7.7-2.1 15"/><path fill="#fff" d="M712.9 320h-15l1.4-5.7v-.7l-.7 1.4-1.5.7-.7.7-.7.7-1.4.8-.7.7-.7.7-1.5.7h-.7l-1.4.7H686.4l-1.4.7H682.9l-2.9-.7-2.1-.7-2.9-.7-2.1-1.4-1.5-1.5-2.1-1.4-1.4-2.1-1.5-2.2-.7-2.8-.7-2.2-.7-2.8-.7-2.9v-8.6l.7-2.1.7-3.6 1.4-2.8.7-2.9 1.5-2.9 1.4-2.1 1.4-2.1 2.2-2.2 1.4-1.4 2.1-2.2 2.2-.7 2.1-1.4 1.5-.7 2.1-1.4h2.1l2.9-.8h3.6l1.4.8h2.9l.7.7 1.4.7 1.4.7h.7l.8.7.7.7.7.7.7.8.7.7.7.7v.7l.7.7 3.6-21.4h15L712.9 320z"/><path fill="none" stroke="#fff" stroke-width=".216" stroke-miterlimit="2.613" d="M712.9 320h-15l1.4-5.7v-.7l-.7 1.4-1.5.7-.7.7-.7.7-1.4.8-.7.7-.7.7-1.5.7h-.7l-1.4.7H686.4l-1.4.7H682.9l-2.9-.7-2.1-.7-2.9-.7-2.1-1.4-1.5-1.5-2.1-1.4-1.4-2.1-1.5-2.2-.7-2.8-.7-2.2-.7-2.8-.7-2.9v-8.6l.7-2.1.7-3.6 1.4-2.8.7-2.9 1.5-2.9 1.4-2.1 1.4-2.1 2.2-2.2 1.4-1.4 2.1-2.2 2.2-.7 2.1-1.4 1.5-.7 2.1-1.4h2.1l2.9-.8h3.6l1.4.8h2.9l.7.7 1.4.7 1.4.7h.7l.8.7.7.7.7.7.7.8.7.7.7.7v.7l.7.7 3.6-21.4h15L712.9 320"/><path fill="#FBB231" d="M688.6 307.1h2.8l1.5-.7 1.4-.7.7-.7 1.4-.7.7-.7 1.5-1.5.7-.7.7-1.4.7-.7.7-1.4v-1.5l.7-1.4.8-1.4v-2.9l.7-2.1v-1.5l-.7-1.4v-2.8l-.8-.8v-1.4l-.7-1.4-.7-.7-.7-.7-.7-.8-.7-.7-1.5-.7h-.7l-1.4-.7-1.4.7h-1.5l-.7.7H690l-1.4.7-.7 1.5-.8.7-1.4.7-.7 1.4-.7 1.5-.7.7-.7 1.4-.8 1.4v2.2l-.7 1.4v1.4l-.7 2.2.7 2.8v2.9l.7 2.1 1.5 2.2 1.4 2.1 1.4 1.4h2.2z"/><path fill="#fff" d="M355.7 308.6l-2.1 11.4H340v-2.1l.7-1.5v-2.8l-.7 1.4-.7.7-.7.7-1.5.7-1.4.8-1.4.7-1.4.7-1.5.7H330l-1.4.7h-1.5l-2.1.7h-4.3l-1.4-.7h-2.2l-1.4-.7-1.4-.7-1.4-.7-1.5-1.5-1.4-.7-.7-.7-.7-1.4-.7-.7v-1.5l-.8-1.4-.7-.7v-9.3l.7-2.1.8-1.5.7-2.1 1.4-1.4.7-1.5 1.4-1.4 1.5-1.4 1.4-.7 1.4-1.5 2.2-.7 1.4-.7 2.1-.7 1.5-.7h5l.7-.7H335.7l.7-.7h1.5l1.4.7h5v-.7l.7-.8V278.6l-.7-.7-.7-1.5-.7-.7-1.5-.7h-.7l-1.4-.7h-12.9l-2.1.7h-2.9l-1.4.7h-1.4l-1.5.7h-.7l-.7.7h-.7l3.6-12.8 1.4-.7h1.4l1.5-.7h.7l1.4-.8h4.3l1.4-.7h12.2l2.1.7h2.9l2.1.8 1.4.7 1.5.7 1.4.7 2.1 1.4 1.5.7.7 1.5 1.4 1.4.7 2.1.7 1.5v6.4l-5.7 28.6z"/><path fill="none" stroke="#fff" stroke-width=".216" stroke-miterlimit="2.613" d="M355.7 308.6l-2.1 11.4H340v-2.1l.7-1.5v-2.8l-.7 1.4-.7.7-.7.7-1.5.7-1.4.8-1.4.7-1.4.7-1.5.7H330l-1.4.7h-1.5l-2.1.7h-4.3l-1.4-.7h-2.2l-1.4-.7-1.4-.7-1.4-.7-1.5-1.5-1.4-.7-.7-.7-.7-1.4-.7-.7v-1.5l-.8-1.4-.7-.7v-9.3l.7-2.1.8-1.5.7-2.1 1.4-1.4.7-1.5 1.4-1.4 1.5-1.4 1.4-.7 1.4-1.5 2.2-.7 1.4-.7 2.1-.7 1.5-.7h5l.7-.7H335.7l.7-.7h1.5l1.4.7h5v-.7l.7-.8V278.6l-.7-.7-.7-1.5-.7-.7-1.5-.7h-.7l-1.4-.7h-12.9l-2.1.7h-2.9l-1.4.7h-1.4l-1.5.7h-.7l-.7.7h-.7l3.6-12.8 1.4-.7h1.4l1.5-.7h.7l1.4-.8h4.3l1.4-.7h12.2l2.1.7h2.9l2.1.8 1.4.7 1.5.7 1.4.7 2.1 1.4 1.5.7.7 1.5 1.4 1.4.7 2.1.7 1.5v6.4l-5.7 28.6"/><path fill="#EC1C2E" d="M342.9 294.3v-.7h-2.2l-.7-.7h-1.4l-.7.7H333.6l-.7.7h-1.5l-.7.7h-1.4l-.7.7h-.7l-.8.7-.7.7-.7.8h-.7l-.7.7v.7l-.7.7v1.4l-.7.7v1.5l.7 1.4.7 1.4.7.7.7.8h.7l.7.7H330l1.4-.7h2.2l1.4-.8.7-.7h1.4l.8-.7.7-.7.7-.7v-.7l.7-.7h.7v-1.5l.7-.7v-1.4l.7-2.2v-1.4l.8-1.4z"/><path fill="#fff" d="M241.4 320h-14.3l12.2-70.7H265l2.1 42.1 17.9-42.1h26.4L299.3 320h-15l9.3-52.9h-.7L271.4 320h-17.1v-7.9l-.7-8.5-.7-9.3-.8-10v-8.6l-.7-5.7v-2.9h-.7l-9.3 52.9z"/><path fill="none" stroke="#fff" stroke-width=".216" stroke-miterlimit="2.613" d="M241.4 320h-14.3l12.2-70.7H265l2.1 42.1 17.9-42.1h26.4L299.3 320h-15l9.3-52.9h-.7L271.4 320h-17.1v-7.9l-.7-8.5-.7-9.3-.8-10v-8.6l-.7-5.7v-2.9h-.7l-9.3 52.9"/><path fill="#fff" d="M625 308.6l-2.1 11.4h-13.6v-5.7l-.7.7-.7.7-1.5.7-.7.7-1.4.8-1.4.7-.8.7-1.4.7h-1.4l-2.2.7h-1.4l-1.4.7H590l-1.4-.7h-2.2l-1.4-.7-1.4-.7-1.5-.7-1.4-1.5-1.4-.7-.7-.7-.7-1.4-.8-.7v-1.5l-.7-1.4v-.7l-.7-1.4V302.9l.7-2.2v-2.1l.7-1.5.8-2.1 1.4-1.4.7-1.5 1.4-1.4 1.5-1.4 1.4-.7 1.4-1.5 2.2-.7 1.4-.7 2.1-.7 1.5-.7h4.2l1.5-.7h5.7l.7-.7H607.1l1.5.7h5v-1.5l.7-1.4v-.7l-.7-1.4v-.7l-.7-1.5-.8-.7-1.4-.7h-.7l-1.4-.7h-12.9l-2.1.7h-2.9l-1.4.7h-1.4l-1.5.7h-.7l-.7.7h-.7l3.6-12.8 1.4-.7h1.4l1.4-.7h.8l1.4-.8h4.3l1.4-.7H612.1l1.5.7h3.5l1.5.8 2.1.7 1.4.7 1.5.7 1.4 1.4 1.4.7 1.5 1.5 1.4 1.4.7 2.1v1.5l.7 2.1V280l-5.7 28.6zM622.9 320.7l2.1-12.1h-.7l-2.2 11.4h.8v.7zM608.6 320l.7.7h13.6v-.7H608.6v.7h.7l-.7-.7zM609.3 314.3v-.7l-.7 1.4v5h.7v-6.4.7zM588.6 321.4h7.1l2.2-.7h1.4l1.4-.7 1.4-.7 1.5-.7h.7l1.4-1.5 1.4-.7.8-.7.7-.7.7-.7v-.7l-.7 1.4-1.5.7-.7.7-.7.7-1.4.8-1.4.7h-1.5l-.7.7-1.4.7h-2.2l-1.4.7h-7.1v.7zM575 305v.7l.7 1.4v2.9l.7.7v1.4l.7 1.5.8.7.7 1.4.7.7 1.4 1.5.7.7 1.5.7 1.4.7 2.1.7 2.2.7v-.7l-2.2-.7-1.4-.7-1.4-.7-1.5-.7-1.4-.8-.7-.7-.7-1.4-.7-.7-.7-1.4-.8-.8-.7-1.4V307.1l-.7-1.4v-.7h-.7zM595 284.3h-2.1l-2.2.7-1.4.7-2.2.7-1.4.7-1.4.8-1.4 1.4-1.5 1.4-1.4 1.4-1.4 1.5-.7 1.4-.8 2.1-.7 1.5-.7 2.1v2.2l-.7 2.1h.7l.7-2.1v-2.2l.7-2.1.8-1.5.7-2.1.7-1.4 1.4-1.5.7-1.4 1.5-.7 1.4-1.4 2.1-.7 1.5-1.5 1.4-.7h2.1l1.5-.7 2.1-.7zM605.7 282.9h-5l-.7.7h-5v.7h5l.7-.7H605.7v-.7zM612.9 283.6l.7-.7h-7.9v.7h7.9-.7zM613.6 280V282.9l-.7.7h.7l.7-.7V280h-.7zM607.1 274.3l1.5.7h1.4l.7.7.7.7.7.7.8.8.7.7v1.4h.7v-1.4l-.7-.7-.7-1.5-.8-.7-.7-.7-1.4-.7h-1.4l-1.5-.7v.7zM584.3 277.1v.8l.7-.8h.7l.7-.7h1.5l1.4-.7h2.8l1.5-.7h3.5l2.2-.7H607.1l-1.4-.7h-5l-1.4.7h-5.7l-1.5.7h-2.8l-1.4.7h-1.5l-.7.7h-.7l-.7.7h.7-.7zM587.9 263.6v.7l-3.6 12.8h.7l3.6-12.8-.7-.7v.7-.7zM612.1 261.4h-15l-1.4.7h-2.8l-1.5.8h-.7l-1.4.7h-1.4l.7.7h.7l1.4-.7 1.4-.7h2.2l1.4-.8H612.1v-.7zM630.7 280v-6.4l-.7-2.2-.7-1.4-1.4-1.4-.8-1.5-1.4-1.4-2.1-.7-1.5-.7-1.4-.7-2.1-.7-1.5-.8-1.4-.7h-3.6v.7h2.9l2.1.8 1.5.7h1.4l2.1 1.4 1.5.7 1.4.7 1.4 1.5 1.5 1.4.7 1.4.7 1.4.7 1.5.7 2.1v2.2l-.7 1.4.7.7zM625 308.6l5.7-28.6-.7-.7-5.7 29.3h.7z"/><path fill="#FBB231" d="M611.4 294.3v-.7h-.7l-.7-.7h-2.9l-.7.7h-3.5l-.8.7H600l-.7.7h-.7l-.7.7h-.8l-.7.7h-.7l-.7.7-.7.8-.7.7v.7l-.7.7V302.1l-.8 1.5.8 1.4v1.4l.7.7 1.4.8h.7l.7.7H599.3l1.4-.7h1.4l1.5-.8h.7l1.4-.7.7-.7.7-.7h.8l.7-.7.7-.7.7-.7v-.8l.7-.7v-2.8l.7-1.5v-2.8z"/><path fill="#fff" d="M723.6 312.9V310l.7-1.4 1.4-.7.7-.8 1.5-.7 1.4-.7h2.8l1.5.7 1.4.7 1.4.8.7.7.8 1.4.7 1.4v1.5h-1.5v-.8l-.7-1.4-.7-.7-.7-1.4-.7-.7-.7-.8h-5l-1.5.8-.7.7-.7 1.4-.7.7v2.2h-1.4zM727.9 312.9V310h5.7V312.9h-2.2.7l.8-.8v-.7l-.8-.7h-2.8v2.2h-1.4zM723.6 312.9V316.4l.7 1.5 1.4.7.7.7 1.5.7 1.4.7h2.8l1.5-.7 1.4-.7 1.4-.7.7-.7.8-1.5.7-1.4V312.9h-1.5v1.4l-.7 1.4-.7.7-.7 1.5-.7.7-.7.7h-5l-1.5-.7-.7-.7-.7-1.5-.7-.7v-2.8h-1.4zM727.9 312.9v3.5h1.4v-2.8h1.4l2.2 2.8h.7l-1.5-2.8h.8l.7-.7H727.9z"/><path fill="none" stroke="#fff" stroke-width=".216" stroke-miterlimit="2.613" d="M723.6 313.6v-1.4l.7-1.4.7-1.4.7-1.4 1.4-.7 1.4-.7 1.4-.7h2.8l1.4.7 1.4.7 1.4.7.7 1.4.7 1.4.7 1.4v2.8l-.7 1.4-.7 1.4-.7 1.4-1.4.7-1.4.7h-4.9l-1.4-.7-1.4-.7-1.4-.7-.7-1.4-.7-1.4-.7-1.4.7-.7m5.7 2.8h-1.4V310h5.7v2.8h-1.4l1.4 2.9h-1.4l-1.4-2.9h-1.4l-.1 3.6m1.4-3.5h.7v-.7H730v2.1h.7m0 5h1.4l1.4-.7.7-.7.7-.7.7-.7.7-.7V310l-.7-1.4-.7-.7-.7-.7h-5.6l-.7.7-.7.7-.7.7-1.4 1.4v5.6l.7.7.7.7.7.7.7.7 1.4.7 1.4-.5"/><path fill="#fff" d="M628.6 320h15.7l5-30.7.7-.7v-1.5l.7-1.4v-.7l.7-1.4.7-1.5.8-.7.7-1.4.7-.7 1.4-.7 1.4-.7 1.5-.8 1.4-.7 1.4-.7H667.1l2.2-14.3-1.4.7H665l-1.4.8h-.7l-1.5.7-.7.7-1.4.7-.7.7-.7.7-1.5.7-.7.8-.7 1.4-.7.7-.7.7-.7 1.4 1.4-10h-15L628.6 320z"/><path fill="none" stroke="#fff" stroke-width=".216" stroke-miterlimit="2.613" d="M628.6 320h15.7l5-30.7.7-.7v-1.5l.7-1.4v-.7l.7-1.4.7-1.5.8-.7.7-1.4.7-.7 1.4-.7 1.4-.7 1.5-.8 1.4-.7 1.4-.7H667.1l2.2-14.3-1.4.7H665l-1.4.8h-.7l-1.5.7-.7.7-1.4.7-.7.7-.7.7-1.5.7-.7.8-.7 1.4-.7.7-.7.7-.7 1.4 1.4-10h-15L628.6 320"/><path fill="#fff" d="M485 320h15.7l5-30.7.7-.7v-2.9l.7-.7.8-1.4v-.7l.7-.8.7-1.4 1.4-.7.7-.7 1.5-.7.7-.7h2.1l1.4-.8h1.5l2.1-.7h.7v.7h1.5V275l.7-.7v-1.4l.7-2.2v-1.4l.7-1.4.7-.8.7-1.4v-.7l.7-.7.8-1.4.7-.8h-1.5l-.7-.7h-.7l-1.4.7h-2.9l-1.4.8h-1.4l-.7.7-1.5.7-.7.7-.7.7-1.4.7-.7.7-.8.8-.7.7-.7 1.4-.7.7-.7 1.4 1.4-10h-15L485 320z"/><path fill="none" stroke="#fff" stroke-width=".216" stroke-miterlimit="2.613" d="M485 320h15.7l5-30.7.7-.7v-2.9l.7-.7.8-1.4v-.7l.7-.8.7-1.4 1.4-.7.7-.7 1.5-.7.7-.7h2.1l1.4-.8h1.5l2.1-.7h.7v.7h1.5V275l.7-.7v-1.4l.7-2.2v-1.4l.7-1.4.7-.8.7-1.4v-.7l.7-.7.8-1.4.7-.8h-1.5l-.7-.7h-.7l-1.4.7h-2.9l-1.4.8h-1.4l-.7.7-1.5.7-.7.7-.7.7-1.4.7-.7.7-.8.8-.7.7-.7 1.4-.7.7-.7 1.4 1.4-10h-15L485 320"/><path fill="#FBB231" d="M723.6 377.1v-1.4l.7-1.4 1.4-.7.7-.7 1.5-.8 1.4-.7h2.8l1.5.7 1.4.8 1.4.7.7.7.8 1.4.7 1.4h-1.5l-.7-.7-.7-1.4-.7-.7-.7-.7-.7-.7h-1.5l-1.4-.8-.7.8h-1.4l-1.5.7-.7.7-.7.7-.7 1.4v.7h-1.4zM727.9 377.1v-1.4h5.7v1.4h-.7v-.7h-3.6v.7h-1.4zM723.6 378.6v-1.5h1.4v1.5h-1.4zM727.9 378.6v-1.5h1.4v1.5H731.4l.7-.7h.8v-.8h.7v1.5h-5.7zM737.1 378.6v-1.5h1.5v1.5h-1.5zM723.6 378.6v2.8l.7 1.5 1.4 1.4.7.7 1.5.7 1.4.7h2.8l1.5-.7 1.4-.7 1.4-.7.7-1.4.8-1.5.7-1.4v-1.4h-1.5v1.4l-.7 1.4-.7.7-.7.8-.7 1.4h-.7l-1.5.7H730l-1.4-.7h-1.5l-.7-1.4-.7-.8-.7-.7v-2.8h-1.4zM727.9 378.6v2.8h1.4v-2.1h1.4l2.2 2.1h.7l-1.5-2.1.8-.7h.7-5.7z"/><path fill="#fff" d="M487.1 279.3l-.7-3.6-.7-2.9-1.4-2.1-1.4-2.1-1.4-2.1-1.5-1.5-2.1-.7-2.1-.7-2.1-.7-2.1-.7-2.1-.7h-8.8l-3.6.7-3.6.7-3.6 1.4-2.9 1.4-2.1 2.1-2.1 2.1-1.4 2.1-2.1 2.1-1.4 2.1-.7 2.1-.7 2.1-.7 2.1v15l.7 3.6.7 2.9 1.4 2.9 1.4 2.1 2.1 2.1 2.1 2.1 2.1 1.4 2.1 1.4 2.9.7 2.9.7 2.9.7 2.9.7H480.5l.7-.7.7-.7 2.1-13.6-2.1.7-1.4.7-1.4.7-2.1.7h-19.1l-1.4-.7-.7-.7-.8-.2-.7-.7-.7-.7-.7-.7-.7-.7-.7-.7-.7-1.4-.7-.7v-2.8h35V293l.7-4.3.7-4.3.6-5.1zm-15 5h-20V280.8l.7-1.4.7-.7.7-.7.7-.7.7-.7.7-.7.7-.7.7-.7.7-.7.7-.7H464.7l.7.7.7.7.7.7.7.7.7.7.7.7.7.7.7.7V282.9l1.8 1.4z"/></svg>