<svg xmlns="http://www.w3.org/2000/svg" viewBox="0 0 170 100.7" enable-background="new 0 0 170 100.7"><g><g><path fill="none" stroke="#034EA2" stroke-width=".714" stroke-miterlimit="2.613" d="M.4 64.6v31.9c0 2.2 1.7 3.9 3.9 3.9h161.5c2.1 0 3.9-1.7 3.9-3.9V64.6"/><path fill="#FFF200" d="M169.6 64.6V4.3c0-2.2-1.7-3.9-3.9-3.9H4.2C2 .4.3 2.1.3 4.3v60.3h169.3z"/><path fill="none" stroke="#034EA2" stroke-width=".714" stroke-miterlimit="2.613" d="M169.6 64.6V4.3c0-2.2-1.7-3.9-3.9-3.9H4.2C2 .4.3 2.1.3 4.3v60.3"/><path fill="#034EA2" d="M115.5 33l25.2-24.3 25.1 25.1-24.9 24.9L115.5 33z"/><path fill="none" stroke="#A7A9AC" stroke-width="2.143" stroke-miterlimit="2.613" d="M115.5 33l25.2-24.3 25.1 25.1-24.9 24.9L115.5 33z"/><path fill="#A7A9AC" d="M134.2 18.3l-1.6 4h7.7s4.8-.5 4.8 4.3-4.7 4.3-4.7 4.3h-6.1l-1.9 4.4h7.8s4.5-.5 4.5 3.9-4.5 4.2-4.5 4.2h-5.5l-2.1 4.5 11.1-.1s7.2.1 7.2-6.2c0-4.8-3.1-6.3-3.1-6.3h6.1l-1.8-4.2h-3.4s2.4-2.4 2.4-5.8-2.7-7-6.9-6.9l-10-.1zM19.7 25.1c2.4 0 4.1-1.4 4.1-5.4 0-4.3-3.3-4.9-5.4-4.9h-2.9v10.3h4.2zM5.3 50.2V4h14.9c8.9 0 13.2 6.1 13.2 15.6 0 9.9-4 16.2-12.9 16.2h-5.1v14.4H5.3zM49.4 35.3c-2.9 2.1-6.8 1.1-6.8 5.5 0 1.7 1.1 2.8 2.8 2.8 3.2 0 4.2-3.6 4-8.3zm.9 14.9l-.4-3.6c-2.5 3.5-5.1 4.6-8.5 4.6-4.3 0-8.1-3.1-8.1-10.1 0-15.3 16.1-8.3 16.1-14.6 0-2.4-2-2.8-2.9-2.8-1.2 0-2.9.4-3.1 3.3h-8.6c0-7.1 3.4-11.3 12.3-11.3 10.7 0 11.3 5.9 11.3 13.9v15.7c0 1.9 0 2.9 1.2 4.3v.6h-9.3zM69.7 32.8c0 3.3 1.1 6.5 3.5 6.5 2.8.2 3.8-3.3 3.8-6.9 0-3.7-.9-7.3-3.8-7.3-2.7 0-3.5 3.4-3.5 7.7zm1.2 19.1c0 .4.2 1 .6 1.5.4.5 1 .8 1.9.8 2.6 0 3.6-1.7 3.6-6.5V45c-1.3 1.9-3.2 3.7-6.5 3.7-6.2 0-9.8-7.3-9.8-15.9 0-8.3 2.7-17.1 10.1-17.1 2.7 0 5.3 2.1 6.8 5.4v-4.4h7.9v27.1c0 10.1-.8 18-11.9 18-8 0-11.3-4.7-11.8-9.7h9.1v-.2zM95.8 33.1c0 6.4 1.6 9.1 3.9 9.1 2.4 0 3.9-2.8 3.9-9.1 0-4.9-1.5-8.7-3.8-8.5-3.1 0-4 4.7-4 8.5zm3.9-17.5c8 0 12.9 7 12.9 17.5 0 12.3-5.6 18.1-12.8 18.1-7.2 0-12.8-5.9-12.8-17.4-.1-11.7 5-18.2 12.7-18.2z"/><path fill="none" stroke="#034EA2" stroke-width=".714" stroke-miterlimit="2.613" d="M169.6 96.5c0 2.2-1.7 3.9-3.9 3.9H4.2C2 100.4.3 98.7.3 96.5V4.3C.3 2.1 2 .4 4.2.4h161.5c2.1 0 3.9 1.7 3.9 3.9v92.2z"/><path fill="#034EA2" d="M165.1 71.2h-14.2c-.6 0-1.3.5-1.4 1.1l-.4 2.2c-.1.6.3 1.1 1 1.1h4.1l-2.1 18c-.1.6.4 1.2 1 1.2h3.8c.6 0 1.2-.5 1.3-1.2l2.1-18h4c.6 0 1.3-.5 1.4-1.1l.4-2.2c0-.6-.4-1.1-1-1.1zM117.5 80.3l-2.3-7.2c-.5-1.3-1.2-1.9-1.9-1.9H108c-.6 0-1.3.5-1.4 1.1l-2.8 21.4c-.1.6.4 1.2 1 1.2h3.8c.6 0 1.2-.5 1.3-1.2l1.5-13.1 1.9 7.7c.2.5.6 1.1 1.3 1.1h2.6c.6 0 1.7-.2 2.3-1.2l2.8-4.9-1.1 10.4c-.1.6.4 1.2 1 1.2h3.8c.6 0 1.2-.5 1.3-1.2l2.7-21.4c.1-.6-.3-1.1-1-1.1h-4.6s-1.5-.2-2.7 1.9c-1 1.7-4.2 7.2-4.2 7.2zM63.2 71.2h3.4c.6 0 1.1.5 1 1.1L65 93.7c-.1.6-.7 1.2-1.3 1.2h-3.2c-.7 0-1.3-.5-1.8-1.2-1.8-2.7-4.9-9.7-4.9-9.7l-.9 9.7c-.1.6-.6 1.2-1.3 1.2h-3.8c-.6 0-1.1-.5-1-1.2l2.6-21.4c.1-.6.7-1.1 1.4-1.1h3c.6 0 1.5 1 2.2 1.9l4.7 7 .9-7.9c-.1.1.1-1 1.6-1zM33.9 84.6l2-5.6.8 5.6h-2.8zm7.6-11.7c-.3-1.1-1.1-1.8-1.8-1.8h-5.5c-.6 0-1.3.5-1.4 1.1l-8.7 21c-.3.9.4 1.5 1 1.5h4.1c.9 0 1.3-1 1.6-1.8l1.5-4.2h4.9l.7 4.4s.1 1.7 2.1 1.7h3.8c.6 0 1.4-.9 1.2-1.8l-3.5-20.1zM138.5 84.6l2-5.6.8 5.6h-2.8zm7.6-11.7c-.3-1.1-1.1-1.8-1.8-1.8h-5.5c-.6 0-1.3.5-1.4 1.1l-8.7 21c-.3.9.4 1.5 1 1.5h4.1c.9 0 1.3-1 1.6-1.8l1.5-4.2h4.9l.7 4.4s.1 1.7 2.1 1.7h3.8c.6 0 1.4-.9 1.2-1.8l-3.5-20.1zM84.3 71.3h-7.5c-6.9 0-7.5 6.4-7.5 6.4s-.7 3.9-1.6 10.5c-.9 6.6 4 6.7 6.1 6.7h7.6c.6 0 1.2-.5 1.3-1.2l.3-2.3c.1-.6-.5-1-1.1-1h-4.5c-4.1 0-3.5-2.8-3.5-2.8s1-6.5 1.3-8.9c.3-2.4 2.3-3 4.2-3h4.4c.6 0 1.2-.3 1.3-1l.3-2.3c0-.5-.5-1.1-1.1-1.1zM97.6 78.4s-.6 6.5-1 8.5c-.6 2.9-2 3.3-3.2 3.3-3 0-2.4-2.5-2.4-2.5s1-6.5 1.3-8.9c.3-2.4 1.7-2.7 3.5-2.7 2.1-.1 1.8 2.3 1.8 2.3zm1.3-7.1c-3.3-.4-6 .1-6 .1-5.7.5-6.5 6.4-6.5 6.4s-.7 3.9-1.6 10.5c-.9 6.6 4.1 6.9 7.3 6.9 0 0 9.1.9 10.2-6.7 1.1-7.8 1.3-10.2 1.4-11.5.4-3.1-1.6-5.3-4.8-5.7zM15.9 80.1h-2.7l.4-3.1h3.1s1.5-.1 1.3 1.3c-.1 1.4-.8 1.8-2.1 1.8zm1.3 8.1c-.2 1.8-1.2 2.4-2.7 2.5-1.4.1-2.6 0-2.6 0l.6-5h3.2s1.9-.2 1.5 2.5zm3-5.4c3.7-1.8 3.8-4.6 4-6.4.5-4.3-3.8-5-5-5H9c-.7 0-1.3.6-1.4 1.2l-2.5 21c-.1.7.4 1.2 1.1 1.2h11c3.3 0 6.2-2.9 6.6-6.1.6-4.9-3.6-5.9-3.6-5.9z"/></g></g></svg>