<svg xmlns="http://www.w3.org/2000/svg" viewBox="18 -0.1 942 560" enable-background="new 18 -0.1 942 560"><path fill="none" stroke="#034EA2" stroke-width=".714" stroke-miterlimit="2.613" d="M18.4 359.5v178.3c0 12.1 9.7 21.8 21.6 21.8h898c12 0 21.6-9.8 21.6-21.8V359.5"/><path fill="#FFF200" d="M959.7 359.5V22.2c0-12.1-9.7-21.9-21.6-21.9H40c-11.9.1-21.6 9.9-21.6 21.9v337.3h941.3z"/><path fill="none" stroke="#034EA2" stroke-width=".714" stroke-miterlimit="2.613" d="M959.7 359.5V22.2c0-12.1-9.7-21.9-21.6-21.9H40c-11.9.1-21.6 9.9-21.6 21.9v337.3"/><path fill="#034EA2" d="M658.8 183.2L798.9 46.9l139.3 140.5-138.7 139.1-140.7-143.3z"/><path fill="none" stroke="#A7A9AC" stroke-width="2.143" stroke-miterlimit="2.613" d="M658.8 183.2L798.9 46.9l139.3 140.5-138.7 139.1-140.7-143.3z"/><path fill="#A7A9AC" d="M762.4 100.6l-9.1 22.6h42.8s26.6-2.8 26.6 24.1c0 26.8-26 24-26 24h-33.6L752.5 196H796s25.2-2.8 25.2 21.9-25.2 23.2-25.2 23.2h-30.8l-11.9 25.4 61.6-.4s39.9.4 39.9-34.9c0-26.8-17.5-35.3-17.5-35.3h33.6l-9.8-23.3h-18.9s13.2-13.5 13.2-32.5-15-39-38.5-38.9l-54.5-.6zm-636.5 37.9c13.1 0 22.7-7.9 22.7-30.2 0-24.1-18.2-27.2-30.2-27.2h-16v57.4h23.5zM46.1 279.2V20.9h83c49.6 0 73.6 34 73.6 87.2 0 55.6-22.1 90.8-71.6 90.8h-28.6v80.4l-56.4-.1zM290.9 196c-16.3 11.9-37.8 6.1-37.8 30.5 0 9.4 6 15.8 15.8 15.8 17.5-.1 23.2-20.5 22-46.3zm5.1 83.2l-2.4-20.1c-14.1 19.8-28.5 25.4-47.2 25.4-23.7 0-44.8-17.5-44.8-56.6 0-85.4 89.3-46.7 89.3-81.8 0-13.7-11-15.4-16.3-15.4-6.9 0-16.3 2.1-17.4 18.3h-47.9c0-39.8 18.9-63.2 68.4-63.2 59.4 0 63.1 33 63.1 77.9v87.9c0 10.7.2 16.1 6.7 24.1v3.6H296v-.1zM403.7 182c0 18.7 6.2 36.3 19.7 36.6 15.3 1.1 21.1-18.7 21.1-38.8 0-20.8-5.3-40.6-21.1-40.6-15.1-.3-19.7 18.4-19.7 42.8zm6.7 106.9c0 2.2.9 5.5 3.2 8.3 2.2 2.8 5.8 4.7 10.7 4.7 14.4 0 20.2-9.7 20.2-36.6v-15.4c-7.1 10.8-18 20.5-35.9 20.5-34.7 0-54.5-40.9-54.5-89 0-46.3 14.8-95.5 56-95.5 15 0 29.2 11.9 38 30.2V91.2h43.8v151.4c0 56.3-4.3 100.5-66.1 100.5-44.3 0-62.9-26.5-65.4-54.2h50zm138.8-105.5c0 35.5 8.8 51 21.5 51 13.5 0 21.5-15.4 21.5-51 0-27.6-8.1-48.4-21.1-47.4-16.9 0-21.9 26.3-21.9 47.4zm21.3-97.7c44.3 0 71.6 39.1 71.6 97.6 0 68.8-31.1 101.2-71.4 101.2-40.2 0-71.4-33-71.4-97.2.1-65.3 28.8-101.6 71.2-101.6z"/><path fill="none" stroke="#034EA2" stroke-width=".714" stroke-miterlimit="2.613" d="M959.7 537.8c0 12.1-9.7 21.8-21.6 21.8H40c-12 0-21.6-9.8-21.6-21.8V22.2C18.4 10.2 28.1.4 40 .4h898c12 0 21.6 9.8 21.6 21.9v515.5h.1z"/><path fill="#034EA2" d="M934 396.4h-78.8c-3.6 0-7 2.8-7.7 6.4l-2.2 12.2c-.6 3.5 1.8 6.4 5.4 6.4h22.6l-11.7 100.9c-.4 3.6 2.3 6.5 5.8 6.5h21.2c3.6 0 6.7-2.9 7.1-6.5l11.8-101h22.2c3.6 0 6.9-2.9 7.7-6.4l2.1-12.2c.6-3.4-1.8-6.3-5.5-6.3zm-264 50.9L657.2 407c-2.5-7-6.8-10.6-10.3-10.6h-30.1c-3.6 0-6.9 2.8-7.7 6.4l-15.3 119.5c-.4 3.6 2.2 6.5 5.8 6.5h21c3.6 0 6.8-2.9 7.1-6.5l8.1-73.6 10.5 43.1c.9 2.9 3.6 6.4 7.1 6.4H668c3.6 0 9.4-1.3 12.6-6.5l15.6-27.6-6.2 58.4c-.4 3.6 2.2 6.5 5.8 6.5h21c3.6 0 6.6-2.9 7.3-6.4l15.1-119.9c.6-3.6-1.8-6.4-5.4-6.4h-25.6s-8.6-1.3-15.2 10.6c-5.6 9.6-23.1 40.4-23 40.4zm-302.2-50.9h18.8c3.6 0 6 2.8 5.4 6.4l-14.6 119.9c-.6 3.6-3.7 6.4-7.3 6.4h-17.9c-4.1 0-7.4-2.5-9.8-6.9-9.7-14.7-27.1-54-27.1-54l-4.9 54.1c-.3 3.6-3.6 6.5-7.1 6.5h-21c-3.6 0-6.2-2.9-5.8-6.5l14.4-119.5c.6-3.6 4.1-6.4 7.7-6.4h16.8c3.6 0 8.6 5.8 12.1 10.6l26.1 39.4 4.7-43.9s1.2-6.1 9.5-6.1zm-163.2 75l11-31.2 4.2 31.2h-15.2zm42.4-65c-1.9-6.1-6.3-9.9-9.9-9.9h-30.5c-3.6 0-7 2.8-7.7 6.4l-48.3 117.7c-1.9 4.8 2.2 8.3 5.7 8.3h22.6c4.7 0 7.4-5.5 8.9-9.9l8.3-23.4h27.1L227 520s.6 9.2 11.7 9.2h21.1c3.6 0 7.6-5.1 6.6-10.3L247 406.4zm539.5 65l11-31.2 4.2 31.2h-15.2zm42.5-65c-1.9-6.1-6.3-9.9-9.9-9.9h-30.6c-3.6 0-6.9 2.8-7.7 6.4l-48.3 117.7c-1.9 4.8 2.2 8.3 5.8 8.3h22.5c4.7 0 7.4-5.5 8.9-9.9l8.3-23.4h27l3.8 24.4s.6 9.2 11.8 9.2h21c3.6 0 7.6-5.1 6.6-10.3L829 406.4zm-343.9-9.1h-41.8c-38.5 0-41.6 35.9-41.6 35.9s-4.1 21.9-8.9 58.6c-4.7 36.9 22.3 37.2 34 37.2h42.5c3.6 0 6.8-2.9 7.4-6.5l1.6-12.7c.4-3.6-2.7-5.6-6.3-5.6h-25.3c-22.9 0-19.3-15.8-19.3-15.8s5.4-36.6 7.3-50c1.9-13.5 13-16.7 23.2-16.7h24.7c3.6 0 6.5-2 6.9-5.6l1.6-12.7c.1-3.1-2.5-6.1-6-6.1zm73.9 39.5s-3.2 36.5-5.4 47.8c-3.2 16.4-11.1 18.3-17.8 18.3-16.6 0-13.5-14.1-13.5-14.1s5.4-36.6 7.4-50c1.9-13.5 9.6-15 19.8-15 11-.2 9.5 13 9.5 13zm7.2-39.8c-18.1-2.2-33.4.3-33.4.3-31.5 2.8-35.9 35.9-35.9 35.9s-4.1 21.9-8.9 58.6c-4.7 36.9 22.9 38.6 40.4 38.6 0 0 50.5 4.8 56.6-37.5 6.2-43.5 7-56.7 8-64.1 2.2-17.4-8.8-29.6-26.8-31.8zm-461.4 49.4c-4.6.2-10.5.2-15 .1l2.1-17.4h17.4s8.3-.6 7.4 7c-1.1 7.8-4.5 10-11.9 10.3zm7.4 45.2c-1.5 10.3-6.7 13.3-15 13.8-8 .3-14.5 0-14.5 0l3.4-27.8H104c0-.1 10.4-1 8.2 14zm16.8-30c20.4-10.1 21.3-25.9 22.4-35.7 2.5-24.1-21-28.2-27.6-28.2H66.2c-3.9 0-7.4 3.2-7.8 6.9L44.6 522.2c-.4 3.9 2.3 6.9 6.1 6.9h61.1c18.3 0 34.7-16.4 36.9-34.3 3.5-27.9-19.7-33.2-19.7-33.2z"/></svg>