<svg xmlns="http://www.w3.org/2000/svg" viewBox="32.1 0 896.4 560" enable-background="new 32.1 0 896.4 560"><path fill="#3957A7" d="M927.9 530c0 16.4-13.6 30-30 30H62.1c-16.4 0-30-13.6-30-30V30c0-16.4 13.6-30 30-30h836.4c16.4 0 30 13.6 30 30v500h-.6z"/><g fill="#fff"><path d="M444.3 364.3h-43.6l27.2-168.6h44.2zM363.6 195.7l-41.4 115.7-5-25-15-75.7s-1.4-15-20.7-15h-69.3l-.7 2.9s21.4 4.3 45.7 19.3l38.6 146.4h45.7l69.3-168.6h-47.2zM707.9 364.3h40l-35-167.9h-35c-16.4 0-20 12.9-20 12.9l-65 155h45.7l9.3-25h55.7l4.3 25zm-47.9-60l22.9-62.9 12.9 62.9H660zM595.7 236.4l6.4-36.4s-19.3-7.1-39.3-7.1c-21.4 0-73.6 9.3-73.6 55.7 0 43.6 60.7 44.3 60.7 66.4 0 22.9-54.3 18.6-72.1 4.3l-6.4 37.9s19.3 9.3 49.3 9.3c30 0 75-15.7 75-57.9 0-43.6-61.4-47.9-61.4-66.4.7-18.6 42.8-15.8 61.4-5.8z"/></g><path fill="#F9A533" d="M317.1 286.4l-15-75.7s-1.4-15-20.7-15h-69.3l-.7 2.9s32.9 7.1 65 32.9c30.7 24.2 40.7 54.9 40.7 54.9z"/></svg>