<?xml version="1.0" encoding="utf-8"?>
<!-- Generator: Adobe Illustrator 17.1.0, SVG Export Plug-In . SVG Version: 6.00 Build 0)  -->
<!DOCTYPE svg PUBLIC "-//W3C//DTD SVG 1.1//EN" "http://www.w3.org/Graphics/SVG/1.1/DTD/svg11.dtd">
<svg version="1.1" id="Layer_1" xmlns="http://www.w3.org/2000/svg" xmlns:xlink="http://www.w3.org/1999/xlink" x="0px" y="0px"
	 viewBox="0 0 125.4 78.4" enable-background="new 0 0 125.4 78.4" xml:space="preserve">
<g>
	<path fill="#3957A7" d="M125.4,74.2c0,2.3-1.9,4.2-4.2,4.2H4.2c-2.3,0-4.2-1.9-4.2-4.2v-70C0,1.9,1.9,0,4.2,0h117.1
		c2.3,0,4.2,1.9,4.2,4.2V74.2z"/>
	<g>
		<polygon fill="#FFFFFF" points="57.7,51 51.6,51 55.4,27.4 61.6,27.4 		"/>
		<path fill="#FFFFFF" d="M46.4,27.4l-5.8,16.2l-0.7-3.5v0l-2.1-10.6c0,0-0.2-2.1-2.9-2.1h-9.7l-0.1,0.4c0,0,3,0.6,6.4,2.7L36.9,51
			h6.4L53,27.4H46.4z"/>
		<path fill="#FFFFFF" d="M94.6,51h5.6l-4.9-23.5h-4.9c-2.3,0-2.8,1.8-2.8,1.8L78.5,51h6.4l1.3-3.5h7.8L94.6,51z M87.9,42.6l3.2-8.8
			l1.8,8.8H87.9z"/>
		<path fill="#FFFFFF" d="M78.9,33.1l0.9-5.1c0,0-2.7-1-5.5-1c-3,0-10.3,1.3-10.3,7.8c0,6.1,8.5,6.2,8.5,9.3c0,3.2-7.6,2.6-10.1,0.6
			L61.5,50c0,0,2.7,1.3,6.9,1.3c4.2,0,10.5-2.2,10.5-8.1c0-6.1-8.6-6.7-8.6-9.3C70.4,31.3,76.3,31.7,78.9,33.1z"/>
	</g>
	<path fill="#F9A533" d="M39.9,40.1l-2.1-10.6c0,0-0.2-2.1-2.9-2.1h-9.7l-0.1,0.4c0,0,4.6,1,9.1,4.6C38.5,35.8,39.9,40.1,39.9,40.1z
		"/>
</g>
</svg>
