<svg xmlns="http://www.w3.org/2000/svg" viewBox="1.9 263 959.9 298.5" enable-background="new 1.9 263 959.9 298.5"><style>.style0{stroke:#e00c10;stroke-width:16;stroke-miterlimit:10;fill: none;}.style1{font-size:200;font-family:&amp;apos;Roboto-Medium&amp;apos;;fill:#FFFFFF;}.style2{fill:#e00c10;}</style><path class="style0" d="M605.5 544.6l-595.1-.3V271.5h943v272.8h-61.5"/><g enable-background="new"><path d="M153.7 420.9c0 17.5-5.5 31.9-16.5 43.4s-25.1 17.2-42.6 17.2c-17.2 0-31-5.7-41.8-17.2-10.7-11.4-16.1-25.9-16.1-43.4v-25.7c0-17.4 5.3-31.8 16.1-43.4 10.6-11.5 24.6-17.3 41.7-17.3 17.5 0 31.6 5.7 42.7 17.3 10.9 11.5 16.5 25.9 16.5 43.4v25.7zM130 395c0-11.8-3.2-21.7-9.5-29.3-6.3-7.6-15-11.4-25.8-11.4-10.4 0-18.8 3.8-24.8 11.4-6 7.6-9.1 17.5-9.1 29.3v25.9c0 12 3 21.9 9.1 29.5C76 458.2 84.2 462 94.8 462c10.9 0 19.5-3.8 25.8-11.4 6.3-7.6 9.4-17.5 9.4-29.6v-26zM287.9 336.7v95.7c0 15.9-5.1 27.9-15.5 36.4-10.3 8.4-23.8 12.7-40.5 12.7-16.4 0-29.6-4.2-39.8-12.8s-15.2-20.6-15.2-36.3v-95.7h23.8v95.7c0 10 2.8 17.5 8.4 22.5 5.6 5 13.2 7.5 22.7 7.5 9.8 0 17.6-2.5 23.4-7.5 5.8-5 8.7-12.5 8.7-22.5v-95.6h23.8v-.1zM413.9 355.9h-43.2v123.6H347V355.9h-43.2v-19.1h110.1v19.1zM456.4 420.2v59.2h-23.8V336.7h52.7c16 0 28.3 3.6 36.9 10.7 8.7 7.2 13.1 17.5 13.1 30.8 0 7.4-1.9 13.8-5.7 19.1-3.8 5.3-9.4 9.6-16.8 12.8 8 2.5 13.9 6.7 17.4 12.5 3.5 5.8 5.3 12.9 5.3 21.3v11.8c0 4.2.5 8.2 1.6 12.2 1 4 2.8 7 5.3 9.1v2.2h-24.5c-2.6-2.1-4.3-5.5-5-10.2-.7-4.6-1.1-9.1-1.1-13.7V444c0-7.3-2.1-13.2-6.2-17.5-4.2-4.3-9.9-6.4-17.3-6.4h-31.9v.1zm0-19H484c9.5 0 16.5-1.8 20.9-5.5 4.4-3.6 6.5-9.2 6.5-16.8 0-7.2-2.1-12.9-6.4-16.9-4.3-4.1-10.8-6.1-19.7-6.1h-28.9v45.3zM642.9 446.1H587l-11.3 33.3h-24.1L604 336.7h22.5l51.9 142.8h-24.2l-11.3-33.4zm-49.1-19.8h42.3l-20.7-61h-.6l-21 61zM801.4 460.2c-3.8 5.4-10 10.3-18.7 14.8-8.6 4.4-19.8 6.6-33.4 6.6-17.2 0-31.3-5.4-42.5-16.4-11.1-10.8-16.7-25-16.7-42.2v-29.8c0-17.3 5.2-31.3 15.8-42.2s24-16.4 40.7-16.4c16.8 0 29.8 4.1 39.2 12.4 9.3 8.2 14.1 19.1 14.3 32.3l-.2.6h-22.6c-.5-7.8-3.3-14.2-8.3-19-5-4.8-12.4-7.2-22-7.2-9.8 0-17.9 3.7-23.9 11-6 7.4-9 16.8-9 28.1v30c0 11.4 3.3 21 9.8 28.3 6.5 7.3 15.1 11.1 25.5 11.1 7.4 0 13.5-.9 18.2-2.6 4.6-1.7 8-3.8 10.1-6.1v-28.9h-28.3V407h52.2v53.2h-.2zM916.8 415.2h-62.4v45.1h72.5v19.1h-96.3V336.7h95.6v19.1h-71.8V396h62.4v19.2z" class="style2"/></g><path d="M623.2 561v-38.6H636c4.3 0 7.6.9 9.9 2.6 2.3 1.7 3.6 4.4 3.6 7.8 0 1.7-.5 3.3-1.5 4.7-1 1.3-2.3 2.3-4.2 3.1 2.3.5 4 1.6 5.3 3.3 1.3 1.7 1.8 3.7 1.8 5.9 0 3.6-1.2 6.4-3.6 8.2-2.3 1.8-5.6 2.8-9.7 2.8h-14.4zm6.5-22.3h7.1c2 0 3.6-.5 4.7-1.3 1.1-1 1.7-2.3 1.7-4 0-1.8-.6-3.3-1.8-4.2-1.2-.9-2.9-1.3-5.3-1.3h-6.4v10.8zm0 4.7v12.3h8.1c2.2 0 3.9-.5 5.1-1.5s1.8-2.5 1.8-4.4c0-2.1-.5-3.6-1.5-4.8-1-1.1-2.6-1.7-4.7-1.7h-8.9v.1h.1zM665.1 545v16h-6.4v-38.6H673c4.3 0 7.6 1 9.9 2.9 2.3 2 3.6 4.7 3.6 8.2 0 2-.5 3.7-1.6 5.1-1 1.5-2.6 2.6-4.5 3.4 2.2.7 3.7 1.8 4.7 3.3s1.5 3.4 1.5 5.8v3.2c0 1.1.1 2.2.4 3.3s.7 1.8 1.5 2.5v.6h-6.8c-.7-.6-1.1-1.5-1.3-2.7-.2-1.2-.2-2.5-.2-3.7v-3.1c0-2-.6-3.6-1.7-4.7s-2.7-1.7-4.7-1.7h-8.6v.2zm0-5.2h7.5c2.6 0 4.4-.5 5.6-1.5s1.7-2.5 1.7-4.5-.6-3.4-1.7-4.5-2.9-1.6-5.3-1.6h-7.7v12.1h-.1zM718.6 543.6h-16.9v12.2h19.6v5.1h-26v-38.6H721v5.1h-19.3v10.8h16.9v5.4zM736.8 550.6l7.7-28.2h5.1l7.7 28.2v.2-.2l6-28.2h6.3l-9.1 38.6H755l-7.7-27.7h-.1l-7.7 27.7h-5.8l-9.1-38.6h6.3l5.9 28.2zM782.8 546.3V561h-6.4v-38.6h15.1c4.3 0 7.6 1.1 9.9 3.3 2.3 2.2 3.6 5 3.6 8.6s-1.2 6.5-3.6 8.7c-2.5 2.2-5.8 3.3-9.9 3.3h-8.6zm0-5.1h8.6c2.3 0 4.2-.6 5.4-1.8 1.2-1.2 1.8-2.8 1.8-4.8s-.6-3.6-1.8-4.9c-1.2-1.3-2.9-2-5.4-2h-8.6v13.5zM841.3 522.5v25.8c0 4.3-1.3 7.5-4.2 9.8-2.8 2.3-6.4 3.4-10.9 3.4-4.4 0-8-1.1-10.7-3.4-2.7-2.3-4-5.5-4-9.8v-25.8h6.4v25.8c0 2.7.7 4.7 2.2 6 1.5 1.3 3.6 2.1 6.1 2.1 2.5 0 4.8-.7 6.3-2.1 1.6-1.3 2.3-3.3 2.3-6v-25.8h6.5zM849.9 561v-38.6h12.8c4.3 0 7.6.9 9.9 2.6 2.3 1.7 3.6 4.4 3.6 7.8 0 1.7-.5 3.3-1.5 4.7-1 1.3-2.3 2.3-4.2 3.1 2.3.5 4 1.6 5.3 3.3 1.2 1.7 1.8 3.7 1.8 5.9 0 3.6-1.2 6.4-3.6 8.2-2.3 1.8-5.6 2.8-9.7 2.8h-14.4zm6.4-22.3h7.1c2 0 3.6-.5 4.7-1.3 1.1-1 1.7-2.3 1.7-4 0-1.8-.6-3.3-1.8-4.2-1.2-.9-2.9-1.3-5.3-1.3h-6.4v10.8zm0 4.7v12.3h8.1c2.2 0 3.9-.5 5.1-1.5 1.2-1 1.8-2.5 1.8-4.4 0-2.1-.5-3.6-1.5-4.8-1-1.1-2.6-1.7-4.7-1.7h-8.9v.1h.1z" class="style2"/></svg>